<?xml version="1.0" encoding="UTF-8" standalone="no"?>
<svg
   sodipodi:docname="10H.svg"
   id="svg8"
   version="1.1"
   viewBox="0 0 63.326797 88.238365"
   height="88.238365mm"
   width="63.326797mm"
   inkscape:version="1.1.1 (1:1.1+202109281949+c3084ef5ed)"
   inkscape:export-filename="/home/doug/k40/52Cards/10H.png"
   inkscape:export-xdpi="96"
   inkscape:export-ydpi="96"
   xmlns:inkscape="http://www.inkscape.org/namespaces/inkscape"
   xmlns:sodipodi="http://sodipodi.sourceforge.net/DTD/sodipodi-0.dtd"
   xmlns="http://www.w3.org/2000/svg"
   xmlns:svg="http://www.w3.org/2000/svg"
   xmlns:rdf="http://www.w3.org/1999/02/22-rdf-syntax-ns#"
   xmlns:cc="http://creativecommons.org/ns#"
   xmlns:dc="http://purl.org/dc/elements/1.1/">
  <defs
     id="defs2">
    <marker
       style="overflow:visible"
       id="marker2995"
       refX="0"
       refY="0"
       orient="auto"
       inkscape:stockid="Arrow1Lstart"
       inkscape:isstock="true">
      <path
         transform="matrix(0.8,0,0,0.8,10,0)"
         style="fill:#000000;fill-opacity:1;fill-rule:evenodd;stroke:#000000;stroke-width:1pt;stroke-opacity:1"
         d="M 0,0 5,-5 -12.5,0 5,5 Z"
         id="path2993" />
    </marker>
    <marker
       style="overflow:visible"
       id="marker2985"
       refX="0"
       refY="0"
       orient="auto"
       inkscape:stockid="Arrow1Lstart"
       inkscape:isstock="true">
      <path
         transform="matrix(0.8,0,0,0.8,10,0)"
         style="fill:#000000;fill-opacity:1;fill-rule:evenodd;stroke:#000000;stroke-width:1pt;stroke-opacity:1"
         d="M 0,0 5,-5 -12.5,0 5,5 Z"
         id="path2983" />
    </marker>
    <marker
       style="overflow:visible"
       id="marker2791"
       refX="0"
       refY="0"
       orient="auto"
       inkscape:stockid="Arrow1Lstart"
       inkscape:isstock="true">
      <path
         transform="matrix(0.8,0,0,0.8,10,0)"
         style="fill:#000000;fill-opacity:1;fill-rule:evenodd;stroke:#000000;stroke-width:1pt;stroke-opacity:1"
         d="M 0,0 5,-5 -12.5,0 5,5 Z"
         id="path2789" />
    </marker>
    <marker
       style="overflow:visible"
       id="marker2781"
       refX="0"
       refY="0"
       orient="auto"
       inkscape:stockid="Arrow1Lstart"
       inkscape:isstock="true">
      <path
         transform="matrix(0.8,0,0,0.8,10,0)"
         style="fill:#000000;fill-opacity:1;fill-rule:evenodd;stroke:#000000;stroke-width:1pt;stroke-opacity:1"
         d="M 0,0 5,-5 -12.5,0 5,5 Z"
         id="path2779" />
    </marker>
    <marker
       style="overflow:visible"
       id="marker2417"
       refX="0"
       refY="0"
       orient="auto"
       inkscape:stockid="Arrow1Lstart"
       inkscape:isstock="true">
      <path
         transform="matrix(0.8,0,0,0.8,10,0)"
         style="fill:#000000;fill-opacity:1;fill-rule:evenodd;stroke:#000000;stroke-width:1pt;stroke-opacity:1"
         d="M 0,0 5,-5 -12.5,0 5,5 Z"
         id="path2415" />
    </marker>
    <marker
       style="overflow:visible"
       id="marker2383"
       refX="0"
       refY="0"
       orient="auto"
       inkscape:stockid="Arrow1Lstart"
       inkscape:isstock="true">
      <path
         transform="matrix(0.8,0,0,0.8,10,0)"
         style="fill:#000000;fill-opacity:1;fill-rule:evenodd;stroke:#000000;stroke-width:1pt;stroke-opacity:1"
         d="M 0,0 5,-5 -12.5,0 5,5 Z"
         id="path2381" />
    </marker>
    <marker
       style="overflow:visible"
       id="marker2355"
       refX="0"
       refY="0"
       orient="auto"
       inkscape:stockid="Arrow1Lstart"
       inkscape:isstock="true">
      <path
         transform="matrix(0.8,0,0,0.8,10,0)"
         style="fill:#000000;fill-opacity:1;fill-rule:evenodd;stroke:#000000;stroke-width:1pt;stroke-opacity:1"
         d="M 0,0 5,-5 -12.5,0 5,5 Z"
         id="path2353" />
    </marker>
    <marker
       style="overflow:visible"
       id="Arrow1Lstart"
       refX="0"
       refY="0"
       orient="auto"
       inkscape:stockid="Arrow1Lstart"
       inkscape:isstock="true">
      <path
         transform="matrix(0.8,0,0,0.8,10,0)"
         style="fill:#000000;fill-opacity:1;fill-rule:evenodd;stroke:#000000;stroke-width:1pt;stroke-opacity:1"
         d="M 0,0 5,-5 -12.5,0 5,5 Z"
         id="path2071" />
    </marker>
  </defs>
  <sodipodi:namedview
     id="base"
     pagecolor="#ffffff"
     bordercolor="#666666"
     borderopacity="1.0"
     inkscape:pageopacity="0.0"
     inkscape:pageshadow="2"
     inkscape:zoom="1.5052504"
     inkscape:cx="86.696539"
     inkscape:cy="167.08184"
     inkscape:document-units="mm"
     inkscape:current-layer="layer1"
     inkscape:document-rotation="0"
     showgrid="false"
     inkscape:snap-smooth-nodes="false"
     inkscape:object-nodes="false"
     inkscape:window-width="1366"
     inkscape:window-height="712"
     inkscape:window-x="0"
     inkscape:window-y="0"
     inkscape:window-maximized="1"
     inkscape:object-paths="false"
     inkscape:snap-intersection-paths="false"
     inkscape:snap-midpoints="false"
     inkscape:snap-others="false"
     inkscape:pagecheckerboard="0"
     showguides="true"
     inkscape:guide-bbox="true"
     inkscape:snap-bbox="true"
     showborder="false"
     fit-margin-top="0"
     fit-margin-left="0"
     fit-margin-right="0"
     fit-margin-bottom="0" />
  <metadata
     id="metadata5">
    <rdf:RDF>
      <cc:Work
         rdf:about="">
        <dc:format>image/svg+xml</dc:format>
        <dc:type
           rdf:resource="http://purl.org/dc/dcmitype/StillImage" />
      </cc:Work>
    </rdf:RDF>
  </metadata>
  <g
     inkscape:label="Layer 1"
     inkscape:groupmode="layer"
     id="layer1"
     transform="translate(-28.377647,353.58186)">
    <path
       id="path2014-6"
       style="fill:#000000;fill-opacity:1;stroke:none;stroke-width:0.265;stroke-miterlimit:4;stroke-dasharray:none;stroke-opacity:1"
       d="m 84.122004,-353.57772 c -2.69219,-0.007 -6.385499,-0.005 -10.462409,0.005 -8.060721,0.0198 -18.351871,0.0394 -22.868891,0.0434 -4.517,0.004 -10.75944,0.0176 -13.87253,0.031 l -5.66063,0.0248 -0.63563,0.30593 c -1.26051,0.60728 -2.15297,1.82312 -2.24018,3.05149 -0.0352,0.49282 0.16608,61.52348 0.2553,77.4454 l 0.0243,4.28036 0.33538,0.67076 c 0.56481,1.12896 1.57007,1.96768 2.7037,2.25619 l 0.47077,0.11989 24.16183,-0.0749 c 13.288881,-0.0413 24.17847,-0.0598 24.19956,-0.0408 0.0211,0.0188 1.92614,0.0133 4.23333,-0.0129 l 4.1951,-0.0475 0.54827,-0.29921 v -5.1e-4 c 0.77721,-0.42449 1.62624,-1.29219 1.92701,-1.96887 l 0.24133,-0.54106 0.0248,-4.86844 c 0.0137,-2.67771 -0.0434,-21.25633 -0.1266,-41.28585 l -0.15089,-36.41741 -0.28528,-0.5271 c -0.49696,-0.92002 -1.61737,-1.84242 -2.56106,-2.10736 -0.0732,-0.0207 -1.7644,-0.0352 -4.45659,-0.0419 z m -43.26866,0.63149 c 4.23775,-0.006 9.47814,-0.006 14.81304,0.002 2.11977,0.003 8.02373,0.007 13.12323,0.008 5.099241,0.001 11.6721,0.003 14.60532,0.006 l 5.19141,0.004 0.4258,0.22479 c 0.57552,0.30258 1.36347,1.09054 1.59578,1.55236 l 0.18912,0.37879 0.045,4.60592 c 0.0366,3.78221 0.0902,12.61554 0.13126,20.70467 0.041,8.08913 0.0684,15.49403 0.0563,16.23674 -0.0143,0.88441 0.0177,7.87706 0.0682,15.67759 0.0526,8.127 0.0842,14.33263 0.0941,18.55081 0.005,2.10909 0.004,3.72219 -0.002,4.82813 -0.003,0.55296 -0.006,0.97911 -0.0119,1.27537 -0.003,0.14813 -0.006,0.26406 -0.009,0.34365 -0.003,0.0796 -0.0161,0.15926 -0.002,0.0822 -0.0629,0.34561 -0.41193,0.95695 -0.90226,1.40818 -0.68704,0.63224 -1.18694,0.88993 -1.79887,0.98444 -0.22423,0.0346 -0.72649,0.0718 -1.1503,0.0879 -0.21193,0.008 -0.40868,0.0119 -0.5452,0.01 -0.06,-9.4e-4 -0.10166,-0.004 -0.12711,-0.006 -0.005,-0.002 -0.0154,-0.004 -0.0155,-0.004 -5.3e-4,-1.3e-4 -0.048,-0.01 -0.0605,-0.0119 -0.025,-0.004 -0.0346,-0.005 -0.045,-0.006 -0.0206,-0.002 -0.0347,-10e-4 -0.0506,-0.002 -0.0319,-10e-4 -0.0696,-0.003 -0.11729,-0.004 -0.0954,-0.002 -0.23058,-0.004 -0.40256,-0.006 -0.34399,-0.003 -0.83508,-0.006 -1.44127,-0.008 -1.21235,-0.004 -2.87866,-0.005 -4.7072,-0.002 -3.655059,0.005 -8.325189,0.006 -10.37301,0.004 -5.82652,-0.007 -12.05675,-0.005 -19.00762,0.006 -3.51565,0.006 -9.19496,0.0123 -12.61731,0.0139 l -6.09164,0.004 -0.47643,-0.2248 c -0.54721,-0.25805 -1.27635,-0.93017 -1.67228,-1.58388 l -0.21857,-0.35915 -0.15039,-17.41237 c -0.14369,-16.53656 -0.28768,-44.22917 -0.30281,-58.63673 l -0.006,-6.30452 0.26355,-0.53123 c 0.45151,-0.91114 1.62055,-1.77362 2.31045,-1.85157 -0.0397,0.004 0.0459,-0.002 0.14883,-0.004 0.10694,-0.002 0.25728,-0.003 0.44701,-0.006 1.32342,-0.0166 4.55858,-0.029 8.79636,-0.0351 z m -7.67344,3.24166 c -0.15841,-0.004 -0.37849,0.004 -0.66043,0.0258 l -0.8413,0.0646 -0.0176,0.80408 c 0.0139,0.65642 -3.2e-4,4e-5 0.007,1.43816 l -0.004,5.79809 c -0.002,3.18861 0.0297,5.85549 0.0703,5.92677 l 0.0739,0.12919 0.8759,-0.005 0.87591,-0.005 0.0501,-0.13435 c 0.0276,-0.0739 0.0331,-3.23154 0.0119,-7.01715 l -0.0388,-6.88278 -0.11057,-0.0909 c -0.0372,-0.0305 -0.13409,-0.0474 -0.29249,-0.0517 z m 6.12521,0.016 c -0.27795,7.7e-4 -0.58714,0.004 -0.92501,0.0103 l -2.13061,0.0382 -0.31938,0.2005 c -0.17539,0.11044 -0.40257,0.35966 -0.50488,0.55346 l -0.1855,0.35243 0.008,5.84202 0.008,5.84202 0.13435,0.34572 c 0.16423,0.42381 0.43487,0.68657 0.86456,0.83715 h 10e-4 c 0.24196,0.0846 0.87,0.11215 2.42363,0.10646 l 2.09804,-0.008 0.3111,-0.13177 c 0.40315,-0.17109 0.58878,-0.34637 0.80926,-0.76327 l 0.18036,-0.33951 -0.0331,-5.8844 -0.0331,-5.88387 -0.1473,-0.26459 c -0.20444,-0.3684 -0.60907,-0.68419 -1.01338,-0.79065 -0.16314,-0.0431 -0.71083,-0.0644 -1.54458,-0.062 z m 0.70175,1.92857 0.0434,0.16226 c 0.0515,0.19095 0.0421,9.82474 -0.009,9.98027 h -5.3e-4 c -0.0262,0.0789 -0.38225,0.10802 -1.39473,0.11369 -1.00999,0.006 -1.37107,-0.0198 -1.40147,-0.0982 -0.0193,-0.0581 -0.0436,-2.35299 -0.047,-5.10046 l -0.006,-4.99608 1.40819,-0.0305 z m 36.395211,10.63811 -1.75442,0.009 c -0.96494,0.005 -8.374651,0.0216 -16.465661,0.0367 l -14.71022,0.0274 0.0429,7.69719 c 0.0217,4.23318 0.0819,16.59026 0.13282,27.46087 l 0.092,19.7652 16.21398,-0.06 c 8.91458,-0.0328 16.243751,-0.0464 16.295141,-0.03 0.17703,0.0624 0.30281,0.0382 0.33435,-0.0641 0.018,-0.0583 -0.0152,-12.4217 -0.0739,-27.47429 z m -3.80598,0.30954 c 2.74675,3.9e-4 3.30663,0.0165 3.35794,0.0491 0.11625,0.074 0.35983,53.9984 0.24442,54.12176 -0.0923,0.0985 1.09471,0.0874 -16.999981,0.16278 -10.0398,0.0419 -14.97061,0.0342 -15.04096,-0.0238 l -0.10438,-0.0863 -0.10853,-27.02729 c -0.0603,-14.86501 -0.0922,-27.04516 -0.0723,-27.06708 0.0101,-0.0108 1.39222,-0.0257 3.61167,-0.0408 2.21946,-0.0154 5.27614,-0.0297 8.6336,-0.0419 8.79808,-0.0311 13.731821,-0.0469 16.478561,-0.0465 z m -0.66662,3.03081 c -0.57097,0.0418 -1.0615,0.37684 -1.34926,0.94878 l -0.16899,0.33641 -0.27078,-0.43459 c -0.49408,-0.79343 -1.370861,-1.04372 -2.232421,-0.63666 l -0.43564,0.20568 -0.22685,0.39325 c -0.3225,0.55741 -0.36147,1.24657 -0.12144,2.15181 0.16621,0.62673 0.90831,2.22949 1.52651,3.29644 0.42516,0.7338 1.591071,2.66742 1.668621,2.76779 0.0427,0.0552 0.12163,0.0814 0.17624,0.0584 0.14417,-0.0605 2.09301,-3.44906 2.57193,-4.47207 0.61842,-1.32101 0.77926,-1.86662 0.78288,-2.64945 l 0.003,-0.67748 -0.23513,-0.39533 c -0.27882,-0.46828 -0.58407,-0.70096 -1.09503,-0.83457 -0.20376,-0.0533 -0.40296,-0.0722 -0.59325,-0.0584 z m -24.096711,0.10233 c -0.79841,-0.014 -1.39975,0.40797 -1.70585,1.19683 -0.15047,0.38785 -0.0576,1.45488 0.1819,2.09031 0.28454,0.75485 1.12075,2.42559 1.66915,3.33519 0.77603,1.2871 1.0836,1.79324 1.29966,2.1363 h -5.3e-4 c 0.1115,0.17705 0.24657,0.30709 0.30025,0.28887 0.11563,-0.0392 1.92249,-3.10001 2.44896,-4.14858 0.2014,-0.40115 0.48789,-1.06989 0.63664,-1.48569 l 0.27027,-0.75551 0.004,-0.72657 0.004,-0.72605 -0.25736,-0.41497 c -0.33459,-0.54016 -0.81801,-0.79347 -1.50741,-0.78961 -0.27183,0.002 -0.6006,0.0584 -0.7307,0.1266 -0.22188,0.11633 -0.58695,0.49537 -0.83148,0.86352 -0.0716,0.10779 -0.12258,0.12875 -0.15295,0.062 -0.14531,-0.31928 -0.56917,-0.77663 -0.83458,-0.90073 -0.16888,-0.079 -0.52549,-0.14743 -0.79322,-0.15193 z m -8.72143,0.99425 c -0.84447,0.0164 -1.57332,0.49423 -1.98181,1.34721 -0.0958,0.19992 -0.20111,0.3636 -0.23511,0.3638 -0.0337,1.8e-4 -0.10896,-0.14108 -0.16693,-0.31369 -0.058,-0.17255 -0.30485,-0.51114 -0.5488,-0.75239 -0.52062,-0.51474 -0.91445,-0.65057 -1.73788,-0.59945 l -0.55293,0.0346 -0.42116,0.25943 c -0.47229,0.29139 -0.91472,0.88875 -1.05731,1.42575 -0.14983,0.56412 -0.0335,1.67635 0.27181,2.59415 0.33261,0.9998 1.3112,2.96425 2.24949,4.51704 0.39275,0.64975 0.97832,1.62766 1.30122,2.17299 h 5e-4 c 0.37224,0.62883 0.63593,0.98894 0.72192,0.98547 0.16025,-0.007 2.28579,-3.58249 3.22873,-5.43171 0.34534,-0.67716 0.76663,-1.65154 0.93589,-2.16472 l 0.30747,-0.93276 0.0346,-0.76171 0.0346,-0.76274 -0.19172,-0.4992 c -0.24204,-0.62955 -0.75768,-1.15436 -1.31722,-1.34152 -0.29972,-0.10027 -0.59391,-0.14602 -0.8754,-0.14056 z m 22.53712,5.46685 c -0.57351,0.003 -1.04663,0.25707 -1.33326,0.71468 -0.12454,0.19883 -0.26498,0.3613 -0.3116,0.36122 -0.0466,-9e-5 -0.19486,-0.16523 -0.32969,-0.36638 -0.31645,-0.47192 -0.75743,-0.69435 -1.36943,-0.69092 -0.83394,0.005 -1.415,0.4483 -1.68879,1.28829 -0.17483,0.53636 -0.13107,0.97461 0.19325,1.93787 0.34029,1.01049 1.71551,3.59554 2.99726,5.63428 0.17473,0.27792 0.31358,0.23359 0.53692,-0.17208 0.1093,-0.19855 0.53472,-0.92913 0.94514,-1.62367 0.99232,-1.67926 1.7703,-3.26731 1.98078,-4.04368 0.49651,-1.83158 -0.15185,-3.04784 -1.62058,-3.03961 z m 10.656711,6.47351 c -0.0933,-0.005 -0.19058,-0.004 -0.2925,0.003 l -0.56793,0.0351 -0.30747,0.23719 c -0.16915,0.13057 -0.38328,0.38848 -0.47593,0.57257 -0.0927,0.18406 -0.18098,0.33479 -0.19638,0.33487 -0.0154,9e-5 -0.14615,-0.18782 -0.2904,-0.41703 -0.33708,-0.53554 -0.768571,-0.76307 -1.437141,-0.75758 h -5e-4 -5.3e-4 c -0.61243,0.006 -1.05757,0.24365 -1.41282,0.75603 l -0.2558,0.36845 0.0108,0.8599 0.0108,0.85989 0.21963,0.55398 c 0.37359,0.94106 1.2404,2.58687 2.186941,4.15271 0.49797,0.82375 0.95226,1.4979 1.00976,1.49758 0.12779,-7.2e-4 1.62547,-2.52403 2.39522,-4.03541 0.74049,-1.45402 1.00896,-2.27567 1.01335,-3.09645 l 0.003,-0.6351 -0.18034,-0.33745 c -0.32925,-0.61827 -0.77864,-0.91997 -1.43195,-0.95188 z m -21.084521,0.0362 c -0.064,0.003 -0.12927,0.009 -0.19531,0.0186 -0.52208,0.0745 -0.85376,0.29237 -1.14724,0.75396 -0.13848,0.21785 -0.27508,0.39785 -0.30437,0.401 -0.0293,0.003 -0.0997,-0.10431 -0.15605,-0.23822 -0.4217,-1.00214 -1.9085,-1.23752 -2.74506,-0.4346 -0.84372,0.80981 -0.76448,2.0145 0.27284,4.15116 0.43392,0.8937 1.66214,3.01976 2.481,4.29535 0.067,0.1044 0.15245,0.18986 0.18965,0.18965 0.10623,-6e-4 2.14977,-3.53665 2.60864,-4.51393 0.22696,-0.48348 0.51109,-1.22303 0.63148,-1.6428 l 0.2191,-0.76326 -0.0511,-0.48731 c -0.11293,-1.08811 -0.84003,-1.77268 -1.80301,-1.72961 z m 19.283071,13.08395 c -0.0645,3.6e-4 -0.18147,0.12008 -0.25992,0.26562 -0.0785,0.14555 -0.34473,0.59446 -0.59169,0.99787 -2.020941,3.30049 -2.808551,5.29691 -2.517701,6.38152 0.15743,0.58685 0.45154,0.96015 0.95449,1.21182 l 0.45164,0.22582 0.44752,-0.045 c 0.584381,-0.0593 0.931811,-0.27129 1.241271,-0.75809 0.13848,-0.21782 0.2713,-0.39732 0.29456,-0.39946 0.0233,-0.002 0.15724,0.17627 0.29815,0.39584 0.56304,0.87712 1.75676,1.02975 2.54921,0.32608 0.97375,-0.86465 0.82807,-2.26101 -0.49972,-4.78576 -0.80285,-1.52662 -2.22422,-3.81711 -2.36781,-3.8163 z m -20.854531,0.032 c -0.1033,5.8e-4 -0.43612,0.50622 -1.32808,2.01642 -0.88387,1.49648 -1.68233,3.11996 -1.95339,3.97133 -0.45479,1.42862 -0.0838,2.57859 0.96533,2.99052 0.11528,0.0452 0.39754,0.0836 0.62735,0.0853 0.5968,0.005 1.10596,-0.26807 1.41129,-0.75551 0.13481,-0.21525 0.26046,-0.39161 0.27906,-0.39171 0.0186,-1.1e-4 0.14211,0.15842 0.2744,0.35192 0.13224,0.19349 0.3538,0.43947 0.49247,0.54673 l 0.25167,0.19534 0.59581,0.0217 0.59585,0.0217 0.33382,-0.19637 c 0.18373,-0.10798 0.44926,-0.36171 0.58962,-0.56379 l 0.25477,-0.36742 0.0274,-0.67334 0.0264,-0.67335 -0.23151,-0.7369 c -0.24662,-0.78447 -1.17213,-2.61 -1.95699,-3.86075 -0.26183,-0.41727 -0.63405,-1.03393 -0.82786,-1.37046 -0.19381,-0.3365 -0.38626,-0.61156 -0.42735,-0.61133 z m 10.44898,6.50348 c -0.16664,0.003 -1.68519,2.56154 -2.47119,4.16254 -1.09188,2.22404 -1.23526,3.48798 -0.4904,4.32532 0.14642,0.1646 0.4509,0.36652 0.68731,0.45578 l 5e-4,5.2e-4 c 0.50332,0.19014 0.7367,0.19792 1.16946,0.0408 0.39909,-0.14485 0.60917,-0.32869 0.90175,-0.79065 l 0.22736,-0.35916 0.26355,0.41858 c 0.14496,0.2303 0.3888,0.49374 0.54157,0.5855 0.81968,0.49217 1.96205,0.16851 2.43705,-0.6904 l 0.20982,-0.3793 -0.015,-0.71934 -0.0134,-0.71934 -0.23667,-0.63406 c -0.51316,-1.37557 -2.94783,-5.69439 -3.21119,-5.69682 z m 23.01977,2.37402 c -0.0612,-0.0116 -0.14343,0.13527 -1.20975,1.94871 -1.67854,2.85466 -2.49938,4.49014 -2.96106,5.90094 l -0.27699,0.84852 0.002,0.88884 0.002,0.88883 0.25373,0.45217 c 0.29303,0.52217 0.70377,0.88614 1.19116,1.05627 h 5e-4 c 1.10662,0.38571 2.30753,-0.10881 2.84117,-1.16944 0.089,-0.17698 0.19558,-0.32172 0.23617,-0.32194 0.0406,-2.3e-4 0.13266,0.14579 0.20516,0.32401 0.31967,0.78612 1.08323,1.27727 1.97609,1.27227 0.95472,-0.005 1.60412,-0.39629 2.12855,-1.28158 l 0.22685,-0.3824 -0.009,-0.88884 -0.009,-0.88883 -0.29043,-0.84543 c -0.15984,-0.4648 -0.66236,-1.56673 -1.1162,-2.44894 -0.79973,-1.55466 -3.01096,-5.29018 -3.16259,-5.34283 -0.0107,-0.004 -0.0187,-0.009 -0.0274,-0.0103 z m -12.553229,4.13308 c -0.0896,0.003 -0.45648,0.55582 -1.02939,1.55081 -2.147491,3.72961 -2.642441,5.08001 -2.277901,6.21667 0.19132,0.59658 0.57859,0.99962 1.12345,1.16892 0.79454,0.24684 1.572341,-0.0446 1.944051,-0.7276 0.12599,-0.23153 0.24995,-0.42188 0.27596,-0.42271 0.026,-8.2e-4 0.1156,0.15081 0.19894,0.33692 0.47596,1.06258 2.1635,1.19021 2.87115,0.21705 0.34846,-0.47916 0.42286,-0.78084 0.3669,-1.48829 -0.0605,-0.76487 -0.25149,-1.33968 -0.84852,-2.55281 -0.68911,-1.40017 -2.46221,-4.30388 -2.62464,-4.29896 z m -20.895891,0.0703 c -0.17492,9.7e-4 -1.75416,2.68811 -2.55437,4.34598 -0.9035,1.8719 -1.08691,2.90684 -0.66042,3.73104 0.19653,0.37983 0.36274,0.53519 0.82269,0.7705 0.83103,0.42517 1.93426,0.0248 2.29651,-0.83354 l 0.11988,-0.28526 0.27286,0.447 c 0.74443,1.21926 2.43266,1.08779 3.0308,-0.23564 0.29427,-0.65105 0.16947,-1.64126 -0.3674,-2.92282 -0.52768,-1.25961 -2.74558,-5.01846 -2.96055,-5.01726 z m 31.73968,10.78797 c -1.03013,0.006 -2.06018,0.043 -2.28515,0.10645 -0.45315,0.12793 -0.918369,0.63094 -1.039739,1.12448 -0.0666,0.27076 -0.0857,2.0281 -0.064,5.87871 l 0.0305,5.49269 0.12713,0.41961 c 0.14161,0.46723 0.557559,0.92574 0.947209,1.04386 0.13557,0.041 1.28212,0.0617 2.54764,0.0455 l 2.30116,-0.0295 0.23254,-0.1757 c 0.33616,-0.25414 0.53798,-0.55695 0.62373,-0.93637 0.11219,-0.4963 0.0382,-11.42759 -0.0801,-11.84476 -0.12223,-0.43092 -0.62404,-0.92697 -1.05627,-1.04438 -0.22457,-0.0609 -1.25449,-0.0859 -2.28459,-0.0801 z m 6.94272,0.003 -0.9312,0.005 -0.93123,0.005 0.0165,6.94273 c 0.009,3.81847 0.0354,6.99009 0.0584,7.04814 0.0294,0.0756 0.30607,0.10401 0.97565,0.10025 l 0.93432,-0.005 -0.061,-7.04866 z m -5.49217,1.97714 0.0496,5.02811 c 0.0362,3.64319 0.0234,5.05937 -0.045,5.14336 l -0.0951,0.11627 -1.19631,-0.004 c -0.65792,-10e-4 -1.2631,-0.0203 -1.34515,-0.0413 l -0.14883,-0.0377 -0.007,-5.09478 -0.006,-5.09426 1.39682,-0.008 z" />
    <path
       style="fill:#000000;stroke-width:0.0846667"
       id="path389"
       d="" />
  </g>
</svg>
