<?xml version="1.0" encoding="UTF-8" standalone="no"?>
<svg
   sodipodi:docname="10S.svg"
   id="svg8"
   version="1.1"
   viewBox="0 0 63.102669 88.347847"
   height="88.347847mm"
   width="63.102669mm"
   inkscape:version="1.1.1 (1:1.1+202109281949+c3084ef5ed)"
   inkscape:export-filename="/home/doug/k40/52Cards/10S.png"
   inkscape:export-xdpi="96"
   inkscape:export-ydpi="96"
   xmlns:inkscape="http://www.inkscape.org/namespaces/inkscape"
   xmlns:sodipodi="http://sodipodi.sourceforge.net/DTD/sodipodi-0.dtd"
   xmlns="http://www.w3.org/2000/svg"
   xmlns:svg="http://www.w3.org/2000/svg"
   xmlns:rdf="http://www.w3.org/1999/02/22-rdf-syntax-ns#"
   xmlns:cc="http://creativecommons.org/ns#"
   xmlns:dc="http://purl.org/dc/elements/1.1/">
  <defs
     id="defs2">
    <marker
       style="overflow:visible"
       id="marker2995"
       refX="0"
       refY="0"
       orient="auto"
       inkscape:stockid="Arrow1Lstart"
       inkscape:isstock="true">
      <path
         transform="matrix(0.8,0,0,0.8,10,0)"
         style="fill:#000000;fill-opacity:1;fill-rule:evenodd;stroke:#000000;stroke-width:1pt;stroke-opacity:1"
         d="M 0,0 5,-5 -12.5,0 5,5 Z"
         id="path2993" />
    </marker>
    <marker
       style="overflow:visible"
       id="marker2985"
       refX="0"
       refY="0"
       orient="auto"
       inkscape:stockid="Arrow1Lstart"
       inkscape:isstock="true">
      <path
         transform="matrix(0.8,0,0,0.8,10,0)"
         style="fill:#000000;fill-opacity:1;fill-rule:evenodd;stroke:#000000;stroke-width:1pt;stroke-opacity:1"
         d="M 0,0 5,-5 -12.5,0 5,5 Z"
         id="path2983" />
    </marker>
    <marker
       style="overflow:visible"
       id="marker2791"
       refX="0"
       refY="0"
       orient="auto"
       inkscape:stockid="Arrow1Lstart"
       inkscape:isstock="true">
      <path
         transform="matrix(0.8,0,0,0.8,10,0)"
         style="fill:#000000;fill-opacity:1;fill-rule:evenodd;stroke:#000000;stroke-width:1pt;stroke-opacity:1"
         d="M 0,0 5,-5 -12.5,0 5,5 Z"
         id="path2789" />
    </marker>
    <marker
       style="overflow:visible"
       id="marker2781"
       refX="0"
       refY="0"
       orient="auto"
       inkscape:stockid="Arrow1Lstart"
       inkscape:isstock="true">
      <path
         transform="matrix(0.8,0,0,0.8,10,0)"
         style="fill:#000000;fill-opacity:1;fill-rule:evenodd;stroke:#000000;stroke-width:1pt;stroke-opacity:1"
         d="M 0,0 5,-5 -12.5,0 5,5 Z"
         id="path2779" />
    </marker>
    <marker
       style="overflow:visible"
       id="marker2417"
       refX="0"
       refY="0"
       orient="auto"
       inkscape:stockid="Arrow1Lstart"
       inkscape:isstock="true">
      <path
         transform="matrix(0.8,0,0,0.8,10,0)"
         style="fill:#000000;fill-opacity:1;fill-rule:evenodd;stroke:#000000;stroke-width:1pt;stroke-opacity:1"
         d="M 0,0 5,-5 -12.5,0 5,5 Z"
         id="path2415" />
    </marker>
    <marker
       style="overflow:visible"
       id="marker2383"
       refX="0"
       refY="0"
       orient="auto"
       inkscape:stockid="Arrow1Lstart"
       inkscape:isstock="true">
      <path
         transform="matrix(0.8,0,0,0.8,10,0)"
         style="fill:#000000;fill-opacity:1;fill-rule:evenodd;stroke:#000000;stroke-width:1pt;stroke-opacity:1"
         d="M 0,0 5,-5 -12.5,0 5,5 Z"
         id="path2381" />
    </marker>
    <marker
       style="overflow:visible"
       id="marker2355"
       refX="0"
       refY="0"
       orient="auto"
       inkscape:stockid="Arrow1Lstart"
       inkscape:isstock="true">
      <path
         transform="matrix(0.8,0,0,0.8,10,0)"
         style="fill:#000000;fill-opacity:1;fill-rule:evenodd;stroke:#000000;stroke-width:1pt;stroke-opacity:1"
         d="M 0,0 5,-5 -12.5,0 5,5 Z"
         id="path2353" />
    </marker>
    <marker
       style="overflow:visible"
       id="Arrow1Lstart"
       refX="0"
       refY="0"
       orient="auto"
       inkscape:stockid="Arrow1Lstart"
       inkscape:isstock="true">
      <path
         transform="matrix(0.8,0,0,0.8,10,0)"
         style="fill:#000000;fill-opacity:1;fill-rule:evenodd;stroke:#000000;stroke-width:1pt;stroke-opacity:1"
         d="M 0,0 5,-5 -12.5,0 5,5 Z"
         id="path2071" />
    </marker>
  </defs>
  <sodipodi:namedview
     id="base"
     pagecolor="#ffffff"
     bordercolor="#666666"
     borderopacity="1.0"
     inkscape:pageopacity="0.0"
     inkscape:pageshadow="2"
     inkscape:zoom="1.5033851"
     inkscape:cx="17.95947"
     inkscape:cy="167.28914"
     inkscape:document-units="mm"
     inkscape:current-layer="layer1"
     inkscape:document-rotation="0"
     showgrid="false"
     inkscape:snap-smooth-nodes="false"
     inkscape:object-nodes="false"
     inkscape:window-width="1366"
     inkscape:window-height="712"
     inkscape:window-x="0"
     inkscape:window-y="0"
     inkscape:window-maximized="1"
     inkscape:object-paths="false"
     inkscape:snap-intersection-paths="false"
     inkscape:snap-midpoints="false"
     inkscape:snap-others="false"
     inkscape:pagecheckerboard="0"
     showguides="true"
     inkscape:guide-bbox="true"
     inkscape:snap-bbox="true"
     showborder="false"
     fit-margin-top="0"
     fit-margin-left="0"
     fit-margin-right="0"
     fit-margin-bottom="0" />
  <metadata
     id="metadata5">
    <rdf:RDF>
      <cc:Work
         rdf:about="">
        <dc:format>image/svg+xml</dc:format>
        <dc:type
           rdf:resource="http://purl.org/dc/dcmitype/StillImage" />
      </cc:Work>
    </rdf:RDF>
  </metadata>
  <g
     inkscape:label="Layer 1"
     inkscape:groupmode="layer"
     id="layer1"
     transform="translate(-28.489712,231.84592)">
    <path
       style="fill:#000000;stroke-width:0.0846667"
       id="path389"
       d="" />
    <path
       id="path401"
       style="fill:#000000;stroke:none;stroke-width:0.0846667"
       d="m 36.400639,-231.84515 -5.16e-4,5.1e-4 c -1.120381,9.9e-4 -2.135799,0.005 -2.776059,0.0124 l -2.328539,0.0258 -0.577742,0.29611 c -0.742241,0.37984 -1.689084,1.33261 -1.982824,1.99523 l -0.207741,0.46922 -0.0088,4.57285 c -0.005,2.5151 -0.01367,5.35427 -0.02067,6.30917 -0.007,0.95489 -0.0104,3.88913 -0.0062,6.52053 0.003,2.63139 0.0051,5.88919 0.0041,7.23987 -10e-4,1.35067 0.0018,6.68595 0.0078,11.85561 0.006,5.16967 0.0092,10.48583 0.0072,11.81323 -0.002,1.32741 0.003,4.87108 0.01292,7.87497 0.0185,5.89954 0.01944,6.55409 0.03204,17.75189 0.005,4.10521 0.01205,7.74899 0.01395,8.09667 l 10e-4,0.632 0.193789,0.36793 c 0.326739,0.62015 0.797687,1.1557 1.381826,1.572 0.993489,0.70772 1.033386,0.71373 4.924763,0.71469 1.327341,3e-4 3.099771,0.007 3.938262,0.0139 2.489121,0.0218 5.158174,0.0307 9.823172,0.031 2.421871,1.9e-4 4.975233,0.01 5.674073,0.0227 0.69887,0.0129 3.156729,0.0254 5.462199,0.0284 2.3055,0.003 5.697614,0.0146 7.537524,0.0263 1.83991,0.0117 5.956089,0.0336 9.146729,0.0491 3.19063,0.0154 7.019981,0.0369 8.510591,0.0481 3.07438,0.023 3.482374,-9.9e-4 3.990454,-0.23719 h 0.0036 c 1.01217,-0.47016 2.154933,-1.68206 2.345593,-2.48771 0.0404,-0.17101 0.07765,-2.38741 0.08165,-4.92579 0.0142,-8.09742 0.0079,-17.79326 -0.01395,-21.67878 -0.0116,-2.07234 -0.02232,-5.92053 -0.02532,-8.55194 -0.002,-2.63141 -0.008,-7.01388 -0.0124,-9.73842 -0.02,-13.76802 -0.02384,-26.62157 -0.01033,-33.09772 l 0.01033,-4.60282 -0.293522,-0.55759 c -0.52456,-0.99563 -1.775187,-2.04706 -2.610177,-2.1947 -0.440109,-0.0778 -2.166292,-0.0939 -12.873632,-0.11834 -1.25756,-0.003 -2.801392,-0.0116 -3.430282,-0.0186 -0.62889,-0.007 -2.381689,-0.0126 -3.895369,-0.0124 -2.81824,4e-4 -12.303438,-0.0294 -15.793868,-0.0491 -1.07133,-0.006 -3.529178,-0.0179 -5.4622,-0.0269 -1.93299,-0.009 -5.248664,-0.026 -7.368024,-0.0367 -1.05968,-0.005 -2.285127,-0.007 -3.405478,-0.006 z m -4.050398,0.50798 5.16e-4,5.1e-4 c 2.647021,-0.0141 12.939495,0.0446 23.608895,0.1385 2.11969,0.0184 8.023344,0.0648 13.122713,0.10283 5.099101,0.038 11.671674,0.0878 14.604794,0.11214 l 5.191414,0.0419 0.424263,0.22738 c 0.5733,0.30675 1.354933,1.10075 1.583883,1.56424 l 0.187069,0.38034 0.01137,4.60592 c 0.009,3.78238 -0.002,12.61599 -0.01964,20.7052 -0.0178,8.08922 -0.044,15.49412 -0.0615,16.23673 -0.0207,0.88428 -0.03928,7.87691 -0.04548,15.67759 -0.006,8.12718 -0.02002,14.33267 -0.04082,18.55081 -0.0104,2.10907 -0.02331,3.72226 -0.03721,4.82813 -0.007,0.55293 -0.01297,0.97915 -0.02067,1.27537 -0.004,0.14811 -0.009,0.26408 -0.0124,0.34365 -0.004,0.0796 -0.0173,0.15912 -0.0031,0.0822 -0.0654,0.34514 -0.419005,0.95379 -0.912606,1.40146 -0.691619,0.62723 -1.193471,0.88094 -1.806091,0.971 -0.22447,0.033 -0.726924,0.0666 -1.150834,0.0796 -0.21196,0.007 -0.408686,0.009 -0.545186,0.006 -0.06,-0.001 -0.101127,-0.005 -0.126607,-0.007 -0.005,-0.002 -0.0155,-0.004 -0.0155,-0.004 -5.3e-4,-1.4e-4 -0.04796,-0.0105 -0.06046,-0.0124 -0.0249,-0.004 -0.03466,-0.005 -0.04496,-0.006 -0.0206,-0.002 -0.03474,-0.001 -0.05064,-0.002 -0.0319,-0.002 -0.06959,-0.004 -0.117306,-0.005 -0.0954,-0.003 -0.230599,-0.006 -0.402559,-0.009 -0.34395,-0.006 -0.835096,-0.0117 -1.441256,-0.0181 -1.21229,-0.0127 -2.878149,-0.0255 -4.706689,-0.0362 -3.65498,-0.0216 -8.32527,-0.0541 -10.37301,-0.0713 -5.82634,-0.0488 -12.056319,-0.0927 -19.007109,-0.13229 -3.5156,-0.02 -9.195008,-0.0549 -12.617317,-0.078 l -6.091618,-0.0403 -0.474906,-0.2279 c -0.545311,-0.26202 -1.269225,-0.93971 -1.660363,-1.59628 l -0.216009,-0.36122 -0.02377,-17.41237 c -0.0236,-16.53716 0.03401,-44.23047 0.123505,-58.63777 l 0.03979,-6.30452 0.267685,-0.52917 c 0.45812,-0.90783 1.633439,-1.76157 2.323891,-1.83451 -0.0397,0.004 0.04541,-0.002 0.148309,-0.003 0.106971,-9.9e-4 0.257789,-0.002 0.447519,-0.003 z m -0.951881,3.42873 -0.0279,5.52472 c -0.0156,3.03859 -0.01503,6.20058 0.0021,7.02748 l 0.02894,1.50379 0.888836,0.0129 0.888833,0.0134 -0.02842,-1.58801 c -0.0159,-0.87345 -0.01595,-4.03598 -0.0016,-7.028 l 0.02636,-5.43998 -0.888834,-0.0134 z m 6.973218,0.0811 c -1.221385,-0.008 -2.267024,0.0231 -2.42104,0.0713 -0.3535,0.11078 -0.792954,0.53233 -0.901753,0.86507 h -5.16e-4 c -0.0545,0.16647 -0.09896,2.32271 -0.119891,5.8508 -0.038,6.26049 -0.03366,6.32158 0.48886,6.79959 0.465259,0.42594 0.8934,0.48503 3.185851,0.43873 1.943409,-0.0392 1.981975,-0.0437 2.319755,-0.25993 0.683141,-0.43736 0.671867,-0.36864 0.701765,-4.62659 0.0151,-2.0686 0.01587,-4.71676 0.0021,-5.88492 -0.0232,-2.0521 -0.03061,-2.13632 -0.228409,-2.50062 -0.130982,-0.24163 -0.324551,-0.44229 -0.54002,-0.55862 -0.317736,-0.17151 -0.452641,-0.18199 -2.486152,-0.19482 z m 0.671277,1.74305 c 0.136247,-2.9e-4 0.246139,0.003 0.335381,0.009 h 5.16e-4 c 0.178115,0.0128 0.273021,0.0392 0.326596,0.0832 0.12745,0.10432 0.137917,0.59035 0.123505,5.21518 -0.0137,4.31117 -0.03433,5.10536 -0.13384,5.13716 -0.0643,0.0206 -0.719285,0.043 -1.454176,0.0496 -0.951928,0.009 -1.359027,-0.0173 -1.416968,-0.0884 -0.0491,-0.0605 -0.07194,-1.8943 -0.05994,-4.62194 h -5.16e-4 c 0.0113,-2.4868 0.01475,-4.73156 0.0078,-4.98781 -0.0202,-0.72093 9.92e-4,-0.76166 0.407212,-0.75758 0.19449,0.002 0.811845,-0.0106 1.370975,-0.0284 0.194366,-0.006 0.357053,-0.01 0.493509,-0.0103 z m 4.526338,10.80657 0.001,3.32331 c 0.002,1.82797 -0.0022,4.84788 -0.0062,6.7107 -0.004,1.86282 -0.0051,4.45374 -0.0021,5.75779 0.003,1.30406 0.0033,3.87588 -5.16e-4,5.71541 -0.004,1.83954 -0.0073,4.62087 -0.0083,6.18102 -0.001,1.56013 -0.0048,4.34201 -0.0088,6.18154 -0.005,1.83955 -0.005,4.37367 -5.16e-4,5.63118 0.004,1.2575 -0.0013,4.15342 -0.01188,6.43526 -0.0102,2.28187 -0.0121,5.26147 -0.0031,6.62182 l 0.01499,2.47376 1.958536,-0.009 c 1.0772,-0.005 3.787639,0.002 6.022889,0.0155 4.6969,0.0284 13.410904,0.0695 20.235974,0.0961 l 4.741829,0.0186 0.0078,-1.18545 c 0.0376,-4.50369 0.06376,-12.76887 0.04186,-13.50564 -0.0147,-0.48923 -0.01887,-2.75605 -0.0083,-5.03794 0.009,-2.28187 0.01647,-5.29232 0.01447,-6.68951 -0.001,-1.39718 0.0028,-4.19761 0.0088,-6.22339 0.007,-2.02577 0.01462,-5.01663 0.01602,-6.64662 0.001,-1.63 0.0079,-4.60229 0.01395,-6.60477 0.006,-2.0025 0.0063,-4.87322 0,-6.37894 l -0.01189,-2.7373 -3.313492,-0.001 c -5.82324,-0.001 -9.684524,-0.0152 -15.843994,-0.0568 -3.30624,-0.0223 -6.507254,-0.0343 -7.112744,-0.0264 -0.60559,0.008 -2.371556,-0.002 -3.924824,-0.0222 z m 1.81591,0.39946 c 0.764527,1.4e-4 1.802974,0.006 2.931088,0.017 2.25612,0.0222 4.237839,0.0301 4.403349,0.0176 0.16541,-0.0126 3.806352,0.002 8.090462,0.0336 4.28421,0.0314 7.922095,0.0473 8.085295,0.0351 0.16321,-0.0123 1.856267,-0.003 3.761527,0.0207 h 0.0026 c 2.7094,0.0337 3.47732,0.0663 3.52795,0.1509 0.0361,0.0594 0.04891,1.28997 0.03721,2.73472 -0.0117,1.44475 -0.02199,3.06462 -0.01499,3.60029 0.007,0.53569 0.0048,3.12715 -0.0052,5.75831 -0.0362,9.35207 -0.05341,18.56126 -0.04961,26.20667 3.4e-4,1.44374 -0.005,4.32055 -0.01189,6.39289 -0.007,2.07235 -0.0092,5.03014 -0.0062,6.57324 l 0.0083,2.80603 -2.654101,0.0109 c -1.45965,0.006 -4.502228,0.003 -6.760828,-0.008 -13.473779,-0.0627 -17.194585,-0.0857 -19.854085,-0.12558 l -2.963643,-0.0444 -0.0026,-0.46612 c 0.004,-0.25608 0.01359,-3.13257 0.03049,-6.39238 0.0169,-3.25975 0.02103,-6.38417 0.0072,-6.94324 -0.0136,-0.55907 -0.01723,-2.86514 -0.0072,-5.12372 0.01,-2.25859 0.01484,-5.0972 0.01033,-6.30814 -0.005,-1.21094 5.96e-4,-4.12542 0.01189,-6.47713 0.0113,-2.35172 0.01645,-5.22851 0.01085,-6.39289 -0.006,-1.16438 -0.0018,-3.92714 0.0072,-6.13916 0.009,-2.21204 0.01289,-5.34017 0.0088,-6.95151 -0.006,-2.43634 0.01205,-2.93628 0.108521,-2.96933 0.03215,-0.0109 0.522735,-0.0162 1.287259,-0.016 z m 3.721737,3.15795 c -0.03,-0.002 -0.177143,0.20571 -0.326593,0.46147 -0.268841,0.46012 -0.422545,0.67568 -1.816944,2.55126 -0.75319,1.01317 -1.256443,1.88847 -1.389063,2.41536 h -5.16e-4 c -0.118821,0.47325 -0.114503,0.7082 0.01964,1.16995 0.213712,0.73396 0.667255,1.11134 1.465546,1.21802 0.568229,0.0759 1.096737,-0.12555 1.485696,-0.56638 l 0.302308,-0.34313 -0.0036,0.25994 c -0.008,0.50701 -0.301424,1.59473 -0.587045,2.17402 -0.159271,0.32304 -0.280625,0.59603 -0.270785,0.60668 0.01,0.0106 0.274053,-0.0188 0.585494,-0.0656 0.398751,-0.0603 0.723244,-0.0577 1.096574,0.009 0.29175,0.0522 0.544469,0.0835 0.560689,0.0687 0.0162,-0.0147 -0.103257,-0.30256 -0.265617,-0.63976 -0.16236,-0.33717 -0.363674,-0.86679 -0.448034,-1.17667 -0.15807,-0.58281 -0.260461,-1.20033 -0.199471,-1.19941 0.019,2.9e-4 0.201046,0.17214 0.404626,0.38189 0.41355,0.42614 0.71257,0.52437 1.442289,0.47491 1.209371,-0.082 1.805469,-1.24247 1.351339,-2.62982 -0.2098,-0.64081 -0.460788,-1.04653 -1.774568,-2.8639 -0.596091,-0.8247 -1.194652,-1.67988 -1.330152,-1.90066 -0.1355,-0.22079 -0.270821,-0.40322 -0.301791,-0.40566 z m 21.930962,0.0724 c -0.031,-4.6e-4 -0.164523,0.17867 -0.296623,0.3979 -0.25283,0.41982 -1.429188,2.0722 -1.913578,2.6877 -0.47766,0.60699 -1.011211,1.53167 -1.218531,2.11098 -0.32288,0.90241 -0.25038,1.43351 0.27957,2.05413 0.69801,0.81742 1.910922,0.80115 2.622062,-0.0357 l 0.267684,-0.31419 -0.0041,0.27078 c -0.008,0.52043 -0.31154,1.56934 -0.63252,2.18488 l -0.323494,0.62063 0.436666,-0.0444 c 0.23999,-0.0244 0.479027,-0.0567 0.532267,-0.0718 0.0532,-0.0151 0.372554,0.0117 0.711584,0.0594 0.33902,0.0477 0.633924,0.0701 0.654224,0.0501 0.0203,-0.02 -0.0348,-0.1444 -0.122473,-0.27647 -0.38293,-0.57408 -0.656878,-1.40403 -0.747758,-2.26602 l -0.05271,-0.49402 0.2651,0.29817 c 0.39891,0.44884 0.75577,0.61221 1.343071,0.61702 1.106589,0.009 1.829396,-0.79515 1.743046,-1.93839 -0.0576,-0.76147 -0.51278,-1.59759 -1.97249,-3.62044 -0.72246,-1.00114 -1.359214,-1.92628 -1.414384,-2.05518 -0.0551,-0.1289 -0.125589,-0.23466 -0.156579,-0.23512 z m -34.554997,0.81597 -0.265618,0.44958 c -0.362138,0.61246 -1.375754,2.05131 -2.249474,3.19257 -1.530789,1.99978 -2.176611,3.09514 -2.437061,4.13566 h 5.18e-4 c -0.0936,0.37149 -0.07053,1.22001 0.04237,1.6242 0.333791,1.18903 1.76176,1.92792 3.007569,1.55649 0.560671,-0.16715 1.021308,-0.51666 1.358056,-1.03043 l 0.247531,-0.37775 -0.0041,0.29817 c -0.0147,0.9776 -0.532173,2.74665 -1.07487,3.67574 -0.147812,0.25264 -0.251024,0.47728 -0.229444,0.4992 0.0217,0.0219 0.205319,-0.005 0.40876,-0.0589 0.455671,-0.12152 2.035831,-0.10676 2.45773,0.0227 0.170731,0.0526 0.327607,0.0783 0.348816,0.0579 0.0213,-0.0204 -0.12328,-0.33061 -0.32091,-0.68988 -0.537009,-0.9761 -1.010685,-2.61487 -0.997355,-3.44992 l 0.0047,-0.35553 0.173633,0.29972 c 0.451361,0.77899 0.994262,1.12319 1.87792,1.19218 1.476142,0.11517 2.619701,-0.92111 2.641701,-2.38694 0.02,-1.33375 -0.574509,-2.45337 -3.074747,-5.81463 -0.728782,-0.97966 -1.411086,-1.97892 -1.771986,-2.59519 z m 23.532931,5.53041 c -0.01119,-7.8e-4 -0.02103,8.2e-4 -0.02997,0.005 h -5.16e-4 c -0.0242,0.0102 -0.03857,0.0368 -0.03927,0.0837 -10e-4,0.087 -1.312439,1.97376 -1.953369,2.81068 -0.53953,0.70449 -1.059009,1.54823 -1.303279,2.1177 h 5.17e-4 c -0.37382,0.87152 -0.248113,1.78081 0.321427,2.32906 0.32041,0.30837 0.620632,0.41695 1.176672,0.4253 0.60443,0.009 0.936442,-0.13239 1.347722,-0.57464 l 0.335896,-0.36174 -0.06615,0.50075 c -0.10264,0.77462 -0.316008,1.46326 -0.629418,2.03501 -0.15783,0.28714 -0.269288,0.53917 -0.249598,0.55966 0.0197,0.0205 0.176616,5.9e-4 0.348816,-0.045 0.1739,-0.0454 0.679929,-0.0566 1.137399,-0.0248 l 0.823205,0.0574 -0.199471,-0.35502 c -0.10968,-0.19513 -0.272842,-0.55021 -0.362252,-0.78961 -0.19058,-0.50958 -0.437399,-1.73281 -0.364319,-1.80403 0.0274,-0.027 0.14589,0.0755 0.262,0.22841 0.68483,0.90279 2.207094,0.804 2.807064,-0.18242 0.19955,-0.3279 0.234375,-0.48521 0.241845,-0.98288 0.003,-0.86316 -0.328407,-1.5141 -1.892907,-3.6711 -0.71656,-0.98791 -1.360684,-1.92086 -1.430404,-2.07326 -0.07709,-0.16823 -0.203318,-0.28242 -0.281636,-0.28783 z m -10.90321,6.2823 c -0.031,5.4e-4 -0.192399,0.23353 -0.359669,0.51677 -0.167259,0.28322 -0.577395,0.87637 -0.911056,1.31774 -1.438409,1.90217 -2.03569,2.80862 -2.2133,3.36052 -0.0377,0.11587 -0.07912,0.46198 -0.08372,0.76895 -0.0277,0.97639 0.429691,1.58199 1.347722,1.78697 0.663051,0.14809 1.217295,-0.0325 1.668115,-0.54415 l 0.347266,-0.3943 -0.05064,0.33694 c -0.13798,0.90399 -0.366633,1.70478 -0.630452,2.21019 -0.16002,0.30654 -0.279924,0.56882 -0.266133,0.58292 0.0138,0.014 0.175744,-0.0146 0.360185,-0.0631 0.202829,-0.0533 0.659527,-0.063 1.156518,-0.0258 l 0.821655,0.0615 -0.238745,-0.40205 c -0.31068,-0.52328 -0.638451,-1.56342 -0.692981,-2.19521 -0.04,-0.46539 -0.03388,-0.48846 0.08682,-0.32918 0.47104,0.62074 0.817505,0.81772 1.451075,0.82424 1.22655,0.0124 2.023741,-1.06902 1.719791,-2.33422 -0.16163,-0.67245 -0.577586,-1.36816 -1.918746,-3.21325 -0.61605,-0.84754 -1.214414,-1.70409 -1.329634,-1.90375 -0.11512,-0.19966 -0.233056,-0.36225 -0.264066,-0.36174 z m 21.875149,0.0904 c 0,0 5.17e-4,5.2e-4 5.17e-4,5.2e-4 0,0 5.17e-4,-5.2e-4 5.17e-4,-5.2e-4 z m 5.17e-4,5.2e-4 c -0.01139,-0.0123 -0.183995,0.23187 -0.383439,0.54415 -0.19972,0.31286 -0.488041,0.73839 -0.640271,0.94568 -0.15222,0.20728 -0.610069,0.82908 -1.017509,1.38183 -0.84121,1.14101 -1.265037,1.8333 -1.431437,2.33836 -0.26207,0.79561 -0.123143,1.53493 0.388607,2.06189 0.73709,0.75958 1.855057,0.72591 2.576587,-0.077 l 0.28422,-0.31574 -0.06563,0.50694 c -0.0792,0.61343 -0.418617,1.63596 -0.709517,2.14044 -0.11736,0.20326 -0.199762,0.38217 -0.185002,0.39791 0.0148,0.0157 0.244096,-0.0132 0.508496,-0.0646 0.363,-0.0708 0.641938,-0.0679 1.137398,0.0114 0.36108,0.0574 0.672151,0.0891 0.691431,0.0703 0.0193,-0.0189 -0.02232,-0.10211 -0.09302,-0.185 -0.3375,-0.39562 -0.73821,-1.56939 -0.83044,-2.43448 l -0.05271,-0.49557 0.313159,0.35708 c 0.41848,0.47741 0.68463,0.6056 1.26969,0.61237 0.89745,0.0105 1.51426,-0.42999 1.74563,-1.24592 0.249,-0.87785 -0.16294,-1.85748 -1.60507,-3.81837 -0.53201,-0.72323 -1.173022,-1.62832 -1.424202,-2.01125 -0.251072,-0.38265 -0.465745,-0.70657 -0.476974,-0.72037 z m -20.81785,12.59716 -5.17e-4,5.2e-4 c -0.0581,0.004 -0.136626,0.0173 -0.224276,0.0403 -0.18053,0.047 -0.695077,0.059 -1.185458,0.0269 l -0.866095,-0.0568 0.163814,0.23771 c 0.32947,0.47771 0.816152,2.05591 0.807701,2.61896 -0.003,0.18784 -0.03068,0.17456 -0.364318,-0.17932 -0.430501,-0.45648 -0.845933,-0.62178 -1.417484,-0.56275 -0.743341,0.0767 -1.313262,0.50643 -1.518771,1.14515 -0.226701,0.70466 0.02608,1.65968 0.720886,2.72386 0.31509,0.48272 0.557215,0.81815 1.653646,2.28978 0.266171,0.35729 0.822047,1.20972 1.037145,1.5906 0.075,0.13266 0.140833,0.0698 0.488344,-0.46767 0.22085,-0.34158 0.854029,-1.22376 1.407149,-1.9606 0.55312,-0.73685 1.163463,-1.64776 1.357023,-2.02365 0.89272,-1.73358 0.298149,-3.23507 -1.293461,-3.26595 -0.59759,-0.012 -0.851665,0.0977 -1.294495,0.55604 l -0.378271,0.39067 0.06408,-0.42219 c 0.1087,-0.71205 0.411532,-1.66388 0.680062,-2.14303 0.14067,-0.25068 0.255795,-0.48434 0.256315,-0.51883 2.6e-4,-0.0173 -0.03602,-0.0233 -0.09302,-0.0196 z m 19.639628,0.10543 c -0.03448,-2.5e-4 -0.05617,0.002 -0.0615,0.007 -0.0213,0.0206 0.01963,0.10473 0.09043,0.18759 0.36454,0.42671 0.882722,1.96305 0.873332,2.58898 l -0.0041,0.24082 -0.30024,-0.34313 c -0.84208,-0.96067 -2.453348,-0.66114 -2.951758,0.54828 -0.026,0.0695 -0.04497,0.41221 -0.03617,0.76171 0.0137,0.55423 0.05926,0.72259 0.358634,1.31775 0.18849,0.37533 0.850878,1.37604 1.471228,2.22364 0.62035,0.84761 1.244502,1.74287 1.387512,1.98954 0.14312,0.24663 0.279858,0.44824 0.303858,0.44855 0.024,3.3e-4 0.148152,-0.17864 0.275952,-0.39791 0.12781,-0.21925 0.569279,-0.85033 0.980819,-1.40301 1.63319,-2.19318 2.120873,-3.00341 2.313553,-3.84008 0.25645,-1.11433 -0.559245,-2.18108 -1.684135,-2.20296 -0.61089,-0.0122 -1.103075,0.23826 -1.473295,0.75034 -0.19865,0.27467 -0.22879,0.16601 -0.12454,-0.44287 0.11992,-0.70038 0.399933,-1.54064 0.668693,-2.00918 0.11687,-0.20324 0.196104,-0.38483 0.178284,-0.40359 -0.01876,-0.0186 -0.276029,0.004 -0.572575,0.0501 -0.37483,0.0586 -0.720733,0.0559 -1.128613,-0.009 -0.242595,-0.0387 -0.461915,-0.0623 -0.56534,-0.063 z m -8.707479,6.29057 c -0.07432,6e-4 -0.225958,0.0241 -0.391191,0.063 -0.24661,0.0586 -0.686516,0.0723 -1.144116,0.0357 l -0.743624,-0.0599 0.31626,0.56999 c 0.31772,0.57395 0.645424,1.69775 0.638204,2.17868 l -0.0052,0.25942 -0.221175,-0.28887 c -0.56104,-0.73451 -1.845172,-0.83199 -2.550232,-0.19327 -0.23685,0.21457 -0.448692,0.58388 -0.541052,0.94051 -0.1358,0.52505 0.136,1.44723 0.68988,2.33887 0.19003,0.30584 0.816713,1.2002 1.392164,1.98748 0.57555,0.78729 1.131403,1.58564 1.235583,1.77457 0.17788,0.32265 0.31529,0.4405 0.31781,0.27285 10e-4,-0.0969 1.389347,-2.08989 1.904276,-2.7342 0.549681,-0.68787 1.1894,-1.70693 1.40715,-2.24172 0.26936,-0.66146 0.262443,-1.37272 -0.01809,-1.86811 -0.26296,-0.46458 -0.550462,-0.69289 -1.050582,-0.8356 -0.64361,-0.1837 -1.329602,0.005 -1.740462,0.47852 -0.12233,0.14103 -0.252348,0.25903 -0.289388,0.26148 -0.20125,0.0149 0.267069,-1.85106 0.613399,-2.44378 0.14453,-0.24776 0.247023,-0.46734 0.226343,-0.48834 -0.0054,-0.005 -0.02149,-0.007 -0.04599,-0.007 z m 20.863326,1.42472 c -0.08185,0.009 -0.04764,0.094 0.07958,0.28008 0.55097,0.80571 1.145678,2.53513 1.206128,3.50522 l 0.04031,0.64595 -0.256315,-0.40669 c -0.46076,-0.73211 -1.467105,-1.19087 -2.351795,-1.07177 -0.842837,0.1135 -1.652616,0.7362 -1.931148,1.48518 -0.169156,0.46513 -0.185425,1.43775 -0.02997,2.00504 0.23022,0.83977 0.940377,2.00787 2.648417,4.35633 0.92845,1.27638 1.790305,2.50979 1.915645,2.74092 0.12525,0.23107 0.255255,0.42061 0.288355,0.42116 0.033,5.5e-4 0.105694,-0.0841 0.162264,-0.1881 0.1008,-0.18639 1.55927,-2.29815 1.92443,-2.7864 0.10329,-0.13817 0.416672,-0.54981 0.696082,-0.91467 1.761719,-2.30006 2.427971,-3.78877 2.248441,-5.02088 -0.18388,-1.26202 -1.098948,-2.03941 -2.423108,-2.05827 -0.25928,-0.004 -0.608476,0.0287 -0.775146,0.0723 -0.39108,0.10233 -0.97019,0.58603 -1.28726,1.07436 -0.17609,0.27149 -0.248937,0.33501 -0.248047,0.21548 0.006,-0.38445 0.282727,-1.81472 0.461987,-2.36419 0.18641,-0.57175 0.695037,-1.64657 0.883667,-1.86707 0.057,-0.0664 0.07257,-0.10011 0.0021,-0.10387 h -0.0067 c -0.0729,-0.004 -0.23416,0.0225 -0.5302,0.0765 -0.57876,0.10594 -2.059521,0.0834 -2.440161,-0.0367 -0.137813,-0.0435 -0.228395,-0.0654 -0.277502,-0.0599 z m -34.002059,4.84053 c -0.02092,9.9e-4 -0.03499,0.004 -0.04083,0.01 -0.0233,0.0226 0.04905,0.19061 0.159682,0.37258 0.11108,0.18197 0.290615,0.60916 0.398425,0.9493 0.19699,0.62165 0.400894,1.66857 0.337963,1.73013 -0.0183,0.0181 -0.151196,-0.11824 -0.294555,-0.30231 -0.73188,-0.93919 -2.309892,-0.78113 -2.885612,0.28887 -0.173562,0.32231 -0.197295,0.46422 -0.170016,0.97875 0.0454,0.84239 0.358306,1.44065 1.781286,3.40496 0.64815,0.89456 1.295659,1.82741 1.43919,2.07274 0.143439,0.24533 0.301003,0.44835 0.350883,0.45011 0.05,0.002 0.151555,-0.11986 0.225825,-0.27027 0.0743,-0.15042 0.651983,-0.97018 1.283643,-1.82211 1.33364,-1.79857 1.590284,-2.19681 1.874304,-2.9161 0.36127,-0.91459 0.259014,-1.69915 -0.297656,-2.29185 -0.32268,-0.34352 -1.022573,-0.58372 -1.478463,-0.50747 -0.45119,0.0755 -1.014712,0.41906 -1.173572,0.71521 -0.20742,0.386 -0.244889,0.23015 -0.118339,-0.48576 0.13618,-0.77023 0.370945,-1.44797 0.676445,-1.95182 0.12317,-0.20346 0.207132,-0.38726 0.186552,-0.40876 -0.0207,-0.0216 -0.205531,-0.004 -0.410311,0.0403 -0.45572,0.098 -1.113384,0.0934 -1.531172,-0.0103 -0.128762,-0.0319 -0.250928,-0.049 -0.313677,-0.046 z m 24.023856,0.11265 c -0.05,0.001 -0.122377,0.0171 -0.217557,0.0419 -0.17531,0.0456 -0.690963,0.0596 -1.146184,0.031 -0.455229,-0.0286 -0.817665,-0.0294 -0.804085,-0.001 0.0136,0.0281 0.145849,0.29495 0.295589,0.59325 0.29666,0.59104 0.583382,1.64957 0.576192,2.12907 l -0.0052,0.30179 -0.204122,-0.31006 c -0.43992,-0.66856 -1.360942,-0.86405 -2.163692,-0.45992 -0.36813,0.18535 -0.501472,0.31352 -0.697632,0.67593 -0.29532,0.54509 -0.321084,1.04383 -0.09198,1.74459 0.22616,0.69083 0.418933,1.00829 1.619023,2.6572 0.57902,0.79555 1.216037,1.70459 1.415417,2.02055 l 0.362769,0.57464 0.869714,-1.23351 c 0.47843,-0.67835 1.117408,-1.57235 1.420068,-1.98696 1.40412,-1.92311 1.670466,-3.02401 0.966866,-3.99562 -0.59945,-0.82771 -2.209981,-0.82405 -2.740401,0.006 -0.0973,0.15233 -0.198692,0.27635 -0.224792,0.27595 -0.089,-0.001 0.07772,-1.0388 0.263033,-1.63814 0.10196,-0.32961 0.280114,-0.75643 0.395324,-0.9493 0.21574,-0.36076 0.262085,-0.48124 0.111105,-0.47697 z m 9.576677,12.07265 c -1.67308,0.0196 -1.954786,0.043 -2.271696,0.18759 -0.45174,0.20621 -0.677294,0.50668 -0.780314,1.04024 v 5.2e-4 c -0.0424,0.22841 -0.07943,1.10058 -0.07803,1.9389 4.2e-4,0.8383 -0.0041,3.27711 -0.01137,5.41931 -0.007,2.14219 0.02066,4.04436 0.06046,4.22765 0.10072,0.45915 0.318252,0.74031 0.753442,0.971 0.35313,0.18679 0.461444,0.19722 2.363163,0.22375 1.09599,0.0154 2.14223,-0.004 2.32544,-0.0439 0.45844,-0.0991 0.739523,-0.3172 0.970483,-0.75293 0.18743,-0.36024 0.198759,-0.43569 0.22531,-2.87062 0.0206,-1.37534 0.0261,-4.00597 0.0217,-5.84564 -0.008,-3.66847 -0.0039,-3.63616 -0.535885,-4.09742 -0.306971,-0.26629 -0.677169,-0.37096 -1.733744,-0.39636 h -5.17e-4 c -0.352341,-0.008 -0.780496,-0.009 -1.308447,-0.002 z m 6.222359,0.0315 v 5.2e-4 l -0.903821,0.0129 0.03049,0.9896 c 0.0168,0.54443 0.01737,3.44763 0.0021,6.45129 -0.0357,7.0414 -0.05077,6.56416 0.199988,6.55412 0.11098,-0.004 0.518721,-0.007 0.905371,-0.008 l 0.7028,5.1e-4 -0.02739,-1.12241 c -0.0157,-0.61731 -0.01247,-3.75178 0.0072,-6.96495 0.0192,-3.21318 0.02404,-5.86141 0.01034,-5.88491 -0.0136,-0.0238 -0.430815,-0.0362 -0.927075,-0.0289 z m -5.991366,1.77251 c 0.69486,0.008 1.382554,0.0394 1.428854,0.0868 0.0601,0.0617 0.08815,1.09076 0.08475,3.05046 -0.003,1.6261 3.5e-5,3.87746 0.0072,5.00331 0.0101,1.78936 -0.0048,2.06369 -0.123507,2.17868 -0.11205,0.10874 -0.367932,0.12771 -1.473812,0.11111 -0.96659,-0.0145 -1.359335,-0.0494 -1.420585,-0.12661 -0.10626,-0.13694 -0.08386,-10.18734 0.02274,-10.25106 0.0767,-0.0461 0.779479,-0.061 1.474328,-0.0527 z" />
  </g>
</svg>
