<?xml version="1.0" encoding="UTF-8" standalone="no"?>
<svg
   sodipodi:docname="2C.svg"
   id="svg8"
   version="1.1"
   viewBox="0 0 63.102394 88.347847"
   height="88.347847mm"
   width="63.102394mm"
   inkscape:version="1.1.1 (1:1.1+202109281949+c3084ef5ed)"
   inkscape:export-filename="/home/doug/k40/52Cards/2C.png"
   inkscape:export-xdpi="96"
   inkscape:export-ydpi="96"
   xmlns:inkscape="http://www.inkscape.org/namespaces/inkscape"
   xmlns:sodipodi="http://sodipodi.sourceforge.net/DTD/sodipodi-0.dtd"
   xmlns="http://www.w3.org/2000/svg"
   xmlns:svg="http://www.w3.org/2000/svg"
   xmlns:rdf="http://www.w3.org/1999/02/22-rdf-syntax-ns#"
   xmlns:cc="http://creativecommons.org/ns#"
   xmlns:dc="http://purl.org/dc/elements/1.1/">
  <defs
     id="defs2">
    <marker
       style="overflow:visible"
       id="marker2995"
       refX="0"
       refY="0"
       orient="auto"
       inkscape:stockid="Arrow1Lstart"
       inkscape:isstock="true">
      <path
         transform="matrix(0.8,0,0,0.8,10,0)"
         style="fill:#000000;fill-opacity:1;fill-rule:evenodd;stroke:#000000;stroke-width:1pt;stroke-opacity:1"
         d="M 0,0 5,-5 -12.5,0 5,5 Z"
         id="path2993" />
    </marker>
    <marker
       style="overflow:visible"
       id="marker2985"
       refX="0"
       refY="0"
       orient="auto"
       inkscape:stockid="Arrow1Lstart"
       inkscape:isstock="true">
      <path
         transform="matrix(0.8,0,0,0.8,10,0)"
         style="fill:#000000;fill-opacity:1;fill-rule:evenodd;stroke:#000000;stroke-width:1pt;stroke-opacity:1"
         d="M 0,0 5,-5 -12.5,0 5,5 Z"
         id="path2983" />
    </marker>
    <marker
       style="overflow:visible"
       id="marker2791"
       refX="0"
       refY="0"
       orient="auto"
       inkscape:stockid="Arrow1Lstart"
       inkscape:isstock="true">
      <path
         transform="matrix(0.8,0,0,0.8,10,0)"
         style="fill:#000000;fill-opacity:1;fill-rule:evenodd;stroke:#000000;stroke-width:1pt;stroke-opacity:1"
         d="M 0,0 5,-5 -12.5,0 5,5 Z"
         id="path2789" />
    </marker>
    <marker
       style="overflow:visible"
       id="marker2781"
       refX="0"
       refY="0"
       orient="auto"
       inkscape:stockid="Arrow1Lstart"
       inkscape:isstock="true">
      <path
         transform="matrix(0.8,0,0,0.8,10,0)"
         style="fill:#000000;fill-opacity:1;fill-rule:evenodd;stroke:#000000;stroke-width:1pt;stroke-opacity:1"
         d="M 0,0 5,-5 -12.5,0 5,5 Z"
         id="path2779" />
    </marker>
    <marker
       style="overflow:visible"
       id="marker2417"
       refX="0"
       refY="0"
       orient="auto"
       inkscape:stockid="Arrow1Lstart"
       inkscape:isstock="true">
      <path
         transform="matrix(0.8,0,0,0.8,10,0)"
         style="fill:#000000;fill-opacity:1;fill-rule:evenodd;stroke:#000000;stroke-width:1pt;stroke-opacity:1"
         d="M 0,0 5,-5 -12.5,0 5,5 Z"
         id="path2415" />
    </marker>
    <marker
       style="overflow:visible"
       id="marker2383"
       refX="0"
       refY="0"
       orient="auto"
       inkscape:stockid="Arrow1Lstart"
       inkscape:isstock="true">
      <path
         transform="matrix(0.8,0,0,0.8,10,0)"
         style="fill:#000000;fill-opacity:1;fill-rule:evenodd;stroke:#000000;stroke-width:1pt;stroke-opacity:1"
         d="M 0,0 5,-5 -12.5,0 5,5 Z"
         id="path2381" />
    </marker>
    <marker
       style="overflow:visible"
       id="marker2355"
       refX="0"
       refY="0"
       orient="auto"
       inkscape:stockid="Arrow1Lstart"
       inkscape:isstock="true">
      <path
         transform="matrix(0.8,0,0,0.8,10,0)"
         style="fill:#000000;fill-opacity:1;fill-rule:evenodd;stroke:#000000;stroke-width:1pt;stroke-opacity:1"
         d="M 0,0 5,-5 -12.5,0 5,5 Z"
         id="path2353" />
    </marker>
    <marker
       style="overflow:visible"
       id="Arrow1Lstart"
       refX="0"
       refY="0"
       orient="auto"
       inkscape:stockid="Arrow1Lstart"
       inkscape:isstock="true">
      <path
         transform="matrix(0.8,0,0,0.8,10,0)"
         style="fill:#000000;fill-opacity:1;fill-rule:evenodd;stroke:#000000;stroke-width:1pt;stroke-opacity:1"
         d="M 0,0 5,-5 -12.5,0 5,5 Z"
         id="path2071" />
    </marker>
  </defs>
  <sodipodi:namedview
     id="base"
     pagecolor="#ffffff"
     bordercolor="#666666"
     borderopacity="1.0"
     inkscape:pageopacity="0.0"
     inkscape:pageshadow="2"
     inkscape:zoom="1.5033851"
     inkscape:cx="86.138941"
     inkscape:cy="167.28914"
     inkscape:document-units="mm"
     inkscape:current-layer="layer1"
     inkscape:document-rotation="0"
     showgrid="false"
     inkscape:snap-smooth-nodes="false"
     inkscape:object-nodes="false"
     inkscape:window-width="1366"
     inkscape:window-height="712"
     inkscape:window-x="0"
     inkscape:window-y="0"
     inkscape:window-maximized="1"
     inkscape:object-paths="false"
     inkscape:snap-intersection-paths="false"
     inkscape:snap-midpoints="false"
     inkscape:snap-others="false"
     inkscape:pagecheckerboard="0"
     showguides="true"
     inkscape:guide-bbox="true"
     inkscape:snap-bbox="true"
     showborder="false"
     fit-margin-top="0"
     fit-margin-left="0"
     fit-margin-right="0"
     fit-margin-bottom="0" />
  <metadata
     id="metadata5">
    <rdf:RDF>
      <cc:Work
         rdf:about="">
        <dc:format>image/svg+xml</dc:format>
        <dc:type
           rdf:resource="http://purl.org/dc/dcmitype/StillImage" />
      </cc:Work>
    </rdf:RDF>
  </metadata>
  <g
     inkscape:label="Layer 1"
     inkscape:groupmode="layer"
     id="layer1"
     transform="translate(660.29127,475.26821)">
    <path
       style="fill:#000000;stroke-width:0.0846667"
       id="path389"
       d="" />
    <path
       id="path5079-5"
       style="fill:#000000;stroke:none;stroke-width:0.0846667"
       d="m -652.38096,-475.26803 0.004,5.1e-4 c -1.1203,10e-4 -2.13587,0.005 -2.77606,0.0124 l -2.32854,0.0258 -0.57775,0.29609 c -0.74229,0.37984 -1.68912,1.3326 -1.98281,1.99522 l -0.20775,0.46924 -0.0104,4.57285 c -0.01,2.51508 -0.0136,5.35427 -0.0207,6.30917 -0.01,0.95488 -0.0103,3.88911 -0.0103,6.52053 0,2.63138 0.01,5.88917 0,7.23987 0,1.35067 3.2e-4,6.68594 0.0103,11.85561 0.01,5.16967 0.01,10.48583 0.01,11.81322 0,1.32742 -8e-5,4.87109 0.0129,7.87498 0.018,5.89955 0.019,6.55407 0.032,17.75187 0,4.10523 0.0119,7.74902 0.014,8.09668 l 0.001,0.63201 0.19378,0.36793 c 0.32681,0.62015 0.79774,1.1557 1.38184,1.57199 0.99348,0.70771 1.03336,0.71372 4.92477,0.7147 1.32739,2.9e-4 3.09975,0.007 3.93824,0.0139 2.48909,0.0218 5.15819,0.0307 9.82319,0.031 2.42189,1.8e-4 4.97527,0.0104 5.67406,0.0233 0.6989,0.0129 3.1567,0.0254 5.4622,0.0284 2.3055,0.003 5.69761,0.0147 7.53752,0.0263 1.83994,0.0117 5.95609,0.0336 9.14673,0.0491 3.19064,0.0154 7.01998,0.0369 8.51059,0.0481 3.07438,0.023 3.48239,-0.001 3.99047,-0.2372 h 0.004 c 1.01216,-0.47016 2.15492,-1.68206 2.34558,-2.48769 0.0404,-0.17103 0.0777,-2.38742 0.0816,-4.9258 0.0142,-8.09742 0.008,-17.79326 -0.0139,-21.6788 -0.0116,-2.07232 -0.0228,-5.9205 -0.0258,-8.55191 -0.002,-2.63142 -0.008,-7.01389 -0.0124,-9.73844 -0.02,-13.76802 -0.0233,-26.62156 -0.01,-33.09771 l 0.01,-4.60282 -0.2935,-0.55759 c -0.52457,-0.99562 -1.7752,-2.04705 -2.6102,-2.19469 -0.4401,-0.0778 -2.16627,-0.0939 -12.87362,-0.11835 -1.25756,-0.003 -2.80088,-0.0116 -3.42976,-0.0186 -0.62889,-0.007 -2.38221,-0.0131 -3.89589,-0.0129 -2.81823,4.2e-4 -12.30347,-0.0289 -15.79388,-0.0486 -1.07129,-0.006 -3.52919,-0.0179 -5.46219,-0.0269 -1.93299,-0.009 -5.24872,-0.026 -7.36803,-0.0367 -1.05969,-0.005 -2.28516,-0.007 -3.40548,-0.006 z m -4.04987,0.50851 h 5.3e-4 c 2.64699,-0.0141 12.93947,0.0446 23.60887,0.13848 2.11971,0.0184 8.02341,0.0648 13.12273,0.10284 5.0991,0.038 11.67167,0.0878 14.60479,0.11213 l 5.19141,0.0419 0.42426,0.22738 c 0.5733,0.30674 1.35493,1.10075 1.58388,1.56425 l 0.18708,0.38034 0.0113,4.60592 c 0.009,3.78237 -0.002,12.61596 -0.0191,20.70518 -0.0178,8.08923 -0.044,15.49413 -0.0615,16.23673 -0.0207,0.88429 -0.0398,7.87691 -0.046,15.6776 -0.006,8.12718 -0.0195,14.33266 -0.0403,18.55081 -0.0104,2.10907 -0.0233,3.72226 -0.0372,4.82814 -0.007,0.55293 -0.0135,0.97914 -0.0212,1.27537 -0.004,0.14812 -0.009,0.26408 -0.0124,0.34364 -0.004,0.0796 -0.0168,0.15912 -0.003,0.0822 -0.0654,0.34514 -0.419,0.95379 -0.9126,1.40147 -0.69162,0.62725 -1.19346,0.88095 -1.8061,0.97099 -0.22445,0.033 -0.72692,0.0666 -1.15083,0.0796 -0.21196,0.007 -0.40868,0.009 -0.54518,0.006 -0.06,-0.001 -0.10112,-0.005 -0.1266,-0.007 -0.005,-0.002 -0.0155,-0.004 -0.0155,-0.004 -5.3e-4,-1.3e-4 -0.048,-0.0105 -0.0605,-0.0124 -0.0249,-0.004 -0.0352,-0.005 -0.0455,-0.006 -0.0206,-0.002 -0.0342,-0.001 -0.0501,-0.002 -0.0319,-0.002 -0.0696,-0.004 -0.11729,-0.005 -0.0954,-0.003 -0.23061,-0.006 -0.40257,-0.009 -0.34395,-0.006 -0.8351,-0.0117 -1.44126,-0.0181 -1.21229,-0.0127 -2.87814,-0.0255 -4.70667,-0.0362 -3.65498,-0.0216 -8.32528,-0.0541 -10.37302,-0.0713 -5.82636,-0.0488 -12.05632,-0.0927 -19.00711,-0.13229 -3.5156,-0.02 -9.19491,-0.0549 -12.61732,-0.078 l -6.09161,-0.0403 -0.47492,-0.22788 c -0.54528,-0.26202 -1.26968,-0.93972 -1.66087,-1.59629 l -0.2155,-0.36121 -0.0243,-17.41238 c -0.024,-16.53715 0.034,-44.23048 0.1235,-58.63775 l 0.0398,-6.30455 0.2677,-0.52917 c 0.4581,-0.90781 1.63399,-1.76157 2.32439,-1.83451 -0.04,0.004 0.0445,-0.002 0.1478,-0.003 0.107,-9.8e-4 0.25781,-0.002 0.44752,-0.003 z m 3.72898,3.61217 c -0.5253,0.001 -1.05262,0.0537 -1.40303,0.15814 -1.7829,0.53094 -2.92484,1.89661 -3.01583,3.60701 l -0.0238,0.4594 0.894,0.0243 0.89453,0.0238 0.0455,-0.49557 c 0.054,-0.59997 0.28858,-1.08617 0.69659,-1.44436 0.4385,-0.38494 0.84207,-0.52985 1.61076,-0.58084 1.67069,-0.11086 2.89843,0.67707 2.98844,1.9177 0.072,0.99687 -0.49927,1.70643 -2.35386,2.92283 -3.41239,2.23819 -4.61582,3.51922 -4.81521,5.1263 l -5.3e-4,5.3e-4 c -0.061,0.48982 -0.0637,0.77216 -0.0217,1.96731 l 0.0108,0.31781 4.57182,5.1e-4 h 4.57234 v -2.15903 -2.15905 h -0.88934 -0.88884 v 1.27021 1.26968 h -2.79416 c -3.1877,-5e-5 -2.97556,0.063 -2.56675,-0.76687 0.40928,-0.83071 1.62092,-1.92735 3.50261,-3.17137 2.23231,-1.47587 2.99598,-2.23412 3.32798,-3.30317 0.6549,-2.10944 -0.57354,-4.12183 -2.95124,-4.8338 -0.3424,-0.10279 -0.86585,-0.15277 -1.39113,-0.15142 z m 40.27297,12.52222 -16.45118,0.0212 -16.45119,0.0217 -0.0263,0.31679 c -0.03,0.35883 -0.0297,0.24717 0.0563,28.29957 0.036,11.33898 0.0728,21.49245 0.0858,22.56348 0.012,1.07103 0.022,2.35709 0.032,2.85771 l 0.01,0.91001 h 16.5132 l 16.5132,5.3e-4 -0.0439,-3.78892 c -0.024,-2.08388 -0.0629,-11.44658 -0.0878,-20.80648 -0.024,-9.3599 -0.0692,-20.02833 -0.0982,-23.70709 z m -16.43465,0.38034 h 5.3e-4 c 8.81388,1.4e-4 16.04158,0.0292 16.06257,0.0641 0.037,0.0621 0.18211,38.40491 0.18192,48.87402 v 5.29167 l -16.03986,0.0207 c -8.822,0.0117 -16.06679,-0.008 -16.09979,-0.0424 -0.033,-0.035 -0.0818,-9.05504 -0.11006,-20.04478 h 5e-4 c -0.028,-10.98973 -0.0734,-23.14366 -0.10075,-27.00869 -0.027,-3.86501 -0.0205,-7.05612 0.0155,-7.09102 0.035,-0.0349 7.27564,-0.0638 16.08944,-0.0636 z m 0.0222,3.13315 c -0.53459,0.003 -1.07027,0.21941 -1.42267,0.64698 -0.61568,0.74676 -0.56552,1.71043 0.1287,2.48253 0.40309,0.44297 0.4046,0.57582 0.01,0.37156 -0.3497,-0.18082 -1.1294,-0.15857 -1.60559,0.0455 -0.37971,0.16277 -0.74044,0.54012 -0.90123,0.94311 -0.2436,0.61052 -0.0419,1.46616 0.46559,1.97352 0.90921,0.90914 2.61027,0.5003 2.91817,-0.70125 0.12171,-0.47627 0.2668,-0.58158 0.20981,-0.15298 -0.02,0.15134 -0.0599,0.46583 -0.0889,0.69869 -0.073,0.59182 -0.35729,1.47314 -0.68368,2.12182 l -0.277,0.55036 0.31057,-0.0661 c 0.38391,-0.0818 1.47098,-0.0861 1.8981,-0.008 0.37279,0.0683 0.38912,0.0118 0.12141,-0.41963 -0.4182,-0.67362 -0.82698,-2.0757 -0.81698,-2.8303 v -0.3638 l 0.15449,0.44699 c 0.2676,0.77478 0.86974,1.20354 1.68984,1.20356 0.80339,0 1.33311,-0.33488 1.67431,-1.05833 0.23371,-0.49477 0.24641,-0.70734 0.077,-1.27797 -0.29491,-0.99311 -1.57904,-1.53416 -2.60604,-1.09812 -0.40122,0.17044 -0.41172,0.0417 -0.0248,-0.29819 0.30361,-0.26657 0.63926,-1.00375 0.63926,-1.40404 0,-0.37547 -0.18232,-0.85172 -0.45064,-1.17718 -0.34869,-0.42304 -0.88236,-0.63188 -1.41695,-0.62839 z m -23.98355,1.01647 c -0.28081,0.0105 -0.5452,0.0599 -0.75086,0.15089 -0.4893,0.21649 -1.04183,0.71716 -1.27434,1.15499 -0.2861,0.53925 -0.26191,1.54326 0.0522,2.18331 0.13319,0.27126 0.40605,0.63183 0.62113,0.82114 0.38791,0.34181 0.44681,0.60846 0.092,0.4186 -0.33459,-0.17907 -1.00719,-0.31605 -1.41491,-0.28837 -0.54539,0.0371 -1.38761,0.4283 -1.70842,0.79375 -0.2849,0.3244 -0.48585,0.73509 -0.58703,1.19994 -0.14962,0.68897 0.1664,1.68618 0.694,2.19056 0.52002,0.49702 0.88702,0.63984 1.64693,0.64286 0.59481,0.002 0.74766,-0.0301 1.18237,-0.2522 0.61899,-0.31626 1.00531,-0.7996 1.14774,-1.43608 0.23719,-1.05974 0.34295,-0.16235 0.11885,1.00872 -0.16502,0.86207 -0.57261,2.05703 -0.93742,2.75125 -0.15769,0.29961 -0.27279,0.55827 -0.2558,0.57517 0.017,0.0168 0.35938,-0.0164 0.76068,-0.0744 0.56369,-0.0811 0.92646,-0.0839 1.59578,-0.009 0.47649,0.0529 0.88008,0.0824 0.89709,0.0656 0.017,-0.0168 -0.10422,-0.27131 -0.26871,-0.56587 -0.38351,-0.68731 -0.77253,-1.74762 -0.93173,-2.53833 -0.24841,-1.23267 -0.17711,-2.20766 0.0858,-1.17925 0.16161,0.63138 0.38769,0.96419 0.8568,1.26193 1.6351,1.03754 3.67586,0.0954 3.80855,-1.75802 0.096,-1.33774 -0.70496,-2.3607 -2.06397,-2.63758 -0.51458,-0.10486 -0.8029,-0.0679 -1.70479,0.22066 -0.29141,0.0932 -0.23381,-0.0888 0.1323,-0.41963 0.38068,-0.34388 0.7381,-1.03317 0.8201,-1.57975 0.13179,-0.8828 -0.4576,-2.01408 -1.26971,-2.43705 -0.29086,-0.1515 -0.67744,-0.24045 -1.05987,-0.26096 h -5.3e-4 c -0.0955,-0.005 -0.19079,-0.006 -0.28421,-0.003 z m 46.29486,34.05685 c -0.016,0.0159 0.13851,0.37039 0.34261,0.78753 0.56829,1.16142 0.9008,2.28846 1.01697,3.44631 0.049,0.4886 0.038,0.57155 -0.076,0.57155 -0.089,0 -0.13356,-0.0772 -0.13435,-0.23254 0,-0.37873 -0.37352,-1.0668 -0.7524,-1.39113 -0.47871,-0.40973 -1.15276,-0.61476 -1.79887,-0.54726 -1.01241,0.1058 -1.75194,0.70852 -2.07272,1.69034 -0.12243,0.37457 -0.10092,0.98933 0.0522,1.51567 0.1529,0.52474 0.58928,1.01049 1.18909,1.32238 0.5198,0.27028 0.58156,0.28208 1.26606,0.24858 0.4482,-0.022 0.82172,-0.0887 0.99012,-0.17724 0.43151,-0.22702 0.42709,-0.0104 -0.01,0.43251 -0.53959,0.54737 -0.75152,1.13236 -0.70951,1.96474 0.037,0.73975 0.19606,1.12033 0.67747,1.61645 0.47839,0.49292 0.99086,0.70225 1.71876,0.70228 1.01809,3e-5 1.78789,-0.50361 2.2226,-1.45314 0.18169,-0.39413 0.20556,-0.54915 0.17156,-1.06556 -0.048,-0.73369 -0.25718,-1.17814 -0.85058,-1.8056 -0.23501,-0.24839 -0.40315,-0.47527 -0.37415,-0.50434 0.029,-0.0291 0.25249,0.0326 0.49609,0.13745 0.6236,0.26823 1.64746,0.22008 2.19935,-0.10335 1.53429,-0.89916 1.76668,-2.71915 0.49869,-3.9052 -0.63331,-0.5925 -1.47318,-0.78181 -2.32648,-0.52504 -0.83381,0.25094 -1.39796,0.83381 -1.58285,1.63558 -0.15449,0.6717 -0.27651,0.55322 -0.21653,-0.21135 0.078,-1.00203 0.42278,-2.20911 0.92657,-3.2489 0.444,-0.91657 0.44836,-0.93355 0.23667,-0.88625 -0.53629,0.11967 -1.949,0.15227 -2.49391,0.0574 -0.31737,-0.0554 -0.59,-0.0876 -0.60666,-0.0718 z m -23.35258,3.99614 c -0.0215,4.7e-4 -0.0358,0.003 -0.0408,0.008 -0.021,0.0205 0.10525,0.32967 0.27956,0.68678 0.1742,0.35716 0.38954,0.88093 0.47955,1.16427 0.16,0.50652 0.31824,1.74305 0.22323,1.74305 -0.027,0 -0.1094,-0.20714 -0.1824,-0.45993 -0.32311,-1.11146 -1.69029,-1.55604 -2.70939,-0.88106 -0.33602,0.22257 -0.53067,0.50176 -0.75708,1.08675 -0.027,0.0699 -0.0329,0.30546 -0.0129,0.52348 0.10761,1.19182 1.27281,1.98631 2.42001,1.65002 0.2504,-0.0734 0.47305,-0.11557 0.49506,-0.0935 0.022,0.022 -0.097,0.18227 -0.26458,0.35605 -1.16552,1.20946 -0.39248,3.1795 1.24592,3.17553 1.0713,-0.002 1.84105,-0.75361 1.85106,-1.80094 0,-0.54793 -0.30676,-1.23357 -0.68266,-1.50738 -0.33829,-0.24646 -0.20158,-0.30226 0.34933,-0.14214 0.56171,0.16336 1.16486,0.076 1.60454,-0.23254 1.31191,-0.92043 0.97504,-2.91925 -0.55396,-3.2861 -0.49979,-0.11991 -0.92546,-0.0526 -1.39784,0.2217 -0.42601,0.2473 -0.69776,0.60581 -0.76274,1.00822 -0.081,0.50276 -0.21252,0.33882 -0.15142,-0.18966 0.10199,-0.88323 0.29718,-1.57755 0.64338,-2.2934 0.18778,-0.38852 0.32761,-0.71999 0.3116,-0.73639 v -5.3e-4 c -0.016,-0.0164 -0.18147,0.006 -0.36639,0.0486 -0.185,0.0429 -0.56446,0.0781 -0.84386,0.078 -0.2794,0 -0.6595,-0.0351 -0.8444,-0.078 -0.13874,-0.032 -0.26828,-0.0505 -0.33279,-0.0491 z m 20.43491,10.96936 0.0227,2.16884 0.0233,2.16937 0.88882,0.007 0.88937,0.007 v -1.24436 -1.24439 l 0.25371,-0.008 c 0.21661,-0.007 4.5463,-0.002 5.10151,0.005 0.23968,0.003 0.24249,0.15881 0.0119,0.6196 -0.51689,1.03204 -1.72048,2.10995 -3.84937,3.44684 -2.36511,1.4851 -3.23723,2.69949 -3.15434,4.39041 0.11001,2.22938 2.35159,3.91221 4.92218,3.69592 1.12971,-0.0951 2.01982,-0.4794 2.77193,-1.19685 0.71969,-0.68638 1.09561,-1.50362 1.21232,-2.63498 l 0.046,-0.44442 h -0.92757 -0.92708 l -10e-4,0.40206 c 0,0.85436 -0.6927,1.73495 -1.55649,1.98384 -0.56761,0.16357 -1.7113,0.111 -2.2965,-0.10594 -0.6576,-0.24373 -1.25265,-0.8178 -1.39475,-1.34564 -0.1283,-0.47636 0,-1.17568 0.2899,-1.61798 0.26271,-0.39706 1.12527,-1.06794 2.71508,-2.11151 1.45931,-0.95779 2.34346,-1.67071 3.04477,-2.45411 0.88601,-0.98992 1.17462,-1.90027 1.1286,-3.55637 l -0.0248,-0.88884 -4.59454,-0.0217 v 10e-4 z" />
  </g>
</svg>
