<?xml version="1.0" encoding="UTF-8" standalone="no"?>
<svg
   sodipodi:docname="2S.svg"
   id="svg8"
   version="1.1"
   viewBox="0 0 63.102818 88.347862"
   height="88.347862mm"
   width="63.102818mm"
   inkscape:version="1.1.1 (1:1.1+202109281949+c3084ef5ed)"
   inkscape:export-filename="/home/doug/k40/52Cards/2S.png"
   inkscape:export-xdpi="96"
   inkscape:export-ydpi="96"
   xmlns:inkscape="http://www.inkscape.org/namespaces/inkscape"
   xmlns:sodipodi="http://sodipodi.sourceforge.net/DTD/sodipodi-0.dtd"
   xmlns="http://www.w3.org/2000/svg"
   xmlns:svg="http://www.w3.org/2000/svg"
   xmlns:rdf="http://www.w3.org/1999/02/22-rdf-syntax-ns#"
   xmlns:cc="http://creativecommons.org/ns#"
   xmlns:dc="http://purl.org/dc/elements/1.1/">
  <defs
     id="defs2">
    <marker
       style="overflow:visible"
       id="marker2995"
       refX="0"
       refY="0"
       orient="auto"
       inkscape:stockid="Arrow1Lstart"
       inkscape:isstock="true">
      <path
         transform="matrix(0.8,0,0,0.8,10,0)"
         style="fill:#000000;fill-opacity:1;fill-rule:evenodd;stroke:#000000;stroke-width:1pt;stroke-opacity:1"
         d="M 0,0 5,-5 -12.5,0 5,5 Z"
         id="path2993" />
    </marker>
    <marker
       style="overflow:visible"
       id="marker2985"
       refX="0"
       refY="0"
       orient="auto"
       inkscape:stockid="Arrow1Lstart"
       inkscape:isstock="true">
      <path
         transform="matrix(0.8,0,0,0.8,10,0)"
         style="fill:#000000;fill-opacity:1;fill-rule:evenodd;stroke:#000000;stroke-width:1pt;stroke-opacity:1"
         d="M 0,0 5,-5 -12.5,0 5,5 Z"
         id="path2983" />
    </marker>
    <marker
       style="overflow:visible"
       id="marker2791"
       refX="0"
       refY="0"
       orient="auto"
       inkscape:stockid="Arrow1Lstart"
       inkscape:isstock="true">
      <path
         transform="matrix(0.8,0,0,0.8,10,0)"
         style="fill:#000000;fill-opacity:1;fill-rule:evenodd;stroke:#000000;stroke-width:1pt;stroke-opacity:1"
         d="M 0,0 5,-5 -12.5,0 5,5 Z"
         id="path2789" />
    </marker>
    <marker
       style="overflow:visible"
       id="marker2781"
       refX="0"
       refY="0"
       orient="auto"
       inkscape:stockid="Arrow1Lstart"
       inkscape:isstock="true">
      <path
         transform="matrix(0.8,0,0,0.8,10,0)"
         style="fill:#000000;fill-opacity:1;fill-rule:evenodd;stroke:#000000;stroke-width:1pt;stroke-opacity:1"
         d="M 0,0 5,-5 -12.5,0 5,5 Z"
         id="path2779" />
    </marker>
    <marker
       style="overflow:visible"
       id="marker2417"
       refX="0"
       refY="0"
       orient="auto"
       inkscape:stockid="Arrow1Lstart"
       inkscape:isstock="true">
      <path
         transform="matrix(0.8,0,0,0.8,10,0)"
         style="fill:#000000;fill-opacity:1;fill-rule:evenodd;stroke:#000000;stroke-width:1pt;stroke-opacity:1"
         d="M 0,0 5,-5 -12.5,0 5,5 Z"
         id="path2415" />
    </marker>
    <marker
       style="overflow:visible"
       id="marker2383"
       refX="0"
       refY="0"
       orient="auto"
       inkscape:stockid="Arrow1Lstart"
       inkscape:isstock="true">
      <path
         transform="matrix(0.8,0,0,0.8,10,0)"
         style="fill:#000000;fill-opacity:1;fill-rule:evenodd;stroke:#000000;stroke-width:1pt;stroke-opacity:1"
         d="M 0,0 5,-5 -12.5,0 5,5 Z"
         id="path2381" />
    </marker>
    <marker
       style="overflow:visible"
       id="marker2355"
       refX="0"
       refY="0"
       orient="auto"
       inkscape:stockid="Arrow1Lstart"
       inkscape:isstock="true">
      <path
         transform="matrix(0.8,0,0,0.8,10,0)"
         style="fill:#000000;fill-opacity:1;fill-rule:evenodd;stroke:#000000;stroke-width:1pt;stroke-opacity:1"
         d="M 0,0 5,-5 -12.5,0 5,5 Z"
         id="path2353" />
    </marker>
    <marker
       style="overflow:visible"
       id="Arrow1Lstart"
       refX="0"
       refY="0"
       orient="auto"
       inkscape:stockid="Arrow1Lstart"
       inkscape:isstock="true">
      <path
         transform="matrix(0.8,0,0,0.8,10,0)"
         style="fill:#000000;fill-opacity:1;fill-rule:evenodd;stroke:#000000;stroke-width:1pt;stroke-opacity:1"
         d="M 0,0 5,-5 -12.5,0 5,5 Z"
         id="path2071" />
    </marker>
  </defs>
  <sodipodi:namedview
     id="base"
     pagecolor="#ffffff"
     bordercolor="#666666"
     borderopacity="1.0"
     inkscape:pageopacity="0.0"
     inkscape:pageshadow="2"
     inkscape:zoom="1.5033848"
     inkscape:cx="86.138958"
     inkscape:cy="167.28917"
     inkscape:document-units="mm"
     inkscape:current-layer="layer1"
     inkscape:document-rotation="0"
     showgrid="false"
     inkscape:snap-smooth-nodes="false"
     inkscape:object-nodes="false"
     inkscape:window-width="1366"
     inkscape:window-height="712"
     inkscape:window-x="0"
     inkscape:window-y="0"
     inkscape:window-maximized="1"
     inkscape:object-paths="false"
     inkscape:snap-intersection-paths="false"
     inkscape:snap-midpoints="false"
     inkscape:snap-others="false"
     inkscape:pagecheckerboard="0"
     showguides="true"
     inkscape:guide-bbox="true"
     inkscape:snap-bbox="true"
     showborder="false"
     fit-margin-top="0"
     fit-margin-left="0"
     fit-margin-right="0"
     fit-margin-bottom="0" />
  <metadata
     id="metadata5">
    <rdf:RDF>
      <cc:Work
         rdf:about="">
        <dc:format>image/svg+xml</dc:format>
        <dc:type
           rdf:resource="http://purl.org/dc/dcmitype/StillImage" />
      </cc:Work>
    </rdf:RDF>
  </metadata>
  <g
     inkscape:label="Layer 1"
     inkscape:groupmode="layer"
     id="layer1"
     transform="translate(660.29148,231.84593)">
    <path
       style="fill:#000000;stroke-width:0.0846667"
       id="path389"
       d="" />
    <path
       id="path6742-7-6-3"
       style="fill:#000000;fill-opacity:1;stroke:none;stroke-width:0.264999;stroke-miterlimit:4;stroke-dasharray:none;stroke-opacity:1"
       d="m -652.38108,-231.84593 v 5.1e-4 c -1.12038,9.9e-4 -2.13579,0.005 -2.77606,0.0124 l -2.32854,0.0258 -0.57775,0.29611 c -0.74223,0.37984 -1.68907,1.33261 -1.98281,1.99523 l -0.20775,0.46922 -0.009,4.57284 c -0.005,2.5151 -0.0137,5.35428 -0.0207,6.30918 -0.007,0.95489 -0.01,3.88913 -0.006,6.52053 0.003,2.63138 0.005,5.88919 0.004,7.23987 -9.8e-4,1.35067 0.002,6.68595 0.008,11.85561 0.006,5.16967 0.009,10.48583 0.007,11.81323 -0.002,1.32741 0.003,4.87108 0.0129,7.87497 0.0185,5.89954 0.0195,6.55409 0.032,17.75189 0.005,4.10521 0.012,7.74899 0.0139,8.09666 l 0.001,0.632 0.1938,0.36794 c 0.32674,0.62015 0.79767,1.1557 1.38182,1.572 0.99348,0.70772 1.03338,0.71372 4.92477,0.71468 1.32733,3e-4 3.09977,0.007 3.93827,0.014 2.48912,0.0218 5.15815,0.0307 9.82315,0.031 2.42187,2e-4 4.97523,0.0105 5.67407,0.0233 0.69887,0.0129 3.15675,0.0254 5.46222,0.0284 2.3055,0.003 5.69759,0.0147 7.5375,0.0264 1.83992,0.0117 5.95609,0.0336 9.14675,0.0491 3.19061,0.0154 7.01998,0.0369 8.51059,0.0481 3.07438,0.023 3.48237,-9.9e-4 3.99045,-0.23719 h 0.004 c 1.01216,-0.47016 2.15495,-1.68205 2.34561,-2.4877 0.0404,-0.17101 0.0776,-2.38741 0.0816,-4.9258 0.0142,-8.09742 0.008,-17.79326 -0.0139,-21.67878 -0.0116,-2.07234 -0.0228,-5.92052 -0.0258,-8.55193 -0.002,-2.63141 -0.008,-7.01389 -0.0124,-9.73843 -0.02,-13.76802 -0.0233,-26.62157 -0.01,-33.09772 l 0.01,-4.60282 -0.29352,-0.55759 c -0.52457,-0.99563 -1.7752,-2.04705 -2.61017,-2.19469 -0.44011,-0.0778 -2.1663,-0.0939 -12.87365,-0.11834 -1.25756,-0.003 -2.80088,-0.0116 -3.42977,-0.0186 -0.62888,-0.007 -2.3822,-0.0131 -3.89588,-0.0129 -2.81823,4e-4 -12.30344,-0.0289 -15.79385,-0.0486 -1.07135,-0.006 -3.5292,-0.0179 -5.46222,-0.0269 -1.93299,-0.009 -5.24864,-0.026 -7.36801,-0.0367 -1.05968,-0.005 -2.28513,-0.007 -3.40548,-0.006 z m -4.0504,0.50797 5e-4,5.2e-4 c 2.64703,-0.0141 12.93951,0.0446 23.60891,0.13849 2.11968,0.0184 8.02335,0.0648 13.12272,0.10284 5.09911,0.038 11.67167,0.0878 14.60479,0.11214 l 5.19142,0.0419 0.42426,0.22738 c 0.57329,0.30675 1.35493,1.10076 1.58387,1.56425 l 0.18709,0.38034 0.0113,4.60592 c 0.009,3.78238 -0.002,12.61598 -0.0196,20.70519 -0.0178,8.08922 -0.044,15.49413 -0.0615,16.23674 -0.0207,0.88428 -0.0393,7.8769 -0.0455,15.67759 -0.006,8.12717 -0.02,14.33267 -0.0408,18.55081 -0.0104,2.10907 -0.0233,3.72226 -0.0372,4.82813 -0.007,0.55293 -0.013,0.97915 -0.0207,1.27537 -0.004,0.14811 -0.009,0.26408 -0.0124,0.34365 -0.004,0.0796 -0.0173,0.15911 -0.003,0.0822 -0.0654,0.34513 -0.41902,0.95379 -0.91263,1.40146 -0.69159,0.62723 -1.19345,0.88094 -1.80607,0.971 -0.22447,0.033 -0.72694,0.0666 -1.15083,0.0796 -0.21196,0.007 -0.4087,0.009 -0.5452,0.006 -0.06,-0.001 -0.10112,-0.005 -0.1266,-0.007 -0.005,-0.002 -0.0155,-0.004 -0.0155,-0.004 -5.3e-4,-1.4e-4 -0.048,-0.0105 -0.0605,-0.0124 -0.0249,-0.004 -0.0347,-0.005 -0.0449,-0.006 -0.0206,-0.002 -0.0347,-0.001 -0.0506,-0.002 -0.0319,-0.002 -0.0696,-0.004 -0.11732,-0.005 -0.0954,-0.003 -0.23058,-0.006 -0.40256,-0.009 -0.34393,-0.006 -0.83508,-0.0117 -1.44124,-0.0181 -1.21229,-0.0127 -2.87816,-0.0255 -4.7067,-0.0362 -3.65498,-0.0216 -8.32527,-0.0541 -10.37301,-0.0713 -5.82634,-0.0488 -12.05632,-0.0927 -19.00711,-0.13229 -3.5156,-0.02 -9.19502,-0.0549 -12.61732,-0.078 l -6.09161,-0.0403 -0.4749,-0.22789 c -0.54531,-0.26202 -1.26923,-0.93971 -1.66037,-1.59629 l -0.216,-0.36121 -0.0238,-17.41238 c -0.0236,-16.53716 0.034,-44.23046 0.12351,-58.63776 l 0.0398,-6.30452 0.26768,-0.52917 c 0.45813,-0.90783 1.63346,-1.76158 2.32389,-1.83451 -0.0397,0.004 0.0454,-0.002 0.14833,-0.003 0.10697,-9.9e-4 0.25778,-0.002 0.44751,-0.003 z m 3.94497,3.58842 c -1.40949,0.0177 -2.49034,0.47356 -3.31193,1.39629 -0.61481,0.69037 -0.919,1.42028 -1.01078,2.42414 -0.028,0.3065 -0.0113,0.44928 0.0548,0.46457 0.053,0.0122 0.46275,0.0208 0.91104,0.0191 l 0.81494,-0.003 0.0222,-0.42013 c 0.046,-0.8812 0.60122,-1.63143 1.43042,-1.9327 0.60029,-0.21814 1.56038,-0.22634 2.24068,-0.0196 1.33739,0.40651 1.96101,1.60171 1.42782,2.73627 -0.23759,0.50556 -0.98618,1.16447 -2.24949,1.98024 -2.85398,1.84302 -4.21925,3.18976 -4.63846,4.57543 -0.068,0.22373 -0.13192,0.70549 -0.14264,1.07022 -0.011,0.36476 -0.01,0.90078 0,1.19166 0.021,0.49528 0.0353,0.52758 0.21344,0.51676 0.16928,-0.0104 1.12528,-0.0113 3.24528,-0.003 3.2943,0.0129 5.67721,0.004 5.69991,-0.0222 0.037,-0.0427 0.0236,-4.22041 -0.0134,-4.25193 -0.03,-0.0253 -0.75856,-0.0552 -1.38906,-0.0568 l -0.33951,-0.001 -0.01,0.89194 c -0.01,0.49032 -0.0179,1.0593 -0.0289,1.26452 l -0.0212,0.3731 -0.98959,0.007 c -0.5443,0.004 -1.18078,0.004 -1.41438,0.001 -0.2336,-0.003 -0.78732,-0.004 -1.23042,-0.001 -1.5249,0.008 -1.86849,-0.0183 -1.8769,-0.14676 -0.032,-0.48878 1.0683,-1.87456 2.16111,-2.72128 0.33161,-0.25702 1.05138,-0.74877 1.59938,-1.09244 1.89691,-1.18947 2.77411,-2.03921 3.19051,-3.09335 0.43532,-1.10239 0.23172,-2.50098 -0.49866,-3.42615 -0.88342,-1.11904 -2.27441,-1.7409 -3.8499,-1.72083 z m 35.05369,10.1539 c -0.01,0.008 8.7e-4,0.0396 0.031,0.0977 0.037,0.0813 0.0882,0.12537 0.11213,0.0977 0.025,-0.0277 -2.1e-4,-0.0944 -0.0682,-0.14779 -0.044,-0.0378 -0.0673,-0.0539 -0.0749,-0.0475 z m -0.015,0.33021 c -0.089,0.006 -0.0819,0.10079 0.0191,0.23926 0.064,0.088 0.0861,0.0843 0.11885,-0.0207 0.041,-0.13385 -0.0169,-0.22654 -0.13798,-0.21859 z m -27.39988,2.11977 c -0.27038,0.003 -0.44445,0.009 -0.45784,0.0171 l 0.004,5.2e-4 c -0.027,0.0164 -0.048,0.40332 -0.047,0.85989 0.01,0.45655 9.8e-4,1.70833 0,2.78174 0,2.82212 -1.5e-4,6.99209 0.0109,8.61137 8e-4,0.7698 0.0103,1.97263 0.0103,2.6727 0,1.88409 0.01,6.32244 0.016,7.29568 0,1.01483 0.0118,2.82329 0.01,4.62349 0,1.52242 -1.1e-4,9.24894 0.0119,13.15165 v 4.00854 c -6.9e-4,0.73501 0.0289,1.37321 0.0579,1.41852 0.033,0.0452 0.033,0.2843 0,0.53072 -0.032,0.2464 -0.0488,1.19123 -0.0398,2.10064 0.01,1.37037 0.012,3.55651 0,5.51595 h 5e-4 c -0.01,0.2102 0.01,0.62004 0.0129,0.91105 l 0.0191,0.52917 0.45424,-0.03 c 0.2499,-0.0164 1.21377,-0.025 2.14148,-0.0186 0.92779,0.006 2.10699,0.006 2.61999,10e-4 0.513,-0.005 1.04724,4.8e-4 1.18803,0.0124 0.14081,0.0119 1.24857,0.0156 2.46136,0.008 1.2128,-0.008 2.6638,-0.0102 3.22408,-0.005 0.56042,0.005 1.53295,-7.7e-4 2.16215,-0.0145 0.6291,-0.0128 1.4699,-0.0106 1.86759,0.006 0.3977,0.0165 1.12363,0.0259 1.61335,0.0207 1.221,-0.013 2.06145,-0.0162 2.71455,-0.0103 0.7502,0.007 1.47986,0.007 3.81838,0.003 2.95799,-0.005 4.50599,-9.6e-4 5.64357,0.0134 0.56041,0.007 1.48645,0.008 2.05777,0.002 l 1.03817,-0.0114 -0.0176,-0.28681 c -0.017,-0.28047 -0.0224,-2.28839 -0.0124,-3.38377 0.015,-1.35391 0.0132,-3.26525 -0.01,-6.57479 -0.012,-1.95921 -0.0168,-3.79222 -0.0108,-4.07262 0.01,-0.2804 -3.5e-4,-1.23485 -0.0104,-2.1208 -0.019,-1.36139 -0.0249,-7.69786 -0.0139,-9.79889 0,-0.88144 1.6e-4,-6.85706 -0.0109,-8.61136 -0.001,-0.79316 -0.01,-2.30127 -0.01,-3.35121 -0.01,-4.03348 -0.0122,-7.37973 -0.0222,-10.64742 -0.01,-1.86631 -0.01,-3.99528 -10e-4,-4.73149 0,-0.73619 -0.01,-1.35133 -0.029,-1.36684 -0.019,-0.0156 -0.72279,-0.0272 -1.56268,-0.0264 -0.83992,9.2e-4 -1.75638,-9e-4 -2.03658,-0.003 -0.28019,-0.003 -1.99847,-0.003 -3.81836,-5.1e-4 -1.8198,0.002 -3.49993,-7.6e-4 -3.73364,-0.008 -0.23379,-0.007 -1.62798,-0.0113 -3.09801,-0.0103 -1.46999,0.001 -3.81785,0.003 -5.21776,0.003 -1.4001,6.3e-4 -3.13743,0.002 -3.86072,0.003 -0.72322,0.001 -1.56348,-10e-4 -1.86709,-0.005 -0.30361,-0.004 -0.87619,-0.005 -1.27278,-0.004 -0.3965,0.002 -0.9694,7e-4 -1.2728,-0.001 -0.30351,-0.002 -0.93351,-9.6e-4 -1.39991,0.001 -0.4666,0.003 -1.49754,-5.6e-4 -2.29135,-0.008 -0.3969,-0.004 -0.76364,-0.004 -1.03404,-5.1e-4 z m 3.52435,0.38809 c 4.7805,0.006 4.64183,0.005 7.63673,0.003 1.4466,-0.001 3.47061,0.001 4.49741,0.004 1.02701,0.003 2.19144,0.003 2.58794,0 0.9933,-0.009 2.00507,-0.004 2.46137,0.01 0.2105,0.007 1.29865,0.009 2.41845,0.004 1.11958,-0.004 3.14327,-0.004 4.49688,5.1e-4 1.35369,0.005 2.90925,0.004 3.45715,-5.1e-4 0.54801,-0.006 0.9992,0.0197 1.00148,0.0553 5e-4,0.0357 0,0.63093 0,1.32292 0,4.14066 -3.5e-4,6.84735 0.0197,9.35963 0.01,1.56273 0.0154,3.10913 0.0134,3.43597 -0.01,0.32685 0,1.20482 0,1.9513 0.017,4.15088 0.0137,10.04877 -0.0103,12.21889 -0.01,0.28022 -10e-5,1.80703 0.0119,3.39308 0.01,1.58601 0.0203,4.64014 0.0233,6.78666 0.01,6.32059 0.01,6.46926 0.0171,7.97471 0,0.79304 0.01,2.03356 0.01,2.75694 -9e-4,0.72344 -4e-4,2.12939 5e-4,3.12435 0,0.995 -0.01,1.82106 -0.0238,1.83607 -0.015,0.0149 -0.48606,0.0239 -1.04645,0.0186 -0.56031,-0.005 -2.16413,-0.008 -3.56412,-0.008 -1.39991,5.2e-4 -3.99627,9.9e-4 -5.76969,5.2e-4 -1.77329,-4.6e-4 -3.58704,6.2e-4 -4.03024,0.004 -0.4431,0.002 -1.22613,-0.003 -1.73993,-0.0114 -0.5139,-0.009 -1.33501,-0.0119 -1.8247,-0.007 -0.48971,0.005 -1.96019,0.007 -3.26699,0.004 -1.3068,-0.002 -2.7948,0.001 -3.3078,0.007 -0.51292,0.006 -1.08653,0.003 -1.27383,-0.007 -0.18741,-0.0103 -1.58078,-0.0132 -3.09698,-0.007 -1.5163,0.006 -2.86369,-0.003 -2.9931,-0.0212 -0.28368,-0.0388 -0.27421,0.069 -0.25683,-3.02927 0.01,-1.16714 0.01,-2.80874 0,-3.64835 -0.029,-4.32871 -0.0421,-7.33133 -0.0341,-8.39794 0,-0.65365 0.01,-1.45602 0.0119,-1.78284 0.01,-0.79054 -0.01,-7.19874 -0.0279,-13.95573 -0.01,-3.00943 -0.0181,-7.22803 -0.0191,-9.37463 -0.001,-2.14661 -0.01,-5.39166 -0.01,-7.21144 -0.012,-6.09995 -0.0102,-6.74182 0.0248,-6.77737 h 0.008 c 0.019,-0.0195 1.63804,-0.0333 3.59825,-0.031 z m 12.53411,3.0763 c -0.031,8.5e-4 -0.13531,0.14992 -0.23151,0.33124 -0.1569,0.29589 -1.30635,1.91085 -2.10426,2.95693 -0.4328,0.56747 -0.97586,1.5371 -1.12654,2.01228 v 5.1e-4 c -0.37232,1.17391 0.25164,2.29699 1.37303,2.47169 0.6318,0.0984 1.06418,-0.0598 1.51929,-0.55708 0.29519,-0.32256 0.35554,-0.35856 0.36483,-0.21652 0.037,0.5569 -0.47172,2.23033 -0.80822,2.65979 -0.1896,0.24235 -0.11732,0.28086 0.38137,0.20308 0.464,-0.0723 1.15536,-0.0561 1.65986,0.0393 l 0.23977,0.0455 -0.18553,-0.27389 c -0.3175,-0.46824 -0.68514,-1.50549 -0.79375,-2.23914 l -0.10385,-0.70228 0.28422,0.37982 c 0.37388,0.50098 0.84444,0.70544 1.51514,0.65836 0.6604,-0.0466 1.13625,-0.35843 1.42576,-0.93431 0.17449,-0.34742 0.20095,-0.50357 0.16174,-0.96325 -0.078,-0.90627 -0.31547,-1.31754 -2.40967,-4.19148 -0.41429,-0.56867 -0.83243,-1.17986 -0.92914,-1.35805 -0.097,-0.17821 -0.20145,-0.3235 -0.23254,-0.32246 z m -23.5753,0.93637 -0.35139,0.60462 c -0.34722,0.59716 -1.2812,1.92913 -2.14149,3.05459 -1.2877,1.68432 -2.06502,2.98341 -2.34352,3.91604 -0.42,1.40638 0.185,2.84748 1.3715,3.26802 1.19308,0.42287 2.31584,0.0576 2.98844,-0.97204 l 0.24752,-0.37879 -0.0279,0.42582 c -0.081,1.21005 -0.64786,3.05074 -1.16996,3.79873 l -0.23927,0.34313 0.36381,-0.0863 c 0.5788,-0.13737 1.84769,-0.17536 2.36368,-0.0708 0.68339,0.13847 0.70072,0.12799 0.44132,-0.27182 -0.31091,-0.47946 -0.67905,-1.38313 -0.88625,-2.17506 -0.18621,-0.71224 -0.38634,-1.9513 -0.31575,-1.95595 0.024,-0.001 0.14888,0.17343 0.27699,0.38964 0.6722,1.13521 2.0841,1.46792 3.29229,0.77514 0.50242,-0.28809 0.93366,-0.83695 1.08678,-1.38286 0.13409,-0.4767 0.0748,-1.36265 -0.13282,-1.98747 -0.18939,-0.57064 -1.02479,-1.94532 -1.88566,-3.10162 -0.33121,-0.4449 -0.88374,-1.18546 -1.22785,-1.6459 -0.3442,-0.46045 -0.87019,-1.22175 -1.1684,-1.69188 z m 8.08633,31.64303 c -0.049,0.004 -0.0857,0.0439 -0.0837,0.0904 5.8e-4,0.0465 0.0219,0.0836 0.0429,0.0822 0.021,-0.001 0.0592,-0.042 0.0842,-0.0904 0.025,-0.0484 0.01,-0.0855 -0.0434,-0.0822 z m 40.73755,0.49816 -1.0237,0.0997 c -0.74501,0.073 -1.18502,0.0737 -1.61541,0.002 -0.32549,-0.054 -0.60495,-0.0827 -0.62114,-0.0641 -0.0154,0.0195 0.0961,0.2508 0.24855,0.51521 0.53102,0.91872 0.84693,1.91798 1.02113,3.23339 l 0.0997,0.75655 -0.23511,-0.38189 c -0.28321,-0.45921 -0.76493,-0.88529 -1.19372,-1.05523 -0.40121,-0.15916 -1.24957,-0.17136 -1.67896,-0.0243 -0.79431,0.27207 -1.42449,0.98481 -1.58647,1.79524 -0.11512,0.57568 -0.076,1.00692 0.15502,1.71307 0.32639,0.99819 0.87011,1.8547 2.8639,4.51187 0.43381,0.57817 1.0564,1.46347 1.38391,1.9668 l 0.59531,0.91468 0.22635,-0.41755 c 0.2658,-0.48941 1.04619,-1.60904 2.33627,-3.3538 1.8044,-2.44043 2.28002,-3.34548 2.41382,-4.59248 0.038,-0.35497 -0.16502,-1.15125 -0.38862,-1.52653 -0.3977,-0.66747 -1.16575,-1.08327 -2.04534,-1.10742 -0.87201,-0.0239 -1.66803,0.40973 -2.08153,1.13378 -0.1094,0.19152 -0.21587,0.33352 -0.23616,0.31574 -0.02,-0.0178 0.0306,-0.4605 0.11213,-0.98392 0.1805,-1.14894 0.52271,-2.21215 0.94051,-2.92385 z m -24.2135,5.01572 c -0.12944,0.004 -0.30716,0.0178 -0.50229,0.0387 -0.39031,0.0419 -0.91136,0.0467 -1.15755,0.0109 -0.24612,-0.0364 -0.46194,-0.0497 -0.47906,-0.03 -0.017,0.0195 0.0524,0.15865 0.15349,0.30955 0.30879,0.46116 0.61849,1.39577 0.7121,2.1487 0.082,0.66206 0.079,0.69701 -0.047,0.46819 -0.32509,-0.59347 -1.17239,-0.96843 -1.8433,-0.81545 -0.76099,0.17353 -1.22224,0.6455 -1.36374,1.39423 -0.17499,0.9262 0.2604,1.83562 2.00038,4.17804 0.55812,0.75151 1.13835,1.55915 1.28934,1.7942 0.151,0.23502 0.29713,0.42552 0.32452,0.42375 0.027,-0.001 0.0853,-0.0948 0.12713,-0.20671 0.074,-0.19648 1.01343,-1.55078 2.22932,-3.21479 0.32229,-0.44119 0.71697,-1.11114 0.87797,-1.4888 0.25083,-0.5885 0.28837,-0.76372 0.25789,-1.22886 -0.056,-0.85853 -0.45807,-1.39403 -1.20097,-1.60249 -0.7851,-0.22025 -1.38274,-0.028 -1.88465,0.60668 l -0.28422,0.36019 0.0383,-0.37362 c 0.09,-0.89601 0.54835,-2.30791 0.84024,-2.58434 0.069,-0.0658 0.12438,-0.14401 0.12247,-0.17312 -1.8e-4,-0.0148 -0.0809,-0.0193 -0.21031,-0.015 z m -17.31264,5.00331 c 0.0104,0.001 0.0216,0.005 0.0336,0.0114 0.048,0.0256 0.09,0.0848 0.094,0.13125 6.1e-4,0.0464 -0.0342,0.0635 -0.0821,0.0377 -0.048,-0.0256 -0.0895,-0.0848 -0.0935,-0.13126 -3.2e-4,-0.0232 0.01,-0.0391 0.0207,-0.046 0.007,-0.004 0.017,-0.004 0.0274,-0.003 z m 39.91178,6.98872 c -2.25684,-8e-5 -4.51104,0.0191 -4.5403,0.0574 l -0.0109,10e-4 c -0.026,0.0353 -0.0416,0.84633 -0.0336,1.80248 0,0.9562 0.01,1.89588 0,2.08824 l -0.0201,0.34985 0.45008,0.0243 c 0.24781,0.0133 0.66445,0.011 0.92604,-0.007 l 0.47596,-0.0305 -0.0171,-1.24178 -0.017,-1.24075 0.86093,-0.003 c 3.01929,-0.009 4.6685,0.007 4.7134,0.0465 0.1235,0.10831 -0.41545,1.04653 -0.93277,1.62368 -0.713,0.79546 -1.43089,1.36977 -2.8484,2.2779 -1.4955,0.95813 -1.84888,1.23347 -2.44067,1.90014 -0.55851,0.62916 -0.9081,1.39103 -0.97152,2.11667 -0.2218,2.53772 2.24514,4.55853 5.11855,4.19302 2.10222,-0.26741 3.52051,-1.64436 3.7548,-3.64474 0.037,-0.31151 0.0494,-0.57934 0.0285,-0.59531 -0.021,-0.0159 -0.42408,-0.0292 -0.89609,-0.0295 l -0.85781,-5.1e-4 -0.0656,0.51211 c -0.17931,1.38636 -1.33245,2.16454 -2.95744,1.99626 -1.34569,-0.13933 -2.25179,-0.89639 -2.32029,-1.9389 -0.06,-0.91785 0.51195,-1.65937 2.06293,-2.67322 1.25601,-0.82105 2.34101,-1.58166 2.86031,-2.00505 1.1825,-0.96412 1.93331,-1.97515 2.17712,-2.93212 0.11578,-0.45423 0.16137,-2.49195 0.0579,-2.5895 -0.0405,-0.0383 -2.29997,-0.0578 -4.55682,-0.0579 z" />
  </g>
</svg>
