<?xml version="1.0" encoding="UTF-8" standalone="no"?>
<svg
   sodipodi:docname="3D.svg"
   id="svg8"
   version="1.1"
   viewBox="0 0 63.1022 88.347733"
   height="88.347733mm"
   width="63.1022mm"
   inkscape:version="1.1.1 (1:1.1+202109281949+c3084ef5ed)"
   inkscape:export-filename="/home/doug/k40/52Cards/3D.png"
   inkscape:export-xdpi="96"
   inkscape:export-ydpi="96"
   xmlns:inkscape="http://www.inkscape.org/namespaces/inkscape"
   xmlns:sodipodi="http://sodipodi.sourceforge.net/DTD/sodipodi-0.dtd"
   xmlns="http://www.w3.org/2000/svg"
   xmlns:svg="http://www.w3.org/2000/svg"
   xmlns:rdf="http://www.w3.org/1999/02/22-rdf-syntax-ns#"
   xmlns:cc="http://creativecommons.org/ns#"
   xmlns:dc="http://purl.org/dc/elements/1.1/">
  <defs
     id="defs2">
    <marker
       style="overflow:visible"
       id="marker2995"
       refX="0"
       refY="0"
       orient="auto"
       inkscape:stockid="Arrow1Lstart"
       inkscape:isstock="true">
      <path
         transform="matrix(0.8,0,0,0.8,10,0)"
         style="fill:#000000;fill-opacity:1;fill-rule:evenodd;stroke:#000000;stroke-width:1pt;stroke-opacity:1"
         d="M 0,0 5,-5 -12.5,0 5,5 Z"
         id="path2993" />
    </marker>
    <marker
       style="overflow:visible"
       id="marker2985"
       refX="0"
       refY="0"
       orient="auto"
       inkscape:stockid="Arrow1Lstart"
       inkscape:isstock="true">
      <path
         transform="matrix(0.8,0,0,0.8,10,0)"
         style="fill:#000000;fill-opacity:1;fill-rule:evenodd;stroke:#000000;stroke-width:1pt;stroke-opacity:1"
         d="M 0,0 5,-5 -12.5,0 5,5 Z"
         id="path2983" />
    </marker>
    <marker
       style="overflow:visible"
       id="marker2791"
       refX="0"
       refY="0"
       orient="auto"
       inkscape:stockid="Arrow1Lstart"
       inkscape:isstock="true">
      <path
         transform="matrix(0.8,0,0,0.8,10,0)"
         style="fill:#000000;fill-opacity:1;fill-rule:evenodd;stroke:#000000;stroke-width:1pt;stroke-opacity:1"
         d="M 0,0 5,-5 -12.5,0 5,5 Z"
         id="path2789" />
    </marker>
    <marker
       style="overflow:visible"
       id="marker2781"
       refX="0"
       refY="0"
       orient="auto"
       inkscape:stockid="Arrow1Lstart"
       inkscape:isstock="true">
      <path
         transform="matrix(0.8,0,0,0.8,10,0)"
         style="fill:#000000;fill-opacity:1;fill-rule:evenodd;stroke:#000000;stroke-width:1pt;stroke-opacity:1"
         d="M 0,0 5,-5 -12.5,0 5,5 Z"
         id="path2779" />
    </marker>
    <marker
       style="overflow:visible"
       id="marker2417"
       refX="0"
       refY="0"
       orient="auto"
       inkscape:stockid="Arrow1Lstart"
       inkscape:isstock="true">
      <path
         transform="matrix(0.8,0,0,0.8,10,0)"
         style="fill:#000000;fill-opacity:1;fill-rule:evenodd;stroke:#000000;stroke-width:1pt;stroke-opacity:1"
         d="M 0,0 5,-5 -12.5,0 5,5 Z"
         id="path2415" />
    </marker>
    <marker
       style="overflow:visible"
       id="marker2383"
       refX="0"
       refY="0"
       orient="auto"
       inkscape:stockid="Arrow1Lstart"
       inkscape:isstock="true">
      <path
         transform="matrix(0.8,0,0,0.8,10,0)"
         style="fill:#000000;fill-opacity:1;fill-rule:evenodd;stroke:#000000;stroke-width:1pt;stroke-opacity:1"
         d="M 0,0 5,-5 -12.5,0 5,5 Z"
         id="path2381" />
    </marker>
    <marker
       style="overflow:visible"
       id="marker2355"
       refX="0"
       refY="0"
       orient="auto"
       inkscape:stockid="Arrow1Lstart"
       inkscape:isstock="true">
      <path
         transform="matrix(0.8,0,0,0.8,10,0)"
         style="fill:#000000;fill-opacity:1;fill-rule:evenodd;stroke:#000000;stroke-width:1pt;stroke-opacity:1"
         d="M 0,0 5,-5 -12.5,0 5,5 Z"
         id="path2353" />
    </marker>
    <marker
       style="overflow:visible"
       id="Arrow1Lstart"
       refX="0"
       refY="0"
       orient="auto"
       inkscape:stockid="Arrow1Lstart"
       inkscape:isstock="true">
      <path
         transform="matrix(0.8,0,0,0.8,10,0)"
         style="fill:#000000;fill-opacity:1;fill-rule:evenodd;stroke:#000000;stroke-width:1pt;stroke-opacity:1"
         d="M 0,0 5,-5 -12.5,0 5,5 Z"
         id="path2071" />
    </marker>
  </defs>
  <sodipodi:namedview
     id="base"
     pagecolor="#ffffff"
     bordercolor="#666666"
     borderopacity="1.0"
     inkscape:pageopacity="0.0"
     inkscape:pageshadow="2"
     inkscape:zoom="1.503387"
     inkscape:cx="86.138832"
     inkscape:cy="167.28893"
     inkscape:document-units="mm"
     inkscape:current-layer="layer1"
     inkscape:document-rotation="0"
     showgrid="false"
     inkscape:snap-smooth-nodes="false"
     inkscape:object-nodes="false"
     inkscape:window-width="1366"
     inkscape:window-height="712"
     inkscape:window-x="0"
     inkscape:window-y="0"
     inkscape:window-maximized="1"
     inkscape:object-paths="false"
     inkscape:snap-intersection-paths="false"
     inkscape:snap-midpoints="false"
     inkscape:snap-others="false"
     inkscape:pagecheckerboard="0"
     showguides="true"
     inkscape:guide-bbox="true"
     inkscape:snap-bbox="true"
     showborder="false"
     fit-margin-top="0"
     fit-margin-left="0"
     fit-margin-right="0"
     fit-margin-bottom="0" />
  <metadata
     id="metadata5">
    <rdf:RDF>
      <cc:Work
         rdf:about="">
        <dc:format>image/svg+xml</dc:format>
        <dc:type
           rdf:resource="http://purl.org/dc/dcmitype/StillImage" />
      </cc:Work>
    </rdf:RDF>
  </metadata>
  <g
     inkscape:label="Layer 1"
     inkscape:groupmode="layer"
     id="layer1"
     transform="translate(570.07999,596.8999)">
    <path
       style="fill:#000000;stroke-width:0.0846667"
       id="path389"
       d="" />
    <path
       id="path6742-7-6-61"
       style="fill:#000000;fill-opacity:1;stroke:none;stroke-width:0.264999;stroke-miterlimit:4;stroke-dasharray:none;stroke-opacity:1"
       d="m -562.1699,-596.89945 0.004,5.3e-4 c -1.1203,9.8e-4 -2.13585,0.005 -2.77606,0.0124 l -2.32852,0.0258 -0.57774,0.2961 c -0.74232,0.37983 -1.68913,1.33262 -1.98284,1.99522 l -0.20773,0.46924 -0.01,4.57285 c -0.01,2.5151 -0.0142,5.35426 -0.0212,6.30917 -0.01,0.95488 -0.01,3.88914 -0.01,6.52052 0,2.63139 0.01,5.88921 0,7.23988 0,1.35067 -1.9e-4,6.68594 0.01,11.85561 0.01,5.16966 0.01,10.48583 0.01,11.81322 0,1.32741 -8e-5,4.87108 0.0129,7.87498 0.018,5.89954 0.019,6.5541 0.032,17.7519 0,4.10519 0.012,7.74898 0.014,8.09664 l 10e-4,0.63201 0.19378,0.36793 c 0.32679,0.62016 0.79772,1.1557 1.38182,1.572 0.99351,0.70773 1.03338,0.71374 4.92477,0.71469 1.32741,2.9e-4 3.09975,0.007 3.93827,0.0134 2.48909,0.0218 5.15815,0.0307 9.82316,0.031 2.42191,1.9e-4 4.97527,0.0104 5.67406,0.0233 0.69893,0.0129 3.15672,0.0254 5.46222,0.0284 2.3055,0.003 5.69762,0.0147 7.53753,0.0264 1.83994,0.0117 5.95609,0.0336 9.14673,0.0491 3.19061,0.0154 7.01997,0.0369 8.51058,0.0481 3.07438,0.023 3.48237,-0.001 3.99045,-0.2372 h 0.004 c 1.01219,-0.47016 2.15495,-1.68206 2.34561,-2.48771 0.0404,-0.171 0.0777,-2.38739 0.0817,-4.92578 0.0142,-8.09744 0.008,-17.79328 -0.014,-21.67879 -0.0116,-2.07235 -0.0228,-5.92053 -0.0258,-8.55194 -0.002,-2.63139 -0.008,-7.01387 -0.0124,-9.73842 -0.02,-13.76801 -0.0233,-26.62158 -0.01,-33.0977 l 0.01,-4.60283 -0.29353,-0.55761 c -0.52457,-0.99563 -1.77517,-2.04705 -2.61017,-2.19469 -0.44011,-0.0778 -2.1663,-0.0939 -12.87365,-0.11832 -1.25753,-0.003 -2.80085,-0.0116 -3.42974,-0.0186 -0.62891,-0.007 -2.38223,-0.0131 -3.89591,-0.0129 -2.81823,4e-4 -12.30344,-0.0289 -15.79385,-0.0486 -1.0713,-0.006 -3.5292,-0.0179 -5.46219,-0.0268 -1.93302,-0.009 -5.24873,-0.026 -7.36804,-0.0367 -1.05971,-0.005 -2.28518,-0.007 -3.40548,-0.006 z m -4.04936,0.50797 5.2e-4,5.3e-4 c 2.647,-0.0141 12.93948,0.0446 23.60888,0.13849 2.11971,0.0184 8.02341,0.0648 13.12273,0.10284 5.0991,0.038 11.67167,0.0878 14.60478,0.11213 l 5.19142,0.0419 0.42426,0.22738 c 0.5733,0.30676 1.35493,1.10075 1.5839,1.56424 l 0.18706,0.38034 0.0114,4.60592 c 0.009,3.78238 -0.002,12.616 -0.0197,20.70521 -0.0178,8.08921 -0.044,15.4941 -0.0615,16.23674 -0.0207,0.88426 -0.0393,7.87688 -0.0455,15.67759 -0.006,8.12715 -0.02,14.33266 -0.0408,18.55078 -0.0104,2.10908 -0.0233,3.72227 -0.0372,4.82815 -0.007,0.55292 -0.013,0.97914 -0.0207,1.27537 -0.004,0.14811 -0.009,0.26408 -0.0124,0.34364 -0.004,0.0796 -0.0173,0.15912 -0.003,0.0822 -0.0654,0.34512 -0.41899,0.9538 -0.9126,1.40147 -0.69162,0.62722 -1.19348,0.88093 -1.8061,0.97099 -0.22447,0.033 -0.72691,0.0666 -1.15083,0.0796 -0.21195,0.007 -0.40867,0.009 -0.5452,0.006 -0.06,-10e-4 -0.10112,-0.005 -0.1266,-0.007 -0.005,-0.002 -0.0155,-0.004 -0.0155,-0.004 -5.3e-4,-1.4e-4 -0.048,-0.0105 -0.0605,-0.0124 -0.0249,-0.004 -0.0347,-0.005 -0.0449,-0.006 -0.0206,-0.002 -0.0347,-0.001 -0.0507,-0.002 -0.0319,-0.002 -0.0696,-0.004 -0.11731,-0.005 -0.0954,-0.003 -0.23059,-0.006 -0.40254,-0.009 -0.34396,-0.006 -0.8351,-0.0117 -1.44126,-0.0181 -1.2123,-0.0127 -2.87817,-0.0255 -4.7067,-0.0362 -3.65498,-0.0216 -8.32528,-0.0541 -10.37302,-0.0713 -5.82636,-0.0488 -12.05629,-0.0927 -19.00708,-0.13229 -3.51563,-0.02 -9.19494,-0.0549 -12.61732,-0.078 l -6.09164,-0.0403 -0.4749,-0.22789 c -0.5453,-0.26201 -1.26915,-0.93972 -1.66036,-1.59628 l -0.21601,-0.36121 -0.0243,-17.41239 c -0.024,-16.53714 0.034,-44.23045 0.12351,-58.63775 l 0.0403,-6.30452 0.2677,-0.52916 c 0.4581,-0.90784 1.63349,-1.7616 2.32389,-1.83452 -0.04,0.004 0.045,-0.002 0.1483,-0.003 0.107,-9.8e-4 0.25781,-0.002 0.44752,-0.003 z m 0.13332,3.47525 c -0.23646,0.005 -0.39381,0.0137 -0.41495,0.0253 v 0.003 c -0.0435,0.0242 -0.0631,0.50517 -0.0455,1.11051 0.0172,0.58721 0.0249,1.3648 0.017,1.72754 l -0.0145,0.65889 0.88882,0.006 0.88987,0.006 0.0191,-0.87902 0.0191,-0.87953 0.52917,0.0114 c 0.29099,0.005 1.35766,0.004 2.37093,-0.004 1.01325,-0.01 1.8419,0.009 1.84124,0.0403 -6.9e-4,0.0311 -0.42236,0.49467 -0.93692,1.02992 -0.51459,0.5352 -1.07431,1.12215 -1.24383,1.30482 -1.15438,1.24354 -2.04012,2.1671 -2.13167,2.22311 -0.21574,0.13155 -0.0987,0.30874 0.54417,0.82166 l 0.65627,0.52348 0.20466,-0.21188 c 0.32141,-0.33268 0.80994,-0.5947 1.27124,-0.68365 0.82005,-0.1573 1.80316,0.36287 2.17247,1.14979 0.38378,0.81775 0.40523,1.89831 0.0537,2.6484 -0.58351,1.24521 -2.06536,1.89937 -3.3724,1.48829 -0.9098,-0.28618 -1.77956,-1.13739 -2.00401,-1.96059 l -0.10438,-0.38293 -0.90641,-0.0439 -0.90641,-0.0439 0.0501,0.40617 c 0.22175,1.79596 1.67736,3.3457 3.55378,3.78428 2.12302,0.4963 4.15343,-0.27496 5.10408,-1.93995 0.72075,-1.26217 0.82875,-3.37212 0.23669,-4.61418 -0.5393,-1.13141 -1.7295,-2.04615 -2.68925,-2.06705 -0.12083,-0.003 -0.21913,-0.0246 -0.2186,-0.0496 9.8e-4,-0.045 0.90525,-1.04252 2.29444,-2.53061 l 0.73639,-0.78857 0.0233,-0.92191 0.0227,-0.92191 -3.1967,-0.015 c -1.75813,-0.007 -3.74875,-0.0255 -4.42402,-0.03 -0.33758,-0.005 -0.65339,-0.005 -0.88987,0 z m 11.09236,12.65865 -0.007,2.85824 c -0.004,1.57186 -0.0124,3.94359 -0.0186,5.271 -0.006,1.32726 -0.0108,3.2706 -0.0108,4.31858 4.2e-4,1.04802 -0.0102,3.27719 -0.0228,4.95372 -0.0127,1.67653 -0.0168,3.62029 -0.009,4.31911 0.007,0.69882 0.002,2.68026 -0.0114,4.40335 -0.0137,1.72308 -0.0231,3.93314 -0.0207,4.91133 0.009,3.9878 0.007,5.39348 -0.0129,8.42584 -0.0113,1.74641 -0.0104,3.38569 0.003,3.64215 0.0129,0.25646 0.007,2.39379 -0.0124,4.75062 -0.0196,2.35683 -0.0276,4.37706 -0.0191,4.48861 0.009,0.11154 0.009,0.7512 0,1.42163 l -0.016,1.21904 3.36622,0.017 c 1.85126,0.009 4.26172,0.0186 5.35625,0.0202 2.20869,0.003 4.74877,0.0144 12.1512,0.0548 2.7478,0.0154 5.80647,0.0239 6.79752,0.0191 0.99107,-0.005 2.5795,0.009 3.53001,0.0315 0.95467,0.0226 1.75088,0.006 1.77819,-0.0357 0.0467,-0.0719 0.0648,-3.4073 0.0692,-12.58115 0.003,-6.95661 0.006,-8.06799 0.0217,-10.96626 0.009,-1.56015 0.0212,-4.70395 0.0274,-6.98614 0.006,-2.28216 0.0177,-5.40687 0.0258,-6.94375 0.009,-1.53689 0.0121,-3.48012 0.009,-4.31861 -0.004,-0.83852 0.003,-3.08668 0.0139,-4.99607 0.0116,-1.9094 0.0198,-4.52025 0.0191,-5.80121 l -0.001,-2.32851 -0.72089,-0.016 c -1.49897,-0.0326 -9.72227,-0.0761 -10.3301,-0.0558 -0.34962,0.0123 -2.36977,0.005 -4.48863,-0.0155 -2.11883,-0.0203 -4.34798,-0.029 -4.95369,-0.0202 -0.60571,0.009 -2.98756,-5.1e-4 -5.29269,-0.0217 -2.30519,-0.0198 -4.38161,-0.03 -4.61471,-0.0196 -0.23312,0.01 -0.91477,0.012 -1.51466,-10e-4 v 0.005 z m 0.41495,0.3483 1.59938,0.0248 c 0.87958,0.0132 1.77051,0.0197 1.98025,0.0134 0.20973,-0.006 2.43893,0.004 4.95371,0.0238 2.51476,0.0198 4.59163,0.0249 4.61521,0.0124 0.0236,-0.0135 2.32868,6.1e-4 5.1227,0.0305 2.794,0.0298 5.13715,0.0423 5.20742,0.0269 0.0702,-0.0155 2.05717,-0.0124 4.41524,0.008 l 4.2876,0.0357 0.0103,1.89341 c 0.005,1.04117 0.005,3.01702 0,4.39095 -0.005,1.37401 -0.008,3.22167 -0.005,4.10673 0.003,0.88495 -0.006,3.05745 -0.0207,4.82708 -0.0142,1.76967 -0.0232,3.96066 -0.0212,4.86897 0.003,0.90832 8e-5,2.73751 -0.005,4.06488 -0.021,5.52503 -0.0284,7.21082 -0.045,9.9074 -0.01,1.56014 -0.009,3.23707 0.003,3.72639 0.0111,0.48929 0.008,2.39488 -0.007,4.23437 -0.0154,1.83948 -0.019,3.74504 -0.008,4.23436 0.0111,0.48929 0.0104,2.47549 -0.003,4.41471 l -0.0238,3.52589 -1.30175,0.0222 c -0.71586,0.0121 -2.82583,0.009 -4.6886,-0.007 -1.86275,-0.0162 -4.24416,-0.0287 -5.29217,-0.0279 -1.87836,10e-4 -8.94525,-0.0322 -14.64924,-0.0687 -1.60671,-0.0101 -3.67022,-0.0121 -4.58526,-0.004 l -1.66346,0.0145 -0.0243,-1.1317 c -0.0132,-0.62246 -0.0113,-4.42822 0.004,-8.45685 0.0157,-4.02862 0.023,-7.87694 0.016,-8.55244 -0.007,-0.67554 -10e-4,-2.67661 0.0119,-4.44625 0.0136,-1.76966 0.019,-3.77023 0.0119,-4.44574 -0.007,-0.67556 0.003,-2.94288 0.0238,-5.03843 0.0201,-2.09558 0.0233,-3.98156 0.008,-4.19148 -0.0156,-0.20995 -0.0128,-2.15365 0.006,-4.31911 0.0187,-2.16519 0.0264,-4.20333 0.0176,-4.52996 v -5.3e-4 c -0.009,-0.32652 -10e-4,-2.52693 0.0165,-4.89013 z m 16.12461,3.23029 c -0.0252,-8.4e-4 -0.15714,0.2153 -0.293,0.48009 -0.73792,1.43838 -1.94569,3.13804 -2.79882,3.93774 -0.26543,0.24879 -0.48291,0.46188 -0.48315,0.47387 -2.7e-4,0.0117 0.29538,0.3261 0.6573,0.69866 0.77169,0.79423 1.69003,2.0942 2.35852,3.33933 0.26186,0.48779 0.50335,0.88919 0.53692,0.89091 0.0336,0.002 0.16857,-0.21305 0.29972,-0.478 0.63588,-1.28466 1.82462,-2.95246 2.73574,-3.83852 l 0.53486,-0.52091 -0.78031,-0.85784 c -0.7865,-0.86402 -1.80988,-2.35627 -2.40192,-3.50313 -0.17616,-0.34123 -0.3407,-0.62124 -0.36586,-0.6222 z m -23.50813,0.84183 c -0.0725,0.0128 -0.2681,0.33073 -0.63873,1.02526 -0.66817,1.25214 -1.69264,2.829 -2.34558,3.61114 -0.8799,1.05389 -1.04087,1.23502 -1.57768,1.77096 l -0.53176,0.5302 0.62425,0.61804 c 1.28765,1.27645 2.7839,3.3914 3.82921,5.41052 0.26205,0.50617 0.50104,0.92022 0.53073,0.92035 0.0297,1.3e-4 0.32234,-0.49848 0.65008,-1.10792 1.08593,-2.01924 2.33627,-3.76637 3.63802,-5.08291 l 0.70178,-0.71003 -0.76895,-0.80873 c -1.13943,-1.19909 -1.85637,-2.13947 -2.74971,-3.60548 -0.56796,-0.9321 -1.33133,-2.35973 -1.32858,-2.48512 9.8e-4,-0.0609 -0.009,-0.0905 -0.0331,-0.0863 z m 23.45436,18.21386 c -0.0338,5.3e-4 -0.15459,0.17836 -0.26818,0.39585 -0.7947,1.52172 -1.98813,3.21767 -2.83136,4.02248 -0.21465,0.20495 -0.39547,0.41349 -0.40256,0.46355 -0.006,0.05 0.1936,0.29012 0.44598,0.53383 0.83304,0.80428 2.13151,2.68544 2.75693,3.99407 0.10623,0.22227 0.23146,0.40624 0.27803,0.40822 0.0466,0.002 0.1556,-0.15981 0.24286,-0.35965 0.48334,-1.10638 1.83097,-3.05355 2.73008,-3.94446 l 0.55758,-0.55192 -0.76481,-0.87281 c -0.42053,-0.48006 -0.9145,-1.08598 -1.09759,-1.34617 -0.33057,-0.46969 -1.19134,-1.93297 -1.45058,-2.466 -0.0744,-0.153 -0.16264,-0.27725 -0.19638,-0.27699 z m 23.54948,14.14539 c -0.0351,-7.6e-4 -0.18894,0.2517 -0.3421,0.56121 -0.94549,1.9109 -2.8184,4.55592 -4.02971,5.69164 -0.31729,0.2975 -0.58243,0.58634 -0.58963,0.6413 -0.007,0.0549 0.15312,0.24225 0.35655,0.41653 0.47189,0.40415 1.74408,1.92138 2.45515,2.92798 0.54049,0.7651 1.28905,2.03666 1.74461,2.96363 0.12721,0.25897 0.26498,0.51879 0.30591,0.57724 0.0515,0.0735 0.22405,-0.17103 0.56068,-0.79272 1.16009,-2.14201 2.37551,-3.85376 3.70263,-5.2162 l 0.79272,-0.81392 -0.86818,-0.92397 c -1.27452,-1.35703 -2.82495,-3.61437 -3.71707,-5.41155 -0.16926,-0.34097 -0.33645,-0.62042 -0.37156,-0.62117 z m -23.59908,4.83331 c -0.0165,0.0161 -0.23633,0.40579 -0.48835,0.86608 -0.86233,1.5752 -2.26523,3.47097 -2.82979,3.82355 -0.12018,0.075 -0.21905,0.1579 -0.21961,0.18449 -5.8e-4,0.0266 0.34579,0.433 0.76997,0.90279 0.7839,0.8681 1.49116,1.89883 2.28099,3.3228 0.24112,0.43471 0.46366,0.79211 0.49403,0.79375 0.0303,0.002 0.0941,-0.10108 0.14211,-0.22945 0.14661,-0.3928 1.14951,-2.02351 1.75287,-2.84996 0.31398,-0.43 0.82341,-1.03741 1.13223,-1.35083 0.30885,-0.3134 0.52618,-0.57113 0.48318,-0.57206 -0.11422,-0.003 -0.82799,-0.73922 -1.34152,-1.3844 -0.57068,-0.71694 -1.50582,-2.19506 -1.86605,-2.94968 -0.15396,-0.32253 -0.2935,-0.57314 -0.31006,-0.55708 z m 23.34172,12.09537 c -0.27466,7.7e-4 -0.55314,0.0219 -0.83301,0.0641 -1.69413,0.25575 -3.03538,1.51781 -3.45043,3.24737 -0.0705,0.29339 -0.13722,0.83791 -0.14833,1.21025 -0.0635,2.12405 1.08466,3.84392 2.7921,4.1832 0.45193,0.0898 0.49061,0.11406 0.38396,0.23617 -0.80351,0.91995 -2.15329,2.40432 -2.27015,2.497 -0.0824,0.0653 -0.26408,0.278 -0.40413,0.47233 -0.23997,0.33293 -0.25585,0.40228 -0.27336,1.20561 l -0.0186,0.85317 2.64636,0.0134 c 1.45539,0.008 3.06549,0.005 3.57806,-0.006 0.51258,-0.0104 1.34337,-0.0102 1.84693,0 l 0.91622,0.0186 -0.031,-0.52967 c -0.0166,-0.29149 -0.0209,-1.07286 -0.01,-1.73632 l 0.0201,-1.20666 -0.88881,-0.0196 -0.88834,-0.0191 -0.0196,0.88884 -0.0196,0.88884 -1.46037,-0.0181 c -0.80325,-0.0106 -1.85148,-0.0181 -2.32908,-0.017 -0.47762,9.8e-4 -0.88344,-0.0243 -0.90225,-0.0563 -0.0187,-0.0319 0.2259,-0.32083 0.54364,-0.64182 0.83984,-0.84847 3.77954,-3.99953 3.80957,-4.08348 0.014,-0.0393 -0.27111,-0.30977 -0.63407,-0.60047 l -0.6599,-0.52813 -0.27905,0.27543 c -0.64016,0.63232 -1.6179,0.7857 -2.40864,0.37724 -0.87661,-0.45283 -1.24571,-1.19687 -1.21544,-2.44946 0.0149,-0.6032 0.0564,-0.7955 0.2553,-1.19063 0.31136,-0.61841 0.92704,-1.16342 1.57146,-1.39062 0.68646,-0.24201 1.5866,-0.18026 2.19472,0.14986 0.82505,0.44789 1.48114,1.22677 1.60404,1.90479 l 0.0485,0.26924 0.8351,0.0429 c 0.45935,0.0236 0.86503,0.0131 0.90123,-0.0227 0.12689,-0.12578 -0.0829,-1.00634 -0.40513,-1.70119 -0.73922,-1.59382 -2.47613,-2.58448 -4.3987,-2.58072 z" />
  </g>
</svg>
