<?xml version="1.0" encoding="UTF-8" standalone="no"?>
<svg
   sodipodi:docname="4D.svg"
   id="svg8"
   version="1.1"
   viewBox="0 0 63.102303 88.347862"
   height="88.347862mm"
   width="63.102303mm"
   inkscape:version="1.1.1 (1:1.1+202109281949+c3084ef5ed)"
   inkscape:export-filename="/home/doug/k40/52Cards/4D.png"
   inkscape:export-xdpi="96"
   inkscape:export-ydpi="96"
   xmlns:inkscape="http://www.inkscape.org/namespaces/inkscape"
   xmlns:sodipodi="http://sodipodi.sourceforge.net/DTD/sodipodi-0.dtd"
   xmlns="http://www.w3.org/2000/svg"
   xmlns:svg="http://www.w3.org/2000/svg"
   xmlns:rdf="http://www.w3.org/1999/02/22-rdf-syntax-ns#"
   xmlns:cc="http://creativecommons.org/ns#"
   xmlns:dc="http://purl.org/dc/elements/1.1/">
  <defs
     id="defs2">
    <marker
       style="overflow:visible"
       id="marker2995"
       refX="0"
       refY="0"
       orient="auto"
       inkscape:stockid="Arrow1Lstart"
       inkscape:isstock="true">
      <path
         transform="matrix(0.8,0,0,0.8,10,0)"
         style="fill:#000000;fill-opacity:1;fill-rule:evenodd;stroke:#000000;stroke-width:1pt;stroke-opacity:1"
         d="M 0,0 5,-5 -12.5,0 5,5 Z"
         id="path2993" />
    </marker>
    <marker
       style="overflow:visible"
       id="marker2985"
       refX="0"
       refY="0"
       orient="auto"
       inkscape:stockid="Arrow1Lstart"
       inkscape:isstock="true">
      <path
         transform="matrix(0.8,0,0,0.8,10,0)"
         style="fill:#000000;fill-opacity:1;fill-rule:evenodd;stroke:#000000;stroke-width:1pt;stroke-opacity:1"
         d="M 0,0 5,-5 -12.5,0 5,5 Z"
         id="path2983" />
    </marker>
    <marker
       style="overflow:visible"
       id="marker2791"
       refX="0"
       refY="0"
       orient="auto"
       inkscape:stockid="Arrow1Lstart"
       inkscape:isstock="true">
      <path
         transform="matrix(0.8,0,0,0.8,10,0)"
         style="fill:#000000;fill-opacity:1;fill-rule:evenodd;stroke:#000000;stroke-width:1pt;stroke-opacity:1"
         d="M 0,0 5,-5 -12.5,0 5,5 Z"
         id="path2789" />
    </marker>
    <marker
       style="overflow:visible"
       id="marker2781"
       refX="0"
       refY="0"
       orient="auto"
       inkscape:stockid="Arrow1Lstart"
       inkscape:isstock="true">
      <path
         transform="matrix(0.8,0,0,0.8,10,0)"
         style="fill:#000000;fill-opacity:1;fill-rule:evenodd;stroke:#000000;stroke-width:1pt;stroke-opacity:1"
         d="M 0,0 5,-5 -12.5,0 5,5 Z"
         id="path2779" />
    </marker>
    <marker
       style="overflow:visible"
       id="marker2417"
       refX="0"
       refY="0"
       orient="auto"
       inkscape:stockid="Arrow1Lstart"
       inkscape:isstock="true">
      <path
         transform="matrix(0.8,0,0,0.8,10,0)"
         style="fill:#000000;fill-opacity:1;fill-rule:evenodd;stroke:#000000;stroke-width:1pt;stroke-opacity:1"
         d="M 0,0 5,-5 -12.5,0 5,5 Z"
         id="path2415" />
    </marker>
    <marker
       style="overflow:visible"
       id="marker2383"
       refX="0"
       refY="0"
       orient="auto"
       inkscape:stockid="Arrow1Lstart"
       inkscape:isstock="true">
      <path
         transform="matrix(0.8,0,0,0.8,10,0)"
         style="fill:#000000;fill-opacity:1;fill-rule:evenodd;stroke:#000000;stroke-width:1pt;stroke-opacity:1"
         d="M 0,0 5,-5 -12.5,0 5,5 Z"
         id="path2381" />
    </marker>
    <marker
       style="overflow:visible"
       id="marker2355"
       refX="0"
       refY="0"
       orient="auto"
       inkscape:stockid="Arrow1Lstart"
       inkscape:isstock="true">
      <path
         transform="matrix(0.8,0,0,0.8,10,0)"
         style="fill:#000000;fill-opacity:1;fill-rule:evenodd;stroke:#000000;stroke-width:1pt;stroke-opacity:1"
         d="M 0,0 5,-5 -12.5,0 5,5 Z"
         id="path2353" />
    </marker>
    <marker
       style="overflow:visible"
       id="Arrow1Lstart"
       refX="0"
       refY="0"
       orient="auto"
       inkscape:stockid="Arrow1Lstart"
       inkscape:isstock="true">
      <path
         transform="matrix(0.8,0,0,0.8,10,0)"
         style="fill:#000000;fill-opacity:1;fill-rule:evenodd;stroke:#000000;stroke-width:1pt;stroke-opacity:1"
         d="M 0,0 5,-5 -12.5,0 5,5 Z"
         id="path2071" />
    </marker>
  </defs>
  <sodipodi:namedview
     id="base"
     pagecolor="#ffffff"
     bordercolor="#666666"
     borderopacity="1.0"
     inkscape:pageopacity="0.0"
     inkscape:pageshadow="2"
     inkscape:zoom="1.5033848"
     inkscape:cx="86.138958"
     inkscape:cy="166.62401"
     inkscape:document-units="mm"
     inkscape:current-layer="layer1"
     inkscape:document-rotation="0"
     showgrid="false"
     inkscape:snap-smooth-nodes="false"
     inkscape:object-nodes="false"
     inkscape:window-width="1366"
     inkscape:window-height="712"
     inkscape:window-x="0"
     inkscape:window-y="0"
     inkscape:window-maximized="1"
     inkscape:object-paths="false"
     inkscape:snap-intersection-paths="false"
     inkscape:snap-midpoints="false"
     inkscape:snap-others="false"
     inkscape:pagecheckerboard="0"
     showguides="true"
     inkscape:guide-bbox="true"
     inkscape:snap-bbox="true"
     showborder="false"
     fit-margin-top="0"
     fit-margin-left="0"
     fit-margin-right="0"
     fit-margin-bottom="0" />
  <metadata
     id="metadata5">
    <rdf:RDF>
      <cc:Work
         rdf:about="">
        <dc:format>image/svg+xml</dc:format>
        <dc:type
           rdf:resource="http://purl.org/dc/dcmitype/StillImage" />
      </cc:Work>
    </rdf:RDF>
  </metadata>
  <g
     inkscape:label="Layer 1"
     inkscape:groupmode="layer"
     id="layer1"
     transform="translate(487.97606,596.89997)">
    <path
       style="fill:#000000;stroke-width:0.0846667"
       id="path389"
       d="" />
    <path
       id="path11625"
       style="fill:#000000;stroke:none;stroke-width:0.0846667"
       d="m -480.06584,-596.89979 0.004,5.3e-4 c -1.1203,9.7e-4 -2.13588,0.005 -2.77606,0.0124 l -2.32855,0.0258 -0.57774,0.29612 c -0.74229,0.37983 -1.68913,1.3326 -1.98282,1.99522 l -0.20775,0.46921 -0.0103,4.57285 c -0.01,2.5151 -0.0136,5.35429 -0.0207,6.30918 -0.01,0.9549 -0.0103,3.88913 -0.0103,6.52055 0,2.63136 0.01,5.88917 0,7.23984 0,1.35067 3.1e-4,6.68597 0.0103,11.85561 0.01,5.16967 0.01,10.48584 0.01,11.81325 0,1.32741 -8e-5,4.87108 0.0129,7.87495 0.018,5.89955 0.019,6.5541 0.032,17.7519 0,4.1052 0.0119,7.74899 0.0139,8.09668 l 10e-4,0.63198 0.19378,0.36796 c 0.32681,0.62013 0.79771,1.15567 1.38184,1.57199 0.99348,0.70771 1.03335,0.71372 4.92476,0.71467 1.32739,3.2e-4 3.09976,0.007 3.93825,0.014 2.48909,0.0218 5.15818,0.0307 9.82318,0.031 2.42189,1.8e-4 4.97528,0.0104 5.67407,0.0232 0.6989,0.0129 3.15669,0.0254 5.46219,0.0284 2.3055,0.003 5.69762,0.0147 7.53753,0.0263 1.83994,0.0117 5.95609,0.0336 9.14673,0.0491 3.19063,0.0154 7.01997,0.0369 8.51058,0.0481 3.07438,0.023 3.4824,-10e-4 3.99048,-0.2372 h 0.004 c 1.01217,-0.47017 2.15493,-1.68206 2.34559,-2.48772 0.0404,-0.171 0.0777,-2.38739 0.0816,-4.9258 0.0142,-8.09741 0.008,-17.79326 -0.0139,-21.67877 -0.0116,-2.07235 -0.0228,-5.92053 -0.0258,-8.55194 -0.002,-2.63141 -0.008,-7.01387 -0.0124,-9.73841 -0.02,-13.76802 -0.0233,-26.62158 -0.01,-33.09774 l 0.01,-4.60279 -0.29351,-0.55761 c -0.52456,-0.99563 -1.77519,-2.04706 -2.61019,-2.1947 -0.44011,-0.0778 -2.16628,-0.0939 -12.87362,-0.11834 -1.25756,-0.003 -2.80088,-0.0116 -3.42977,-0.0186 -0.62888,-0.007 -2.3822,-0.0131 -3.89588,-0.0129 -2.81824,4e-4 -12.30347,-0.0289 -15.79388,-0.0486 -1.0713,-0.006 -3.5292,-0.0179 -5.46219,-0.0269 -1.93299,-0.009 -5.24872,-0.026 -7.36804,-0.0367 -1.05968,-0.005 -2.28518,-0.007 -3.40548,-0.006 z m -4.04987,0.5085 5.3e-4,5.3e-4 c 2.647,-0.0141 12.93948,0.0446 23.60888,0.13848 2.11971,0.0184 8.02341,0.0648 13.12272,0.10284 5.09911,0.038 11.67167,0.0878 14.60479,0.11213 l 5.19142,0.0419 0.42426,0.22738 c 0.5733,0.30676 1.35493,1.10075 1.58387,1.56425 l 0.18709,0.38034 0.0113,4.60592 c 0.009,3.78237 -0.002,12.61599 -0.0196,20.7052 -0.0178,8.08921 -0.044,15.49411 -0.0615,16.23671 -0.0207,0.88429 -0.0393,7.87691 -0.0455,15.67762 -0.006,8.12716 -0.02,14.33267 -0.0408,18.55079 -0.0104,2.10907 -0.0233,3.72226 -0.0372,4.82814 -0.007,0.55293 -0.013,0.97915 -0.0207,1.27537 -0.004,0.14812 -0.009,0.26408 -0.0124,0.34364 -0.004,0.0796 -0.0173,0.15912 -0.003,0.0822 -0.0654,0.34513 -0.41902,0.9538 -0.9126,1.40145 -0.69162,0.62725 -1.19348,0.88095 -1.8061,0.97102 -0.22447,0.033 -0.72691,0.0666 -1.15083,0.0796 -0.21196,0.007 -0.4087,0.009 -0.5452,0.006 -0.06,-9.8e-4 -0.10112,-0.005 -0.1266,-0.007 -0.005,-0.002 -0.0155,-0.004 -0.0155,-0.004 -5.3e-4,-1.3e-4 -0.0479,-0.0105 -0.0605,-0.0124 -0.0249,-0.004 -0.0347,-0.005 -0.045,-0.006 -0.0206,-0.002 -0.0347,-5.6e-4 -0.0506,-0.002 -0.0319,-0.002 -0.0696,-0.004 -0.11731,-0.005 -0.0954,-0.003 -0.23059,-0.006 -0.40257,-0.009 -0.34393,-0.006 -0.83508,-0.0117 -1.44124,-0.0181 -1.21229,-0.0127 -2.87816,-0.0255 -4.7067,-0.0362 -3.65498,-0.0216 -8.32527,-0.0541 -10.37301,-0.0713 -5.82636,-0.0488 -12.0563,-0.0927 -19.00711,-0.13229 -3.5156,-0.02 -9.19491,-0.0549 -12.61732,-0.078 l -6.09161,-0.0403 -0.4749,-0.22788 c -0.5453,-0.26205 -1.26918,-0.93972 -1.66036,-1.59629 l -0.21601,-0.36123 -0.0238,-17.41237 c -0.024,-16.53717 0.034,-44.22994 0.12351,-58.63724 l 0.0398,-6.30505 0.26768,-0.52917 c 0.4581,-0.90784 1.63351,-1.76157 2.32389,-1.83451 -0.04,0.004 0.045,-0.002 0.14833,-0.003 0.10699,-9.7e-4 0.25781,-0.002 0.44751,-0.003 z m 7.46157,3.62667 -0.92967,0.017 c -0.79216,0.012 -0.9449,0.0367 -1.03766,0.16692 -0.0599,0.084 -0.42516,0.53711 -0.81183,1.00561 -0.38666,0.46852 -1.6202,1.96326 -2.74092,3.32176 -1.12072,1.3585 -2.2198,2.68052 -2.44274,2.93833 l -0.40516,0.46818 0.0284,0.88625 0.0279,0.88627 h 3.175 c 1.74631,0 3.21305,0.016 3.25975,0.032 0.0783,0.026 0.0958,0.52713 0.0698,1.97612 l -0.01,0.52967 h -0.67696 -0.67749 l 0.006,0.88987 0.006,0.8904 2.30063,-0.0388 2.30113,-0.0393 -5e-4,-0.84696 v -0.84645 l -0.69866,-0.0197 -0.69869,-0.0201 -0.009,-1.26298 -0.009,-1.26297 0.69816,-0.03 0.69866,-0.03 -0.006,-0.84696 -0.006,-0.84648 -0.67747,-0.01 -0.67696,-0.0103 -0.0284,-3.95844 z m -1.87587,3.01633 c 0.049,-0.018 0.0781,0.91405 0.0749,2.41226 l -0.005,2.4417 -2.09547,0.0383 v -5.3e-4 c -1.15242,0.021 -2.09309,0.0101 -2.09135,-0.0268 0.005,-0.087 4.01622,-4.82814 4.11705,-4.86484 z m 38.60644,9.43716 -4.51911,0.0232 c -2.48555,0.015 -4.88122,0.015 -5.32371,0 -0.44251,-0.015 -5.86245,-0.013 -12.04423,0 l -11.2396,0.0388 0.0305,5.74075 c 0.0168,3.15738 0.0258,6.3314 0.0202,7.05331 -0.006,0.72179 0.0144,8.7225 0.0449,17.77979 0.0306,9.05719 0.0508,16.47272 0.0439,16.4827 -0.007,0.01 -0.013,1.78932 -0.0145,3.95843 l -0.003,3.94343 2.27428,-0.01 c 1.25108,0 2.44705,-8e-5 2.65668,0.0129 0.20966,0.012 6.63888,-2e-5 14.2875,-0.016 l 13.90613,-0.0367 -0.0186,-2.78331 c -0.0478,-6.886 -0.006,-16.25188 0.0723,-16.35247 0.0574,-0.073 0.0493,-0.10594 -0.0243,-0.10544 -0.10919,8e-4 -0.12102,-2.336 -0.14261,-27.45308 z m -0.73898,0.37258 0.25426,0.01 0.0506,7.70445 c 0.0543,8.35711 0.17048,42.07579 0.14883,43.17979 -0.007,0.37269 -0.0148,1.27807 -0.0165,2.01176 l -0.003,1.33429 -8.31834,0.015 c -4.57522,0.01 -9.95751,0.011 -11.95998,0 -2.00248,-0.01 -5.52003,-4.8e-4 -7.81709,0.016 l -10e-4,-0.0103 -4.17647,0.03 -0.0212,-6.22546 c -0.0119,-3.424 -0.0144,-6.23398 -0.006,-6.24407 0.008,-0.01 -0.008,-6.64792 -0.0362,-14.75052 -0.0282,-8.1026 -0.0434,-16.33241 -0.0336,-18.28829 0.01,-1.9559 0.008,-4.73313 -0.004,-6.17172 l -0.0233,-2.60295 3.57809,0.0284 c 1.9676,0.015 9.10212,0.0127 15.85431,-0.0103 6.75222,-0.019 12.39081,-0.0248 12.53051,-0.0258 z m -5.47823,3.16312 c -0.0132,-0.014 -0.15991,0.24268 -0.32607,0.56947 -0.29916,0.5884 -1.28212,2.22157 -1.38647,2.30425 -0.0298,0.024 -0.22897,0.27247 -0.44183,0.55346 -0.21288,0.28091 -0.61647,0.74009 -0.89762,1.01957 l -0.51107,0.5085 0.24442,0.2553 c 1.1657,1.21608 1.91154,2.22477 2.71767,3.67728 l 0.61442,1.10795 0.20775,-0.41498 c 0.67566,-1.3499 1.67759,-2.82188 2.60966,-3.83439 l 0.72088,-0.78288 -0.59221,-0.61497 c -0.90504,-0.93879 -1.81615,-2.22946 -2.57659,-3.65143 -0.19765,-0.36963 -0.36963,-0.68324 -0.38294,-0.69713 z m -20.61887,0.0501 c -0.0233,0 -0.15377,0.21665 -0.29043,0.48525 -0.76438,1.5027 -1.60899,2.74384 -2.59157,3.80754 -0.34644,0.37499 -0.63167,0.69347 -0.63354,0.70847 -0.002,0.015 0.1094,0.12065 0.24802,0.23564 0.45262,0.37531 2.13852,2.49312 2.13992,2.68822 1.6e-4,0.02 0.14724,0.27276 0.32713,0.56327 0.17989,0.2906 0.4209,0.72621 0.53589,0.9679 0.11499,0.2417 0.23677,0.44307 0.27077,0.44286 0.034,0 0.14243,-0.15941 0.24083,-0.35811 0.72122,-1.45571 2.08094,-3.39744 2.94296,-4.20285 l 0.37774,-0.35346 -0.58962,-0.6191 c -0.8894,-0.9339 -2.10773,-2.69378 -2.72076,-3.92999 -0.11814,-0.23828 -0.23406,-0.43582 -0.25734,-0.43564 z m -13.31185,1.078 c -0.0751,0.01 -0.18441,0.20724 -0.45527,0.72294 -1.01724,1.9363 -2.3795,3.87948 -3.69435,5.27048 -0.46535,0.49239 -0.84769,0.91014 -0.84957,0.92914 -0.002,0.019 0.19772,0.2268 0.44391,0.46251 1.39854,1.33919 2.99281,3.5469 4.1279,5.7154 0.21251,0.406 0.40196,0.73763 0.42066,0.73742 0.0187,-8e-5 0.24911,-0.41114 0.51263,-0.91363 1.00211,-1.91109 2.24838,-3.6834 3.58013,-5.0922 l 0.894,-0.94567 -0.34829,-0.32867 c -0.75372,-0.71228 -2.15797,-2.40289 -2.67581,-3.22098 -0.0471,-0.074 -0.18519,-0.28779 -0.30695,-0.47387 -0.2926,-0.44731 -1.38668,-2.38043 -1.52342,-2.69185 -0.0481,-0.10948 -0.0805,-0.17494 -0.12557,-0.17102 z m 47.33094,31.94894 c -0.0282,2.1e-4 -0.11736,0.14364 -0.1979,0.31885 -0.44813,0.9752 -1.52308,2.77579 -2.28979,3.83489 -0.59385,0.82032 -0.75623,1.01079 -1.67743,1.972 -0.4269,0.44547 -0.77621,0.82325 -0.77668,0.84023 -5.1e-4,0.016 0.27151,0.30068 0.60512,0.63098 0.80862,0.80082 1.72464,1.92815 2.40192,2.95796 0.53475,0.8132 1.58686,2.62112 1.8035,3.09851 0.0579,0.12761 0.14338,0.22717 0.19019,0.22688 0.0468,0 0.21714,-0.27609 0.37774,-0.60669 0.16063,-0.33049 0.47541,-0.91159 0.69972,-1.2914 0.22429,-0.3796 0.45024,-0.767 0.50228,-0.8604 0.45903,-0.82471 1.71249,-2.44015 2.61483,-3.37034 0.39055,-0.40259 0.70929,-0.76626 0.70847,-0.80926 -7.9e-4,-0.043 -0.25437,-0.32324 -0.56327,-0.62373 -1.33268,-1.29629 -3.00786,-3.67884 -4.10154,-5.83377 -0.13542,-0.26678 -0.26895,-0.4849 -0.29716,-0.48471 z m -13.33301,5.00745 c -0.0267,7.9e-4 -0.12256,0.16311 -0.21291,0.36121 -0.60238,1.31961 -1.94517,3.27215 -2.79466,4.06437 -0.27549,0.25688 -0.50517,0.47953 -0.51007,0.49453 -0.005,0.015 0.2853,0.34496 0.64493,0.73226 0.87341,0.94049 1.59186,1.94673 2.29237,3.20961 0.3184,0.57401 0.60365,1.04272 0.63355,1.04232 0.0299,-3.9e-4 0.19711,-0.28458 0.37208,-0.63148 0.32798,-0.6504 1.17269,-1.98442 1.65933,-2.62104 0.15203,-0.19889 0.5583,-0.65852 0.90226,-1.02113 l 0.62476,-0.65937 -0.67696,-0.69453 c -0.74454,-0.76462 -1.81838,-2.28658 -2.46806,-3.49798 -0.23014,-0.42902 -0.43992,-0.77946 -0.46662,-0.77877 z m -20.59617,0.063 c -0.0319,0 -0.16844,0.21963 -0.30282,0.48834 -0.7231,1.446 -1.6012,2.72306 -2.59053,3.76566 v 5.2e-4 c -0.33367,0.35158 -0.60839,0.65268 -0.60929,0.66869 -0.001,0.016 0.24818,0.29617 0.55399,0.62166 0.3058,0.3257 0.7611,0.86164 1.01129,1.19115 0.52737,0.69401 1.63875,2.49526 1.7875,2.89645 0.12411,0.33451 0.17952,0.34121 0.31366,0.0398 0.47247,-1.06309 1.82354,-3.05382 2.70579,-3.98682 0.35946,-0.3801 0.65341,-0.71784 0.6532,-0.74983 -2.6e-4,-0.032 -0.12964,-0.17994 -0.28734,-0.32763 -0.8333,-0.78121 -2.1028,-2.53995 -2.79722,-3.87572 -0.20921,-0.4023 -0.40632,-0.73194 -0.43823,-0.73176 z m 33.71577,11.85301 -2.28153,0.0165 -2.28203,0.0279 -0.0227,0.40257 -5e-4,-5.3e-4 c -0.0126,0.2214 -0.0164,0.61206 -0.008,0.86818 l 0.015,0.46558 0.6873,0.0202 0.68731,0.0196 0.009,1.26296 0.009,1.26299 -0.69815,0.03 -0.69866,0.0299 -0.0134,0.67803 c -0.0212,1.09148 -0.0442,1.05844 0.75036,1.05264 h 0.67849 l 0.0191,3.95788 0.0196,3.95843 0.88678,0.017 0.88625,0.0181 1.62108,-1.98334 c 0.89164,-1.09069 2.17048,-2.65001 2.8417,-3.4649 0.67119,-0.8151 1.40107,-1.70604 1.62211,-1.97972 l 0.40206,-0.49713 0.0119,-0.8904 0.0124,-0.88985 -1.10123,-0.01 c -0.60576,0 -1.15839,-0.0122 -1.22835,-0.0212 -0.0699,-0.01 -1.05148,-0.012 -2.18075,-0.014 h -2.05311 l -0.009,-1.27019 -0.009,-1.26971 0.71932,-0.01 0.71985,-0.01 -0.006,-0.88935 z m 0.74517,6.1004 c 1.01013,0 2.00727,0.0307 2.00764,0.0827 3.7e-4,0.052 -0.38526,0.55949 -0.85731,1.1276 -2.05308,2.47089 -2.64467,3.1751 -2.93886,3.49951 l -0.31263,0.3447 -0.0196,-2.4624 c -0.011,-1.35429 0.005,-2.48793 0.0362,-2.51923 0.0515,-0.052 1.0745,-0.0758 2.08462,-0.0729 z" />
  </g>
</svg>
