<?xml version="1.0" encoding="UTF-8" standalone="no"?>
<svg
   sodipodi:docname="6C.svg"
   id="svg8"
   version="1.1"
   viewBox="0 0 63.102291 88.347832"
   height="88.347832mm"
   width="63.102291mm"
   inkscape:version="1.1.1 (1:1.1+202109281949+c3084ef5ed)"
   inkscape:export-filename="/home/doug/k40/52Cards/6C.png"
   inkscape:export-xdpi="96"
   inkscape:export-ydpi="96"
   xmlns:inkscape="http://www.inkscape.org/namespaces/inkscape"
   xmlns:sodipodi="http://sodipodi.sourceforge.net/DTD/sodipodi-0.dtd"
   xmlns="http://www.w3.org/2000/svg"
   xmlns:svg="http://www.w3.org/2000/svg"
   xmlns:rdf="http://www.w3.org/1999/02/22-rdf-syntax-ns#"
   xmlns:cc="http://creativecommons.org/ns#"
   xmlns:dc="http://purl.org/dc/elements/1.1/">
  <defs
     id="defs2">
    <marker
       style="overflow:visible"
       id="marker2995"
       refX="0"
       refY="0"
       orient="auto"
       inkscape:stockid="Arrow1Lstart"
       inkscape:isstock="true">
      <path
         transform="matrix(0.8,0,0,0.8,10,0)"
         style="fill:#000000;fill-opacity:1;fill-rule:evenodd;stroke:#000000;stroke-width:1pt;stroke-opacity:1"
         d="M 0,0 5,-5 -12.5,0 5,5 Z"
         id="path2993" />
    </marker>
    <marker
       style="overflow:visible"
       id="marker2985"
       refX="0"
       refY="0"
       orient="auto"
       inkscape:stockid="Arrow1Lstart"
       inkscape:isstock="true">
      <path
         transform="matrix(0.8,0,0,0.8,10,0)"
         style="fill:#000000;fill-opacity:1;fill-rule:evenodd;stroke:#000000;stroke-width:1pt;stroke-opacity:1"
         d="M 0,0 5,-5 -12.5,0 5,5 Z"
         id="path2983" />
    </marker>
    <marker
       style="overflow:visible"
       id="marker2791"
       refX="0"
       refY="0"
       orient="auto"
       inkscape:stockid="Arrow1Lstart"
       inkscape:isstock="true">
      <path
         transform="matrix(0.8,0,0,0.8,10,0)"
         style="fill:#000000;fill-opacity:1;fill-rule:evenodd;stroke:#000000;stroke-width:1pt;stroke-opacity:1"
         d="M 0,0 5,-5 -12.5,0 5,5 Z"
         id="path2789" />
    </marker>
    <marker
       style="overflow:visible"
       id="marker2781"
       refX="0"
       refY="0"
       orient="auto"
       inkscape:stockid="Arrow1Lstart"
       inkscape:isstock="true">
      <path
         transform="matrix(0.8,0,0,0.8,10,0)"
         style="fill:#000000;fill-opacity:1;fill-rule:evenodd;stroke:#000000;stroke-width:1pt;stroke-opacity:1"
         d="M 0,0 5,-5 -12.5,0 5,5 Z"
         id="path2779" />
    </marker>
    <marker
       style="overflow:visible"
       id="marker2417"
       refX="0"
       refY="0"
       orient="auto"
       inkscape:stockid="Arrow1Lstart"
       inkscape:isstock="true">
      <path
         transform="matrix(0.8,0,0,0.8,10,0)"
         style="fill:#000000;fill-opacity:1;fill-rule:evenodd;stroke:#000000;stroke-width:1pt;stroke-opacity:1"
         d="M 0,0 5,-5 -12.5,0 5,5 Z"
         id="path2415" />
    </marker>
    <marker
       style="overflow:visible"
       id="marker2383"
       refX="0"
       refY="0"
       orient="auto"
       inkscape:stockid="Arrow1Lstart"
       inkscape:isstock="true">
      <path
         transform="matrix(0.8,0,0,0.8,10,0)"
         style="fill:#000000;fill-opacity:1;fill-rule:evenodd;stroke:#000000;stroke-width:1pt;stroke-opacity:1"
         d="M 0,0 5,-5 -12.5,0 5,5 Z"
         id="path2381" />
    </marker>
    <marker
       style="overflow:visible"
       id="marker2355"
       refX="0"
       refY="0"
       orient="auto"
       inkscape:stockid="Arrow1Lstart"
       inkscape:isstock="true">
      <path
         transform="matrix(0.8,0,0,0.8,10,0)"
         style="fill:#000000;fill-opacity:1;fill-rule:evenodd;stroke:#000000;stroke-width:1pt;stroke-opacity:1"
         d="M 0,0 5,-5 -12.5,0 5,5 Z"
         id="path2353" />
    </marker>
    <marker
       style="overflow:visible"
       id="Arrow1Lstart"
       refX="0"
       refY="0"
       orient="auto"
       inkscape:stockid="Arrow1Lstart"
       inkscape:isstock="true">
      <path
         transform="matrix(0.8,0,0,0.8,10,0)"
         style="fill:#000000;fill-opacity:1;fill-rule:evenodd;stroke:#000000;stroke-width:1pt;stroke-opacity:1"
         d="M 0,0 5,-5 -12.5,0 5,5 Z"
         id="path2071" />
    </marker>
  </defs>
  <sodipodi:namedview
     id="base"
     pagecolor="#ffffff"
     bordercolor="#666666"
     borderopacity="1.0"
     inkscape:pageopacity="0.0"
     inkscape:pageshadow="2"
     inkscape:zoom="1.5033853"
     inkscape:cx="86.138929"
     inkscape:cy="167.28912"
     inkscape:document-units="mm"
     inkscape:current-layer="layer1"
     inkscape:document-rotation="0"
     showgrid="false"
     inkscape:snap-smooth-nodes="false"
     inkscape:object-nodes="false"
     inkscape:window-width="1366"
     inkscape:window-height="712"
     inkscape:window-x="0"
     inkscape:window-y="0"
     inkscape:window-maximized="1"
     inkscape:object-paths="false"
     inkscape:snap-intersection-paths="false"
     inkscape:snap-midpoints="false"
     inkscape:snap-others="false"
     inkscape:pagecheckerboard="0"
     showguides="true"
     inkscape:guide-bbox="true"
     inkscape:snap-bbox="true"
     showborder="false"
     fit-margin-top="0"
     fit-margin-left="0"
     fit-margin-right="0"
     fit-margin-bottom="0" />
  <metadata
     id="metadata5">
    <rdf:RDF>
      <cc:Work
         rdf:about="">
        <dc:format>image/svg+xml</dc:format>
        <dc:type
           rdf:resource="http://purl.org/dc/dcmitype/StillImage" />
      </cc:Work>
    </rdf:RDF>
  </metadata>
  <g
     inkscape:label="Layer 1"
     inkscape:groupmode="layer"
     id="layer1"
     transform="translate(315.71394,475.26821)">
    <path
       style="fill:#000000;stroke-width:0.0846667"
       id="path389"
       d="" />
    <path
       id="path6742-7-6-71"
       style="fill:#000000;fill-opacity:1;stroke:none;stroke-width:0.264999;stroke-miterlimit:4;stroke-dasharray:none;stroke-opacity:1"
       d="m -307.80373,-475.26806 0.004,5.3e-4 c -1.1203,9.8e-4 -2.13585,0.005 -2.77606,0.0124 l -2.32854,0.0258 -0.57775,0.29609 c -0.74229,0.37984 -1.68912,1.33263 -1.98281,1.99523 l -0.20775,0.46924 -0.0103,4.57284 c -0.01,2.5151 -0.0137,5.35427 -0.0207,6.30918 -0.01,0.95488 -0.0103,3.88913 -0.0103,6.52052 0,2.63139 0.01,5.8892 0,7.23987 0,1.35068 3.4e-4,6.68595 0.0103,11.85561 0.01,5.16967 0.01,10.48584 0.01,11.81322 0,1.32742 -8e-5,4.87109 0.0129,7.87498 0.018,5.89955 0.019,6.5541 0.032,17.7519 0,4.1052 0.012,7.74899 0.0139,8.09665 l 10e-4,0.63201 0.19378,0.36793 c 0.32681,0.62016 0.79774,1.1557 1.38184,1.572 0.99351,0.70773 1.03336,0.71374 4.92477,0.71469 1.32739,2.9e-4 3.09975,0.007 3.93824,0.0139 2.48912,0.0218 5.15819,0.0307 9.82319,0.031 2.42189,2.1e-4 4.97527,0.0104 5.67407,0.0233 0.69889,0.0129 3.15669,0.0254 5.46219,0.0284 2.3055,0.003 5.69764,0.0147 7.53752,0.0264 1.83994,0.0117 5.95609,0.0336 9.14673,0.0491 3.19064,0.0154 7.01999,0.0369 8.5106,0.048 3.07438,0.023 3.48238,-9.8e-4 3.99045,-0.2372 h 0.004 c 1.01217,-0.47013 2.15493,-1.68203 2.34559,-2.48769 0.0404,-0.171 0.0776,-2.38741 0.0816,-4.9258 0.0142,-8.09741 0.008,-17.79325 -0.014,-21.67877 -0.0116,-2.07235 -0.0228,-5.92052 -0.0258,-8.55194 -0.002,-2.63141 -0.008,-7.01389 -0.0124,-9.73841 -0.02,-13.76804 -0.0233,-26.62158 -0.01,-33.09774 l 0.01,-4.60282 -0.29353,-0.55758 c -0.52456,-0.99563 -1.77518,-2.04706 -2.61017,-2.19469 -0.44011,-0.0778 -2.16629,-0.0939 -12.87364,-0.11835 -1.25756,-0.003 -2.80088,-0.0116 -3.42976,-0.0186 -0.62889,-0.007 -2.38221,-0.0131 -3.89589,-0.0129 -2.81823,3.9e-4 -12.30347,-0.0289 -15.79385,-0.0486 -1.07132,-0.006 -3.52922,-0.0179 -5.46222,-0.0269 -1.93299,-0.009 -5.24872,-0.026 -7.36801,-0.0367 -1.05971,-0.005 -2.28518,-0.007 -3.40548,-0.006 z m -4.04989,0.5085 h 5.3e-4 c 2.64699,-0.0141 12.9395,0.0446 23.60887,0.13848 2.11971,0.0184 8.02341,0.0648 13.12273,0.10285 5.0991,0.038 11.67167,0.0878 14.60479,0.11213 l 5.19142,0.0419 0.42426,0.22739 c 0.5733,0.30675 1.35493,1.10074 1.58388,1.56424 l 0.18707,0.38034 0.0114,4.60592 c 0.009,3.78238 -0.002,12.61599 -0.0191,20.7052 -0.0178,8.08922 -0.0445,15.49411 -0.062,16.23674 -0.0207,0.88427 -0.0393,7.87689 -0.0455,15.6776 -0.006,8.12715 -0.02,14.33266 -0.0408,18.55078 -0.0104,2.10907 -0.0228,3.72227 -0.0367,4.82814 -0.007,0.55293 -0.0135,0.97915 -0.0212,1.27538 -0.004,0.14811 -0.009,0.26408 -0.0124,0.34364 -0.004,0.0796 -0.0168,0.15912 -0.003,0.0822 -0.0654,0.34512 -0.419,0.95379 -0.9126,1.40147 -0.69162,0.62722 -1.19347,0.88093 -1.80609,0.97099 -0.22447,0.033 -0.72693,0.0671 -1.15084,0.0801 -0.21196,0.007 -0.40868,0.009 -0.54518,0.006 -0.06,-0.001 -0.10113,-0.005 -0.12661,-0.007 -0.005,-0.002 -0.0155,-0.004 -0.0155,-0.004 -5.3e-4,-1.6e-4 -0.048,-0.0105 -0.0605,-0.0124 -0.0249,-0.004 -0.0352,-0.005 -0.0455,-0.006 -0.0206,-0.002 -0.0342,-10e-4 -0.0501,-0.002 -0.0319,-0.002 -0.0696,-0.004 -0.1173,-0.005 -0.0954,-0.003 -0.2306,-0.006 -0.40256,-0.009 -0.34395,-0.006 -0.8351,-0.0117 -1.44126,-0.0181 -1.21229,-0.0127 -2.87815,-0.0255 -4.70669,-0.0362 -3.65497,-0.0216 -8.32527,-0.0541 -10.37301,-0.0713 -5.82636,-0.0488 -12.05629,-0.0927 -19.00711,-0.1323 -3.5156,-0.02 -9.19543,-0.0549 -12.61782,-0.078 l -6.09111,-0.0403 -0.4749,-0.22789 c -0.5453,-0.26202 -1.26968,-0.93972 -1.66089,-1.59628 l -0.21601,-0.36121 -0.0238,-17.41239 c -0.024,-16.53715 0.034,-44.23045 0.12351,-58.63775 l 0.0398,-6.30452 0.26768,-0.52917 c 0.4581,-0.90783 1.63349,-1.76159 2.32389,-1.83451 -0.04,0.004 0.045,-0.002 0.1483,-0.003 0.107,-9.8e-4 0.25784,-0.002 0.44752,-0.003 z m 4.01939,3.50367 c -1.00317,0.0181 -1.70262,0.22899 -2.44893,0.73895 -1.26543,0.86476 -2.01769,2.32508 -2.3766,4.61367 -0.15367,0.98015 -0.0647,3.33552 0.16381,4.27469 0.36795,1.52223 0.74297,2.23284 1.63814,3.10679 0.88612,0.86479 1.90378,1.26241 3.20032,1.25005 1.53966,-0.0146 2.85385,-0.67011 3.75584,-1.87171 1.49426,-1.99115 0.97446,-4.87202 -1.12654,-6.23787 -0.81331,-0.52875 -1.55758,-0.73854 -2.58691,-0.72814 -1.34345,0.0136 -2.19001,0.31544 -2.97813,1.06196 l -0.42013,0.39894 0.046,-0.63561 c 0.0607,-0.82693 0.32144,-1.84203 0.6351,-2.4784 0.6517,-1.32197 1.76432,-1.92847 3.12849,-1.70429 0.98409,0.16171 1.79623,0.7937 2.23139,1.7358 0.0904,0.19579 0.21177,0.35557 0.26977,0.35502 0.11588,-6.1e-4 1.28312,-0.57402 1.45158,-0.71261 0.0832,-0.0686 0.0477,-0.18968 -0.16536,-0.56017 -1.05061,-1.82595 -2.43497,-2.64253 -4.4173,-2.60707 z m 0.16589,6.87088 c 0.37021,2.1e-4 0.74605,0.0588 1.06299,0.17365 0.63635,0.23053 1.36586,0.9399 1.58491,1.54098 0.2463,0.67601 0.21206,1.43211 -0.092,2.05621 -0.49355,1.01164 -1.32786,1.49881 -2.56418,1.4981 -1.13689,-6.9e-4 -2.07695,-0.58044 -2.51611,-1.55133 -0.6165,-1.36332 0.0693,-2.9886 1.4986,-3.54709 0.29178,-0.114 0.65569,-0.17094 1.02579,-0.17052 z m 6.98304,5.67304 0.0129,2.48615 c 0.007,1.36732 0.003,2.65737 5e-4,2.867 -0.0137,0.20958 -0.0109,3.46732 -0.005,7.23937 0.004,3.77201 -0.007,7.12507 -0.0238,7.45123 -0.0161,0.32615 -0.025,3.45061 -0.0222,6.94324 0.004,3.49258 -0.004,6.46441 -0.0119,6.60424 -0.0135,0.13983 -0.0222,3.4929 -0.014,7.45122 0.004,3.9583 -0.007,7.2136 -0.0233,7.23369 -0.0211,0.02 -0.005,1.53641 0.017,3.36981 l 0.0522,3.33364 0.88934,0.0243 c 0.48916,0.013 2.79482,0.0269 5.12321,0.031 6.95248,0.0121 11.12501,0.0258 13.58987,0.0445 1.28069,0.0101 4.2907,0.0192 6.68901,0.0212 2.39829,0.002 4.86561,0.0198 5.48286,0.0403 l 1.12241,0.0367 -0.007,-1.46709 c 0.003,-0.80692 0.005,-1.61922 0.016,-1.80557 0.0126,-0.18626 0.0113,-3.34856 0.008,-7.02746 -0.003,-3.6789 0.004,-7.56552 0.0139,-8.63669 0.003,-1.07124 0.0233,-4.0626 0.0217,-6.64715 -0.002,-2.58456 0.005,-6.08986 0.0124,-7.78971 0.0141,-4.35969 0.0212,-9.66771 0.0253,-15.28328 -9.8e-4,-2.65443 0.0158,-5.15684 0.0346,-5.56091 0.0183,-0.40407 0.002,-0.75165 -0.0315,-0.77256 -0.0359,-0.0209 -2.08563,-0.0432 -4.55374,-0.0491 -2.46838,-0.006 -5.59266,-0.0181 -6.94325,-0.0274 -3.70242,-0.0247 -8.49763,-0.0408 -13.16662,-0.0439 -2.30513,-0.001 -5.11514,-0.0171 -6.24459,-0.0346 z m 5.39864,0.41031 c 0.64453,0.001 1.15491,0.005 1.37613,0.0104 0.44248,0.0104 3.3003,0.0198 6.35052,0.0201 3.05012,8.8e-4 6.00343,0.0125 6.56239,0.0253 0.55885,0.0131 3.37888,0.0279 6.26628,0.0326 4.73091,0.007 6.38432,0.0195 6.58823,0.0465 0.038,0.004 0.0551,0.83857 0.0398,1.85155 -0.0163,1.01301 -0.0261,4.18523 -0.0217,7.04919 0.004,2.86393 -0.002,6.21707 -0.0145,7.45122 -0.014,1.2342 -0.0237,4.28231 -0.0217,6.77376 -2e-5,8.04796 -0.009,12.52027 -0.0264,14.98616 -0.0143,1.32728 -0.007,5.36617 -10e-4,8.97517 0.008,3.60897 -0.004,6.69038 -0.0222,6.84762 l -0.0419,0.28631 -2.7254,-0.0269 c -1.49867,-0.0149 -4.61118,-0.0282 -6.91639,-0.0294 -2.3051,-0.001 -5.37244,-0.01 -6.81611,-0.0186 -1.44357,-0.01 -3.95841,-0.0229 -5.5883,-0.0305 -8.3276,-0.0393 -9.99736,-0.0535 -10.05363,-0.0868 l -5.3e-4,5.1e-4 c -0.0489,-0.0282 -0.0655,-0.66405 -0.0212,-0.7343 0.01,-0.008 0.01,-2.96834 0.003,-6.57738 -0.005,-3.60905 -4.8e-4,-7.80005 0.008,-9.31365 0.0259,-4.29761 0.0454,-17.13392 0.0274,-18.96679 -0.007,-0.90805 -0.004,-1.91717 0.017,-2.2433 0.0151,-0.3261 0.0258,-3.64101 0.0233,-7.36645 -0.002,-3.72549 0.0138,-7.26326 0.0377,-7.86103 l 0.0398,-1.08728 2.75177,-0.0113 c 0.75671,-0.003 1.53517,-0.004 2.17972,-0.003 z m 1.17666,3.11195 c -0.0665,5.6e-4 -0.131,0.004 -0.19378,0.0114 l -0.005,-10e-4 c -0.37661,0.0377 -0.68945,0.1805 -0.98391,0.44389 -0.78107,0.69927 -0.81145,1.8882 -0.0687,2.7156 0.39169,0.4363 0.39312,0.54872 0.009,0.35243 -0.14907,-0.0754 -0.46763,-0.12883 -0.75033,-0.12557 -0.83614,0.009 -1.51834,0.44058 -1.78647,1.12913 l -5e-4,5.1e-4 c -0.0434,0.11009 -0.0812,0.42082 -0.0781,0.6904 -0.005,1.44584 1.50032,2.27491 2.75747,1.52188 0.39716,-0.23791 0.60557,-0.51567 0.77152,-1.02785 0.10769,-0.33491 0.10967,-0.32946 0.077,0.29353 -0.0416,0.80719 -0.30162,1.61742 -0.93329,2.90007 -0.0141,0.0302 0.3651,0.0316 0.84439,0.003 0.51631,-0.031 1.00814,-0.016 1.20666,0.0377 0.18402,0.0495 0.35174,0.0711 0.37362,0.0491 0.0221,-0.022 -0.0614,-0.22003 -0.18346,-0.44029 -0.3297,-0.59251 -0.66334,-1.62206 -0.76325,-2.35231 -0.10472,-0.76999 -0.0276,-0.98716 0.14674,-0.41031 0.17119,0.56695 0.36565,0.8083 0.8382,1.0387 0.83767,0.40841 1.84065,0.15473 2.35749,-0.59584 0.35055,-0.50901 0.39188,-1.32699 0.0951,-1.87069 -0.43511,-0.79502 -1.50495,-1.19676 -2.32699,-0.87383 -0.20976,0.0824 -0.40158,0.12998 -0.42582,0.10593 -0.0239,-0.0242 0.10665,-0.19759 0.29147,-0.38602 1.11871,-1.14017 0.47103,-3.08983 -1.0635,-3.20239 -0.0708,-0.005 -0.13917,-0.008 -0.20568,-0.007 z m 19.75434,0.0569 -5e-4,5e-4 c -0.84786,0.0145 -1.73146,0.97843 -1.72289,1.88363 0.009,0.37705 0.26059,0.97456 0.57722,1.33736 0.16817,0.19235 0.28789,0.36777 0.26614,0.38965 -0.0221,0.0219 -0.1779,-0.0168 -0.34726,-0.0858 -0.9162,-0.37261 -2.0265,0.0633 -2.4283,0.95343 v 5.3e-4 c -0.28262,0.62608 -0.14906,1.49003 0.30644,1.97609 0.25832,0.27572 0.97621,0.59264 1.33533,0.58963 0.78393,-0.006 1.52035,-0.50433 1.69603,-1.14618 0.11454,-0.41809 0.23479,-0.58796 0.2372,-0.33486 0.008,0.67731 -0.3619,1.98417 -0.82322,2.92024 -0.14063,0.28532 -0.24085,0.53271 -0.22273,0.55036 0.0179,0.0176 0.16227,-0.006 0.32144,-0.0538 0.37145,-0.11083 1.28532,-0.1166 1.76319,-0.0119 0.20447,0.0448 0.38581,0.0684 0.40256,0.0512 0.0171,-0.0171 -0.0833,-0.23672 -0.22169,-0.48783 -0.39926,-0.72261 -0.68737,-1.66275 -0.74983,-2.44687 l -0.0568,-0.71419 0.1664,0.44598 c 0.30247,0.81198 0.89958,1.22428 1.76371,1.21645 0.59963,-0.005 0.90861,-0.15047 1.32345,-0.61854 0.38229,-0.43159 0.51771,-0.85614 0.44751,-1.40716 -0.10096,-0.78669 -0.70109,-1.3942 -1.54307,-1.56062 -0.42913,-0.0849 -0.6287,-0.0625 -1.31929,0.14623 -0.18198,0.055 -0.15703,0.004 0.18087,-0.36689 0.76824,-0.84379 0.81168,-1.87198 0.11109,-2.61795 -0.35856,-0.38169 -0.92561,-0.61786 -1.46296,-0.60873 z m -33.57364,0.91157 c -0.69373,0.007 -1.02097,0.11578 -1.53945,0.51263 -0.89342,0.68361 -1.16136,1.98681 -0.62426,3.03649 0.14222,0.27787 0.41225,0.64474 0.6005,0.81547 0.18804,0.17074 0.34224,0.34701 0.34261,0.39169 -3.4e-4,0.10377 0.0357,0.10991 -0.5085,-0.0915 -0.54555,-0.20191 -1.24169,-0.23011 -1.77872,-0.0723 -0.77152,0.22669 -1.50775,0.99317 -1.6805,1.75027 v 5.3e-4 c -0.2473,1.08392 0.31242,2.24544 1.34049,2.78225 0.48297,0.25247 1.62996,0.2395 2.11823,-0.0233 0.67847,-0.36553 1.08143,-0.93237 1.25261,-1.76422 0.0305,-0.15063 0.0808,-0.21611 0.12973,-0.16849 0.0987,0.0973 -0.0204,1.25545 -0.19638,1.98128 -0.16443,0.66075 -0.5547,1.6814 -0.87386,2.28772 -0.13383,0.25406 -0.24262,0.49054 -0.24236,0.52555 2.9e-4,0.0351 0.12459,0.0254 0.27543,-0.0217 0.3928,-0.12293 1.87973,-0.13383 2.46137,-0.0176 0.27191,0.0542 0.50702,0.0857 0.52295,0.0698 0.0161,-0.0159 -0.12259,-0.3365 -0.30695,-0.71263 -0.18439,-0.37608 -0.43603,-0.98261 -0.55914,-1.34823 -0.37243,-1.10445 -0.62532,-2.82213 -0.41651,-2.82411 0.094,-4.8e-4 0.18024,0.20912 0.18344,0.45008 0.009,0.36854 0.41119,1.05217 0.78084,1.31466 0.96996,0.68861 2.23395,0.63344 3.09025,-0.13488 0.56825,-0.50999 0.81574,-1.07212 0.80872,-1.81695 -0.0159,-1.28363 -0.80438,-2.15905 -2.15283,-2.39519 -0.47413,-0.0831 -0.70641,-0.0477 -1.60197,0.24495 -0.2902,0.0949 -0.23471,-0.0875 0.12816,-0.4217 1.02076,-0.94003 1.12546,-2.5518 0.23048,-3.54912 -0.48646,-0.54215 -1.07855,-0.80772 -1.78438,-0.801 z m 15.05334,18.61177 -1.2423,0.0124 -1.24333,0.0109 0.23873,0.46302 c 0.13108,0.25487 0.30274,0.6514 0.3819,0.88109 0.32068,0.92982 0.51758,2.23835 0.31986,2.11873 -0.0479,-0.0283 -0.0862,-0.13568 -0.0868,-0.2377 6.9e-4,-0.2063 -0.29186,-0.71075 -0.50591,-0.88162 -0.54409,-0.43476 -1.39996,-0.54581 -2.01279,-0.26043 -0.37957,0.17669 -0.76885,0.61748 -0.92967,1.05212 v 5.2e-4 c -0.14385,0.38873 -0.0618,1.1007 0.17518,1.52033 0.10988,0.19449 0.3647,0.46667 0.56587,0.60513 0.29964,0.20611 0.46947,0.25659 0.93742,0.27852 0.38904,0.0184 0.67138,-0.0164 0.88418,-0.10747 0.17214,-0.0745 0.31329,-0.1043 0.31366,-0.0677 2.9e-4,0.0366 -0.14549,0.22352 -0.324,0.41497 -0.32404,0.34722 -0.59386,0.97129 -0.59016,1.36528 -0.002,0.62331 0.45805,1.32953 1.03611,1.61748 0.44609,0.2219 1.2437,0.21325 1.68725,-0.0176 0.58158,-0.30377 0.94451,-0.91906 0.93792,-1.60816 -0.008,-0.58399 -0.19489,-1.05104 -0.60616,-1.46503 -0.34279,-0.3452 -0.317,-0.37169 0.18915,-0.19484 0.6948,0.24289 1.39152,0.10446 1.92029,-0.38137 0.77822,-0.71517 0.85619,-1.78112 0.1855,-2.53058 -0.93731,-1.04727 -2.8797,-0.64931 -3.07475,0.62992 -0.0807,0.52538 -0.21947,0.3538 -0.16277,-0.19947 0.0795,-0.77806 0.26453,-1.41414 0.65164,-2.25205 z m 19.76779,0.06 c -0.10242,2e-5 -0.32163,0.02 -0.56534,0.0532 -0.35798,0.0488 -0.82047,0.0502 -1.17512,0.005 -0.32036,-0.0413 -0.59886,-0.0584 -0.62169,-0.0377 -0.0205,0.0217 0.0217,0.14531 0.0941,0.27543 0.43807,0.78489 0.84124,2.16958 0.8382,2.89801 l -10e-4,0.46561 -0.13126,-0.41394 c -0.17936,-0.56531 -0.33986,-0.78118 -0.75758,-1.0206 -0.79693,-0.45697 -1.72802,-0.3088 -2.31201,0.36742 -0.17772,0.20603 -0.36468,0.50067 -0.41445,0.65421 -0.22531,0.69498 0.14489,1.6633 0.79013,2.06759 0.42175,0.26418 1.33448,0.35414 1.75855,0.17362 0.38664,-0.16455 0.3936,-0.0438 0.0228,0.36689 -0.41529,0.4589 -0.55364,0.87011 -0.50075,1.49038 0.11096,1.31016 1.48672,2.04279 2.66806,1.42057 0.5829,-0.30702 0.89807,-0.7896 0.93895,-1.43351 0.0401,-0.64352 -0.10192,-1.04722 -0.52864,-1.50172 -0.18886,-0.20098 -0.32684,-0.38267 -0.30697,-0.40307 0.0201,-0.0203 0.18801,0.0153 0.37312,0.0791 1.26986,0.43873 2.59088,-0.43699 2.59053,-1.7172 0.002,-0.48017 -0.17735,-0.87458 -0.5793,-1.29294 -0.34703,-0.3611 -0.73525,-0.51562 -1.27537,-0.5085 -0.82725,0.0111 -1.57991,0.5798 -1.69085,1.27743 -0.0715,0.45278 -0.20608,0.36947 -0.15658,-0.0977 0.099,-0.94313 0.52925,-2.35161 0.88159,-2.88975 0.0854,-0.13033 0.14018,-0.25228 0.12092,-0.27077 -0.005,-0.005 -0.0258,-0.007 -0.0599,-0.007 z m -2.36215,0.0202 c 0,0 0,-5.3e-4 0,-5.3e-4 l -10e-4,5.3e-4 c 10e-5,-1.1e-4 9.5e-4,8e-5 10e-4,0 z m 13.36044,15.48947 0.33434,0.65993 c 0.62571,1.23708 0.9436,2.29502 1.10433,3.67781 0.0487,0.40778 0.034,0.48675 -0.077,0.48781 -0.088,5.9e-4 -0.13434,-0.077 -0.13694,-0.23151 -0.009,-0.31236 -0.30276,-0.93604 -0.58601,-1.22989 -0.12668,-0.1312 -0.42167,-0.33596 -0.65578,-0.45527 -0.35352,-0.18026 -0.53976,-0.21632 -1.10277,-0.21291 -0.59302,0.004 -0.73361,0.0359 -1.12913,0.25837 -0.50653,0.28474 -0.95764,0.79515 -1.14153,1.2909 -0.18108,0.48856 -0.10943,1.49773 0.14004,1.97197 0.24419,0.46432 0.67344,0.86667 1.18804,1.11413 0.50841,0.24445 1.67049,0.25845 2.11925,0.0259 0.46458,-0.24135 0.47786,-0.076 0.0315,0.39169 -0.62894,0.65892 -0.79808,1.09977 -0.77618,2.02417 0.0161,0.60283 0.33538,1.29998 0.77257,1.6764 0.99912,0.86056 2.45222,0.81082 3.38842,-0.11525 0.50673,-0.50126 0.64559,-0.87387 0.63769,-1.70842 -0.007,-0.85846 -0.20442,-1.32564 -0.78962,-1.87999 -0.49818,-0.47147 -0.48976,-0.60521 0.0243,-0.39066 0.58471,0.24394 1.34356,0.28763 1.86913,0.10747 0.91543,-0.31377 1.53727,-1.03521 1.70171,-1.97506 0.0733,-0.41471 0.0608,-0.58909 -0.0677,-1.04905 -0.13139,-0.46847 -0.22775,-0.62415 -0.63924,-1.02835 -0.38668,-0.37976 -0.58504,-0.50422 -0.97979,-0.61495 -1.32061,-0.37023 -2.66998,0.3411 -2.98948,1.57509 -0.17721,0.68311 -0.27472,0.64622 -0.22376,-0.0837 0.0849,-1.20031 0.58674,-2.82821 1.17874,-3.81526 0.25659,-0.42858 0.24389,-0.49192 -0.0863,-0.40101 -0.61946,0.17121 -1.99106,0.16516 -2.83549,-0.0129 z m -33.2202,3.92433 c -0.0236,1.3e-4 -0.039,0.003 -0.0439,0.008 h 0.01 c -0.0201,0.0205 0.10414,0.33134 0.27646,0.69091 0.36552,0.7625 0.67294,1.90939 0.66871,2.51301 l -10e-4,0.42323 -0.15711,-0.44752 c -0.28112,-0.80039 -0.84984,-1.18935 -1.73427,-1.1839 -0.87201,0.004 -1.48627,0.48712 -1.74561,1.36943 h -0.01 c -0.15865,0.54004 -0.004,1.11717 0.43203,1.61747 0.53293,0.61085 1.37343,0.81074 2.173,0.51729 0.44421,-0.16303 0.48146,-0.0961 0.11679,0.21032 -0.95623,0.80351 -0.86709,2.37612 0.16949,3.00344 0.3596,0.2176 0.49406,0.24993 1.01957,0.24493 0.51742,-0.004 0.65614,-0.039 0.9524,-0.23926 0.41941,-0.28335 0.78086,-0.88334 0.83198,-1.38182 0.0516,-0.5054 -0.19206,-1.17268 -0.56121,-1.53479 -0.33353,-0.3275 -0.32142,-0.43535 0.0331,-0.29972 0.82651,0.31594 1.59158,0.13316 2.16578,-0.51779 0.28744,-0.32592 0.39333,-0.52435 0.43357,-0.81391 0.0799,-0.57293 -0.0147,-0.9919 -0.30491,-1.41182 -0.85743,-1.22116 -2.80045,-0.94808 -3.15846,0.44339 -0.0901,0.35007 -0.23019,0.51538 -0.23151,0.27233 -0.008,-0.67603 0.36182,-2.01115 0.78703,-2.88303 l 0.27855,-0.57049 -0.82425,0.0553 c -0.46048,0.0307 -0.9919,0.0177 -1.20407,-0.03 -0.15655,-0.0347 -0.3012,-0.0553 -0.37206,-0.0548 z m 19.7993,0.0754 c -0.016,5.8e-4 -0.0226,0.004 -0.0248,0.008 2.4e-4,0.022 0.13401,0.31197 0.29713,0.6444 0.33012,0.67312 0.61822,1.65166 0.71263,2.42104 0.076,0.6151 -0.0521,0.67921 -0.20466,0.10335 -0.19322,-0.72536 -0.85235,-1.18785 -1.68566,-1.18391 -0.73181,0.005 -1.27558,0.34449 -1.6392,1.02785 -0.12094,0.22757 -0.15174,0.43376 -0.1297,0.85887 0.0348,0.66749 0.29745,1.12442 0.85371,1.48518 0.30485,0.19773 0.43942,0.22858 0.95393,0.2217 0.32951,-0.005 0.73199,-0.0419 0.89453,-0.0832 l 0.29559,-0.0755 -0.30954,0.33179 c -0.62838,0.67299 -0.79436,1.44316 -0.46405,2.15386 0.37309,0.80288 0.91623,1.12652 1.7916,1.06865 0.46842,-0.031 0.64159,-0.0855 0.93588,-0.2935 0.40913,-0.28945 0.81894,-1.01634 0.81492,-1.44436 10e-4,-0.44836 -0.26786,-1.05296 -0.61648,-1.41232 -0.18219,-0.18809 -0.31652,-0.35753 -0.29765,-0.37671 0.0181,-0.0192 0.21179,0.0236 0.42785,0.0946 0.54526,0.17926 0.94893,0.15587 1.44902,-0.0827 0.67966,-0.32438 1.12726,-1.01553 1.12035,-1.72342 0.001,-0.38195 -0.37938,-1.07336 -0.73795,-1.36321 -0.47117,-0.381 -1.06428,-0.49107 -1.65468,-0.30747 -0.67357,0.20936 -0.94059,0.47924 -1.17459,1.18803 l -0.14626,0.44286 -0.0129,-0.35449 c -0.0196,-0.73544 0.4028,-2.24544 0.82629,-2.95537 0.0835,-0.14052 0.15275,-0.28017 0.15246,-0.31006 -1.1e-4,-0.0299 -0.39098,-0.0323 -0.86815,-0.004 -0.47713,0.0274 -1.02907,0.0132 -1.22733,-0.0305 -0.14869,-0.033 -0.27739,-0.0516 -0.33229,-0.0496 z m 14.81358,11.07943 c -0.42622,0.0139 -0.86706,0.0804 -1.31775,0.20206 -1.1355,0.30652 -1.96385,0.909 -2.55644,1.85828 -0.27885,0.44674 -0.59677,1.24454 -0.67644,1.69965 l -5.3e-4,5.1e-4 c -0.0815,0.46198 0.0407,1.67094 0.21705,2.15802 0.49529,1.36715 1.75021,2.46644 3.25149,2.84839 1.37087,0.34873 3.23877,-0.11488 4.12791,-1.02422 l 0.3669,-0.37518 -0.0388,0.64182 c -0.18479,3.02649 -1.93514,4.75925 -4.15065,4.10933 -0.75358,-0.22109 -1.30763,-0.692 -1.72702,-1.46659 -0.16591,-0.30641 -0.32809,-0.55695 -0.36019,-0.55708 -0.058,-1.3e-4 -1.51422,0.68506 -1.57561,0.74155 -0.0963,0.089 0.79683,1.40856 1.25987,1.85983 1.82904,1.78221 4.78327,1.77628 6.52777,-0.0129 0.67053,-0.68784 0.99879,-1.2497 1.33273,-2.2815 0.41263,-1.27556 0.52317,-2.222 0.45889,-3.92999 -0.0654,-1.74082 -0.27642,-2.68451 -0.863,-3.86696 -0.79432,-1.60219 -2.19193,-2.51757 -3.85506,-2.60139 -0.13858,-0.007 -0.27909,-0.008 -0.42116,-0.004 z m -0.006,1.81591 h 0.005 c 0.66413,-0.008 0.82362,0.0195 1.24178,0.21911 0.56074,0.26791 1.1215,0.83047 1.3839,1.38803 0.24508,0.53107 0.25174,1.50005 0.009,2.04689 -0.26725,0.60317 -0.7216,1.0708 -1.34462,1.38494 -0.50002,0.25199 -0.64041,0.28403 -1.24282,0.28577 -0.5442,0.001 -0.77438,-0.0418 -1.15962,-0.21394 -0.58436,-0.26112 -1.10452,-0.76856 -1.38493,-1.35186 -0.51852,-1.07857 -0.26901,-2.28875 0.63872,-3.1011 0.54378,-0.48678 0.9918,-0.64662 1.85364,-0.65784 z" />
  </g>
</svg>
