<?xml version="1.0" encoding="UTF-8" standalone="no"?>
<svg
   sodipodi:docname="6H.svg"
   id="svg8"
   version="1.1"
   viewBox="0 0 63.102425 88.347847"
   height="88.347847mm"
   width="63.102425mm"
   inkscape:version="1.1.1 (1:1.1+202109281949+c3084ef5ed)"
   inkscape:export-filename="/home/doug/k40/52Cards/6H.png"
   inkscape:export-xdpi="96"
   inkscape:export-ydpi="96"
   xmlns:inkscape="http://www.inkscape.org/namespaces/inkscape"
   xmlns:sodipodi="http://sodipodi.sourceforge.net/DTD/sodipodi-0.dtd"
   xmlns="http://www.w3.org/2000/svg"
   xmlns:svg="http://www.w3.org/2000/svg"
   xmlns:rdf="http://www.w3.org/1999/02/22-rdf-syntax-ns#"
   xmlns:cc="http://creativecommons.org/ns#"
   xmlns:dc="http://purl.org/dc/elements/1.1/">
  <defs
     id="defs2">
    <marker
       style="overflow:visible"
       id="marker2995"
       refX="0"
       refY="0"
       orient="auto"
       inkscape:stockid="Arrow1Lstart"
       inkscape:isstock="true">
      <path
         transform="matrix(0.8,0,0,0.8,10,0)"
         style="fill:#000000;fill-opacity:1;fill-rule:evenodd;stroke:#000000;stroke-width:1pt;stroke-opacity:1"
         d="M 0,0 5,-5 -12.5,0 5,5 Z"
         id="path2993" />
    </marker>
    <marker
       style="overflow:visible"
       id="marker2985"
       refX="0"
       refY="0"
       orient="auto"
       inkscape:stockid="Arrow1Lstart"
       inkscape:isstock="true">
      <path
         transform="matrix(0.8,0,0,0.8,10,0)"
         style="fill:#000000;fill-opacity:1;fill-rule:evenodd;stroke:#000000;stroke-width:1pt;stroke-opacity:1"
         d="M 0,0 5,-5 -12.5,0 5,5 Z"
         id="path2983" />
    </marker>
    <marker
       style="overflow:visible"
       id="marker2791"
       refX="0"
       refY="0"
       orient="auto"
       inkscape:stockid="Arrow1Lstart"
       inkscape:isstock="true">
      <path
         transform="matrix(0.8,0,0,0.8,10,0)"
         style="fill:#000000;fill-opacity:1;fill-rule:evenodd;stroke:#000000;stroke-width:1pt;stroke-opacity:1"
         d="M 0,0 5,-5 -12.5,0 5,5 Z"
         id="path2789" />
    </marker>
    <marker
       style="overflow:visible"
       id="marker2781"
       refX="0"
       refY="0"
       orient="auto"
       inkscape:stockid="Arrow1Lstart"
       inkscape:isstock="true">
      <path
         transform="matrix(0.8,0,0,0.8,10,0)"
         style="fill:#000000;fill-opacity:1;fill-rule:evenodd;stroke:#000000;stroke-width:1pt;stroke-opacity:1"
         d="M 0,0 5,-5 -12.5,0 5,5 Z"
         id="path2779" />
    </marker>
    <marker
       style="overflow:visible"
       id="marker2417"
       refX="0"
       refY="0"
       orient="auto"
       inkscape:stockid="Arrow1Lstart"
       inkscape:isstock="true">
      <path
         transform="matrix(0.8,0,0,0.8,10,0)"
         style="fill:#000000;fill-opacity:1;fill-rule:evenodd;stroke:#000000;stroke-width:1pt;stroke-opacity:1"
         d="M 0,0 5,-5 -12.5,0 5,5 Z"
         id="path2415" />
    </marker>
    <marker
       style="overflow:visible"
       id="marker2383"
       refX="0"
       refY="0"
       orient="auto"
       inkscape:stockid="Arrow1Lstart"
       inkscape:isstock="true">
      <path
         transform="matrix(0.8,0,0,0.8,10,0)"
         style="fill:#000000;fill-opacity:1;fill-rule:evenodd;stroke:#000000;stroke-width:1pt;stroke-opacity:1"
         d="M 0,0 5,-5 -12.5,0 5,5 Z"
         id="path2381" />
    </marker>
    <marker
       style="overflow:visible"
       id="marker2355"
       refX="0"
       refY="0"
       orient="auto"
       inkscape:stockid="Arrow1Lstart"
       inkscape:isstock="true">
      <path
         transform="matrix(0.8,0,0,0.8,10,0)"
         style="fill:#000000;fill-opacity:1;fill-rule:evenodd;stroke:#000000;stroke-width:1pt;stroke-opacity:1"
         d="M 0,0 5,-5 -12.5,0 5,5 Z"
         id="path2353" />
    </marker>
    <marker
       style="overflow:visible"
       id="Arrow1Lstart"
       refX="0"
       refY="0"
       orient="auto"
       inkscape:stockid="Arrow1Lstart"
       inkscape:isstock="true">
      <path
         transform="matrix(0.8,0,0,0.8,10,0)"
         style="fill:#000000;fill-opacity:1;fill-rule:evenodd;stroke:#000000;stroke-width:1pt;stroke-opacity:1"
         d="M 0,0 5,-5 -12.5,0 5,5 Z"
         id="path2071" />
    </marker>
  </defs>
  <sodipodi:namedview
     id="base"
     pagecolor="#ffffff"
     bordercolor="#666666"
     borderopacity="1.0"
     inkscape:pageopacity="0.0"
     inkscape:pageshadow="2"
     inkscape:zoom="1.5033851"
     inkscape:cx="86.138941"
     inkscape:cy="166.62397"
     inkscape:document-units="mm"
     inkscape:current-layer="layer1"
     inkscape:document-rotation="0"
     showgrid="false"
     inkscape:snap-smooth-nodes="false"
     inkscape:object-nodes="false"
     inkscape:window-width="1366"
     inkscape:window-height="712"
     inkscape:window-x="0"
     inkscape:window-y="0"
     inkscape:window-maximized="1"
     inkscape:object-paths="false"
     inkscape:snap-intersection-paths="false"
     inkscape:snap-midpoints="false"
     inkscape:snap-others="false"
     inkscape:pagecheckerboard="0"
     showguides="true"
     inkscape:guide-bbox="true"
     inkscape:snap-bbox="true"
     showborder="false"
     fit-margin-top="0"
     fit-margin-left="0"
     fit-margin-right="0"
     fit-margin-bottom="0" />
  <metadata
     id="metadata5">
    <rdf:RDF>
      <cc:Work
         rdf:about="">
        <dc:format>image/svg+xml</dc:format>
        <dc:type
           rdf:resource="http://purl.org/dc/dcmitype/StillImage" />
      </cc:Work>
    </rdf:RDF>
  </metadata>
  <g
     inkscape:label="Layer 1"
     inkscape:groupmode="layer"
     id="layer1"
     transform="translate(315.71401,353.6366)">
    <path
       id="path6742-7-6-948"
       style="fill:#000000;fill-opacity:1;stroke:none;stroke-width:0.264999;stroke-miterlimit:4;stroke-dasharray:none;stroke-opacity:1"
       d="m -307.80389,-353.63584 0.004,5.3e-4 c -1.12033,9.8e-4 -2.13535,0.005 -2.77556,0.0124 l -2.32905,0.0258 -0.57774,0.29612 c -0.74232,0.37984 -1.6886,1.3326 -1.98231,1.99522 l -0.20826,0.46922 -0.01,4.57284 c -0.01,2.5151 -0.0142,5.3543 -0.0212,6.30918 -0.01,0.9549 -0.01,3.88913 -0.01,6.52055 0,2.63136 0.01,5.88917 0,7.23984 0,1.35067 -1.9e-4,6.68597 0.01,11.85561 0.01,5.16967 0.0104,10.48584 0.0104,11.81325 0,1.32742 -8e-5,4.87109 0.0129,7.87495 0.018,5.89955 0.019,6.5541 0.032,17.7519 0,4.10523 0.012,7.74899 0.0139,8.09668 l 0.001,0.63198 0.1938,0.36796 c 0.32679,0.62013 0.79772,1.15567 1.38182,1.57199 0.99351,0.70771 1.03335,0.71372 4.92477,0.71467 1.32738,3.2e-4 3.09975,0.007 3.93827,0.0134 2.48909,0.0218 5.15815,0.0307 9.82315,0.031 2.42189,2.1e-4 4.97528,0.0104 5.67407,0.0233 0.6989,0.0129 3.15672,0.0254 5.46222,0.0284 2.3055,0.003 5.69762,0.0147 7.5375,0.0263 1.83994,0.0117 5.95609,0.0336 9.14673,0.0491 3.19063,0.0154 7.02,0.0369 8.51061,0.048 3.07438,0.023 3.48237,-9.8e-4 3.99045,-0.2372 h 0.004 c 1.01216,-0.47016 2.15492,-1.68204 2.34561,-2.48769 0.0404,-0.17103 0.0776,-2.38742 0.0816,-4.9258 0.0142,-8.09742 0.008,-17.79326 -0.0139,-21.6788 -0.0116,-2.07232 -0.0228,-5.9205 -0.0258,-8.55191 -0.002,-2.63141 -0.008,-7.01389 -0.0124,-9.73844 -0.02,-13.76802 -0.0238,-26.62156 -0.0103,-33.09771 l 0.0103,-4.60282 -0.29352,-0.55759 c -0.52457,-0.99562 -1.7752,-2.04705 -2.61017,-2.19469 -0.44011,-0.0778 -2.1663,-0.0939 -12.87365,-0.11835 -1.25756,-0.003 -2.80088,-0.0116 -3.42977,-0.0186 -0.62888,-0.007 -2.3822,-0.0131 -3.89588,-0.0129 -2.81823,4e-4 -12.30347,-0.0289 -15.79385,-0.0486 -1.0713,-0.006 -3.5292,-0.0179 -5.46222,-0.0269 -1.93299,-0.009 -5.24872,-0.026 -7.36801,-0.0367 -1.05971,-0.005 -2.28518,-0.007 -3.40548,-0.006 z m -4.0499,0.508 5.3e-4,5e-4 c 2.647,-0.0141 12.9395,0.0446 23.60891,0.13851 2.11968,0.0184 8.02338,0.0648 13.1227,0.10282 5.0991,0.038 11.67167,0.0878 14.60478,0.11215 l 5.19142,0.0419 0.42426,0.22736 c 0.57332,0.30675 1.35496,1.10077 1.5839,1.56424 l 0.18706,0.38034 0.0114,4.60592 c 0.009,3.7824 -0.002,12.61599 -0.0196,20.7052 -0.0178,8.08922 -0.044,15.49414 -0.0615,16.23674 -0.0207,0.88429 -0.0393,7.87691 -0.0455,15.6776 -0.006,8.12718 -0.02,14.33266 -0.0408,18.55081 -0.0104,2.10907 -0.0233,3.72226 -0.0372,4.82811 -0.007,0.55293 -0.013,0.97917 -0.0207,1.27537 -0.004,0.14812 -0.009,0.26409 -0.0124,0.34367 -0.004,0.0796 -0.0173,0.15912 -0.003,0.0822 -0.0654,0.34514 -0.41899,0.95379 -0.9126,1.40147 -0.69162,0.62722 -1.19348,0.88093 -1.8061,0.97099 -0.22447,0.033 -0.72691,0.0666 -1.15083,0.0796 -0.21195,0.007 -0.40867,0.009 -0.54517,0.006 -0.06,-9.8e-4 -0.10112,-0.005 -0.1266,-0.007 -0.005,-0.002 -0.0155,-0.004 -0.0155,-0.004 -5.3e-4,-1.6e-4 -0.048,-0.0105 -0.0605,-0.0124 -0.0249,-0.004 -0.0346,-0.005 -0.045,-0.006 -0.0206,-0.002 -0.0347,-10e-4 -0.0506,-0.002 -0.0319,-0.002 -0.0696,-0.004 -0.11729,-0.005 -0.0954,-0.003 -0.23061,-0.006 -0.40256,-0.009 -0.34396,-0.006 -0.8351,-0.0117 -1.44126,-0.0181 -1.2123,-0.0127 -2.87814,-0.0255 -4.7067,-0.0362 -3.65498,-0.0216 -8.32525,-0.0541 -10.37299,-0.0713 -5.82639,-0.0488 -12.05632,-0.0927 -19.00711,-0.13229 -3.5156,-0.02 -9.19494,-0.0549 -12.61732,-0.078 l -6.09164,-0.0403 -0.4749,-0.22788 c -0.5453,-0.26205 -1.26915,-0.93972 -1.66036,-1.59629 l -0.21601,-0.36123 -0.0238,-17.41236 c -0.024,-16.53718 0.034,-44.23048 0.12351,-58.63778 l 0.0398,-6.30452 0.26768,-0.52917 c 0.4581,-0.90783 1.63349,-1.76157 2.32389,-1.83451 -0.04,0.004 0.045,-0.002 0.1483,-0.003 0.107,-0.001 0.25784,-0.002 0.44751,-0.003 z m 4.78886,3.60598 c -0.1818,0.003 -0.36595,0.0149 -0.55293,0.0367 -0.89651,0.10435 -1.49497,0.33782 -2.1513,0.83873 -1.13591,0.86693 -1.87769,2.31941 -2.19779,4.30411 -0.1566,0.97078 -0.0774,3.32036 0.14521,4.32326 0.53062,2.39027 1.84978,3.93502 3.72692,4.36356 0.64214,0.14666 1.86097,0.0954 2.53783,-0.10647 1.98469,-0.59197 3.30089,-2.44562 3.18481,-4.48601 -0.0217,-0.38179 -0.1026,-0.88627 -0.17933,-1.12138 -0.47636,-1.4591 -1.8587,-2.68012 -3.33984,-2.94867 -1.03401,-0.18744 -2.80646,0.0745 -3.45405,0.51006 -0.16113,0.10837 -0.45006,0.36208 -0.64233,0.56377 l -0.34933,0.36693 0.032,-0.50954 c 0.0809,-1.27735 0.45998,-2.48737 1.03145,-3.29385 0.93763,-1.32326 3.11351,-1.49553 4.28191,-0.33798 0.16862,0.16706 0.43953,0.53623 0.60204,0.82011 0.16253,0.28384 0.30652,0.52644 0.31935,0.53951 0.0213,0.0216 1.40234,-0.61934 1.55236,-0.72038 0.035,-0.0236 -0.11589,-0.34465 -0.33589,-0.71364 -0.95136,-1.59554 -2.45348,-2.45456 -4.21113,-2.42879 z m 0.37724,6.79595 c 0.32996,0.002 0.49149,0.054 0.84183,0.21551 0.6841,0.31533 0.93495,0.52697 1.29706,1.09294 0.79484,1.24229 0.38442,2.88906 -0.92241,3.69953 -0.37137,0.23032 -0.54267,0.27901 -1.19322,0.33639 -0.77423,0.0683 -0.98229,0.0293 -1.72858,-0.32451 -0.30715,-0.14557 -0.81026,-0.66775 -1.06815,-1.10744 -0.1058,-0.18028 -0.19693,-0.5434 -0.24442,-0.97409 -0.0661,-0.59986 -0.0525,-0.74607 0.10851,-1.15652 0.24079,-0.61354 0.73398,-1.16636 1.32035,-1.4795 0.39542,-0.21119 0.58682,-0.25698 1.18959,-0.2894 0.16076,-0.009 0.28945,-0.013 0.39944,-0.0124 z m 7.52409,5.7299 c -0.16134,5e-5 -0.37772,0.003 -0.61029,0.009 l -0.84645,0.0238 -0.004,2.54043 c -0.002,1.39705 -0.002,5.00128 0,8.00933 0.002,3.00807 3.7e-4,6.13675 -0.002,6.95306 -0.003,0.81632 -0.003,2.55292 -10e-4,3.85866 0.002,1.30575 0.002,2.66028 5.3e-4,3.01017 -0.002,0.34985 -0.003,1.66616 -0.004,2.92539 -1.8e-4,1.25923 -0.002,2.61405 -0.005,3.01066 -0.003,0.39662 -0.002,2.51447 0.003,4.7062 0.005,2.19176 0.006,6.0076 0.003,8.47958 -0.003,2.472 -10e-4,5.58176 0.004,6.91068 0.005,1.32892 0.0107,2.90242 0.0129,3.49694 l 0.004,1.08109 0.66818,-0.03 c 0.36747,-0.0166 0.76411,-0.0244 0.88108,-0.0176 0.11698,0.007 0.67075,0.0125 1.23042,0.0129 0.90678,6.6e-4 3.9275,0.008 6.02134,0.0139 0.41981,0.001 2.48031,0.003 4.57906,0.002 3.50846,-1.8e-4 7.14325,0.005 8.8196,0.014 0.37322,0.002 1.11699,6.7e-4 1.65314,-0.003 0.53612,-0.003 1.20399,-0.002 1.48415,0.004 0.28014,0.006 1.94038,0.008 3.68917,0.006 1.74879,-0.003 3.27546,0.003 3.39256,0.0119 0.51777,0.0408 0.49541,0.0676 0.51004,-0.58859 0.007,-0.33853 0.0112,-1.01682 0.009,-1.50638 -0.002,-0.48958 -0.005,-1.91989 -0.005,-3.17912 -5e-5,-1.25921 -0.002,-3.01453 -0.003,-3.90054 -0.01,-4.63947 -0.0126,-11.02543 -0.006,-12.29485 0.004,-0.79309 0.008,-2.79725 0.008,-4.45296 3.9e-4,-1.65566 9.2e-4,-3.7157 10e-4,-4.57854 2.1e-4,-0.86278 -0.003,-2.99984 -0.007,-4.74855 -0.004,-1.74871 -0.005,-3.48486 -10e-4,-3.85816 0.01,-1.03962 0.0141,-6.17931 0.009,-10.47273 -0.003,-2.12188 -0.002,-4.20236 0.002,-4.62349 l 0.007,-0.76587 -2.90732,0.0104 c -1.59909,0.005 -3.11764,0.004 -3.37447,-0.002 -0.25688,-0.006 -1.84073,-0.0118 -3.5197,-0.0119 -1.67899,-1.4e-4 -3.70176,-0.003 -4.49482,-0.007 -1.6098,-0.007 -2.2814,-0.008 -4.49429,-0.006 -1.33183,10e-4 -3.5955,-0.002 -8.82012,-0.0155 -0.74631,-0.002 -1.85262,-0.002 -2.45878,5.3e-4 -0.60616,0.002 -1.1222,-0.006 -1.1467,-0.0181 -0.0123,-0.006 -0.11875,-0.009 -0.28009,-0.009 z m -0.11988,0.3824 c 0.17338,-0.001 0.36242,-0.001 0.55914,0 0.7869,0.006 2.7854,0.0117 4.44106,0.0119 1.65568,2.4e-4 3.33504,0.002 3.73158,0.004 0.39653,0.002 1.38824,0.005 2.2045,0.007 0.81624,0.002 2.15249,0.005 2.96881,0.008 0.8163,0.003 2.51431,0.002 3.77341,0 1.25907,-0.002 2.55664,0.002 2.88354,0.0104 0.32694,0.008 1.31926,0.01 2.20503,0.005 2.0016,-0.0127 7.69602,-0.007 8.09824,0.008 0.22063,0.008 0.30641,0.0543 0.33226,0.1788 0.0191,0.0923 0.0285,2.14842 0.0207,4.56922 -0.0149,4.65424 -0.014,7.45504 0.003,11.6081 0.009,2.20202 0.002,6.65718 -0.0129,8.94672 -0.0126,1.88577 -0.0118,4.73935 0.004,11.48974 0.006,2.51815 0.007,7.46882 0.002,11.00191 l -0.009,6.4239 -0.42632,0.0124 c -0.37401,0.0105 -2.04092,0.007 -4.8364,-0.009 -0.46654,-0.003 -1.85946,-0.005 -3.09541,-0.006 -1.23592,-5.6e-4 -2.55312,-0.005 -2.92645,-0.009 -0.37333,-0.004 -2.37657,-0.007 -4.45193,-0.006 -2.07537,4.2e-4 -4.42254,-0.003 -5.21568,-0.008 -0.79306,-0.005 -2.7772,-0.009 -4.40957,-0.01 -1.6324,-7.4e-4 -3.71248,-10e-4 -4.62193,-0.002 -0.90948,-3.7e-4 -1.76789,-0.001 -1.90788,-0.002 l -0.25477,-0.002 -0.005,-0.50848 c -0.003,-0.27971 -0.006,-3.25622 -0.007,-6.61408 -0.009,-21.86926 -0.01,-25.54433 -0.002,-30.61104 0.006,-3.80625 0.003,-10.55452 -0.007,-15.19598 -10e-4,-0.66286 0.019,-1.22946 0.045,-1.25833 l -0.001,-0.001 c 0.0193,-0.0217 0.39814,-0.0372 0.91829,-0.0413 z m 3.02204,3.12073 c -0.0177,-1.8e-4 -0.0359,8e-5 -0.0537,5.3e-4 -0.34234,0.008 -0.69791,0.13087 -1.02579,0.37516 -1.12082,0.83521 -0.81076,2.56283 1.03095,5.74333 0.49715,0.85858 1.06881,1.84542 1.26969,2.19313 0.20084,0.34772 0.38446,0.63143 0.40772,0.62995 0.0232,-9.8e-4 0.23955,-0.34504 0.48162,-0.76377 0.24209,-0.41878 0.75832,-1.29403 1.1467,-1.94458 1.20711,-2.02192 1.90484,-3.96979 1.72083,-4.8023 -0.10801,-0.48879 -0.38005,-0.9122 -0.74774,-1.1617 -0.26937,-0.18286 -0.42262,-0.2181 -0.92398,-0.21498 -0.56002,0.004 -0.62452,0.0228 -0.94414,0.28372 -0.21624,0.17647 -0.42608,0.46532 -0.5674,0.78083 -0.17878,0.39915 -0.22802,0.45757 -0.24236,0.28938 -0.01,-0.1161 -0.0964,-0.35883 -0.19275,-0.54002 -0.2989,-0.56176 -0.80933,-0.86328 -1.35961,-0.86868 z m 20.90415,0.0233 c -0.0631,-10e-5 -0.12613,0.004 -0.18915,0.0109 -0.67218,0.0774 -1.31945,0.57184 -1.50688,1.43401 -0.0968,0.44509 0.087,1.3715 0.46251,2.32908 0.2712,0.6917 1.14962,2.29984 2.46031,4.50567 0.22114,0.37216 0.42418,0.675 0.45164,0.67384 0.0274,-9.8e-4 0.0865,-0.0944 0.13076,-0.20773 0.0443,-0.11334 0.50461,-0.90995 1.0237,-1.76993 1.16562,-1.93116 1.48045,-2.53015 1.81282,-3.45352 0.49678,-1.3802 0.49615,-2.21959 -0.002,-2.88923 -0.31375,-0.4214 -0.79285,-0.61775 -1.42111,-0.58293 -0.43958,0.0244 -0.54824,0.066 -0.85267,0.3261 -0.2045,0.17471 -0.42839,0.48117 -0.54052,0.74052 l -0.19121,0.44286 -0.17053,-0.47853 c -0.26045,-0.73181 -0.85767,-1.07987 -1.46761,-1.08106 z m -34.20878,0.96171 c -0.0478,9e-4 -0.0944,0.003 -0.14054,0.007 -0.55425,0.0421 -0.99775,0.27318 -1.39631,0.71676 -0.47229,0.52559 -0.61008,0.92416 -0.60616,1.75183 0.006,1.31307 0.72183,3.09449 2.36317,5.88285 0.57158,0.97105 1.27556,2.18311 1.56425,2.69335 l 0.52501,0.92761 0.17055,-0.23874 c 0.0939,-0.1311 0.21617,-0.33893 0.2713,-0.46251 0.0552,-0.12359 0.24406,-0.44273 0.42014,-0.70901 0.1761,-0.26625 0.52969,-0.83934 0.78599,-1.27331 2.67703,-4.53276 3.3664,-6.66911 2.61067,-8.09408 -0.45606,-0.86 -1.08479,-1.21343 -2.08047,-1.17046 -0.54917,0.0237 -0.68561,0.0621 -1.0196,0.28422 -0.41748,0.27762 -0.81078,0.84568 -1.0025,1.44952 l -0.12092,0.38033 -0.12816,-0.4532 c -0.26609,-0.9411 -0.91784,-1.55718 -1.76321,-1.66553 -0.15896,-0.0203 -0.30991,-0.0292 -0.45321,-0.0264 z m 14.92777,18.57301 c -0.0477,0.005 -0.90284,1.4496 -1.78594,3.01791 -1.57152,2.79086 -1.92646,4.23262 -1.27278,5.1697 0.35717,0.51205 0.81878,0.74512 1.41336,0.71419 0.24563,-0.0128 0.57345,-0.0842 0.7281,-0.15918 0.29253,-0.14165 0.73583,-0.74125 0.80203,-1.08468 0.0545,-0.2825 0.15891,-0.25117 0.23823,0.0718 0.14867,0.60558 0.59079,1.0133 1.30482,1.20301 0.43106,0.11457 1.10271,-0.12898 1.48519,-0.53845 0.64177,-0.6871 0.5616,-1.96393 -0.22738,-3.63855 -0.30869,-0.65516 -2.62737,-4.76102 -2.68563,-4.75578 z m 20.95119,0.0811 c -0.10515,0.0329 -1.75882,2.78381 -2.34095,3.89794 -0.89538,1.71366 -1.2109,2.95476 -0.96325,3.78219 0.23212,0.77566 0.86307,1.21248 1.68622,1.16687 0.71829,-0.0398 1.19827,-0.42704 1.47018,-1.18547 l 0.10801,-0.30075 0.079,0.24958 c 0.21172,0.66951 0.59346,1.06964 1.16893,1.22473 0.33721,0.0909 0.99867,0.007 1.28416,-0.1638 1.1068,-0.6604 1.13125,-2.04295 0.0739,-4.18216 -0.35037,-0.7089 -2.43817,-4.36581 -2.56263,-4.48863 -7.6e-4,-7.7e-4 -0.002,-8e-4 -0.004,-5e-4 z m 12.55736,15.5427 c -0.0823,0.0387 -2.25896,3.72716 -2.8856,4.88964 -1.58972,2.94902 -1.95625,4.67757 -1.25367,5.90817 0.43984,0.77044 1.08553,1.12771 1.96061,1.08622 0.95952,-0.0458 1.56446,-0.50776 1.95697,-1.495 l 0.24029,-0.6046 0.1261,0.47437 c 0.17545,0.65934 0.61193,1.19698 1.18288,1.45627 h 10e-4 c 0.95517,0.43323 2.15405,0.10318 2.73576,-0.75399 0.69207,-1.01975 0.54044,-2.43668 -0.50488,-4.71392 -0.45548,-0.99232 -3.47281,-6.28793 -3.55949,-6.24716 z m -33.51165,3.95791 c -0.0315,0.002 -0.14938,0.1702 -0.26148,0.37465 -0.11211,0.20441 -0.29126,0.51038 -0.39841,0.67955 -0.68146,1.07577 -1.70252,2.93254 -2.22727,4.0504 -0.25183,0.5365 -0.48643,1.61264 -0.45733,2.10167 0.05,0.84328 0.54092,1.48262 1.25833,1.6397 0.89736,0.19648 1.54197,-0.1842 1.93321,-1.14051 l 0.17777,-0.43355 0.0703,0.32401 c 0.10197,0.46945 0.51617,0.99171 0.92553,1.16684 1.03794,0.4441 2.14916,-0.21852 2.35075,-1.40248 0.12845,-0.75443 -0.54195,-2.65721 -1.48,-4.20026 -0.0823,-0.13536 -0.52896,-0.90265 -0.99219,-1.70481 -0.46323,-0.80214 -0.86762,-1.45696 -0.89919,-1.45521 z m 20.92328,0.0289 c -0.10152,0.003 -2.38583,4.00775 -2.72129,4.77076 -0.64429,1.4656 -0.79195,2.51155 -0.45371,3.20807 0.61278,1.2619 2.42319,1.21015 2.94402,-0.0837 0.0955,-0.23728 0.19598,-0.43257 0.22323,-0.43408 0.0272,-0.002 0.10782,0.15409 0.17931,0.3452 0.17814,0.47636 0.43857,0.78063 0.817,0.95446 0.45318,0.2082 1.15599,0.15954 1.57356,-0.10853 0.17828,-0.11443 0.42963,-0.37698 0.55861,-0.58394 0.44405,-0.71263 0.2862,-1.83552 -0.49299,-3.50057 -0.40291,-0.8609 -2.53699,-4.57067 -2.62774,-4.56766 z m 12.47418,10.97143 c -0.12573,-3e-5 -0.25207,0.005 -0.37881,0.0139 -0.8447,0.0604 -1.69658,0.32001 -2.35952,0.74777 -0.42347,0.2732 -1.17412,1.08674 -1.47125,1.59472 -0.50601,0.86516 -0.65219,2.26851 -0.3452,3.30935 0.36896,1.25087 1.33514,2.34024 2.50582,2.82464 0.78385,0.32433 1.23433,0.40698 2.00297,0.3664 1.30548,-0.0692 2.19448,-0.40942 2.90833,-1.11157 l 0.38449,-0.37775 -0.0305,0.52917 c -0.0781,1.36176 -0.46879,2.52603 -1.10535,3.29488 -0.84903,1.02548 -2.17408,1.32244 -3.44681,0.77256 -0.49829,-0.21529 -1.13451,-0.84645 -1.42317,-1.41232 -0.19812,-0.38843 -0.24619,-0.43188 -0.41291,-0.37155 -0.35409,0.12819 -1.26418,0.55443 -1.33273,0.62425 -0.11493,0.11708 0.70522,1.39566 1.2056,1.87947 0.63537,0.61429 1.0391,0.84773 1.88775,1.09141 h 5.3e-4 c 0.60471,0.17364 0.84778,0.1982 1.56165,0.15864 1.26082,-0.0697 2.18654,-0.44063 2.96831,-1.18959 0.90503,-0.86704 1.61224,-2.59961 1.80504,-4.42196 0.1107,-1.04984 8e-5,-3.03559 -0.22323,-3.9956 -0.51813,-2.22766 -1.83057,-3.75415 -3.61013,-4.19923 -0.34425,-0.0861 -0.71377,-0.1275 -1.09088,-0.12763 z m 0.0806,1.78178 c 0.32827,-8.7e-4 0.50196,0.0458 0.82163,0.1814 0.29618,0.1256 0.67496,0.387 0.9457,0.65214 1.26447,1.23844 0.97544,3.31828 -0.5824,4.19045 -0.36443,0.20394 -0.60227,0.27022 -1.14411,0.31938 -0.72967,0.0662 -0.90178,0.0414 -1.48778,-0.2181 -1.68238,-0.74512 -2.1345,-2.82588 -0.90744,-4.17597 0.59584,-0.65559 1.06768,-0.87964 1.96371,-0.9343 0.15492,-0.009 0.28128,-0.0147 0.39069,-0.015 z" />
    <path
       style="fill:#000000;stroke-width:0.0846667"
       id="path389"
       d="" />
  </g>
</svg>
