<?xml version="1.0" encoding="UTF-8" standalone="no"?>
<svg
   sodipodi:docname="6S.svg"
   id="svg8"
   version="1.1"
   viewBox="0 0 63.209435 88.282684"
   height="88.282684mm"
   width="63.209435mm"
   inkscape:version="1.1.1 (1:1.1+202109281949+c3084ef5ed)"
   inkscape:export-filename="/home/doug/k40/52Cards/6S.png"
   inkscape:export-xdpi="96"
   inkscape:export-ydpi="96"
   xmlns:inkscape="http://www.inkscape.org/namespaces/inkscape"
   xmlns:sodipodi="http://sodipodi.sourceforge.net/DTD/sodipodi-0.dtd"
   xmlns="http://www.w3.org/2000/svg"
   xmlns:svg="http://www.w3.org/2000/svg"
   xmlns:rdf="http://www.w3.org/1999/02/22-rdf-syntax-ns#"
   xmlns:cc="http://creativecommons.org/ns#"
   xmlns:dc="http://purl.org/dc/elements/1.1/">
  <defs
     id="defs2">
    <marker
       style="overflow:visible"
       id="marker2995"
       refX="0"
       refY="0"
       orient="auto"
       inkscape:stockid="Arrow1Lstart"
       inkscape:isstock="true">
      <path
         transform="matrix(0.8,0,0,0.8,10,0)"
         style="fill:#000000;fill-opacity:1;fill-rule:evenodd;stroke:#000000;stroke-width:1pt;stroke-opacity:1"
         d="M 0,0 5,-5 -12.5,0 5,5 Z"
         id="path2993" />
    </marker>
    <marker
       style="overflow:visible"
       id="marker2985"
       refX="0"
       refY="0"
       orient="auto"
       inkscape:stockid="Arrow1Lstart"
       inkscape:isstock="true">
      <path
         transform="matrix(0.8,0,0,0.8,10,0)"
         style="fill:#000000;fill-opacity:1;fill-rule:evenodd;stroke:#000000;stroke-width:1pt;stroke-opacity:1"
         d="M 0,0 5,-5 -12.5,0 5,5 Z"
         id="path2983" />
    </marker>
    <marker
       style="overflow:visible"
       id="marker2791"
       refX="0"
       refY="0"
       orient="auto"
       inkscape:stockid="Arrow1Lstart"
       inkscape:isstock="true">
      <path
         transform="matrix(0.8,0,0,0.8,10,0)"
         style="fill:#000000;fill-opacity:1;fill-rule:evenodd;stroke:#000000;stroke-width:1pt;stroke-opacity:1"
         d="M 0,0 5,-5 -12.5,0 5,5 Z"
         id="path2789" />
    </marker>
    <marker
       style="overflow:visible"
       id="marker2781"
       refX="0"
       refY="0"
       orient="auto"
       inkscape:stockid="Arrow1Lstart"
       inkscape:isstock="true">
      <path
         transform="matrix(0.8,0,0,0.8,10,0)"
         style="fill:#000000;fill-opacity:1;fill-rule:evenodd;stroke:#000000;stroke-width:1pt;stroke-opacity:1"
         d="M 0,0 5,-5 -12.5,0 5,5 Z"
         id="path2779" />
    </marker>
    <marker
       style="overflow:visible"
       id="marker2417"
       refX="0"
       refY="0"
       orient="auto"
       inkscape:stockid="Arrow1Lstart"
       inkscape:isstock="true">
      <path
         transform="matrix(0.8,0,0,0.8,10,0)"
         style="fill:#000000;fill-opacity:1;fill-rule:evenodd;stroke:#000000;stroke-width:1pt;stroke-opacity:1"
         d="M 0,0 5,-5 -12.5,0 5,5 Z"
         id="path2415" />
    </marker>
    <marker
       style="overflow:visible"
       id="marker2383"
       refX="0"
       refY="0"
       orient="auto"
       inkscape:stockid="Arrow1Lstart"
       inkscape:isstock="true">
      <path
         transform="matrix(0.8,0,0,0.8,10,0)"
         style="fill:#000000;fill-opacity:1;fill-rule:evenodd;stroke:#000000;stroke-width:1pt;stroke-opacity:1"
         d="M 0,0 5,-5 -12.5,0 5,5 Z"
         id="path2381" />
    </marker>
    <marker
       style="overflow:visible"
       id="marker2355"
       refX="0"
       refY="0"
       orient="auto"
       inkscape:stockid="Arrow1Lstart"
       inkscape:isstock="true">
      <path
         transform="matrix(0.8,0,0,0.8,10,0)"
         style="fill:#000000;fill-opacity:1;fill-rule:evenodd;stroke:#000000;stroke-width:1pt;stroke-opacity:1"
         d="M 0,0 5,-5 -12.5,0 5,5 Z"
         id="path2353" />
    </marker>
    <marker
       style="overflow:visible"
       id="Arrow1Lstart"
       refX="0"
       refY="0"
       orient="auto"
       inkscape:stockid="Arrow1Lstart"
       inkscape:isstock="true">
      <path
         transform="matrix(0.8,0,0,0.8,10,0)"
         style="fill:#000000;fill-opacity:1;fill-rule:evenodd;stroke:#000000;stroke-width:1pt;stroke-opacity:1"
         d="M 0,0 5,-5 -12.5,0 5,5 Z"
         id="path2071" />
    </marker>
  </defs>
  <sodipodi:namedview
     id="base"
     pagecolor="#ffffff"
     bordercolor="#666666"
     borderopacity="1.0"
     inkscape:pageopacity="0.0"
     inkscape:pageshadow="2"
     inkscape:zoom="1.5044948"
     inkscape:cx="86.74008"
     inkscape:cy="166.50107"
     inkscape:document-units="mm"
     inkscape:current-layer="layer1"
     inkscape:document-rotation="0"
     showgrid="false"
     inkscape:snap-smooth-nodes="false"
     inkscape:object-nodes="false"
     inkscape:window-width="1366"
     inkscape:window-height="712"
     inkscape:window-x="0"
     inkscape:window-y="0"
     inkscape:window-maximized="1"
     inkscape:object-paths="false"
     inkscape:snap-intersection-paths="false"
     inkscape:snap-midpoints="false"
     inkscape:snap-others="false"
     inkscape:pagecheckerboard="0"
     showguides="true"
     inkscape:guide-bbox="true"
     inkscape:snap-bbox="true"
     showborder="false"
     fit-margin-top="0"
     fit-margin-left="0"
     fit-margin-right="0"
     fit-margin-bottom="0" />
  <metadata
     id="metadata5">
    <rdf:RDF>
      <cc:Work
         rdf:about="">
        <dc:format>image/svg+xml</dc:format>
        <dc:type
           rdf:resource="http://purl.org/dc/dcmitype/StillImage" />
      </cc:Work>
    </rdf:RDF>
  </metadata>
  <g
     inkscape:label="Layer 1"
     inkscape:groupmode="layer"
     id="layer1"
     transform="translate(315.76751,231.81334)">
    <path
       style="fill:#000000;stroke-width:0.0846667"
       id="path389"
       d="" />
    <path
       id="path2372-6"
       style="fill:#000000;fill-opacity:1;stroke:none;stroke-width:0.264999;stroke-miterlimit:4;stroke-dasharray:none;stroke-opacity:1"
       d="m -310.20876,-231.80954 v 0 c -0.78931,0.003 -1.44587,0.0101 -1.87638,0.019 v 0 c -0.28699,0.006 -0.47376,0.0132 -0.53176,0.0222 -0.71273,0.10705 -1.36622,0.48942 -2.06084,1.20562 -0.35993,0.371 -0.71326,0.83103 -0.82372,1.07228 l -0.19378,0.42273 -0.046,0.97874 c -0.0249,0.53811 -0.034,3.07406 -0.019,5.63531 0.0148,2.56127 0.0236,6.71444 0.0206,9.22941 -0.003,2.51499 0.005,6.57323 0.019,9.01806 0.014,2.44485 0.0172,5.11212 0.009,5.92727 -0.01,0.81518 -0.004,3.48247 0.0109,5.9273 0.0148,2.44483 0.0236,5.32167 0.0196,6.39289 -0.004,1.07125 0.003,3.75714 0.014,5.96913 0.0119,2.21203 0.0175,4.9175 0.0124,6.01205 -0.005,1.09453 -0.005,3.47644 0.003,5.2927 0.0285,9.44306 0.031,15.02884 0.007,16.1308 -0.0148,0.67556 -0.008,2.34826 0.0156,3.71708 l 0.0408,2.48875 0.19222,0.38084 c 0.4037,0.80052 1.52696,1.79313 2.36834,2.09238 l 0.45992,0.16383 6.07042,0.0238 c 3.33875,0.013 7.2708,0.0254 8.73797,0.0284 1.46706,0.003 5.5064,0.0143 8.9762,0.0243 3.46993,0.01 7.71864,0.0164 9.44182,0.0135 1.72307,-0.003 3.80007,0.003 4.6152,0.0103 0.81518,0.008 3.61574,0.0236 6.22393,0.0315 2.60815,0.008 5.96167,0.0246 7.45225,0.0357 1.49048,0.0119 3.37431,0.0164 4.18579,0.0103 l 1.47537,-0.0114 0.62735,-0.32248 v 0 c 0.76044,-0.39121 1.65283,-1.26248 1.97919,-1.93164 l 0.22429,-0.45889 v -6.64766 c 0,-3.65598 -0.008,-9.56212 -0.0164,-13.12479 -0.009,-3.56266 -0.0135,-7.48718 -0.009,-8.72143 0.005,-1.23426 0.003,-4.91106 -0.004,-8.17107 -0.0151,-7.24781 -0.023,-15.79624 -0.018,-19.26445 0.003,-1.42052 -0.003,-5.25013 -0.0114,-8.51008 -0.008,-3.25996 -0.0177,-8.66193 -0.0196,-12.00494 l -0.004,-6.07873 -0.23408,-0.45783 c -0.49138,-0.96422 -1.47195,-1.92828 -2.27221,-2.23345 -0.46265,-0.17646 -1.06088,-0.19294 -6.91484,-0.19794 -2.70131,-0.003 -5.7691,-0.01 -6.81714,-0.0175 -1.04799,-0.007 -4.22955,-0.0124 -7.07038,-0.0114 -2.84092,0 -5.71834,-0.008 -6.39393,-0.0196 -0.67548,-0.0119 -2.79,-0.0175 -4.69945,-0.0114 -1.90936,0.005 -3.83405,0 -4.27675,-0.0145 -0.44264,-0.014 -3.22461,-0.0286 -6.18204,-0.0326 -2.95749,-0.004 -7.47329,-0.0182 -10.03504,-0.0315 -0.96065,-0.005 -1.88237,-0.006 -2.67168,-0.003 z m 6.85643,0.6568 v 0 c 4.23778,-0.006 9.47868,-0.006 14.81358,0.003 2.11976,0.003 8.02322,0.007 13.12272,0.008 5.09926,0 11.6726,0.003 14.60582,0.006 l 5.19142,0.004 0.42582,0.22479 c 0.57552,0.30258 1.36292,1.09054 1.59525,1.55237 l 0.18965,0.3793 0.045,4.60539 c 0.0366,3.78222 0.0897,12.61557 0.13073,20.70471 0.041,8.0891 0.069,15.494 0.0569,16.23671 -0.0143,0.88442 0.0177,7.87707 0.0682,15.67759 0.0526,8.12702 0.0842,14.33264 0.094,18.55081 0.005,2.1091 0.004,3.72219 -0.003,4.82815 -0.003,0.55295 -0.006,0.97909 -0.0119,1.27537 -0.003,0.14814 -0.007,0.26405 -0.01,0.34364 -0.003,0.0796 -0.0161,0.15922 -0.003,0.0822 -0.0629,0.3456 -0.41193,0.95694 -0.90228,1.40816 -0.68705,0.63225 -1.18692,0.88996 -1.79885,0.98444 -0.22424,0.0346 -0.72649,0.0718 -1.15033,0.0879 -0.21191,0.008 -0.40815,0.0122 -0.54465,0.0103 -0.06,0 -0.10167,-0.004 -0.12713,-0.006 -0.005,-0.003 -0.0156,-0.004 -0.0156,-0.004 0,-1.4e-4 -0.048,-0.0101 -0.0605,-0.0119 -0.0251,-0.004 -0.0347,-0.005 -0.045,-0.006 -0.0206,-0.003 -0.0353,0 -0.0512,-0.003 -0.0319,0 -0.0691,-0.003 -0.11679,-0.004 -0.0954,-0.003 -0.23058,-0.004 -0.40256,-0.006 -0.34398,-0.003 -0.83508,-0.006 -1.44126,-0.008 -1.21235,-0.004 -2.87864,-0.005 -4.70721,-0.003 -3.65506,0.005 -8.32516,0.006 -10.37301,0.004 -5.82652,-0.006 -12.05672,-0.005 -19.00762,0.006 -3.51562,0.005 -9.19493,0.0124 -12.61731,0.014 l -6.09161,0.004 -0.47699,-0.22426 c -0.54721,-0.25805 -1.2758,-0.9307 -1.67172,-1.5844 l -0.2186,-0.35915 -0.15039,-17.41239 c -0.14369,-16.53653 -0.28768,-44.22915 -0.30281,-58.63672 l -0.006,-6.30451 0.26355,-0.53123 c 0.45152,-0.91115 1.62055,-1.77364 2.31045,-1.85158 -0.0397,0.004 0.0454,-0.003 0.1483,-0.004 0.10692,-0.003 0.25778,-0.004 0.44752,-0.006 1.32342,-0.0167 4.55811,-0.029 8.79586,-0.0351 z m -4.50516,3.60805 c -2.72706,-0.003 -4.53112,1.89145 -5.02293,5.27254 -0.12475,0.85748 -0.0429,3.28721 0.14004,4.15065 0.48808,2.30256 1.66458,3.84773 3.31761,4.35787 1.08808,0.33581 2.06658,0.3253 3.21067,-0.0346 1.66732,-0.52459 2.86872,-2.07491 3.02874,-3.90776 0.059,-0.67575 -0.18632,-1.77112 -0.5302,-2.36628 -0.39521,-0.68408 -1.22629,-1.47399 -1.90529,-1.81125 -0.8595,-0.42696 -1.36287,-0.52719 -2.38281,-0.4744 -1.25304,0.0648 -2.02274,0.36481 -2.84015,1.10691 l -0.37412,0.33951 0.0605,-0.77099 c 0.14602,-1.87386 0.87918,-3.27711 2.00607,-3.83646 0.24614,-0.12219 0.59711,-0.20029 1.02164,-0.22791 1.3948,-0.0908 2.20519,0.42724 3.08716,1.97249 0.0781,0.13682 0.15131,0.11631 0.87489,-0.24339 0.89617,-0.44548 0.87808,-0.37523 0.31832,-1.22163 -0.99528,-1.50487 -2.38577,-2.3037 -4.0101,-2.30529 z m 0.0538,6.90605 c 0.62037,-0.003 0.78928,0.0281 1.22627,0.2346 0.84055,0.39706 1.31302,0.97687 1.53323,1.88257 0.12319,0.5086 0.1225,0.59647 -0.006,1.11 -0.2968,1.18531 -1.24655,1.98546 -2.50941,2.11307 -1.1085,0.11197 -2.27092,-0.53882 -2.75899,-1.54514 v 0 c -0.52134,-1.07484 -0.26313,-2.30269 0.65783,-3.12901 0.54726,-0.49099 1.02132,-0.66099 1.85674,-0.66609 z m 40.08229,5.3981 -0.83715,0.0169 c -0.46042,0.009 -1.50352,0.0119 -2.31872,0.006 -0.81524,-0.007 -4.62638,0 -8.46873,0.0169 -3.84228,0.0159 -7.97661,0.0302 -9.18755,0.0315 -2.39044,0.003 -10.15217,0.018 -11.28615,0.0228 v 0 c -0.38539,0 -0.72295,0.0259 -0.75033,0.0543 -0.078,0.0811 -0.083,0.48012 -0.0558,4.25194 0.0135,1.95598 0.0271,4.60412 0.031,5.88491 0.004,1.28082 0.0257,4.86281 0.048,7.95973 0.023,3.09692 0.0399,6.44977 0.0388,7.45122 0,1.00145 0.009,3.28843 0.0238,5.08135 0.014,1.79292 0.027,4.11708 0.0279,5.16506 0,1.04796 0.0167,3.52441 0.0357,5.50352 0.019,1.97916 0.0332,4.3797 0.032,5.33458 0,0.95486 0.005,3.194 0.0146,4.97539 l 0.0175,3.23858 0.58084,-0.0114 c 0.31956,-0.006 1.34313,-0.009 2.27481,-0.005 0.93162,0.004 4.76128,-0.005 8.51059,-0.019 3.74914,-0.0143 7.61714,-0.0233 8.59533,-0.0206 0.97819,0.003 3.07398,0 4.65759,-0.003 1.58359,-0.004 4.04207,-0.007 5.46272,-0.006 v 0 c 1.42063,0 2.6185,-0.005 2.66237,-0.0119 0.16793,-0.0282 0.19074,-0.5675 0.14624,-3.07062 -0.027,-1.42161 -0.0353,-2.60913 -0.019,-2.63861 0.0164,-0.0296 0.008,-2.18728 -0.019,-4.79504 -0.0268,-2.60779 -0.0371,-4.95094 -0.0217,-5.20745 0.0154,-0.25649 0.0116,-2.16207 -0.009,-4.23437 -0.035,-3.69726 -0.0502,-6.19281 -0.0661,-10.83807 -0.004,-1.28082 -0.0164,-3.60548 -0.0274,-5.16559 -0.0111,-1.56012 -0.023,-3.8466 -0.0269,-5.08082 -0.004,-1.23423 -0.0196,-3.69208 -0.0341,-5.46169 -0.0145,-1.76964 -0.0282,-4.38912 -0.0294,-5.82134 z m -6.29574,0.3142 v 0 c 0.78335,0 1.27617,0 1.28881,0.008 0.0254,0.014 1.04363,0.0127 2.26291,-0.003 1.21914,-0.0151 2.26195,0 2.31666,0.0315 0.075,0.0443 0.10269,0.80851 0.11057,3.05305 0.005,1.64669 0.0169,4.17454 0.0254,5.61827 0.0344,5.84766 0.0423,7.87029 0.0393,9.52653 -0.003,0.95491 0.008,3.16495 0.0212,4.91133 0.013,1.74638 0.0193,3.76603 0.014,4.4881 -0.006,0.7221 0.005,2.98948 0.0254,5.03846 0.0196,2.04896 0.031,4.29673 0.0233,4.99557 -0.008,0.69882 0.0106,3.44133 0.0413,6.0942 0.0308,2.65288 0.0416,4.84847 0.0233,4.87876 -0.0183,0.0303 -0.014,1.264 0.018,2.74143 0.0272,1.47756 0.0303,2.74021 0.007,2.80604 h 0.005 c -0.0326,0.0907 -0.23289,0.12406 -0.82473,0.13695 -0.42961,0.009 -0.79762,0.003 -0.81701,-0.0146 -0.0198,-0.0169 -1.90288,-0.0161 -4.18476,0 -2.28195,0.0175 -4.41552,0.0236 -4.74183,0.0135 -0.32618,-0.0101 -2.13643,-0.007 -4.02249,0.006 -1.88616,0.0135 -3.94346,0.0191 -4.57234,0.0124 -0.62897,-0.007 -3.73492,0.003 -6.9019,0.0196 -3.16688,0.0175 -5.84705,0.0161 -5.95572,-0.004 l -0.1979,-0.0351 0.0108,-1.66968 c 0.005,-0.91826 -0.005,-3.30835 -0.0243,-5.31077 -0.0196,-2.00242 -0.0374,-4.53612 -0.0382,-5.63068 -0.003,-1.09453 -0.0156,-3.53327 -0.0326,-5.4193 -0.0172,-1.88603 -0.0354,-4.45794 -0.0408,-5.71542 -0.005,-1.25746 -0.0164,-3.56251 -0.0254,-5.12268 -0.009,-1.56014 -0.0217,-4.76126 -0.03,-7.11327 -0.008,-2.35199 -0.0251,-5.85756 -0.0403,-7.79021 -0.041,-5.42538 -0.0259,-10.33192 0.0331,-10.43194 0.0265,-0.045 0.238,-0.068 0.62942,-0.0687 v 0 c 0.13049,1.6e-4 0.28125,0.003 0.45164,0.007 0.56502,0.0156 2.68465,0.0132 4.71033,-0.006 2.02578,-0.0191 3.93083,-0.023 4.23383,-0.009 0.30308,0.0145 2.39898,0.0106 4.6576,-0.009 2.25859,-0.0196 4.12583,-0.0259 4.14911,-0.0135 0.0236,0.0124 1.96731,0.009 4.31912,-0.009 1.17588,-0.009 2.25001,-0.0138 3.03339,-0.0151 z m 0.52763,3.14814 c -0.005,-8e-5 -0.0103,0 -0.0151,0.003 v 0 c -0.0251,0.007 -0.0398,0.036 -0.0398,0.0889 0,0.0898 -1.10707,1.72932 -1.9146,2.83652 -0.67514,0.92559 -1.13925,1.7181 -1.33689,2.2815 -0.21627,0.61646 -0.19839,1.1947 0.0522,1.6981 0.57192,1.14922 2.17472,1.31167 2.91611,0.29559 l 0.25992,-0.35708 v 0.29559 c -0.003,0.47427 -0.31961,1.58533 -0.63666,2.22414 -0.16111,0.32462 -0.28541,0.5977 -0.27543,0.60772 0.009,0.0101 0.29289,-0.0241 0.62941,-0.0749 0.45591,-0.0689 0.74578,-0.0668 1.13636,0.007 0.28829,0.0542 0.5397,0.083 0.55915,0.0636 0.0196,-0.0193 -0.0472,-0.15203 -0.1483,-0.29509 -0.29663,-0.41958 -0.57923,-1.21304 -0.71417,-2.00298 -0.0692,-0.40481 -0.12567,-0.75623 -0.12557,-0.78184 8e-5,-0.0257 0.13999,0.11808 0.31107,0.31935 0.37653,0.44297 0.72022,0.59888 1.3126,0.59894 1.56332,0 2.20594,-1.43293 1.39009,-3.09801 -0.2836,-0.57888 -0.58554,-1.00872 -2.19781,-3.12849 -0.32097,-0.42198 -0.67818,-0.94702 -0.79375,-1.16686 -0.13118,-0.24945 -0.28657,-0.41275 -0.3674,-0.41391 z m -21.88032,0.19325 v 0 c -0.034,0 -0.20175,0.23866 -0.37259,0.52864 -0.17087,0.28998 -0.75073,1.13694 -1.28934,1.88206 -1.02523,1.41827 -1.53281,2.25526 -1.72858,2.85099 -0.0645,0.19619 -0.10744,0.60897 -0.0961,0.92295 0.0172,0.47138 0.0633,0.63034 0.2718,0.93276 0.31705,0.45964 0.85966,0.74689 1.41283,0.74877 0.49617,0 0.83415,-0.15623 1.31982,-0.61804 l 0.36742,-0.34986 -0.0537,0.33901 c -0.17817,1.12102 -0.26826,1.44683 -0.56174,2.04328 -0.17925,0.36433 -0.31443,0.67302 -0.30125,0.68627 0.0132,0.0132 0.29006,-0.0193 0.61597,-0.0718 0.42119,-0.0681 0.73666,-0.0701 1.09088,-0.008 0.56745,0.10033 0.69263,0.0663 0.5085,-0.13848 -0.3066,-0.34115 -0.89268,-2.07941 -0.88781,-2.63239 0.003,-0.21378 0.006,-0.21238 0.27493,0.094 0.43474,0.4952 0.68551,0.61423 1.29244,0.61032 1.28315,-0.008 2.02774,-1.02098 1.70119,-2.31408 -0.1805,-0.71471 -0.51054,-1.31013 -1.33067,-2.40038 -1.38004,-1.83456 -1.84198,-2.47697 -2.00557,-2.7895 -0.0916,-0.17494 -0.19441,-0.31808 -0.22841,-0.31729 z m -12.63592,1.14052 v 0 c -0.0308,-1.1e-4 -0.12414,0.14192 -0.20775,0.31625 -0.19981,0.41654 -1.13723,1.79787 -2.0624,3.03911 -1.64783,2.21068 -2.32318,3.37162 -2.54455,4.37182 v 0 c -0.14629,0.66307 -0.1482,0.83518 -0.0124,1.42161 0.27533,1.1884 1.14819,1.84652 2.45153,1.84898 0.84423,0.003 1.69261,-0.51493 2.02157,-1.23041 0.39404,-0.85702 0.12568,1.2782 -0.32607,2.59468 -0.11912,0.34706 -0.3542,0.8522 -0.52192,1.12242 -0.16772,0.27019 -0.2876,0.50805 -0.26717,0.52864 0.0204,0.0206 0.167,-0.009 0.32607,-0.0641 0.32705,-0.11457 2.12534,-0.13761 2.69028,-0.0351 l 0.36999,0.0677 -0.1819,-0.27906 c -0.33583,-0.51432 -0.7425,-1.37642 -0.91157,-1.93167 -0.17155,-0.56351 -0.47143,-2.19443 -0.41391,-2.25155 0.0175,-0.0175 0.16214,0.16714 0.32142,0.41031 0.17616,0.2689 0.45209,0.54237 0.70487,0.69866 0.36145,0.22358 0.51025,0.26141 1.14205,0.28837 0.68569,0.0293 0.75695,0.0148 1.27021,-0.25011 0.93366,-0.48202 1.33779,-1.26439 1.26243,-2.44483 -0.0748,-1.17268 -0.65928,-2.22406 -2.80138,-5.03946 -0.63936,-0.84043 -1.40758,-1.90035 -1.70738,-2.35543 -0.2998,-0.45503 -0.57071,-0.82725 -0.6015,-0.82733 z m 34.71778,17.72502 c -0.0111,5e-5 -0.0212,0.003 -0.03,0.007 -0.0236,0.0132 -0.038,0.0438 -0.0382,0.0951 -2.4e-4,0.11592 -1.05532,1.67775 -1.62782,2.41017 -0.76531,0.9792 -1.34581,1.94442 -1.61748,2.68875 -0.30565,0.83809 -0.17037,1.59139 0.38293,2.12802 0.79573,0.77168 2.01467,0.679 2.63705,-0.2005 l 0.21807,-0.30801 -0.0579,0.61548 c -0.066,0.70128 -0.2704,1.34927 -0.64235,2.03036 -0.14116,0.25857 -0.24326,0.48368 -0.22633,0.50075 0.0169,0.0169 0.19783,-0.007 0.40204,-0.0532 0.4767,-0.10777 1.22314,-0.10819 1.59369,0 0.15944,0.0464 0.3017,0.0728 0.31575,0.0589 0.014,-0.014 -0.12596,-0.32819 -0.31056,-0.69815 -0.32542,-0.65202 -0.51446,-1.28265 -0.62167,-2.07119 l -0.0522,-0.38087 0.2718,0.32917 c 0.7275,0.88302 2.09156,0.85839 2.81999,-0.0511 0.24497,-0.30591 0.26021,-0.36711 0.26201,-1.0573 0.003,-0.69816 -0.0159,-0.76526 -0.35501,-1.41179 -0.19606,-0.37322 -0.5012,-0.86935 -0.678,-1.10279 -1.63272,-2.15569 -2.23811,-2.98794 -2.35439,-3.23392 -0.0853,-0.18045 -0.21342,-0.2949 -0.29144,-0.29453 z m -21.94751,0.19378 c -0.0294,0.003 -0.05,0.0254 -0.0501,0.0599 0,0.10429 -0.94498,1.50566 -1.91773,2.8448 -0.74504,1.02571 -1.16554,1.74976 -1.37302,2.36574 -0.30049,0.89196 0.0369,1.97681 0.72448,2.33061 0.82034,0.42209 1.60372,0.28263 2.20141,-0.39172 0.38539,-0.43479 0.39166,-0.41656 0.20878,0.61135 -0.13575,0.76285 -0.37491,1.42859 -0.66299,1.84433 -0.20802,0.30009 -0.15891,0.34711 0.24805,0.23564 0.39732,-0.10856 1.13956,-0.11078 1.59316,-0.004 0.18484,0.0436 0.34597,0.0694 0.35814,0.0574 0.0122,-0.0122 -0.11242,-0.2776 -0.27699,-0.59016 -0.5646,-1.07211 -0.97851,-3.14063 -0.43617,-2.17971 0.22339,0.39581 0.7583,0.62473 1.37512,0.58756 1.58261,-0.0953 2.16683,-1.48368 1.32757,-3.15537 -0.32602,-0.64931 -1.83615,-2.6937 -1.94201,-2.62877 -0.044,0.0271 -0.0799,-0.006 -0.0796,-0.0723 0,-0.14089 -1.14409,-1.86798 -1.26609,-1.91047 -0.0114,-0.004 -0.0222,-0.006 -0.032,-0.005 z m 36.34198,13.67978 c -0.0228,-0.003 -0.0547,0.007 -0.0956,0.0222 -0.53485,0.20778 -1.80445,0.26395 -2.59625,0.11472 -0.26905,-0.0504 -0.50662,-0.0756 -0.5276,-0.0548 -0.0209,0.0209 0.0766,0.20947 0.21704,0.4191 0.3122,0.46601 0.69564,1.31649 0.8728,1.93476 0.1532,0.53441 0.40603,1.9549 0.35658,2.00404 -0.0185,0.0182 -0.11962,-0.0926 -0.22479,-0.24702 -0.35057,-0.51461 -0.62473,-0.76766 -1.05111,-0.97102 -1.23743,-0.59023 -2.84445,0.0752 -3.31192,1.3715 -0.0635,0.17589 -0.1179,0.57004 -0.12094,0.87593 -0.0127,1.26058 0.53983,2.3469 2.51251,4.93871 0.80595,1.05886 2.26647,3.10629 2.50166,3.50726 0.0835,0.14229 0.11615,0.11462 0.31263,-0.26352 0.22757,-0.4381 1.20002,-1.85981 2.43295,-3.55587 1.61438,-2.22089 2.14178,-3.26925 2.20864,-4.39767 0.056,-0.94509 -0.11618,-1.45227 -0.68678,-2.0257 -0.50049,-0.503 -0.97245,-0.67866 -1.82573,-0.68059 -0.83288,-0.003 -1.4659,0.36246 -1.96371,1.13067 -0.29409,0.45384 -0.30411,0.37426 -0.11316,-0.86349 0.15438,-1.00103 0.46654,-1.95133 0.86092,-2.61898 0.24755,-0.41913 0.32838,-0.60455 0.26149,-0.63561 -0.006,-0.003 -0.0122,-0.004 -0.0196,-0.005 z m -12.99612,5.11492 c -0.0598,0.003 -0.18291,0.0277 -0.31729,0.0641 -0.40876,0.11192 -1.25108,0.11356 -1.63245,0.003 -0.15944,-0.0464 -0.30171,-0.0728 -0.31576,-0.0589 -0.014,0.014 0.12541,0.32816 0.31007,0.69816 0.32475,0.65069 0.51474,1.27656 0.62788,2.07065 l 0.0537,0.38087 -0.27543,-0.32919 c -0.45953,-0.54946 -1.13094,-0.75536 -1.94305,-0.59582 -0.3497,0.0687 -0.97332,0.67083 -1.09244,1.05524 v 0 c -0.16206,0.523 -0.0583,1.28786 0.26612,1.95699 0.31628,0.65222 0.581,1.03852 2.02676,2.96106 0.50326,0.66923 0.97449,1.34083 1.04749,1.49241 0.12083,0.25109 0.35488,0.3829 0.35552,0.2005 0,-0.11084 0.94284,-1.51665 1.61282,-2.40552 0.7974,-1.05796 1.4374,-2.09997 1.63091,-2.65617 0.42334,-1.21682 -0.0294,-2.3031 -1.08987,-2.61536 -0.75189,-0.2214 -1.45716,-0.003 -1.88515,0.58396 l -0.24546,0.33589 v -0.29509 c 0.003,-0.47424 0.31959,-1.58533 0.63667,-2.22414 0.16113,-0.32464 0.2798,-0.60322 0.26405,-0.61907 -0.004,-0.004 -0.0167,-0.005 -0.0367,-0.004 z m -21.99452,0.19794 c -0.0629,0.003 -0.1908,0.0265 -0.32867,0.0641 -0.20204,0.0555 -0.6586,0.0713 -1.15496,0.0398 l -0.82166,-0.0517 0.25167,0.39897 c 0.30498,0.48447 0.66236,1.58623 0.72038,2.22104 l 0.0429,0.46612 -0.21654,-0.30954 c -0.56351,-0.80584 -1.85951,-0.89458 -2.58175,-0.17724 -0.17438,0.17319 -0.36187,0.44606 -0.4165,0.60666 -0.0546,0.1606 -0.0881,0.54499 -0.0744,0.85421 0.0353,0.79758 0.40719,1.50159 1.73945,3.29697 0.60579,0.8164 1.27381,1.74191 1.48466,2.05621 0.3412,0.50863 0.53138,0.64984 0.53226,0.39428 8e-5,-0.12462 0.6672,-1.12969 1.61851,-2.43911 1.3839,-1.90487 1.70743,-2.55561 1.72185,-3.46491 0.0119,-0.75655 -0.28972,-1.32146 -0.85936,-1.60922 -0.84408,-0.42637 -1.85058,-0.19328 -2.29548,0.53073 l -0.16176,0.26252 v -0.26771 c 0,-0.56779 0.26876,-1.61848 0.56377,-2.21276 0.16902,-0.34052 0.29231,-0.63513 0.2739,-0.65371 -0.005,-0.004 -0.0183,-0.006 -0.0393,-0.006 z m 33.50598,11.76826 c -2.22387,-0.004 -4.0635,1.36097 -4.60129,3.4122 -0.24323,0.92782 -0.0161,2.42121 0.49094,3.22824 0.89159,1.41869 2.23747,2.1573 3.94083,2.16315 1.35665,0.005 2.28457,-0.32716 3.05565,-1.09294 l 0.43045,-0.42738 -0.003,0.27958 c -0.003,0.5637 -0.25812,1.91964 -0.46198,2.45566 -0.41963,1.10336 -1.0858,1.82422 -1.90326,2.0588 -0.67955,0.19505 -1.71884,0.12761 -2.25618,-0.14626 -0.54978,-0.2802 -1.04979,-0.7946 -1.34617,-1.38544 -0.13269,-0.26453 -0.25308,-0.48107 -0.26718,-0.48109 -0.014,-6e-5 -0.36277,0.17518 -0.77462,0.38962 -0.43016,0.22402 -0.74366,0.43992 -0.73689,0.50747 0.0225,0.22678 0.58137,1.06942 1.05211,1.58647 0.89139,0.97891 1.92379,1.41565 3.3564,1.42058 1.93487,0.007 3.32822,-0.84646 4.20283,-2.57297 0.83129,-1.641 1.11609,-4.29371 0.70281,-6.55257 -0.55377,-3.02649 -2.38043,-4.83928 -4.88188,-4.84312 z m -0.13644,1.81952 c 0.60214,0 0.79729,0.0383 1.19478,0.22635 0.64037,0.30292 1.12093,0.75845 1.39422,1.32188 0.61952,1.27736 -0.0257,2.89235 -1.40613,3.52021 -0.60931,0.27715 -1.75771,0.25548 -2.38538,-0.045 -0.59222,-0.28347 -1.06884,-0.75514 -1.31463,-1.30172 -0.4489,-0.99811 -0.29586,-2.02896 0.41547,-2.80191 0.61682,-0.67027 1.19018,-0.92197 2.10167,-0.91985 z" />
  </g>
</svg>
