<?xml version="1.0" encoding="UTF-8" standalone="no"?>
<svg
   sodipodi:docname="7C.svg"
   id="svg8"
   version="1.1"
   viewBox="0 0 63.102295 88.347847"
   height="88.347847mm"
   width="63.102295mm"
   inkscape:version="1.1.1 (1:1.1+202109281949+c3084ef5ed)"
   inkscape:export-filename="/home/doug/k40/52Cards/7C.png"
   inkscape:export-xdpi="96"
   inkscape:export-ydpi="96"
   xmlns:inkscape="http://www.inkscape.org/namespaces/inkscape"
   xmlns:sodipodi="http://sodipodi.sourceforge.net/DTD/sodipodi-0.dtd"
   xmlns="http://www.w3.org/2000/svg"
   xmlns:svg="http://www.w3.org/2000/svg"
   xmlns:rdf="http://www.w3.org/1999/02/22-rdf-syntax-ns#"
   xmlns:cc="http://creativecommons.org/ns#"
   xmlns:dc="http://purl.org/dc/elements/1.1/">
  <defs
     id="defs2">
    <marker
       style="overflow:visible"
       id="marker2995"
       refX="0"
       refY="0"
       orient="auto"
       inkscape:stockid="Arrow1Lstart"
       inkscape:isstock="true">
      <path
         transform="matrix(0.8,0,0,0.8,10,0)"
         style="fill:#000000;fill-opacity:1;fill-rule:evenodd;stroke:#000000;stroke-width:1pt;stroke-opacity:1"
         d="M 0,0 5,-5 -12.5,0 5,5 Z"
         id="path2993" />
    </marker>
    <marker
       style="overflow:visible"
       id="marker2985"
       refX="0"
       refY="0"
       orient="auto"
       inkscape:stockid="Arrow1Lstart"
       inkscape:isstock="true">
      <path
         transform="matrix(0.8,0,0,0.8,10,0)"
         style="fill:#000000;fill-opacity:1;fill-rule:evenodd;stroke:#000000;stroke-width:1pt;stroke-opacity:1"
         d="M 0,0 5,-5 -12.5,0 5,5 Z"
         id="path2983" />
    </marker>
    <marker
       style="overflow:visible"
       id="marker2791"
       refX="0"
       refY="0"
       orient="auto"
       inkscape:stockid="Arrow1Lstart"
       inkscape:isstock="true">
      <path
         transform="matrix(0.8,0,0,0.8,10,0)"
         style="fill:#000000;fill-opacity:1;fill-rule:evenodd;stroke:#000000;stroke-width:1pt;stroke-opacity:1"
         d="M 0,0 5,-5 -12.5,0 5,5 Z"
         id="path2789" />
    </marker>
    <marker
       style="overflow:visible"
       id="marker2781"
       refX="0"
       refY="0"
       orient="auto"
       inkscape:stockid="Arrow1Lstart"
       inkscape:isstock="true">
      <path
         transform="matrix(0.8,0,0,0.8,10,0)"
         style="fill:#000000;fill-opacity:1;fill-rule:evenodd;stroke:#000000;stroke-width:1pt;stroke-opacity:1"
         d="M 0,0 5,-5 -12.5,0 5,5 Z"
         id="path2779" />
    </marker>
    <marker
       style="overflow:visible"
       id="marker2417"
       refX="0"
       refY="0"
       orient="auto"
       inkscape:stockid="Arrow1Lstart"
       inkscape:isstock="true">
      <path
         transform="matrix(0.8,0,0,0.8,10,0)"
         style="fill:#000000;fill-opacity:1;fill-rule:evenodd;stroke:#000000;stroke-width:1pt;stroke-opacity:1"
         d="M 0,0 5,-5 -12.5,0 5,5 Z"
         id="path2415" />
    </marker>
    <marker
       style="overflow:visible"
       id="marker2383"
       refX="0"
       refY="0"
       orient="auto"
       inkscape:stockid="Arrow1Lstart"
       inkscape:isstock="true">
      <path
         transform="matrix(0.8,0,0,0.8,10,0)"
         style="fill:#000000;fill-opacity:1;fill-rule:evenodd;stroke:#000000;stroke-width:1pt;stroke-opacity:1"
         d="M 0,0 5,-5 -12.5,0 5,5 Z"
         id="path2381" />
    </marker>
    <marker
       style="overflow:visible"
       id="marker2355"
       refX="0"
       refY="0"
       orient="auto"
       inkscape:stockid="Arrow1Lstart"
       inkscape:isstock="true">
      <path
         transform="matrix(0.8,0,0,0.8,10,0)"
         style="fill:#000000;fill-opacity:1;fill-rule:evenodd;stroke:#000000;stroke-width:1pt;stroke-opacity:1"
         d="M 0,0 5,-5 -12.5,0 5,5 Z"
         id="path2353" />
    </marker>
    <marker
       style="overflow:visible"
       id="Arrow1Lstart"
       refX="0"
       refY="0"
       orient="auto"
       inkscape:stockid="Arrow1Lstart"
       inkscape:isstock="true">
      <path
         transform="matrix(0.8,0,0,0.8,10,0)"
         style="fill:#000000;fill-opacity:1;fill-rule:evenodd;stroke:#000000;stroke-width:1pt;stroke-opacity:1"
         d="M 0,0 5,-5 -12.5,0 5,5 Z"
         id="path2071" />
    </marker>
  </defs>
  <sodipodi:namedview
     id="base"
     pagecolor="#ffffff"
     bordercolor="#666666"
     borderopacity="1.0"
     inkscape:pageopacity="0.0"
     inkscape:pageshadow="2"
     inkscape:zoom="1.5033851"
     inkscape:cx="86.138941"
     inkscape:cy="167.28914"
     inkscape:document-units="mm"
     inkscape:current-layer="layer1"
     inkscape:document-rotation="0"
     showgrid="false"
     inkscape:snap-smooth-nodes="false"
     inkscape:object-nodes="false"
     inkscape:window-width="1366"
     inkscape:window-height="712"
     inkscape:window-x="0"
     inkscape:window-y="0"
     inkscape:window-maximized="1"
     inkscape:object-paths="false"
     inkscape:snap-intersection-paths="false"
     inkscape:snap-midpoints="false"
     inkscape:snap-others="false"
     inkscape:pagecheckerboard="0"
     showguides="true"
     inkscape:guide-bbox="true"
     inkscape:snap-bbox="true"
     showborder="false"
     fit-margin-top="0"
     fit-margin-left="0"
     fit-margin-right="0"
     fit-margin-bottom="0" />
  <metadata
     id="metadata5">
    <rdf:RDF>
      <cc:Work
         rdf:about="">
        <dc:format>image/svg+xml</dc:format>
        <dc:type
           rdf:resource="http://purl.org/dc/dcmitype/StillImage" />
      </cc:Work>
    </rdf:RDF>
  </metadata>
  <g
     inkscape:label="Layer 1"
     inkscape:groupmode="layer"
     id="layer1"
     transform="translate(229.62282,475.26822)">
    <path
       style="fill:#000000;stroke-width:0.0846667"
       id="path389"
       d="" />
    <path
       id="path6742-7-6-27"
       style="fill:#000000;fill-opacity:1;stroke:none;stroke-width:0.264999;stroke-miterlimit:4;stroke-dasharray:none;stroke-opacity:1"
       d="m -221.71271,-475.26814 0.004,5.1e-4 c -1.12031,10e-4 -2.13534,0.005 -2.77555,0.0124 l -2.32905,0.0258 -0.57723,0.2961 c -0.7423,0.37983 -1.68912,1.3326 -1.98282,1.99522 l -0.20826,0.46924 -0.01,4.57285 c -0.01,2.5151 -0.0142,5.35426 -0.0212,6.30917 -0.01,0.95488 -0.01,3.88914 -0.01,6.52053 0,2.63138 0.01,5.8892 0,7.23987 0,1.35067 -1.8e-4,6.68594 0.01,11.85561 0.01,5.16966 0.0103,10.48583 0.0103,11.81322 0,1.32741 -8e-5,4.87108 0.0129,7.87498 0.018,5.89955 0.019,6.5541 0.032,17.75187 0,4.10523 0.0119,7.74901 0.0139,8.09668 l 0.001,0.63201 0.19378,0.36793 c 0.3268,0.62015 0.79773,1.1557 1.38183,1.57199 0.9935,0.70774 1.03336,0.71374 4.92476,0.71469 1.3274,2.9e-4 3.09977,0.007 3.93826,0.014 2.4891,0.0218 5.15818,0.0307 9.82318,0.031 2.4219,2.1e-4 4.97527,0.0105 5.67407,0.0233 0.6989,0.0129 3.1567,0.0254 5.4622,0.0284 2.3055,0.003 5.69762,0.0147 7.53752,0.0264 1.83994,0.0117 5.95609,0.0336 9.14673,0.0491 3.19063,0.0154 7.01998,0.0369 8.51059,0.048 3.07438,0.023 3.48238,-9.8e-4 3.99046,-0.2372 h 0.004 c 1.01217,-0.47017 2.15493,-1.68204 2.34559,-2.48769 0.0404,-0.17103 0.0777,-2.38742 0.0816,-4.9258 0.0142,-8.09742 0.008,-17.79326 -0.0139,-21.6788 -0.0116,-2.07232 -0.0228,-5.9205 -0.0258,-8.55191 -0.002,-2.63142 -0.008,-7.0139 -0.0124,-9.73844 -0.02,-13.76802 -0.0233,-26.62156 -0.01,-33.09771 l 0.01,-4.60282 -0.29352,-0.55759 c -0.52456,-0.99562 -1.77519,-2.04705 -2.61018,-2.19469 -0.44011,-0.0778 -2.16629,-0.0939 -12.87363,-0.11835 -1.25756,-0.003 -2.80088,-0.0116 -3.42977,-0.0186 -0.62889,-0.007 -2.3822,-0.0131 -3.89588,-0.0129 -2.81824,4e-4 -12.30347,-0.0289 -15.79387,-0.0486 -1.0713,-0.006 -3.5292,-0.0179 -5.4622,-0.0269 -1.933,-0.009 -5.24873,-0.026 -7.36802,-0.0367 -1.05971,-0.005 -2.28518,-0.007 -3.40548,-0.006 z m -4.04988,0.50798 5.1e-4,5.3e-4 c 2.647,-0.0141 12.9395,0.0446 23.6089,0.13848 2.1197,0.0184 8.02339,0.0648 13.12271,0.10284 5.0991,0.038 11.67167,0.0878 14.60479,0.11213 l 5.19142,0.0419 0.42426,0.22738 c 0.5733,0.30676 1.35494,1.10075 1.58388,1.56424 l 0.18707,0.38034 0.0114,4.60592 c 0.009,3.78238 -0.002,12.616 -0.0196,20.70521 -0.0178,8.08921 -0.044,15.49411 -0.0615,16.23671 -0.0207,0.88429 -0.0393,7.87691 -0.0455,15.6776 -0.006,8.12718 -0.02,14.33269 -0.0408,18.55081 -0.0104,2.10907 -0.0233,3.72226 -0.0372,4.82814 -0.007,0.55293 -0.013,0.97914 -0.0207,1.27537 -0.004,0.14811 -0.009,0.26408 -0.0124,0.34364 -0.004,0.0796 -0.0173,0.15912 -0.003,0.0822 -0.0654,0.34512 -0.41901,0.9538 -0.91261,1.40145 -0.69162,0.62724 -1.19347,0.88095 -1.80609,0.97102 -0.22447,0.033 -0.72692,0.0666 -1.15083,0.0796 -0.21196,0.007 -0.40869,0.009 -0.54519,0.006 -0.06,-10e-4 -0.10113,-0.005 -0.12661,-0.007 -0.005,-0.002 -0.0155,-0.004 -0.0155,-0.004 -5.3e-4,-1.6e-4 -0.048,-0.0105 -0.0605,-0.0124 -0.0249,-0.004 -0.0347,-0.005 -0.045,-0.006 -0.0206,-0.002 -0.0347,-10e-4 -0.0506,-0.002 -0.0319,-0.002 -0.0696,-0.004 -0.11731,-0.005 -0.0954,-0.003 -0.2306,-0.006 -0.40256,-0.009 -0.34395,-0.006 -0.83509,-0.0117 -1.44125,-0.0181 -1.21229,-0.0127 -2.87815,-0.0254 -4.70669,-0.0362 -3.65498,-0.0216 -8.32527,-0.0541 -10.37301,-0.0713 -5.82637,-0.0488 -12.05631,-0.0927 -19.00711,-0.13229 -3.5156,-0.02 -9.19492,-0.0549 -12.61732,-0.078 l -6.09161,-0.0403 -0.47491,-0.22788 c -0.5453,-0.26202 -1.26917,-0.93973 -1.66037,-1.59629 l -0.216,-0.36121 -0.0238,-17.41239 c -0.024,-16.53714 0.034,-44.23044 0.1235,-58.63775 l 0.0398,-6.30454 0.26769,-0.52917 c 0.4581,-0.90781 1.63349,-1.76157 2.32389,-1.83449 -0.04,0.004 0.045,-0.002 0.14831,-0.003 0.107,-9.8e-4 0.25782,-0.002 0.44752,-0.003 z m 8.19278,3.52848 -0.78238,0.0186 c -0.43058,0.0104 -2.00303,0.0168 -3.49385,0.0139 -1.49071,-0.003 -3.09157,-0.002 -3.5574,5.3e-4 l -0.83819,0.007 -0.0181,1.17668 h -5.2e-4 c -0.004,0.64733 6.6e-4,1.44306 0.006,1.7689 l 0.016,0.59272 0.88884,-0.0238 0.88883,-0.0243 0.002,-0.25374 c 9.2e-4,-0.13986 0.004,-0.53615 -0.004,-0.88006 l -0.007,-0.62579 0.5302,0.0387 c 0.29166,0.0209 1.13964,0.028 1.88464,0.016 0.74499,-0.012 1.53828,-0.01 1.76268,0.006 0.36914,0.0245 0.39757,0.0407 0.29352,0.16952 -0.4871,0.60272 -1.49118,2.36585 -2.13837,3.75428 -0.38659,0.82989 -1.05142,2.59133 -1.32653,3.51607 -0.37781,1.27043 -1.02781,4.2681 -1.01648,4.68757 0.009,0.16151 1.77075,0.12473 1.81333,-0.0377 0.0154,-0.0586 0.13584,-0.6424 0.26717,-1.29812 0.77456,-3.86506 2.46303,-7.86866 4.26692,-10.11513 0.51787,-0.64534 0.58506,-0.87691 0.56844,-1.97868 z m 2.97087,12.60904 0.01,0.36689 c 0.009,0.20191 0.01,2.44433 0.009,4.98317 2.2e-4,2.53878 4e-4,5.39712 0.002,6.35206 0.004,0.95496 -0.004,2.26997 -0.009,2.9223 -0.004,0.65238 -0.0102,3.32073 -0.007,5.92936 0.003,2.60861 0.005,5.50519 0.005,6.43681 0.001,2.06243 -0.004,7.11052 -0.0108,9.02065 -0.005,0.7687 2.9e-4,3.76015 0.004,6.64816 0.005,2.88809 0.009,6.26121 0.007,7.49567 h 5.2e-4 c 0.002,1.2345 0.003,2.82173 0.0103,3.52692 l 0.0129,1.2821 0.66094,0.032 c 0.36349,0.0176 1.72828,0.0239 3.03238,0.0139 1.30399,-0.0101 2.7141,-0.0105 3.13366,-5e-4 0.41954,0.01 1.54405,0.0183 2.49907,0.0186 0.95502,2.9e-4 4.42277,0.005 7.70702,0.009 3.28424,0.004 6.77227,0.003 7.75043,-0.003 0.97805,-0.005 2.10224,4.5e-4 2.49856,0.0134 0.39633,0.0128 1.8067,0.0176 3.13417,0.0114 1.32747,-0.007 2.44305,0.005 2.47892,0.0248 0.0359,0.0201 0.0813,-0.0144 0.0997,-0.076 0.0327,-0.10618 0.0366,-2.6801 0.0181,-10.31772 -0.005,-1.83994 -0.006,-4.08869 -0.004,-4.99711 0.006,-0.90842 -3.1e-4,-3.15666 -0.005,-4.9966 -0.0116,-4.90257 -0.0117,-14.781 5.2e-4,-17.02427 0.0152,-2.30068 0.0166,-4.1425 0.0119,-6.01411 -0.004,-1.67008 -0.005,-4.71059 -0.001,-9.66608 l 0.002,-1.91616 -2.44326,0.0109 c -1.34367,0.006 -2.84377,0.005 -3.33313,-0.003 -0.48935,-0.008 -1.61344,-0.0157 -2.49856,-0.0155 -2.85256,-3.4e-4 -4.70372,6.7e-4 -6.52208,0.004 -0.97823,0.002 -2.14047,-0.005 -2.58331,-0.015 -0.44285,-0.01 -1.75794,-0.0139 -2.9223,-0.008 -1.16447,0.006 -3.28001,0.005 -4.701,0 -1.4209,-0.005 -3.30791,-0.0112 -4.19303,-0.0119 -0.88501,-8.5e-4 -2.11355,-0.0101 -2.7311,-0.0191 z m 2.6231,0.40306 c 0.82238,-2e-5 1.86815,0.002 2.93884,0.007 2.14119,0.009 4.65564,0.0168 5.58726,0.017 0.93172,1.6e-4 3.00853,0.004 4.61574,0.008 3.54331,0.01 11.40427,0.0163 13.84876,0.0119 0.97823,-0.002 2.06021,0.0108 2.40451,0.0279 l 0.6258,0.03 0.006,2.38485 c 0.003,1.31135 -0.003,2.59392 -0.009,2.85049 -0.0117,0.25651 -0.01,1.66714 0.003,3.13417 0.0123,1.46704 0.015,3.0484 0.006,3.51452 -0.0131,0.46606 -0.0125,1.74299 -0.007,2.83755 0.006,1.09455 0.006,2.56135 5.2e-4,3.26025 -0.005,0.69892 -0.004,3.5392 0.002,6.31073 0.007,2.77154 0.011,5.72487 0.009,6.56344 -0.006,2.36863 -0.006,7.36735 0.003,11.09491 0.0165,7.95057 0.015,9.80672 -0.007,11.11975 l -0.0191,1.12447 -1.1989,-0.0145 c -0.65925,-0.008 -3.33266,-0.014 -5.94123,-0.0114 -2.60868,0.002 -5.27647,-10e-4 -5.92884,-0.008 -0.65228,-0.006 -2.59661,-0.0124 -4.32015,-0.0124 -1.72363,-8e-5 -4.39152,-0.003 -5.92884,-0.006 -1.53741,-0.003 -3.74824,-0.005 -4.91288,-0.005 -1.16432,3.2e-4 -2.53339,-0.0114 -3.04271,-0.0258 -0.5088,-0.0151 -0.93138,-0.0653 -0.94257,-0.1116 -0.01,-0.0464 -0.0142,-1.79953 -0.0114,-3.89588 0.003,-2.09637 0.003,-6.8036 0.001,-10.46036 -0.003,-3.65672 7.1e-4,-7.18232 0.007,-7.83465 0.004,-0.65236 0.008,-2.71016 0.003,-4.57338 -0.005,-1.86322 -0.005,-3.95975 -5.2e-4,-4.65862 0.004,-0.69887 0.004,-2.14712 -5.2e-4,-3.21842 -0.004,-1.07133 -0.005,-2.4819 5.2e-4,-3.13418 0.004,-0.6523 0.002,-2.19551 -0.007,-3.42976 -0.008,-1.2342 -0.01,-2.64433 -0.001,-3.13365 0.003,-0.48937 0.007,-2.88118 -0.003,-5.31492 l -0.0233,-4.42402 0.64441,-0.0176 c 0.17708,-0.005 0.77597,-0.007 1.59835,-0.007 z m 3.94963,3.08819 c -0.0542,6.4e-4 -0.10878,0.004 -0.1633,0.01 -0.6737,0.0742 -1.19774,0.44016 -1.47846,1.03301 -0.35841,0.75695 -0.23123,1.45767 0.38241,2.10426 0.4157,0.44042 0.41994,0.57412 0.01,0.36795 -0.37347,-0.18766 -1.27705,-0.15626 -1.66037,0.0579 -0.54964,0.3071 -0.86441,0.72395 -0.98495,1.30535 -0.15567,0.75128 0.32314,1.67568 1.02061,1.9699 0.69817,0.29467 1.68487,0.0996 2.14043,-0.42323 0.1037,-0.11893 0.25993,-0.40399 0.34675,-0.63407 l 0.15814,-0.41857 -0.0253,0.59375 c -0.0284,0.67236 -0.27402,1.52749 -0.67334,2.34714 -0.14943,0.30684 -0.28227,0.58153 -0.29456,0.60979 -0.0132,0.0282 0.35659,0.0225 0.82062,-0.0124 0.50787,-0.0382 1.00234,-0.0282 1.24179,0.0254 0.21898,0.0489 0.41188,0.0741 0.4284,0.0563 0.0171,-0.0179 -0.0934,-0.24815 -0.24547,-0.5116 -0.15206,-0.26344 -0.37048,-0.78975 -0.48627,-1.16993 -0.25653,-0.84257 -0.40857,-1.90527 -0.27285,-1.90895 0.051,-0.002 0.0976,0.0829 0.10025,0.18759 0.0144,0.39651 0.34266,0.89324 0.75086,1.13689 0.77366,0.46189 1.61393,0.37635 2.26756,-0.23101 0.76139,-0.70757 0.76307,-1.89663 0.004,-2.57812 -0.54488,-0.48937 -1.24113,-0.65051 -1.93787,-0.44958 -0.23114,0.0667 -0.43728,0.10496 -0.45785,0.0852 -0.0209,-0.0197 0.094,-0.18198 0.2558,-0.36018 0.50983,-0.56168 0.68051,-1.13318 0.53485,-1.79163 -0.18043,-0.81549 -0.95307,-1.41044 -1.78129,-1.40094 z m 19.99051,0.0465 c -0.5909,-0.0316 -1.1891,0.20439 -1.54202,0.72038 -0.5785,0.8456 -0.48422,1.76638 0.25631,2.50579 0.14693,0.14673 0.24517,0.28977 0.21859,0.31779 -0.0262,0.028 -0.22592,-0.004 -0.44338,-0.0718 -0.57683,-0.17856 -1.04896,-0.13983 -1.55133,0.12766 -0.45672,0.24318 -0.71777,0.55494 -0.89297,1.06609 -0.0622,0.17955 -0.0847,0.48083 -0.0542,0.71882 0.14328,1.13874 1.29215,1.86216 2.40915,1.5167 0.52248,-0.16161 0.85463,-0.49493 1.08727,-1.09038 l 0.20051,-0.51366 -0.031,0.59788 c -0.0367,0.7185 -0.2472,1.46526 -0.66921,2.37403 -0.17236,0.37107 -0.31278,0.69331 -0.31212,0.71622 5.5e-4,0.0228 0.0659,0.0147 0.14417,-0.0181 0.2164,-0.0898 1.71968,-0.10803 2.03554,-0.0248 0.3446,0.0908 0.34535,0.0454 0.014,-0.57568 -0.31929,-0.59229 -0.61646,-1.60856 -0.7028,-2.40448 -0.0518,-0.47709 -0.0442,-0.55112 0.0367,-0.38243 0.0553,0.11502 0.17578,0.36751 0.2682,0.56121 0.33487,0.70147 1.52517,1.05675 2.32389,0.6935 0.58818,-0.26754 1.05036,-1.00478 1.03301,-1.64846 -0.0336,-1.26344 -1.31959,-2.13288 -2.54144,-1.71929 -0.22862,0.0774 -0.43589,0.12155 -0.46044,0.0982 -0.0248,-0.0234 0.0758,-0.14253 0.22427,-0.26509 0.66585,-0.5507 0.87928,-1.6901 0.45217,-2.41691 -0.32446,-0.55221 -0.9078,-0.85156 -1.49861,-0.88315 z m -33.84496,0.93016 c -0.0727,-0.002 -0.14481,-5.2e-4 -0.21704,0.004 h -0.001 c -1.27126,0.0819 -2.4304,1.16599 -2.27737,2.6293 0.0696,0.6673 0.32655,1.19282 0.83457,1.70741 0.22609,0.22902 0.38905,0.43881 0.36277,0.46662 -0.0262,0.0278 -0.271,-0.0276 -0.54467,-0.12401 -0.59413,-0.20942 -1.46255,-0.20516 -1.94148,0.0103 -0.64213,0.2889 -1.18822,0.87358 -1.40147,1.50067 -0.16787,0.4935 -0.0753,1.41808 0.19068,1.91203 0.63218,1.17232 2.10592,1.59719 3.29851,0.95187 0.66861,-0.36177 1.18472,-1.12498 1.16841,-1.72858 5e-4,-0.076 0.0336,-0.13927 0.0806,-0.14054 0.12352,-0.003 0.12351,0.74374 5.2e-4,1.42316 -0.13396,0.7351 -0.40269,1.51726 -0.87747,2.55696 -0.20233,0.44289 -0.35339,0.81833 -0.33589,0.83458 0.0179,0.0162 0.23977,-0.0147 0.49454,-0.0693 0.51313,-0.11004 1.99503,-0.0914 2.45153,0.031 0.16112,0.0432 0.30186,0.0692 0.31264,0.0579 0.0111,-0.0113 -0.11455,-0.28371 -0.27853,-0.60513 -0.61643,-1.20809 -1.04603,-2.7101 -1.07539,-3.76102 -0.0162,-0.56931 0.10933,-0.64836 0.21032,-0.1323 0.37275,1.9154 2.81782,2.5055 4.13412,0.99788 0.46382,-0.53118 0.59436,-0.90175 0.57516,-1.61229 -0.031,-1.0591 -0.51004,-1.76601 -1.47278,-2.17197 -0.42263,-0.17827 -0.64174,-0.21679 -1.11776,-0.19896 -0.32569,0.0122 -0.7529,0.0839 -0.9493,0.15967 -0.20463,0.0788 -0.379,0.1052 -0.40721,0.0615 -0.0277,-0.0419 0.13361,-0.25056 0.35812,-0.46355 0.55993,-0.5315 0.78338,-1.09694 0.76016,-1.92648 -0.0217,-0.79807 -0.25399,-1.28061 -0.86248,-1.79888 -0.44759,-0.38105 -0.96366,-0.55856 -1.47278,-0.57206 z m 23.82645,8.83357 c -0.9377,-0.006 -1.85473,0.67921 -1.82366,1.78594 0.0178,0.63875 0.173,1.01936 0.56224,1.37718 0.19482,0.17917 0.33634,0.34504 0.31419,0.36846 -0.0222,0.0235 -0.1868,-0.0136 -0.36535,-0.0827 -0.94929,-0.3669 -2.08946,0.0944 -2.48099,1.00356 h -5.1e-4 c -0.45723,1.06172 0.21024,2.26896 1.37097,2.47994 0.87107,0.15833 1.79767,-0.36092 1.99006,-1.11466 0.14506,-0.5683 0.23729,-0.57833 0.19431,-0.0207 -0.069,0.90228 -0.41254,2.00777 -0.86713,2.79207 -0.10156,0.17521 -0.15611,0.3343 -0.12144,0.35348 0.0349,0.0191 0.3012,-0.005 0.59273,-0.0532 0.32026,-0.0536 0.75534,-0.0621 1.10019,-0.0217 0.31376,0.0368 0.61404,0.0666 0.66714,0.0661 0.056,-5.6e-4 -0.0321,-0.27924 -0.20774,-0.65733 -0.40633,-0.87421 -0.67788,-1.85439 -0.68781,-2.48563 l -0.008,-0.51575 0.14004,0.41963 c 0.28379,0.84992 0.89776,1.29077 1.76217,1.26349 0.8787,-0.0272 1.56249,-0.58378 1.73839,-1.41491 0.16702,-0.78984 -0.14937,-1.50768 -0.85318,-1.93321 -0.3767,-0.22775 -0.50496,-0.25887 -0.98547,-0.24392 -0.30367,0.01 -0.68466,0.0533 -0.84646,0.0972 l -0.29404,0.0801 0.34107,-0.35346 c 0.65429,-0.67736 0.7673,-1.64483 0.2775,-2.3735 -0.37639,-0.55988 -0.94633,-0.81266 -1.50895,-0.8165 z m -9.86813,9.73328 c -0.0685,-0.002 -0.13812,-2.4e-4 -0.20722,0.004 l 5.2e-4,-5.3e-4 c -0.27652,0.0174 -0.54942,0.0829 -0.75035,0.19224 -1.12186,0.61098 -1.31458,1.98009 -0.41496,2.94815 0.18926,0.20378 0.3285,0.38645 0.31006,0.40616 -0.0191,0.0197 -0.2054,-0.0186 -0.41496,-0.0847 -0.97838,-0.31002 -2.01158,0.12057 -2.39107,0.99631 -0.25358,0.58592 -0.23372,1.03317 0.0713,1.57665 0.3409,0.60754 0.80942,0.91078 1.47226,0.95293 0.44622,0.0283 0.58054,-6.1e-4 0.97772,-0.20826 0.50245,-0.26281 0.69828,-0.50104 0.89607,-1.08934 l 0.12919,-0.38447 -0.031,0.57722 c -0.0389,0.7425 -0.34858,1.83957 -0.6997,2.47634 -0.15182,0.27527 -0.27529,0.52737 -0.2744,0.55965 -2.2e-4,0.0325 0.41266,0.0336 0.91467,0.003 0.50191,-0.0308 1.05862,-0.02 1.23713,0.0243 0.38039,0.094 0.38715,0.15751 -0.0992,-0.9343 -0.44215,-0.99306 -0.77974,-2.58587 -0.5488,-2.59209 0.04,-7.4e-4 0.10161,0.13988 0.13436,0.31366 0.087,0.46093 0.43911,0.89525 0.88987,1.09866 0.57899,0.26122 1.42478,0.18044 1.91099,-0.1819 0.52911,-0.39444 0.74719,-0.89953 0.69092,-1.60042 -0.0369,-0.46508 -0.0931,-0.63047 -0.31058,-0.92294 -0.49293,-0.66334 -1.4681,-0.95105 -2.23604,-0.65993 -0.41264,0.15643 -0.5496,0.0647 -0.23254,-0.15554 0.11905,-0.0827 0.32268,-0.34706 0.45217,-0.58756 0.52992,-0.98465 0.0956,-2.23714 -0.91106,-2.62618 -0.16166,-0.0625 -0.35976,-0.096 -0.56534,-0.10128 z m 19.76469,0.01 c -0.13784,0.005 -0.27735,0.0271 -0.41652,0.0677 -1.42238,0.41497 -1.84001,2.10232 -0.78238,3.16052 0.16153,0.16164 0.27409,0.31533 0.25012,0.34055 -0.0242,0.0253 -0.26058,-0.0212 -0.52555,-0.10282 -0.97274,-0.29943 -2.02644,0.22146 -2.33009,1.15186 -0.47728,1.46212 0.92637,2.82716 2.36936,2.30426 0.48989,-0.17751 0.87817,-0.57769 1.02061,-1.05214 0.21729,-0.72406 0.30012,-0.55462 0.1664,0.34004 -0.10934,0.73202 -0.35631,1.5317 -0.67851,2.19623 -0.15512,0.31996 -0.26664,0.59568 -0.24805,0.6129 0.0189,0.0173 0.23836,-0.0146 0.48834,-0.0713 0.3288,-0.0745 0.65513,-0.0822 1.17978,-0.0263 0.39883,0.0424 0.73677,0.065 0.75137,0.0496 0.0141,-0.0154 -0.11044,-0.30689 -0.2775,-0.64751 -0.37318,-0.76044 -0.60298,-1.57208 -0.67179,-2.37247 l -0.0522,-0.60666 0.13178,0.3607 c 0.22336,0.61262 0.47121,0.90985 0.94257,1.12911 0.53507,0.24887 1.14615,0.25334 1.63195,0.0134 0.42389,-0.20965 0.65148,-0.47146 0.86868,-1.00044 0.34994,-0.85259 -0.0449,-1.82338 -0.91519,-2.25102 -0.41635,-0.20455 -0.53404,-0.22432 -1.01958,-0.17521 -0.30201,0.0305 -0.64367,0.0861 -0.75913,0.12351 -0.1862,0.0606 -0.17128,0.0254 0.13075,-0.3121 0.4717,-0.52719 0.6268,-0.89318 0.61184,-1.44643 -0.0281,-1.03878 -0.90248,-1.8238 -1.86706,-1.78594 z m 12.19253,15.54219 0.30851,0.57517 c 0.42517,0.7932 0.74876,1.65137 0.92036,2.43912 0.15499,0.71207 0.24568,1.76453 0.15968,1.85518 -0.0594,0.0624 -0.0867,-0.008 -0.24185,-0.59944 -0.14446,-0.55259 -0.37322,-0.88861 -0.79013,-1.16118 -1.44957,-0.94774 -3.30683,-0.29779 -3.79098,1.32654 -0.0358,0.11771 -0.0444,0.49927 -0.0207,0.84802 0.0529,0.77475 0.25807,1.18702 0.82785,1.6619 0.73824,0.61534 1.80472,0.77332 2.65875,0.39431 0.55003,-0.24411 0.58588,-0.10216 0.092,0.36742 -0.82128,0.78164 -1.02604,2.0659 -0.48938,3.07113 0.61984,1.16112 1.9964,1.60673 3.19671,1.03454 0.51804,-0.2469 0.84002,-0.58319 1.10691,-1.15548 0.46956,-1.00658 0.1991,-2.20941 -0.68265,-3.03649 -0.40351,-0.37852 -0.33653,-0.49268 0.1571,-0.26821 0.19122,0.087 0.57209,0.15047 0.95395,0.15917 1.12365,0.0255 1.94126,-0.44558 2.3797,-1.37202 0.46215,-0.9765 0.19941,-2.22782 -0.60927,-2.90007 -1.00241,-0.83344 -2.54967,-0.73078 -3.43183,0.22788 -0.27176,0.29536 -0.5391,0.95107 -0.52968,1.29813 -4.2e-4,0.0614 -0.0352,0.11292 -0.0822,0.11419 -0.11783,0.003 -0.11487,-0.34255 0.008,-1.1865 0.17354,-1.17176 0.57969,-2.37595 1.09037,-3.23442 0.12236,-0.20566 0.20731,-0.38846 0.18862,-0.40616 -0.0189,-0.0178 -0.36741,0.0176 -0.77412,0.0785 -0.70291,0.10531 -1.40738,0.0805 -2.32492,-0.0816 z m -33.34008,3.9698 0.25735,0.48162 c 0.56571,1.05913 1.07712,3.12706 0.77566,3.13521 -0.047,0.002 -0.0871,-0.0803 -0.0894,-0.1819 -0.0144,-0.547 -0.65037,-1.21986 -1.31465,-1.39113 -0.99912,-0.25759 -2.02025,0.37069 -2.23449,1.3751 h 5.2e-4 c -0.29361,1.37699 1.10531,2.5913 2.46393,2.13889 0.60254,-0.20064 0.61796,-0.18664 0.23875,0.22272 -0.69195,0.747 -0.82632,1.50477 -0.40514,2.28256 0.33175,0.61275 0.78306,0.90353 1.47019,0.94721 0.44662,0.0284 0.58215,-2.6e-4 0.971,-0.20359 0.61936,-0.32396 0.9046,-0.78217 0.93224,-1.50016 0.0252,-0.64019 -0.16352,-1.1642 -0.5519,-1.53221 -0.33024,-0.31287 -0.27002,-0.38788 0.1788,-0.22222 1.05046,0.38783 2.29928,-0.2952 2.50579,-1.37046 0.14851,-0.77314 -0.157,-1.48429 -0.81391,-1.89394 -0.88974,-0.55494 -2.22508,-0.23331 -2.54558,0.61288 -0.29525,0.77814 -0.30151,0.782 -0.27853,0.14986 0.0245,-0.68128 0.23975,-1.43762 0.65577,-2.3027 0.15889,-0.33036 0.29997,-0.62423 0.31316,-0.65317 0.0132,-0.0288 -0.38742,-0.0372 -0.88935,-0.0186 -0.50214,0.0189 -1.07671,0.01 -1.27641,-0.0207 z m 22.42034,0.0222 c -0.01,-0.007 -0.25815,0.032 -0.55501,0.0858 -0.37686,0.0683 -0.74316,0.0736 -1.21439,0.0176 -0.36982,-0.0436 -0.68791,-0.0627 -0.71004,-0.0418 -0.0201,0.0212 0.0425,0.16526 0.13901,0.31985 0.47797,0.76248 1.01067,2.68679 0.86351,3.12023 -0.0551,0.16222 -0.072,0.1432 -0.13435,-0.14726 -0.0994,-0.46559 -0.34788,-0.81286 -0.77619,-1.08522 -0.32245,-0.2051 -0.44274,-0.23124 -1.00665,-0.21704 -0.5583,0.0139 -0.6854,0.0475 -0.9865,0.2584 -0.38227,0.26778 -0.56009,0.51469 -0.71676,0.99425 -0.0572,0.17581 -0.10346,0.41481 -0.10283,0.53123 0.008,0.65357 0.53545,1.39832 1.18494,1.67328 0.38793,0.16414 1.07482,0.17526 1.47433,0.0238 0.39209,-0.14865 0.40204,-0.0575 0.0357,0.32866 -0.32659,0.34475 -0.58619,0.97057 -0.57412,1.3839 0.0179,0.61593 0.50447,1.35996 1.06608,1.63142 1.18136,0.57111 2.64138,-0.37158 2.60604,-1.68259 -0.0136,-0.51247 -0.27557,-1.08825 -0.6444,-1.41798 -0.33026,-0.29535 -0.28461,-0.42656 0.0858,-0.24598 0.16179,0.0789 0.48213,0.13012 0.78187,0.12504 0.64289,-0.0106 1.30226,-0.367 1.61902,-0.87487 0.18234,-0.29242 0.20897,-0.43024 0.19379,-0.99425 -0.0161,-0.59005 -0.0433,-0.69043 -0.28164,-1.01494 -0.32438,-0.44196 -1.03394,-0.80547 -1.54564,-0.79166 -0.42178,0.0114 -1.18219,0.40288 -1.3994,0.72035 -0.0828,0.12142 -0.20002,0.37232 -0.26045,0.55758 l -0.11007,0.33695 -0.0134,-0.34623 c -0.0213,-0.5561 0.25994,-1.63343 0.64234,-2.46497 0.19511,-0.42423 0.34777,-0.77663 0.33952,-0.78343 z m 14.88643,11.01484 c -0.16413,-0.004 -0.38375,-0.003 -0.61961,0.003 l -0.86092,0.0227 -0.1695,0.85834 c -0.19483,0.98745 -0.76484,3.23278 -1.05885,4.17184 -0.7242,2.31257 -1.96174,4.76962 -3.26802,6.48745 -0.29547,0.3886 -0.54359,0.80712 -0.56121,0.94671 v 5.3e-4 c -0.0179,0.13763 -0.0188,0.548 -0.006,0.91157 l 0.0279,0.66093 0.76274,0.0119 c 1.69706,0.0264 7.84586,0.0165 7.87136,-0.0129 0.0151,-0.0173 0.0224,-0.81758 0.0217,-1.77818 l -0.009,-1.74665 -0.8537,-0.0196 c -0.46954,-0.0111 -0.88188,-0.003 -0.91622,0.0186 -0.0341,0.0213 -0.0517,0.42325 -0.0398,0.89297 l 0.0233,0.85368 -2.26497,5.3e-4 c -1.24562,-2.4e-4 -2.2787,-0.0135 -2.29599,-0.03 -0.0169,-0.0164 0.0694,-0.16894 0.19172,-0.33901 1.46961,-2.03838 3.02219,-5.62684 3.71089,-8.57467 0.30215,-1.29336 0.65852,-3.25959 0.60048,-3.31452 -0.0129,-0.0125 -0.12165,-0.0213 -0.28577,-0.0253 z" />
  </g>
</svg>
