<?xml version="1.0" encoding="UTF-8" standalone="no"?>
<svg
   sodipodi:docname="7D.svg"
   id="svg8"
   version="1.1"
   viewBox="0 0 63.102406 88.347839"
   height="88.347839mm"
   width="63.102406mm"
   inkscape:version="1.1.1 (1:1.1+202109281949+c3084ef5ed)"
   inkscape:export-filename="/home/doug/k40/52Cards/7D.png"
   inkscape:export-xdpi="96"
   inkscape:export-ydpi="96"
   xmlns:inkscape="http://www.inkscape.org/namespaces/inkscape"
   xmlns:sodipodi="http://sodipodi.sourceforge.net/DTD/sodipodi-0.dtd"
   xmlns="http://www.w3.org/2000/svg"
   xmlns:svg="http://www.w3.org/2000/svg"
   xmlns:rdf="http://www.w3.org/1999/02/22-rdf-syntax-ns#"
   xmlns:cc="http://creativecommons.org/ns#"
   xmlns:dc="http://purl.org/dc/elements/1.1/">
  <defs
     id="defs2">
    <marker
       style="overflow:visible"
       id="marker2995"
       refX="0"
       refY="0"
       orient="auto"
       inkscape:stockid="Arrow1Lstart"
       inkscape:isstock="true">
      <path
         transform="matrix(0.8,0,0,0.8,10,0)"
         style="fill:#000000;fill-opacity:1;fill-rule:evenodd;stroke:#000000;stroke-width:1pt;stroke-opacity:1"
         d="M 0,0 5,-5 -12.5,0 5,5 Z"
         id="path2993" />
    </marker>
    <marker
       style="overflow:visible"
       id="marker2985"
       refX="0"
       refY="0"
       orient="auto"
       inkscape:stockid="Arrow1Lstart"
       inkscape:isstock="true">
      <path
         transform="matrix(0.8,0,0,0.8,10,0)"
         style="fill:#000000;fill-opacity:1;fill-rule:evenodd;stroke:#000000;stroke-width:1pt;stroke-opacity:1"
         d="M 0,0 5,-5 -12.5,0 5,5 Z"
         id="path2983" />
    </marker>
    <marker
       style="overflow:visible"
       id="marker2791"
       refX="0"
       refY="0"
       orient="auto"
       inkscape:stockid="Arrow1Lstart"
       inkscape:isstock="true">
      <path
         transform="matrix(0.8,0,0,0.8,10,0)"
         style="fill:#000000;fill-opacity:1;fill-rule:evenodd;stroke:#000000;stroke-width:1pt;stroke-opacity:1"
         d="M 0,0 5,-5 -12.5,0 5,5 Z"
         id="path2789" />
    </marker>
    <marker
       style="overflow:visible"
       id="marker2781"
       refX="0"
       refY="0"
       orient="auto"
       inkscape:stockid="Arrow1Lstart"
       inkscape:isstock="true">
      <path
         transform="matrix(0.8,0,0,0.8,10,0)"
         style="fill:#000000;fill-opacity:1;fill-rule:evenodd;stroke:#000000;stroke-width:1pt;stroke-opacity:1"
         d="M 0,0 5,-5 -12.5,0 5,5 Z"
         id="path2779" />
    </marker>
    <marker
       style="overflow:visible"
       id="marker2417"
       refX="0"
       refY="0"
       orient="auto"
       inkscape:stockid="Arrow1Lstart"
       inkscape:isstock="true">
      <path
         transform="matrix(0.8,0,0,0.8,10,0)"
         style="fill:#000000;fill-opacity:1;fill-rule:evenodd;stroke:#000000;stroke-width:1pt;stroke-opacity:1"
         d="M 0,0 5,-5 -12.5,0 5,5 Z"
         id="path2415" />
    </marker>
    <marker
       style="overflow:visible"
       id="marker2383"
       refX="0"
       refY="0"
       orient="auto"
       inkscape:stockid="Arrow1Lstart"
       inkscape:isstock="true">
      <path
         transform="matrix(0.8,0,0,0.8,10,0)"
         style="fill:#000000;fill-opacity:1;fill-rule:evenodd;stroke:#000000;stroke-width:1pt;stroke-opacity:1"
         d="M 0,0 5,-5 -12.5,0 5,5 Z"
         id="path2381" />
    </marker>
    <marker
       style="overflow:visible"
       id="marker2355"
       refX="0"
       refY="0"
       orient="auto"
       inkscape:stockid="Arrow1Lstart"
       inkscape:isstock="true">
      <path
         transform="matrix(0.8,0,0,0.8,10,0)"
         style="fill:#000000;fill-opacity:1;fill-rule:evenodd;stroke:#000000;stroke-width:1pt;stroke-opacity:1"
         d="M 0,0 5,-5 -12.5,0 5,5 Z"
         id="path2353" />
    </marker>
    <marker
       style="overflow:visible"
       id="Arrow1Lstart"
       refX="0"
       refY="0"
       orient="auto"
       inkscape:stockid="Arrow1Lstart"
       inkscape:isstock="true">
      <path
         transform="matrix(0.8,0,0,0.8,10,0)"
         style="fill:#000000;fill-opacity:1;fill-rule:evenodd;stroke:#000000;stroke-width:1pt;stroke-opacity:1"
         d="M 0,0 5,-5 -12.5,0 5,5 Z"
         id="path2071" />
    </marker>
  </defs>
  <sodipodi:namedview
     id="base"
     pagecolor="#ffffff"
     bordercolor="#666666"
     borderopacity="1.0"
     inkscape:pageopacity="0.0"
     inkscape:pageshadow="2"
     inkscape:zoom="1.5033852"
     inkscape:cx="86.138935"
     inkscape:cy="167.28913"
     inkscape:document-units="mm"
     inkscape:current-layer="layer1"
     inkscape:document-rotation="0"
     showgrid="false"
     inkscape:snap-smooth-nodes="false"
     inkscape:object-nodes="false"
     inkscape:window-width="1366"
     inkscape:window-height="712"
     inkscape:window-x="0"
     inkscape:window-y="0"
     inkscape:window-maximized="1"
     inkscape:object-paths="false"
     inkscape:snap-intersection-paths="false"
     inkscape:snap-midpoints="false"
     inkscape:snap-others="false"
     inkscape:pagecheckerboard="0"
     showguides="true"
     inkscape:guide-bbox="true"
     inkscape:snap-bbox="true"
     showborder="false"
     fit-margin-top="0"
     fit-margin-left="0"
     fit-margin-right="0"
     fit-margin-bottom="0" />
  <metadata
     id="metadata5">
    <rdf:RDF>
      <cc:Work
         rdf:about="">
        <dc:format>image/svg+xml</dc:format>
        <dc:type
           rdf:resource="http://purl.org/dc/dcmitype/StillImage" />
      </cc:Work>
    </rdf:RDF>
  </metadata>
  <g
     inkscape:label="Layer 1"
     inkscape:groupmode="layer"
     id="layer1"
     transform="translate(229.62287,596.89995)">
    <path
       style="fill:#000000;stroke-width:0.0846667"
       id="path389"
       d="" />
    <path
       id="path6742-7-6-8"
       style="fill:#000000;fill-opacity:1;stroke:none;stroke-width:0.264999;stroke-miterlimit:4;stroke-dasharray:none;stroke-opacity:1"
       d="m -221.71267,-596.8998 0.004,5.3e-4 c -1.1203,9.8e-4 -2.13585,0.005 -2.77605,0.0124 l -2.32855,0.0258 -0.57774,0.2961 c -0.7423,0.37986 -1.68912,1.33262 -1.98282,1.99525 l -0.20774,0.46921 -0.0103,4.57284 c -0.01,2.51511 -0.0137,5.35427 -0.0207,6.30918 -0.01,0.95488 -0.0103,3.88914 -0.0103,6.52052 0,2.63139 0.01,5.8892 0,7.23988 0,1.35067 3.3e-4,6.68594 0.0103,11.8556 0.01,5.16967 0.01,10.48584 0.01,11.81323 0,1.32741 -8e-5,4.87108 0.0129,7.87498 0.018,5.89954 0.019,6.55409 0.032,17.7519 0,4.10519 0.012,7.74898 0.014,8.09664 l 0.001,0.63201 0.19378,0.36793 c 0.3268,0.62016 0.79773,1.1557 1.38183,1.572 0.9935,0.70773 1.03336,0.71374 4.92477,0.71469 1.32739,2.9e-4 3.09976,0.007 3.93826,0.0139 2.4891,0.0218 5.15817,0.0307 9.82317,0.031 2.4219,2.2e-4 4.97527,0.0104 5.67407,0.0233 0.6989,0.0129 3.1567,0.0254 5.4622,0.0284 2.3055,0.003 5.69762,0.0146 7.53752,0.0264 1.83995,0.0117 5.95609,0.0336 9.14673,0.0491 3.19063,0.0154 7.01998,0.0369 8.51059,0.048 3.07438,0.023 3.48238,-9.7e-4 3.99046,-0.23717 h 0.004 c 1.01217,-0.47016 2.15494,-1.68206 2.3456,-2.48772 0.0404,-0.171 0.0777,-2.38741 0.0816,-4.9258 0.0142,-8.09741 0.008,-17.79325 -0.0139,-21.67876 -0.0116,-2.07235 -0.0228,-5.92053 -0.0258,-8.55195 -0.002,-2.63141 -0.008,-7.01389 -0.0124,-9.73841 -0.02,-13.76802 -0.0233,-26.62158 -0.01,-33.09773 l 0.01,-4.60283 -0.29352,-0.55758 c -0.52456,-0.99563 -1.77519,-2.04706 -2.61018,-2.19469 -0.44011,-0.0778 -2.16629,-0.0939 -12.87363,-0.11835 -1.25756,-0.003 -2.80087,-0.0116 -3.42976,-0.0186 -0.6289,-0.007 -2.38221,-0.0131 -3.89589,-0.0129 -2.81824,3.9e-4 -12.30347,-0.0289 -15.79387,-0.0486 -1.0713,-0.006 -3.5292,-0.0179 -5.4622,-0.0269 -1.933,-0.009 -5.24872,-0.026 -7.36802,-0.0367 -1.0597,-0.005 -2.28518,-0.007 -3.40548,-0.006 z m -4.04988,0.50797 5.1e-4,5.3e-4 c 2.647,-0.0141 12.9395,0.0446 23.6089,0.13848 2.1197,0.0184 8.02339,0.0648 13.12271,0.10285 5.0991,0.038 11.67168,0.0878 14.60479,0.11213 l 5.19142,0.0419 0.42426,0.22738 c 0.5733,0.30676 1.35494,1.10074 1.58389,1.56424 l 0.18706,0.38034 0.0114,4.60592 c 0.009,3.78238 -0.002,12.61599 -0.0196,20.70521 -0.0178,8.08921 -0.044,15.49413 -0.0615,16.23673 -0.0207,0.88427 -0.0393,7.87691 -0.0455,15.6776 -0.006,8.12715 -0.02,14.33266 -0.0408,18.55081 -0.0104,2.10905 -0.0233,3.72224 -0.0372,4.82812 -0.007,0.55292 -0.013,0.97914 -0.0207,1.27537 -0.004,0.14811 -0.009,0.26408 -0.0124,0.34364 -0.004,0.0796 -0.0168,0.15912 -0.003,0.0822 -0.0654,0.34515 -0.41901,0.95379 -0.91261,1.40147 -0.69162,0.62722 -1.19347,0.88093 -1.80609,0.97099 -0.22447,0.033 -0.72692,0.0666 -1.15083,0.0796 -0.21196,0.007 -0.40869,0.009 -0.54519,0.006 -0.06,-0.001 -0.10113,-0.005 -0.12661,-0.007 -0.005,-0.002 -0.0155,-0.004 -0.0155,-0.004 -5.3e-4,-1.3e-4 -0.0485,-0.0105 -0.061,-0.0124 -0.0249,-0.004 -0.0347,-0.005 -0.045,-0.006 -0.0206,-0.002 -0.0347,-10e-4 -0.0506,-0.002 -0.0319,-0.002 -0.0696,-0.004 -0.1173,-0.005 -0.0954,-0.003 -0.23009,-0.006 -0.40205,-0.009 -0.34395,-0.006 -0.83561,-0.0117 -1.44177,-0.0181 -1.21229,-0.0127 -2.87815,-0.0255 -4.70669,-0.0362 -3.65498,-0.0216 -8.32475,-0.0541 -10.37249,-0.0713 -5.82637,-0.0488 -12.05631,-0.0927 -19.00711,-0.13229 -3.5156,-0.02 -9.19544,-0.0549 -12.61783,-0.078 l -6.09162,-0.0403 -0.47491,-0.22791 c -0.5453,-0.26201 -1.26916,-0.93969 -1.66036,-1.59628 l -0.21601,-0.36121 -0.0238,-17.41239 c -0.024,-16.53714 0.034,-44.23045 0.1235,-58.63775 l 0.0398,-6.30452 0.26768,-0.52916 c 0.4581,-0.90784 1.63349,-1.76157 2.32389,-1.83452 -0.04,0.004 0.045,-0.002 0.14831,-0.003 0.107,-10e-4 0.25782,-0.002 0.44752,-0.003 z m -0.17984,3.43649 -0.0238,1.04077 c -0.013,0.57229 -0.0238,1.36427 -0.0238,1.76011 v 0.71985 l 0.8754,0.0419 c 0.48141,0.0259 0.89081,0.0293 0.91002,0.0103 0.0193,-0.0193 0.0346,-0.43074 0.0346,-0.91364 v -0.87746 l 2.24327,0.01 c 1.23375,0.006 2.25847,0.0362 2.27686,0.0672 0.0185,0.0309 -0.26358,0.50737 -0.62631,1.05937 -1.71911,2.6157 -3.0766,6.19204 -3.76412,9.91465 -0.11766,0.63709 -0.21394,1.17586 -0.21394,1.19785 0,0.0251 0.40676,0.0279 0.90383,0.015 l 0.9033,-0.0243 0.15244,-0.71935 c 0.8218,-3.88498 1.83594,-6.69665 3.26389,-9.04906 0.40312,-0.664 1.19288,-1.7747 1.51256,-2.12699 0.1685,-0.18571 0.19673,-0.32369 0.22893,-1.12191 l 0.0367,-0.91001 -2.59054,-0.01 c -1.42494,-0.004 -3.38014,-0.0241 -4.34495,-0.046 z m 11.3404,12.68399 v 1.89341 c -0.003,6.00872 -0.10924,50.15561 -0.12144,50.17162 -0.008,0.0103 -0.0178,0.6681 -0.0207,1.46089 l -0.006,1.44127 h 1.83142 c 1.00726,0 4.06044,0.0199 6.78459,0.0408 2.72415,0.022 9.34393,0.0582 14.71073,0.0822 l 9.75755,0.0429 0.003,-0.78238 c 0,-0.4305 0.0198,-4.23119 0.0419,-8.44547 0.0222,-4.2142 0.0625,-16.23695 0.0899,-26.71723 l 0.0501,-19.05465 h -1.38286 c -0.76052,-0.003 -8.2121,-0.0332 -16.55919,-0.0682 z m 0.42323,0.36018 7.68376,0.0419 c 4.22592,0.0241 10.71206,0.0603 14.41411,0.0822 3.70205,0.022 7.50898,0.0408 8.45944,0.0418 h 1.72806 l -0.0553,18.77508 c -0.0304,10.3261 -0.0563,22.52458 -0.0563,27.10738 v 8.33231 l -13.90664,-0.0563 c -7.64857,-0.031 -14.92646,-0.0557 -16.17317,-0.0558 h -2.26705 l 0.0238,-11.22463 c 0.0127,-6.17382 0.0281,-11.22963 0.0331,-11.23963 0.007,-0.0101 0.10878,-27.78633 0.11679,-31.61515 z m 5.84615,3.13417 c -0.0257,0.003 -0.17353,0.26633 -0.32866,0.58653 -0.59417,1.2264 -1.66628,2.72667 -2.78433,3.89642 -0.48036,0.50247 -0.50692,0.55157 -0.33279,0.61857 0.20005,0.0768 1.61365,1.76844 2.04897,2.45202 0.53684,0.84304 0.83353,1.3494 1.11621,1.90376 0.12464,0.2445 0.24924,0.44442 0.27647,0.44442 0.0272,0 0.15086,-0.19992 0.27543,-0.44442 0.81224,-1.59409 2.0127,-3.26792 2.95641,-4.12221 l 0.36122,-0.3266 -0.54777,-0.58137 c -1.13151,-1.20139 -1.96851,-2.41308 -2.81171,-4.07157 -0.10064,-0.19788 -0.20387,-0.35555 -0.22945,-0.35555 z m 20.5667,0.12454 c -0.045,0.0278 -0.0816,0.0867 -0.0816,0.13076 0,0.1737 -1.06644,1.94569 -1.65262,2.74609 -0.34102,0.46571 -0.8708,1.09291 -1.17718,1.39422 -0.30639,0.30128 -0.55708,0.58118 -0.55708,0.62219 0,0.0408 0.30967,0.40365 0.68782,0.80666 0.7512,0.8005 1.9796,2.589 2.44016,3.55225 0.16034,0.33536 0.33166,0.6046 0.38085,0.6046 0.0492,-0.003 0.21106,-0.25985 0.35967,-0.57153 0.60447,-1.26773 1.61718,-2.70388 2.68149,-3.80288 l 0.51056,-0.52658 -0.59324,-0.6165 c -0.61656,-0.64022 -1.67985,-2.0741 -2.08618,-2.81379 -0.12898,-0.2348 -0.36836,-0.68527 -0.53227,-1.00148 -0.16391,-0.3161 -0.33521,-0.552 -0.38034,-0.52401 z m -33.91007,0.82114 c -0.0122,-0.0151 -0.20359,0.30845 -0.42478,0.71935 -1.2392,2.3019 -3.1066,4.88585 -4.21835,5.83684 -0.21169,0.181 -0.38559,0.34586 -0.38757,0.36586 -0.003,0.0204 0.31171,0.36344 0.6966,0.76224 0.90131,0.93401 1.19598,1.28318 1.71359,2.03346 0.23283,0.3375 0.53895,0.7716 0.68058,0.9648 0.32108,0.43799 0.99761,1.57025 1.48724,2.48925 0.20466,0.3841 0.39286,0.69861 0.41807,0.69869 0.0251,0 0.15263,-0.219 0.28318,-0.48681 0.95964,-1.96821 2.63686,-4.32369 4.13567,-5.80739 l 0.58498,-0.57878 -0.63614,-0.64905 c -0.3497,-0.35673 -0.75533,-0.8006 -0.90175,-0.98649 -0.14643,-0.18593 -0.29415,-0.35687 -0.32815,-0.38087 -0.0341,-0.0236 -0.27,-0.32869 -0.524,-0.678 -0.77028,-1.0591 -1.58039,-2.37688 -2.18695,-3.55637 -0.20353,-0.39581 -0.37992,-0.73173 -0.39222,-0.74673 z m 23.64765,8.60517 -0.28577,0.51573 c -0.15727,0.28379 -0.28629,0.55295 -0.28629,0.59894 0,0.046 -0.0381,0.0832 -0.0847,0.0832 -0.0466,0 -0.0847,0.0432 -0.0847,0.0972 0,0.0536 -0.2846,0.52025 -0.63253,1.03714 -0.61107,0.90781 -1.31402,1.75807 -1.88618,2.28153 -0.15134,0.13851 -0.27492,0.28072 -0.27492,0.31572 0,0.0354 0.22062,0.28663 0.49041,0.55812 0.86937,0.87489 1.70262,2.06824 2.64015,3.78065 0.19939,0.36418 0.39056,0.63074 0.42478,0.59272 0.0342,-0.0382 0.19083,-0.31742 0.34778,-0.62013 0.6962,-1.34249 1.83726,-2.9314 2.73213,-3.80441 l 0.47181,-0.46043 -0.54467,-0.55552 c -0.94171,-0.9615 -1.9001,-2.30272 -2.63963,-3.69279 z m -10.32185,9.49503 c -0.035,0 -0.12974,0.14269 -0.21084,0.31729 -0.20264,0.43608 -1.14233,1.97135 -1.58905,2.59675 -0.20209,0.28302 -0.68859,0.85481 -1.08107,1.27071 l -0.71365,0.75655 0.45682,0.47128 c 1.00502,1.03809 2.13424,2.6544 2.76986,3.96462 0.1397,0.288 0.27979,0.52507 0.31109,0.52607 0.0314,0 0.2494,-0.36274 0.48421,-0.80875 0.58854,-1.118 1.61109,-2.5496 2.43757,-3.4127 l 0.69247,-0.72348 -0.49455,-0.48987 c -0.92609,-0.9175 -2.5749,-3.30243 -2.89904,-4.19357 -0.0551,-0.15129 -0.12882,-0.2749 -0.16382,-0.2749 z m 20.58169,0.0863 c -0.0262,0 -0.115,0.14113 -0.19689,0.31573 -0.19999,0.42651 -1.08886,1.90847 -1.45986,2.43396 -0.48993,0.694 -1.24882,1.59157 -1.57561,1.86293 -0.1682,0.1397 -0.30753,0.2731 -0.30954,0.29612 -0.003,0.0233 0.28222,0.34724 0.63097,0.71985 0.74322,0.79388 1.78475,2.28777 2.40657,3.45146 0.2421,0.4531 0.46529,0.8232 0.49609,0.82217 0.0308,0 0.20393,-0.29649 0.38447,-0.65627 0.62765,-1.25071 1.90644,-3.04607 2.75488,-3.86747 0.19016,-0.1841 0.34571,-0.36936 0.34571,-0.41135 0,-0.0422 -0.20859,-0.28868 -0.46354,-0.54776 -0.88974,-0.90401 -1.69333,-2.03301 -2.42931,-3.41273 -0.29498,-0.55298 -0.55764,-1.00574 -0.58394,-1.00664 z m 13.32632,14.10248 c -0.009,-0.005 -0.016,-0.004 -0.0207,10e-4 -0.037,0.0416 -0.27966,0.4799 -0.5395,0.97412 -1.04984,1.99678 -2.24213,3.67128 -3.65611,5.13509 l -0.79634,0.82423 0.61495,0.6351 c 1.54342,1.5934 2.61445,3.11102 3.8685,5.48185 0.25233,0.4771 0.47917,0.86736 0.50385,0.86765 0.0246,2.1e-4 0.19028,-0.29485 0.36845,-0.6558 0.93229,-1.88828 2.43221,-4.00592 3.89692,-5.50301 l 0.76585,-0.78291 -0.68368,-0.69865 c -1.46413,-1.49641 -3.03453,-3.74706 -3.93723,-5.64256 -0.16285,-0.34192 -0.32272,-0.6041 -0.38499,-0.63614 z m -33.98294,4.86172 c -0.0251,0 -0.15281,0.2173 -0.2837,0.48421 -0.46601,0.9501 -1.44451,2.41581 -2.21434,3.31661 -0.42989,0.50289 -0.8433,0.93781 -0.91829,0.96687 -0.19608,0.0753 -0.17041,0.16308 0.12868,0.44389 0.83875,0.7875 2.39809,2.97357 3.00757,4.21626 0.12877,0.26263 0.25746,0.4775 0.28577,0.4775 0.0283,0 0.16309,-0.23805 0.29972,-0.52917 0.1366,-0.29099 0.27086,-0.54853 0.29817,-0.57153 0.0273,-0.0233 0.15883,-0.2327 0.29249,-0.46561 0.55809,-0.9721 1.41735,-2.10225 2.14302,-2.81895 l 0.5395,-0.53329 -0.49816,-0.52555 c -1.06775,-1.12529 -1.83067,-2.19662 -2.61844,-3.67781 -0.22887,-0.43032 -0.4368,-0.78303 -0.46199,-0.78343 z m 20.53466,0.0796 c -0.0277,-0.005 -0.0419,0.0251 -0.0419,0.0884 0,0.1947 -0.96704,1.8406 -1.61696,2.75227 -0.3652,0.51224 -0.93051,1.19621 -1.25677,1.51982 l -0.59376,0.58806 0.57412,0.59688 c 0.96793,1.00729 1.88851,2.31373 2.56677,3.64164 0.20293,0.39736 0.39719,0.72274 0.4315,0.72295 0.0343,1.9e-4 0.2006,-0.27397 0.36949,-0.60925 0.68439,-1.35912 1.74486,-2.8611 2.70112,-3.82511 l 0.47749,-0.48109 -0.62011,-0.65993 c -0.77788,-0.82759 -1.76885,-2.24295 -2.37919,-3.39669 -0.32202,-0.60878 -0.52868,-0.9248 -0.61185,-0.93792 z m 14.12317,12.02613 -0.15554,0.86818 c -0.0858,0.47728 -0.16675,0.9054 -0.17984,0.95239 -0.0132,0.0465 -0.0669,0.27509 -0.11937,0.50797 -0.31501,1.3974 -1.1011,3.81609 -1.63969,5.04518 -0.69662,1.58965 -1.90079,3.59048 -2.74712,4.56457 -0.24989,0.2876 -0.25795,0.32091 -0.26097,1.16377 -0.003,0.47728 0.0257,0.86839 0.0605,0.86918 0.0349,0 1.99667,0.0247 4.35993,0.0538 l 4.2969,0.0532 v -1.79006 -1.79007 h -0.88573 -0.88626 l -0.0243,0.86765 -0.0238,0.86815 -2.19574,0.0228 c -1.2076,0.013 -2.22936,-0.0106 -2.27066,-0.0517 -0.0436,-0.0437 0.17292,-0.45159 0.51728,-0.97409 0.59857,-0.90821 1.69862,-3.00768 2.0252,-3.86488 0.69138,-1.81451 1.02541,-2.85776 1.341,-4.19097 0.16858,-0.7121 0.62124,-2.94135 0.62322,-3.06906 0,-0.0779 -0.23706,-0.10594 -0.91622,-0.10594 z" />
  </g>
</svg>
