<?xml version="1.0" encoding="UTF-8" standalone="no"?>
<svg
   sodipodi:docname="8C.svg"
   id="svg8"
   version="1.1"
   viewBox="0 0 63.102257 88.347847"
   height="88.347847mm"
   width="63.102257mm"
   inkscape:version="1.1.1 (1:1.1+202109281949+c3084ef5ed)"
   inkscape:export-filename="/home/doug/k40/52Cards/8C.png"
   inkscape:export-xdpi="96"
   inkscape:export-ydpi="96"
   xmlns:inkscape="http://www.inkscape.org/namespaces/inkscape"
   xmlns:sodipodi="http://sodipodi.sourceforge.net/DTD/sodipodi-0.dtd"
   xmlns="http://www.w3.org/2000/svg"
   xmlns:svg="http://www.w3.org/2000/svg"
   xmlns:rdf="http://www.w3.org/1999/02/22-rdf-syntax-ns#"
   xmlns:cc="http://creativecommons.org/ns#"
   xmlns:dc="http://purl.org/dc/elements/1.1/">
  <defs
     id="defs2">
    <marker
       style="overflow:visible"
       id="marker2995"
       refX="0"
       refY="0"
       orient="auto"
       inkscape:stockid="Arrow1Lstart"
       inkscape:isstock="true">
      <path
         transform="matrix(0.8,0,0,0.8,10,0)"
         style="fill:#000000;fill-opacity:1;fill-rule:evenodd;stroke:#000000;stroke-width:1pt;stroke-opacity:1"
         d="M 0,0 5,-5 -12.5,0 5,5 Z"
         id="path2993" />
    </marker>
    <marker
       style="overflow:visible"
       id="marker2985"
       refX="0"
       refY="0"
       orient="auto"
       inkscape:stockid="Arrow1Lstart"
       inkscape:isstock="true">
      <path
         transform="matrix(0.8,0,0,0.8,10,0)"
         style="fill:#000000;fill-opacity:1;fill-rule:evenodd;stroke:#000000;stroke-width:1pt;stroke-opacity:1"
         d="M 0,0 5,-5 -12.5,0 5,5 Z"
         id="path2983" />
    </marker>
    <marker
       style="overflow:visible"
       id="marker2791"
       refX="0"
       refY="0"
       orient="auto"
       inkscape:stockid="Arrow1Lstart"
       inkscape:isstock="true">
      <path
         transform="matrix(0.8,0,0,0.8,10,0)"
         style="fill:#000000;fill-opacity:1;fill-rule:evenodd;stroke:#000000;stroke-width:1pt;stroke-opacity:1"
         d="M 0,0 5,-5 -12.5,0 5,5 Z"
         id="path2789" />
    </marker>
    <marker
       style="overflow:visible"
       id="marker2781"
       refX="0"
       refY="0"
       orient="auto"
       inkscape:stockid="Arrow1Lstart"
       inkscape:isstock="true">
      <path
         transform="matrix(0.8,0,0,0.8,10,0)"
         style="fill:#000000;fill-opacity:1;fill-rule:evenodd;stroke:#000000;stroke-width:1pt;stroke-opacity:1"
         d="M 0,0 5,-5 -12.5,0 5,5 Z"
         id="path2779" />
    </marker>
    <marker
       style="overflow:visible"
       id="marker2417"
       refX="0"
       refY="0"
       orient="auto"
       inkscape:stockid="Arrow1Lstart"
       inkscape:isstock="true">
      <path
         transform="matrix(0.8,0,0,0.8,10,0)"
         style="fill:#000000;fill-opacity:1;fill-rule:evenodd;stroke:#000000;stroke-width:1pt;stroke-opacity:1"
         d="M 0,0 5,-5 -12.5,0 5,5 Z"
         id="path2415" />
    </marker>
    <marker
       style="overflow:visible"
       id="marker2383"
       refX="0"
       refY="0"
       orient="auto"
       inkscape:stockid="Arrow1Lstart"
       inkscape:isstock="true">
      <path
         transform="matrix(0.8,0,0,0.8,10,0)"
         style="fill:#000000;fill-opacity:1;fill-rule:evenodd;stroke:#000000;stroke-width:1pt;stroke-opacity:1"
         d="M 0,0 5,-5 -12.5,0 5,5 Z"
         id="path2381" />
    </marker>
    <marker
       style="overflow:visible"
       id="marker2355"
       refX="0"
       refY="0"
       orient="auto"
       inkscape:stockid="Arrow1Lstart"
       inkscape:isstock="true">
      <path
         transform="matrix(0.8,0,0,0.8,10,0)"
         style="fill:#000000;fill-opacity:1;fill-rule:evenodd;stroke:#000000;stroke-width:1pt;stroke-opacity:1"
         d="M 0,0 5,-5 -12.5,0 5,5 Z"
         id="path2353" />
    </marker>
    <marker
       style="overflow:visible"
       id="Arrow1Lstart"
       refX="0"
       refY="0"
       orient="auto"
       inkscape:stockid="Arrow1Lstart"
       inkscape:isstock="true">
      <path
         transform="matrix(0.8,0,0,0.8,10,0)"
         style="fill:#000000;fill-opacity:1;fill-rule:evenodd;stroke:#000000;stroke-width:1pt;stroke-opacity:1"
         d="M 0,0 5,-5 -12.5,0 5,5 Z"
         id="path2071" />
    </marker>
  </defs>
  <sodipodi:namedview
     id="base"
     pagecolor="#ffffff"
     bordercolor="#666666"
     borderopacity="1.0"
     inkscape:pageopacity="0.0"
     inkscape:pageshadow="2"
     inkscape:zoom="1.5033851"
     inkscape:cx="86.138941"
     inkscape:cy="167.28914"
     inkscape:document-units="mm"
     inkscape:current-layer="layer1"
     inkscape:document-rotation="0"
     showgrid="false"
     inkscape:snap-smooth-nodes="false"
     inkscape:object-nodes="false"
     inkscape:window-width="1366"
     inkscape:window-height="712"
     inkscape:window-x="0"
     inkscape:window-y="0"
     inkscape:window-maximized="1"
     inkscape:object-paths="false"
     inkscape:snap-intersection-paths="false"
     inkscape:snap-midpoints="false"
     inkscape:snap-others="false"
     inkscape:pagecheckerboard="0"
     showguides="true"
     inkscape:guide-bbox="true"
     inkscape:snap-bbox="true"
     showborder="false"
     fit-margin-top="0"
     fit-margin-left="0"
     fit-margin-right="0"
     fit-margin-bottom="0" />
  <metadata
     id="metadata5">
    <rdf:RDF>
      <cc:Work
         rdf:about="">
        <dc:format>image/svg+xml</dc:format>
        <dc:type
           rdf:resource="http://purl.org/dc/dcmitype/StillImage" />
      </cc:Work>
    </rdf:RDF>
  </metadata>
  <g
     inkscape:label="Layer 1"
     inkscape:groupmode="layer"
     id="layer1"
     transform="translate(143.58539,475.26821)">
    <path
       style="fill:#000000;stroke-width:0.0846667"
       id="path389"
       d="" />
    <path
       id="path5077"
       style="fill:#000000;stroke:none;stroke-width:0.0846667"
       d="m -135.67529,-475.26755 0.004,5.3e-4 c -1.12029,9.8e-4 -2.13585,0.005 -2.77605,0.0124 l -2.32854,0.0258 -0.57775,0.29613 c -0.7423,0.37983 -1.68912,1.3326 -1.98282,1.99522 l -0.20774,0.46921 -0.01,4.57285 c -0.01,2.5151 -0.0142,5.35426 -0.0212,6.30917 -0.01,0.95491 -0.01,3.88914 -0.01,6.52055 0,2.63136 0.01,5.88918 0,7.23985 0,1.35067 -1.9e-4,6.68597 0.01,11.85561 0.01,5.16967 0.01,10.48583 0.01,11.81325 0,1.32738 4.4e-4,4.87106 0.0134,7.87495 0.018,5.89955 0.0185,6.5541 0.0315,17.7519 0,4.1052 0.0125,7.74898 0.0145,8.09665 l 5.2e-4,0.63201 0.19378,0.36793 c 0.3268,0.62015 0.79773,1.1557 1.38183,1.57202 0.9935,0.70771 1.03337,0.71371 4.92477,0.71466 1.3274,3.2e-4 3.10027,0.007 3.93877,0.014 2.4891,0.0218 5.15766,0.0307 9.82266,0.031 2.4219,2.1e-4 4.97527,0.0105 5.67407,0.0233 0.6989,0.0129 3.1567,0.0249 5.4622,0.0279 2.3055,0.003 5.69763,0.0147 7.53752,0.0263 1.83995,0.0117 5.956609,0.0336 9.147249,0.0491 3.19063,0.0154 7.019981,0.0369 8.510591,0.048 3.074382,0.023 3.482374,-0.001 3.990456,-0.2372 h 0.0036 c 1.012169,-0.47017 2.154934,-1.68207 2.345592,-2.4877 0.0404,-0.17102 0.07765,-2.38741 0.08165,-4.9258 0.0142,-8.09741 0.0079,-17.79325 -0.01395,-21.67879 -0.0116,-2.07232 -0.02284,-5.9205 -0.02584,-8.55192 -0.002,-2.63141 -0.008,-7.01389 -0.0124,-9.73843 -0.02,-13.76802 -0.02332,-26.62156 -0.0098,-33.09771 l 0.0098,-4.60283 -0.293523,-0.55758 c -0.524558,-0.99563 -1.775185,-2.04705 -2.610175,-2.19469 -0.440111,-0.0778 -2.16629,-0.0934 -12.873631,-0.11785 -1.25756,-0.003 -2.80087,-0.0116 -3.42976,-0.0186 -0.628889,-0.007 -2.382209,-0.0131 -3.895889,-0.0129 -2.81824,4e-4 -12.30347,-0.0294 -15.79387,-0.0491 -1.0713,-0.006 -3.5292,-0.0179 -5.4622,-0.0269 -1.933,-0.009 -5.24872,-0.026 -7.36802,-0.0367 -1.0597,-0.005 -2.28518,-0.007 -3.40548,-0.006 z m -4.04936,0.508 5.1e-4,5.1e-4 c 2.647,-0.0141 12.9395,0.0446 23.6089,0.13848 2.1197,0.0184 8.02339,0.0648 13.12271,0.10284 5.099099,0.038 11.671669,0.0878 14.604792,0.11213 l 5.191414,0.0419 0.424264,0.22738 c 0.5733,0.30676 1.354932,1.10077 1.583884,1.56425 l 0.187068,0.38033 0.01137,4.60592 c 0.009,3.78238 -0.002,12.616 -0.01964,20.70521 -0.0178,8.08921 -0.04399,15.49413 -0.06149,16.23674 -0.0207,0.88426 -0.03928,7.87691 -0.04548,15.67759 -0.006,8.12718 -0.02002,14.33267 -0.04083,18.55081 -0.0104,2.10908 -0.02331,3.72227 -0.03721,4.82812 -0.007,0.55293 -0.01297,0.97917 -0.02067,1.27537 -0.004,0.14811 -0.009,0.26408 -0.0124,0.34367 -0.004,0.0796 -0.0173,0.15909 -0.0031,0.0822 -0.0654,0.34515 -0.419005,0.9538 -0.912606,1.40147 -0.691618,0.62722 -1.193472,0.88093 -1.806091,0.971 -0.22447,0.033 -0.726924,0.0666 -1.150834,0.0796 -0.211961,0.007 -0.408686,0.009 -0.545187,0.006 -0.06,-0.001 -0.101127,-0.005 -0.126606,-0.007 -0.005,-0.002 -0.0155,-0.004 -0.0155,-0.004 -5.29e-4,-1.5e-4 -0.04796,-0.0105 -0.06046,-0.0124 -0.0249,-0.004 -0.03466,-0.005 -0.04496,-0.006 -0.0206,-0.002 -0.03474,-0.001 -0.05064,-0.002 -0.0319,-0.002 -0.06959,-0.004 -0.117305,-0.005 -0.0954,-0.003 -0.230601,-0.006 -0.402559,-0.009 -0.34395,-0.006 -0.835096,-0.0117 -1.441256,-0.0181 -1.212289,-0.0127 -2.878149,-0.0255 -4.706689,-0.0362 -3.65498,-0.0216 -8.325269,-0.0541 -10.373009,-0.0713 -5.82637,-0.0488 -12.05631,-0.0927 -19.00711,-0.13229 -3.5156,-0.02 -9.19492,-0.0549 -12.61732,-0.078 l -6.09162,-0.0403 -0.4749,-0.22791 c -0.5453,-0.26202 -1.26917,-0.9397 -1.66037,-1.59629 l -0.216,-0.36121 -0.0243,-17.41236 c -0.024,-16.53717 0.034,-44.23047 0.1235,-58.63778 l 0.0403,-6.30451 0.26769,-0.52917 c 0.4581,-0.90784 1.63349,-1.76157 2.32389,-1.83452 -0.04,0.004 0.045,-0.002 0.14831,-0.003 0.107,-10e-4 0.25782,-0.002 0.44752,-0.003 z m 3.78736,3.63337 c -0.3769,0.002 -0.88178,0.0556 -1.12138,0.12041 -1.8223,0.49212 -3.02514,2.35677 -2.61224,4.04934 0.1334,0.54737 0.675,1.55514 0.91571,1.70431 0.1704,0.10552 0.22488,0.3142 0.0827,0.3147 -0.045,1.6e-4 -0.3233,0.22897 -0.6196,0.50797 -0.5646,0.53195 -1.01211,1.25818 -1.19941,1.94665 -0.1384,0.5239 -0.13647,1.56064 0.0103,2.09447 0.4001,1.48119 1.86623,2.82358 3.43183,3.14192 1.61121,0.32753 3.28687,-0.14364 4.41627,-1.24179 1.4032,-1.36438 1.71578,-3.14061 0.85318,-4.84622 -0.2233,-0.44156 -0.98186,-1.30272 -1.37666,-1.56321 l -0.20412,-0.13538 0.30489,-0.34055 c 2.0476,-2.28259 0.30596,-5.76892 -2.87424,-5.75262 z m -0.11472,1.77249 h 0.007 c 0.7696,-0.0296 1.53981,0.3446 1.91151,1.05421 0.174,0.33673 0.17258,1.1127 -0.01,1.45777 -0.374,0.72668 -1.08256,1.09173 -1.99936,1.02942 -0.676,-0.046 -1.09747,-0.26797 -1.49707,-0.78809 -0.197,-0.25567 -0.24298,-0.40965 -0.26458,-0.87021 -0.032,-0.68117 0.0858,-0.97499 0.55397,-1.37875 0.375,-0.32327 0.83683,-0.48659 1.29863,-0.50435 z m 0.0894,5.25394 c 0.9517,-0.003 1.76465,0.3574 2.31975,1.02992 0.4298,0.52078 0.56553,0.89402 0.56793,1.56477 0,1.26405 -0.90306,2.22636 -2.36006,2.50267 -1.2666,0.24019 -2.65623,-0.38214 -3.21583,-1.44074 -0.2535,-0.47956 -0.32563,-1.33868 -0.15193,-1.8097 0.4185,-1.13474 1.50664,-1.84218 2.84014,-1.84692 z m 39.726769,5.47563 c -0.43478,-0.008 -31.317559,0.0741 -32.351509,0.0858 -0.031,3.4e-4 -0.021,12.364 0.032,27.47478 l 0.0868,27.47431 8.27753,-0.0274 c 4.5526,-0.015 11.98243,-0.017 16.51113,-0.005 l 8.234129,0.0222 -0.01,-2.69957 c 0,-1.48479 -0.04,-13.86284 -0.077,-27.50685 l -0.0682,-24.80728 z m -1.71359,0.23514 c 0.009,0.002 0.0102,0.0212 0.015,0.0599 0.01,0.0781 0.26233,0.10486 0.98133,0.10232 l 0.97359,-0.003 0.0749,27.0986 0.0749,27.0986 -16.035709,0.0491 c -8.8194,0.027 -16.06755,0.029 -16.10755,0.004 -0.039,-0.0273 -0.11505,-12.20983 -0.16795,-27.14511 l -0.0961,-27.10069 15.10657,-0.001 c 11.8685,-7.9e-4 15.115729,-0.0229 15.148429,-0.10438 0.0156,-0.0393 0.0256,-0.0578 0.0326,-0.0584 z m -4.329969,3.24527 c -0.8543,0.0574 -1.41917,0.55446 -1.63917,1.44283 -0.1374,0.55483 0.0661,1.22531 0.51935,1.71357 0.1839,0.19817 0.31218,0.38174 0.28628,0.40825 -0.026,0.0266 -0.17738,-0.005 -0.33538,-0.0698 -0.1578,-0.0653 -0.50739,-0.11816 -0.77669,-0.11679 -0.8506,0.004 -1.61331,0.59376 -1.80041,1.39063 -0.095,0.40312 -0.0898,0.49591 0.0512,0.96427 0.2425,0.80653 1.22552,1.40227 2.05362,1.24386 0.7432,-0.14216 1.22626,-0.56301 1.38596,-1.20716 0.1356,-0.54708 0.21156,-0.44355 0.14987,0.20463 -0.079,0.82838 -0.21704,1.32241 -0.61444,2.18281 l -0.35243,0.76274 1.2392,-0.004 1.24023,-0.004 -0.23771,-0.47543 c -0.4828,-0.96438 -0.6491,-1.51 -0.8015,-2.63239 -0.062,-0.45252 0.072,-0.55989 0.15968,-0.12867 0.1409,0.69136 0.76675,1.20907 1.57355,1.30172 0.525799,0.0604 0.956759,-0.0878 1.382859,-0.4749 0.4226,-0.38415 0.56651,-0.72138 0.56431,-1.32601 0,-0.75975 -0.44279,-1.40039 -1.16789,-1.70119 -0.3631,-0.15065 -1.115399,-0.14065 -1.494999,0.0196 -0.3603,0.152 -0.39325,0.0686 -0.0879,-0.2191 0.5459,-0.51369 0.8219,-1.38123 0.6258,-1.96837 -0.2914,-0.87233 -1.02041,-1.36758 -1.92391,-1.30688 z m -19.7683,0.01 c -0.1255,0.002 -0.25318,0.0168 -0.38189,0.046 -0.7259,0.16465 -1.15562,0.56382 -1.35702,1.26037 -0.2012,0.69511 0.0263,1.45679 0.59118,1.98077 0.1401,0.13013 0.23422,0.25705 0.21032,0.28163 -0.024,0.0247 -0.24071,-0.019 -0.48111,-0.0966 -0.91269,-0.29496 -1.87377,0.0972 -2.31717,0.94567 l -5.1e-4,5.3e-4 c -0.081,0.15523 -0.13505,0.47321 -0.13384,0.81595 0,0.49705 0.0312,0.60889 0.27543,0.9679 0.3627,0.53229 0.86068,0.79494 1.49758,0.79065 0.8654,-0.006 1.63843,-0.57073 1.74873,-1.2764 0.079,-0.50107 0.21433,-0.40878 0.15813,0.1075 -0.096,0.88064 -0.32356,1.70035 -0.67386,2.42208 -0.1963,0.4042 -0.35313,0.73916 -0.34313,0.74414 0.01,0.005 0.30915,-0.0315 0.67024,-0.0801 0.4478,-0.0607 0.83824,-0.0616 1.22784,-0.003 0.3142,0.047 0.58406,0.074 0.59996,0.0605 0.016,-0.0135 -0.0692,-0.18901 -0.1881,-0.39065 -0.3428,-0.58047 -0.65923,-1.48786 -0.79013,-2.26809 -0.142,-0.84611 -0.14623,-0.93086 -0.047,-0.9312 0.041,-1.6e-4 0.11773,0.16769 0.17053,0.37309 0.1931,0.75607 0.85101,1.2283 1.70791,1.22526 0.8836,-0.003 1.58085,-0.54153 1.77715,-1.37306 0.3271,-1.38501 -1.0783,-2.60183 -2.4722,-2.14043 -0.2398,0.0793 -0.45384,0.12579 -0.47594,0.10388 -0.022,-0.022 0.11316,-0.19447 0.30076,-0.38346 0.4037,-0.40659 0.64974,-1.1149 0.55604,-1.60301 -0.1827,-0.95535 -0.95085,-1.59141 -1.82935,-1.57921 z m -13.85135,1.03767 c -0.7517,0.002 -1.55743,0.31276 -1.92753,0.8015 -0.8489,1.12133 -0.7385,2.49441 0.28371,3.52846 0.2169,0.21933 0.37099,0.42253 0.34209,0.45167 -0.029,0.0291 -0.2844,-0.0263 -0.56741,-0.12301 -0.6355,-0.21746 -1.23079,-0.22243 -1.7725,-0.0145 -0.7567,0.29059 -1.23018,0.77488 -1.49758,1.5317 -0.3949,1.11736 0.22267,2.50851 1.32447,2.98587 1.3467,0.58341 3.05874,-0.26889 3.28714,-1.6366 0.09,-0.53568 0.22143,-0.45376 0.20154,0.12506 -0.038,1.09538 -0.36517,2.28995 -0.94827,3.46232 -0.2287,0.45974 -0.40312,0.84687 -0.38912,0.86042 0.015,0.0136 0.25503,-0.0137 0.53433,-0.0605 0.5127,-0.0858 2.16634,-0.0505 2.61225,0.0558 l 0.24184,0.0579 -0.35553,-0.6418 c -0.4258,-0.7693 -0.79905,-1.82033 -0.98185,-2.76574 -0.23,-1.18915 -0.13915,-2.03129 0.11265,-1.04593 0.2433,0.95181 0.74076,1.43846 1.73116,1.69447 0.4663,0.12052 0.60908,0.12489 1.01958,0.0315 1.313,-0.29871 2.17819,-1.57554 1.91409,-2.82514 -0.3306,-1.56506 -1.96113,-2.39342 -3.52433,-1.79006 -0.2122,0.0821 -0.41077,0.12337 -0.44287,0.092 -0.032,-0.0314 0.11453,-0.22302 0.32453,-0.4258 0.5935,-0.57274 0.78952,-1.05066 0.78652,-1.91616 0,-0.59994 -0.0381,-0.78764 -0.21498,-1.1312 -0.2734,-0.53076 -0.83551,-1.01923 -1.37821,-1.19735 -0.2204,-0.0724 -0.46512,-0.1057 -0.71572,-0.1049 z m 23.87503,8.72712 c -0.9326,-0.008 -1.84772,0.68543 -1.85002,1.81798 -3.9e-4,0.55351 0.1735,0.96207 0.6103,1.43245 0.3727,0.40156 0.34966,0.44604 -0.12764,0.24858 -0.9397,-0.3887 -2.15945,0.15491 -2.48925,1.1095 -0.353,1.02153 0.34791,2.16419 1.4521,2.36728 0.77551,0.14264 1.74065,-0.40264 1.93425,-1.09294 0.2443,-0.8713 0.32689,-0.38939 0.11369,0.66196 -0.1412,0.69554 -0.4642,1.62605 -0.7152,2.05931 -0.089,0.1543 -0.16278,0.28762 -0.16278,0.29662 0,0.009 0.55263,0.0148 1.22783,0.0124 0.6752,-0.002 1.22773,-0.0154 1.22783,-0.0284 -1e-4,-0.013 -0.11456,-0.2486 -0.25476,-0.524 -0.3116,-0.61185 -0.65334,-1.75049 -0.73484,-2.44584 -0.068,-0.58277 0.074,-0.73509 0.16485,-0.17727 0.08,0.48937 0.54679,0.97258 1.10949,1.14774 0.8066,0.25111 1.63263,-0.0309 2.11563,-0.72348 0.2293,-0.32827 0.25574,-0.43357 0.25374,-0.98803 0,-0.55417 -0.0302,-0.6594 -0.26097,-0.9865 -0.4956,-0.70215 -1.45593,-0.99515 -2.28203,-0.69766 -0.1842,0.0663 -0.35156,0.10388 -0.37156,0.0837 -0.02,-0.0202 0.11508,-0.20326 0.30128,-0.40669 0.1861,-0.20344 0.38547,-0.51351 0.44286,-0.68935 0.16191,-0.49654 0.0712,-1.23968 -0.2005,-1.64745 -0.3787,-0.5678 -0.9446,-0.82503 -1.5043,-0.82992 z m 9.94668,9.741 c -0.53066,-0.005 -1.05386,0.20953 -1.37563,0.64389 -0.3452,0.46641 -0.42244,0.68086 -0.42064,1.17616 0,0.53993 0.21882,1.03904 0.65422,1.50222 0.2622,0.27906 0.26365,0.28453 0.0568,0.22688 -0.9697,-0.27048 -1.33968,-0.25254 -1.92288,0.092 -0.41829,0.24712 -0.73584,0.63995 -0.85214,1.05471 h -5.2e-4 c -0.1152,0.4014 -0.11531,0.54126 -0.01,0.96843 0.2555,0.99928 1.33641,1.57832 2.34611,1.25677 0.606,-0.19296 0.96888,-0.55772 1.13998,-1.14671 l 0.13229,-0.4563 0.0119,0.47337 c 0.012,0.63987 -0.25744,1.66674 -0.65784,2.51198 l -0.33073,0.69763 0.52452,-0.0496 c 0.2883,-0.0272 0.5667,-0.0621 0.6196,-0.078 0.053,-0.0159 0.37282,0.005 0.71262,0.046 0.3399,0.0419 0.63105,0.0633 0.64595,0.0481 0.015,-0.0151 -0.0893,-0.24029 -0.23151,-0.50025 -0.3336,-0.61092 -0.66308,-1.57406 -0.72708,-2.12442 -0.028,-0.23873 -0.0694,-0.51953 -0.0904,-0.62423 -0.066,-0.31654 0.0991,-0.21399 0.20257,0.12608 0.1452,0.47768 0.63378,0.92741 1.17668,1.08315 0.811999,0.23294 1.557569,-0.0483 2.036559,-0.7674 0.2299,-0.34525 0.27374,-0.4885 0.27234,-0.89866 0,-0.63838 -0.167,-1.00637 -0.632,-1.41282 -0.5947,-0.51967 -1.14799,-0.63611 -1.861389,-0.39015 -0.2202,0.0759 -0.41711,0.12096 -0.43821,0.10025 -0.021,-0.0207 0.11175,-0.20056 0.29455,-0.4 0.716,-0.7811 0.76813,-1.69042 0.14263,-2.48563 -0.34742,-0.44153 -0.88427,-0.66667 -1.4149,-0.67334 z m -19.88251,0.0186 c -0.26988,0.001 -0.54828,0.0669 -0.8263,0.19741 -1.1281,0.5302 -1.34098,2.00456 -0.43098,2.98482 0.19069,0.20542 0.3283,0.39248 0.3054,0.4155 -0.023,0.023 -0.17991,-0.0154 -0.34881,-0.0853 -0.4246,-0.17568 -1.12814,-0.15602 -1.53944,0.0434 -0.6253,0.30316 -0.93633,0.68879 -1.03973,1.28725 -0.074,0.42979 0.019,1.03553 0.20154,1.31207 0.7806,1.18219 2.56418,1.14308 3.17758,-0.0698 0.091,-0.18031 0.16525,-0.40524 0.16485,-0.50022 -3e-4,-0.095 0.0404,-0.17296 0.0894,-0.17312 0.263,-9.5e-4 -0.24147,2.1413 -0.71727,3.0453 -0.1579,0.30017 -0.27762,0.55531 -0.26562,0.5674 0.012,0.012 0.17322,-0.0139 0.35812,-0.0574 0.4196,-0.0989 1.23163,-0.10192 1.73322,-0.007 0.20961,0.0398 0.3907,0.0625 0.4036,0.0501 0.012,-0.0123 -0.13171,-0.32904 -0.32091,-0.70384 -0.3615,-0.71597 -0.62289,-1.59356 -0.71779,-2.40967 -0.067,-0.57528 0.054,-0.64717 0.19017,-0.11369 0.4562,1.7849 3.21792,1.54546 3.52382,-0.30541 0.126,-0.76229 -0.40642,-1.6632 -1.16892,-1.97766 -0.3961,-0.16295 -1.08297,-0.16483 -1.46606,-0.003 -0.3601,0.152 -0.39558,0.0209 -0.0765,-0.28422 0.3705,-0.35411 0.56992,-0.84627 0.56792,-1.40612 0,-0.57571 -0.13522,-0.8844 -0.55552,-1.28466 -0.2921,-0.27821 -0.62342,-0.44717 -0.97462,-0.50231 l -5.2e-4,5.3e-4 c -0.0878,-0.0138 -0.17669,-0.0206 -0.26665,-0.0202 z m 11.12697,9.81181 c -0.10114,10e-4 -0.31519,0.026 -0.55242,0.0661 -0.4226,0.0717 -0.73525,0.0736 -1.17925,0.006 -0.33231,-0.0502 -0.61756,-0.0783 -0.63356,-0.0625 v 5.3e-4 c -0.016,0.0159 0.0837,0.25098 0.22066,0.52295 0.413,0.81886 0.78722,2.1496 0.78961,2.80863 0,0.28249 -0.0849,0.17891 -0.25424,-0.30491 -0.2597,-0.74289 -1.19557,-1.21044 -2.03967,-1.01957 -0.6118,0.1384 -0.95977,0.42672 -1.32447,1.09606 -0.072,0.13335 -0.1036,0.38992 -0.0832,0.69144 0.086,1.28119 1.3516,2.07624 2.59829,1.63142 0.3978,-0.14198 0.46753,-0.0379 0.14573,0.21704 -0.3203,0.25379 -0.63929,0.97904 -0.63768,1.45108 0,1.39671 1.43605,2.26229 2.67735,1.61901 0.7444,-0.38576 1.11107,-1.12429 0.95757,-1.93011 -0.083,-0.43434 -0.41818,-1.01748 -0.67748,-1.17824 -0.092,-0.0575 -0.1693,-0.15309 -0.1695,-0.21238 -3e-4,-0.0835 0.0689,-0.0789 0.30696,0.0196 0.364,0.15063 0.99416,0.16224 1.39526,0.0263 0.9887,-0.33493 1.51607,-1.49426 1.09347,-2.40448 -0.4334,-0.93313 -1.55237,-1.32609 -2.49907,-0.87696 -0.4776,0.22659 -0.77536,0.56658 -0.91106,1.04077 -0.086,0.30212 -0.10682,0.32501 -0.13642,0.15036 -0.08,-0.47498 0.33262,-2.03023 0.74672,-2.81377 0.1457,-0.27535 0.24735,-0.51734 0.22635,-0.53795 -0.005,-0.005 -0.0262,-0.007 -0.06,-0.007 z m 24.361821,5.6591 c -0.01,-0.009 -0.186608,0.0251 -0.394808,0.0754 -0.488199,0.11821 -2.046145,0.12404 -2.535244,0.009 -0.2085,-0.0488 -0.38691,-0.0803 -0.39791,-0.0698 -0.01,0.0106 0.16892,0.39857 0.39842,0.86196 0.22951,0.46337 0.51124,1.16557 0.626839,1.56115 0.220401,0.75419 0.442584,2.23493 0.357084,2.37506 -0.089,0.14494 -0.184679,0.007 -0.242877,-0.34933 -0.172802,-1.0568 -0.972566,-1.6986 -2.181266,-1.7508 -0.5224,-0.0226 -0.72407,0.008 -1.08107,0.16277 -0.5514,0.23953 -1.1493,0.88995 -1.3131,1.42885 h -5.1e-4 c -0.6212,2.04341 1.34802,3.82453 3.36982,3.04787 0.5259,-0.20217 0.48732,-0.19677 0.48782,-0.0651 2e-4,0.0582 -0.13019,0.21045 -0.28939,0.33848 -0.1631,0.1311 -0.41144,0.48276 -0.56844,0.8046 -0.2352,0.48291 -0.27878,0.66429 -0.27698,1.16633 0,1.38412 1.02988,2.43383 2.379182,2.43605 0.709398,0.001 1.273149,-0.22127 1.761649,-0.69609 0.474099,-0.46078 0.666633,-0.89432 0.710033,-1.60145 0.034,-0.5435 0.01089,-0.66508 -0.216006,-1.14514 -0.147701,-0.31292 -0.425677,-0.70228 -0.665075,-0.93329 -0.225901,-0.21804 -0.390221,-0.41759 -0.364321,-0.44339 0.026,-0.0258 0.249529,0.032 0.497129,0.12869 0.651798,0.25416 1.456285,0.24305 2.040186,-0.0279 0.611698,-0.28377 0.919512,-0.56253 1.214911,-1.10019 0.218202,-0.39635 0.247047,-0.53618 0.244946,-1.12964 0,-0.5366 -0.0429,-0.75189 -0.194302,-1.03457 -0.295201,-0.55208 -0.668872,-0.9247 -1.170472,-1.1679 -0.402899,-0.19558 -0.539644,-0.21831 -1.117243,-0.18809 -0.7748,0.0406 -1.319032,0.2785 -1.758034,0.7679 -0.2549,0.28411 -0.544319,0.99536 -0.543118,1.33326 2.99e-4,0.0926 -0.02598,0.10276 -0.09198,0.0367 -0.066,-0.0661 -0.067,-0.30393 0,-0.85061 0.139602,-1.18295 0.381349,-2.01901 0.876951,-3.03133 0.251198,-0.51316 0.449765,-0.94086 0.439766,-0.9498 z m -14.294221,4.03333 c 3e-5,3e-5 -5.4e-4,10e-4 -5.1e-4,10e-4 4.6e-4,1.6e-4 0.006,-7.1e-4 0.006,-5e-4 z m -5.1e-4,10e-4 c -0.0178,-0.006 -0.18389,0.0198 -0.38809,0.06 -0.5008,0.0986 -1.31283,0.10117 -1.73323,0.005 -0.1851,-0.0423 -0.34832,-0.0656 -0.36122,-0.0522 -0.013,0.0135 0.10754,0.28777 0.26924,0.60876 0.3984,0.79076 0.73705,1.97085 0.72915,2.56005 l -0.01,0.47697 -0.16536,-0.4599 c -0.1954,-0.54451 -0.4077,-0.78814 -0.8847,-1.01701 -0.988,-0.47397 -2.2363,0.0569 -2.5523,1.08572 -0.1334,0.43423 -0.13058,0.6005 0.016,1.08884 0.1445,0.48035 0.59713,0.96954 1.08313,1.16994 0.39541,0.16287 1.0825,0.1652 1.464,0.004 0.3816,-0.16111 0.43336,-0.0561 0.11886,0.24286 -0.975,0.92681 -0.77075,2.53979 0.39015,3.08044 1.0938,0.50943 2.45652,-0.19519 2.64222,-1.36634 0.075,-0.46945 -0.17371,-1.16795 -0.57671,-1.62263 -0.1937,-0.21847 -0.33454,-0.41519 -0.31264,-0.43717 0.022,-0.0219 0.1881,0.0213 0.37,0.0966 0.6641,0.27474 1.667509,0.0262 2.167309,-0.53742 0.2406,-0.27133 0.40261,-0.76335 0.40101,-1.21751 0,-1.30587 -1.41858,-2.1691 -2.603979,-1.59009 -0.4404,0.21513 -0.85066,0.69408 -0.92035,1.07384 -0.095,0.51366 -0.2284,0.42193 -0.1633,-0.11213 0.1,-0.82365 0.35993,-1.72456 0.70693,-2.44637 0.17994,-0.37428 0.32288,-0.68506 0.31368,-0.69453 z m -21.12533,0.0878 -1.25419,0.004 0.36019,0.76118 c 0.3596,0.75922 0.59334,1.58623 0.66404,2.34664 0.046,0.50374 -0.061,0.52284 -0.18603,0.0331 -0.1729,-0.67659 -1.0001,-1.23491 -1.8247,-1.23198 -0.6441,0.002 -1.44782,0.66596 -1.61592,1.3343 -0.3674,1.46351 0.92152,2.69433 2.37402,2.26652 0.2688,-0.0793 0.50868,-0.1248 0.53278,-0.10078 0.024,0.024 -0.0659,0.13719 -0.2005,0.25115 -0.4005,0.33935 -0.66323,0.95022 -0.65113,1.53842 0.01,0.61076 0.16271,0.93522 0.63821,1.33945 0.55869,0.47472 1.32174,0.56623 1.98334,0.23823 1.1292,-0.55986 1.35498,-2.056 0.45268,-2.99775 -0.186,-0.19413 -0.32224,-0.36849 -0.30334,-0.38757 0.019,-0.019 0.21043,0.0247 0.42633,0.0972 0.4987,0.16745 0.76308,0.1647 1.27538,-0.0119 1.2794,-0.44095 1.67464,-1.98583 0.76274,-2.98225 -0.8979,-0.98105 -2.6701,-0.61513 -3.0117,0.62169 -0.1462,0.53073 -0.27391,0.49922 -0.20981,-0.0517 0.1178,-1.01721 0.36301,-1.74577 1.02061,-3.0303 0.012,-0.0233 -0.543,-0.0402 -1.233,-0.0377 z m 33.866669,10.94714 c -0.178401,-0.002 -0.359522,0.004 -0.543121,0.0202 -1.258999,0.10655 -2.222239,0.56417 -3.028239,1.43764 -0.4343,0.47077 -0.99027,1.47177 -1.06867,1.92651 -0.071,0.4095 -0.0508,1.4864 0.0362,1.85362 0.1757,0.75009 0.51249,1.2982 1.23299,2.00919 l 0.69919,0.69038 -0.24908,0.23926 c -0.1369,0.132 -0.38843,0.52435 -0.55862,0.8718 -0.29241,0.59712 -0.30615,0.67625 -0.30335,1.44074 0.01,1.0985 0.22171,1.6343 0.93121,2.33939 0.923,0.91718 2.087745,1.31784 3.302643,1.13636 1.746102,-0.26082 2.997268,-1.40015 3.26957,-2.97915 0.156898,-0.90961 -0.175975,-1.99224 -0.834576,-2.71611 l -0.325561,-0.35761 0.334346,-0.26715 c 1.0786,-0.85958 1.625319,-1.86201 1.69292,-3.10526 0.138901,-2.53553 -1.911016,-4.50789 -4.587316,-4.53977 z m -0.04599,1.77043 c 1.1014,0.0244 2.200706,0.5923 2.685108,1.56993 0.632098,1.27575 0.05002,2.68116 -1.389581,3.34968 -0.479999,0.22299 -0.665692,0.26154 -1.285192,0.26974 -0.675101,0.009 -0.767744,-0.0121 -1.379245,-0.3116 -0.7658,-0.37502 -1.24939,-0.90484 -1.4578,-1.59731 -0.1919,-0.63812 -0.13069,-1.19571 0.20051,-1.82264 0.2284,-0.43225 0.32061,-0.53774 0.77411,-0.88521 0.5299,-0.40616 1.191291,-0.58722 1.85209,-0.57259 z m 0.05943,6.85385 c 0.520989,0.0256 1.040834,0.23524 1.420585,0.61238 1.246201,1.23735 -0.04757,3.27718 -1.863968,2.93936 -0.777207,-0.14457 -1.331157,-0.61971 -1.524457,-1.30794 -0.1196,-0.42619 -0.11685,-0.60106 0.0171,-0.98031 0.154,-0.43574 0.33997,-0.67411 0.73277,-0.93999 0.2927,-0.19804 0.639279,-0.30435 0.994778,-0.32297 0.07405,-0.004 0.148815,-0.004 0.223242,-5.3e-4 z" />
  </g>
</svg>
