<?xml version="1.0" encoding="UTF-8" standalone="no"?>
<svg
   sodipodi:docname="8D.svg"
   id="svg8"
   version="1.1"
   viewBox="0 0 63.102516 88.347847"
   height="88.347847mm"
   width="63.102516mm"
   inkscape:version="1.1.1 (1:1.1+202109281949+c3084ef5ed)"
   inkscape:export-filename="/home/doug/k40/52Cards/8D.png"
   inkscape:export-xdpi="96"
   inkscape:export-ydpi="96"
   xmlns:inkscape="http://www.inkscape.org/namespaces/inkscape"
   xmlns:sodipodi="http://sodipodi.sourceforge.net/DTD/sodipodi-0.dtd"
   xmlns="http://www.w3.org/2000/svg"
   xmlns:svg="http://www.w3.org/2000/svg"
   xmlns:rdf="http://www.w3.org/1999/02/22-rdf-syntax-ns#"
   xmlns:cc="http://creativecommons.org/ns#"
   xmlns:dc="http://purl.org/dc/elements/1.1/">
  <defs
     id="defs2">
    <marker
       style="overflow:visible"
       id="marker2995"
       refX="0"
       refY="0"
       orient="auto"
       inkscape:stockid="Arrow1Lstart"
       inkscape:isstock="true">
      <path
         transform="matrix(0.8,0,0,0.8,10,0)"
         style="fill:#000000;fill-opacity:1;fill-rule:evenodd;stroke:#000000;stroke-width:1pt;stroke-opacity:1"
         d="M 0,0 5,-5 -12.5,0 5,5 Z"
         id="path2993" />
    </marker>
    <marker
       style="overflow:visible"
       id="marker2985"
       refX="0"
       refY="0"
       orient="auto"
       inkscape:stockid="Arrow1Lstart"
       inkscape:isstock="true">
      <path
         transform="matrix(0.8,0,0,0.8,10,0)"
         style="fill:#000000;fill-opacity:1;fill-rule:evenodd;stroke:#000000;stroke-width:1pt;stroke-opacity:1"
         d="M 0,0 5,-5 -12.5,0 5,5 Z"
         id="path2983" />
    </marker>
    <marker
       style="overflow:visible"
       id="marker2791"
       refX="0"
       refY="0"
       orient="auto"
       inkscape:stockid="Arrow1Lstart"
       inkscape:isstock="true">
      <path
         transform="matrix(0.8,0,0,0.8,10,0)"
         style="fill:#000000;fill-opacity:1;fill-rule:evenodd;stroke:#000000;stroke-width:1pt;stroke-opacity:1"
         d="M 0,0 5,-5 -12.5,0 5,5 Z"
         id="path2789" />
    </marker>
    <marker
       style="overflow:visible"
       id="marker2781"
       refX="0"
       refY="0"
       orient="auto"
       inkscape:stockid="Arrow1Lstart"
       inkscape:isstock="true">
      <path
         transform="matrix(0.8,0,0,0.8,10,0)"
         style="fill:#000000;fill-opacity:1;fill-rule:evenodd;stroke:#000000;stroke-width:1pt;stroke-opacity:1"
         d="M 0,0 5,-5 -12.5,0 5,5 Z"
         id="path2779" />
    </marker>
    <marker
       style="overflow:visible"
       id="marker2417"
       refX="0"
       refY="0"
       orient="auto"
       inkscape:stockid="Arrow1Lstart"
       inkscape:isstock="true">
      <path
         transform="matrix(0.8,0,0,0.8,10,0)"
         style="fill:#000000;fill-opacity:1;fill-rule:evenodd;stroke:#000000;stroke-width:1pt;stroke-opacity:1"
         d="M 0,0 5,-5 -12.5,0 5,5 Z"
         id="path2415" />
    </marker>
    <marker
       style="overflow:visible"
       id="marker2383"
       refX="0"
       refY="0"
       orient="auto"
       inkscape:stockid="Arrow1Lstart"
       inkscape:isstock="true">
      <path
         transform="matrix(0.8,0,0,0.8,10,0)"
         style="fill:#000000;fill-opacity:1;fill-rule:evenodd;stroke:#000000;stroke-width:1pt;stroke-opacity:1"
         d="M 0,0 5,-5 -12.5,0 5,5 Z"
         id="path2381" />
    </marker>
    <marker
       style="overflow:visible"
       id="marker2355"
       refX="0"
       refY="0"
       orient="auto"
       inkscape:stockid="Arrow1Lstart"
       inkscape:isstock="true">
      <path
         transform="matrix(0.8,0,0,0.8,10,0)"
         style="fill:#000000;fill-opacity:1;fill-rule:evenodd;stroke:#000000;stroke-width:1pt;stroke-opacity:1"
         d="M 0,0 5,-5 -12.5,0 5,5 Z"
         id="path2353" />
    </marker>
    <marker
       style="overflow:visible"
       id="Arrow1Lstart"
       refX="0"
       refY="0"
       orient="auto"
       inkscape:stockid="Arrow1Lstart"
       inkscape:isstock="true">
      <path
         transform="matrix(0.8,0,0,0.8,10,0)"
         style="fill:#000000;fill-opacity:1;fill-rule:evenodd;stroke:#000000;stroke-width:1pt;stroke-opacity:1"
         d="M 0,0 5,-5 -12.5,0 5,5 Z"
         id="path2071" />
    </marker>
  </defs>
  <sodipodi:namedview
     id="base"
     pagecolor="#ffffff"
     bordercolor="#666666"
     borderopacity="1.0"
     inkscape:pageopacity="0.0"
     inkscape:pageshadow="2"
     inkscape:zoom="1.5033851"
     inkscape:cx="86.138941"
     inkscape:cy="167.28914"
     inkscape:document-units="mm"
     inkscape:current-layer="layer1"
     inkscape:document-rotation="0"
     showgrid="false"
     inkscape:snap-smooth-nodes="false"
     inkscape:object-nodes="false"
     inkscape:window-width="1366"
     inkscape:window-height="712"
     inkscape:window-x="0"
     inkscape:window-y="0"
     inkscape:window-maximized="1"
     inkscape:object-paths="false"
     inkscape:snap-intersection-paths="false"
     inkscape:snap-midpoints="false"
     inkscape:snap-others="false"
     inkscape:pagecheckerboard="0"
     showguides="true"
     inkscape:guide-bbox="true"
     inkscape:snap-bbox="true"
     showborder="false"
     fit-margin-top="0"
     fit-margin-left="0"
     fit-margin-right="0"
     fit-margin-bottom="0" />
  <metadata
     id="metadata5">
    <rdf:RDF>
      <cc:Work
         rdf:about="">
        <dc:format>image/svg+xml</dc:format>
        <dc:type
           rdf:resource="http://purl.org/dc/dcmitype/StillImage" />
      </cc:Work>
    </rdf:RDF>
  </metadata>
  <g
     inkscape:label="Layer 1"
     inkscape:groupmode="layer"
     id="layer1"
     transform="translate(143.58552,596.89996)">
    <path
       style="fill:#000000;stroke-width:0.0846667"
       id="path389"
       d="" />
    <path
       id="path6742-7-6-31"
       style="fill:#000000;fill-opacity:1;stroke:none;stroke-width:0.264999;stroke-miterlimit:4;stroke-dasharray:none;stroke-opacity:1"
       d="m -135.67531,-596.8992 0.004,5.3e-4 c -1.1203,9.8e-4 -2.13586,0.005 -2.77606,0.0124 l -2.32854,0.0258 -0.57774,0.29612 c -0.7423,0.37983 -1.68912,1.3326 -1.98282,1.99522 l -0.20775,0.46921 -0.0103,4.57285 c -0.01,2.5151 -0.0137,5.35429 -0.0207,6.30917 -0.01,0.95491 -0.0103,3.88914 -0.0103,6.52055 0,2.63136 0.01,5.88918 0,7.23985 0,1.35067 3.4e-4,6.68597 0.0103,11.85561 0.01,5.16967 0.01,10.48583 0.01,11.81325 0,1.32741 -8e-5,4.87108 0.0129,7.87495 0.018,5.89955 0.019,6.5541 0.032,17.7519 0,4.1052 0.012,7.74899 0.014,8.09667 l 10e-4,0.63199 0.19379,0.36795 c 0.3268,0.62014 0.79773,1.15568 1.38183,1.572 0.9935,0.70771 1.03336,0.71371 4.92476,0.71467 1.3274,3.1e-4 3.09976,0.007 3.93826,0.014 2.4891,0.0218 5.15818,0.0307 9.82318,0.031 2.42189,2.1e-4 4.97527,0.01 5.67407,0.0227 0.6989,0.0129 3.1567,0.0254 5.4622,0.0284 2.3055,0.003 5.69762,0.0147 7.53752,0.0263 1.83994,0.0117 5.956083,0.0336 9.146722,0.0491 3.190632,0.0154 7.019983,0.0368 8.510593,0.048 3.074379,0.023 3.482374,-10e-4 3.990453,-0.2372 h 0.0041 c 1.012169,-0.47017 2.154933,-1.68204 2.345592,-2.48769 0.0404,-0.17103 0.07765,-2.38742 0.08165,-4.9258 0.0142,-8.09742 0.0079,-17.79326 -0.01395,-21.6788 -0.0116,-2.07232 -0.02284,-5.9205 -0.02584,-8.55191 -0.002,-2.63142 -0.008,-7.0139 -0.0124,-9.73844 -0.02,-13.76802 -0.02332,-26.62156 -0.0098,-33.09771 l 0.0098,-4.60282 -0.293523,-0.55759 c -0.524561,-0.99562 -1.775185,-2.04705 -2.610176,-2.19469 -0.44011,-0.0778 -2.166292,-0.0939 -12.873633,-0.11835 -1.257559,-0.003 -2.800873,-0.0116 -3.429764,-0.0186 -0.628894,-0.007 -2.382204,-0.0131 -3.895884,-0.0129 -2.81824,4e-4 -12.30346,-0.0289 -15.79386,-0.0486 -1.0713,-0.006 -3.5292,-0.0179 -5.4622,-0.0269 -1.933,-0.009 -5.24873,-0.026 -7.36803,-0.0367 -1.0597,-0.005 -2.28517,-0.007 -3.40547,-0.006 z m -4.04989,0.508 5.2e-4,5.1e-4 c 2.647,-0.0141 12.9395,0.0446 23.6089,0.13851 2.11969,0.0184 8.02339,0.0648 13.12271,0.10281 5.099094,0.038 11.671664,0.0878 14.604787,0.11216 l 5.191413,0.0419 0.424262,0.22735 c 0.573302,0.30676 1.354934,1.10078 1.583884,1.56425 l 0.187068,0.38034 0.01137,4.60592 c 0.009,3.7824 -0.002,12.61599 -0.01964,20.7052 -0.0178,8.08921 -0.04399,15.49413 -0.06149,16.23674 -0.0207,0.88429 -0.03927,7.87691 -0.04547,15.67759 -0.006,8.12718 -0.02003,14.33267 -0.04082,18.55081 -0.0104,2.10908 -0.02331,3.72227 -0.03721,4.82812 -0.007,0.55293 -0.01297,0.97917 -0.02067,1.27537 -0.004,0.14812 -0.009,0.26408 -0.0124,0.34367 -0.004,0.0796 -0.01679,0.15909 -0.0026,0.0821 -0.0654,0.34515 -0.419005,0.9538 -0.912607,1.40147 -0.69162,0.62723 -1.193471,0.88093 -1.80609,0.971 -0.22447,0.033 -0.726925,0.0666 -1.150835,0.0796 -0.21196,0.007 -0.408686,0.009 -0.545187,0.006 -0.06,-0.001 -0.101126,-0.005 -0.126606,-0.007 -0.005,-0.002 -0.0155,-0.004 -0.0155,-0.004 -5.29e-4,-1.6e-4 -0.04848,-0.0105 -0.06098,-0.0124 -0.0249,-0.004 -0.03466,-0.005 -0.04496,-0.006 -0.0206,-0.002 -0.03474,-10e-4 -0.05064,-0.002 -0.0319,-0.002 -0.06959,-0.004 -0.117306,-0.005 -0.0954,-0.003 -0.2306,-0.006 -0.402561,-0.009 -0.34395,-0.006 -0.835093,-0.0117 -1.441254,-0.0181 -1.212291,-0.0127 -2.87815,-0.0255 -4.706691,-0.0362 -3.654978,-0.0216 -8.325267,-0.0541 -10.373007,-0.0713 -5.82636,-0.0488 -12.05578,-0.0927 -19.00658,-0.13229 -3.51561,-0.02 -9.19544,-0.0549 -12.61784,-0.078 l -6.09162,-0.0403 -0.4749,-0.22789 c -0.5453,-0.26204 -1.26917,-0.93972 -1.66037,-1.59631 l -0.216,-0.36121 -0.0238,-17.41236 c -0.024,-16.53717 0.034,-44.23047 0.1235,-58.63777 l 0.0398,-6.30452 0.26769,-0.52917 c 0.4581,-0.90784 1.63349,-1.76157 2.32388,-1.83451 -0.04,0.004 0.045,-0.002 0.14832,-0.003 0.107,-10e-4 0.25781,-0.002 0.44751,-0.003 z m 4.06074,3.46388 c -0.22328,0.007 -0.44543,0.0374 -0.69143,0.092 -2.083,0.46172 -3.38612,2.33002 -2.89492,4.15168 0.158,0.58581 0.46736,1.17001 0.80926,1.52911 0.1168,0.12287 0.19933,0.25918 0.18293,0.30281 -0.016,0.0436 -0.23691,0.2518 -0.49041,0.46252 -0.7939,0.6599 -1.35745,1.67428 -1.48414,2.67218 -0.26611,2.0968 1.18554,4.08546 3.40444,4.66432 0.8511,0.22196 2.08049,0.16774 2.88819,-0.12713 0.5078,-0.18545 1.31612,-0.67355 1.66502,-1.00561 0.9988,-0.95075 1.50477,-2.40239 1.27847,-3.66903 -0.184,-1.03015 -1.02321,-2.31899 -1.82831,-2.8081 l -0.21342,-0.1297 0.38912,-0.42685 c 0.6721,-0.73747 0.95381,-1.5699 0.86352,-2.54558 -0.12191,-1.31204 -1.28526,-2.62829 -2.64015,-2.98691 -0.3931,-0.10403 -0.71108,-0.16103 -1.01338,-0.17415 -0.0755,-0.003 -0.15037,-0.004 -0.22479,-0.002 z m -0.0274,1.77559 h 5.2e-4 c 0.7712,-0.0491 1.56771,0.29861 1.93941,1.07124 0.2438,0.50758 0.26895,0.86726 0.0909,1.30795 -0.2879,0.71424 -0.91675,1.14479 -1.75854,1.20509 -0.52351,0.0375 -0.64691,0.0157 -1.06041,-0.19068 -0.2916,-0.14555 -0.55835,-0.36076 -0.70744,-0.57052 -0.29961,-0.42151 -0.42829,-1.09358 -0.2894,-1.51464 0.26831,-0.81341 1.01381,-1.25933 1.78491,-1.30844 z m -2.62671,0.51366 h 5.1e-4 c 0.041,-5e-4 0.11019,0.0261 0.19379,0.0786 0.1105,0.0694 0.10831,0.0806 -0.015,0.0832 -0.079,0.002 -0.16728,-0.0344 -0.19688,-0.0806 -0.034,-0.0532 -0.0224,-0.0805 0.0176,-0.0811 z m 2.66598,4.75062 h 5.2e-4 c 0.6809,-0.012 0.82098,0.0137 1.31568,0.24133 0.6082,0.27987 1.1088,0.7258 1.3963,1.24436 0.2501,0.4517 0.28278,1.62028 0.0579,2.08619 -0.2549,0.52861 -0.72002,1.00861 -1.25832,1.29862 -0.4895,0.26374 -0.56334,0.27827 -1.44694,0.28938 -0.8991,0.0113 -0.95023,0.002 -1.46813,-0.27027 -0.6287,-0.33073 -1.13559,-0.88228 -1.33739,-1.45415 -0.1473,-0.41868 -0.1841,-1.13038 -0.077,-1.49966 0.19629,-0.67559 0.7935,-1.32369 1.55081,-1.6831 0.42909,-0.20354 0.61948,-0.24159 1.26658,-0.2527 z m 8.49199,5.59655 0.002,5.3e-4 c -0.8148,0.005 -1.2898,0.0185 -1.30999,0.0393 -0.046,0.0477 -0.077,2.9219 -0.076,7.18251 5e-4,2.02581 -0.0101,4.4263 -0.0191,5.33456 -0.011,0.90826 -0.017,3.38513 -0.015,5.50404 0,2.11895 -0.01,4.50038 -0.0176,5.2922 -0.012,0.79185 -0.0201,3.0974 -0.0191,5.12321 0,2.02578 9e-5,4.59761 -0.0129,5.71539 -0.05,6.66973 -0.027,9.52633 0.077,9.525 0.082,-9.8e-4 0.082,0.0251 0,0.12558 -0.076,0.0938 -0.10484,1.12355 -0.11214,3.95946 v 10e-4 c 0,2.1082 -0.01,4.58735 -0.01,5.50923 v 1.67638 l 0.99735,-0.0217 c 0.5486,-0.0116 1.43627,-0.007 1.97197,0.0109 0.5358,0.0176 2.44075,0.0353 4.23385,0.0393 1.793,0.004 6.15593,0.0256 9.69554,0.0476 3.53969,0.0219 7.59807,0.0455 9.01856,0.0527 1.4205,0.007 3.615657,0.0233 4.878257,0.0362 l 2.295466,0.0238 -0.001,-4.47725 c -10e-4,-2.46214 0.0099,-5.42902 0.01292,-6.59339 0.014,-2.06841 0.02032,-4.87932 0.02532,-11.47321 0,-1.79298 0.01,-4.28895 0.01395,-5.54643 0.01,-1.25749 0.01402,-3.71526 0.01602,-5.46169 0,-1.74641 0.01274,-3.97561 0.02273,-4.95369 0.01,-0.97809 0.01537,-3.6454 0.01137,-5.9273 0,-2.2819 0.0097,-4.49199 0.0217,-4.91133 0.016,-0.41931 0.01582,-1.8669 0.0098,-3.21736 l -0.01964,-2.45568 -0.326078,-0.006 c -0.179599,-0.003 -2.021925,-0.009 -4.094324,-0.0124 -2.072401,-0.004 -4.607091,-0.0152 -5.631691,-0.0248 -1.0247,-0.01 -2.98656,-0.0231 -4.36046,-0.03 -1.374,-0.007 -4.59413,-0.0229 -7.15563,-0.0357 -2.5615,-0.0128 -5.60987,-0.0314 -6.77427,-0.0413 -1.37889,-0.0117 -2.53383,-0.0147 -3.34863,-0.009 z m 2.01693,0.37983 c 2.40111,10e-4 6.59789,0.022 10.94714,0.0563 2.1192,0.0167 5.24386,0.0342 6.94376,0.0387 3.6148,0.01 6.3206,0.0275 9.300203,0.063 l 2.145088,0.0258 -0.03101,1.36684 c -0.017,0.75162 -0.02887,3.17624 -0.02687,5.38829 0,2.21207 8.2e-5,4.67037 -0.01292,5.46221 -0.01,0.7918 -0.01333,3.61133 -0.01033,6.26576 0,2.65446 2.96e-4,5.00933 -0.0217,5.2338 -0.03,0.38894 -0.02229,0.40529 0.157612,0.35243 l 0.189135,-0.0548 -0.179832,0.15552 c -0.1797,0.15521 -0.180549,0.17389 -0.17105,5.06638 0,2.70102 1.48e-4,5.55868 -0.01085,6.3505 -0.011,0.79184 -0.01799,3.44053 -0.01499,5.88544 0,2.44491 -0.01019,4.66548 -0.02119,4.93459 -0.015,0.26908 -0.01885,1.73627 -0.01085,3.26025 0.01,1.52392 0.0097,3.16669 -0.01033,3.65146 l -0.02377,0.88159 -3.611665,-0.0119 c -1.986401,-0.007 -5.668991,-0.0235 -8.183991,-0.0377 -2.515,-0.0143 -7.67895,-0.0431 -11.47475,-0.0646 -3.7958,-0.0215 -7.36383,-0.0345 -7.92923,-0.0274 -0.7494,0.009 -1.03689,-0.0162 -1.05989,-0.093 -0.018,-0.058 -0.025,-1.43899 -0.016,-3.06906 0.024,-4.73525 2.9e-4,-7.66487 -0.0527,-7.72096 -0.029,-0.0286 -0.0214,-0.0939 0.0176,-0.14521 0.04,-0.0514 0.0723,-2.03708 0.0713,-4.41213 -9e-4,-2.37509 0.01,-5.38494 0.014,-6.68901 0.024,-3.7954 0.0538,-11.82826 0.0568,-15.41145 0,-1.81626 0.0122,-4.04546 0.0222,-4.95372 0.011,-0.90823 0.0159,-3.70864 0.0119,-6.2234 0,-2.51475 -1e-5,-4.78162 0.015,-5.03793 l 0.0258,-0.46611 1.21492,-0.015 c 0.34052,-0.004 0.94113,-0.006 1.74149,-0.006 z m 2.90267,3.19979 c -0.077,-0.0289 -0.2491,0.18251 -0.416,0.54055 -0.556,1.19303 -2.38451,3.70266 -2.99981,4.11705 -0.2069,0.13909 -0.27865,0.30675 -0.13075,0.3049 0.1388,-0.002 1.30399,1.36785 1.86139,2.18797 0.3017,0.44398 0.77115,1.21939 1.04335,1.72289 0.5561,1.02852 0.562,1.03741 0.6103,0.89763 0.053,-0.15552 0.81676,-1.43846 1.31826,-2.21589 0.5001,-0.77525 1.30403,-1.77181 1.85053,-2.29494 l 0.35864,-0.34364 -0.48473,-0.50178 c -0.5605,-0.58076 -1.56737,-1.86989 -1.87637,-2.40194 -0.1169,-0.20122 -0.41045,-0.68723 -0.65215,-1.08003 -0.24161,-0.3928 -0.4401,-0.7624 -0.4408,-0.82064 -9e-4,-0.0665 -0.0159,-0.10249 -0.0419,-0.11213 z m 20.54344,0.0873 c -0.029,5.1e-4 -0.16549,0.22106 -0.30179,0.49041 -0.5713,1.129 -1.69772,2.73791 -2.47581,3.5357 -0.4304,0.44146 -0.78767,0.82299 -0.79737,0.84802 -0.01,0.025 0.19992,0.25104 0.46302,0.50229 0.8488,0.81039 1.90537,2.30438 2.68407,3.79513 0.2115,0.40481 0.40071,0.73559 0.41961,0.73535 0.019,-2.4e-4 0.15166,-0.23992 0.29456,-0.53279 0.6896,-1.41327 2.017337,-3.24855 3.025138,-4.18113 l 0.248563,-0.22998 -0.470255,-0.48678 c -0.258601,-0.26781 -0.688933,-0.7698 -0.956532,-1.11569 -0.534794,-0.69175 -1.784874,-2.65523 -1.965774,-3.08766 -0.063,-0.15058 -0.13853,-0.27324 -0.16743,-0.27287 z m -33.99533,0.86456 c -0.0399,0.002 -0.0713,0.0496 -0.10284,0.13641 -0.097,0.26541 -1.10494,2.00401 -1.61954,2.79311 -0.7878,1.20798 -1.5109,2.12299 -2.389,3.02101 -0.4464,0.45643 -0.81712,0.85037 -0.82682,0.8754 -0.01,0.025 0.20012,0.25103 0.46302,0.50228 1.2806,1.22394 3.16505,3.91398 4.15375,5.9299 0.166,0.33858 0.31538,0.61566 0.33228,0.61544 0.017,-2.1e-4 0.13643,-0.22098 0.26613,-0.4904 0.3353,-0.69609 0.93507,-1.70558 1.66037,-2.79413 0.8529,-1.28032 1.21233,-1.72945 2.22673,-2.78691 l 0.87075,-0.90797 -0.49093,-0.49557 c -1.40649,-1.41978 -2.53688,-2.95256 -3.64318,-4.9413 -0.2059,-0.37 -0.47393,-0.85193 -0.59583,-1.07125 -0.1197,-0.21502 -0.2004,-0.33544 -0.262,-0.37311 -0.0155,-0.009 -0.0296,-0.0137 -0.0429,-0.0129 z m 23.67659,8.57982 c -0.03,2.2e-4 -0.26368,0.39378 -0.52039,0.87437 -0.64499,1.20793 -1.45273,2.3471 -2.31303,3.26337 -0.4004,0.42646 -0.73101,0.79592 -0.73071,0.82114 0,0.0252 0.17436,0.21368 0.39016,0.41857 0.2158,0.20492 0.66747,0.73125 1.00407,1.16946 0.3365,0.43817 0.6429,0.80867 0.6811,0.8237 0.038,0.0151 0.0703,0.0647 0.0713,0.11059 6e-4,0.0459 0.16831,0.35497 0.37311,0.68678 0.2048,0.33182 0.50646,0.85887 0.67076,1.171 0.2712,0.51564 0.42738,0.69529 0.42478,0.48884 0,-0.13703 0.80334,-1.51834 1.38234,-2.37141 0.308,-0.45392 0.90474,-1.19417 1.32653,-1.64486 l 0.7674,-0.81907 -0.46664,-0.50178 c -1.0614,-1.14223 -2.41339,-3.09983 -2.85099,-4.1274 -0.085,-0.20013 -0.17929,-0.36367 -0.20929,-0.3633 z m -10.33684,9.42682 -0.54519,0.9679 c -0.9108,1.61769 -1.75605,2.77333 -2.58795,3.5383 l -0.46199,0.42476 0.53589,0.54313 c 0.9282,0.94208 1.57533,1.86468 2.66753,3.80133 0.1246,0.22129 0.22751,0.45788 0.22841,0.52604 0,0.26884 0.17151,0.0934 0.49972,-0.52295 0.71809,-1.34842 1.71285,-2.73833 2.68045,-3.74449 0.2671,-0.27768 0.48554,-0.52329 0.48524,-0.5457 -3e-4,-0.0224 -0.23093,-0.28049 -0.51263,-0.57412 -0.2817,-0.29363 -0.71083,-0.78856 -0.95343,-1.09966 -0.4448,-0.57055 -1.51401,-2.27171 -1.85311,-2.94868 z m 20.59667,0.20672 c -0.041,0.0142 -0.29067,0.41719 -0.55397,0.89553 -0.2633,0.47839 -0.65913,1.13628 -0.87953,1.46143 -0.4795,0.70739 -1.49913,1.93159 -1.85673,2.22983 -0.3053,0.25471 -0.3075,0.27154 -0.0708,0.47593 0.3637,0.31414 1.47138,1.66285 1.94768,2.37143 0.2671,0.39754 0.68944,1.10858 0.93844,1.58028 l 0.45269,0.85783 0.46095,-0.81028 c 0.2535,-0.44575 0.46074,-0.82979 0.46044,-0.85318 0,-0.12689 1.724008,-2.37278 2.158007,-2.80863 l 0.509529,-0.51263 -0.48369,-0.47697 c -0.4758,-0.46884 -0.488318,-0.47442 -0.703318,-0.34313 l -0.219107,0.13332 0.202571,-0.17156 0.202573,-0.17158 -0.306959,-0.36637 c -0.4274,-0.5098 -1.368986,-1.97114 -1.812296,-2.81276 -0.2041,-0.3874 -0.40458,-0.69275 -0.44648,-0.67849 z m 1.792138,4.32583 c 0.08,-0.004 0.0096,0.0984 -0.182418,0.20309 h -5.1e-4 c -0.09,0.0495 -0.16332,0.0567 -0.16382,0.016 -6e-4,-0.0407 0.0962,-0.11927 0.21498,-0.17518 0.062,-0.0289 0.105069,-0.0425 0.131768,-0.0439 z m -0.761708,0.37724 c 0.049,-6.1e-4 0.0657,0.0372 0.0377,0.0842 -0.028,0.047 -0.0689,0.0855 -0.0889,0.0858 -0.02,2.6e-4 -0.0382,-0.0376 -0.0382,-0.0842 -6e-4,-0.0466 0.0404,-0.0852 0.0894,-0.0858 z m -0.31109,0.24855 c 0.0111,0 0.0142,0.005 0.007,0.016 -0.026,0.0436 -0.16263,0.14031 -0.30283,0.21498 -0.3809,0.20307 -0.36428,0.10924 0.0191,-0.10697 0.091,-0.0517 0.16864,-0.0896 0.22014,-0.10904 h 5.2e-4 c 0.0255,-0.01 0.0447,-0.015 0.0558,-0.015 z m -11.04583,4.46691 c -0.034,6.3e-4 -0.19249,0.26 -0.35089,0.57621 -0.6471,1.29132 -1.71646,2.79236 -2.68666,3.77184 l -0.54363,0.54933 0.67231,0.74311 c 0.9652,1.0663 1.9228,2.45557 2.5492,3.69901 0.1341,0.26606 0.29346,0.48339 0.35346,0.48265 0.06,-7.7e-4 0.10902,-0.0368 0.10852,-0.0796 0,-0.15401 0.9983,-1.81535 1.5658,-2.60088 0.319,-0.4414 0.86475,-1.10535 1.21285,-1.47537 0.3482,-0.36996 0.63282,-0.69458 0.63251,-0.72138 -3e-4,-0.0268 -0.10167,-0.13983 -0.22427,-0.25114 -0.804,-0.72986 -2.11629,-2.55101 -2.82618,-3.92124 -0.2204,-0.42552 -0.42903,-0.77298 -0.46302,-0.77255 z m 23.619734,4.62555 c -0.016,0.0167 -0.181202,0.32615 -0.366902,0.68784 -0.448998,0.87405 -1.179111,2.11227 -1.649511,2.79722 -0.6004,0.87403 -1.795401,2.30326 -2.392103,2.86134 -0.2999,0.28043 -0.54497,0.52718 -0.544669,0.54827 1.99e-4,0.0211 0.307028,0.34983 0.682128,0.73073 1.2784,1.29857 2.877367,3.59248 3.784267,5.42962 0.2228,0.45127 0.429852,0.81999 0.460954,0.8196 0.031,-4e-4 0.289674,-0.42971 0.575675,-0.95396 1.131499,-2.07364 2.709966,-4.25537 3.876765,-5.35934 l 0.599964,-0.56743 -0.66611,-0.67696 c -1.394799,-1.41791 -2.827486,-3.44326 -3.895886,-5.50715 -0.239199,-0.46193 -0.448771,-0.82645 -0.464572,-0.80978 z m -33.955544,4.81833 c -0.034,2.1e-4 -0.12907,0.14467 -0.21187,0.32038 -0.6975,1.48267 -1.93533,3.24551 -2.94763,4.19717 l -0.40101,0.37568 0.54519,0.5638 c 0.9057,0.93612 1.92779,2.41437 2.60449,3.76669 0.1884,0.37629 0.36199,0.68352 0.38499,0.68315 0.023,-3.7e-4 0.15359,-0.22101 0.28939,-0.49041 0.2803,-0.5561 1.37875,-2.28078 1.78025,-2.79516 0.1468,-0.18814 0.54997,-0.63907 0.89607,-1.002 l 0.62942,-0.65993 -0.32039,-0.31779 c -0.9543,-0.94763 -2.03792,-2.45136 -2.76262,-3.83233 -0.2335,-0.44508 -0.45228,-0.80968 -0.48628,-0.80925 z m 20.61373,0.0496 -0.18604,0.37724 c -0.659,1.33673 -1.88605,3.10769 -2.77605,4.00542 -0.3026,0.30517 -0.54856,0.57539 -0.54726,0.59997 0,0.0246 0.29461,0.36362 0.65061,0.75345 1.0041,1.09972 1.85877,2.34376 2.49597,3.6313 0.1666,0.33679 0.32556,0.60466 0.35346,0.59532 0.028,-0.009 0.0961,-0.10573 0.15038,-0.21395 0.797,-1.57329 1.88115,-3.1288 2.902148,-4.16356 l 0.544153,-0.55139 -0.677995,-0.70694 c -0.7483,-0.77989 -1.750576,-2.20697 -2.453076,-3.49229 z m 13.488576,12.15792 c -0.172101,-0.004 -0.347382,8.7e-4 -0.526584,0.0139 -2.057199,0.14973 -3.709091,1.44497 -4.188891,3.2856 -0.365498,1.40171 0.11816,2.88843 1.290362,3.96666 l 0.595828,0.54779 -0.235643,0.29972 c -0.7455,0.94718 -0.989621,1.67243 -0.903822,2.68563 0.1157,1.37369 1.31722,2.66213 2.842721,3.04786 1.697101,0.42911 3.663031,-0.47598 4.399732,-2.0252 0.215498,-0.45259 0.235508,-0.58002 0.225309,-1.3875 -0.01,-0.78568 -0.03786,-0.94422 -0.242364,-1.36633 -0.127198,-0.26273 -0.386075,-0.64133 -0.575675,-0.8418 l -0.344681,-0.36486 0.307475,-0.21288 c 0.525698,-0.36418 0.693925,-0.53721 1.113626,-1.14774 1.1621,-1.6904 0.923949,-3.66072 -0.62425,-5.16403 -0.893802,-0.86789 -1.927942,-1.30987 -3.133143,-1.33686 z m -0.355534,1.76577 c 0.106291,-0.004 0.213837,-0.004 0.320911,0.001 0.428299,0.0191 0.850336,0.10887 1.166336,0.26405 1.023602,0.50258 1.575271,1.29609 1.598869,2.29857 0.01,0.42592 -0.03263,0.66648 -0.170532,0.95861 -0.259699,0.54943 -0.794853,1.08818 -1.345655,1.35496 -0.414398,0.20076 -0.57599,0.22973 -1.35909,0.23873 -0.765998,0.009 -0.945893,-0.0171 -1.300694,-0.18706 -0.6637,-0.31808 -1.301885,-0.94327 -1.509985,-1.47846 -0.2227,-0.57256 -0.229788,-1.13097 -0.02119,-1.68569 0.266599,-0.70946 0.90538,-1.2995 1.737878,-1.6061 0.256125,-0.0943 0.564277,-0.14645 0.88315,-0.15865 z m 0.0036,6.77117 c 2.0989,-0.0318 2.905694,2.42501 1.115695,3.39719 -0.411601,0.22363 -0.524798,0.24744 -1.0542,0.2212 -0.880499,-0.0435 -1.402464,-0.37121 -1.755966,-1.10072 -0.2911,-0.60053 -0.170706,-1.3258 0.307994,-1.85571 0.294698,-0.32629 0.985377,-0.6559 1.386477,-0.66196 z" />
  </g>
</svg>
