<?xml version="1.0" encoding="UTF-8" standalone="no"?>
<svg
   sodipodi:docname="8H.svg"
   id="svg8"
   version="1.1"
   viewBox="0 0 63.146049 88.30793"
   height="88.30793mm"
   width="63.146049mm"
   inkscape:version="1.1.1 (1:1.1+202109281949+c3084ef5ed)"
   inkscape:export-filename="/home/doug/k40/52Cards/8H.png"
   inkscape:export-xdpi="96"
   inkscape:export-ydpi="96"
   xmlns:inkscape="http://www.inkscape.org/namespaces/inkscape"
   xmlns:sodipodi="http://sodipodi.sourceforge.net/DTD/sodipodi-0.dtd"
   xmlns="http://www.w3.org/2000/svg"
   xmlns:svg="http://www.w3.org/2000/svg"
   xmlns:rdf="http://www.w3.org/1999/02/22-rdf-syntax-ns#"
   xmlns:cc="http://creativecommons.org/ns#"
   xmlns:dc="http://purl.org/dc/elements/1.1/">
  <defs
     id="defs2">
    <marker
       style="overflow:visible"
       id="marker2995"
       refX="0"
       refY="0"
       orient="auto"
       inkscape:stockid="Arrow1Lstart"
       inkscape:isstock="true">
      <path
         transform="matrix(0.8,0,0,0.8,10,0)"
         style="fill:#000000;fill-opacity:1;fill-rule:evenodd;stroke:#000000;stroke-width:1pt;stroke-opacity:1"
         d="M 0,0 5,-5 -12.5,0 5,5 Z"
         id="path2993" />
    </marker>
    <marker
       style="overflow:visible"
       id="marker2985"
       refX="0"
       refY="0"
       orient="auto"
       inkscape:stockid="Arrow1Lstart"
       inkscape:isstock="true">
      <path
         transform="matrix(0.8,0,0,0.8,10,0)"
         style="fill:#000000;fill-opacity:1;fill-rule:evenodd;stroke:#000000;stroke-width:1pt;stroke-opacity:1"
         d="M 0,0 5,-5 -12.5,0 5,5 Z"
         id="path2983" />
    </marker>
    <marker
       style="overflow:visible"
       id="marker2791"
       refX="0"
       refY="0"
       orient="auto"
       inkscape:stockid="Arrow1Lstart"
       inkscape:isstock="true">
      <path
         transform="matrix(0.8,0,0,0.8,10,0)"
         style="fill:#000000;fill-opacity:1;fill-rule:evenodd;stroke:#000000;stroke-width:1pt;stroke-opacity:1"
         d="M 0,0 5,-5 -12.5,0 5,5 Z"
         id="path2789" />
    </marker>
    <marker
       style="overflow:visible"
       id="marker2781"
       refX="0"
       refY="0"
       orient="auto"
       inkscape:stockid="Arrow1Lstart"
       inkscape:isstock="true">
      <path
         transform="matrix(0.8,0,0,0.8,10,0)"
         style="fill:#000000;fill-opacity:1;fill-rule:evenodd;stroke:#000000;stroke-width:1pt;stroke-opacity:1"
         d="M 0,0 5,-5 -12.5,0 5,5 Z"
         id="path2779" />
    </marker>
    <marker
       style="overflow:visible"
       id="marker2417"
       refX="0"
       refY="0"
       orient="auto"
       inkscape:stockid="Arrow1Lstart"
       inkscape:isstock="true">
      <path
         transform="matrix(0.8,0,0,0.8,10,0)"
         style="fill:#000000;fill-opacity:1;fill-rule:evenodd;stroke:#000000;stroke-width:1pt;stroke-opacity:1"
         d="M 0,0 5,-5 -12.5,0 5,5 Z"
         id="path2415" />
    </marker>
    <marker
       style="overflow:visible"
       id="marker2383"
       refX="0"
       refY="0"
       orient="auto"
       inkscape:stockid="Arrow1Lstart"
       inkscape:isstock="true">
      <path
         transform="matrix(0.8,0,0,0.8,10,0)"
         style="fill:#000000;fill-opacity:1;fill-rule:evenodd;stroke:#000000;stroke-width:1pt;stroke-opacity:1"
         d="M 0,0 5,-5 -12.5,0 5,5 Z"
         id="path2381" />
    </marker>
    <marker
       style="overflow:visible"
       id="marker2355"
       refX="0"
       refY="0"
       orient="auto"
       inkscape:stockid="Arrow1Lstart"
       inkscape:isstock="true">
      <path
         transform="matrix(0.8,0,0,0.8,10,0)"
         style="fill:#000000;fill-opacity:1;fill-rule:evenodd;stroke:#000000;stroke-width:1pt;stroke-opacity:1"
         d="M 0,0 5,-5 -12.5,0 5,5 Z"
         id="path2353" />
    </marker>
    <marker
       style="overflow:visible"
       id="Arrow1Lstart"
       refX="0"
       refY="0"
       orient="auto"
       inkscape:stockid="Arrow1Lstart"
       inkscape:isstock="true">
      <path
         transform="matrix(0.8,0,0,0.8,10,0)"
         style="fill:#000000;fill-opacity:1;fill-rule:evenodd;stroke:#000000;stroke-width:1pt;stroke-opacity:1"
         d="M 0,0 5,-5 -12.5,0 5,5 Z"
         id="path2071" />
    </marker>
  </defs>
  <sodipodi:namedview
     id="base"
     pagecolor="#ffffff"
     bordercolor="#666666"
     borderopacity="1.0"
     inkscape:pageopacity="0.0"
     inkscape:pageshadow="2"
     inkscape:zoom="1.5040647"
     inkscape:cx="86.10002"
     inkscape:cy="166.54869"
     inkscape:document-units="mm"
     inkscape:current-layer="layer1"
     inkscape:document-rotation="0"
     showgrid="false"
     inkscape:snap-smooth-nodes="false"
     inkscape:object-nodes="false"
     inkscape:window-width="1366"
     inkscape:window-height="712"
     inkscape:window-x="0"
     inkscape:window-y="0"
     inkscape:window-maximized="1"
     inkscape:object-paths="false"
     inkscape:snap-intersection-paths="false"
     inkscape:snap-midpoints="false"
     inkscape:snap-others="false"
     inkscape:pagecheckerboard="0"
     showguides="true"
     inkscape:guide-bbox="true"
     inkscape:snap-bbox="true"
     showborder="false"
     fit-margin-top="0"
     fit-margin-left="0"
     fit-margin-right="0"
     fit-margin-bottom="0" />
  <metadata
     id="metadata5">
    <rdf:RDF>
      <cc:Work
         rdf:about="">
        <dc:format>image/svg+xml</dc:format>
        <dc:type
           rdf:resource="http://purl.org/dc/dcmitype/StillImage" />
      </cc:Work>
    </rdf:RDF>
  </metadata>
  <g
     inkscape:label="Layer 1"
     inkscape:groupmode="layer"
     id="layer1"
     transform="translate(143.60729,353.61664)">
    <path
       id="path2761-3"
       style="fill:#000000;fill-opacity:1;stroke:none;stroke-width:0.265;stroke-miterlimit:4;stroke-dasharray:none;stroke-opacity:1"
       d="m -140.2577,-353.61664 -0.40516,0.1111 c -1.01258,0.27946 -2.1504,1.24016 -2.61379,2.20659 l -0.25474,0.53123 -0.0217,3.85351 c -0.0463,8.24007 -0.0644,19.62764 -0.0486,30.91284 0.005,3.23712 0.007,7.4478 0.006,9.35757 -0.003,4.89627 10e-4,10.04993 0.0196,21.29896 0.0181,10.92558 0.0189,13.03863 0.006,15.38717 -0.006,1.117 0.0246,1.72558 0.0972,1.94562 0.27593,0.83552 1.26785,1.80845 2.33008,2.28513 l 0.55089,0.24701 2.08049,0.0181 c 1.86233,0.0164 5.37435,0.0241 16.51993,0.0346 5.88227,0.006 7.15687,0.008 10.07845,0.0233 1.56054,0.008 3.82797,0.0118 5.03896,0.01 2.64539,-0.005 4.62786,0.004 7.792793,0.0367 1.30451,0.0128 4.315068,0.0227 6.690548,0.0207 2.37548,-0.002 5.19573,0.007 6.26732,0.0196 2.23091,0.0267 2.5949,-10e-4 3.21066,-0.24804 0.87249,-0.34939 1.77935,-1.215 2.21742,-2.11719 0.21783,-0.44885 0.25686,-1.44718 0.22376,-5.72316 -0.014,-1.83957 -0.0178,-3.87867 -0.009,-4.53099 0.009,-0.65231 0.009,-3.18653 -5.1e-4,-5.6317 -0.01,-2.44517 -0.0187,-6.1036 -0.0207,-8.12974 -10e-4,-2.02614 -0.003,-4.59857 -0.004,-5.71644 0,-1.11788 6e-5,-2.77568 0.002,-3.68401 0.002,-0.90833 9.2e-4,-2.64203 -0.002,-3.853 -0.003,-1.21097 -0.005,-3.80247 -0.003,-5.75882 0.002,-1.95631 -0.001,-6.2057 -0.005,-9.44283 -0.004,-3.23711 -0.005,-7.42869 -0.002,-9.3152 0.003,-1.88651 3.2e-4,-5.31676 -0.006,-7.62227 -0.0157,-5.84852 -0.007,-10.7462 0.0228,-12.19564 l 0.0243,-1.22886 -0.36433,-0.68472 c -0.46773,-0.87956 -1.19369,-1.5841 -2.03914,-1.97817 l -0.60926,-0.2837 -6.30454,-0.016 c -3.4679,-0.009 -7.049238,-0.0219 -7.957638,-0.0269 -0.90842,-0.005 -3.213933,-0.012 -5.123723,-0.0139 -9.56477,-0.0126 -12.59695,-0.0191 -15.20217,-0.0326 -0.76864,-0.004 -2.25509,-0.008 -3.30316,-0.0103 -1.04807,-0.001 -3.9637,-0.0102 -6.4792,-0.0202 -2.51547,-0.01 -6.33478,-0.0208 -8.48733,-0.0258 z m 0.54311,0.51263 c 2.64703,-0.0149 12.93948,0.0398 23.6089,0.13022 2.11969,0.0177 8.02333,0.0628 13.12273,0.0992 5.099093,0.0364 11.671631,0.0836 14.604781,0.10697 l 5.19141,0.0403 0.42426,0.22738 c 0.57341,0.30656 1.35581,1.1003 1.58491,1.56372 l 0.18656,0.38034 0.0129,4.60541 c 0.0103,3.78237 0.003,12.61649 -0.0124,20.70571 -0.0151,8.08922 -0.0392,15.49361 -0.0563,16.23622 -0.0205,0.88429 -0.0367,7.87741 -0.0403,15.67811 -0.004,8.12716 -0.0157,14.33266 -0.0351,18.5508 -0.01,2.10908 -0.0222,3.72226 -0.0357,4.82813 -0.007,0.55294 -0.0125,0.97915 -0.0201,1.27538 -0.004,0.14811 -0.009,0.26408 -0.0124,0.34364 -0.004,0.0796 -0.0172,0.15865 -0.003,0.0816 -0.0653,0.34517 -0.41862,0.95417 -0.91207,1.40199 -0.69143,0.62746 -1.193,0.88178 -1.80559,0.97203 -0.22445,0.0331 -0.72689,0.0665 -1.15083,0.0796 -0.21196,0.007 -0.40868,0.009 -0.54518,0.006 -0.06,-10e-4 -0.10115,-0.005 -0.1266,-0.007 -0.005,-0.002 -0.016,-0.004 -0.016,-0.004 -5e-4,-1.3e-4 -0.048,-0.01 -0.0605,-0.0119 -0.0249,-0.004 -0.0342,-0.005 -0.0444,-0.006 -0.0206,-0.002 -0.0352,-0.002 -0.0512,-0.003 -0.0319,-0.001 -0.0691,-0.003 -0.11678,-0.005 -0.0954,-0.003 -0.23061,-0.006 -0.40257,-0.009 -0.34393,-0.006 -0.8351,-0.0114 -1.44126,-0.0176 -1.2123,-0.0123 -2.87817,-0.0245 -4.70667,-0.0346 -3.655008,-0.0204 -8.325241,-0.0517 -10.373011,-0.0682 -5.82634,-0.047 -12.05683,-0.0887 -19.00764,-0.12609 -3.51557,-0.0189 -9.19448,-0.0518 -12.61679,-0.0739 l -6.09161,-0.0382 -0.47492,-0.22789 c -0.54539,-0.26185 -1.26953,-0.93933 -1.66087,-1.59577 l -0.21654,-0.3607 -0.0294,-17.41289 c -0.0289,-16.53716 0.0195,-44.22993 0.10438,-58.63725 l 0.0377,-6.30452 0.26768,-0.52969 c 0.45784,-0.90798 1.63296,-1.76239 2.32339,-1.83555 -0.0397,0.004 0.0454,-10e-4 0.1483,-0.003 0.10697,-0.001 0.25778,-0.002 0.44751,-0.003 z m 4.90307,3.7269 v 5.2e-4 c -1.52696,-0.0328 -3.03892,0.79744 -3.71707,2.32337 l -0.25789,0.58084 0.0212,0.71934 c 0.0254,0.85004 0.23349,1.42154 0.74777,2.05672 l 0.33588,0.41496 -0.68056,0.69402 c -0.73467,0.74922 -1.09196,1.39294 -1.25161,2.25671 -0.40008,2.16479 1.11054,4.33007 3.44993,4.94595 0.31628,0.0833 0.8242,0.12957 1.3322,0.12194 l 0.82114,-0.0129 0.66198,-0.22634 c 1.68985,-0.57661 2.86465,-1.98163 3.07526,-3.67936 l 0.0801,-0.64699 -0.15039,-0.65267 c -0.19859,-0.8608 -0.60341,-1.56285 -1.26608,-2.1978 -0.29763,-0.28518 -0.54142,-0.54159 -0.54208,-0.56999 -6.3e-4,-0.0284 0.13311,-0.20779 0.29715,-0.39791 1.16113,-1.3458 0.99396,-3.47083 -0.36949,-4.70255 -0.75022,-0.67774 -1.67126,-1.00818 -2.58744,-1.02785 z m -0.0171,1.93218 c 0.48651,0.0233 0.96538,0.22751 1.31672,0.60875 0.75872,0.82325 0.56796,1.97987 -0.42272,2.56367 -1.21436,0.71559 -2.83533,-0.0977 -2.86597,-1.43816 -0.0112,-0.48805 0.14211,-0.81603 0.57259,-1.22318 0.33361,-0.31556 0.7589,-0.48469 1.19113,-0.51004 0.0695,-0.004 0.13877,-0.004 0.20825,-10e-4 z m 0.62685,5.2741 0.47024,0.20722 c 0.59047,0.25953 1.30088,0.98054 1.46556,1.48777 0.16758,0.51623 0.156,1.19966 -0.0284,1.64382 -0.20516,0.49397 -0.816,1.12608 -1.31466,1.36116 v -10e-4 c -0.49604,0.23387 -1.67182,0.32837 -2.17506,0.17466 -0.85585,-0.2614 -1.32837,-0.62809 -1.70016,-1.31981 l -0.2749,-0.5116 -0.0155,-0.50746 c -0.0279,-0.91649 0.4707,-1.72329 1.37097,-2.21537 l 0.509,-0.27853 0.84646,-0.0202 z m 6.21149,5.43481 v 10e-4 c -0.20495,0.005 -0.31067,0.0336 -0.32607,0.0853 -0.0167,0.0558 -0.0284,1.96859 -0.0263,4.2509 0.002,2.28233 -0.002,4.7406 -0.008,5.46272 -0.006,0.72211 -0.003,3.31366 0.007,5.75882 0.0102,2.44515 0.0127,5.03669 0.005,5.75882 -0.007,0.72213 -0.0124,2.18947 -0.0119,3.26079 4.8e-4,1.07129 -0.002,2.65273 -0.006,3.51451 -0.004,0.86179 -0.005,2.46284 -0.003,3.5574 0.002,1.09457 0.002,3.53282 -5e-4,5.41931 -0.002,1.8865 -0.004,5.20212 -0.003,7.36803 9.8e-4,2.16588 -0.003,5.40119 -0.009,7.18922 -0.006,1.78806 0.002,3.26318 0.017,3.27784 0.0327,0.0313 5.06685,0.0528 10.60712,0.0455 2.14256,-0.003 4.54366,-9e-4 5.33558,0.003 0.79193,0.004 2.31654,0.008 3.38791,0.009 1.07133,8.2e-4 2.65274,0.003 3.51452,0.006 0.86174,0.003 2.53857,0.007 3.72639,0.009 1.18777,0.002 3.055343,0.0108 4.150113,0.0191 v 5.2e-4 c 1.09482,0.008 2.048028,0.0101 2.117698,0.003 l 0.1266,-0.0119 -0.006,-2.53938 c -0.01,-4.24213 -0.01,-7.37444 5e-4,-8.93382 0.008,-1.31217 0.006,-3.86112 -0.0124,-11.51713 -0.003,-1.1877 -0.002,-2.82641 0.003,-3.64164 0.0106,-2.07469 0.0128,-4.35632 0.009,-10.84068 -0.002,-3.09746 6.6e-4,-7.06041 0.005,-8.80722 0.005,-1.74681 0.006,-4.4013 0.003,-5.89783 l -0.005,-2.72076 -1.176158,-0.0243 c -0.64714,-0.0135 -2.30129,-0.0189 -3.675213,-0.0124 -1.37393,0.007 -2.95537,0.005 -3.51451,-0.004 -0.55917,-0.009 -2.00739,-0.0142 -3.21842,-0.0124 -1.211,0.002 -5.25081,-3.3e-4 -8.97723,-0.005 -3.72639,-0.005 -7.78523,-0.009 -9.01959,-0.009 -1.23434,-4e-4 -2.48479,-0.009 -2.77866,-0.0196 -0.0906,-0.003 -0.16991,-0.004 -0.23823,-0.003 z m 0.57518,0.32091 c 0.10197,-3.3e-4 0.22198,0.002 0.36327,0.007 0.68435,0.0237 2.37649,0.0271 10.34254,0.0202 1.11776,-0.001 2.62392,0.003 3.34602,0.009 0.72213,0.006 3.06544,0.007 5.20796,0.003 2.14254,-0.004 4.56268,-0.002 5.37797,0.005 2.70849,0.0232 4.179113,0.026 5.525233,0.0103 0.87974,-0.0101 1.360958,0.0164 1.415418,0.0791 0.0522,0.0595 0.078,1.10415 0.0698,2.80344 -0.007,1.48936 -0.007,4.70781 -5.3e-4,7.15305 0.007,2.44524 0.007,5.01815 5.3e-4,5.71697 -0.006,0.69882 0.001,2.71843 0.0165,4.4881 0.0149,1.76964 0.014,4.26566 -0.002,5.54694 -0.0159,1.28129 -0.0224,4.31151 -0.014,6.73344 0.0192,5.49981 0.0204,8.28658 0.004,9.48469 -0.007,0.51254 -0.01,2.95174 -0.007,5.42034 0.003,2.46862 -0.007,5.01921 -0.0227,5.66788 h -10e-4 c -0.0251,1.04926 -0.0866,1.3536 -0.24443,1.20767 -0.0208,-0.0193 -1.295418,-0.0296 -2.832388,-0.0232 -1.536953,0.006 -3.271063,0.005 -3.853483,-0.003 -0.58243,-0.008 -2.06841,-0.0121 -3.30264,-0.008 -1.23425,0.004 -2.89205,0.003 -3.68403,-0.003 -0.79201,-0.006 -3.0026,-0.0116 -4.91236,-0.0129 -10.4957,-0.007 -13.28198,-0.0281 -13.34027,-0.0977 -0.0285,-0.0346 -0.0483,-1.0724 -0.0439,-2.30683 0.005,-1.23445 0.005,-4.22616 0.002,-6.64817 -0.004,-2.42202 -0.002,-4.95617 0.004,-5.6317 0.006,-0.67552 0.009,-2.21878 0.006,-3.42977 -0.003,-1.21099 -0.003,-2.907 -0.001,-3.76876 0.002,-0.86176 9e-4,-2.59596 -0.003,-3.8535 -0.004,-1.25754 -0.002,-2.87718 0.004,-3.59927 0.006,-0.72211 0.0104,-3.7524 0.0103,-6.73344 -1.1e-4,-2.98105 0.001,-6.22033 0.003,-7.19852 0.002,-0.97818 3.1e-4,-3.81729 -0.003,-6.30918 -0.004,-2.75426 0.0263,-4.57293 0.0765,-4.63899 0.0453,-0.0596 0.18606,-0.0872 0.49197,-0.0889 z m 6.37116,3.03341 -0.37618,0.20515 c -0.21945,0.1195 -0.4962,0.37638 -0.66355,0.6165 l -0.28678,0.41186 -0.0879,-0.13797 c -0.4768,-0.75048 -0.79338,-0.9898 -1.40094,-1.05834 -0.0931,-0.0105 -0.18574,-0.0134 -0.27646,-0.009 v 5.2e-4 c -0.63516,0.0307 -1.20124,0.4188 -1.52498,1.06298 -0.2272,0.45214 -0.20376,1.22294 0.0641,2.11564 0.22889,0.763 1.34165,2.94154 2.40504,4.70875 0.39383,0.65475 0.76959,1.18953 0.83454,1.18804 0.065,-10e-4 0.16084,-0.0898 0.21344,-0.19585 0.0527,-0.106 0.51888,-0.90594 1.03611,-1.77767 1.55199,-2.61576 2.20573,-4.18297 2.18178,-5.23069 -0.0246,-1.07627 -0.6681,-1.7743 -1.72082,-1.86552 z m 17.92296,0.0563 c -0.69586,-0.0143 -1.28011,0.37499 -1.60507,1.08728 -0.51316,1.12488 0.16275,2.98697 2.45256,6.75927 0.41124,0.67744 0.7898,1.23142 0.84076,1.23042 0.051,-9.6e-4 0.25786,-0.28195 0.45993,-0.62425 0.20203,-0.34232 0.68043,-1.14424 1.062983,-1.7818 1.3031,-2.17156 1.93736,-3.7329 1.92804,-4.74442 l -0.006,-0.59273 -0.18759,-0.3421 c -0.66085,-1.2032 -2.203813,-1.33285 -2.947603,-0.24753 -0.13584,0.19822 -0.27305,0.36318 -0.30488,0.3669 -0.0318,0.004 -0.14518,-0.14065 -0.25167,-0.32039 -0.25691,-0.43362 -0.59886,-0.66251 -1.13689,-0.76017 -0.1034,-0.0188 -0.20511,-0.0285 -0.30438,-0.0305 z m -34.1416,0.98392 -0.57568,0.0165 -0.45267,0.23461 c -1.12332,0.58175 -1.52702,1.90228 -1.07746,3.5233 0.33263,1.1994 1.01044,2.65399 2.17662,4.67 0.56226,0.97205 1.85176,3.13109 2.05671,3.44372 0.0667,0.10161 0.16835,0.16472 0.22582,0.14004 0.1724,-0.074 2.53489,-4.08215 3.28197,-5.56813 0.67355,-1.33967 1.12144,-2.6256 1.22785,-3.52434 0.20193,-1.70575 -0.81251,-2.96702 -2.35955,-2.93367 l -0.55915,0.0119 -0.44907,0.25321 c -0.30941,0.17452 -0.53189,0.38409 -0.71417,0.67283 -0.14552,0.23059 -0.31623,0.49627 -0.3793,0.59014 l -0.11473,0.17053 -0.19531,-0.42684 c -0.39457,-0.8624 -1.11406,-1.30117 -2.09188,-1.27383 z m 23.7045,8.79326 c -0.49535,-0.007 -1.00198,0.17647 -1.33739,0.55294 -0.1,0.11219 -0.25971,0.39256 -0.35552,0.62322 l -0.17415,0.41961 0.0697,0.55397 c 0.14999,1.19411 1.12728,3.30369 2.67374,5.7702 0.38148,0.60845 0.74041,1.10563 0.79788,1.10432 0.0575,-0.001 0.20511,-0.18627 0.32763,-0.41031 0.12261,-0.22405 0.34235,-0.58134 0.48784,-0.79427 0.31488,-0.46087 1.4809,-2.52468 1.7694,-3.13159 0.98513,-2.07231 1.09747,-3.28315 0.38447,-4.14807 -0.43029,-0.52196 -1.40057,-0.68144 -2.0986,-0.34519 -0.25408,0.1224 -0.43095,0.29618 -0.61184,0.60254 -0.23617,0.39999 -0.39918,0.49469 -0.40513,0.23461 -10e-4,-0.0601 -0.11663,-0.25917 -0.2558,-0.44235 -0.29269,-0.38521 -0.77693,-0.58271 -1.27228,-0.58963 z m -8.84185,9.78494 v 5.1e-4 c -0.0424,-2e-5 -0.0901,0.0302 -0.11885,0.0806 -0.0383,0.0673 -0.52837,0.89477 -1.08934,1.83916 -1.42946,2.4067 -2.11862,3.97202 -2.24224,5.09065 -0.0859,0.77773 0.42881,1.72528 1.07384,1.97765 0.15198,0.0594 0.50033,0.10344 0.77412,0.0972 l 0.49765,-0.0114 0.3483,-0.24598 c 0.19137,-0.13498 0.44109,-0.3887 0.55499,-0.56482 l 0.20672,-0.32091 0.28009,0.39636 c 0.15375,0.21786 0.4109,0.48004 0.57153,0.58239 l 0.29146,0.18552 0.54158,-0.0124 c 0.63992,-0.0146 1.09423,-0.22499 1.39319,-0.64492 0.64616,-0.90777 0.44352,-2.21907 -0.68782,-4.44986 -0.54551,-1.07554 -2.21821,-3.90841 -2.35542,-3.9889 -0.0122,-0.007 -0.0257,-0.0108 -0.0398,-0.0109 z m 20.90624,0.001 -0.56742,0.93173 c -0.31224,0.51249 -0.74436,1.22134 -0.96015,1.57561 -0.57838,0.94947 -1.52797,2.95646 -1.71617,3.62665 -0.35671,1.27011 -0.12136,2.21014 0.68265,2.72748 l 0.41342,0.26614 0.5121,-0.0114 0.5116,-0.0119 0.36017,-0.22221 c 0.21947,-0.13546 0.44567,-0.37656 0.57931,-0.61702 l 0.2191,-0.39429 0.1969,0.36639 c 0.21569,0.40126 0.38497,0.56758 0.77462,0.76222 0.36978,0.18467 1.161413,0.15362 1.560113,-0.0615 0.45916,-0.24764 0.81214,-0.73514 0.91879,-1.26865 l 0.0899,-0.45165 -0.12197,-0.61082 c -0.18238,-0.91118 -0.74583,-2.16979 -1.72961,-3.86488 -0.483943,-0.83387 -1.012953,-1.747 -1.175113,-2.02881 -0.16214,-0.28185 -0.35147,-0.55766 -0.42116,-0.61289 z m -10.41437,9.8242 -5e-4,5.2e-4 c -0.1211,0.003 -0.39161,0.41433 -1.46709,2.23346 -1.2115,2.04905 -1.81716,3.42058 -1.97509,4.47156 l -0.0863,0.57309 0.11525,0.43357 c 0.12197,0.46163 0.55128,0.99896 0.9493,1.18804 0.32983,0.15668 0.87542,0.20584 1.19269,0.10697 0.41574,-0.1296 0.8777,-0.49666 1.04902,-0.83303 0.083,-0.16291 0.172,-0.29656 0.1974,-0.29714 0.0254,-5.8e-4 0.11875,0.12774 0.20825,0.28526 0.22694,0.39928 0.58434,0.70523 0.97206,0.83354 v 0.001 c 0.40838,0.13513 0.43471,0.13471 0.9653,0.008 0.84222,-0.20084 1.3308,-0.91833 1.30794,-1.91926 -0.0199,-0.8708 -0.34295,-1.83245 -1.09659,-3.26079 -0.79126,-1.49965 -2.21025,-3.82735 -2.33164,-3.82457 z m 23.060601,5.74746 c -0.0108,0.003 -0.0215,0.0102 -0.0356,0.015 -0.0531,0.019 -0.30014,0.38766 -0.5488,0.81907 -0.24873,0.43142 -0.72395,1.2399 -1.05577,1.79679 -2.28705,3.83854 -3.17558,6.14682 -2.89128,7.50962 0.27405,1.31398 1.35437,2.14513 2.56624,1.97455 0.80669,-0.11355 1.3861,-0.56034 1.77509,-1.36787 0.16346,-0.33929 0.32719,-0.38673 0.33383,-0.0966 0.006,0.24489 0.53049,0.92789 0.88471,1.15083 0.18119,0.11406 0.45485,0.23602 0.6077,0.27131 0.52773,0.12197 1.37363,0.005 1.78024,-0.24598 1.27723,-0.78821 1.48397,-2.1874 0.66252,-4.47415 -0.30538,-0.85004 -1.76485,-3.63051 -2.89957,-5.52369 -1.03666,-1.72942 -1.10352,-1.85212 -1.17927,-1.82883 z m -33.540561,4.01991 c -0.18291,0.004 -2.10481,3.29979 -2.789,4.78214 -0.48479,1.05039 -0.64794,1.65479 -0.63767,2.36729 l 0.0103,0.6351 0.19016,0.3452 c 0.65659,1.18885 2.25224,1.25156 2.94452,0.11576 0.24913,-0.40871 0.36997,-0.50521 0.37465,-0.29972 0.004,0.17091 0.49258,0.7824 0.71626,0.89607 0.10742,0.0546 0.31017,0.12395 0.45061,0.15451 h 5e-4 c 0.97925,0.2125 1.90762,-0.33214 2.13527,-1.25367 0.21357,-0.86448 -0.11848,-2.04828 -1.11673,-3.98374 -0.81825,-1.58655 -2.13722,-3.76218 -2.27891,-3.75894 z m 20.946,0.0114 c -0.16642,-0.0512 -2.20207,3.45786 -2.84892,4.91081 -0.99269,2.22975 -0.70107,3.72844 0.79425,4.0845 0.7075,0.16846 1.57006,-0.22887 1.84952,-0.85111 0.16031,-0.35693 0.21661,-0.36313 0.35811,-0.0424 0.14295,0.32393 0.71075,0.81217 1.01338,0.87179 0.12986,0.0255 0.27498,0.0594 0.321943,0.0749 0.16319,0.054 0.76152,-0.0838 1.06039,-0.24392 0.7416,-0.39728 1.06651,-1.19901 0.87128,-2.15129 -0.17585,-0.85751 -0.45331,-1.57381 -1.04802,-2.70577 -0.87979,-1.6746 -2.216723,-3.89984 -2.371933,-3.94757 z m 12.471581,10.9399 -0.77774,0.0191 -0.68522,0.23513 c -1.64862,0.56557 -2.85938,1.97873 -3.10213,3.62045 -0.18056,1.22102 0.33205,2.58259 1.34617,3.57549 0.30199,0.29571 0.54893,0.55177 0.54933,0.56896 3.1e-4,0.0172 -0.12809,0.19535 -0.28528,0.39635 -0.15716,0.20099 -0.38602,0.59379 -0.509,0.87282 l -0.22376,0.50695 0.0202,0.88935 0.0207,0.88883 0.25992,0.50178 c 0.28551,0.5521 1.13184,1.42331 1.61076,1.65778 0.16462,0.0807 0.49083,0.21061 0.72554,0.28939 v 5.1e-4 c 0.6191,0.20764 1.83634,0.17175 2.52076,-0.0744 1.35978,-0.48916 2.24425,-1.52463 2.4624,-2.88199 l 0.092,-0.56947 -0.11935,-0.51625 c -0.13491,-0.58529 -0.34896,-1.02223 -0.77515,-1.58027 l -0.29406,-0.38499 0.45736,-0.37 c 0.81534,-0.65929 1.44134,-1.81128 1.53736,-2.82928 0.11777,-1.24836 -0.41481,-2.62519 -1.3503,-3.49126 -0.97991,-0.90729 -2.16054,-1.35662 -3.48041,-1.32447 z m -0.5638,1.95905 0.76274,0.0176 0.76277,0.0176 0.45733,0.22169 c 0.98449,0.47806 1.48222,1.22454 1.50379,2.2562 0.0199,0.95713 -0.49284,1.74898 -1.43042,2.2071 -1.44351,0.70539 -3.22077,0.1938 -3.91708,-1.12707 l -0.22632,-0.42943 -0.0134,-0.59583 -0.014,-0.59531 0.21963,-0.45992 c 0.27651,-0.57903 0.81005,-1.07551 1.4211,-1.32188 z m 1.37099,6.88692 0.37206,0.24908 c 0.20465,0.13699 0.46294,0.398 0.57412,0.57981 l 0.20259,0.33073 -0.0145,0.56689 -0.014,0.56741 -0.2491,0.32814 c -0.13692,0.18042 -0.4149,0.41766 -0.61751,0.5271 -0.27176,0.14673 -0.51369,0.2021 -0.92192,0.21084 l -0.55295,0.0114 -0.44648,-0.24236 c -1.16528,-0.63339 -1.2373,-2.11574 -0.13746,-2.83032 l 0.41032,-0.26665 0.69763,-0.016 z" />
    <path
       style="fill:#000000;stroke-width:0.0846667"
       id="path389"
       d="" />
  </g>
</svg>
