<?xml version="1.0" encoding="UTF-8" standalone="no"?>
<svg
   sodipodi:docname="9D.svg"
   id="svg8"
   version="1.1"
   viewBox="0 0 63.102409 88.347847"
   height="88.347847mm"
   width="63.102409mm"
   inkscape:version="1.1.1 (1:1.1+202109281949+c3084ef5ed)"
   inkscape:export-filename="/home/doug/k40/52Cards/9D.png"
   inkscape:export-xdpi="96"
   inkscape:export-ydpi="96"
   xmlns:inkscape="http://www.inkscape.org/namespaces/inkscape"
   xmlns:sodipodi="http://sodipodi.sourceforge.net/DTD/sodipodi-0.dtd"
   xmlns="http://www.w3.org/2000/svg"
   xmlns:svg="http://www.w3.org/2000/svg"
   xmlns:rdf="http://www.w3.org/1999/02/22-rdf-syntax-ns#"
   xmlns:cc="http://creativecommons.org/ns#"
   xmlns:dc="http://purl.org/dc/elements/1.1/">
  <defs
     id="defs2">
    <marker
       style="overflow:visible"
       id="marker2995"
       refX="0"
       refY="0"
       orient="auto"
       inkscape:stockid="Arrow1Lstart"
       inkscape:isstock="true">
      <path
         transform="matrix(0.8,0,0,0.8,10,0)"
         style="fill:#000000;fill-opacity:1;fill-rule:evenodd;stroke:#000000;stroke-width:1pt;stroke-opacity:1"
         d="M 0,0 5,-5 -12.5,0 5,5 Z"
         id="path2993" />
    </marker>
    <marker
       style="overflow:visible"
       id="marker2985"
       refX="0"
       refY="0"
       orient="auto"
       inkscape:stockid="Arrow1Lstart"
       inkscape:isstock="true">
      <path
         transform="matrix(0.8,0,0,0.8,10,0)"
         style="fill:#000000;fill-opacity:1;fill-rule:evenodd;stroke:#000000;stroke-width:1pt;stroke-opacity:1"
         d="M 0,0 5,-5 -12.5,0 5,5 Z"
         id="path2983" />
    </marker>
    <marker
       style="overflow:visible"
       id="marker2791"
       refX="0"
       refY="0"
       orient="auto"
       inkscape:stockid="Arrow1Lstart"
       inkscape:isstock="true">
      <path
         transform="matrix(0.8,0,0,0.8,10,0)"
         style="fill:#000000;fill-opacity:1;fill-rule:evenodd;stroke:#000000;stroke-width:1pt;stroke-opacity:1"
         d="M 0,0 5,-5 -12.5,0 5,5 Z"
         id="path2789" />
    </marker>
    <marker
       style="overflow:visible"
       id="marker2781"
       refX="0"
       refY="0"
       orient="auto"
       inkscape:stockid="Arrow1Lstart"
       inkscape:isstock="true">
      <path
         transform="matrix(0.8,0,0,0.8,10,0)"
         style="fill:#000000;fill-opacity:1;fill-rule:evenodd;stroke:#000000;stroke-width:1pt;stroke-opacity:1"
         d="M 0,0 5,-5 -12.5,0 5,5 Z"
         id="path2779" />
    </marker>
    <marker
       style="overflow:visible"
       id="marker2417"
       refX="0"
       refY="0"
       orient="auto"
       inkscape:stockid="Arrow1Lstart"
       inkscape:isstock="true">
      <path
         transform="matrix(0.8,0,0,0.8,10,0)"
         style="fill:#000000;fill-opacity:1;fill-rule:evenodd;stroke:#000000;stroke-width:1pt;stroke-opacity:1"
         d="M 0,0 5,-5 -12.5,0 5,5 Z"
         id="path2415" />
    </marker>
    <marker
       style="overflow:visible"
       id="marker2383"
       refX="0"
       refY="0"
       orient="auto"
       inkscape:stockid="Arrow1Lstart"
       inkscape:isstock="true">
      <path
         transform="matrix(0.8,0,0,0.8,10,0)"
         style="fill:#000000;fill-opacity:1;fill-rule:evenodd;stroke:#000000;stroke-width:1pt;stroke-opacity:1"
         d="M 0,0 5,-5 -12.5,0 5,5 Z"
         id="path2381" />
    </marker>
    <marker
       style="overflow:visible"
       id="marker2355"
       refX="0"
       refY="0"
       orient="auto"
       inkscape:stockid="Arrow1Lstart"
       inkscape:isstock="true">
      <path
         transform="matrix(0.8,0,0,0.8,10,0)"
         style="fill:#000000;fill-opacity:1;fill-rule:evenodd;stroke:#000000;stroke-width:1pt;stroke-opacity:1"
         d="M 0,0 5,-5 -12.5,0 5,5 Z"
         id="path2353" />
    </marker>
    <marker
       style="overflow:visible"
       id="Arrow1Lstart"
       refX="0"
       refY="0"
       orient="auto"
       inkscape:stockid="Arrow1Lstart"
       inkscape:isstock="true">
      <path
         transform="matrix(0.8,0,0,0.8,10,0)"
         style="fill:#000000;fill-opacity:1;fill-rule:evenodd;stroke:#000000;stroke-width:1pt;stroke-opacity:1"
         d="M 0,0 5,-5 -12.5,0 5,5 Z"
         id="path2071" />
    </marker>
  </defs>
  <sodipodi:namedview
     id="base"
     pagecolor="#ffffff"
     bordercolor="#666666"
     borderopacity="1.0"
     inkscape:pageopacity="0.0"
     inkscape:pageshadow="2"
     inkscape:zoom="1.5033851"
     inkscape:cx="86.138941"
     inkscape:cy="167.28914"
     inkscape:document-units="mm"
     inkscape:current-layer="layer1"
     inkscape:document-rotation="0"
     showgrid="false"
     inkscape:snap-smooth-nodes="false"
     inkscape:object-nodes="false"
     inkscape:window-width="1366"
     inkscape:window-height="712"
     inkscape:window-x="0"
     inkscape:window-y="0"
     inkscape:window-maximized="1"
     inkscape:object-paths="false"
     inkscape:snap-intersection-paths="false"
     inkscape:snap-midpoints="false"
     inkscape:snap-others="false"
     inkscape:pagecheckerboard="0"
     showguides="true"
     inkscape:guide-bbox="true"
     inkscape:snap-bbox="true"
     showborder="false"
     fit-margin-top="0"
     fit-margin-left="0"
     fit-margin-right="0"
     fit-margin-bottom="0" />
  <metadata
     id="metadata5">
    <rdf:RDF>
      <cc:Work
         rdf:about="">
        <dc:format>image/svg+xml</dc:format>
        <dc:type
           rdf:resource="http://purl.org/dc/dcmitype/StillImage" />
      </cc:Work>
    </rdf:RDF>
  </metadata>
  <g
     inkscape:label="Layer 1"
     inkscape:groupmode="layer"
     id="layer1"
     transform="translate(57.547982,596.89996)">
    <path
       style="fill:#000000;stroke-width:0.0846667"
       id="path389"
       d="" />
    <path
       id="path6742-7-6-94"
       style="fill:#000000;fill-opacity:1;stroke:none;stroke-width:0.264999;stroke-miterlimit:4;stroke-dasharray:none;stroke-opacity:1"
       d="m -49.637937,-596.89917 0.0042,5e-4 c -1.120298,0.001 -2.135875,0.005 -2.776061,0.0124 l -2.329047,0.0258 -0.577242,0.2961 c -0.742288,0.37983 -1.689126,1.3326 -1.982814,1.99522 l -0.207751,0.46924 -0.01032,4.57285 c -0.01,2.5151 -0.01368,5.35426 -0.02069,6.30917 -0.01,0.95488 -0.01032,3.88911 -0.01032,6.52052 0,2.63139 0.01,5.88918 0,7.23988 0,1.35067 3.18e-4,6.68594 0.01032,11.85561 0.01,5.16966 0.0098,10.48583 0.0098,11.81322 0,1.32741 -7.9e-5,4.87108 0.01294,7.87498 0.01799,5.89954 0.01902,6.55407 0.03204,17.75187 0,4.10522 0.01193,7.74901 0.01394,8.09668 l 10e-4,0.63201 0.193781,0.36793 c 0.326813,0.62015 0.797745,1.1557 1.381839,1.57199 0.993484,0.70771 1.033357,0.71371 4.924769,0.71469 1.327388,2.9e-4 3.099752,0.007 3.938243,0.0134 2.489094,0.0218 5.158185,0.0307 9.823186,0.031 2.42189,2.1e-4 4.975277,0.0105 5.674069,0.0232 0.698896,0.0129 3.15669,0.0254 5.46219,0.0285 2.3055,0.003 5.697643,0.0146 7.537529,0.0263 1.839939,0.0117 5.956089,0.0336 9.1467248,0.0491 3.1906373,0.0154 7.0199783,0.0369 8.51058775,0.048 3.07437895,0.023 3.48239295,-9.8e-4 3.99047225,-0.23718 h 0.00413 c 1.0121636,-0.47016 2.1549255,-1.68206 2.3455842,-2.48771 0.040402,-0.171 0.077655,-2.38742 0.08165,-4.9258 0.014208,-8.09742 0.00796,-17.79326 -0.013944,-21.67877 -0.011615,-2.07235 -0.022833,-5.92053 -0.02585,-8.55194 -0.00198,-2.63142 -0.00799,-7.01387 -0.012409,-9.73842 -0.019976,-13.76801 -0.02331,-26.62158 -0.00982,-33.09773 l 0.00982,-4.60282 -0.2935022,-0.55759 c -0.524563,-0.99562 -1.7751955,-2.04705 -2.610194,-2.19469 -0.4401079,-0.0778 -2.16627605,-0.0939 -12.8736198,-0.11835 -1.257564,-0.003 -2.800879,-0.0116 -3.429767,-0.0186 -0.628888,-0.007 -2.382203,-0.0131 -3.895884,-0.0129 -2.818236,4e-4 -12.303469,-0.0289 -15.793878,-0.0486 -1.071298,-0.006 -3.529198,-0.0179 -5.462191,-0.0269 -1.932993,-0.009 -5.248725,-0.026 -7.368037,-0.0367 -1.059683,-0.005 -2.285153,-0.007 -3.405479,-0.006 z m -4.049871,0.50798 5.29e-4,5.2e-4 c 2.646998,-0.0141 12.939475,0.0446 23.608877,0.13849 2.119709,0.0184 8.02341,0.0648 13.122724,0.10284 5.099103,0.038 11.6716705,0.0878 14.6047884,0.11213 l 5.1914159,0.0419 0.4242594,0.22738 c 0.5732991,0.30673 1.3549312,1.10075 1.5838752,1.56424 l 0.1870869,0.38034 0.011351,4.60592 c 0.00902,3.78238 -0.00204,12.616 -0.019632,20.70518 -0.017806,8.08924 -0.044,15.49413 -0.061489,16.23674 -0.02069,0.88429 -0.039264,7.87691 -0.045482,15.67759 -0.00598,8.12718 -0.020029,14.33267 -0.040825,18.55082 -0.010398,2.10907 -0.02331,3.72226 -0.0372,4.82814 -0.00701,0.55292 -0.012965,0.97914 -0.020664,1.27537 -0.004,0.14811 -0.009,0.26408 -0.012409,0.34364 -0.004,0.0796 -0.017304,0.15912 -0.0031,0.0822 -0.065405,0.34512 -0.4190206,0.95377 -0.9126009,1.40144 -0.6916208,0.62725 -1.1934824,0.88096 -1.8060987,0.97103 -0.2244724,0.033 -0.7269162,0.0666 -1.15083165,0.0796 -0.2119577,0.007 -0.4087019,0.009 -0.5452004,0.006 -0.059981,-10e-4 -0.1011237,-0.005 -0.1266031,-0.007 -0.005,-0.002 -0.015505,-0.004 -0.015505,-0.004 -5.292e-4,-1.4e-4 -0.047942,-0.0105 -0.060457,-0.0124 -0.024897,-0.004 -0.03466,-0.005 -0.044953,-0.006 -0.020611,-0.002 -0.03474,-10e-4 -0.050641,-0.002 -0.031909,-0.002 -0.069585,-0.004 -0.1173162,-0.005 -0.095382,-0.003 -0.2305844,-0.006 -0.4025635,-0.009 -0.3439319,-0.006 -0.83507785,-0.0117 -1.44123835,-0.0181 -1.2122943,-0.0127 -2.8781639,-0.0254 -4.7066993,-0.0362 -3.6549797,-0.0216 -8.3252727,-0.0541 -10.3730157,-0.0713 -5.826363,-0.0488 -12.056295,-0.0927 -19.00711,-0.13229 -3.515598,-0.02 -9.194906,-0.0549 -12.617318,-0.078 l -6.091608,-0.0403 -0.4749,-0.22789 c -0.545307,-0.26201 -1.26918,-0.93972 -1.660367,-1.59628 l -0.216005,-0.36121 -0.02379,-17.41239 c -0.024,-16.53714 0.03402,-44.23047 0.123507,-58.63775 l 0.03979,-6.30454 0.267706,-0.52917 c 0.458099,-0.90781 1.633484,-1.76157 2.323888,-1.83451 -0.04001,0.004 0.04501,-0.002 0.148299,-0.003 0.106998,-9.8e-4 0.25781,-0.002 0.447516,-0.003 z m 4.701011,3.41839 c -2.063856,-0.0341 -4.014682,1.26933 -4.583694,3.36311 -0.212699,0.7832 -0.232014,1.14872 -0.09716,1.85415 0.38391,2.00861 2.023639,3.47197 4.059184,3.62302 1.403562,0.10417 2.564183,-0.23559 3.413231,-0.99891 l 0.443891,-0.39841 -0.06718,0.76068 c -0.173329,1.98363 -1.017482,3.47443 -2.207631,3.89848 -0.728133,0.25945 -1.658779,0.2232 -2.328518,-0.091 -0.567823,-0.26633 -1.171443,-0.89056 -1.471745,-1.52238 -0.104643,-0.22019 -0.216773,-0.3855 -0.248047,-0.36743 -0.0317,0.0181 -0.394732,0.18508 -0.807191,0.37105 l -0.749829,0.33795 0.303848,0.60257 c 0.333322,0.66066 1.063625,1.48595 1.666583,1.88256 0.74729,0.49165 1.378691,0.65759 2.555902,0.67127 0.940858,0.0111 1.123421,-0.0115 1.643327,-0.20515 2.068142,-0.77029 3.237495,-2.83578 3.429767,-6.05751 0.211217,-3.54015 -0.86442,-6.2189 -2.9006,-7.22437 -0.666036,-0.32887 -1.366203,-0.48836 -2.054146,-0.49971 z m -0.223255,1.77665 c 0.0757,-0.003 0.151632,-0.003 0.227383,5e-4 0.173143,0.007 0.345704,0.0313 0.515725,0.0739 2.105396,0.5275 2.857183,3.06353 1.342046,4.52892 -0.619892,0.5995 -1.058254,0.76108 -2.034513,0.7488 -0.73033,-0.009 -0.85008,-0.0342 -1.297596,-0.27234 -0.494665,-0.26326 -1.041268,-0.81354 -1.283123,-1.2914 -0.145627,-0.28758 -0.200264,-1.56416 -0.08165,-1.90738 0.373645,-1.08159 1.476613,-1.83375 2.611729,-1.881 z m 6.875039,10.93163 -0.03358,5.39707 c -0.112845,18.38974 -0.150257,25.17458 -0.172614,31.26476 -0.006,1.69981 -0.02635,5.45332 -0.04495,8.34059 -0.01849,2.88721 -0.03347,5.72595 -0.03257,6.30814 8.73e-4,0.58217 -0.0017,1.64494 -0.0067,2.36212 l -0.0093,1.30379 4.466907,0.0202 c 2.456551,0.0111 8.123767,0.0558 12.594061,0.0997 4.470294,0.0439 8.203909,0.0728 8.297174,0.0641 0.09329,-0.009 1.858222,0.008 3.921734,0.0362 l 3.7511828,0.0517 0.0041,-3.06959 c 0.005,-4.16501 0.02529,-9.00938 0.05789,-14.03429 0.015,-2.3051 0.0363,-5.81051 0.04651,-7.7897 0.01019,-1.97919 0.03059,-5.52276 0.04599,-7.87445 0.0155,-2.35167 0.03865,-5.99022 0.05114,-8.0858 0.01262,-2.09561 0.03707,-6.1154 0.05427,-8.93279 0.0172,-2.81741 0.02042,-5.13537 0.0067,-5.15112 -0.01601,-0.0191 -2.1420138,-0.0587 -4.5392448,-0.0925 l 10e-4,-5.3e-4 c -2.397231,-0.0338 -5.066056,-0.0618 -6.166564,-0.0584 -0.954802,0.003 -5.355008,-0.0306 -9.778735,-0.0744 -4.423701,-0.0438 -8.576839,-0.0779 -9.228879,-0.076 -0.652065,0.002 -1.657879,8.7e-4 -2.235517,-0.003 z m 2.29444,0.39169 c 1.13964,0.003 2.702877,0.0112 4.414202,0.0253 3.42265,0.0282 7.975045,0.0622 10.117217,0.0749 2.142173,0.0129 6.571985,0.0443 9.84332,0.0703 l 5.9479658,0.047 -0.01966,1.97819 c -0.01058,1.08791 -0.01527,2.13029 -0.01135,2.31664 0.004,0.18637 -0.01445,3.23413 -0.04135,6.77322 -0.0268,3.53912 -0.04069,7.0449 -0.03101,7.79024 0.01,0.74533 -0.01476,4.51752 -0.05424,8.38242 -0.0395,3.86493 -0.06204,7.4658 -0.05014,8.00158 0.02421,1.08884 -0.06096,13.81805 -0.1136918,16.97519 l -0.03358,2.03245 -0.297154,0.002 c -0.16301,0.001 -4.525248,-0.0408 -9.693989,-0.0935 -5.168741,-0.0526 -9.816624,-0.0885 -10.329069,-0.0791 -0.512498,0.009 -3.389524,-0.0124 -6.392888,-0.0491 l -5.460656,-0.0672 -0.0031,-0.42116 c -0.002,-0.23186 0.01812,-3.14603 0.04392,-6.47557 0.0258,-3.32955 0.05199,-7.4634 0.05839,-9.18652 0.01699,-4.58034 0.0471,-10.05771 0.08319,-15.15618 0.01752,-2.46809 0.03646,-5.8398 0.04188,-7.49308 0.005,-1.65325 0.03257,-5.71135 0.06096,-9.01756 v -5e-4 c 0.02842,-3.30623 0.03606,-6.09478 0.01707,-6.19704 -0.019,-0.10226 -0.0046,-0.20249 0.03048,-0.22273 0.01775,-0.0101 0.733637,-0.0131 1.873277,-0.0103 z m 3.923797,3.1011 c -0.0318,-0.002 -0.08596,0.0818 -0.120412,0.18605 -0.302471,0.9143 -2.759048,4.28623 -3.339862,4.58473 -0.151791,0.078 -0.120941,0.12978 0.365893,0.61907 0.292285,0.29382 0.736229,0.80515 0.986499,1.13535 0.522393,0.68932 1.509156,2.27031 1.830361,2.93365 0.192854,0.39825 0.380074,0.52562 0.384492,0.26149 0.003,-0.16883 1.339612,-2.35707 1.829858,-2.99567 0.266965,-0.34774 0.743347,-0.89339 1.058836,-1.21234 l 0.573617,-0.57928 -0.282681,-0.24186 c -0.267784,-0.22836 -1.273677,-1.42457 -1.540986,-1.83295 -0.770202,-1.17674 -1.001342,-1.55543 -1.31826,-2.15543 -0.203147,-0.38462 -0.395605,-0.70128 -0.427355,-0.70281 z m 20.54344,0.17055 c -0.02029,-3.5e-4 -0.19939,0.3099 -0.397906,0.68884 -0.703501,1.34284 -1.842453,2.91394 -2.71198,3.74086 l -0.473868,0.45112 0.69969,0.76068 c 0.798381,0.86749 1.72892,2.18659 2.216415,3.14245 0.182959,0.35878 0.395393,0.76071 0.471805,0.89244 l 0.139012,0.23927 0.185499,-0.30282 c 0.101944,-0.16637 0.185658,-0.32083 0.186055,-0.34364 0.002,-0.0906 0.84717,-1.45611 1.292411,-2.08669 0.644339,-0.9126 0.721889,-1.00637 1.368398,-1.64849 l 0.565335,-0.5612 -0.702786,-0.76327 c -0.915458,-0.99471 -1.604433,-1.99282 -2.420011,-3.50367 -0.209312,-0.38772 -0.397775,-0.70556 -0.418069,-0.70588 z m -33.877011,0.70588 c -0.0199,-3.2e-4 -0.133985,0.18579 -0.253735,0.41447 -0.79465,1.5185 -1.714924,2.97939 -2.563125,4.06847 -0.469,0.60211 -1.584695,1.81764 -1.979745,2.15696 l -0.284215,0.24445 0.401002,0.3638 c 0.568669,0.51589 1.683518,1.85719 2.364211,2.84531 0.603277,0.87548 1.930162,3.14788 2.076873,3.55637 0.0462,0.12885 0.112792,0.23455 0.147797,0.23513 0.03519,6.1e-4 0.217064,-0.29297 0.404098,-0.65267 1.23235,-2.36969 2.779263,-4.49776 4.239551,-5.83324 0.201004,-0.18384 0.365813,-0.36309 0.366368,-0.39741 5.82e-4,-0.0342 -0.309589,-0.38121 -0.688842,-0.77152 -1.360488,-1.40036 -3.014636,-3.81701 -4.016296,-5.86682 -0.0975,-0.19955 -0.193939,-0.36296 -0.213942,-0.3633 z m 13.25708,11.73676 c -0.0159,-2.7e-4 -0.132027,0.21693 -0.257863,0.48265 -0.219789,0.46395 -1.14083,1.92514 -1.598348,2.53526 -0.393991,0.52539 -1.494657,1.75258 -1.570461,1.75131 -0.180287,-0.003 -0.03794,0.23394 0.484214,0.80563 0.308743,0.33806 0.726149,0.84518 0.927603,1.12654 0.201454,0.28136 0.465323,0.6463 0.586528,0.81135 0.318135,0.43322 0.64053,0.97644 1.032484,1.73889 l 0.343641,0.66818 0.169518,-0.27906 c 0.093,-0.15346 0.281226,-0.48614 0.418571,-0.74001 0.74086,-1.36938 1.506643,-2.38305 2.791566,-3.69589 l 0.219631,-0.22479 -0.559674,-0.58549 c -0.778324,-0.81465 -1.725136,-2.14585 -2.393129,-3.36362 -0.310965,-0.56682 -0.578379,-1.03069 -0.594281,-1.03095 z m 20.504176,0.26561 c -0.01212,-10e-4 -0.02246,0.003 -0.03048,0.0124 -0.0481,0.0576 -0.249237,0.41585 -0.447516,0.79634 -0.646112,1.23976 -1.781413,2.79975 -2.601912,3.57445 -0.240533,0.22709 -0.438309,0.43455 -0.438733,0.46095 -4.49e-4,0.0264 0.247624,0.29869 0.550863,0.60513 0.89453,0.90403 2.064385,2.60062 2.7187,3.94343 0.08998,0.18484 0.19468,0.33689 0.232542,0.33951 0.03789,0.002 0.190817,-0.23336 0.340042,-0.52347 0.462836,-0.89996 1.83896,-2.83798 2.527485,-3.55947 0.361236,-0.37851 0.657358,-0.7117 0.657834,-0.74001 4.76e-4,-0.0283 -0.288925,-0.36944 -0.643361,-0.75809 -0.791448,-0.86786 -1.391576,-1.73027 -2.19366,-3.1533 -0.395367,-0.70146 -0.587005,-0.98859 -0.671804,-0.99788 z m -10.226251,6.30299 c -0.03321,-0.0213 -0.150522,0.13896 -0.260456,0.35605 -0.606187,1.19724 -1.864228,2.96142 -2.7559,3.86487 -0.294534,0.2984 -0.536575,0.56388 -0.538983,0.58962 -0.002,0.0258 0.21725,0.28435 0.48731,0.57415 0.969036,1.03997 1.917568,2.41625 2.65721,3.85609 0.150813,0.29358 0.298106,0.53435 0.327105,0.53486 0.029,4.7e-4 0.122211,-0.1415 0.207221,-0.31473 0.684001,-1.39345 2.234327,-3.53697 3.077845,-4.25503 l 0.303345,-0.25786 -0.731229,-0.80772 c -0.74504,-0.82283 -1.96633,-2.60355 -2.446867,-3.56772 -0.14642,-0.29379 -0.293449,-0.55131 -0.326601,-0.57258 z m -10.323407,6.32777 c -0.04199,-0.0146 -0.25056,0.30144 -0.463523,0.70178 -0.213016,0.40034 -0.646907,1.10712 -0.964301,1.57097 -0.592878,0.86643 -1.94601,2.47187 -2.081503,2.46959 -0.15031,-0.003 -0.06768,0.11348 0.594254,0.83664 0.787453,0.86019 1.726247,2.20435 2.360586,3.38016 0.247994,0.4596 0.477229,0.83611 0.509534,0.83664 0.03231,3.4e-4 0.233337,-0.33005 0.446485,-0.7338 0.726757,-1.37671 1.632823,-2.6448 2.608104,-3.64837 l 0.496622,-0.51054 -0.718819,-0.78033 c -0.872543,-0.94808 -1.514132,-1.86484 -2.196254,-3.13674 -0.282919,-0.52761 -0.549116,-0.97139 -0.591185,-0.986 z m 20.52021,0.047 -0.420132,0.76483 c -0.964036,1.75363 -1.907407,3.04538 -2.833423,3.87985 l -0.366897,0.33023 0.529166,0.52607 c 0.546127,0.54337 1.201129,1.37763 1.727015,2.19778 0.398859,0.62204 1.057672,1.78896 1.145672,2.02986 0.110781,0.30321 0.221933,0.23268 0.515224,-0.3297 0.719455,-1.37961 1.900237,-3.04247 2.758466,-3.884 0.24093,-0.23622 0.438071,-0.46286 0.438732,-0.50334 6.88e-4,-0.0406 -0.07731,-0.13089 -0.174149,-0.20101 -0.330729,-0.23939 -1.39737,-1.56051 -1.928045,-2.38797 -0.528637,-0.82428 -0.692044,-1.10376 -1.149271,-1.96628 z m 13.3020327,7.83365 c -0.024209,0.009 -0.223864,0.34928 -0.442886,0.75499 -0.6104996,1.13093 -1.3016971,2.25369 -1.899629,3.08403 -0.683895,0.9497 -0.9301956,1.23423 -1.9109795,2.2102 l -0.7922154,0.78859 0.7798064,0.8201 c 0.9172046,0.96377 1.4179021,1.58197 2.0872185,2.57712 0.5233723,0.77806 1.5103211,2.48164 1.8779067,3.24165 l 0.2237581,0.46252 0.5390092,-0.99994 c 0.6887633,-1.2772 1.33987635,-2.31666 2.03242325,-3.24427 0.3018895,-0.40431 0.523187,-0.77747 0.4919662,-0.82992 -0.031803,-0.0533 -0.019394,-0.0714 0.028416,-0.0408 0.046911,0.0301 0.313981,-0.19788 0.59324875,-0.50641 0.2792412,-0.30856 0.6965156,-0.74269 0.9270735,-0.96534 l 0.4191,-0.40513 -0.878496,-0.91572 c -1.32863175,-1.38475 -2.65557005,-3.33171 -3.7724027,-5.53609 -0.1427691,-0.2818 -0.279056,-0.50517 -0.3033183,-0.49556 z m -33.8971727,4.71289 c -0.02328,-5.8e-4 -0.21455,0.30954 -0.424259,0.68934 -0.619787,1.1225 -1.774481,2.73476 -2.470653,3.44993 -0.356896,0.36661 -0.640979,0.69287 -0.632513,0.72501 0.009,0.0321 0.241988,0.30285 0.519351,0.60153 0.914797,0.98518 1.825228,2.30273 2.553838,3.69642 l 0.394308,0.75499 0.513133,-0.93689 c 0.693394,-1.26524 1.584563,-2.50878 2.405539,-3.35743 l 0.680587,-0.70382 -0.497125,-0.51366 c -0.9466,-0.97803 -1.820016,-2.21303 -2.630329,-3.71814 -0.203279,-0.37756 -0.388593,-0.68691 -0.411877,-0.68728 z m 20.613211,0.17208 c -0.0926,0.0242 -0.336814,0.3877 -0.780309,1.15237 -0.73951,1.27511 -1.652984,2.50198 -2.370402,3.18275 -0.273659,0.25974 -0.504349,0.4861 -0.51263,0.50335 -0.008,0.0173 0.313399,0.38692 0.71366,0.82113 0.85516,0.92766 1.556729,1.92775 2.260336,3.22358 0.279479,0.51472 0.536125,0.93578 0.571024,0.93636 0.0349,5.8e-4 0.113903,-0.11409 0.17518,-0.25527 0.43442,-1.00116 1.943894,-3.16812 2.898008,-4.15944 l 0.458893,-0.47646 -0.664554,-0.73226 c -0.365416,-0.40293 -0.87585,-1.04108 -1.134321,-1.41798 -0.566341,-0.82587 -1.573292,-2.55151 -1.570964,-2.69185 10e-4,-0.0651 -0.01312,-0.0944 -0.04392,-0.0863 z m 15.17324535,3.13727 c 0.00492,-0.002 0.010954,-0.002 0.017568,5.1e-4 h 5.027e-4 c 0.027411,0.009 0.069189,0.0503 0.1286933,0.12454 0.087604,0.10927 0.082312,0.12202 -0.033073,0.0755 -0.076015,-0.0306 -0.1376363,-0.0897 -0.1369483,-0.13126 6.879e-4,-0.0409 0.00807,-0.064 0.023257,-0.0692 z m 0.4707731,0.34055 c 0.046593,7.7e-4 0.107368,0.0397 0.1353873,0.0868 0.027993,0.0471 0.012488,0.085 -0.034105,0.0842 -0.046593,-7.6e-4 -0.1073679,-0.0397 -0.1353872,-0.0868 -0.028019,-0.0471 -0.012488,-0.085 0.0341049,-0.0842 z m -2.78278155,8.58605 c -1.8401241,-0.0252 -3.2177302,0.79748 -4.106201,2.45305 -0.4229361,0.78812 -0.6327241,1.3846 -0.8216631,2.33424 -0.166582,0.83756 -0.20193,3.04929 -0.06355,3.98269 0.418862,2.82501 1.7984519,4.60142 3.9377405,5.06894 0.6109229,0.13354 0.8237802,0.14359 1.4381427,0.0708 1.74140805,-0.20621 2.97328155,-0.98655 3.6716228,-2.32542 0.4352396,-0.83444 0.5732463,-1.44052 0.5348552,-2.35749 -0.065114,-1.55564 -0.92694125,-2.83641 -2.41691585,-3.59151 -0.89296865,-0.45235 -1.64930655,-0.58986 -2.62620115,-0.47646 -1.2141464,0.14102 -2.1626512,0.57843 -2.7222979,1.25574 l -0.2191279,0.26511 0.063579,-0.59171 c 0.2384689,-2.21237 0.9173104,-3.5396 2.1057922,-4.11705 0.4459817,-0.21664 0.5811044,-0.24069 1.2614275,-0.22635 0.6072452,0.0129 0.8502121,0.0575 1.1978746,0.2191 0.5117306,0.23781 1.25491865,1.0042 1.48775205,1.5348 0.086995,0.1982 0.1904735,0.36266 0.2299758,0.36433 0.1585119,0.007 1.50592895,-0.66514 1.50738415,-0.75243 0.004,-0.2473 -0.65259475,-1.26237 -1.12498185,-1.73889 -0.9441656,-0.9525 -1.91547745,-1.3517 -3.33467595,-1.37149 z m -0.1090348,6.81199 c 1.0686256,-0.0313 2.14860185,0.51575 2.65408825,1.44899 0.2323306,0.42894 0.2539736,0.53662 0.2423848,1.23198 -0.01061,0.63317 -0.047466,0.8256 -0.2170642,1.13945 -0.81520755,1.50863 -2.76873215,2.00197 -4.13927385,1.04489 -0.5355431,-0.37401 -0.8141758,-0.74088 -1.0350764,-1.36271 -0.2380192,-0.67008 -0.1983581,-1.37946 0.1116277,-2.01073 0.3044031,-0.61981 0.673391,-0.96715 1.340485,-1.26089 0.3320521,-0.14619 0.6866202,-0.22053 1.0428287,-0.23098 z" />
  </g>
</svg>
