<?xml version="1.0" encoding="UTF-8" standalone="no"?>
<svg
   sodipodi:docname="9S.svg"
   id="svg8"
   version="1.1"
   viewBox="0 0 63.102665 88.347855"
   height="88.347855mm"
   width="63.102665mm"
   inkscape:version="1.1.1 (1:1.1+202109281949+c3084ef5ed)"
   inkscape:export-filename="/home/doug/k40/52Cards/9S.png"
   inkscape:export-xdpi="96"
   inkscape:export-ydpi="96"
   xmlns:inkscape="http://www.inkscape.org/namespaces/inkscape"
   xmlns:sodipodi="http://sodipodi.sourceforge.net/DTD/sodipodi-0.dtd"
   xmlns="http://www.w3.org/2000/svg"
   xmlns:svg="http://www.w3.org/2000/svg"
   xmlns:rdf="http://www.w3.org/1999/02/22-rdf-syntax-ns#"
   xmlns:cc="http://creativecommons.org/ns#"
   xmlns:dc="http://purl.org/dc/elements/1.1/">
  <defs
     id="defs2">
    <marker
       style="overflow:visible"
       id="marker2995"
       refX="0"
       refY="0"
       orient="auto"
       inkscape:stockid="Arrow1Lstart"
       inkscape:isstock="true">
      <path
         transform="matrix(0.8,0,0,0.8,10,0)"
         style="fill:#000000;fill-opacity:1;fill-rule:evenodd;stroke:#000000;stroke-width:1pt;stroke-opacity:1"
         d="M 0,0 5,-5 -12.5,0 5,5 Z"
         id="path2993" />
    </marker>
    <marker
       style="overflow:visible"
       id="marker2985"
       refX="0"
       refY="0"
       orient="auto"
       inkscape:stockid="Arrow1Lstart"
       inkscape:isstock="true">
      <path
         transform="matrix(0.8,0,0,0.8,10,0)"
         style="fill:#000000;fill-opacity:1;fill-rule:evenodd;stroke:#000000;stroke-width:1pt;stroke-opacity:1"
         d="M 0,0 5,-5 -12.5,0 5,5 Z"
         id="path2983" />
    </marker>
    <marker
       style="overflow:visible"
       id="marker2791"
       refX="0"
       refY="0"
       orient="auto"
       inkscape:stockid="Arrow1Lstart"
       inkscape:isstock="true">
      <path
         transform="matrix(0.8,0,0,0.8,10,0)"
         style="fill:#000000;fill-opacity:1;fill-rule:evenodd;stroke:#000000;stroke-width:1pt;stroke-opacity:1"
         d="M 0,0 5,-5 -12.5,0 5,5 Z"
         id="path2789" />
    </marker>
    <marker
       style="overflow:visible"
       id="marker2781"
       refX="0"
       refY="0"
       orient="auto"
       inkscape:stockid="Arrow1Lstart"
       inkscape:isstock="true">
      <path
         transform="matrix(0.8,0,0,0.8,10,0)"
         style="fill:#000000;fill-opacity:1;fill-rule:evenodd;stroke:#000000;stroke-width:1pt;stroke-opacity:1"
         d="M 0,0 5,-5 -12.5,0 5,5 Z"
         id="path2779" />
    </marker>
    <marker
       style="overflow:visible"
       id="marker2417"
       refX="0"
       refY="0"
       orient="auto"
       inkscape:stockid="Arrow1Lstart"
       inkscape:isstock="true">
      <path
         transform="matrix(0.8,0,0,0.8,10,0)"
         style="fill:#000000;fill-opacity:1;fill-rule:evenodd;stroke:#000000;stroke-width:1pt;stroke-opacity:1"
         d="M 0,0 5,-5 -12.5,0 5,5 Z"
         id="path2415" />
    </marker>
    <marker
       style="overflow:visible"
       id="marker2383"
       refX="0"
       refY="0"
       orient="auto"
       inkscape:stockid="Arrow1Lstart"
       inkscape:isstock="true">
      <path
         transform="matrix(0.8,0,0,0.8,10,0)"
         style="fill:#000000;fill-opacity:1;fill-rule:evenodd;stroke:#000000;stroke-width:1pt;stroke-opacity:1"
         d="M 0,0 5,-5 -12.5,0 5,5 Z"
         id="path2381" />
    </marker>
    <marker
       style="overflow:visible"
       id="marker2355"
       refX="0"
       refY="0"
       orient="auto"
       inkscape:stockid="Arrow1Lstart"
       inkscape:isstock="true">
      <path
         transform="matrix(0.8,0,0,0.8,10,0)"
         style="fill:#000000;fill-opacity:1;fill-rule:evenodd;stroke:#000000;stroke-width:1pt;stroke-opacity:1"
         d="M 0,0 5,-5 -12.5,0 5,5 Z"
         id="path2353" />
    </marker>
    <marker
       style="overflow:visible"
       id="Arrow1Lstart"
       refX="0"
       refY="0"
       orient="auto"
       inkscape:stockid="Arrow1Lstart"
       inkscape:isstock="true">
      <path
         transform="matrix(0.8,0,0,0.8,10,0)"
         style="fill:#000000;fill-opacity:1;fill-rule:evenodd;stroke:#000000;stroke-width:1pt;stroke-opacity:1"
         d="M 0,0 5,-5 -12.5,0 5,5 Z"
         id="path2071" />
    </marker>
  </defs>
  <sodipodi:namedview
     id="base"
     pagecolor="#ffffff"
     bordercolor="#666666"
     borderopacity="1.0"
     inkscape:pageopacity="0.0"
     inkscape:pageshadow="2"
     inkscape:zoom="1.5033849"
     inkscape:cx="86.138952"
     inkscape:cy="166.624"
     inkscape:document-units="mm"
     inkscape:current-layer="layer1"
     inkscape:document-rotation="0"
     showgrid="false"
     inkscape:snap-smooth-nodes="false"
     inkscape:object-nodes="false"
     inkscape:window-width="1366"
     inkscape:window-height="712"
     inkscape:window-x="0"
     inkscape:window-y="0"
     inkscape:window-maximized="1"
     inkscape:object-paths="false"
     inkscape:snap-intersection-paths="false"
     inkscape:snap-midpoints="false"
     inkscape:snap-others="false"
     inkscape:pagecheckerboard="0"
     showguides="true"
     inkscape:guide-bbox="true"
     inkscape:snap-bbox="true"
     showborder="false"
     fit-margin-top="0"
     fit-margin-left="0"
     fit-margin-right="0"
     fit-margin-bottom="0" />
  <metadata
     id="metadata5">
    <rdf:RDF>
      <cc:Work
         rdf:about="">
        <dc:format>image/svg+xml</dc:format>
        <dc:type
           rdf:resource="http://purl.org/dc/dcmitype/StillImage" />
      </cc:Work>
    </rdf:RDF>
  </metadata>
  <g
     inkscape:label="Layer 1"
     inkscape:groupmode="layer"
     id="layer1"
     transform="translate(57.54811,231.84592)">
    <path
       style="fill:#000000;stroke-width:0.0846667"
       id="path389"
       d="" />
    <path
       id="path998"
       style="fill:#000000;stroke:none;stroke-width:0.0846667;stroke-opacity:1"
       d="m -49.637699,-231.84534 v 5.2e-4 c -1.120378,9.9e-4 -2.135796,0.005 -2.776056,0.0124 l -2.328542,0.0258 -0.577742,0.29611 c -0.742241,0.37983 -1.689084,1.3326 -1.982824,1.99522 l -0.207741,0.46922 -0.0088,4.57285 c -0.005,2.5151 -0.01367,5.35428 -0.02067,6.30918 -0.007,0.95489 -0.0104,3.88913 -0.0062,6.52053 0.003,2.63138 0.0051,5.88919 0.0041,7.23987 -10e-4,1.35067 0.0018,6.68595 0.0078,11.8556 0.006,5.16968 0.0092,10.48584 0.0072,11.81324 -0.002,1.32741 0.003,4.87108 0.01292,7.87497 0.0185,5.89954 0.01944,6.55409 0.03204,17.75189 0.005,4.10521 0.01205,7.74899 0.01395,8.09666 l 10e-4,0.632 0.193786,0.36794 c 0.326739,0.62015 0.797687,1.1557 1.381826,1.572 0.993492,0.70772 1.033386,0.71372 4.924766,0.71468 1.327338,3e-4 3.099771,0.007 3.938259,0.014 2.489121,0.0218 5.158174,0.0307 9.823173,0.031 2.421871,2e-4 4.975232,0.01 5.674074,0.0227 0.69887,0.0129 3.156728,0.0254 5.462198,0.0284 2.3055,0.003 5.697617,0.0147 7.537524,0.0264 1.83991,0.0117 5.956088,0.0336 9.1467276,0.0491 3.190631,0.0154 7.019983,0.0369 8.51059301,0.0481 3.07437899,0.023 3.48237399,-9.9e-4 3.99045299,-0.23719 h 0.0036 c 1.012172,-0.47017 2.154933,-1.68206 2.345592,-2.48771 0.0404,-0.17101 0.07765,-2.38741 0.08165,-4.9258 0.0142,-8.09742 0.0079,-17.79326 -0.01395,-21.67877 -0.0116,-2.07235 -0.02284,-5.92053 -0.02584,-8.55194 -0.002,-2.63141 -0.008,-7.01388 -0.0124,-9.73842 -0.02,-13.76802 -0.02332,-26.62157 -0.0098,-33.09773 l 0.0098,-4.60282 -0.293521,-0.55759 c -0.52456,-0.99563 -1.775187,-2.04705 -2.610178,-2.1947 -0.440107,-0.0778 -2.16629099,-0.0939 -12.8736316,-0.11834 -1.257559,-0.003 -2.800874,-0.0116 -3.429765,-0.0186 -0.628888,-0.007 -2.382205,-0.0131 -3.895886,-0.0129 -2.818236,4e-4 -12.303437,-0.0289 -15.793868,-0.0486 -1.07133,-0.006 -3.529177,-0.0179 -5.462199,-0.0269 -1.93299,-0.009 -5.248663,-0.026 -7.368024,-0.0367 -1.05968,-0.005 -2.285126,-0.007 -3.405478,-0.006 z m -4.049882,0.50798 5.19e-4,5.2e-4 c 2.647018,-0.0141 12.939492,0.0446 23.608892,0.13849 2.119691,0.0184 8.023349,0.0648 13.122714,0.10284 5.0991,0.038 11.6716726,0.0878 14.6047926,0.11213 l 5.191414,0.0419 0.424264,0.22738 c 0.5733,0.30675 1.354932,1.10075 1.583884,1.56424 l 0.187068,0.38034 0.01137,4.60592 c 0.009,3.78238 -0.002,12.61599 -0.01964,20.7052 -0.0178,8.08922 -0.04399,15.49413 -0.0615,16.23673 -0.0207,0.88428 -0.03928,7.87691 -0.04548,15.6776 -0.006,8.12718 -0.02002,14.33267 -0.04083,18.55081 -0.0104,2.10907 -0.02331,3.72226 -0.03721,4.82813 -0.007,0.55293 -0.01297,0.97915 -0.02067,1.27537 -0.004,0.14811 -0.009,0.26408 -0.0124,0.34365 -0.004,0.0796 -0.0173,0.15911 -0.0031,0.0822 -0.0654,0.34514 -0.419005,0.95379 -0.912606,1.40146 -0.691618,0.62723 -1.193472,0.88094 -1.806091,0.971 -0.22447,0.033 -0.726924,0.0666 -1.15083399,0.0796 -0.211961,0.007 -0.408686,0.009 -0.545187,0.006 -0.06,-10e-4 -0.101127,-0.005 -0.126606,-0.007 -0.005,-0.002 -0.01551,-0.004 -0.01551,-0.004 -5.29e-4,-1.4e-4 -0.04796,-0.0105 -0.06046,-0.0124 -0.0249,-0.004 -0.03466,-0.005 -0.04496,-0.006 -0.0206,-0.002 -0.03474,-0.001 -0.05064,-0.002 -0.0319,-0.002 -0.06958,-0.004 -0.117305,-0.005 -0.0954,-0.003 -0.230601,-0.006 -0.402559,-0.009 -0.34395,-0.006 -0.83509601,-0.0117 -1.44125601,-0.0181 -1.212289,-0.0127 -2.878148,-0.0255 -4.706689,-0.0362 -3.6549806,-0.0216 -8.3252706,-0.0541 -10.3730106,-0.0713 -5.826336,-0.0488 -12.056319,-0.0927 -19.007108,-0.13229 -3.515601,-0.02 -9.195009,-0.0549 -12.617317,-0.078 l -6.091619,-0.0403 -0.474906,-0.22789 c -0.545309,-0.26202 -1.269225,-0.93972 -1.660363,-1.59629 l -0.216009,-0.36122 -0.02377,-17.41237 c -0.0236,-16.53716 0.03401,-44.23046 0.123507,-58.63776 l 0.03979,-6.30453 0.267684,-0.52917 c 0.458118,-0.90782 1.633437,-1.76157 2.323889,-1.83451 -0.0397,0.004 0.04541,-0.002 0.148312,-0.003 0.106968,-9.9e-4 0.257786,-0.002 0.447516,-0.003 z m 4.067969,3.48247 c -0.117787,5.4e-4 -0.236622,0.005 -0.3545,0.0134 -0.566525,0.0402 -1.128495,0.17123 -1.635042,0.39429 -1.606799,0.70745 -2.623932,2.23063 -2.639632,3.95377 -0.011,1.25525 0.393253,2.26927 1.246952,3.12384 0.9833,0.98428 2.06869,1.40112 3.47059,1.33531 1.346898,-0.0636 2.062546,-0.33629 2.806547,-1.06918 l 0.416512,-0.40979 -0.03307,0.5705 c -0.043,0.76376 -0.339087,1.96441 -0.628385,2.55075 -0.3306,0.67025 -0.999006,1.35026 -1.526006,1.55236 -0.5832,0.22359 -1.531046,0.25498 -2.097548,0.0687 -0.809498,-0.26619 -1.442789,-0.8791 -1.799889,-1.74201 -0.147,-0.35511 -0.08493,-0.36028 -1.067636,0.0915 h -5.16e-4 c -0.424299,0.19504 -0.682627,0.36147 -0.679026,0.44028 0.01,0.2301 0.914307,1.51843 1.362707,1.93425 0.938398,0.87018 1.966039,1.22169 3.395141,1.16065 1.9163,-0.0815 3.208496,-0.99511 4.044196,-2.85926 0.427302,-0.95303 0.568902,-1.46641 0.7059,-2.55798 0.460301,-3.66816 -0.584311,-6.74952 -2.709912,-7.99279 -0.6398,-0.37425 -1.451666,-0.56239 -2.27738,-0.55863 z m -0.22996,1.79266 c 0.07708,-0.003 0.155183,-0.002 0.234095,0.002 0.2104,0.0111 0.427824,0.0466 0.654222,0.10594 0.816102,0.21382 1.289079,0.57471 1.74098,1.32756 0.214101,0.35589 0.251886,0.51092 0.280088,1.1312 0.028,0.61447 2.17e-4,0.78276 -0.172083,1.15755 -0.251002,0.53602 -0.743299,1.03734 -1.309999,1.33325 -0.5675,0.29638 -1.517918,0.35156 -2.207618,0.12868 -0.582398,-0.18819 -1.289743,-0.78971 -1.554943,-1.3224 -0.1032,-0.20737 -0.215913,-0.63252 -0.250113,-0.94413 -0.109701,-0.99106 0.225965,-1.73969 1.053166,-2.34818 0.495163,-0.36429 0.992674,-0.55247 1.532205,-0.57154 z m 7.397998,10.82001 0.01602,0.34469 c 0.01,0.18964 0.01018,2.24369 -5.19e-4,4.56457 -0.01,2.32085 -0.01812,5.07787 -0.01912,6.12676 0,2.53829 -0.01,3.54358 -0.01395,4.408 -0.01,0.82992 -0.01017,0.89882 -0.03617,7.67188 -0.012,2.79744 -0.02656,5.77319 -0.03256,6.61252 -0.01,0.83936 -0.01344,2.36494 -0.01344,3.39049 -4.02e-4,1.02554 -0.01002,2.17026 -0.01602,2.54351 -0.01,0.37334 -0.01554,2.70012 -0.01654,5.17075 -9e-4,2.47064 -0.01033,4.87392 -0.01033,5.34024 0,0.46632 -0.01102,2.44995 -0.01602,4.408 0,1.95803 -0.01371,3.69363 -0.0217,3.85713 l 5.16e-4,-5.2e-4 c -0.01,0.16348 -0.01625,0.34304 -0.02325,0.39895 -0.01,0.0558 0.01929,0.11768 0.0553,0.13746 0.065,0.0361 0.996598,0.0545 2.820498,0.0553 0.536101,1.3e-4 1.261271,0.007 1.611273,0.0145 0.349898,0.008 1.780434,0.019 3.179132,0.0248 1.398702,0.006 3.267853,0.015 4.153752,0.0207 0.885899,0.006 2.698345,0.017 4.027144,0.0248 2.801601,0.0164 3.848505,0.0253 4.790405,0.0413 0.3732,0.006 2.185445,0.0173 4.027144,0.0248 4.182602,0.0171 4.979749,0.0223 5.722649,0.0382 0.326699,0.007 1.039815,0.0154 1.584918,0.0181 l 0.9906366,0.005 0.02997,-0.28371 c 0.017,-0.15604 0.02887,-1.21808 0.02687,-2.36006 0,-1.14197 3.36e-4,-2.32442 0.01033,-2.62775 0.01,-0.30331 0.01295,-1.40936 0.01395,-2.45825 0,-1.04889 0.0098,-2.67038 0.0098,-3.60288 0,-0.93251 0.0099,-2.91575 0.01085,-4.40748 0,-3.78039 0.03601,-12.74148 0.06201,-17.16588 0.01,-1.32887 0.01605,-3.23622 0.01705,-4.2385 0,-1.0023 0.01,-2.14645 0.01499,-2.543 0.01,-0.39652 0.0124,-1.55988 0.0124,-2.58537 -8.99e-4,-2.78186 0.0097,-6.77281 0.02067,-9.9012 0.01,-1.52948 -1.53e-4,-2.79213 -0.02015,-2.80603 -0.018,-0.014 -0.6036626,-0.0238 -1.3027636,-0.0217 -0.699201,0.002 -1.920113,-0.004 -2.713013,-0.0139 -1.279999,-0.0159 -4.833602,-0.0396 -7.333401,-0.0486 -0.489601,-0.002 -1.15693,-0.01 -1.483632,-0.0181 -0.3267,-0.008 -1.452248,-0.0153 -2.501138,-0.015 -1.0487,3.4e-4 -2.135873,-0.005 -2.415874,-0.0119 -0.28,-0.007 -0.948047,-0.0143 -1.484146,-0.0165 -1.539401,-0.006 -2.531385,-0.0134 -3.263884,-0.0232 -1.138999,-0.0155 -2.180579,-0.0227 -4.832781,-0.0331 -2.9831,-0.0117 -3.888441,-0.02 -4.896342,-0.0429 z m 0.728121,0.4098 c 0.1457,-0.006 0.933148,-0.005 1.749247,0.003 0.8161,0.007 1.883799,0.0166 2.373498,0.0207 0.489601,0.004 1.19538,0.01 1.568381,0.0134 0.3731,0.003 1.193528,0.005 1.822627,0.004 0.629399,-10e-4 1.278173,0.007 1.441773,0.0176 0.1636,0.0108 0.850204,0.0165 1.526006,0.0124 0.675698,-0.004 1.534176,-0.003 1.907376,0.002 1.786101,0.024 3.88285,0.0428 5.383651,0.0491 0.90909,0.004 2.759176,0.0137 4.111377,0.0222 1.352301,0.009 3.203209,0.0197 4.11241,0.0248 0.909299,0.005 2.111039,0.0129 2.670638,0.0171 0.559599,0.004 1.494076,0.0103 2.076876,0.0134 l 1.0593646,0.006 0.02998,1.01544 c 0.035,1.20273 0.02326,9.05437 -0.02274,14.96033 -0.01,0.86265 -0.01777,3.53304 -0.02377,5.934 -0.01,2.40095 -0.01512,4.7468 -0.01912,5.21312 -0.026,2.95117 -0.05104,12.84233 -0.03204,13.01419 0.012,0.11447 0.01212,0.95238 5.16e-4,1.8619 -0.011,0.9095 -0.02332,2.05398 -0.02532,2.54352 0,0.48957 -0.01,1.57653 -0.01395,2.41587 -0.01,0.83932 -0.0157,2.80427 -0.0217,4.36614 -0.01,1.5619 -0.02537,2.85589 -0.04237,2.87579 -0.034,0.0398 -4.692521,0.0311 -7.873421,-0.015 -0.419899,-0.006 -1.564513,-0.0122 -2.543514,-0.0134 -1.8084,-0.002 -4.33008,-0.0182 -5.637381,-0.0351 -0.3965,-0.005 -2.246794,-0.0166 -4.111895,-0.0258 -1.865,-0.009 -4.039362,-0.0244 -4.832263,-0.0341 -0.7929,-0.01 -1.89988,-0.0179 -2.459281,-0.0176 -0.5594,2.1e-4 -1.321787,-0.004 -1.694987,-0.009 -0.373099,-0.005 -1.17307,-0.009 -1.777669,-0.009 -0.604599,7e-5 -1.130371,-0.0175 -1.167371,-0.0382 -0.038,-0.0208 -0.06688,-0.0637 -0.05788,-0.0961 0.013,-0.0818 0.03076,-2.05905 0.03876,-4.38319 0,-1.07231 0.01209,-2.63591 0.01809,-3.47524 0.01,-0.83934 0.0098,-2.80408 0.0098,-4.36562 0,-1.56156 3.36e-4,-3.18257 0.01034,-3.60237 0.01,-0.41978 0.01195,-1.52584 0.01395,-2.45825 0,-0.93241 0.01872,-4.28936 0.03772,-7.46001 0.018,-3.17064 0.03631,-7.42421 0.04031,-9.45213 0,-2.02791 0.01209,-4.77417 0.01809,-6.10299 0.01,-1.32882 0.01192,-3.2744 0.01292,-4.32325 2.99e-4,-1.04885 -1.83e-4,-2.26943 0.0098,-2.7125 0,-0.44307 0.0099,-1.56872 0.01292,-2.50113 0,-0.93239 0.01225,-2.0483 0.02325,-2.47996 l 0.01188,-0.78548 z m 4.870505,3.13882 c -0.0091,-0.003 -0.01588,-0.003 -0.02016,0.002 h 0.0041 c -0.034,0.0398 -0.277202,0.38719 -0.539502,0.77205 -0.2624,0.38486 -0.907605,1.28447 -1.433504,1.99884 -0.893101,1.21308 -1.375654,2.03382 -1.512054,2.57246 -0.095,0.37268 -0.03781,1.16008 0.104388,1.45934 0.5362,1.12572 2.157519,1.25252 2.925919,0.22892 0.2917,-0.38863 0.301379,-0.35714 0.159679,0.53072 -0.107598,0.6743 -0.4175,1.55378 -0.7028,1.99575 -0.09,0.13852 -0.162446,0.26504 -0.161745,0.28112 5.98e-4,0.0161 0.391263,0.0119 0.868164,-0.01 0.476798,-0.0217 1.009489,-0.0158 1.183389,0.0129 l 0.316259,0.0522 -0.311092,-0.60359 c -0.331899,-0.64389 -0.639672,-1.6953 -0.655772,-2.27066 l -0.01602,-0.35036 0.179319,0.3054 c 0.099,0.16783 0.323927,0.40494 0.500226,0.5271 0.269,0.18656 0.41669,0.22128 0.921391,0.21963 0.502502,-0.002 0.653724,-0.0355 0.922424,-0.20981 0.543201,-0.35246 0.803672,-0.78991 0.819071,-1.37666 0.026,-0.98637 -0.273135,-1.6022 -1.770433,-3.63595 -0.543301,-0.73785 -1.156925,-1.61856 -1.363226,-1.95699 -0.180424,-0.29612 -0.35451,-0.51995 -0.41806,-0.54467 z m 21.899954,0.13695 c -0.048,2.6e-4 -0.149058,0.11561 -0.223758,0.25631 -0.075,0.14073 -0.502981,0.75472 -0.951881,1.36374 -1.710899,2.32079 -2.08997,2.91298 -2.317171,3.62097 -0.1148,0.35918 -0.100663,1.17988 0.02584,1.47226 0.05,0.11486 0.234011,0.35469 0.410313,0.53279 0.7844,0.79252 2.064113,0.65905 2.632914,-0.27389 0.167799,-0.27471 0.179369,-0.28036 0.187068,-0.091 0.022,0.57802 -0.576913,2.49547 -0.860412,2.75333 -0.2223,0.2017 -0.08916,0.2412 0.552937,0.16226 0.4826,-0.0594 0.783799,-0.0499 1.137399,0.0357 0.264599,0.064 0.501131,0.11581 0.525031,0.11472 0.024,-10e-4 -0.07482,-0.21604 -0.219625,-0.47749 -0.323498,-0.58473 -0.543605,-1.29022 -0.656807,-2.10581 -0.064,-0.46061 -0.06001,-0.60595 0.01499,-0.56431 0.055,0.0308 0.102203,0.10329 0.104905,0.16123 0.014,0.31154 0.969192,0.85799 1.460891,0.83561 0.423802,-0.0193 1.064009,-0.29136 1.279509,-0.54364 0.388901,-0.4558 0.478028,-0.77301 0.413928,-1.47846 -0.052,-0.56693 -0.108286,-0.73043 -0.452684,-1.32292 -0.216,-0.37178 -0.880113,-1.34837 -1.476915,-2.16989 -0.596598,-0.82153 -1.17811,-1.67096 -1.29191,-1.88774 -0.1138,-0.2168 -0.246454,-0.39397 -0.294555,-0.39378 z m -34.467662,0.7214 c -0.01036,-5.4e-4 -0.02186,0.003 -0.03411,0.009 h 0.0031 c -0.049,0.027 -0.115686,0.11104 -0.187587,0.2465 -0.075,0.14089 -0.355433,0.5832 -0.623734,0.98237 -0.452199,0.67324 -0.829974,1.18459 -1.987475,2.68976 -0.5792,0.75327 -1.633556,2.31922 -1.795757,2.66702 -0.06897,0.14896 -0.203578,0.52272 -0.298172,0.82992 -0.33047,1.07519 -0.04783,2.41967 0.630971,2.99672 0.627798,0.5339 1.938774,0.69275 2.693373,0.32659 0.393002,-0.19067 0.886148,-0.67761 1.129649,-1.11621 0.089,-0.1594 0.09902,-0.16037 0.105418,-0.0129 0.026,0.34038 -0.270473,1.91414 -0.476972,2.52905 -0.120499,0.35869 -0.372473,0.90936 -0.560173,1.22421 l -0.34158,0.57257 1.103807,-0.0868 c 0.837301,-0.0657 1.231075,-0.0594 1.629876,0.0258 0.2892,0.0618 0.552461,0.11154 0.584459,0.11008 0.032,-0.001 -0.08495,-0.23443 -0.260448,-0.5178 -0.548301,-0.8861 -1.022601,-2.43326 -1.060402,-3.48506 l -0.02532,-0.55552 0.140044,0.28732 c 0.222899,0.4559 0.542121,0.78704 0.990119,1.02836 0.380201,0.20481 0.485365,0.22151 1.219565,0.1881 0.6604,-0.0302 0.862481,-0.0725 1.133782,-0.23461 1.414999,-0.84532 1.60229,-2.58512 0.489892,-4.54339 -0.167802,-0.29536 -0.909797,-1.36761 -1.648995,-2.3828 -1.568601,-2.15419 -2.494457,-3.51263 -2.501656,-3.67161 0,-0.0704 -0.0206,-0.10535 -0.05168,-0.10697 z m 12.551172,11.80393 c -0.03,0.004 -0.292944,0.3691 -0.583946,0.8108 -0.291,0.4417 -0.857221,1.23736 -1.258319,1.76837 -1.038802,1.37546 -1.522272,2.19062 -1.703774,2.87476 h 5.19e-4 c -0.256702,0.96747 0.102277,1.78766 0.945676,2.16111 0.827302,0.36631 1.674408,0.13769 2.145607,-0.57929 0.270999,-0.4124 0.280046,-0.38833 0.149344,0.40514 -0.1466,0.88942 -0.433086,1.74352 -0.727086,2.16886 -0.08,0.11478 -0.14361,0.23509 -0.14211,0.26768 0,0.0326 0.30054,0.0289 0.664041,-0.009 0.3634,-0.0376 0.86506,-0.0349 1.11466,0.007 0.2496,0.0421 0.472194,0.0554 0.496094,0.0294 0.024,-0.0259 -0.04166,-0.186 -0.146762,-0.35553 -0.297198,-0.48157 -0.596778,-1.40654 -0.680577,-2.10375 l -0.077,-0.63665 0.177252,0.2465 c 0.416799,0.57858 0.821995,0.76794 1.562693,0.73225 0.602401,-0.0292 1.039945,-0.28729 1.373045,-0.81029 0.2199,-0.3461 0.238088,-0.43598 0.209288,-1.06866 -0.029,-0.63477 -0.06171,-0.7473 -0.410311,-1.39372 -0.208399,-0.38674 -0.847368,-1.34922 -1.420069,-2.13889 -0.572698,-0.7897 -1.174684,-1.64881 -1.337384,-1.90944 -0.162801,-0.26063 -0.321082,-0.47102 -0.350882,-0.46664 z m 21.843626,0.10645 c -0.03128,3.3e-4 -0.136747,0.14619 -0.234611,0.32505 -0.170601,0.31153 -0.571836,0.8766 -1.955435,2.75177 -0.7278,0.98615 -1.112097,1.66241 -1.294495,2.27945 h -5.19e-4 c -0.378999,1.28249 0.267674,2.33264 1.524974,2.47685 0.584899,0.0671 1.33899,-0.3142 1.54409,-0.78083 0.092,-0.20825 0.09816,-0.2104 0.134361,-0.0403 0.098,0.44944 -0.338585,1.92823 -0.788583,2.67115 l -0.168982,0.27905 0.701249,-0.077 c 0.483698,-0.0528 0.848138,-0.0438 1.172539,0.0284 0.2589,0.0577 0.477292,0.0968 0.486791,0.0873 0.01,-0.009 -0.106583,-0.23877 -0.255281,-0.51056 -0.328001,-0.59996 -0.518073,-1.20759 -0.640271,-2.04484 l -0.09199,-0.63096 0.303858,0.3669 c 0.7355,0.88773 1.936105,0.92876 2.672705,0.0909 0.5642,-0.64176 0.598403,-1.48944 0.101801,-2.51406 -0.2124,-0.43813 -0.860414,-1.39913 -1.939414,-2.87476 -0.414301,-0.56653 -0.857753,-1.22186 -0.984954,-1.45624 -0.126963,-0.23397 -0.256011,-0.42605 -0.287322,-0.42737 z m -10.944034,6.3066 c -0.0076,-0.001 -0.01395,4e-4 -0.01809,0.006 -0.033,0.0422 -0.222779,0.33184 -0.42168,0.64389 -0.1988,0.31203 -0.734308,1.06107 -1.190109,1.66449 -1.062699,1.40697 -1.383556,1.89616 -1.709457,2.60656 h 5.19e-4 c -0.248801,0.53318 -0.261157,0.62615 -0.208256,1.2175 0.048,0.53285 0.09834,0.69395 0.303339,0.96221 0.6609,0.86673 1.931421,0.922 2.667021,0.11628 0.411001,-0.45012 0.433962,-0.39686 0.233061,0.55552 -0.142301,0.67511 -0.410665,1.40027 -0.692465,1.87275 l -0.172082,0.28836 0.706935,-0.0853 c 0.494199,-0.0596 0.841669,-0.0556 1.154967,0.0139 0.246401,0.0547 0.460224,0.0858 0.475424,0.0692 0.015,-0.0166 -0.08706,-0.24444 -0.226861,-0.50643 -0.3135,-0.58669 -0.532972,-1.2943 -0.643372,-2.06913 l -0.08423,-0.58963 0.243398,0.31936 c 0.325498,0.42748 0.555503,0.58725 0.989602,0.68885 0.713201,0.16698 1.510575,-0.15931 1.898076,-0.77669 0.213601,-0.33962 0.229971,-0.42964 0.199469,-1.1002 -0.031,-0.6728 -0.06004,-0.7802 -0.377237,-1.35392 -0.189198,-0.34262 -0.837314,-1.30281 -1.439704,-2.13372 -0.602401,-0.83094 -1.218859,-1.72888 -1.37046,-1.99574 -0.132561,-0.23356 -0.264644,-0.40343 -0.317809,-0.41393 z m -12.040092,6.18928 c -0.02025,-0.001 -0.03318,6.7e-4 -0.03721,0.005 -0.016,0.0181 0.09116,0.25521 0.239262,0.5271 0.148,0.27192 0.336947,0.75807 0.420645,1.08056 0.170802,0.6745 0.286124,1.47022 0.207225,1.47381 -0.03,0.001 -0.126643,-0.10951 -0.217043,-0.24701 -0.226999,-0.3472 -0.734944,-0.62955 -1.209744,-0.67283 -0.843201,-0.0767 -1.574443,0.39245 -1.820045,1.16737 -0.1543,0.48755 -0.06667,1.16201 0.24443,1.88671 0.144301,0.33606 0.744249,1.25509 1.49655,2.29133 0.6908,0.95158 1.351944,1.90678 1.468643,2.12286 0.188701,0.34979 0.352465,0.50363 0.344165,0.32247 0,-0.0917 1.067716,-1.63444 1.569413,-2.25878 2.035101,-2.53297 2.457691,-4.10516 1.362192,-5.06688 -0.482799,-0.42373 -1.057945,-0.55741 -1.650545,-0.38395 -0.427699,0.12511 -0.600144,0.25492 -0.941544,0.70848 l -0.218593,0.29094 0.03721,-0.28267 c 0.1319,-0.99223 0.442259,-1.96264 0.837158,-2.61328 l 0.162782,-0.2682 -0.823206,0.0424 c -0.479999,0.0246 -0.959633,0.001 -1.150835,-0.0553 -0.1353,-0.0404 -0.260156,-0.0672 -0.32091,-0.0703 z m 21.722188,0.1757 0.30489,0.54415 c 0.339601,0.60471 0.66634,1.74563 0.645438,2.25413 l -0.01395,0.33073 -0.226343,-0.31781 c -0.124499,-0.1747 -0.382608,-0.3984 -0.573608,-0.49764 -0.291701,-0.15118 -0.444429,-0.17193 -0.953429,-0.12713 -0.5275,0.0464 -0.645859,0.0882 -0.917258,0.32505 -0.171399,0.1496 -0.392326,0.44526 -0.490926,0.6568 -0.1558,0.32741 -0.170138,0.47696 -0.115239,1.00098 0.054,0.52234 0.128092,0.7308 0.486793,1.37562 0.232601,0.41819 0.855512,1.35149 1.384411,2.07326 0.5289,0.7218 1.10621,1.54397 1.282611,1.82728 0.176498,0.28331 0.346336,0.51295 0.377237,0.50953 0.031,-0.003 0.243456,-0.30837 0.473356,-0.67851 0.229801,-0.37016 0.861747,-1.26043 1.404048,-1.97869 1.645999,-2.18017 2.023988,-3.31169 1.442289,-4.31395 -0.605399,-1.04285 -2.250112,-1.10009 -2.894912,-0.10077 -0.245102,0.38064 -0.252021,0.34863 -0.111623,-0.53692 0.109501,-0.69049 0.4136,-1.56247 0.699699,-2.00556 0.09,-0.1385 0.16193,-0.26505 0.161232,-0.28112 -7.01e-4,-0.0161 -0.41034,-0.0103 -0.91054,0.0124 -0.5001,0.0228 -1.031939,0.0157 -1.181841,-0.0155 z m 15.50292961,7.76645 -0.35501801,0.0791 c -0.578599,0.12875 -1.881262,0.14146 -2.446362,0.0238 -0.2893,-0.0602 -0.539289,-0.096 -0.554489,-0.0791 h -0.0041 c -0.015,0.0169 0.09711,0.23855 0.250113,0.49248 0.5739,0.95345 1.049589,2.50301 1.087789,3.56309 l 0.0217,0.47542 -0.182935,-0.32866 c -0.457999,-0.82218 -1.250117,-1.25707 -2.210716,-1.21337 -1.196501,0.0544 -2.114005,0.86083 -2.308905,2.02986 v 5.1e-4 c -0.07,0.42055 0.0099,1.05212 0.195855,1.62368 0.2574,0.77451 0.818671,1.68234 2.31407,3.74292 0.7893,1.08742 1.669471,2.34147 1.956469,2.78691 l 0.521933,0.80977 0.158647,-0.28991 c 0.246301,-0.45066 1.287481,-1.92183 2.28358201,-3.22616 1.16610099,-1.52686 1.84277499,-2.57604 2.24637299,-3.48557 0.314201,-0.71135 0.322022,-0.74886 0.284221,-1.58078 -0.044,-0.96565 -0.160613,-1.26108 -0.690915,-1.74512 -0.678198,-0.61931 -1.84096499,-0.8313 -2.64376399,-0.48214 -0.42110001,0.18317 -0.94885901,0.65797 -1.18855801,1.07022 l -0.151929,0.26149 0.0279,-0.46716 c 0.066,-1.12257 0.522753,-2.62677 1.077452,-3.545 z m -37.27731161,4.79919 c -0.140798,-0.0191 -0.152453,0.0508 -0.01705,0.19637 0.356801,0.38308 0.831549,1.8264 0.867648,2.63809 l 0.01602,0.35191 -0.169497,-0.24701 c -0.813001,-1.18516 -2.538095,-1.0587 -3.060795,0.22427 h 5.16e-4 c -0.176401,0.43228 -0.151239,1.26518 0.05116,1.70378 0.321702,0.69822 0.750393,1.37164 1.725994,2.70784 0.559901,0.76698 1.160052,1.62488 1.333251,1.90686 l 0.314709,0.51263 0.397393,-0.62993 c 0.218499,-0.34645 0.802278,-1.16306 1.297078,-1.81488 1.002199,-1.32007 1.551466,-2.20075 1.755965,-2.8143 0.1948,-0.58467 0.144944,-1.30534 -0.121957,-1.75958 -0.613899,-1.04436 -2.260436,-1.09386 -2.929535,-0.0878 l -0.186037,0.27957 0.03928,-0.4253 c 0.064,-0.69805 0.371859,-1.71393 0.664559,-2.1947 0.1508,-0.24778 0.273669,-0.45601 0.273368,-0.46302 -2.99e-4,-0.007 -0.409721,0.002 -0.910021,0.0202 -0.500301,0.0179 -1.021271,-0.007 -1.158068,-0.0558 -0.075,-0.0266 -0.136552,-0.0427 -0.183452,-0.0491 z m 21.887552,0.18965 c -0.02121,10e-4 -0.03504,0.005 -0.04082,0.0109 -0.021,0.0235 0.04788,0.18235 0.153477,0.35244 0.278601,0.44693 0.592695,1.46106 0.677994,2.19159 0.073,0.62617 0.07242,0.62989 -0.07958,0.38499 -0.3839,-0.61943 -0.80859,-0.8482 -1.53479,-0.82837 -0.756398,0.0207 -1.264327,0.36428 -1.557528,1.0542 -0.280199,0.65938 2.4e-5,1.75927 0.746726,2.90318 0.157401,0.24209 0.703995,1.01168 1.214395,1.71101 0.5105,0.6993 1.037087,1.4672 1.170988,1.70584 0.1339,0.23863 0.273026,0.43209 0.309025,0.43046 0.036,-0.002 0.130874,-0.12955 0.211873,-0.28473 0.2095,-0.40163 0.769639,-1.21113 1.440741,-2.08257 0.728099,-0.94533 1.424183,-2.01214 1.679482,-2.57297 0.143902,-0.31534 0.198705,-0.60525 0.203605,-1.06866 0.01,-0.55112 -0.02306,-0.68537 -0.214455,-1.00614 -0.611201,-1.02374 -2.336189,-1.03395 -2.940389,-0.0176 l -0.1695,0.28525 0.03669,-0.4253 c 0.073,-0.82907 0.591111,-2.40477 0.848011,-2.5802 0.213399,-0.14582 0.01915,-0.17677 -0.70435,-0.11214 -0.430501,0.0385 -0.934194,0.0358 -1.118793,-0.007 -0.138526,-0.0317 -0.267666,-0.0482 -0.332799,-0.0444 z m 13.8554856,12.0556 c -0.10428,-4.2e-4 -0.210198,0.001 -0.31781,0.006 v -5.2e-4 c -1.256101,0.055 -2.142894,0.43376 -2.962092,1.26556 -1.06,1.07649 -1.736312,2.98568 -1.828313,5.15886 -0.042,0.98049 0.08685,2.43522 0.291454,3.30626 0.485601,2.06503 1.740448,3.55556 3.419946,4.06073 0.689602,0.20744 1.939788,0.2088 2.662888,0.004 2.081999,-0.59215 3.428463,-2.405 3.334163,-4.4788 -0.059,-1.26081 -0.54927,-2.25657 -1.51567099,-3.08146 -0.9374,-0.80009 -2.00212001,-1.15428 -3.29282101,-1.09554 -1.187501,0.054 -2.179519,0.44602 -2.75022,1.08624 -0.1716,0.19247 -0.335936,0.35111 -0.364836,0.35243 -0.093,0.004 0.03898,-1.08871 0.224276,-1.85674 0.241401,-1.00089 0.57349,-1.66646 1.090891,-2.18436 0.580398,-0.58102 1.05883,-0.76013 2.016929,-0.75499 0.5706,0.003 0.828871,0.0483 1.167371,0.20309 0.56100101,0.25652 1.22492001,0.90815 1.51101901,1.48259 0.124,0.24933 0.238348,0.45239 0.254249,0.45166 0.065,-0.003 1.43077899,-0.68215 1.48828099,-0.74001 0.092,-0.093 -0.28462,-0.80989 -0.721921,-1.37201 -0.94996799,-1.22099 -2.14357399,-1.80649 -3.707783,-1.81281 z m -7.46466,0.92397 h 0.001 c 0.049,-0.002 0.06782,0.0348 0.04082,0.0827 -0.027,0.0479 -0.06582,0.0879 -0.08682,0.0889 -0.02,9.1e-4 -0.03834,-0.0366 -0.04134,-0.0832 0,-0.0466 0.0373,-0.0862 0.0863,-0.0884 z m 7.78402,5.96812 c 0.371639,-4e-5 0.546835,0.0405 0.799436,0.15141 0.58559901,0.25746 1.04923901,0.65048 1.35753701,1.15186 0.241401,0.39264 0.275275,0.52177 0.304377,1.16066 0.027,0.59168 -5.29e-4,0.79493 -0.15503,1.14876 -0.2329,0.53311 -0.704763,1.02591 -1.296562,1.35341 -0.56359901,0.31195 -1.47126301,0.38528 -2.17816101,0.17622 -0.564401,-0.1669 -1.299869,-0.76601 -1.598869,-1.30225 -0.278701,-0.49992 -0.379592,-1.40786 -0.221692,-1.99058 0.138298,-0.51011 0.762178,-1.26761 1.293977,-1.57044 0.349099,-0.1989 0.512368,-0.23405 1.247471,-0.26665 0.177622,-0.008 0.323635,-0.0124 0.447516,-0.0124 z" />
  </g>
</svg>
