<?xml version="1.0" encoding="UTF-8" standalone="no"?>
<svg
   sodipodi:docname="AC.svg"
   id="svg8"
   version="1.1"
   viewBox="0 0 63.102409 88.347832"
   height="88.347832mm"
   width="63.102409mm"
   inkscape:version="1.1.1 (1:1.1+202109281949+c3084ef5ed)"
   inkscape:export-filename="/home/doug/k40/52Cards/AC.png"
   inkscape:export-xdpi="96"
   inkscape:export-ydpi="96"
   xmlns:inkscape="http://www.inkscape.org/namespaces/inkscape"
   xmlns:sodipodi="http://sodipodi.sourceforge.net/DTD/sodipodi-0.dtd"
   xmlns="http://www.w3.org/2000/svg"
   xmlns:svg="http://www.w3.org/2000/svg"
   xmlns:rdf="http://www.w3.org/1999/02/22-rdf-syntax-ns#"
   xmlns:cc="http://creativecommons.org/ns#"
   xmlns:dc="http://purl.org/dc/elements/1.1/">
  <defs
     id="defs2">
    <marker
       style="overflow:visible"
       id="marker2995"
       refX="0"
       refY="0"
       orient="auto"
       inkscape:stockid="Arrow1Lstart"
       inkscape:isstock="true">
      <path
         transform="matrix(0.8,0,0,0.8,10,0)"
         style="fill:#000000;fill-opacity:1;fill-rule:evenodd;stroke:#000000;stroke-width:1pt;stroke-opacity:1"
         d="M 0,0 5,-5 -12.5,0 5,5 Z"
         id="path2993" />
    </marker>
    <marker
       style="overflow:visible"
       id="marker2985"
       refX="0"
       refY="0"
       orient="auto"
       inkscape:stockid="Arrow1Lstart"
       inkscape:isstock="true">
      <path
         transform="matrix(0.8,0,0,0.8,10,0)"
         style="fill:#000000;fill-opacity:1;fill-rule:evenodd;stroke:#000000;stroke-width:1pt;stroke-opacity:1"
         d="M 0,0 5,-5 -12.5,0 5,5 Z"
         id="path2983" />
    </marker>
    <marker
       style="overflow:visible"
       id="marker2791"
       refX="0"
       refY="0"
       orient="auto"
       inkscape:stockid="Arrow1Lstart"
       inkscape:isstock="true">
      <path
         transform="matrix(0.8,0,0,0.8,10,0)"
         style="fill:#000000;fill-opacity:1;fill-rule:evenodd;stroke:#000000;stroke-width:1pt;stroke-opacity:1"
         d="M 0,0 5,-5 -12.5,0 5,5 Z"
         id="path2789" />
    </marker>
    <marker
       style="overflow:visible"
       id="marker2781"
       refX="0"
       refY="0"
       orient="auto"
       inkscape:stockid="Arrow1Lstart"
       inkscape:isstock="true">
      <path
         transform="matrix(0.8,0,0,0.8,10,0)"
         style="fill:#000000;fill-opacity:1;fill-rule:evenodd;stroke:#000000;stroke-width:1pt;stroke-opacity:1"
         d="M 0,0 5,-5 -12.5,0 5,5 Z"
         id="path2779" />
    </marker>
    <marker
       style="overflow:visible"
       id="marker2417"
       refX="0"
       refY="0"
       orient="auto"
       inkscape:stockid="Arrow1Lstart"
       inkscape:isstock="true">
      <path
         transform="matrix(0.8,0,0,0.8,10,0)"
         style="fill:#000000;fill-opacity:1;fill-rule:evenodd;stroke:#000000;stroke-width:1pt;stroke-opacity:1"
         d="M 0,0 5,-5 -12.5,0 5,5 Z"
         id="path2415" />
    </marker>
    <marker
       style="overflow:visible"
       id="marker2383"
       refX="0"
       refY="0"
       orient="auto"
       inkscape:stockid="Arrow1Lstart"
       inkscape:isstock="true">
      <path
         transform="matrix(0.8,0,0,0.8,10,0)"
         style="fill:#000000;fill-opacity:1;fill-rule:evenodd;stroke:#000000;stroke-width:1pt;stroke-opacity:1"
         d="M 0,0 5,-5 -12.5,0 5,5 Z"
         id="path2381" />
    </marker>
    <marker
       style="overflow:visible"
       id="marker2355"
       refX="0"
       refY="0"
       orient="auto"
       inkscape:stockid="Arrow1Lstart"
       inkscape:isstock="true">
      <path
         transform="matrix(0.8,0,0,0.8,10,0)"
         style="fill:#000000;fill-opacity:1;fill-rule:evenodd;stroke:#000000;stroke-width:1pt;stroke-opacity:1"
         d="M 0,0 5,-5 -12.5,0 5,5 Z"
         id="path2353" />
    </marker>
    <marker
       style="overflow:visible"
       id="Arrow1Lstart"
       refX="0"
       refY="0"
       orient="auto"
       inkscape:stockid="Arrow1Lstart"
       inkscape:isstock="true">
      <path
         transform="matrix(0.8,0,0,0.8,10,0)"
         style="fill:#000000;fill-opacity:1;fill-rule:evenodd;stroke:#000000;stroke-width:1pt;stroke-opacity:1"
         d="M 0,0 5,-5 -12.5,0 5,5 Z"
         id="path2071" />
    </marker>
  </defs>
  <sodipodi:namedview
     id="base"
     pagecolor="#ffffff"
     bordercolor="#666666"
     borderopacity="1.0"
     inkscape:pageopacity="0.0"
     inkscape:pageshadow="2"
     inkscape:zoom="1.5033853"
     inkscape:cx="17.959468"
     inkscape:cy="167.28912"
     inkscape:document-units="mm"
     inkscape:current-layer="layer1"
     inkscape:document-rotation="0"
     showgrid="false"
     inkscape:snap-smooth-nodes="false"
     inkscape:object-nodes="false"
     inkscape:window-width="1366"
     inkscape:window-height="712"
     inkscape:window-x="0"
     inkscape:window-y="0"
     inkscape:window-maximized="1"
     inkscape:object-paths="false"
     inkscape:snap-intersection-paths="false"
     inkscape:snap-midpoints="false"
     inkscape:snap-others="false"
     inkscape:pagecheckerboard="0"
     showguides="true"
     inkscape:guide-bbox="true"
     inkscape:snap-bbox="true"
     showborder="false"
     fit-margin-top="0"
     fit-margin-left="0"
     fit-margin-right="0"
     fit-margin-bottom="0" />
  <metadata
     id="metadata5">
    <rdf:RDF>
      <cc:Work
         rdf:about="">
        <dc:format>image/svg+xml</dc:format>
        <dc:type
           rdf:resource="http://purl.org/dc/dcmitype/StillImage" />
      </cc:Work>
    </rdf:RDF>
  </metadata>
  <g
     inkscape:label="Layer 1"
     inkscape:groupmode="layer"
     id="layer1"
     transform="translate(746.32775,475.26821)">
    <path
       style="fill:#000000;stroke-width:0.0846667"
       id="path389"
       d="" />
    <path
       id="path6742-7-6-78"
       style="fill:#000000;fill-opacity:1;stroke:none;stroke-width:0.264999;stroke-miterlimit:4;stroke-dasharray:none;stroke-opacity:1"
       d="m -738.41766,-475.26806 0.004,5.3e-4 c -1.1203,9.7e-4 -2.13585,0.005 -2.77606,0.0124 l -2.32852,0.0258 -0.57775,0.29609 c -0.74231,0.37987 -1.68912,1.33263 -1.98284,1.99525 l -0.20772,0.46921 -0.01,4.57285 c -0.01,2.5151 -0.0142,5.35427 -0.0212,6.30918 -0.01,0.95488 -0.01,3.88913 -0.01,6.52052 0,2.63139 0.01,5.8892 0,7.23987 0,1.35067 -1.8e-4,6.68594 0.01,11.85561 0.01,5.16967 0.0103,10.48584 0.0103,11.81322 0,1.32742 -8e-5,4.87109 0.0129,7.87498 0.018,5.89955 0.019,6.5541 0.032,17.7519 0,4.1052 0.0119,7.74899 0.0139,8.09665 l 10e-4,0.63201 0.19378,0.36793 c 0.32682,0.62016 0.79775,1.1557 1.38184,1.572 0.99349,0.70773 1.03336,0.71374 4.92477,0.71469 1.32739,2.9e-4 3.09976,0.007 3.93825,0.0139 2.48909,0.0218 5.15818,0.0307 9.82318,0.031 2.42189,2.1e-4 4.97528,0.0104 5.67407,0.0233 0.6989,0.0129 3.15669,0.0254 5.46219,0.0284 2.3055,0.003 5.69764,0.0147 7.53753,0.0264 1.83994,0.0117 5.95609,0.0336 9.14673,0.0491 3.19063,0.0154 7.01997,0.0369 8.51058,0.048 3.07438,0.023 3.4824,-9.8e-4 3.99048,-0.23717 h 0.004 c 1.01217,-0.47017 2.15493,-1.68206 2.34559,-2.48772 0.0404,-0.171 0.0777,-2.38741 0.0817,-4.9258 0.0142,-8.09741 0.008,-17.79326 -0.014,-21.67877 -0.0116,-2.07235 -0.0228,-5.92053 -0.0258,-8.55194 -0.002,-2.63141 -0.008,-7.01389 -0.0124,-9.73841 -0.02,-13.76802 -0.0238,-26.62158 -0.0103,-33.09774 l 0.0103,-4.60282 -0.29353,-0.55758 c -0.52456,-0.99563 -1.77519,-2.04706 -2.61019,-2.1947 -0.44011,-0.0778 -2.16628,-0.0939 -12.87362,-0.11834 -1.25757,-0.003 -2.80088,-0.0116 -3.42977,-0.0186 -0.62889,-0.007 -2.3822,-0.0131 -3.89588,-0.0129 -2.81824,4e-4 -12.30347,-0.0289 -15.79388,-0.0486 -1.0713,-0.006 -3.5292,-0.0179 -5.46219,-0.0269 -1.93299,-0.009 -5.24873,-0.026 -7.36804,-0.0367 -1.05968,-0.005 -2.28515,-0.007 -3.40545,-0.006 z m -4.0499,0.5085 h 5.3e-4 c 2.647,-0.0141 12.93948,0.0446 23.60888,0.13848 2.11971,0.0184 8.02341,0.0648 13.12272,0.10285 5.09911,0.038 11.67167,0.0878 14.60479,0.11213 l 5.19142,0.0419 0.42426,0.22739 c 0.5733,0.30675 1.35493,1.10074 1.58387,1.56424 l 0.18709,0.38034 0.0113,4.60592 c 0.009,3.78237 -0.002,12.61599 -0.0196,20.7052 -0.0178,8.08922 -0.044,15.49414 -0.0615,16.23674 -0.0207,0.88427 -0.0393,7.87691 -0.0455,15.6776 -0.006,8.12715 -0.02,14.33266 -0.0408,18.55081 -0.0104,2.10904 -0.0233,3.72223 -0.0372,4.82811 -0.007,0.55293 -0.013,0.97915 -0.0207,1.27537 -0.004,0.14812 -0.009,0.26408 -0.0124,0.34365 -0.004,0.0796 -0.0173,0.15964 -0.003,0.0827 -0.0654,0.34515 -0.41902,0.95379 -0.9126,1.40147 -0.69162,0.62725 -1.19348,0.88096 -1.8061,0.97099 -0.22447,0.033 -0.72691,0.0666 -1.15083,0.0796 -0.21196,0.007 -0.4087,0.009 -0.5452,0.006 -0.06,-0.001 -0.10112,-0.005 -0.1266,-0.007 -0.005,-0.002 -0.0155,-0.004 -0.0155,-0.004 -5.3e-4,-1.3e-4 -0.0479,-0.0105 -0.0605,-0.0124 -0.0249,-0.004 -0.0347,-0.005 -0.0449,-0.006 -0.0206,-0.002 -0.0347,-10e-4 -0.0506,-0.002 -0.0319,-0.002 -0.0696,-0.004 -0.11732,-0.005 -0.0954,-0.003 -0.23058,-0.006 -0.40256,-0.009 -0.34393,-0.006 -0.83508,-0.0117 -1.44124,-0.0181 -1.21229,-0.0127 -2.87816,-0.0255 -4.7067,-0.0362 -3.65498,-0.0216 -8.32527,-0.0541 -10.37301,-0.0713 -5.82637,-0.0488 -12.0563,-0.0927 -19.00711,-0.1323 -3.5156,-0.02 -9.19491,-0.0549 -12.61732,-0.078 l -6.09161,-0.0403 -0.4749,-0.22791 c -0.54531,-0.26202 -1.26918,-0.93972 -1.66037,-1.59628 l -0.216,-0.36121 -0.0238,-17.41239 c -0.024,-16.53715 0.034,-44.23045 0.12351,-58.63775 l 0.0398,-6.30452 0.26771,-0.52917 c 0.4581,-0.90784 1.63348,-1.76157 2.32389,-1.83451 -0.04,0.004 0.045,-0.002 0.1483,-0.003 0.10699,-9.7e-4 0.25781,-0.002 0.44751,-0.003 z m 3.82768,3.52692 c -0.23712,-5e-4 -0.44318,0.005 -0.56068,0.0165 l -0.42738,0.0419 -0.95393,3.84989 c -0.52491,2.11757 -1.16322,4.70334 -1.41801,5.74591 -0.25479,1.04254 -0.51147,2.04734 -0.56949,2.23242 l -0.10591,0.33639 -0.65683,0.0109 -0.0103,-5.2e-4 -0.6563,0.0103 -0.0191,0.89813 -0.0191,0.89762 1.75802,-0.016 c 0.96661,-0.009 2.01758,-0.0111 2.33577,-0.005 l 0.57878,0.0114 -0.0103,-0.86818 -0.01,-0.86815 -0.65579,-0.0388 c -0.4866,-0.0288 -0.65508,-0.0684 -0.65318,-0.15452 0,-0.13901 0.43304,-1.81419 0.47593,-1.85571 0.017,-0.0159 0.88392,-0.0211 1.92702,-0.0113 l 1.896,0.0176 0.22016,0.9312 c 0.1211,0.51197 0.21992,0.95883 0.22013,0.99372 1.1e-4,0.0349 -0.28302,0.0575 -0.62941,0.0501 -0.3464,-0.007 -0.65376,0.0237 -0.68266,0.0687 -0.025,0.0451 -0.0308,0.45453 -0.01,0.91001 l 0.0398,0.82838 2.21176,0.0227 c 1.2165,0.0127 2.2497,0.0113 2.29701,-0.004 0.048,-0.0163 0.082,-0.38119 0.078,-0.9374 l -0.01,-0.91053 -0.66765,0.0434 -0.66768,0.0444 -0.0847,-0.32504 c -0.047,-0.1786 -0.66185,-2.68084 -1.36734,-5.56038 -0.70561,-2.87957 -1.34884,-5.48486 -1.42835,-5.78932 l -0.14467,-0.55346 -0.87231,-0.0439 c -0.2422,-0.0124 -0.51064,-0.0191 -0.74776,-0.0196 z m 0.30747,2.46187 c 0.004,-0.002 0.009,-9.5e-4 0.0134,5e-4 0.078,0.0378 0.19965,0.56722 0.54726,2.03245 0.23879,1.0065 0.54248,2.28164 0.67488,2.83393 0.13271,0.55232 0.22608,1.01804 0.20878,1.03507 -0.018,0.017 -0.6712,0.0449 -1.45158,0.062 l -1.41904,0.0305 0.015,-0.20206 c 0.01,-0.11134 0.27392,-1.26428 0.59531,-2.56159 0.32142,-1.2973 0.63736,-2.5858 0.70126,-2.8639 0.0472,-0.20545 0.077,-0.34941 0.11472,-0.3669 z m 7.03109,10.15339 5.3e-4,2.29647 v 4.24471 c 10e-4,1.0713 1.8e-4,3.72015 0,5.88595 0,2.1658 -7.2e-4,4.71861 0,5.67357 0,0.95493 -3.5e-4,2.9941 -0.0103,4.53099 -0.01,1.53688 -0.0119,5.29026 -0.0108,8.34109 0,3.05083 2e-5,6.59514 0.001,7.87599 -0.001,1.28087 -1.9e-4,3.796 0.01,5.58932 0.01,1.79334 0.0101,4.42256 10e-4,5.84306 -0.01,2.59926 0.0239,4.59036 0.0749,4.64727 0.039,0.0435 1.50016,0.0559 8.80205,0.0739 3.5397,0.009 7.63611,0.021 9.10333,0.0269 1.46698,0.006 3.35349,0.007 4.19198,0.003 0.83849,-0.005 3.23887,0.003 5.33456,0.0165 2.09571,0.0134 3.95311,0.0202 4.12792,0.016 0.1747,-0.005 0.56795,-0.01 0.87384,-0.0103 0.48601,-0.002 0.552,-0.0201 0.51779,-0.15039 -0.021,-0.082 -0.0301,-1.80697 -0.0191,-3.83283 0.011,-2.02589 0.01,-3.70232 0,-3.72586 -0.014,-0.0236 -0.014,-1.58602 0,-3.47216 0.011,-1.88613 0.0112,-3.81071 -5.2e-4,-4.27672 -0.012,-0.46604 -0.0102,-2.42888 0.01,-4.3615 0.015,-1.93262 0.015,-3.64725 0,-3.81063 -0.016,-0.16336 -0.0198,-1.93321 -0.01,-3.93309 0.012,-1.9999 0.012,-3.75325 0,-3.89588 -0.011,-0.14267 -0.012,-0.89601 0,-1.67431 0.024,-1.39375 0.0221,-1.41444 -0.1514,-1.35446 -0.17251,0.0596 -0.17674,0.10951 -0.20775,2.17353 -0.018,1.16186 -0.0229,2.24591 -0.0129,2.40914 0.01,0.16324 0.012,1.72619 0,3.47265 -0.01,1.74649 -0.01,3.72782 0,4.40336 0.013,1.20073 0.01,3.38351 -0.016,8.6801 -0.01,1.44375 -0.01,3.23475 0,3.9801 0.01,0.74536 0.01,2.38414 0.01,3.64165 0,1.25754 -1.6e-4,2.9595 0.01,3.78169 0.01,0.82219 -0.0158,1.51238 -0.0548,1.53426 -0.039,0.0218 -1.38515,0.0357 -2.99207,0.0305 -1.60668,-0.005 -3.72134,-0.008 -4.69945,-0.007 -0.97819,0.002 -3.03593,-0.004 -4.57285,-0.0124 -1.53688,-0.008 -3.65135,-0.0154 -4.69945,-0.0155 -3.25429,-6.4e-4 -6.04033,-0.006 -8.63822,-0.015 -1.3739,-0.005 -3.40249,-0.007 -4.50879,-0.004 -1.6319,0.004 -2.01776,-0.0166 -2.04586,-0.10853 -0.019,-0.0624 -0.032,-2.17141 -0.03,-4.68654 v -14.05755 c 0,-4.20412 5.3e-4,-9.83646 0.01,-12.19459 v -3.89588 -3.93774 -3.76825 c -0.023,-2.93831 0.0104,-11.56195 0.0434,-11.59103 0.02,-0.017 1.63603,-0.021 3.59204,-0.009 1.95599,0.012 4.29903,0.0197 5.20742,0.017 1.7684,-0.005 4.67604,5e-4 8.76486,0.0166 1.39718,0.005 4.52247,0.0154 6.94428,0.0222 2.42189,0.007 5.14577,0.0179 6.05387,0.0248 l 1.65159,0.0129 v 0.38087 c -5.1e-4,0.20957 -0.0104,1.82896 -0.0134,3.59873 -0.013,3.30425 -0.012,5.71013 0,8.38398 v 4.53099 c -0.01,1.65336 1.3e-4,3.03141 0.0191,3.06234 0.017,0.0308 0.11131,0.0369 0.20981,0.0134 0.17359,-0.0416 0.17833,-0.0745 0.15502,-1.28053 -0.013,-0.68064 -0.0154,-2.51404 -0.0104,-4.07419 0.01,-1.56014 0.0133,-3.54155 0.0104,-4.40332 -0.01,-1.65264 -0.0104,-3.79781 -0.0104,-8.03466 l 0.003,-2.57246 -3.44065,-0.0191 c -1.89208,-0.0103 -3.97385,-0.0122 -4.62605,-0.004 -0.6522,0.008 -2.42414,0.008 -3.93774,5.3e-4 -1.5136,-0.008 -3.64786,-0.0156 -4.74237,-0.0176 -1.09458,-0.002 -3.11356,-0.008 -4.48757,-0.0119 -2.45951,-0.008 -3.88043,-0.0101 -9.13122,-0.0145 z m -7.16079,4.45759 c -0.69191,-0.0199 -1.29461,0.18359 -1.73117,0.5855 -0.57801,0.53221 -0.75102,0.92077 -0.7679,1.71463 -0.016,0.82841 0.17537,1.30487 0.78184,1.93786 0.22511,0.23498 0.38677,0.44881 0.35918,0.47543 -0.028,0.0266 -0.26146,-0.0229 -0.51935,-0.11007 -1.4686,-0.49665 -2.97493,0.2607 -3.38844,1.70326 -0.12049,0.42029 -0.0391,1.13212 0.18502,1.61642 0.38238,0.82571 1.13734,1.33135 2.03605,1.36324 1.24759,0.0442 2.27078,-0.70636 2.47219,-1.81333 0.034,-0.18986 0.10183,-0.34467 0.14882,-0.34366 0.13841,0.003 -0.0354,1.43102 -0.28368,2.32698 -0.12171,0.44027 -0.40183,1.16287 -0.62323,1.6056 -0.2214,0.44273 -0.40373,0.83672 -0.40463,0.87593 -7.9e-4,0.0392 0.10449,0.0333 0.23358,-0.0129 0.36359,-0.13025 1.95133,-0.15028 2.51354,-0.032 0.52951,0.11149 0.63246,0.0939 0.49506,-0.0832 -0.4164,-0.5362 -1.08789,-2.43086 -1.26039,-3.55483 -0.14169,-0.9071 -0.13661,-1.11395 0.0243,-1.11051 0.07,9.8e-4 0.12499,0.0776 0.12301,0.16896 -0.01,0.30819 0.31464,1.07807 0.54414,1.30432 0.6722,0.66265 1.81359,0.88884 2.65049,0.52557 0.6404,-0.27795 0.96885,-0.57127 1.25005,-1.11623 0.46059,-0.89283 0.27797,-2.09521 -0.42582,-2.8086 -0.70069,-0.7103 -1.85417,-0.95959 -2.73627,-0.59172 -0.2219,0.0925 -0.43648,0.16727 -0.47749,0.1664 -0.16319,-0.003 -0.0538,-0.22519 0.21138,-0.42736 0.76239,-0.58211 1.09627,-1.95609 0.69659,-2.86803 -0.3956,-0.90275 -1.19285,-1.47029 -2.10479,-1.49759 z m 24.93645,18.61592 c -0.0137,-0.0131 -0.2885,0.0151 -0.61235,0.0636 -0.41831,0.0626 -0.76637,0.0612 -1.19788,-0.007 -0.33438,-0.0526 -0.60856,-0.0709 -0.60925,-0.0398 -6.9e-4,0.0311 0.14218,0.38037 0.31729,0.77568 0.39671,0.89604 0.66003,1.92141 0.61391,2.39366 l -0.0346,0.36018 -0.0904,-0.31729 c -0.1433,-0.50197 -0.42445,-0.84077 -0.88575,-1.06765 -0.7039,-0.34626 -1.37835,-0.27217 -1.97456,0.21654 -0.1914,0.15682 -0.41489,0.40926 -0.49609,0.56121 h -10e-4 c -0.10621,0.19801 -0.14423,0.43703 -0.13383,0.84439 0.019,0.74017 0.30163,1.19837 0.95652,1.54821 0.51139,0.27318 0.88458,0.30882 1.48828,0.14107 0.22781,-0.0633 0.43273,-0.0962 0.45424,-0.0734 0.022,0.0227 -0.08,0.16148 -0.22582,0.30904 -0.42122,0.42523 -0.58902,0.79666 -0.601,1.36218 -0.028,0.99745 0.65008,1.75545 1.64536,1.8402 1.1199,0.0953 1.95953,-0.62976 1.98284,-1.72032 0.013,-0.53909 -0.24889,-1.17613 -0.61597,-1.4986 -0.32171,-0.28276 -0.28406,-0.38449 0.0883,-0.24238 0.74742,0.28485 1.48431,0.13424 2.06499,-0.4222 0.33751,-0.32335 0.43209,-0.48043 0.52039,-0.86556 0.1538,-0.669 0.0319,-1.09551 -0.45837,-1.60716 -0.6236,-0.65077 -1.46172,-0.7756 -2.25102,-0.33536 -0.39899,0.22249 -0.61667,0.49594 -0.79738,1.00098 -0.1171,0.32763 -0.11898,0.31723 -0.0677,-0.33849 0.065,-0.83351 0.25694,-1.50804 0.64596,-2.27274 0.1637,-0.32189 0.28726,-0.59547 0.2749,-0.60926 z m 24.17733,15.58976 c -0.0928,2.1e-4 -0.28829,0.0232 -0.50384,0.0605 -0.3324,0.0579 -0.9356,0.0673 -1.65828,0.0243 l -1.13585,-0.0677 0.15036,0.22479 c 0.13811,0.20663 0.53676,1.10688 0.85217,1.92547 0.1678,0.43546 0.43159,1.89672 0.42219,2.33837 -0.01,0.43391 -0.14589,0.45024 -0.20878,0.0248 -0.1315,-0.88855 -0.83688,-1.62843 -1.75339,-1.83918 -1.1338,-0.26072 -2.27656,0.28763 -2.77916,1.3343 -0.10919,0.22743 -0.16772,0.53835 -0.17621,0.93379 -0.03,1.39034 1.01142,2.43983 2.4417,2.46134 0.52491,0.008 0.79749,-0.0445 1.33999,-0.26096 0.26569,-0.10604 0.16235,0.1605 -0.18915,0.48938 -1.53959,1.44049 -0.72356,4.06371 1.33585,4.29482 1.671,0.18756 3.06753,-1.36395 2.64583,-2.93934 -0.1575,-0.58819 -0.4024,-1.00105 -0.84801,-1.42835 -0.18841,-0.18058 -0.34205,-0.36457 -0.34108,-0.40926 0,-0.10358 -0.029,-0.11025 0.48578,0.0982 1.1906,0.48186 2.65266,0.006 3.23596,-1.05264 0.20571,-0.37304 0.24506,-0.54279 0.25736,-1.11723 0.012,-0.56833 -0.0203,-0.74565 -0.2,-1.10485 -0.3919,-0.78279 -1.06677,-1.24404 -1.95387,-1.33429 -0.74832,-0.0762 -1.30474,0.11676 -1.87484,0.64958 -0.43759,0.40896 -0.52646,0.57912 -0.70175,1.34151 -0.041,0.17865 -0.0809,0.21805 -0.14832,0.1478 -0.117,-0.122 0.0581,-1.39237 0.31628,-2.29494 0.19658,-0.68784 0.62807,-1.72241 0.90588,-2.17094 0.096,-0.15581 0.15899,-0.30038 0.13848,-0.32141 -0.005,-0.005 -0.0244,-0.008 -0.0553,-0.008 z m 3.83183,14.94223 -0.64855,0.0413 c -0.35681,0.0226 -1.38686,0.0249 -2.28928,0.006 l -1.6407,-0.0346 v 0.90382 l 0.01,0.90382 0.60616,-0.007 c 0.33311,-0.004 0.62323,0.0247 0.64543,0.0631 0.022,0.0384 -0.0681,0.49329 -0.19997,1.01078 l -0.24083,0.94105 -0.5121,0.0217 c -0.2817,0.0116 -1.14366,0.0167 -1.91616,0.0119 l -1.40457,-0.009 -0.23151,-0.98444 c -0.127,-0.54147 -0.21368,-1.00263 -0.19016,-1.02473 0.023,-0.0221 0.32171,-0.0342 0.66299,-0.0269 l 0.62117,0.0134 0.0186,-0.88934 0.0191,-0.88884 -1.24849,-0.0264 c -0.6867,-0.0146 -1.73961,-0.0122 -2.33992,0.006 l -5e-4,5.1e-4 -1.09141,0.032 0.0413,0.55914 c 0.023,0.30737 0.0376,0.70183 0.0346,0.87643 l -0.01,0.31729 0.65939,0.0139 0.6599,0.0145 0.13642,0.57414 c 0.23651,0.99076 1.43891,5.84769 1.97302,7.97058 0.28131,1.11797 0.58899,2.38252 0.68419,2.80963 l 0.17261,0.77618 1.32342,0.0517 c 1.31591,0.0513 1.32387,0.0511 1.37099,-0.13952 0.026,-0.10541 0.19526,-0.79909 0.37515,-1.54048 0.18,-0.74139 0.57455,-2.33323 0.87697,-3.53777 0.3026,-1.20457 0.81073,-3.26073 1.12913,-4.56975 l 0.57928,-2.38022 0.66043,0.014 0.66042,0.0139 0.0202,-0.9431 z m -7.14893,5.63894 1.44695,0.006 c 0.79658,0.003 1.4615,0.0282 1.4769,0.0553 0.016,0.0271 -0.026,0.25468 -0.093,0.50593 -0.068,0.25122 -0.38603,1.54662 -0.70692,2.87888 -0.32091,1.33226 -0.60825,2.42223 -0.63923,2.42157 -0.056,-10e-4 -0.40217,-1.32633 -1.04645,-4.00288 -0.1859,-0.77248 -0.36079,-1.50799 -0.3881,-1.63451 z" />
  </g>
</svg>
