<?xml version="1.0" encoding="UTF-8" standalone="no"?>
<svg
   sodipodi:docname="AD.svg"
   id="svg8"
   version="1.1"
   viewBox="0 0 63.102478 88.347832"
   height="88.347832mm"
   width="63.102478mm"
   inkscape:version="1.1.1 (1:1.1+202109281949+c3084ef5ed)"
   inkscape:export-filename="/home/doug/k40/52Cards/AD.png"
   inkscape:export-xdpi="96"
   inkscape:export-ydpi="96"
   xmlns:inkscape="http://www.inkscape.org/namespaces/inkscape"
   xmlns:sodipodi="http://sodipodi.sourceforge.net/DTD/sodipodi-0.dtd"
   xmlns="http://www.w3.org/2000/svg"
   xmlns:svg="http://www.w3.org/2000/svg"
   xmlns:rdf="http://www.w3.org/1999/02/22-rdf-syntax-ns#"
   xmlns:cc="http://creativecommons.org/ns#"
   xmlns:dc="http://purl.org/dc/elements/1.1/">
  <defs
     id="defs2">
    <marker
       style="overflow:visible"
       id="marker2995"
       refX="0"
       refY="0"
       orient="auto"
       inkscape:stockid="Arrow1Lstart"
       inkscape:isstock="true">
      <path
         transform="matrix(0.8,0,0,0.8,10,0)"
         style="fill:#000000;fill-opacity:1;fill-rule:evenodd;stroke:#000000;stroke-width:1pt;stroke-opacity:1"
         d="M 0,0 5,-5 -12.5,0 5,5 Z"
         id="path2993" />
    </marker>
    <marker
       style="overflow:visible"
       id="marker2985"
       refX="0"
       refY="0"
       orient="auto"
       inkscape:stockid="Arrow1Lstart"
       inkscape:isstock="true">
      <path
         transform="matrix(0.8,0,0,0.8,10,0)"
         style="fill:#000000;fill-opacity:1;fill-rule:evenodd;stroke:#000000;stroke-width:1pt;stroke-opacity:1"
         d="M 0,0 5,-5 -12.5,0 5,5 Z"
         id="path2983" />
    </marker>
    <marker
       style="overflow:visible"
       id="marker2791"
       refX="0"
       refY="0"
       orient="auto"
       inkscape:stockid="Arrow1Lstart"
       inkscape:isstock="true">
      <path
         transform="matrix(0.8,0,0,0.8,10,0)"
         style="fill:#000000;fill-opacity:1;fill-rule:evenodd;stroke:#000000;stroke-width:1pt;stroke-opacity:1"
         d="M 0,0 5,-5 -12.5,0 5,5 Z"
         id="path2789" />
    </marker>
    <marker
       style="overflow:visible"
       id="marker2781"
       refX="0"
       refY="0"
       orient="auto"
       inkscape:stockid="Arrow1Lstart"
       inkscape:isstock="true">
      <path
         transform="matrix(0.8,0,0,0.8,10,0)"
         style="fill:#000000;fill-opacity:1;fill-rule:evenodd;stroke:#000000;stroke-width:1pt;stroke-opacity:1"
         d="M 0,0 5,-5 -12.5,0 5,5 Z"
         id="path2779" />
    </marker>
    <marker
       style="overflow:visible"
       id="marker2417"
       refX="0"
       refY="0"
       orient="auto"
       inkscape:stockid="Arrow1Lstart"
       inkscape:isstock="true">
      <path
         transform="matrix(0.8,0,0,0.8,10,0)"
         style="fill:#000000;fill-opacity:1;fill-rule:evenodd;stroke:#000000;stroke-width:1pt;stroke-opacity:1"
         d="M 0,0 5,-5 -12.5,0 5,5 Z"
         id="path2415" />
    </marker>
    <marker
       style="overflow:visible"
       id="marker2383"
       refX="0"
       refY="0"
       orient="auto"
       inkscape:stockid="Arrow1Lstart"
       inkscape:isstock="true">
      <path
         transform="matrix(0.8,0,0,0.8,10,0)"
         style="fill:#000000;fill-opacity:1;fill-rule:evenodd;stroke:#000000;stroke-width:1pt;stroke-opacity:1"
         d="M 0,0 5,-5 -12.5,0 5,5 Z"
         id="path2381" />
    </marker>
    <marker
       style="overflow:visible"
       id="marker2355"
       refX="0"
       refY="0"
       orient="auto"
       inkscape:stockid="Arrow1Lstart"
       inkscape:isstock="true">
      <path
         transform="matrix(0.8,0,0,0.8,10,0)"
         style="fill:#000000;fill-opacity:1;fill-rule:evenodd;stroke:#000000;stroke-width:1pt;stroke-opacity:1"
         d="M 0,0 5,-5 -12.5,0 5,5 Z"
         id="path2353" />
    </marker>
    <marker
       style="overflow:visible"
       id="Arrow1Lstart"
       refX="0"
       refY="0"
       orient="auto"
       inkscape:stockid="Arrow1Lstart"
       inkscape:isstock="true">
      <path
         transform="matrix(0.8,0,0,0.8,10,0)"
         style="fill:#000000;fill-opacity:1;fill-rule:evenodd;stroke:#000000;stroke-width:1pt;stroke-opacity:1"
         d="M 0,0 5,-5 -12.5,0 5,5 Z"
         id="path2071" />
    </marker>
  </defs>
  <sodipodi:namedview
     id="base"
     pagecolor="#ffffff"
     bordercolor="#666666"
     borderopacity="1.0"
     inkscape:pageopacity="0.0"
     inkscape:pageshadow="2"
     inkscape:zoom="1.5033853"
     inkscape:cx="17.959468"
     inkscape:cy="166.62395"
     inkscape:document-units="mm"
     inkscape:current-layer="layer1"
     inkscape:document-rotation="0"
     showgrid="false"
     inkscape:snap-smooth-nodes="false"
     inkscape:object-nodes="false"
     inkscape:window-width="1366"
     inkscape:window-height="712"
     inkscape:window-x="0"
     inkscape:window-y="0"
     inkscape:window-maximized="1"
     inkscape:object-paths="false"
     inkscape:snap-intersection-paths="false"
     inkscape:snap-midpoints="false"
     inkscape:snap-others="false"
     inkscape:pagecheckerboard="0"
     showguides="true"
     inkscape:guide-bbox="true"
     inkscape:snap-bbox="true"
     showborder="false"
     fit-margin-top="0"
     fit-margin-left="0"
     fit-margin-right="0"
     fit-margin-bottom="0" />
  <metadata
     id="metadata5">
    <rdf:RDF>
      <cc:Work
         rdf:about="">
        <dc:format>image/svg+xml</dc:format>
        <dc:type
           rdf:resource="http://purl.org/dc/dcmitype/StillImage" />
      </cc:Work>
    </rdf:RDF>
  </metadata>
  <g
     inkscape:label="Layer 1"
     inkscape:groupmode="layer"
     id="layer1"
     transform="translate(746.32786,596.89995)">
    <path
       style="fill:#000000;stroke-width:0.0846667"
       id="path389"
       d="" />
    <path
       id="path6742-7-6-2"
       style="fill:#000000;fill-opacity:1;stroke:none;stroke-width:0.264999;stroke-miterlimit:4;stroke-dasharray:none;stroke-opacity:1"
       d="m -738.41767,-596.8994 0.004,5.3e-4 c -1.1203,9.8e-4 -2.13585,0.005 -2.77603,0.0124 l -2.32855,0.0258 -0.57774,0.2961 c -0.74232,0.37983 -1.68913,1.33262 -1.98284,1.99522 l -0.20773,0.46924 -0.0103,4.57284 c -0.01,2.51511 -0.0137,5.35427 -0.0207,6.30918 -0.01,0.95488 -0.0103,3.88914 -0.0103,6.52052 0,2.63139 0.01,5.88921 0,7.23988 0,1.35067 3.4e-4,6.68594 0.0103,11.85561 0.01,5.16966 0.01,10.48583 0.01,11.81322 0,1.32741 -8e-5,4.87108 0.0129,7.87498 0.018,5.89954 0.019,6.5541 0.032,17.7519 0,4.10519 0.012,7.74898 0.014,8.09664 l 10e-4,0.63201 0.19378,0.36793 c 0.32679,0.62016 0.79772,1.1557 1.38182,1.572 0.99351,0.70773 1.03338,0.71374 4.92477,0.71469 1.32741,2.9e-4 3.09978,0.007 3.93827,0.014 2.48909,0.0218 5.15818,0.0307 9.82316,0.031 2.42191,2.2e-4 4.97527,0.0105 5.67409,0.0233 0.6989,0.0129 3.15669,0.0249 5.46219,0.0279 2.3055,0.003 5.69762,0.0147 7.53753,0.0263 1.83994,0.0117 5.95609,0.0336 9.14673,0.0491 3.19063,0.0154 7.01997,0.0369 8.51058,0.0481 3.07438,0.023 3.48237,-10e-4 3.99045,-0.2372 h 0.004 c 1.01217,-0.47016 2.15493,-1.68206 2.34559,-2.48771 0.0404,-0.171 0.0777,-2.38739 0.0817,-4.92578 0.0142,-8.09744 0.008,-17.79328 -0.014,-21.67879 -0.0116,-2.07235 -0.0229,-5.92053 -0.0258,-8.55194 -0.002,-2.63139 -0.008,-7.01387 -0.0124,-9.73842 -0.02,-13.76801 -0.0233,-26.62158 -0.01,-33.09771 l 0.01,-4.60282 -0.29353,-0.55761 c -0.52454,-0.99563 -1.77517,-2.04705 -2.61017,-2.19469 -0.44011,-0.0778 -2.1663,-0.0934 -12.87362,-0.11782 -1.25756,-0.003 -2.80088,-0.0116 -3.42977,-0.0186 -0.62889,-0.007 -2.3822,-0.0131 -3.89588,-0.0129 -2.81826,4e-4 -12.30347,-0.0289 -15.79388,-0.0486 -1.0713,-0.006 -3.5292,-0.0184 -5.46219,-0.0274 -1.93302,-0.009 -5.24873,-0.026 -7.36804,-0.0367 -1.05971,-0.005 -2.28518,-0.007 -3.40548,-0.006 z m -4.04987,0.50797 5.1e-4,5.3e-4 c 2.64699,-0.0141 12.9395,0.0446 23.6089,0.13849 2.11971,0.0184 8.02338,0.0648 13.12272,0.10284 5.09908,0.038 11.67167,0.0878 14.60479,0.11213 l 5.19142,0.0419 0.42426,0.22738 c 0.5733,0.30676 1.35493,1.10075 1.58387,1.56424 l 0.18706,0.38034 0.0114,4.60592 c 0.009,3.78238 -0.002,12.616 -0.0191,20.70521 -0.0178,8.08921 -0.044,15.4941 -0.0615,16.23674 -0.0207,0.88426 -0.0398,7.87688 -0.046,15.67759 -0.006,8.12715 -0.0195,14.33266 -0.0403,18.55078 -0.0104,2.10908 -0.0233,3.72227 -0.0372,4.82815 -0.007,0.55292 -0.0135,0.97914 -0.0212,1.27537 -0.004,0.14811 -0.009,0.26408 -0.0124,0.34364 -0.004,0.0796 -0.0168,0.15912 -0.003,0.0822 -0.0654,0.34512 -0.41899,0.95379 -0.9126,1.40147 -0.69162,0.62722 -1.19348,0.88093 -1.8061,0.97099 -0.22447,0.033 -0.72691,0.0666 -1.15083,0.0796 -0.21195,0.007 -0.40867,0.009 -0.54517,0.006 -0.06,-0.001 -0.10115,-0.005 -0.12663,-0.007 -0.005,-0.002 -0.0155,-0.004 -0.0155,-0.004 -5.5e-4,-1.4e-4 -0.048,-0.0105 -0.0605,-0.0124 -0.0249,-0.004 -0.0352,-0.005 -0.0455,-0.006 -0.0206,-0.002 -0.0342,-0.001 -0.0501,-0.002 -0.0319,-0.002 -0.0696,-0.004 -0.11729,-0.005 -0.0954,-0.003 -0.23061,-0.006 -0.40256,-0.009 -0.34396,-0.006 -0.8351,-0.0117 -1.44126,-0.0181 -1.2123,-0.0127 -2.87814,-0.0255 -4.7067,-0.0362 -3.65498,-0.0216 -8.32528,-0.0541 -10.37299,-0.0713 -5.82639,-0.0488 -12.05632,-0.0927 -19.00711,-0.13229 -3.5156,-0.02 -9.19494,-0.0549 -12.61732,-0.078 l -6.09164,-0.0403 -0.4749,-0.22789 c -0.5453,-0.26201 -1.26968,-0.93972 -1.66087,-1.59628 l -0.2155,-0.36121 -0.0243,-17.41239 c -0.024,-16.53714 0.034,-44.23045 0.12351,-58.63775 l 0.0398,-6.30452 0.26768,-0.52916 c 0.4581,-0.90784 1.63402,-1.7616 2.32442,-1.83452 -0.04,0.004 0.0445,-0.002 0.1478,-0.003 0.10699,-9.8e-4 0.25781,-0.002 0.44751,-0.003 z m 2.97657,3.44734 -0.16899,0.74467 c -0.093,0.40949 -0.37222,1.50807 -0.62011,2.44171 -0.24791,0.93363 -0.6563,2.51822 -0.90744,3.52173 -0.25117,1.00354 -0.65857,2.62737 -0.90538,3.60754 -0.24685,0.98021 -0.44926,1.79142 -0.44958,1.80301 1.1e-4,0.0111 -0.30355,0.024 -0.67439,0.0274 l -0.67437,0.006 -0.017,0.82629 c -0.009,0.45413 0.003,0.85016 0.0263,0.88006 0.0236,0.0298 1.06196,0.0717 2.30785,0.093 l 2.2655,0.0388 -0.008,-0.89709 -0.008,-0.8971 -0.6351,0.006 c -0.75444,0.007 -0.7369,0.0527 -0.43358,-1.1307 0.11248,-0.4386 0.20386,-0.8206 0.20363,-0.84852 -2.7e-4,-0.028 0.87497,-0.0584 1.94508,-0.0682 l 1.94614,-0.0176 0.0455,0.18965 c 0.0251,0.10454 0.12422,0.51303 0.22063,0.90794 0.26585,1.08927 0.28909,1.03765 -0.44802,1.00717 l -0.62735,-0.0258 -0.0512,0.82114 c -0.0287,0.45169 -0.0281,0.85915 10e-4,0.90537 0.0336,0.0532 0.88403,0.0711 2.3151,0.048 l 2.2624,-0.0356 0.0207,-0.86301 0.0212,-0.8635 -0.65371,0.006 c -0.35954,0.003 -0.68188,-0.0243 -0.71622,-0.0615 -0.0343,-0.0372 -0.20609,-0.69567 -0.3819,-1.46245 -0.17574,-0.76677 -0.4789,-2.03994 -0.67384,-2.8298 -0.19495,-0.78989 -0.38804,-1.58867 -0.42892,-1.77456 -0.081,-0.36764 -0.61516,-2.58567 -1.13948,-4.73099 l -0.33073,-1.35133 -1.31413,-0.0114 z m 1.31257,2.39107 c 0.005,-0.003 0.009,-0.003 0.0134,0 0.0172,0.0118 0.0332,0.0702 0.0594,0.18293 0.0323,0.13941 0.17434,0.70958 0.31523,1.26711 0.33107,1.30988 1.05426,4.39651 1.05524,4.50361 6.8e-4,0.0777 -2.60292,0.0745 -2.85772,-0.003 -0.12245,-0.0375 -0.1229,-0.0298 0.0228,-0.58912 0.0608,-0.23339 0.37216,-1.47441 0.69194,-2.75796 0.31974,-1.28355 0.61155,-2.41028 0.64801,-2.50373 0.0222,-0.0569 0.0378,-0.0911 0.0517,-0.0997 z m 7.00733,10.21643 -0.0212,3.71502 c -0.0114,2.04327 -0.0266,5.08687 -0.0336,6.76341 -0.0191,4.56059 -0.0408,8.66904 -0.0615,11.55795 -0.0103,1.42041 -0.0271,3.74465 -0.0372,5.16506 -0.01,1.42044 -0.02,4.67858 -0.0227,7.23988 -0.003,2.56129 -0.0184,4.84732 -0.0351,5.08031 -0.0167,0.233 -0.0317,3.0525 -0.0331,6.26576 -10e-4,3.21323 -0.0115,5.85258 -0.0228,5.86528 -0.0113,0.0128 -0.0209,0.76565 -0.0227,1.67275 l -0.002,1.64902 0.23823,0.004 c 0.13078,0.002 0.46667,0.0141 0.7462,0.0258 0.27951,0.0118 2.50825,0.0282 4.95319,0.0367 2.44496,0.009 4.88365,0.0274 5.4193,0.0419 0.53568,0.0144 2.55543,0.0328 4.4881,0.0408 1.93268,0.008 4.38997,0.0253 5.46116,0.0377 1.07119,0.0124 3.24316,0.03 4.82658,0.0398 1.58343,0.01 3.77899,0.0324 4.87929,0.0506 l 2.00091,0.0336 0.0351,-1.97869 c 0.0193,-1.08821 0.0391,-3.6168 0.0439,-5.6193 0.0113,-4.70093 0.0327,-9.27635 0.0574,-12.36255 0.0108,-1.35059 0.0226,-4.22691 0.0263,-6.39239 0.004,-2.16545 0.0187,-4.71876 0.032,-5.67354 0.0134,-0.9548 0.0267,-3.62212 0.03,-5.9273 0.003,-2.30515 0.0165,-5.08656 0.029,-6.18101 0.0125,-1.0945 0.0285,-3.97505 0.0357,-6.40167 l 0.0134,-4.41267 -0.49763,-0.0444 c -0.27366,-0.0245 -1.03066,-0.0428 -1.68259,-0.0408 -0.65196,0.002 -4.36706,-0.022 -8.25582,-0.0537 -3.88877,-0.0317 -8.49948,-0.0656 -10.24589,-0.0749 -1.74641,-0.009 -3.97563,-0.0277 -4.95371,-0.0413 -0.97806,-0.0136 -3.04049,-0.0372 -4.58317,-0.0527 z m 0.43151,0.41754 4.24211,0.0171 c 2.33302,0.009 4.81312,0.0288 5.5118,0.0439 0.69866,0.015 2.92791,0.0325 4.95369,0.0388 2.02581,0.006 4.31181,0.0241 5.08032,0.0393 0.76853,0.0152 2.86411,0.035 4.65709,0.0439 5.14138,0.0258 7.64831,0.0621 7.73028,0.11163 0.0421,0.0255 0.059,0.55809 0.0377,1.20097 -0.021,0.63524 -0.0409,3.05985 -0.0439,5.38829 -0.006,4.4064 -0.0235,8.29413 -0.0563,12.40494 -0.0106,1.32731 -0.0263,3.89914 -0.0351,5.7154 -0.009,1.81626 -0.0291,5.76 -0.0454,8.76382 -0.0164,3.00384 -0.037,7.25196 -0.0455,9.44075 -0.0251,6.39133 -0.0721,11.21765 -0.11007,11.24429 -0.0194,0.0137 -1.44513,0.0106 -3.16828,-0.004 -1.72321,-0.0159 -4.56224,-0.0399 -6.30867,-0.0532 -5.35583,-0.0409 -12.60589,-0.10242 -17.27388,-0.14676 -2.44507,-0.0232 -4.66741,-0.0406 -4.93871,-0.0382 l -0.49353,0.005 -0.002,-2.62567 c -9.8e-4,-1.44436 0.005,-2.63488 0.0134,-2.64583 0.008,-0.011 0.0209,-2.61123 0.0279,-5.77795 0.007,-3.16674 0.0189,-6.02448 0.0274,-6.35053 0.008,-0.32604 0.0218,-2.61212 0.029,-5.08029 0.007,-2.46822 0.0223,-5.51629 0.0336,-6.77375 0.0264,-2.92751 0.0846,-11.85323 0.10387,-15.96131 0.008,-1.74638 0.0278,-4.48604 0.0439,-6.08748 z m -7.50965,4.07263 c -0.0315,2.9e-4 -0.37348,0.56615 -0.76067,1.25573 -1.03138,1.83714 -2.19962,3.45065 -3.30986,4.57182 -0.51626,0.52136 -0.94348,0.96284 -0.95033,0.98081 -0.007,0.0181 0.24746,0.30189 0.5648,0.63098 0.83418,0.86503 1.58986,1.80842 2.30066,2.87425 0.70533,1.05772 0.74811,1.1295 1.49551,2.51819 0.29927,0.55608 0.55253,1.02272 0.56327,1.03662 0.0107,0.0139 0.22865,-0.37479 0.48421,-0.86403 1.03555,-1.98255 2.34455,-3.84151 3.64681,-5.1785 l 0.88365,-0.90691 -0.79478,-0.82942 c -0.43704,-0.45617 -0.95697,-1.03875 -1.15549,-1.29447 -0.90014,-1.15965 -2.14802,-3.16466 -2.68406,-4.31242 -0.12452,-0.26662 -0.25223,-0.48377 -0.28372,-0.48265 z m 23.47196,18.21182 c -0.0204,-0.004 -0.037,0.006 -0.0512,0.031 -0.041,0.0702 -0.34096,0.58698 -0.66664,1.14877 -0.72326,1.24767 -1.54861,2.37366 -2.28047,3.10939 -0.3025,0.30408 -0.55052,0.56856 -0.55036,0.58756 1.9e-4,0.019 0.24757,0.29104 0.54933,0.60512 0.87458,0.91033 1.74675,2.16453 2.50166,3.59823 0.22373,0.425 0.43471,0.77288 0.46871,0.77256 0.034,-2.9e-4 0.11136,-0.12507 0.17206,-0.27697 0.18666,-0.46717 1.33641,-2.37498 1.57768,-2.61794 0.0233,-0.0235 0.19934,-0.25702 0.39069,-0.51935 0.19134,-0.26231 0.59182,-0.70427 0.89037,-0.98132 l 0.54261,-0.50334 -0.62426,-0.65164 c -0.90366,-0.94322 -1.77514,-2.22258 -2.58432,-3.79304 -0.17782,-0.3451 -0.27477,-0.49604 -0.33591,-0.50901 z m 23.50865,14.13918 c -0.0126,0.0157 -0.1855,0.35374 -0.38396,0.75136 -1.01545,2.03446 -2.70502,4.37277 -4.15219,5.74643 -0.24397,0.23159 -0.44373,0.45048 -0.44339,0.48628 3.2e-4,0.0358 0.0696,0.11464 0.15399,0.17465 0.30491,0.2172 1.40499,1.44547 2.03502,2.27222 0.70008,0.91866 1.4977,2.1921 2.2748,3.63233 l 0.49557,0.91831 0.21447,-0.43307 c 1.09953,-2.21982 3.06041,-4.94921 4.41883,-6.15 0.17325,-0.15314 0.31457,-0.31133 0.3142,-0.35192 -3.7e-4,-0.0406 -0.13888,-0.19738 -0.30851,-0.3483 -0.16962,-0.15094 -0.64511,-0.6718 -1.05574,-1.15702 -1.16398,-1.37546 -2.03882,-2.70092 -3.01842,-4.57285 -0.28704,-0.54856 -0.53202,-0.98414 -0.54467,-0.96842 z m -5.73505,16.94471 0.008,0.90225 0.008,0.90228 0.67024,-0.006 0.67075,-0.006 0.14314,0.61288 c 0.36211,1.54578 1.83448,7.71309 2.0221,8.46977 0.1152,0.46466 0.3357,1.36715 0.48937,2.00607 l 0.27906,1.16168 1.30172,-0.0119 1.30173,-0.0119 0.0791,-0.31782 c 0.0434,-0.17502 0.2335,-0.91048 0.4222,-1.63401 0.5819,-2.23129 1.68492,-6.56791 2.23395,-8.78343 l 0.33642,-1.35805 0.69816,-0.0315 0.69815,-0.0305 -0.008,-0.88575 -0.008,-0.88572 -1.92598,0.005 c -1.05939,0.003 -2.08865,-0.005 -2.28669,-0.0165 l -0.35965,-0.0207 -10e-4,0.5669 c -1.6e-4,0.31152 -0.0165,0.70887 -0.0362,0.88366 l -0.0356,0.31781 0.67953,-0.006 c 0.42584,-0.004 0.68005,0.0276 0.68058,0.0842 0.002,0.17624 -0.42116,1.8184 -0.4899,1.90272 -0.045,0.0554 -0.74126,0.0772 -1.95852,0.061 l -1.88879,-0.0253 -0.23719,-0.9715 c -0.1305,-0.53435 -0.22427,-0.98507 -0.20773,-1.00203 0.0165,-0.0171 0.31835,-0.0292 0.67024,-0.0274 l 0.63977,0.004 -0.008,-0.88937 -0.008,-0.88934 -0.31729,0.003 c -0.17462,10e-4 -1.20377,-0.0146 -2.28668,-0.0351 z m 6.41873,5.64615 c 0.58968,0.005 0.65993,0.0365 0.66043,0.13798 4.5e-4,0.0815 -0.24111,1.12181 -0.53692,2.31201 -0.2958,1.1902 -0.61481,2.47893 -0.70953,2.8639 -0.0947,0.38495 -0.19823,0.6722 -0.22945,0.6377 -0.0312,-0.0345 -0.16499,-0.51932 -0.29765,-1.07696 -0.13264,-0.55761 -0.2753,-1.12829 -0.31676,-1.26762 -0.0415,-0.13933 -0.23551,-0.94639 -0.43098,-1.79419 -0.19548,-0.84786 -0.35595,-1.59906 -0.35658,-1.66915 -9.8e-4,-0.10848 0.21285,-0.12991 1.43817,-0.14108 0.32864,-0.003 0.58272,-0.004 0.77927,-0.003 z" />
  </g>
</svg>
