<?xml version="1.0" encoding="UTF-8" standalone="no"?>
<svg
   sodipodi:docname="AH.svg"
   id="svg8"
   version="1.1"
   viewBox="0 0 63.102287 88.347733"
   height="88.347733mm"
   width="63.102287mm"
   inkscape:version="1.1.1 (1:1.1+202109281949+c3084ef5ed)"
   inkscape:export-filename="/home/doug/k40/52Cards/AH.png"
   inkscape:export-xdpi="96"
   inkscape:export-ydpi="96"
   xmlns:inkscape="http://www.inkscape.org/namespaces/inkscape"
   xmlns:sodipodi="http://sodipodi.sourceforge.net/DTD/sodipodi-0.dtd"
   xmlns="http://www.w3.org/2000/svg"
   xmlns:svg="http://www.w3.org/2000/svg"
   xmlns:rdf="http://www.w3.org/1999/02/22-rdf-syntax-ns#"
   xmlns:cc="http://creativecommons.org/ns#"
   xmlns:dc="http://purl.org/dc/elements/1.1/">
  <defs
     id="defs2">
    <marker
       style="overflow:visible"
       id="marker2995"
       refX="0"
       refY="0"
       orient="auto"
       inkscape:stockid="Arrow1Lstart"
       inkscape:isstock="true">
      <path
         transform="matrix(0.8,0,0,0.8,10,0)"
         style="fill:#000000;fill-opacity:1;fill-rule:evenodd;stroke:#000000;stroke-width:1pt;stroke-opacity:1"
         d="M 0,0 5,-5 -12.5,0 5,5 Z"
         id="path2993" />
    </marker>
    <marker
       style="overflow:visible"
       id="marker2985"
       refX="0"
       refY="0"
       orient="auto"
       inkscape:stockid="Arrow1Lstart"
       inkscape:isstock="true">
      <path
         transform="matrix(0.8,0,0,0.8,10,0)"
         style="fill:#000000;fill-opacity:1;fill-rule:evenodd;stroke:#000000;stroke-width:1pt;stroke-opacity:1"
         d="M 0,0 5,-5 -12.5,0 5,5 Z"
         id="path2983" />
    </marker>
    <marker
       style="overflow:visible"
       id="marker2791"
       refX="0"
       refY="0"
       orient="auto"
       inkscape:stockid="Arrow1Lstart"
       inkscape:isstock="true">
      <path
         transform="matrix(0.8,0,0,0.8,10,0)"
         style="fill:#000000;fill-opacity:1;fill-rule:evenodd;stroke:#000000;stroke-width:1pt;stroke-opacity:1"
         d="M 0,0 5,-5 -12.5,0 5,5 Z"
         id="path2789" />
    </marker>
    <marker
       style="overflow:visible"
       id="marker2781"
       refX="0"
       refY="0"
       orient="auto"
       inkscape:stockid="Arrow1Lstart"
       inkscape:isstock="true">
      <path
         transform="matrix(0.8,0,0,0.8,10,0)"
         style="fill:#000000;fill-opacity:1;fill-rule:evenodd;stroke:#000000;stroke-width:1pt;stroke-opacity:1"
         d="M 0,0 5,-5 -12.5,0 5,5 Z"
         id="path2779" />
    </marker>
    <marker
       style="overflow:visible"
       id="marker2417"
       refX="0"
       refY="0"
       orient="auto"
       inkscape:stockid="Arrow1Lstart"
       inkscape:isstock="true">
      <path
         transform="matrix(0.8,0,0,0.8,10,0)"
         style="fill:#000000;fill-opacity:1;fill-rule:evenodd;stroke:#000000;stroke-width:1pt;stroke-opacity:1"
         d="M 0,0 5,-5 -12.5,0 5,5 Z"
         id="path2415" />
    </marker>
    <marker
       style="overflow:visible"
       id="marker2383"
       refX="0"
       refY="0"
       orient="auto"
       inkscape:stockid="Arrow1Lstart"
       inkscape:isstock="true">
      <path
         transform="matrix(0.8,0,0,0.8,10,0)"
         style="fill:#000000;fill-opacity:1;fill-rule:evenodd;stroke:#000000;stroke-width:1pt;stroke-opacity:1"
         d="M 0,0 5,-5 -12.5,0 5,5 Z"
         id="path2381" />
    </marker>
    <marker
       style="overflow:visible"
       id="marker2355"
       refX="0"
       refY="0"
       orient="auto"
       inkscape:stockid="Arrow1Lstart"
       inkscape:isstock="true">
      <path
         transform="matrix(0.8,0,0,0.8,10,0)"
         style="fill:#000000;fill-opacity:1;fill-rule:evenodd;stroke:#000000;stroke-width:1pt;stroke-opacity:1"
         d="M 0,0 5,-5 -12.5,0 5,5 Z"
         id="path2353" />
    </marker>
    <marker
       style="overflow:visible"
       id="Arrow1Lstart"
       refX="0"
       refY="0"
       orient="auto"
       inkscape:stockid="Arrow1Lstart"
       inkscape:isstock="true">
      <path
         transform="matrix(0.8,0,0,0.8,10,0)"
         style="fill:#000000;fill-opacity:1;fill-rule:evenodd;stroke:#000000;stroke-width:1pt;stroke-opacity:1"
         d="M 0,0 5,-5 -12.5,0 5,5 Z"
         id="path2071" />
    </marker>
  </defs>
  <sodipodi:namedview
     id="base"
     pagecolor="#ffffff"
     bordercolor="#666666"
     borderopacity="1.0"
     inkscape:pageopacity="0.0"
     inkscape:pageshadow="2"
     inkscape:zoom="1.503387"
     inkscape:cx="114.40833"
     inkscape:cy="166.62376"
     inkscape:document-units="mm"
     inkscape:current-layer="layer1"
     inkscape:document-rotation="0"
     showgrid="false"
     inkscape:snap-smooth-nodes="false"
     inkscape:object-nodes="false"
     inkscape:window-width="1366"
     inkscape:window-height="712"
     inkscape:window-x="0"
     inkscape:window-y="0"
     inkscape:window-maximized="1"
     inkscape:object-paths="false"
     inkscape:snap-intersection-paths="false"
     inkscape:snap-midpoints="false"
     inkscape:snap-others="false"
     inkscape:pagecheckerboard="0"
     showguides="true"
     inkscape:guide-bbox="true"
     inkscape:snap-bbox="true"
     showborder="false"
     fit-margin-top="0"
     fit-margin-left="0"
     fit-margin-right="0"
     fit-margin-bottom="0" />
  <metadata
     id="metadata5">
    <rdf:RDF>
      <cc:Work
         rdf:about="">
        <dc:format>image/svg+xml</dc:format>
        <dc:type
           rdf:resource="http://purl.org/dc/dcmitype/StillImage" />
      </cc:Work>
    </rdf:RDF>
  </metadata>
  <g
     inkscape:label="Layer 1"
     inkscape:groupmode="layer"
     id="layer1"
     transform="translate(746.32768,353.63654)">
    <path
       id="path6748-2"
       style="fill:#000000;fill-opacity:1;stroke:none;stroke-width:0.264999;stroke-miterlimit:4;stroke-dasharray:none;stroke-opacity:1"
       d="m -738.4173,-353.63619 v 5.3e-4 c -1.12038,9.8e-4 -2.1358,0.005 -2.77604,0.0124 l -2.32854,0.0259 -0.57774,0.2961 c -0.74224,0.37986 -1.6891,1.33262 -1.98284,1.99525 l -0.20773,0.46921 -0.009,4.57284 c -0.005,2.51511 -0.0137,5.35427 -0.0207,6.30918 -0.007,0.95488 -0.01,3.88914 -0.006,6.52052 0.003,2.63139 0.005,5.8892 0.004,7.23988 -10e-4,1.35067 0.002,6.68594 0.008,11.8556 0.006,5.16967 0.009,10.48584 0.007,11.81323 -0.002,1.32741 0.002,4.87108 0.0124,7.87498 0.0185,5.89954 0.0194,6.5541 0.032,17.7519 0.005,4.10519 0.012,7.74898 0.0139,8.09664 l 0.001,0.63201 0.19378,0.36793 c 0.32673,0.62016 0.79769,1.1557 1.38184,1.572 0.99348,0.70773 1.03338,0.71374 4.92477,0.71469 1.32733,2.9e-4 3.09975,0.007 3.93824,0.0139 2.48912,0.0218 5.15819,0.0307 9.82319,0.031 2.42186,2.2e-4 4.97522,0.01 5.67407,0.0228 0.69887,0.0129 3.15671,0.0254 5.46219,0.0284 2.3055,0.003 5.69761,0.0147 7.53753,0.0264 1.83991,0.0117 5.95608,0.0336 9.14672,0.0491 3.19064,0.0154 7.01998,0.0369 8.51059,0.0481 3.07438,0.023 3.48239,-10e-4 3.99047,-0.2372 h 0.004 c 1.01216,-0.47016 2.15492,-1.68206 2.34558,-2.48769 0.0404,-0.17103 0.0777,-2.38741 0.0816,-4.9258 0.0142,-8.09744 0.008,-17.79326 -0.0139,-21.67879 -0.0116,-2.07233 -0.0228,-5.92053 -0.0258,-8.55192 -0.002,-2.63141 -0.008,-7.01389 -0.0124,-9.73844 -0.02,-13.76802 -0.0233,-26.62155 -0.01,-33.09771 l 0.01,-4.60282 -0.2935,-0.55758 c -0.52456,-0.99566 -1.7752,-2.04708 -2.6102,-2.19472 -0.4401,-0.0778 -2.16627,-0.0939 -12.87361,-0.11832 -1.25757,-0.003 -2.80088,-0.0116 -3.42977,-0.0186 -0.62889,-0.007 -2.3822,-0.0131 -3.89589,-0.0129 -2.81823,4e-4 -12.30344,-0.0289 -15.79387,-0.0486 -1.07133,-0.006 -3.52918,-0.0179 -5.4622,-0.0268 -1.93299,-0.009 -5.24867,-0.026 -7.36803,-0.0367 -1.05966,-0.005 -2.28513,-0.007 -3.40548,-0.006 z m -4.02714,0.52298 5.2e-4,5e-4 c 2.64703,-0.0141 12.93951,0.0446 23.60891,0.13851 2.11968,0.0184 8.02333,0.0648 13.1227,0.10281 5.0991,0.038 11.67167,0.0878 14.60478,0.11216 l 5.19142,0.0419 0.42426,0.22735 c 0.57333,0.30676 1.35496,1.10078 1.5839,1.56427 l 0.18706,0.38034 0.0114,4.60592 c 0.009,3.78238 -0.002,12.61597 -0.0196,20.70518 -0.0178,8.08924 -0.044,15.49413 -0.0615,16.23674 -0.0207,0.88429 -0.0393,7.87691 -0.0454,15.67759 -0.006,8.12718 -0.02,14.33267 -0.0408,18.55082 -0.0104,2.10907 -0.0233,3.72226 -0.0372,4.82811 -0.007,0.55295 -0.013,0.97917 -0.0207,1.2754 -0.004,0.14809 -0.009,0.26405 -0.0124,0.34364 -0.004,0.0796 -0.0173,0.15912 -0.003,0.0821 -0.0654,0.34515 -0.41899,0.9538 -0.9126,1.40147 -0.69162,0.62723 -1.19348,0.88093 -1.80609,0.971 -0.22448,0.033 -0.72692,0.0666 -1.15084,0.0796 -0.21195,0.007 -0.40867,0.009 -0.54517,0.006 -0.06,-9.8e-4 -0.10112,-0.005 -0.1266,-0.007 -0.005,-0.002 -0.0155,-0.004 -0.0155,-0.004 -5.3e-4,-1.6e-4 -0.048,-0.0105 -0.0605,-0.0124 -0.0249,-0.004 -0.0346,-0.005 -0.0449,-0.006 -0.0206,-0.002 -0.0347,-0.001 -0.0507,-0.002 -0.0319,-0.002 -0.0696,-0.004 -0.11729,-0.005 -0.0954,-0.003 -0.23061,-0.006 -0.40256,-0.009 -0.34396,-0.006 -0.8351,-0.0117 -1.44126,-0.0181 -1.2123,-0.0127 -2.87814,-0.0255 -4.70668,-0.0362 -3.65498,-0.0216 -8.32527,-0.0541 -10.37301,-0.0713 -5.82634,-0.0488 -12.05632,-0.0927 -19.00711,-0.13229 -3.5156,-0.02 -9.19501,-0.055 -12.61732,-0.0781 l -6.09164,-0.0403 -0.4749,-0.22789 c -0.5453,-0.26201 -1.2692,-0.93972 -1.66036,-1.59628 l -0.21601,-0.36123 -0.0238,-17.41237 c -0.0236,-16.53717 0.034,-44.23047 0.12351,-58.63777 l 0.0398,-6.30452 0.26768,-0.52917 c 0.45813,-0.90784 1.63343,-1.76157 2.32389,-1.83451 -0.0397,0.004 0.0454,-0.002 0.1483,-0.003 0.10697,-9.8e-4 0.25781,-0.002 0.44752,-0.003 z m 3.48919,3.77184 c -0.54832,-6.1e-4 -0.56999,0.0361 -0.60563,0.17624 -0.0852,0.33092 -0.96647,4.02146 -1.24283,5.20536 -0.14605,0.626 -0.4164,1.764 -0.601,2.52905 -0.18457,0.76501 -0.48932,2.05494 -0.67747,2.86649 l -0.3421,1.47587 -0.70382,0.0119 -0.70385,0.0119 0.045,0.86509 c 0.0251,0.47585 0.0565,0.87738 0.0703,0.89244 0.0141,0.0152 1.03939,0.0191 2.2784,0.009 l 2.25206,-0.0181 0.0165,-0.87643 0.0165,-0.87643 -0.67696,-0.0124 c -0.48713,-0.009 -0.67324,-0.0427 -0.67181,-0.11885 0.003,-0.0581 0.0997,-0.50377 0.21498,-0.99063 l 0.20931,-0.88522 0.63045,-0.0377 c 0.34647,-0.0207 1.21624,-0.0238 1.9332,-0.006 l 1.30379,0.0315 0.22482,0.85111 c 0.31908,1.20718 0.3402,1.14951 -0.41498,1.13532 l -0.63457,-0.0119 -0.0165,0.89813 -0.0171,0.89813 1.2919,-0.0279 c 0.71062,-0.0154 1.74033,-0.025 2.28875,-0.0207 0.54843,0.005 1.01709,-0.023 1.04077,-0.06 0.0237,-0.0371 0.0242,-0.43195 0.002,-0.87746 l -0.0419,-0.80978 -0.65887,-0.0124 -0.65836,-0.0124 -0.11885,-0.44702 c -0.0652,-0.24574 -0.21238,-0.82965 -0.32764,-1.29759 -0.11514,-0.46789 -0.41605,-1.63566 -0.66868,-2.5952 -0.25265,-0.95951 -0.57147,-2.20424 -0.70797,-2.76571 -0.1366,-0.56145 -0.40436,-1.61393 -0.59481,-2.3394 -0.19031,-0.72551 -0.42238,-1.63504 -0.51623,-2.02104 l -0.17105,-0.70178 -1.30225,-0.0253 c -0.31986,-0.006 -0.56084,-0.0101 -0.74364,-0.0103 z m 0.74776,2.46602 c 0.0322,6.1e-4 0.15616,0.41328 0.27544,0.9162 0.11932,0.50298 0.31591,1.29675 0.43719,1.76477 0.12123,0.46803 0.32941,1.27265 0.46249,1.78748 0.13296,0.51482 0.25054,1.06928 0.26046,1.23248 l 0.0181,0.29662 -1.41854,0.002 h -0.003 l -1.41853,0.002 0.0145,-0.23976 c 0.007,-0.13164 0.0458,-0.35301 0.0863,-0.49197 0.0407,-0.13896 0.33313,-1.38089 0.65008,-2.76056 0.31692,-1.37964 0.60309,-2.50846 0.6351,-2.50785 z m 12.64783,10.0216 5e-4,5.3e-4 c -1.42057,-0.003 -3.24781,0.006 -4.06074,0.0212 l -1.47691,0.0274 -0.0134,0.46558 c -0.007,0.25631 -0.005,3.05703 0.004,6.22393 0.009,3.16688 0.0124,6.50155 0.006,7.40987 -0.006,0.90831 -0.003,3.13745 0.007,4.95371 0.0104,1.81621 0.0124,4.04485 0.005,4.95319 -0.007,0.90831 -0.011,3.82397 -0.009,6.47866 0.002,2.65473 0.003,6.7895 0.003,9.18808 -6.8e-4,10.21829 0.003,11.73242 0.0346,13.42139 l 0.0326,1.77715 0.88884,0.001 c 0.48903,10e-4 2.75672,0.006 5.03897,0.0119 2.28227,0.006 5.35011,0.009 6.81714,0.006 1.46707,-0.003 3.29624,0.002 4.06488,0.0104 0.76864,0.008 2.61691,0.0128 4.10723,0.009 1.49034,-0.004 3.49083,-0.002 4.44574,0.003 0.95483,0.005 2.95582,0.0107 4.44624,0.0124 1.48995,0.002 2.7246,0.0172 2.74506,0.0346 h 5e-4 c 0.0802,0.0702 0.26831,0.0205 0.29766,-0.079 0.0172,-0.0585 0.0255,-2.65965 0.0186,-5.78001 -0.007,-3.12036 -0.0108,-6.62583 -0.009,-7.79023 0.004,-2.15308 4.5e-4,-9.14604 -0.006,-14.05702 -0.002,-1.49035 -0.003,-5.64367 -0.002,-9.22994 0.003,-11.10189 -0.004,-14.15947 -0.0408,-16.11736 l -0.0346,-1.89032 -0.80513,-0.0145 c -0.44257,-0.008 -2.40501,-0.007 -4.36097,0.002 -1.95596,0.009 -3.93734,0.004 -4.40335,-0.009 -0.46596,-0.0134 -2.21927,-0.0218 -3.89589,-0.0181 -1.67661,0.004 -3.54353,0.002 -4.14909,-0.004 -0.60557,-0.006 -2.45382,-0.0115 -4.10723,-0.0129 -1.65343,-10e-4 -4.16875,-0.005 -5.58932,-0.009 z m 0.80872,0.31263 v 5.3e-4 c 2.26367,-0.002 4.56782,0.005 5.63531,0.0233 0.62897,0.0108 2.64808,0.0115 4.4876,0.002 1.83951,-0.01 3.72599,-0.006 4.19198,0.007 0.46601,0.0135 2.33328,0.0216 4.14962,0.0181 1.81636,-0.003 4.29352,-1.3e-4 5.50457,0.006 l 2.20195,0.0124 0.0191,1.8624 c 0.0207,2.01285 0.0411,11.50668 0.031,14.60688 -0.003,1.04799 -0.004,3.12489 -10e-4,4.61521 0.003,1.49034 0.003,3.58579 -5.3e-4,4.65709 -0.007,2.30391 -0.005,4.96623 0.0109,11.89797 0.006,2.81762 0.007,5.9614 0.002,6.98613 -0.005,1.02476 -0.006,3.13981 -0.003,4.69998 0.007,3.15706 -0.0224,4.81918 -0.0863,4.92683 -0.0234,0.0393 -0.12626,0.0663 -0.22841,0.0605 -0.36582,-0.0211 -4.90226,-0.0424 -8.06151,-0.0382 -1.76977,0.002 -3.73256,-0.005 -4.3615,-0.0155 -0.62894,-0.0108 -2.24809,-0.0191 -3.59876,-0.0191 -10.26305,7.6e-4 -15.75945,-0.0252 -15.80935,-0.0739 -0.0316,-0.0315 -0.0542,-1.65751 -0.0491,-3.61373 0.005,-1.95623 10e-4,-6.20507 -0.01,-9.44179 -0.0109,-3.23676 -0.0115,-6.39959 -10e-4,-7.02853 0.0104,-0.62894 0.009,-2.87766 -0.004,-4.99657 -0.0127,-2.11895 -0.014,-4.23355 -0.003,-4.69948 0.0111,-0.46596 0.0153,-2.33333 0.008,-4.14962 -0.007,-1.81626 -0.0104,-5.13133 -0.007,-7.36698 0.003,-2.23562 0.005,-5.16988 0.005,-6.52052 -7.1e-4,-1.35065 0.006,-3.32587 0.016,-4.38941 l 0.0176,-1.93321 0.123,-0.0501 c 0.0146,-0.006 0.16658,-0.0118 0.42582,-0.0165 l 5e-4,5.3e-4 c 0.90718,-0.0172 3.13087,-0.0276 5.39451,-0.0295 z m -11.02,4.25659 c -0.25842,-0.003 -0.51461,0.0258 -0.72191,0.0879 -0.60553,0.1814 -1.2677,0.95173 -1.464,1.70326 -0.0758,0.29046 -0.15967,0.21463 -0.28421,-0.25787 -0.22506,-0.85354 -0.8885,-1.39591 -1.81954,-1.48828 -1.17711,-0.11671 -2.11101,0.55126 -2.4448,1.74924 -0.102,0.36632 -0.0395,1.15938 0.15192,1.92545 0.28059,1.12342 1.3939,3.35862 2.84686,5.71543 0.21783,0.3534 0.64485,1.05682 0.9493,1.56321 0.30438,0.50638 0.58365,0.9207 0.62063,0.92138 0.0368,6.9e-4 0.0923,-0.0728 0.12298,-0.1638 0.061,-0.18037 0.68226,-1.25891 0.91829,-1.59422 0.5225,-0.74242 2.10939,-3.69382 2.54093,-4.7258 0.73289,-1.75221 0.95604,-2.91957 0.72295,-3.78119 -0.15984,-0.59103 -0.72189,-1.27177 -1.23196,-1.49188 -0.21246,-0.0917 -0.50186,-0.14608 -0.79684,-0.15968 -0.0369,-0.002 -0.0737,-0.003 -0.1106,-0.003 z m 20.93206,18.3591 c -0.0446,-0.008 -0.15253,0.17793 -0.59169,0.9276 -1.74577,2.98003 -2.36683,4.25146 -2.64273,5.41205 -0.0658,0.27821 -0.12949,0.62868 -0.13229,0.77827 -0.0174,0.39862 0.27426,1.14761 0.55499,1.42677 0.43346,0.43127 1.34926,0.56118 1.9141,0.2708 0.30932,-0.15904 0.71138,-0.66506 0.77618,-0.97565 0.0336,-0.16341 0.0863,-0.29668 0.11628,-0.29612 0.03,5.5e-4 0.13774,0.19248 0.23977,0.42635 0.28011,0.64217 0.65153,0.89384 1.38906,0.94308 0.55491,0.037 0.62997,0.0212 1.0015,-0.21704 1.47791,-0.94766 0.90903,-3.11743 -2.01745,-7.69565 -0.29842,-0.46685 -0.5571,-0.89064 -0.57414,-0.94207 -0.0107,-0.0316 -0.0182,-0.0559 -0.0331,-0.0584 z m 23.23373,15.34686 v 5.3e-4 c -0.0625,-7.4e-4 -2.04888,3.38847 -2.57969,4.40179 -0.96086,1.83423 -1.26953,2.54389 -1.60094,3.68247 -0.6305,2.16617 0.11337,3.71931 1.85621,3.87729 0.49585,0.0449 0.62838,0.0236 1.04595,-0.17106 0.56473,-0.26333 0.98684,-0.76869 1.21851,-1.45883 0.14441,-0.4296 0.15965,-0.44614 0.23101,-0.24961 0.36216,0.99642 0.60944,1.34694 1.1653,1.64952 0.42561,0.2317 1.3692,0.27189 1.83915,0.0786 0.47799,-0.19654 0.97647,-0.67945 1.20253,-1.16531 0.51678,-1.11072 0.1483,-2.73558 -1.20047,-5.29323 -0.72726,-1.37914 -0.71395,-1.35601 -1.47897,-2.61069 -0.38782,-0.63601 -0.91866,-1.51302 -1.17977,-1.94871 -0.26104,-0.43572 -0.49485,-0.79243 -0.51882,-0.79272 z m 4.37181,14.9288 c -0.27053,8.2e-4 -0.56719,0.003 -0.87693,0.005 l -2.25208,0.0186 -0.0165,0.87644 -0.0165,0.8759 0.67697,0.0129 c 0.37256,0.007 0.67246,0.0405 0.6718,0.0754 -0.003,0.0349 -0.0983,0.48149 -0.21238,0.99168 l -0.20722,0.92758 -1.09813,0.0429 c -0.6041,0.024 -1.47812,0.0267 -1.94252,0.006 l -0.84439,-0.0377 -0.24805,-0.95499 c -0.1357,-0.52501 -0.22701,-0.97404 -0.20153,-0.99838 0.0252,-0.0243 0.32766,-0.039 0.67231,-0.0326 l 0.62682,0.0119 -0.005,-0.7829 c -0.003,-0.4309 -0.0221,-0.83471 -0.0429,-0.89713 -0.0308,-0.0926 -0.4446,-0.11012 -2.24999,-0.0951 -1.21629,0.0102 -2.24475,0.0369 -2.28618,0.0599 v 5.3e-4 c -0.0414,0.0229 -0.0551,0.23672 -0.0305,0.47543 0.0245,0.23868 0.0414,0.61497 0.0372,0.83611 l -0.007,0.40206 0.65783,0.0124 0.65836,0.0124 0.26718,1.00047 c 0.14689,0.54999 0.48747,1.86102 0.75755,2.91401 0.2702,1.05302 0.85514,3.33164 1.29969,5.06325 0.44461,1.73162 0.83148,3.17355 0.86093,3.20498 0.0291,0.0313 0.63132,0.047 1.33789,0.0341 l 1.28415,-0.0227 0.0589,-0.30438 c 0.0322,-0.16743 0.17912,-0.81679 0.32607,-1.4428 0.14708,-0.626 0.47638,-2.02948 0.73226,-3.1192 0.25585,-1.08971 0.52628,-2.22819 0.59994,-2.52955 0.0739,-0.30133 0.34682,-1.47759 0.60619,-2.61379 0.25934,-1.13623 0.48734,-2.11307 0.50641,-2.17093 0.0244,-0.0728 0.24749,-0.10089 0.72401,-0.092 l 0.68831,0.0129 -0.0439,-0.86921 c -0.0241,-0.47784 -0.0539,-0.88101 -0.0677,-0.89606 h -5e-4 c -0.0101,-0.0113 -0.58878,-0.0164 -1.40044,-0.014 z m -2.63292,5.57591 -0.0599,0.24183 c -0.033,0.13316 -0.0949,0.37523 -0.13798,0.53744 -0.0434,0.16219 -0.30506,1.30122 -0.58187,2.53162 -0.5828,2.59013 -0.65929,2.87231 -0.72295,2.6939 -0.0252,-0.0703 -0.19436,-0.72112 -0.37571,-1.44642 -0.18145,-0.72533 -0.50289,-1.97572 -0.71466,-2.77865 -0.2118,-0.80291 -0.38434,-1.52041 -0.38293,-1.59473 0.002,-0.0744 0.0689,-0.13546 0.15089,-0.13591 0.0815,-4.8e-4 0.75054,-0.011 1.48675,-0.0248 z" />
    <path
       style="fill:#000000;stroke-width:0.0846667"
       id="path389"
       d="" />
  </g>
</svg>
