<?xml version="1.0" encoding="UTF-8" standalone="no"?>
<svg
   sodipodi:docname="AS.svg"
   id="svg8"
   version="1.1"
   viewBox="0 0 63.099735 88.34785"
   height="3.4782617in"
   width="2.4842415in"
   inkscape:version="1.1.1 (1:1.1+202109281949+c3084ef5ed)"
   inkscape:export-filename="/home/doug/k40/52Cards/AS.png"
   inkscape:export-xdpi="96"
   inkscape:export-ydpi="96"
   xmlns:inkscape="http://www.inkscape.org/namespaces/inkscape"
   xmlns:sodipodi="http://sodipodi.sourceforge.net/DTD/sodipodi-0.dtd"
   xmlns="http://www.w3.org/2000/svg"
   xmlns:svg="http://www.w3.org/2000/svg"
   xmlns:rdf="http://www.w3.org/1999/02/22-rdf-syntax-ns#"
   xmlns:cc="http://creativecommons.org/ns#"
   xmlns:dc="http://purl.org/dc/elements/1.1/">
  <defs
     id="defs2">
    <marker
       style="overflow:visible"
       id="marker2995"
       refX="0"
       refY="0"
       orient="auto"
       inkscape:stockid="Arrow1Lstart"
       inkscape:isstock="true">
      <path
         transform="matrix(0.8,0,0,0.8,10,0)"
         style="fill:#000000;fill-opacity:1;fill-rule:evenodd;stroke:#000000;stroke-width:1pt;stroke-opacity:1"
         d="M 0,0 5,-5 -12.5,0 5,5 Z"
         id="path2993" />
    </marker>
    <marker
       style="overflow:visible"
       id="marker2985"
       refX="0"
       refY="0"
       orient="auto"
       inkscape:stockid="Arrow1Lstart"
       inkscape:isstock="true">
      <path
         transform="matrix(0.8,0,0,0.8,10,0)"
         style="fill:#000000;fill-opacity:1;fill-rule:evenodd;stroke:#000000;stroke-width:1pt;stroke-opacity:1"
         d="M 0,0 5,-5 -12.5,0 5,5 Z"
         id="path2983" />
    </marker>
    <marker
       style="overflow:visible"
       id="marker2791"
       refX="0"
       refY="0"
       orient="auto"
       inkscape:stockid="Arrow1Lstart"
       inkscape:isstock="true">
      <path
         transform="matrix(0.8,0,0,0.8,10,0)"
         style="fill:#000000;fill-opacity:1;fill-rule:evenodd;stroke:#000000;stroke-width:1pt;stroke-opacity:1"
         d="M 0,0 5,-5 -12.5,0 5,5 Z"
         id="path2789" />
    </marker>
    <marker
       style="overflow:visible"
       id="marker2781"
       refX="0"
       refY="0"
       orient="auto"
       inkscape:stockid="Arrow1Lstart"
       inkscape:isstock="true">
      <path
         transform="matrix(0.8,0,0,0.8,10,0)"
         style="fill:#000000;fill-opacity:1;fill-rule:evenodd;stroke:#000000;stroke-width:1pt;stroke-opacity:1"
         d="M 0,0 5,-5 -12.5,0 5,5 Z"
         id="path2779" />
    </marker>
    <marker
       style="overflow:visible"
       id="marker2417"
       refX="0"
       refY="0"
       orient="auto"
       inkscape:stockid="Arrow1Lstart"
       inkscape:isstock="true">
      <path
         transform="matrix(0.8,0,0,0.8,10,0)"
         style="fill:#000000;fill-opacity:1;fill-rule:evenodd;stroke:#000000;stroke-width:1pt;stroke-opacity:1"
         d="M 0,0 5,-5 -12.5,0 5,5 Z"
         id="path2415" />
    </marker>
    <marker
       style="overflow:visible"
       id="marker2383"
       refX="0"
       refY="0"
       orient="auto"
       inkscape:stockid="Arrow1Lstart"
       inkscape:isstock="true">
      <path
         transform="matrix(0.8,0,0,0.8,10,0)"
         style="fill:#000000;fill-opacity:1;fill-rule:evenodd;stroke:#000000;stroke-width:1pt;stroke-opacity:1"
         d="M 0,0 5,-5 -12.5,0 5,5 Z"
         id="path2381" />
    </marker>
    <marker
       style="overflow:visible"
       id="marker2355"
       refX="0"
       refY="0"
       orient="auto"
       inkscape:stockid="Arrow1Lstart"
       inkscape:isstock="true">
      <path
         transform="matrix(0.8,0,0,0.8,10,0)"
         style="fill:#000000;fill-opacity:1;fill-rule:evenodd;stroke:#000000;stroke-width:1pt;stroke-opacity:1"
         d="M 0,0 5,-5 -12.5,0 5,5 Z"
         id="path2353" />
    </marker>
    <marker
       style="overflow:visible"
       id="Arrow1Lstart"
       refX="0"
       refY="0"
       orient="auto"
       inkscape:stockid="Arrow1Lstart"
       inkscape:isstock="true">
      <path
         transform="matrix(0.8,0,0,0.8,10,0)"
         style="fill:#000000;fill-opacity:1;fill-rule:evenodd;stroke:#000000;stroke-width:1pt;stroke-opacity:1"
         d="M 0,0 5,-5 -12.5,0 5,5 Z"
         id="path2071" />
    </marker>
  </defs>
  <sodipodi:namedview
     id="base"
     pagecolor="#ffffff"
     bordercolor="#666666"
     borderopacity="1.0"
     inkscape:pageopacity="0.0"
     inkscape:pageshadow="2"
     inkscape:zoom="1.5033851"
     inkscape:cx="119.06464"
     inkscape:cy="166.95656"
     inkscape:document-units="in"
     inkscape:current-layer="layer1"
     inkscape:document-rotation="0"
     showgrid="false"
     inkscape:snap-smooth-nodes="false"
     inkscape:object-nodes="false"
     inkscape:window-width="1366"
     inkscape:window-height="712"
     inkscape:window-x="0"
     inkscape:window-y="0"
     inkscape:window-maximized="1"
     inkscape:object-paths="false"
     inkscape:snap-intersection-paths="false"
     inkscape:snap-midpoints="false"
     inkscape:snap-others="false"
     inkscape:pagecheckerboard="0"
     showguides="true"
     inkscape:guide-bbox="true"
     inkscape:snap-bbox="true"
     showborder="false"
     units="in"
     fit-margin-top="0"
     fit-margin-left="0"
     fit-margin-right="0"
     fit-margin-bottom="0" />
  <metadata
     id="metadata5">
    <rdf:RDF>
      <cc:Work
         rdf:about="">
        <dc:format>image/svg+xml</dc:format>
        <dc:type
           rdf:resource="http://purl.org/dc/dcmitype/StillImage" />
      </cc:Work>
    </rdf:RDF>
  </metadata>
  <g
     inkscape:label="Layer 1"
     inkscape:groupmode="layer"
     id="layer1"
     transform="translate(746.32641,231.84592)">
    <path
       style="fill:#000000;stroke-width:0.0846667"
       id="path389"
       d="" />
    <path
       id="path6748-22"
       style="fill:#000000;fill-opacity:1;stroke:none;stroke-width:0.264999;stroke-miterlimit:4;stroke-dasharray:none;stroke-opacity:1"
       d="m -738.41995,-231.84503 0.008,5e-4 c -1.1203,0.001 -2.13585,0.005 -2.77603,0.0124 l -2.32855,0.0258 -0.57774,0.29612 c -0.74232,0.37983 -1.68913,1.3326 -1.98284,1.99522 l -0.20773,0.46921 -0.0103,4.57285 c 0,2.5151 -0.0136,5.35429 -0.0207,6.30918 -0.01,0.9549 -0.0103,3.88913 -0.0103,6.52055 v 7.23987 c -9.8e-4,1.35067 3.4e-4,6.68594 0.0103,11.85561 0.01,5.16966 0.01,10.4858 0.01,11.81322 0,1.32741 -8e-5,4.87108 0.0129,7.87498 0.018,5.89952 0.019,6.55407 0.032,17.75187 0.01,4.10522 0.012,7.74899 0.014,8.09668 l 10e-4,0.63198 0.19379,0.36796 c 0.32678,0.62013 0.79771,1.1557 1.38181,1.57199 0.99351,0.70771 1.03338,0.71371 4.92477,0.71467 1.32731,3.1e-4 3.09978,0.007 3.93827,0.0134 2.48909,0.0218 5.15818,0.0307 9.82316,0.031 2.42191,2.1e-4 4.97527,0.0104 5.67409,0.0232 0.6989,0.0129 3.15669,0.0254 5.46219,0.0284 2.3055,0.003 5.69762,0.0147 7.53753,0.0263 1.83989,0.0117 5.95601,0.0336 9.14673,0.0491 3.19058,0.0154 7.01997,0.0369 8.51058,0.048 3.0743,0.023 3.48237,-9.8e-4 3.99045,-0.2372 1.01222,-0.47014 2.155,-1.68204 2.34561,-2.48769 0.04,-0.171 0.0782,-2.38742 0.0822,-4.9258 0.014,-8.09742 0.0101,-17.79326 -0.0139,-21.67877 -0.012,-2.07235 -0.0228,-5.92053 -0.0258,-8.55194 0,-2.63142 -0.0104,-7.0139 -0.0124,-9.73842 -0.02,-13.76804 -0.0238,-26.62158 -0.01,-33.09773 l 0.01,-4.60282 -0.2935,-0.55759 c -0.52462,-0.99562 -1.7752,-2.04705 -2.6102,-2.19469 -0.44008,-0.0778 -2.16632,-0.0939 -12.87361,-0.11835 -1.2576,-0.003 -2.80088,-0.0116 -3.42977,-0.0186 -0.62889,-0.007 -2.38218,-0.0131 -3.89589,-0.0129 -2.8182,4e-4 -12.30346,-0.0289 -15.79387,-0.0486 -1.0713,-0.006 -3.5292,-0.0179 -5.46219,-0.0269 -1.933,-0.009 -5.24823,-0.026 -7.36751,-0.0367 -1.05971,-0.005 -2.28569,-0.007 -3.40601,-0.006 z m -4.0173,0.52295 -0.002,5.3e-4 c 2.647,-0.0141 12.9395,0.0446 23.6089,0.13848 2.11968,0.0184 8.0233,0.0648 13.1227,0.10285 5.0991,0.038 11.6717,0.0878 14.60479,0.11213 l 5.19141,0.0419 0.42426,0.22739 c 0.57333,0.30675 1.35491,1.10074 1.5839,1.56424 l 0.18706,0.38034 0.0109,4.60592 c 0.01,3.78238 -1.6e-4,12.61599 -0.0202,20.7052 -0.018,8.08922 -0.044,15.49411 -0.062,16.23672 -0.021,0.88429 -0.039,7.87691 -0.0449,15.67762 -0.01,8.12715 -0.0199,14.33266 -0.0408,18.55078 -0.01,2.10907 -0.0232,3.72227 -0.0372,4.82814 -0.01,0.55293 -0.0127,0.97915 -0.0207,1.27538 0,0.14811 -0.01,0.26408 -0.0119,0.34364 0,0.0796 -0.017,0.15912 0,0.0822 -0.065,0.34512 -0.41902,0.95379 -0.9126,1.40144 -0.69162,0.62725 -1.19351,0.88096 -1.8061,0.97102 -0.2245,0.033 -0.72694,0.0666 -1.15083,0.0796 -0.21201,0.007 -0.4087,0.009 -0.5452,0.006 -0.06,-9.8e-4 -0.1011,-0.005 -0.1266,-0.007 -0.01,-0.002 -0.015,-0.004 -0.015,-0.004 -6.1e-4,-1.3e-4 -0.048,-0.0105 -0.061,-0.0124 -0.025,-0.004 -0.0355,-0.005 -0.0455,-0.006 -0.021,-0.002 -0.0346,-0.001 -0.0506,-0.002 -0.032,-0.002 -0.07,-0.004 -0.11729,-0.005 -0.095,-0.003 -0.23056,-0.006 -0.40256,-0.009 -0.34391,-0.006 -0.83516,-0.0117 -1.44127,-0.0181 -1.21229,-0.0127 -2.87819,-0.0255 -4.70667,-0.0362 -3.65501,-0.0216 -8.32533,-0.0541 -10.37302,-0.0713 -5.82641,-0.0488 -12.0564,-0.0927 -19.00711,-0.1323 -3.5156,-0.02 -9.19501,-0.0549 -12.61731,-0.078 l -6.09161,-0.0403 -0.47493,-0.22789 c -0.54528,-0.26202 -1.26915,-0.93972 -1.66037,-1.59628 l -0.216,-0.36121 -0.0243,-17.41239 c -0.024,-16.53715 0.034,-44.23045 0.12351,-58.63775 l 0.0403,-6.30452 0.26768,-0.52917 c 0.4581,-0.90783 1.63338,-1.76159 2.32389,-1.83451 -0.04,0.004 0.045,-0.002 0.1483,-0.003 0.10702,-9.8e-4 0.25783,-0.002 0.44754,-0.003 z m 5.44256,3.47731 -1.31054,0.0233 -1.3105,0.0238 -1.49757,6.03684 c -0.82341,3.32041 -1.51876,6.05883 -1.54565,6.08542 -0.026,0.0266 -0.33559,0.0463 -0.68677,0.0444 h -5.3e-4 l -0.63873,-0.004 5.2e-4,0.92501 10e-4,0.92501 2.28616,-5e-4 h 2.28565 l -10e-4,-0.91157 -5.3e-4,-0.9121 -0.59994,0.003 c -0.32981,0.002 -0.61886,-0.0281 -0.64286,-0.0667 -0.024,-0.0387 0.0577,-0.4821 0.1824,-0.98494 l 0.22686,-0.91416 1.91463,0.0139 1.9146,0.0145 0.23617,0.92088 c 0.13009,0.50665 0.2163,0.94154 0.19119,0.96634 -0.047,0.0471 -0.22881,0.0642 -0.90382,0.0827 l -0.40307,0.0108 v 0.88884 0.88934 l 2.32855,-5e-4 h 2.32852 l -10e-4,-0.88937 v -0.88882 h -0.67437 l -0.67387,5.1e-4 -0.0817,-0.31729 c -0.5456,-2.09651 -1.11212,-4.4109 -2.6856,-10.96677 z m -1.32758,2.51045 5.1e-4,5e-4 c 0.056,-0.0196 0.17351,0.46591 0.90021,3.53468 0.30721,1.29709 0.54349,2.37416 0.52348,2.39366 -0.019,0.0192 -0.68077,0.0251 -1.46968,0.0124 l -1.43454,-0.0233 0.70281,-2.87838 c 0.3865,-1.58332 0.72599,-2.93674 0.75499,-3.00654 0.01,-0.0173 0.0142,-0.0303 0.0222,-0.0331 z m 12.75943,10.27171 0.009,5.3e-4 c -1.42049,-0.003 -3.24773,0.006 -4.06074,0.0212 l -1.47691,0.0274 -0.0129,0.46562 c -0.01,0.25627 -0.01,3.05699 0,6.2239 0.01,3.16687 0.0128,6.50155 0.01,7.40989 -0.01,0.90829 -1.9e-4,3.13746 0.01,4.95369 0.01,1.8162 0.013,4.04484 0,4.95318 -0.01,0.90835 -0.0108,3.82397 -0.01,6.47867 v 9.18808 c -7.2e-4,10.21831 1.3e-4,11.73242 0.0351,13.42141 l 0.0331,1.77716 0.88884,10e-4 c 0.48908,0.001 2.75677,0.006 5.03896,0.0119 2.2823,0.006 5.35017,0.009 6.81715,0.006 1.46711,-0.003 3.29629,0.002 4.06487,0.0103 0.7687,0.008 2.61694,0.0128 4.10724,0.009 1.49031,-0.004 3.49083,-0.002 4.44574,0.003 0.9548,0.005 2.95584,0.0107 4.44624,0.0124 1.49,0.002 2.72455,0.0177 2.74505,0.0351 h 5.1e-4 c 0.08,0.0702 0.26836,0.0206 0.29765,-0.0791 0.017,-0.0585 0.0246,-2.65961 0.0186,-5.78 -0.01,-3.12037 -0.01,-6.62581 -0.01,-7.79021 0,-2.15307 3.9e-4,-9.14606 -0.01,-14.05702 v -9.22994 c 0,-11.10189 -3.4e-4,-14.15949 -0.0413,-16.11736 l -0.0346,-1.89034 -0.80513,-0.0145 c -0.44259,-0.008 -2.40506,-0.007 -4.36097,0.002 -1.95598,0.009 -3.93734,0.004 -4.40335,-0.009 -0.46599,-0.0134 -2.21927,-0.0218 -3.89589,-0.0181 -1.67658,0.004 -3.54348,0.002 -4.14909,-0.004 -0.6056,-0.006 -2.45385,-0.0115 -4.10726,-0.0129 -1.65338,-9.8e-4 -4.16922,-0.005 -5.58982,-0.009 z m 0.8196,0.31265 -0.003,5.1e-4 c 2.26359,-0.002 4.56782,0.005 5.6353,0.0232 0.62892,0.0108 2.64809,0.011 4.4876,0.002 1.83949,-0.01 3.72608,-0.006 4.19198,0.007 0.46609,0.0135 2.33323,0.0216 4.14962,0.0181 1.81631,-0.003 4.29358,-1.4e-4 5.50458,0.006 l 2.20191,0.0124 0.0191,1.86242 c 0.021,2.01285 0.041,11.50665 0.031,14.60686 0,1.04798 -3e-5,3.12488 -10e-4,4.61523 0,1.49032 -3e-5,3.58579 -5.3e-4,4.65706 -0.01,2.30394 -0.0101,4.96626 0.0109,11.898 0.01,2.81763 0.01,5.9614 0,6.98614 0,1.02473 -0.01,3.13978 0,4.69995 0.01,3.15706 -0.0218,4.81917 -0.0858,4.92683 -0.023,0.0393 -0.12631,0.0663 -0.22839,0.0605 -0.36581,-0.0211 -4.90233,-0.0425 -8.06154,-0.0382 -1.76979,0.002 -3.73258,-0.005 -4.36149,-0.0155 -0.629,-0.0108 -2.24804,-0.0191 -3.59873,-0.0191 -10.26311,7.4e-4 -15.75999,-0.0252 -15.80989,-0.0739 -0.032,-0.0315 -0.0536,-1.65754 -0.0486,-3.61373 0,-1.95625 6.6e-4,-6.20509 -0.0103,-9.44182 -0.011,-3.23672 -0.012,-6.39955 -0.001,-7.02849 0.01,-0.62897 0.01,-2.87769 0,-4.99661 -0.013,-2.11891 -0.014,-4.23352 0,-4.69945 0.011,-0.46595 0.0153,-2.33333 0.0103,-4.14962 -0.01,-1.81628 -0.0103,-5.13135 -0.0103,-7.367 v -6.52053 c -6.9e-4,-1.35061 0.01,-3.32586 0.016,-4.38938 l 0.0181,-1.93323 0.12301,-0.0501 c 0.015,-0.006 0.1666,-0.0119 0.42579,-0.0165 l 5.3e-4,5e-4 c 0.9071,-0.0172 3.13079,-0.0276 5.39451,-0.0294 z m -13.58212,4.01474 c 5e-4,3e-5 0.001,8.5e-4 0.002,0.001 5.8e-4,-1.6e-4 0.002,-0.001 0.002,-0.001 z m 0.002,0.001 c -0.0347,0.009 -0.24791,0.31919 -0.48112,0.69972 -0.2373,0.38703 -0.9684,1.42584 -1.6247,2.30785 -2.01181,2.70312 -2.5687,3.61924 -2.83289,4.66535 v 5.3e-4 c -0.25202,0.99832 0.0312,2.17567 0.64955,2.69544 0.74883,0.62989 1.82827,0.81325 2.61898,0.44492 0.5144,-0.23968 0.9425,-0.63042 1.17771,-1.07537 l 0.15915,-0.30128 v 0.29609 c 0.01,0.37558 -0.20733,1.58695 -0.38343,2.19316 -0.14801,0.50906 -0.65519,1.57319 -0.86249,1.80816 -0.1891,0.21442 -0.096,0.25054 0.37155,0.14521 0.53861,-0.12158 1.94966,-0.12018 2.40297,0.002 0.19569,0.0523 0.37116,0.0799 0.39016,0.061 0.019,-0.0189 -0.15322,-0.39288 -0.3824,-0.83095 -0.22932,-0.43813 -0.48014,-1.00634 -0.55605,-1.26246 -0.1678,-0.56163 -0.38333,-1.72485 -0.38344,-2.06965 0,-0.24337 -10e-5,-0.23987 0.24958,0.1447 0.48462,0.76388 1.26805,1.13617 2.22986,1.05884 1.5898,-0.12785 2.55495,-1.60187 2.12905,-3.252 -0.29358,-1.13768 -0.82206,-2.01073 -3.07472,-5.07979 -0.57611,-0.78502 -1.20505,-1.70256 -1.39735,-2.03864 -0.18896,-0.33009 -0.36613,-0.60232 -0.39997,-0.61288 z m 27.83655,8.37417 c -0.01,-3e-5 -0.278,0.097 -0.60359,0.2155 -0.8848,0.3216 -2.09606,0.60693 -3.04737,0.71829 -1.63319,0.19122 -3.67411,-0.12287 -5.10511,-0.78599 -0.19971,-0.0926 -0.3734,-0.15402 -0.3855,-0.13642 -0.012,0.0176 -0.14165,0.26283 -0.28837,0.54467 l -0.26664,0.5121 0.33694,0.36899 c 1.03209,1.12874 2.19986,2.9097 2.60036,3.96562 0.2681,0.70668 0.56057,1.82179 0.51366,1.95546 -0.017,0.0457 -0.25805,-0.0684 -0.53745,-0.25323 -1.23468,-0.81688 -2.28878,-1.13797 -3.68297,-1.12139 -1.74459,0.0208 -2.82626,0.44562 -4.03643,1.58597 -0.66832,0.62989 -1.38592,1.67862 -1.51361,2.21176 -0.033,0.1397 -0.0891,0.29186 -0.12403,0.33848 -0.11981,0.16169 -0.34179,1.06082 -0.41289,1.67172 h -5.2e-4 c -0.10401,0.9017 -0.10354,0.96192 0.0331,1.86758 0.39859,2.64163 1.78795,4.92644 4.60076,7.56648 2.90409,2.72579 5.65777,5.59361 7.20577,7.50446 0.29519,0.36427 0.56271,0.63111 0.59581,0.59271 0.032,-0.0384 0.3084,-0.39428 0.61288,-0.79012 1.65762,-2.15538 3.71335,-4.37277 5.65497,-6.10092 2.02618,-1.80343 3.0525,-2.92918 4.07519,-4.47003 0.96549,-1.45465 1.48889,-2.75029 1.68259,-4.16666 0.1474,-1.07778 -0.042,-2.55908 -0.47696,-3.71554 -0.68191,-1.81565 -2.22539,-3.32222 -4.01217,-3.91655 -0.7261,-0.24157 -0.90691,-0.26794 -1.86243,-0.27183 -0.75459,-0.003 -1.21298,0.0381 -1.59679,0.14316 -0.63701,0.17457 -1.75347,0.72229 -2.32285,1.13946 -0.22331,0.16362 -0.42942,0.27342 -0.45942,0.24392 -0.085,-0.0852 0.22071,-1.26432 0.5426,-2.08982 0.4281,-1.0978 1.55417,-2.83006 2.53887,-3.90569 l 0.3638,-0.39738 -0.30541,-0.51263 c -0.16809,-0.28189 -0.30676,-0.51213 -0.31676,-0.51213 z m -8.63153,1.03457 c 0.0747,0.008 0.35335,0.0844 0.67387,0.18653 1.97911,0.63101 4.24987,0.6313 6.62646,0.003 0.43781,-0.11584 0.81092,-0.19532 0.82992,-0.17674 0.019,0.0186 -0.12256,0.21412 -0.31316,0.4346 -1.04098,1.20303 -2.00022,3.04395 -2.42724,4.65759 -0.1942,0.73441 -0.48051,2.7499 -0.40153,2.82877 0.021,0.0211 0.18071,-0.0956 0.35452,-0.25993 0.9575,-0.90519 1.9668,-1.54794 3.0086,-1.91563 0.5247,-0.18516 0.75496,-0.21545 1.66709,-0.21757 0.92458,-0.003 1.1439,0.0254 1.7358,0.22222 2.3872,0.79423 3.8137,2.73251 4.06281,5.52112 0.1275,1.42883 -0.55235,3.60971 -1.66296,5.33455 -0.7814,1.21359 -1.56829,2.07801 -4.5465,4.99555 -1.59959,1.56694 -3.26321,3.36076 -4.4545,4.80282 -0.3725,0.45088 -0.71471,0.82068 -0.7617,0.82267 -0.047,0.002 -0.16561,-0.12002 -0.26459,-0.27078 -0.5775,-0.88003 -4.04865,-4.53117 -5.70148,-5.99757 -3.32557,-2.9505 -5.07809,-5.45312 -5.55778,-7.93491 -0.32991,-1.70714 0.13203,-3.97272 1.06143,-5.2002 1.35321,-1.78795 3.11584,-2.46896 5.31233,-2.05258 1.16742,0.22127 2.1699,0.70038 3.30419,1.57974 0.29012,0.2249 0.55296,0.40929 0.58394,0.40929 0.035,-3e-5 0.0368,-0.42855 0.01,-0.9524 -0.051,-0.94443 -0.27292,-1.9659 -0.6351,-2.91869 -0.25601,-0.67358 -1.14845,-2.11434 -1.88156,-3.03702 -0.36518,-0.45972 -0.65268,-0.84818 -0.63767,-0.86299 0.003,-9.6e-4 0.007,-0.002 0.015,-0.001 z m 6.38567,1.11051 c -0.0878,0.004 -0.27374,0.0329 -0.48059,0.0755 -0.61931,0.12676 -3.41172,0.13142 -3.90933,0.006 -0.44151,-0.11136 -0.45347,-0.0409 -0.0729,0.42738 0.40021,0.49245 1.09341,1.91204 1.35961,2.78432 0.28318,0.92781 0.46903,2.29822 0.46921,3.49901 0,1.01534 -0.0447,1.13837 -0.4346,1.13842 -0.1873,1.3e-4 -0.32597,-0.11546 -0.70176,-0.58653 -1.35559,-1.69844 -3.28379,-2.40691 -5.4312,-1.99572 -0.78478,0.15025 -1.34652,0.46453 -2.14043,1.19734 -0.8849,0.81683 -1.44126,1.92625 -1.62626,3.24268 v 5.3e-4 c -0.10671,0.76251 -0.0177,1.84939 0.22066,2.67063 0.6653,2.29428 2.45896,4.61293 6.09576,7.88014 1.57898,1.41851 3.55442,3.44858 4.29792,4.41626 0.15089,0.19648 0.31425,0.3592 0.36224,0.36021 0.048,9.7e-4 0.47056,-0.44498 0.93898,-0.99219 1.19751,-1.39896 2.34797,-2.61549 3.53777,-3.74036 3.49369,-3.30274 4.93467,-5.05601 5.75469,-7.00318 0.45828,-1.08858 0.59156,-1.72924 0.58134,-2.82617 -0.016,-2.08638 -0.76586,-3.62305 -2.27375,-4.66019 -0.54239,-0.37303 -1.07415,-0.57758 -1.84486,-0.70744 -1.8973,-0.31986 -3.48252,0.28712 -5.30251,2.02933 -0.688,0.65836 -0.8586,0.7812 -1.02629,0.73998 -0.38079,-0.0936 -0.41331,-0.17319 -0.41342,-1.04283 0,-1.98897 0.71054,-4.46275 1.83193,-6.37944 0.1607,-0.27358 0.27691,-0.51187 0.25995,-0.52917 v -5e-4 c -0.005,-0.004 -0.0229,-0.006 -0.0522,-0.004 z m 23.05026,21.58061 c -0.0458,10e-4 -0.13409,0.0239 -0.22633,0.0589 -0.40251,0.15308 -1.52857,0.20026 -2.25208,0.0946 -0.38309,-0.056 -0.71802,-0.0801 -0.74414,-0.0538 -0.026,0.0262 0.0145,0.1157 0.0904,0.19947 0.22251,0.24577 0.79414,1.53249 0.98134,2.20813 0.21481,0.77507 0.32649,2.00327 0.15967,1.75393 -0.56279,-0.84146 -1.23325,-1.23267 -2.11666,-1.23354 -1.22349,-0.002 -2.10214,0.6459 -2.40605,1.77302 h 5.1e-4 c -0.057,0.21188 -0.10954,0.52038 -0.10954,0.68525 -0.019,0.92786 0.72663,2.55582 1.85674,4.06072 0.9366,1.24732 1.51011,2.0203 1.63142,2.20038 0.078,0.11641 0.25654,0.36412 0.39584,0.55036 0.13939,0.18624 0.45107,0.65299 0.69297,1.03714 0.24181,0.38414 0.44948,0.69865 0.46146,0.69868 0.012,0 0.24406,-0.35211 0.51576,-0.7829 0.27178,-0.4308 1.06317,-1.54596 1.75958,-2.47737 2.2864,-3.05827 2.82699,-4.13751 2.73471,-5.46219 -0.093,-1.33096 -0.90914,-2.16186 -2.22054,-2.26087 -0.97341,-0.0734 -1.72276,0.28057 -2.20298,1.04026 -0.13139,0.20794 -0.2549,0.36166 -0.2749,0.34158 -0.079,-0.0792 0.14983,-1.48881 0.35915,-2.20969 0.1216,-0.41913 0.39092,-1.08167 0.5984,-1.47278 0.2076,-0.39111 0.3632,-0.72541 0.34521,-0.74311 -0.005,-0.004 -0.0147,-0.007 -0.03,-0.006 z m 4.12483,17.0806 -2.32855,5.3e-4 -2.32801,5e-4 v 0.88937 0.88882 l 0.67696,-5.1e-4 c 0.37248,-2.6e-4 0.67551,0.0287 0.6754,0.0636 0,0.0349 -0.10795,0.48252 -0.2377,0.99478 l -0.23617,0.9312 -1.92445,5.3e-4 h -1.92391 l -0.046,-0.21138 c -0.053,-0.24381 -0.35568,-1.40975 -0.42166,-1.62986 -0.041,-0.13255 0.0261,-0.14824 0.6382,-0.14832 h 0.68315 v -0.88882 -0.88937 h -2.27221 c -1.2495,1.9e-4 -2.28836,0.0168 -2.30736,0.0362 -0.024,0.0194 -0.0343,0.40973 -0.0243,0.86762 0.014,0.93768 -0.0717,0.84973 0.8356,0.86611 l 0.50798,0.009 0.70487,2.85721 c 0.59881,2.42641 1.98152,8.06233 2.23242,9.10074 l 0.077,0.31779 h 1.30328 c 1.16822,-1.9e-4 1.30831,-0.016 1.34721,-0.14883 0.047,-0.1579 0.62214,-2.49692 1.99575,-8.10699 0.46749,-1.90931 0.87969,-3.58566 0.9157,-3.72536 0.066,-0.2535 0.0671,-0.25445 0.7612,-0.27906 l 0.69557,-0.0243 v -0.88571 z m -7.19905,5.58882 h 1.48878 c 1.3793,-1.9e-4 1.48574,0.0102 1.44386,0.1478 -0.025,0.0814 -0.10739,0.41505 -0.1814,0.74104 -0.24889,1.09191 -1.11223,4.6913 -1.19425,4.98057 -0.069,0.24315 -0.11271,0.1338 -0.33382,-0.84542 -0.11399,-0.50475 -0.41188,-1.7372 -0.66196,-2.73836 -0.25022,-1.00113 -0.47848,-1.92503 -0.50747,-2.05309 z" />
  </g>
</svg>
