<?xml version="1.0" encoding="UTF-8" standalone="no"?>
<svg
   sodipodi:docname="KH.svg"
   id="svg8"
   version="1.1"
   viewBox="0 0 63.146049 88.30793"
   height="88.30793mm"
   width="63.146049mm"
   inkscape:version="1.1.1 (1:1.1+202109281949+c3084ef5ed)"
   inkscape:export-filename="/home/doug/k40/52Cards/KH.png"
   inkscape:export-xdpi="96"
   inkscape:export-ydpi="96"
   xmlns:inkscape="http://www.inkscape.org/namespaces/inkscape"
   xmlns:sodipodi="http://sodipodi.sourceforge.net/DTD/sodipodi-0.dtd"
   xmlns="http://www.w3.org/2000/svg"
   xmlns:svg="http://www.w3.org/2000/svg"
   xmlns:rdf="http://www.w3.org/1999/02/22-rdf-syntax-ns#"
   xmlns:cc="http://creativecommons.org/ns#"
   xmlns:dc="http://purl.org/dc/elements/1.1/">
  <defs
     id="defs2">
    <marker
       style="overflow:visible"
       id="marker2995"
       refX="0"
       refY="0"
       orient="auto"
       inkscape:stockid="Arrow1Lstart"
       inkscape:isstock="true">
      <path
         transform="matrix(0.8,0,0,0.8,10,0)"
         style="fill:#000000;fill-opacity:1;fill-rule:evenodd;stroke:#000000;stroke-width:1pt;stroke-opacity:1"
         d="M 0,0 5,-5 -12.5,0 5,5 Z"
         id="path2993" />
    </marker>
    <marker
       style="overflow:visible"
       id="marker2985"
       refX="0"
       refY="0"
       orient="auto"
       inkscape:stockid="Arrow1Lstart"
       inkscape:isstock="true">
      <path
         transform="matrix(0.8,0,0,0.8,10,0)"
         style="fill:#000000;fill-opacity:1;fill-rule:evenodd;stroke:#000000;stroke-width:1pt;stroke-opacity:1"
         d="M 0,0 5,-5 -12.5,0 5,5 Z"
         id="path2983" />
    </marker>
    <marker
       style="overflow:visible"
       id="marker2791"
       refX="0"
       refY="0"
       orient="auto"
       inkscape:stockid="Arrow1Lstart"
       inkscape:isstock="true">
      <path
         transform="matrix(0.8,0,0,0.8,10,0)"
         style="fill:#000000;fill-opacity:1;fill-rule:evenodd;stroke:#000000;stroke-width:1pt;stroke-opacity:1"
         d="M 0,0 5,-5 -12.5,0 5,5 Z"
         id="path2789" />
    </marker>
    <marker
       style="overflow:visible"
       id="marker2781"
       refX="0"
       refY="0"
       orient="auto"
       inkscape:stockid="Arrow1Lstart"
       inkscape:isstock="true">
      <path
         transform="matrix(0.8,0,0,0.8,10,0)"
         style="fill:#000000;fill-opacity:1;fill-rule:evenodd;stroke:#000000;stroke-width:1pt;stroke-opacity:1"
         d="M 0,0 5,-5 -12.5,0 5,5 Z"
         id="path2779" />
    </marker>
    <marker
       style="overflow:visible"
       id="marker2417"
       refX="0"
       refY="0"
       orient="auto"
       inkscape:stockid="Arrow1Lstart"
       inkscape:isstock="true">
      <path
         transform="matrix(0.8,0,0,0.8,10,0)"
         style="fill:#000000;fill-opacity:1;fill-rule:evenodd;stroke:#000000;stroke-width:1pt;stroke-opacity:1"
         d="M 0,0 5,-5 -12.5,0 5,5 Z"
         id="path2415" />
    </marker>
    <marker
       style="overflow:visible"
       id="marker2383"
       refX="0"
       refY="0"
       orient="auto"
       inkscape:stockid="Arrow1Lstart"
       inkscape:isstock="true">
      <path
         transform="matrix(0.8,0,0,0.8,10,0)"
         style="fill:#000000;fill-opacity:1;fill-rule:evenodd;stroke:#000000;stroke-width:1pt;stroke-opacity:1"
         d="M 0,0 5,-5 -12.5,0 5,5 Z"
         id="path2381" />
    </marker>
    <marker
       style="overflow:visible"
       id="marker2355"
       refX="0"
       refY="0"
       orient="auto"
       inkscape:stockid="Arrow1Lstart"
       inkscape:isstock="true">
      <path
         transform="matrix(0.8,0,0,0.8,10,0)"
         style="fill:#000000;fill-opacity:1;fill-rule:evenodd;stroke:#000000;stroke-width:1pt;stroke-opacity:1"
         d="M 0,0 5,-5 -12.5,0 5,5 Z"
         id="path2353" />
    </marker>
    <marker
       style="overflow:visible"
       id="Arrow1Lstart"
       refX="0"
       refY="0"
       orient="auto"
       inkscape:stockid="Arrow1Lstart"
       inkscape:isstock="true">
      <path
         transform="matrix(0.8,0,0,0.8,10,0)"
         style="fill:#000000;fill-opacity:1;fill-rule:evenodd;stroke:#000000;stroke-width:1pt;stroke-opacity:1"
         d="M 0,0 5,-5 -12.5,0 5,5 Z"
         id="path2071" />
    </marker>
  </defs>
  <sodipodi:namedview
     id="base"
     pagecolor="#ffffff"
     bordercolor="#666666"
     borderopacity="1.0"
     inkscape:pageopacity="0.0"
     inkscape:pageshadow="2"
     inkscape:zoom="1.5040647"
     inkscape:cx="86.10002"
     inkscape:cy="166.54869"
     inkscape:document-units="mm"
     inkscape:current-layer="layer1"
     inkscape:document-rotation="0"
     showgrid="false"
     inkscape:snap-smooth-nodes="false"
     inkscape:object-nodes="false"
     inkscape:window-width="1366"
     inkscape:window-height="712"
     inkscape:window-x="0"
     inkscape:window-y="0"
     inkscape:window-maximized="1"
     inkscape:object-paths="false"
     inkscape:snap-intersection-paths="false"
     inkscape:snap-midpoints="false"
     inkscape:snap-others="false"
     inkscape:pagecheckerboard="0"
     showguides="true"
     inkscape:guide-bbox="true"
     inkscape:snap-bbox="true"
     showborder="false"
     fit-margin-top="0"
     fit-margin-left="0"
     fit-margin-right="0"
     fit-margin-bottom="0" />
  <metadata
     id="metadata5">
    <rdf:RDF>
      <cc:Work
         rdf:about="">
        <dc:format>image/svg+xml</dc:format>
        <dc:type
           rdf:resource="http://purl.org/dc/dcmitype/StillImage" />
      </cc:Work>
    </rdf:RDF>
  </metadata>
  <g
     inkscape:label="Layer 1"
     inkscape:groupmode="layer"
     id="layer1"
     transform="translate(-286.55999,353.58186)">
    <path
       style="fill:#000000;stroke-width:0.0846667"
       id="path389"
       d="" />
    <path
       id="path11618"
       style="fill:#000000;fill-opacity:1;stroke:none;stroke-width:0.2;stroke-miterlimit:4;stroke-dasharray:none;stroke-opacity:1"
       d="m 289.52037,-347.6993 c 0.35559,3.9e-4 1.1244,-0.14549 1.3521,0.19642 0.38347,0.57502 0.0869,2.16656 0.0869,2.85176 l -9.1e-4,7.45066 -1.35468,-1.1e-4 -2.2e-4,1.778 4.572,5.3e-4 2.2e-4,-1.778 -1.35467,-1.1e-4 c -0.0151,-0.66947 -0.21234,-1.46137 -0.0489,-2.11667 0.2194,-0.88093 1.38031,-1.979 1.99676,-2.62442 l 2.28543,4.7416 -1.13455,0.0869 -0.13567,1.69094 4.57201,5.3e-4 2.2e-4,-1.778 c -0.33274,-4e-5 -0.86108,0.0988 -1.15231,-0.0872 -0.66289,-0.42283 -1.1436,-2.00929 -1.49319,-2.70715 -0.45624,-0.91318 -1.63124,-2.36391 -1.66667,-3.38686 -0.0177,-0.49353 0.65799,-1.07604 0.94421,-1.43922 0.96281,-1.22214 1.70722,-2.87845 3.36924,-2.87826 l 2.2e-4,-1.778 -4.57201,0.0841 -2.4e-4,1.69334 1.01601,9e-5 -1.45653,2.03183 -2.60812,3.217 5.1e-4,-3.72532 0.13563,-1.38826 1.30388,-0.13556 -0.087,-1.64137 -1.18278,-0.0711 -3.30199,-0.0661 -0.0849,1.77798 m 5.41532,27.26335 c 0.67485,-0.43333 1.15591,-1.67846 1.55731,-2.37047 1.22369,-2.1106 3.64386,-5.34474 2.93721,-7.95832 -0.37829,-1.40128 -2.04613,-2.13013 -3.30777,-1.32721 -0.59949,0.38228 -0.8544,1.02977 -1.10086,1.66534 -0.32673,-0.7369 -0.54085,-1.47936 -1.35445,-1.83176 -1.56117,-0.67659 -3.34357,0.66736 -3.20323,2.33921 0.31112,3.68473 3.27416,6.19105 4.47179,9.48321 m 6.76868,38.52434 33.01999,0.004 -0.16265,-54.94869 -22.69067,-0.003 -6.94267,-8.5e-4 -3.38667,0.0843 0.003,5.67596 0.0787,14.22072 0.0804,34.96734 m 0.26094,-54.60973 5.41866,6.5e-4 c 0.49955,-4.4e-4 1.5816,-0.20268 1.98034,0.13596 0.46055,0.39079 0.73222,1.20278 1.0141,1.72706 0.51043,0.94732 1.36117,2.19388 1.3966,3.30218 0.0185,0.60782 -0.31346,1.61422 -0.53028,2.18873 -0.18802,0.49749 -0.96354,0.28149 -1.07539,0.98912 -0.12371,0.78154 0.73986,1.11354 1.36218,0.97079 l 0.0847,0.0847 -0.0849,1.77799 -0.16934,4.3e-4 c -0.40802,-0.53591 -1.05996,-0.49238 -1.43848,0.0923 -0.1897,0.29249 -0.0543,0.70653 -0.28969,0.95415 -0.4166,0.4393 -1.2176,0.70937 -1.74341,1.00885 -1.15239,0.65636 -2.28023,1.3631 -3.38693,2.09272 -0.77136,0.50849 -1.64438,1.3758 -2.54019,1.6081 l 0.002,-16.93333 m 0.0797,40.97826 c 0.53337,0.26085 0.77544,0.84965 1.04123,1.3548 0.74151,1.41131 1.32803,3.26745 0.714,4.81847 -0.26,0.65817 -1.17024,1.21559 -1.23551,1.87013 -0.17039,1.70797 2.33911,1.9494 3.45842,1.69375 0.20399,0.4778 0.10063,1.1277 0.3368,1.53006 0.38007,0.64867 1.15732,0.54218 1.56718,-0.01 0.38191,-0.51507 0.009,-1.14317 0.26351,-1.66282 0.11433,-0.23376 0.48602,-0.24446 0.71124,-0.26636 0.66718,-0.0649 1.46729,-0.20625 2.11666,-0.0142 -0.48102,0.91324 -1.0069,1.80158 -1.49808,2.70914 -0.1897,0.34965 -0.33539,0.87905 -0.65207,1.1342 -0.38104,0.30687 -1.28018,0.13557 -1.745,0.13551 -1.546,-2.1e-4 -3.59922,0.35245 -5.08,-0.0849 l 0.007,-3.8066 -0.006,-9.4014 m 0.34106,-14.56278 0.0847,2.8e-4 c 0.18282,0.49396 0.0667,0.92939 0.10228,1.43934 0.0812,1.17147 0.25536,2.66314 -0.0183,3.81 l -0.16934,4.4e-4 c -0.33853,-1.1449 -0.18087,-2.70986 -0.0994,-3.89502 0.0331,-0.47938 -0.0863,-0.89307 0.10002,-1.3543 m 4.23361,-1.8629 -0.42352,1.52395 c -0.94742,0.0195 -1.905,0.0268 -2.85412,0.0615 -0.27686,0.0102 -0.83991,0.13833 -1.03799,-0.11303 -0.16593,-0.21127 -0.0956,-0.72476 0.0611,-0.92235 0.39038,-0.49137 2.0034,-1.5015 2.64602,-1.48093 0.52747,0.017 1.11497,0.71786 1.60855,0.93086 m 1.77879,-6.5191 -3.89157,2.42513 -2.20491,1.55345 c -0.22343,-0.76642 0.38452,-1.10476 0.93152,-1.51499 1.13548,-0.85212 2.25149,-1.69823 3.47163,-2.42994 0.66045,-0.396 1.20575,-0.86683 1.69333,-0.0337 m -6.18075,0.67658 c 1.32515,-0.87639 2.72319,-2.53222 4.31836,-2.87815 l -1.43948,1.12869 -2.8789,2.00346 -1.6e-4,-0.254 m 2.9e-4,-0.93133 0.33871,-0.25396 -0.33867,-1.3e-4 c 0.15501,-0.54287 1.09723,0.37089 3e-5,0.59267 l 1.3e-4,-0.33867 m 0.0818,22.43676 c 0.52323,0.12555 1.4773,1.04844 1.92859,0.96409 0.40471,-0.076 0.62159,-1.09247 0.96536,-1.35514 0.59019,-0.45071 1.19197,1.17574 1.33924,1.57691 l 2.1168,-1.10042 c -0.17703,0.62482 -1.75114,1.8545 -2.37092,2.03172 l -0.76174,-2.11677 c -0.5978,0.47186 -0.78249,1.39852 -0.93159,2.11657 -0.57147,-0.27872 -2.10716,-1.51249 -2.28574,-2.11696 m 2.2e-4,-1.86266 3.72534,4.1e-4 c 0.42841,4.9e-4 1.09561,-0.14516 1.35463,0.25417 l -5.07999,-6.2e-4 -1.6e-4,-0.254 m 8.2e-4,-5.2493 c 0.93381,0.54554 -0.20855,2.25186 0.47378,2.89939 0.65949,0.62475 2.08964,-0.49446 2.65849,0.403 l -2.11667,0.0138 -0.92878,-0.0833 -0.0871,-0.86217 3e-4,-2.37068 m 1.2e-4,-1.01596 c 0.68576,0.31987 1.16657,1.07794 1.69313,1.60895 1.30711,1.31741 2.52443,2.72318 3.80613,4.06439 0.42073,0.44015 0.86941,0.8891 1.26052,1.35482 0.10074,0.12023 0.353,0.44165 0.13031,0.57777 -0.20491,0.12529 -0.43854,-0.20317 -0.55452,-0.32206 -0.41397,-0.42726 -0.83726,-0.84863 -1.25631,-1.27191 -1.31724,-1.3302 -2.60994,-2.7316 -3.85098,-4.13476 -0.50031,-0.56588 -1.20298,-1.07143 -1.22828,-1.8772 m 0.001,-11.34533 c 1.48353,-1.32206 3.36079,-2.94879 5.24978,-3.64004 l -2.8e-4,0.0847 -3.55629,2.40215 -1.69348,1.15321 m 0.25207,18.20337 1.18524,0.65995 1.18542,-0.65967 c -0.22525,0.3058 -0.91792,1.15796 -1.34041,1.06173 -0.3903,-0.0887 -0.72296,-0.65023 -1.03028,-0.89267 l -4.3e-4,-0.16935 m 1.10378,-21.84386 c -0.91538,1.08819 -1.0692,-1.16574 0,0 m -0.51186,31.74994 -0.25409,0.67731 c -0.0939,-0.32894 -0.0973,-0.5606 0.25409,-0.67731 m -0.25224,-15.07069 c 0.55622,0.36057 0.0143,1.1772 0.341,1.66645 0.27173,0.4082 1.19041,0.13027 1.6061,0.19645 l 4.4e-4,0.16934 c -0.37509,0.0893 -1.57399,0.29367 -1.84743,-0.0513 -0.30645,-0.38738 -0.0997,-1.50225 -0.0997,-1.98094 m 2e-5,-3.55604 c 1.02272,0.47696 1.76423,1.84331 0.25373,2.28602 l 0.45817,-1.10061 -0.7119,-1.18541 m 1.1858,-3.80986 c -0.21765,0.46666 -0.63427,0.883 -1.1008,1.10053 0.2675,0.36867 0.85505,0.66423 0.99385,1.10087 0.15488,0.48541 -0.70712,1.18059 -1.07881,1.35445 0.0593,-0.44314 0.55973,-0.77894 0.56402,-1.18526 0.003,-0.32259 -0.39194,-0.55614 -0.50113,-0.84673 -0.2573,-0.68574 0.49632,-1.42725 1.12287,-1.52386 m -1.01488,-9.2288 0.25401,-0.0847 2.9e-4,-0.0847 -0.25399,-0.0848 1.5e-4,0.254 m 3.38691,-5.75682 0.16934,-4.3e-4 c 1.10006,-2.06566 3.1569,-4.41118 3.21731,-6.85761 0.0553,-2.27127 -2.56422,-2.75716 -3.30108,-0.59307 -0.27341,-0.51345 -0.44521,-1.04578 -1.01584,-1.30755 -1.12345,-0.51483 -2.47993,0.41583 -2.42336,1.6458 0.114,2.4986 2.09489,5.05586 3.35364,7.1124 m -2.62913,36.66081 -0.16928,-0.42335 c 0.69764,0.0545 0.46388,0.67028 0.42318,1.18538 l 0.0847,2.8e-4 c 0.0457,-0.33765 0.0771,-0.64074 0.42343,-0.76194 l -0.25395,-0.42337 c 0.74085,-0.16501 0.56889,0.62059 0.50787,1.10073 l 0.0847,2.8e-4 c 0.0467,-0.33485 0.0958,-0.54702 0.42341,-0.67729 l 2.8e-4,-0.0847 c -0.54012,-0.35347 0.42426,-0.62962 0.25397,0.25403 l 0.42333,4.1e-4 -0.25398,-0.16937 0.0847,-0.42332 c 0.71625,0.27162 0.51462,1.26887 0.33845,1.86271 l -0.67734,-6e-5 0.0848,-0.84665 -0.0847,-2.8e-4 0.25377,1.94736 c -1.04397,0.24762 -1.11244,-0.70397 -1.01582,-1.52412 l -0.0847,-2.8e-4 c -0.0484,0.38108 0.0702,0.99882 -0.0586,1.33366 -0.22529,0.58477 -0.65104,-0.38074 -0.70351,-0.57176 l -0.0847,-2.8e-4 0.16927,0.59269 c -1.12949,0.25446 -0.76515,-2.00661 -0.16905,-2.37069 m -0.5921,-6.26551 0.33867,1.2e-4 -2.9e-4,0.0847 -0.33865,-0.0847 m 0.16956,0.33857 0.50801,-3.1e-4 -2.8e-4,0.0847 -0.50801,0.0846 -4.4e-4,-0.16933 m 0.004,-25.73826 c 1.19645,-0.95075 0.93202,1.2795 0,0 m 1.60744,9.99086 -0.76212,1.01591 0.67733,0.16941 -0.67736,0.16926 c 0.87364,0.87597 0.645,1.26474 -0.16959,2.11664 l 0.76199,0.0848 1.5e-4,0.25401 -0.76199,-1.4e-4 c 0.24125,0.34225 0.77461,0.68581 0.86769,1.10077 0.11086,0.49277 -0.70711,1.21361 -0.95269,1.60855 0.36829,5.8e-4 0.71459,-0.0592 0.84662,0.33877 -0.33696,-10e-5 -1.01601,0.10588 -1.12178,-0.3438 -0.14048,-0.59759 0.92297,-0.92478 0.82568,-1.51128 -0.0863,-0.51419 -0.89823,-0.68684 -0.98369,-1.19639 -0.0973,-0.582 0.83154,-0.89608 0.88918,-1.43592 0.045,-0.4134 -0.56719,-0.65732 -0.69499,-1.01608 -0.19974,-0.56119 0.79602,-1.2837 1.25576,-1.35451 m -1.44146,16.25586 0.5927,-0.16927 4.3e-4,0.16935 -0.59267,3e-5 m 0.25269,7.02725 0.0847,2.8e-4 0.16943,-0.76198 -0.0847,-2.8e-4 -0.16942,0.76198 m 8.1e-4,-6.77333 0.67733,5e-5 -2.8e-4,0.0847 -0.67734,0.0846 -4.3e-4,-0.16934 m 0.0854,0.4234 3.21732,0.0851 4.3e-4,0.16934 -3.21732,-0.0851 -4.3e-4,-0.16933 m 0.003,-26.75468 0.16934,-4.4e-4 -1.6e-4,-0.25401 -0.16933,4.4e-4 1.5e-4,0.254 m 1.43572,29.71818 c -0.39194,-0.54453 -0.24712,-0.92339 0.42344,-0.93127 l -4.1e-4,0.42332 0.0847,2.8e-4 c 0.144,-0.46996 0.5182,-0.34682 0.93138,-0.33854 l 3e-4,0.508 -0.84665,-1.2e-4 -2.8e-4,0.0847 c 0.86696,0.13091 1.28761,1.40917 0.4231,1.86272 -0.50369,-0.62051 -1.5849,-0.51861 -2.28596,-0.33896 -0.27844,-0.9455 0.3414,-1.60768 1.27015,-1.26984 m -1.35411,-2.54041 c 0.63079,-0.11702 2.78643,-0.40538 3.04797,0.33904 l -3.04799,-0.0851 -1.5e-4,-0.25401 m 2.79399,1.52437 c -0.39962,-0.0505 -0.78146,-0.0847 -1.18532,-0.0849 l -0.67732,-6e-5 c -0.34799,-2.7e-4 -1.26404,-0.34898 -0.70772,-0.84565 0.43184,-0.38493 1.55026,-0.1523 2.06249,-0.0998 0.17695,0.0181 0.46652,-0.0205 0.58249,0.1501 0.14644,0.21464 -0.0189,0.65294 -0.0746,0.88026 m -2.45534,0.0844 c 0.82972,0.0271 0.62307,0.61314 -0.0848,0.67731 l 0.0848,-0.67731 m -0.0811,-29.54869 c 0.44961,-0.3536 0.79421,-0.29141 1.01597,0.25412 -0.45724,0.27241 -0.70869,0.16781 -1.01597,-0.25412 m 0.50397,33.10474 0.0847,-0.0847 -0.0847,0.0847 m 0.004,-32.93534 0.25401,-0.0847 2.8e-4,-0.0847 -0.25399,-0.0848 1.5e-4,0.254 m 0.081,26.83944 c 0.39286,-5e-5 0.99654,-0.0641 1.26997,0.25416 l -1.26999,-0.0848 -4.4e-4,-0.16934 m 5.1e-4,-0.42338 1.18533,0.0849 4.3e-4,0.16935 -1.18532,-0.0849 -4.4e-4,-0.16934 m 0.0847,-0.33865 1.01601,8e-5 4.3e-4,0.16935 -1.016,-9e-5 -4.4e-4,-0.16933 m 0.0848,-0.42334 0.84666,0.0848 -2.8e-4,0.0847 -0.84666,-1.2e-4 -4.4e-4,-0.16934 m 0.0855,-0.33862 0.59267,-3e-5 4.3e-4,0.16935 -0.59264,-0.16941 m 0.003,-26.07725 c 0.38441,-0.20291 0.56982,-0.13413 0.93131,0.0848 -0.19819,0.64276 -0.74511,0.45694 -0.93131,-0.0848 m 0.42197,11.17606 -0.001,8.46665 c -0.38265,-0.38425 -0.25131,-1.25487 -0.25379,-1.77803 -0.007,-1.58039 3.7e-4,-3.16093 6e-4,-4.74133 -2.2e-4,-0.51384 -0.21824,-1.64111 0.25424,-1.94729 m -0.1711,14.39331 0.1693,0.16935 -0.16933,4.3e-4 -4.4e-4,-0.16933 m 1.78074,-18.71157 c -0.37415,-0.57349 -0.50701,-1.09905 -0.50778,-1.77807 0.67558,0.42418 1.19871,1.44566 1.43906,2.20152 l -1.77809,0.76178 4.4e-4,0.16934 1.77792,0.59288 c -0.3743,0.65696 -0.85115,2.04891 -1.52429,2.37049 0.002,-0.51208 0.50141,-1.42336 0.37954,-1.83943 -0.12779,-0.4352 -1.07266,-0.62125 -1.36301,-0.98197 -0.43343,-0.53725 1.18295,-1.327 1.57667,-1.49654 m -1.52369,-6.51956 0.0847,2.8e-4 0.0848,-0.25399 -0.254,1.6e-4 0.0847,0.25401 m 0.41903,34.54358 c -0.27094,0.0414 -0.57486,-0.20996 -0.22685,-0.41742 0.20744,-0.12359 0.4699,0.0111 0.6426,0.13275 0.21164,0.14878 0.53419,0.39562 0.63408,0.64117 0.30893,0.75951 -0.68506,0.85083 -0.94406,0.15186 -0.0634,-0.16976 -0.088,-0.32979 -0.10577,-0.50836 m -0.42313,-1.60871 0.0847,-0.0847 -0.0847,0.0847 m 0.33895,-2.37063 -0.25397,-0.25402 0.25397,0.25402 m -0.0838,-7.19667 c 0.4936,0.0998 0.75772,0.43435 1.01591,0.84679 l 0.0847,2.8e-4 0.93143,-0.84655 c -0.017,0.36762 -0.64021,1.14698 -1.0737,1.03686 -0.34628,-0.0883 -0.76022,-0.75608 -0.9583,-1.03711 m 0.003,-24.2996 c 1.32004,-0.79741 3.30401,-2.66839 4.82623,-1.86209 l -2.8e-4,0.0847 c -0.22439,0.0866 -0.4767,0.14582 -0.66806,0.29735 -1.62237,1.28242 1.28917,2.41138 2.27639,2.41217 l -0.33873,0.50796 0.59269,-0.16925 4.4e-4,0.16933 -0.42339,0.42329 0.5927,-0.25393 -0.33874,0.59261 0.50803,-0.25393 -0.33873,0.59263 0.59269,-0.25393 -0.33875,0.76196 0.50803,-0.33861 -0.16942,0.76199 0.42336,-0.25395 -0.25407,0.67731 0.50801,-0.0846 -0.33875,0.59263 0.42337,-0.25395 -0.2541,0.76197 0.50802,-0.16929 -0.25408,0.67731 0.42336,-0.16929 -0.16943,0.67733 0.42335,-0.0846 -0.25405,0.4233 0.42333,4.1e-4 -0.25406,0.50797 0.33866,1.3e-4 c -0.32604,0.60186 -1.10325,0.4232 -1.69339,0.42314 l 0.1694,-0.42333 -0.93133,-0.0848 -0.0847,-0.0847 0.0847,-0.33866 -0.0847,-2.8e-4 c -0.17617,0.53118 -0.50976,0.5076 -1.01606,0.50787 l 0.16939,-0.4233 -0.59272,0.33859 0.33877,-0.84663 -0.67735,0.25393 0.4234,-0.67729 -0.42337,0.33861 -0.16934,4.4e-4 -0.0847,-0.0847 0.42343,-0.76194 -0.59272,0.42325 0.33876,-0.76196 -0.59271,0.3386 0.33876,-0.76196 -0.59272,0.42326 0.33877,-0.84663 -0.59272,0.42327 0.33877,-0.84663 -0.42338,0.42328 -0.16934,4.3e-4 0.25408,-0.76197 -0.59269,0.33861 0.33875,-0.76197 -0.59271,0.42326 0.33875,-0.76195 -0.50805,0.42327 -0.0847,-2.8e-4 0.2541,-0.76197 -0.0847,-0.0847 -0.33873,0.42328 -0.16933,4.3e-4 -0.0847,-0.0847 0.33875,-0.6773 -0.59272,0.42327 0.25409,-0.76197 -0.59271,0.42326 0.33875,-0.76196 -0.67738,0.42324 0.42341,-0.67727 -0.67736,0.33859 0.25407,-0.67731 -0.59272,0.42326 0.33877,-0.76196 -0.76204,0.33857 -4.4e-4,-0.16933 m 0.50495,28.27733 0.93131,0.16944 -2.8e-4,0.0847 -0.93132,-0.0848 -4.3e-4,-0.16933 m 0.84636,8.46675 c 0.31855,-1.71691 -0.48473,-3.35159 -0.13062,-5.08002 0.12284,-0.59772 0.72072,-1.66979 1.44962,-0.9723 0.66286,0.63491 -0.0348,1.22224 -0.72572,0.97239 -0.31933,1.20503 -0.0183,1.73796 0.16729,2.8787 0.1066,0.65728 0.032,1.60181 -0.002,2.28599 -0.0289,0.5946 -0.55813,1.38821 -1.24727,0.97682 -0.64342,-0.38354 -0.18442,-1.2144 0.48866,-1.06158 m -0.42329,-2.62471 -0.0848,0.93131 c -0.22518,-0.29745 -0.24714,-0.71613 0.0848,-0.93131 m -0.16858,-6.18069 0.84666,0.16943 -0.84666,-0.16943 m 0.25635,-19.30397 1.35471,-0.42317 -1.2e-4,0.84666 c -0.48513,-0.0104 -0.99567,-0.0761 -1.35461,-0.42349 m 0.0824,18.96534 0.67732,0.0848 -2.8e-4,0.0847 -0.67731,-0.16942 m 2.20183,-1.86242 0.0847,2.9e-4 c 0.61628,0.66893 0.0633,1.5174 0.3189,2.3707 0.48409,1.61515 1.90805,2.82387 2.05091,4.57225 l -3.89469,0.25352 0.16946,-1.01598 c 1.0998,0.12917 1.58087,-1.20385 0.42351,-1.55298 -0.43093,-0.13001 -0.79757,0.14213 -1.18536,0.28289 0.0739,-1.705 0.93601,-3.62446 2.0326,-4.91042 m 1.69516,-15.07073 c -0.45138,0.96769 -1.44885,1.74735 -1.99592,2.70909 -1.30669,2.29583 -1.44083,5.37573 -0.37518,7.78929 0.34959,0.79244 0.78893,1.49243 1.2816,2.20149 0.11512,0.16528 0.38008,0.61837 0.0456,0.73271 -0.31413,0.10715 -0.60616,-0.45108 -0.74753,-0.64813 -0.53247,-0.74293 -0.96841,-1.52022 -1.30443,-2.37082 -1.05547,-2.6706 -0.70458,-5.71738 0.6216,-8.2126 0.48864,-0.91925 1.31346,-2.3374 2.47423,-2.20103 m -3.55799,16.50957 0.50796,0.25406 -0.50799,-0.0848 -4.3e-4,-0.16934 m 0.17183,-16.25593 c 0.166,-0.48648 0.36757,-0.95101 0.84681,-1.18522 l 0.16923,0.84668 -1.01604,0.33854 m 0.16987,-4.40265 c 0.58249,0.10073 0.89572,0.3287 0.67721,0.93142 l -0.67721,-0.93142 m 0.16604,27.00869 1.18535,-0.0846 4.4e-4,0.16935 -0.50802,3e-4 -2.8e-4,0.0847 0.762,1.4e-4 1.5e-4,0.254 c -0.43858,0.004 -1.08123,0.25184 -1.35465,-0.16949 l 0.50801,-0.0846 2.8e-4,-0.0847 -0.59265,-0.0848 m -5.9e-4,-0.33906 3.89471,-0.25352 -2.8e-4,0.0847 -3.89472,0.3382 -4.4e-4,-0.16935 m 0.0294,-6.18065 c 10e-6,-0.0654 0.0423,-0.0136 0.0288,0.0282 l -0.0288,-0.0282 m 0.12135,-9.16635 c -0.0796,-0.24672 0.30145,-0.37029 0.38101,-0.12458 0.0796,0.24681 -0.30145,0.3703 -0.38101,0.12458 m 1.20441,17.20983 c 0.43606,-0.29458 1.22432,-0.31861 1.69334,-0.0845 -0.38938,-0.7214 0.16688,-0.67731 0.76208,-0.67723 -0.40404,1.47823 -2.18285,1.18506 -3.47147,1.18491 0.006,-0.28575 -0.005,-0.66531 0.21685,-0.88144 0.47334,-0.45918 1.05496,-0.16116 0.7992,0.45822 m -0.93122,-0.93142 0.93134,-0.0846 1.5e-4,0.254 -0.93133,-10e-5 -4.4e-4,-0.16934 m 0.089,-33.44333 c 0.38263,0.64503 0.74834,0.98062 1.52388,1.01619 l -0.0848,0.67732 0.0847,2.8e-4 c 0.13386,-0.65487 0.8832,-0.89515 1.25818,-0.25012 0.36738,0.6314 0.0675,1.2132 0.18097,1.85896 l 0.0847,2.8e-4 0.2541,-0.76197 -0.45619,-1.30959 -1.49091,-0.63797 -0.0847,-2.9e-4 -0.0848,0.254 -1.18523,-0.84682 m 0.42172,13.96978 c 0.20648,0.76415 -0.6452,0.35518 0,0 m -0.33693,-14.39337 c 0.45892,-0.25081 0.77051,-0.25466 1.01597,0.25412 l 0.0847,2.9e-4 c -0.0778,-0.70224 -0.81945,-1.03507 -1.10064,-0.25414 m 0.0822,20.15042 c 0.33612,0.0561 0.39453,0.17843 0.33861,0.50803 l -0.33861,-0.50803 m 2.9e-4,-2.37067 c 0.23891,-1.14322 1.36818,0.31376 0,0 m 0.42425,-7.53528 c -0.17182,-0.39881 -0.28098,-0.83689 -0.32412,-1.27004 -0.0304,-0.30702 -0.0178,-0.62315 -0.0143,-0.93135 0.003,-0.24291 0.3152,-1.95034 0.71049,-1.07136 0.18113,0.40228 -0.089,1.06365 -0.0891,1.49478 2.2e-4,0.44806 0.2742,0.99902 0.19032,1.42717 -0.0466,0.23638 -0.27605,0.28698 -0.47333,0.3508 m 0.0842,4.31801 0.76197,0.25409 -0.0847,0.42332 c -0.56048,-0.002 -0.81787,-0.0752 -0.67725,-0.67741 m -0.16768,-14.0547 c 0.31495,0.15245 0.48259,0.12943 0.67737,-0.16924 l -0.67737,0.16924 m 0.0823,19.47335 c 0.10837,-0.0609 0.2193,-0.13756 0.34123,-0.17141 0.98639,-0.27369 0.003,1.44839 -0.34123,0.17141 m 2.36858,17.18762 c 0.0787,0.42571 0.42398,1.70567 0.16315,2.06563 -0.26759,0.37089 -1.96936,0.16774 -2.36475,0.0507 0.29811,-0.63607 0.67147,-0.4964 1.06099,-0.90183 0.20068,-0.20901 0.0297,-0.46117 0.11099,-0.70305 0.13213,-0.38987 0.68078,-0.46017 1.02962,-0.51152 m -2.03151,-4.06422 1.18534,1.4e-4 -2.9e-4,0.0847 -1.18534,0.0845 -4.4e-4,-0.16933 m 0.0854,0.6774 c 0.39285,-0.0168 0.85516,-0.20954 1.10064,0.16946 l -1.10067,-1.7e-4 -4.3e-4,-0.16933 m 0.0851,0.33872 1.016,8e-5 c -0.27522,0.45979 -0.75783,0.49199 -1.016,-8e-5 m 0.001,-9.05935 1.01598,0.16947 c -0.33446,0.22796 -0.65957,0.1502 -1.016,-9e-5 l -4.4e-4,-0.16934 m 0.34008,-7.78932 2e-5,0.59267 c -0.32764,-0.18292 -0.3276,-0.40983 -2e-5,-0.59267 m -0.25598,16.25597 c 0.26418,-0.17955 0.49532,-0.19442 0.67733,0.0848 l -0.67733,-0.0848 m 3.13591,-26.75429 0.25404,-0.25397 c -0.11777,0.74006 -1.73491,0.71116 -2.37076,0.76171 l -2.8e-4,0.0847 c 1.58243,-0.0679 2.98538,-0.35295 4.57202,-0.0842 -0.32944,0.53793 -1.30815,0.33851 -1.86272,0.33844 l -2.9e-4,0.0847 c 0.49614,5.1e-4 1.37585,-0.18602 1.6933,0.25421 l 0.25402,-0.16932 c 0.0753,0.75931 -1.50544,0.5925 -2.03207,0.59243 l -2.8e-4,0.0847 c 0.55033,3.3e-4 1.46222,-0.23758 1.86264,0.16955 l 0.25402,-0.16929 c -0.1237,0.77866 -1.32002,0.67548 -1.9474,0.67709 l -2.8e-4,0.0847 c 0.53763,1.5e-4 1.33183,-0.253 1.77798,0.0849 l 0.25403,-0.1693 c -0.12372,0.75869 -1.34037,0.71476 -1.94744,0.82983 -0.86108,0.16331 -2.75345,0.7024 -3.51283,0.038 -0.54011,-0.47284 -0.58308,-2.25448 -0.0683,-2.75421 0.53345,-0.51742 2.15316,-0.73837 2.81945,-0.48463 m -3.04872,15.57835 c 0.29548,0.0493 0.38522,0.12197 0.33862,0.42337 l -0.16934,4.3e-4 -0.16928,-0.42334 m 0.42287,3.80959 c -0.27966,2.20891 1.40249,3.60985 2.02879,5.58824 0.1955,0.61793 0.54418,1.81143 -0.0823,2.286 2.7e-4,-2.2629 -1.03758,-3.60981 -1.96528,-5.58824 -0.30811,-0.65858 -0.58653,-1.72693 0.0189,-2.286 m -0.33859,-1.52404 0.0847,-0.0847 1.01598,0.16946 -4.3e-4,-0.16935 -0.762,-0.0847 0.0847,-0.33867 0.93133,0.0848 2.9e-4,-0.0847 -0.84667,-0.0848 1.18536,-0.25385 2.9e-4,-0.0847 -0.93133,-0.0848 1.10073,-0.42319 -0.84667,-0.0848 2.9e-4,-0.0847 1.01604,-0.33854 -0.762,-1.4e-4 1.10071,-0.33854 2.8e-4,-0.0847 -0.84667,-1.2e-4 1.01606,-0.50787 -0.76199,-1.4e-4 1.01606,-0.59253 -0.762,0.0846 1.2e-4,-0.33867 1.01605,-0.33854 -0.84668,0.0846 -4.4e-4,-0.16935 1.01606,-0.50788 -0.76201,0.0846 1.01609,-0.76187 -0.84667,0.16922 0.93142,-0.76189 -0.76202,0.16925 0.93143,-0.84656 -0.76203,0.25391 c 0.13383,-0.42755 0.54193,-0.52622 0.93142,-0.67721 l 2.9e-4,-0.0847 -0.76203,0.16923 c -0.008,-0.46057 0.47166,-0.55323 0.7621,-0.84656 l -0.67736,0.16925 c 0.072,-0.41724 0.43103,-0.5436 0.7621,-0.76191 l -0.76201,0.0846 0.76208,-0.67725 -0.67734,0.0847 0.76209,-0.76191 -0.67735,0.16925 0.67743,-0.84658 -0.67735,0.16925 0.59275,-0.76193 -0.59269,0.25393 0.5081,-0.76195 -0.50802,0.16928 -0.0847,-0.0847 0.50808,-0.67729 -0.50802,0.16929 0.50809,-0.76194 -0.59269,0.16925 0.42343,-0.76194 -0.59268,0.0846 0.50809,-0.67727 -0.59271,0.25392 0.50809,-0.67726 -0.59267,0.0846 2.8e-4,-0.0847 3.04808,-0.67696 -2.8e-4,0.0847 -0.33871,0.25395 0.42333,4.1e-4 -0.33873,0.50796 0.42334,-0.0846 -0.33874,0.67729 0.33868,-0.16929 0.0847,0.33867 -0.3387,0.33863 0.42334,-0.0846 -0.33875,0.6773 0.33867,-0.0847 0.0847,0.33868 -0.33871,0.33862 0.33868,-0.0847 0.0847,0.0847 4.3e-4,0.16934 -0.4234,0.42328 0.42335,4.1e-4 -0.42341,0.50796 0.50801,-3.1e-4 -0.4234,0.59263 0.33868,-0.1693 -0.33876,0.76196 0.50801,-0.0846 4.4e-4,0.16933 -0.50806,0.50794 0.42335,-0.16928 c 0.0541,0.36687 -0.1677,0.51822 -0.42342,0.76196 l 0.50801,-0.0846 -0.50809,0.76193 0.42334,-0.16928 0.0847,0.0847 4.3e-4,0.16934 -0.50805,0.50794 0.42335,-0.16929 c 0.0601,0.39744 -0.271,0.48782 -0.5081,0.76194 l 0.42335,-0.0846 0.0847,0.25401 -0.50805,0.42327 0.50801,-0.0846 -0.59275,0.67726 0.59267,-0.0846 -0.59274,0.67726 0.50801,-0.0846 -0.59273,0.50793 -2.8e-4,0.0847 0.59268,-2e-5 -0.67741,0.50792 0.59268,-3e-5 -0.67742,0.67726 0.59269,-0.16926 0.0847,0.0847 c -0.14313,0.36388 -0.3929,0.4061 -0.76205,0.42323 l 4.3e-4,0.16935 0.59268,-0.0846 -0.67743,0.76192 0.67735,-0.0847 -0.76209,0.67724 0.67736,-0.16926 c -0.11774,0.39038 -0.37598,0.4729 -0.76206,0.50791 l 4.3e-4,0.16935 0.67734,-0.0847 c -0.13636,0.43076 -0.60372,0.49828 -1.01606,0.56502 -0.77895,0.12632 -1.58243,0.0389 -2.37069,0.17608 -0.51309,0.0891 -1.01266,0.41533 -1.52405,0.44871 -0.39624,0.0259 -0.90593,-0.0753 -1.10061,-0.42854 m 0.42227,-12.78487 c 0.0499,0.34308 -0.0805,0.47353 -0.42339,0.42329 l 0.42339,-0.42329 m -0.34033,13.71596 0.33866,1.3e-4 -2.8e-4,0.0847 -0.33865,-0.0847 m 0.50954,-10.49873 -0.16939,0.42331 -0.16934,4.4e-4 c -0.13288,-0.34715 -0.0388,-0.51157 0.33872,-0.42329 m 0.17129,-16.00244 c 0.21756,0.19019 0.60535,0.14095 0.52242,-0.25022 -0.11931,-0.55822 -0.89829,-0.16512 -0.85516,0.28616 0.13106,1.3866 1.87279,0.34439 2.14803,-0.37439 0.27017,-0.70863 -0.15731,-1.40498 0.0477,-2.11666 1.07511,1.21976 0.11467,3.85345 -1.69376,3.43776 -0.97448,-0.22406 -1.15378,-1.78914 2.2e-4,-1.81762 0.69596,-0.0173 1.04128,0.97939 0.3292,1.25387 -0.39287,0.15159 -0.89573,-0.37044 -0.53246,-0.70152 0.24132,-0.21978 0.57316,0.25795 0.0338,0.28262 m -0.25647,20.48931 c 0.26575,0.75813 -0.62319,0.34773 0,0 m 1.01878,-22.94456 c -0.28699,-0.13719 -0.99988,-0.23676 -0.85601,0.33611 0.16502,0.65804 0.89319,0.25529 1.13961,-0.0836 0.55721,-0.7671 0.0586,-1.65412 0.394,-2.45376 l 0.0847,2.8e-4 c -3e-4,0.48218 -0.0137,0.90729 0.33852,1.27004 l -0.0842,-3.97934 1.10071,-0.2774 1.01596,0.27766 -0.0848,0.25399 -0.42333,-4.1e-4 -2.8e-4,0.0847 0.33862,0.25405 -1.60867,0.16914 0.59259,0.50807 0.0848,-0.25398 0.762,-0.0846 c -0.0238,0.49445 -0.46318,0.42955 -0.84671,0.33857 l -2.8e-4,0.0847 1.18534,1.5e-4 -0.25431,2.53997 0.33866,1.2e-4 c -0.5968,-0.78645 0.1357,-1.93097 0.28906,-2.79396 0.0627,-0.35203 -0.12521,-0.83847 -0.20899,-1.18341 -0.10408,-0.42978 -1.2022,-0.52533 -1.60353,-0.44579 -0.24046,0.0477 -0.65535,0.1982 -0.72727,-0.16164 -0.16584,-0.82891 1.04405,-0.86355 1.57407,-0.96941 1.79414,-0.3586 3.59416,-0.45676 5.41873,-0.45654 -0.0796,0.46218 -0.23305,1.71523 -0.67756,1.86258 l -2.9e-4,0.0847 c 0.38013,0.20952 0.36824,0.5448 0.25389,0.93137 -0.7789,-0.25824 -1.36639,-1.10828 -2.20127,-0.50826 0.92967,-0.23789 1.48502,0.28584 2.28593,0.6776 l -2.9e-4,0.0847 -1.35461,-0.45026 -1.52401,0.11124 -2.9e-4,0.0847 0.33861,0.50804 -0.25399,-0.16937 -0.16937,0.42332 1.60866,-0.0231 1.24379,-0.26418 0.36564,0.96499 0.93014,2.87878 -0.0847,-2.8e-4 -0.67722,-1.01608 0.33855,1.01604 -0.67726,-0.59275 0.25391,0.76203 -0.42329,-0.42338 -0.0847,-2.8e-4 0.16924,0.76202 -0.33863,-0.33872 -0.0847,-2.8e-4 0.25387,1.01603 -0.59259,-0.59274 0.93111,1.77811 -1.26982,-1.52416 0.76184,1.43944 -1.1852,-1.10082 0.50785,1.18539 -1.01588,-0.93145 0.76183,1.35476 -1.10057,-0.8468 0.67721,1.10075 -1.43919,-1.27018 c 0.28522,0.97074 1.2554,1.79365 2.28583,1.43961 -0.30806,-0.99267 0.97883,-0.65393 0.76198,0.0833 -0.16686,0.56937 -0.89244,0.54066 -1.3547,0.4572 -0.97534,-0.1758 -1.93201,-0.87434 -2.11645,-1.89544 -0.98298,-0.009 -1.45556,1.18542 -2.37086,1.57977 -0.38017,0.1637 -0.91105,0.33263 -1.18532,-0.0562 1.21666,-0.003 2.0668,-0.76573 2.54023,-1.86235 -0.64608,0.54788 -0.90696,1.42533 -1.86286,1.52377 l 1.43957,-1.86249 -0.0847,-2.8e-4 c -0.21173,0.44744 -0.46831,0.81553 -0.93146,1.01588 l 0.59281,-1.18526 -0.0847,-2.8e-4 -0.3387,0.33861 0.16941,-0.76197 -0.0847,-2.8e-4 -0.0848,0.25398 -0.84645,-1.86276 c -9e-5,0.53407 0.0109,1.16484 -0.37441,1.58957 -0.50129,0.55299 -1.49019,0.40775 -1.73817,-0.31991 -0.29539,-0.86669 1.10253,-1.4348 1.18115,-0.42311 m -1.08458,25.56709 c -4.6e-4,-0.29973 0.69857,-0.54313 0.67397,-0.15638 -0.0213,0.32275 -0.67485,0.55339 -0.67397,0.15638 m 0.0859,-9.64666 c -2.1e-4,-0.4484 0.70868,-0.19024 0.71457,0.15859 0.007,0.40124 -0.71462,0.18119 -0.71457,-0.15859 m -0.0991,-27.43362 4.91067,5.6e-4 -0.59293,2.11659 c -0.36319,-0.21983 -0.76956,-0.45035 -0.96425,-0.84711 -0.1329,-0.27096 -0.0287,-0.8576 -0.47487,-0.85765 -0.63161,-5.7e-4 -0.18219,1.2405 -0.62842,1.5638 -0.26587,0.19284 -0.53677,-0.10674 -0.72641,-0.27001 -0.56128,-0.48232 -1.20806,-1.02453 -1.52379,-1.70622 m 0.58776,40.38612 c -0.1169,0.56725 -0.30578,1.10588 -0.22966,1.6933 0.21148,1.63096 1.48894,2.91738 1.95696,4.48758 0.17095,0.57431 0.54246,2.04746 -0.0352,2.45532 0.32035,-2.53539 -1.33811,-3.8768 -2.06511,-6.09624 -0.23022,-0.70116 -0.34689,-2.09843 0.37283,-2.53996 m -0.50503,-22.7754 0.50801,-0.0846 2.8e-4,-0.0847 -0.50802,0.16928 m 0.0838,4.7413 0.254,-1.5e-4 2.8e-4,-0.0847 -0.25401,0.0847 m 0.42476,-13.9698 c 0.41056,0.5387 0.94737,0.36976 1.19722,-0.25386 0.25577,-0.63675 -0.1734,-1.43453 -0.0117,-2.11667 0.27424,0.64748 0.48066,2.07879 0.0835,2.70563 -0.31248,0.49305 -1.38015,0.72981 -1.58072,-0.005 -0.22681,-0.83264 1.00938,-1.27403 1.0804,-0.49686 0.0507,0.54839 -0.50973,0.30906 -0.76879,0.16713 m 0.50288,42.41786 c -9e-5,0.68606 0.0472,1.14766 -0.76215,1.18525 0.089,-0.45932 0.3447,-0.95628 0.76215,-1.18525 m -0.24923,-39.28537 -0.25405,0.33864 0.33867,1.3e-4 c -0.34381,0.47875 -0.86949,-0.27765 -0.0847,-0.33868 m -0.42775,36.74521 1.27,1.3e-4 -1.27001,0.16918 -4.4e-4,-0.16934 m 0.0851,0.33869 1.10068,-0.0846 1.5e-4,0.25401 -1.10067,-1.7e-4 -4.4e-4,-0.16936 m 0.0888,-31.24191 0.0847,2.8e-4 -0.0847,-0.33867 -1.3e-4,0.33865 m 0.67471,22.69049 c -0.16857,0.72837 -0.42435,1.34911 -0.31351,2.11664 0.21825,1.51691 1.4212,2.82685 1.84859,4.31822 0.18957,0.66246 0.59748,2.14909 -0.0969,2.62465 0.19407,-1.5338 -0.22402,-2.94558 -0.91472,-4.31811 -0.36229,-0.71938 -0.85751,-1.32734 -1.08009,-2.1168 -0.22343,-0.79157 -0.29353,-2.18901 0.55657,-2.6246 m -0.59353,7.87394 0.93132,1e-4 -0.93135,0.16921 -4.3e-4,-0.16933 m 0.5109,-20.1506 0.0847,0.0847 -0.16938,0.4233 -0.16933,4.4e-4 c -0.0677,-0.29075 -0.0253,-0.39557 0.25406,-0.50797 m -0.33687,-14.90181 0.59269,-0.16926 -4e-5,0.76201 -0.5926,-0.59275 m 1.09738,26.92408 c -0.23121,0.59636 -0.52932,1.20541 -0.49977,1.86261 0.0743,1.62603 1.37122,3.18218 1.8367,4.74155 0.20142,0.67474 0.55175,2.3267 -0.15275,2.79398 0.12466,-1.57241 -0.10293,-2.86606 -0.74962,-4.31809 -0.35804,-0.8048 -0.99633,-1.58458 -1.17064,-2.45547 -0.165,-0.82747 -0.1301,-2.20855 0.73608,-2.62458 m 0.67866,-10.92192 c -0.0974,0.32943 -0.35226,0.41635 -0.51739,0.69497 -0.26846,0.4515 6.9e-4,0.92515 0.17847,1.33699 -1.55112,0.24424 -0.37354,1.40575 -0.16957,2.03198 l -0.42334,0.0846 0.16915,1.43935 c -0.55369,-0.29082 -0.38936,-0.9037 -0.47312,-1.43939 -0.1895,-1.21584 -0.0783,-3.54611 1.2358,-4.14852 m -0.76094,-8.72072 c 0.64771,-0.0972 1.10148,0.27345 1.35456,0.84684 l 0.0847,2.8e-4 -0.76186,-1.10076 c -0.70274,0.0919 -1.05996,-0.49915 -1.26987,-1.10081 -0.2202,0.54191 0.28945,0.95549 0.59251,1.35472 m 12.86568,30.05797 c -0.54701,0.56491 -1.87206,0.59633 -2.62475,0.71291 -2.53073,0.39212 -5.0775,0.39199 -7.62001,0.11846 -0.81364,-0.0875 -1.66538,-0.23151 -2.45529,-0.44548 -0.17271,-0.0467 -0.64091,-0.0961 -0.68406,-0.31681 -0.0593,-0.30338 0.46821,-0.17386 0.59945,-0.14514 0.75774,0.16579 1.51803,0.31734 2.28595,0.42446 2.30458,0.32158 4.71673,0.39079 7.02733,0.0745 0.89832,-0.12298 2.66709,-0.81703 3.47138,-0.4229 m -13.28739,-43.43558 0.0847,2.9e-4 0.16921,1.10068 c -0.50544,-0.1611 -0.35552,-0.67966 -0.25387,-1.1007 m 0.338,5.5031 0.16934,-4.3e-4 c 0.22173,0.74839 0.15644,1.63349 -0.59291,2.03192 l 0.42357,-2.03195 m -0.16831,-8.38156 c 0.98727,-0.48306 2.30638,-0.56842 3.38675,-0.70105 3.51964,-0.43205 6.61923,0.10924 10.07526,0.61803 -0.22361,0.67401 -2.36982,-0.0518 -2.96332,-0.14887 -2.27664,-0.37222 -4.57196,-0.32128 -6.85799,-0.0921 -1.06427,0.10673 -2.62222,0.77329 -3.64073,0.49326 l -4.3e-4,-0.16934 m 0.84277,35.81416 c -0.18296,0.67131 -0.55642,1.31388 -0.49385,2.03195 0.088,0.99585 0.74231,1.74643 1.14437,2.62481 0.71948,1.57115 1.10959,3.20283 0.78765,4.91077 l -0.33867,-1.3e-4 c 0.52863,-2.56034 -0.91471,-4.32269 -1.71793,-6.60421 -0.33347,-0.94738 -0.2317,-2.3315 0.61843,-2.96327 m -0.59031,-19.38865 0.0847,-0.0847 -0.0847,0.0847 m 0.16944,-0.93131 -0.0847,-0.33867 0.0847,0.33867 m 1.01201,32.76605 c 0.81615,0.39016 0.35291,1.34574 0.87356,1.70605 0.16594,0.11484 0.37254,0.0479 0.48855,-0.10348 0.44965,-0.58863 0.31592,-1.00139 1.09322,-1.43293 l 0.50776,1.94739 -4.064,-5.4e-4 1.10092,-2.11653 m -1.09906,-13.20809 0.762,0.0847 2.8e-4,-0.0847 -0.42329,-0.42339 -0.0847,-2.8e-4 -0.25405,0.4233 m 1.1003,0.67784 c -0.15419,0.86417 -0.67752,1.52171 -0.46342,2.45527 0.15994,0.69691 0.63993,1.31275 0.94887,1.94745 0.74489,1.5279 1.5735,3.74712 0.86803,5.41878 l -0.33866,-0.0847 c 0.37612,-1.64426 -0.004,-3.21503 -0.703,-4.74141 -0.33604,-0.73461 -0.86258,-1.42428 -1.09278,-2.20147 -0.26236,-0.88792 -0.10979,-2.32056 0.78096,-2.7939 m -0.93116,-1.43951 0.0847,2.9e-4 c 0.33025,-0.51617 0.89414,-0.57875 0.6773,0.16942 0.37341,-0.24879 0.28709,-0.57249 -0.0846,-0.76201 l 0.0847,-0.42333 -0.76213,1.0159 m 0.002,-19.38892 c 0.47665,0.16616 0.58584,0.45134 0.50789,0.93139 l 0.0847,2.9e-4 c 0.10166,-0.4322 0.003,-1.08721 -0.59255,-0.9314 m 1.7799,-15.66341 c -0.003,-0.66776 -0.65938,-1.46811 -1.29192,-0.7199 -0.23118,0.27429 -0.034,0.6587 -0.0629,0.97374 -1.09212,-0.69212 0.22291,-1.94291 1.18551,-1.47534 0.50627,0.24618 0.71786,0.91896 0.16919,1.2215 m -1.55403,17.75162 0.0559,-0.0282 -0.0559,0.0282 m 0.16908,1.77796 0.0559,-0.0283 -0.0559,0.0283 m 0.0279,0.79015 0.33867,-0.0847 2.9e-4,-0.0847 -0.3387,0.16929 m 0.17178,-22.26728 c 0.36405,0.0125 0.5334,0.0797 0.67728,0.42342 l -0.76201,0.0846 0.0848,-0.508 m 1.01129,38.43881 c -0.36753,0.60973 -0.72067,1.20515 -0.6691,1.94726 0.0507,0.74253 0.57726,1.38793 0.90144,2.0321 0.51297,1.01801 0.93786,2.08834 1.12822,3.21747 0.0998,0.59141 0.51277,2.58163 -0.43042,2.62461 0.24067,-1.78288 10e-4,-3.32461 -0.71314,-4.99541 -0.33857,-0.79193 -0.92437,-1.53207 -1.12832,-2.3708 -0.19124,-0.78413 0.0155,-2.19854 0.91132,-2.45523 m -0.92948,-15.40945 0.0847,-0.0847 -0.0847,0.0847 m 0.16953,-1.52397 0.0847,-0.0847 -0.0847,0.0847 m 0.083,13.88534 0.0847,2.9e-4 c 0.0652,-0.41681 0.20837,-0.73429 0.59278,-0.93126 0.0729,-0.65472 1.04405,-0.87161 1.16606,-1.60852 0.17368,-1.05146 -0.84731,-1.79835 -0.99619,-2.79413 -0.38281,0.98158 0.99292,1.76838 0.84209,2.74534 -0.18217,1.17413 -1.67824,1.25497 -1.68942,2.58856 m 0.004,-29.46428 0.59269,-0.16927 2.8e-4,-0.0847 -0.5927,0.25394 m 0.58871,30.39539 -0.42322,-0.84672 c -0.0577,0.3457 0.1701,0.6297 0.42322,0.84672 m 0.42306,2.20138 c -0.14909,0.65142 -0.57756,1.15107 -0.49213,1.86261 0.0897,0.75118 0.64752,1.4539 0.97849,2.11679 0.50702,1.01344 0.89806,2.09789 1.08672,3.21747 0.10829,0.64746 0.43744,2.357 -0.38893,2.62462 0.15599,-1.78366 0.0456,-3.21055 -0.64288,-4.91075 -0.35041,-0.8644 -0.9362,-1.65967 -1.22736,-2.54014 -0.28437,-0.86025 -0.0598,-1.81993 0.68609,-2.3706 m -0.84443,-18.2881 0.0847,2.8e-4 -1.5e-4,-0.254 -0.0848,0.25399 m 0.16596,29.71776 0.33867,1.2e-4 c -0.13815,1.1761 1.32739,1.47015 1.26997,0.25415 l 0.0847,-0.0847 c 1.13955,0.62861 -1.233,2.19322 -1.72219,0.59211 -0.0779,-0.25358 -0.0177,-0.50901 0.0289,-0.76165 m 0.002,-17.44141 0.0847,2.8e-4 0.59275,-0.76193 c -0.39033,0.15676 -0.54022,0.3712 -0.67742,0.76192 m 0.0847,0.33841 c 0.40129,0.20147 0.74676,0.0611 0.67738,-0.42325 l -0.0847,-2.8e-4 c -0.0653,0.40554 -0.23203,0.39071 -0.59272,0.42326 m 0.0842,4.57228 0.0847,2.8e-4 c 0.15584,-0.39978 0.26427,-0.83486 0.7621,-0.76191 -0.14727,-0.4375 -0.43179,-0.16921 -0.762,-0.0848 l -0.0848,0.84666 m 0.8465,1.35448 c -0.5666,1.46772 0.0285,2.29245 0.59223,3.64075 l 0.0847,2.8e-4 c -0.26659,-0.92476 -1.63537,-3.25259 -0.0842,-3.81001 -0.88931,2.484 1.16022,4.57807 1.58664,7.02752 0.12945,0.74372 0.39765,2.36344 -0.40251,2.79395 0.50992,-1.86946 0.17158,-4.45979 -1.09993,-6.01146 0.49428,1.45201 1.18668,2.82792 1.1848,4.40281 -0.001,0.55253 -0.008,1.27186 -0.5082,1.6086 0.14665,-1.47276 0.18998,-2.70846 -0.31277,-4.1487 -0.39101,-1.12316 -1.09533,-2.10969 -1.48973,-3.21752 -0.25645,-0.72198 -0.34352,-1.87396 0.44901,-2.28595 m 0.0862,-12.44625 -0.4234,0.42329 0.0847,2.8e-4 c 0.79512,-0.72998 0.59847,1.01708 0.50784,1.35471 -0.31242,0.0391 -0.30484,0.39359 -0.33874,0.6773 l 0.0847,2.9e-4 c 0.32011,-0.54802 0.76468,-1.19371 0.59458,-1.86261 -0.22764,-0.89427 -1.05733,-1.29764 -1.10208,-2.28612 -0.39631,0.59049 0.25046,1.23193 0.59247,1.6934 m -0.68042,25.23004 0.67733,0.0848 c -0.15585,0.4692 -0.53598,0.30007 -0.67733,-0.0848 m 0.002,-16.08666 0.0847,2.8e-4 0.0847,-0.42333 -0.16939,0.42332 m 0.0847,0.16908 0.0847,-0.0847 -0.0847,0.0847 m 0.0849,-1.26999 c 0.72471,0.20522 0.71279,0.77842 0.42316,1.35471 0.66468,-0.38778 0.42354,-1.68092 -0.42316,-1.35471 m 5.8e-4,-4.82601 0.0847,2.9e-4 c 0.6046,-0.64645 1.03969,0.15294 1.01591,0.76212 l 0.0847,2.8e-4 c 0.22957,-0.9651 -0.27841,-1.12552 -1.10053,-1.18547 l -0.0847,0.42332 m 2.8e-4,-2.6252 0.16929,0.25401 0.0847,2.8e-4 -0.25396,-0.25402 m 2.9e-4,-2.45561 0.25401,-0.0847 2.8e-4,-0.0847 -0.25402,0.1693 m 0.001,-14.13929 2.53999,0.085 c -0.48336,-0.76663 -1.73648,-0.32355 -2.45529,-0.42363 l -0.0847,0.33866 m 0.0851,-3.72533 2.8e-4,-0.0847 0.33868,-0.0847 -0.33869,0.16928 m 0.50482,23.96078 -0.0847,-0.67735 c -0.25149,0.22129 -0.12705,0.46972 0.0847,0.67735 m -0.19469,-21.19489 0.0559,-0.0283 -0.0559,0.0283 m 0.0261,15.0142 0.0846,0.42334 0.0847,2.8e-4 c 0.0457,-0.20717 0.0669,-0.3831 -0.16928,-0.42335 m 0.25321,6.94244 0.25404,-0.33864 -0.25404,0.33864 m 0.058,-10.63981 0.0559,0.0283 -0.0559,-0.0283 m 0.0267,9.87782 0.33867,-0.0847 2.8e-4,-0.0847 -0.33868,0.1693 m 10e-4,-11.26063 c 1.30404,-1.49269 2.66819,-2.92966 3.99425,-4.40219 0.39714,-0.4409 1.02888,-1.44649 1.6791,-1.35446 -0.36584,0.70752 -1.06271,1.283 -1.60126,1.86247 -0.85948,0.92394 -1.69526,1.87042 -2.55558,2.79369 -0.30146,0.32381 -1.05597,1.40932 -1.51651,1.10049 m 0.001,-8.29734 0.254,-1.5e-4 2.9e-4,-0.0847 -0.25401,0.0847 m 0.84302,27.68626 c -0.77066,1.6498 0.25196,2.90325 0.8419,4.48744 0.61871,1.66232 0.8234,3.26187 0.42695,4.99537 -0.12865,-0.41945 0.0949,-0.91319 0.0814,-1.35465 -0.0228,-0.70071 -0.20556,-1.43876 -0.37566,-2.11671 -0.36473,-1.45962 -1.31454,-2.70196 -1.66065,-4.14887 -0.16756,-0.70141 -0.17252,-1.68574 0.68602,-1.86258 m -0.67369,-29.46409 1.52397,0.25419 -0.33862,-0.42338 -0.0847,-2.8e-4 c -0.40643,0.24835 -0.67481,0.0224 -1.10066,-0.0849 l 1.5e-4,0.25401 m 0.33719,10.92236 1.94731,0.25425 c -0.28878,0.52311 -0.93645,0.25802 -1.43937,0.25382 l 0.16918,1.27002 c -0.54269,-0.17838 -0.6357,-1.26721 -0.67712,-1.77809 m 1.43695,19.64284 c -0.48175,0.0221 -0.54449,0.66228 -0.0797,0.82498 0.88388,0.30949 0.74616,-2.02614 -0.50952,-1.37868 -0.14056,0.0727 -0.25317,0.18023 -0.34463,0.3083 -0.12702,0.17788 -0.1914,0.37727 -0.25153,0.58393 -0.49268,-0.7254 0.39474,-1.68084 1.18464,-1.35376 0.68069,0.28218 1.33835,1.91702 0.41459,2.30705 -0.89667,0.37843 -1.85915,-1.09285 -0.98701,-1.6153 0.67738,-0.40624 1.21486,0.81159 0.72802,0.87671 -0.36915,0.0494 -0.22516,-0.37483 -0.15487,-0.55323 m -1.35117,-28.8715 0.0847,-0.0847 -0.0847,0.0847 m 0.0812,29.29469 0.0847,0.0847 -0.0847,-0.0847 m 2.4e-4,-2.032 0.0847,0.0847 -0.0847,-0.0847 m 1.10293,-18.54186 c -0.0339,-0.41979 -0.26491,-0.85492 0.16946,-1.10065 l 0.33849,1.52404 -1.60864,-0.2542 c 0.2676,-0.4106 0.68329,-0.30133 1.10069,-0.16919 m -1.01422,-14.73213 2.70933,0.085 2.8e-4,-0.0847 c -0.92451,-0.43208 -1.74074,-0.0932 -2.70931,-0.16967 l 4.3e-4,0.16935 m 2e-5,-6.09599 4.23333,5e-4 -0.8469,1.94722 c -0.36405,-0.16895 -0.7628,-0.46278 -0.91854,-0.85007 -0.10664,-0.26477 -0.0118,-0.78275 -0.36141,-0.886 -0.56216,-0.16602 -0.89358,2.75385 -1.6469,1.0583 -0.0761,-0.16959 -0.14813,-0.33986 -0.22684,-0.50794 -0.12104,-0.25655 -0.204,-0.48 -0.23274,-0.76203 m 0.13629,41.93823 0.0559,0.0283 -0.0559,-0.0283 m -0.0528,-32.37087 0.42329,0.50806 0.0847,2.8e-4 c -0.0762,-0.2844 -0.17689,-0.55408 -0.50794,-0.50805 m 0.0807,32.51173 c 0.57822,0.35381 0.86174,1.33268 1.07756,1.94746 0.63478,1.80246 1.07227,3.74096 0.36085,5.58805 l -0.0847,-2.8e-4 c 0.0619,-0.77715 0.28549,-1.49543 0.25088,-2.28598 -0.0802,-1.83185 -0.82929,-3.61663 -1.60464,-5.24952 m 4.32076,-22.68987 c -0.045,0.59808 -0.52929,0.96031 -0.91457,1.37877 -0.945,1.02418 -2.06198,2.84463 -3.31935,3.44671 -0.0473,-0.56304 0.48356,-0.96378 0.83244,-1.35456 0.91113,-1.01962 2.11787,-2.96316 3.40148,-3.47092 m 1.43761,14.13951 c 0.0898,0.63077 -0.71896,1.22385 -1.11102,1.65729 -0.95433,1.05517 -1.88325,2.14268 -2.8689,3.16789 -0.41746,0.43386 -0.86541,1.05831 -1.43948,1.27017 l -0.0847,-0.0847 c 0.34468,-0.73902 1.1491,-1.38221 1.69696,-1.99064 1.16602,-1.29586 2.39559,-3.00479 3.8071,-4.02002 m -5.41764,-8.21335 3.97932,4.6e-4 c -0.0169,0.20844 -0.0254,0.39734 -0.26675,0.45005 -0.84754,0.18557 -1.98967,-0.0261 -2.86597,-0.0271 -0.41317,-2.6e-4 -0.76709,0.0516 -0.8466,-0.42343 m 0.16796,11.26068 1.43931,0.1695 c -0.19141,0.49807 -0.66554,0.38608 -1.10069,0.25386 -0.0399,0.28846 0.18954,0.8118 -10e-4,1.04463 -0.15836,0.19292 -0.3175,-0.0633 -0.36151,-0.203 -0.12949,-0.41252 -0.009,-0.84853 0.0242,-1.26499 m 1.01575,-0.59256 -0.0846,-1.27 c 0.42413,0.40374 0.56798,1.20632 0.59245,1.77807 l -1.52396,-0.25419 c 0.18462,-0.45845 0.60624,-0.27153 1.01603,-0.25388 m -0.9301,-9.82144 0.0847,0.0847 -0.0847,-0.0847 m 0.0827,16.42534 0.84654,1.0161 -0.33854,-1.01604 0.50793,0.59274 0.0847,2.8e-4 -0.0846,-0.84668 0.0847,2.9e-4 0.33861,0.42337 -0.16925,-0.76202 0.4233,0.33872 -0.25387,-1.01603 0.50792,0.67739 0.0847,2.8e-4 -1.01578,-1.77812 1.35449,1.4395 -0.76182,-1.43943 c 0.57316,0.22705 0.76106,0.71012 1.10052,1.18547 l -0.50785,-1.1854 0.0847,-0.0847 0.84655,1.0161 0.0847,2.8e-4 -0.76185,-1.27009 c 0.58844,-0.12964 0.78818,0.43435 1.18523,0.76215 l -0.6772,-1.10075 1.43918,1.27016 c -0.30383,-1.03304 -1.30534,-1.82768 -2.3705,-1.43961 0.13798,0.27459 0.13877,0.76785 -0.33026,0.60946 -0.93638,-0.31616 -0.0658,-1.22115 0.58433,-1.1933 0.74508,0.0319 1.49688,0.28136 2.00397,0.84574 0.2438,0.27053 0.51379,1.10097 0.95322,1.0537 0.38016,-0.041 0.75532,-0.72246 1.02204,-0.96854 0.61814,-0.57016 1.29466,-0.78675 2.11675,-0.68496 l -2.8e-4,0.0847 c -1.14981,0.34064 -2.12182,0.63432 -2.54024,1.94703 0.619,-0.59978 0.87225,-1.47031 1.86286,-1.52377 l -1.43955,1.77782 0.93145,-1.01589 -0.59282,1.26993 0.50805,-0.42327 -0.2541,0.84663 0.25403,-0.25397 c 0.48251,0.69382 0.72535,2.03844 0.76165,2.87876 l 0.254,-1.5e-4 c -0.0168,-0.79766 -0.3935,-1.60431 0.0359,-2.3694 0.376,-0.66941 1.57829,-0.86739 1.86436,2.3e-4 0.2793,0.84831 -0.98231,1.49383 -1.13798,0.50659 0.2997,0.12349 1.04392,0.13941 0.83148,-0.41832 -0.21329,-0.56298 -0.85341,-0.22126 -1.10237,0.0944 -0.5953,0.75531 -0.0383,1.66183 -0.4067,2.44055 l -0.25399,-0.0848 c -0.26853,1.12571 0.39333,3.05779 -1.18571,3.08664 -0.35813,0.007 -0.64344,-0.2286 -1.01597,-0.20823 l 1.3e-4,-0.33867 1.27002,-0.16918 2.9e-4,-0.0847 c -0.41404,0.1129 -0.83317,0.36862 -1.10066,-0.0849 l 1.60867,-0.0845 -0.93125,-0.73494 -0.83649,-0.0817 0.0492,-0.70756 0.19494,-1.6933 -0.59265,-0.0848 -2.8e-4,0.0847 c 1.03965,0.48391 0.0276,2.0717 -0.0884,2.87865 -0.0636,0.43924 0.21998,1.17444 0.34185,1.60871 0.37171,-0.15626 1.62393,-0.22908 2.00492,-0.10238 0.32849,0.10927 0.1828,0.69464 -0.016,0.85701 -0.41575,0.33852 -1.3056,0.33893 -1.81955,0.42395 -1.64001,0.27141 -3.25038,0.34505 -4.91069,0.34485 0.0458,-0.4599 0.20931,-1.61415 0.59288,-1.8626 l 2.8e-4,-0.0847 c -0.30477,-0.19748 -0.25394,-0.50913 -0.2539,-0.8467 0.90677,0.12128 1.27922,0.85081 2.28593,0.59295 l 2.8e-4,-0.0847 -2.28591,-0.67761 0.42504,-0.12196 1.09892,0.47647 1.27001,-0.10018 -0.42328,-0.50804 0.42333,4.1e-4 0.16938,-0.33865 -3.04803,0.25363 -1.18487,-3.81015 m 4.23424,-12.53128 c -0.0491,0.64862 -0.66816,1.16196 -1.10171,1.60853 -1.03306,1.06389 -1.91376,2.44359 -3.13222,3.30162 0.0204,-0.6184 0.45563,-1.00063 0.85278,-1.43922 0.71637,-0.78919 1.44883,-1.56548 2.14658,-2.37041 0.33871,-0.38995 0.7291,-0.94235 1.23457,-1.10052 m -0.25385,-1.18536 -1.524,-1.8e-4 -1.01601,-8e-5 c -0.19727,1e-5 -0.3954,-0.003 -0.59266,0.001 -0.12278,0.003 -1.18619,0.0519 -0.70947,-0.33807 0.21592,-0.17659 0.70359,-0.0866 0.96352,-0.0865 0.65278,-1.2e-4 2.71191,-0.34157 2.87861,0.42368 m -3.89434,-2.62526 c 0.48426,0.29301 0.76524,1.23607 0.84645,1.77811 -0.49442,-0.30816 -0.79064,-1.21735 -0.84645,-1.77811 m 1.86552,-23.45243 -0.0847,-0.0847 c 0.18133,-1.18294 -1.34099,-1.06205 -1.35469,0.0845 -0.73826,-0.23995 -0.17257,-1.10975 0.33884,-1.28224 0.77895,-0.26254 2.08945,0.8851 1.10051,1.28242 m -1.77857,4.74113 c 0.22859,0.0501 1.1921,-0.0427 1.25475,0.0479 0.13206,0.19069 -0.99999,0.6182 -1.25475,-0.0479 m 0.84122,44.78877 c 0.99141,0.29316 0.87278,1.12957 1.26977,1.86282 -0.33866,0.0428 -1.8356,0.32921 -1.96255,-0.11183 -0.13202,-0.45764 0.56234,-1.29736 0.69278,-1.75099 m -0.58949,-26.0774 c 0.35559,0.0616 0.42669,0.25922 0.50793,0.59272 l 0.16934,-4.3e-4 c 0.0814,-0.3335 0.15246,-0.53118 0.50807,-0.59262 l -0.42352,1.4393 -0.16934,4.3e-4 -0.59248,-1.4394 m 0.17014,-6.68864 1.86263,0.33888 c -0.34211,0.40923 -0.71548,0.29092 -1.18536,0.1692 -0.0433,0.47522 0.2141,0.89427 -0.16948,1.26998 l -0.50779,-1.77806 m 0.0847,-0.33866 c 0.36156,-0.34126 0.729,-0.20524 1.18535,-0.16919 -0.0829,-0.40235 -0.33432,-0.93324 0.16946,-1.10065 l 0.33848,1.60871 -1.69329,-0.33887 m 0.84884,-17.94924 -0.67734,0.0847 c 0.12706,-0.41926 0.4598,-0.47712 0.67734,-0.0847 m -0.36749,7.33776 0.0559,-0.0283 -0.0559,0.0283 m 1.21016,25.59768 0.0847,-0.0847 -0.0845,-1.18534 0.16933,-4.4e-4 0.42313,1.77805 -1.77796,-0.33888 c 0.25998,-0.4703 0.74509,-0.2832 1.18534,-0.16919 m -0.59481,17.27239 c -0.22028,1.26524 1.50523,1.20982 1.27002,-0.0845 0.96516,0.30501 0.0421,1.44637 -0.67751,1.41563 -0.67818,-0.0289 -1.62038,-1.16123 -0.59251,-1.33112 m -0.50596,-16.76409 1.60864,0.25419 c -0.16431,0.49444 -0.68753,0.28652 -1.1007,0.25387 0.0829,0.40235 0.33432,0.93324 -0.16947,1.10065 l -0.33847,-1.60871 m 0.50898,-8.12794 0.5925,1.4394 c -0.32426,-0.0557 -0.41399,-0.20071 -0.50794,-0.50807 l -0.16934,4.4e-4 -0.4234,0.50795 0.50818,-1.43927 m -0.25658,21.33552 0.0847,-0.0847 -0.0847,0.0847 m 0.25397,0.16936 c 0.8339,0.55772 1.7763,0.13636 2.70931,0.25433 -0.37329,-0.69364 -2.0362,-0.31834 -2.70931,-0.25433 m 0.0874,-21.84399 0.42332,4.1e-4 0.25393,0.5927 0.50807,-0.59261 -0.4235,1.43929 c -0.45632,-0.25991 -0.62896,-0.953 -0.76183,-1.43943 m 0.16687,20.31966 0.3387,-0.25396 c 0.42246,0.20232 0.75949,-0.23139 1.10063,0.3388 l -1.43933,-0.0849 m 0.0839,6.43471 0.67734,5e-5 4.4e-4,0.16934 c -0.31836,0.14322 -0.5004,0.1487 -0.67732,-0.16942 m 0.0851,-7.28136 0.76201,-0.0846 2.9e-4,-0.0847 -0.76202,0.16924 m 0.0878,-28.02466 c 0.50123,0.12977 1.33689,0.0634 1.43927,0.67751 l -1.01599,-0.0848 c 0.15742,0.42039 0.34701,0.9196 -1.3e-4,1.27 l -0.42312,-1.86272 m 10e-6,-0.25403 c 0.35989,-0.40323 0.78828,-0.26008 1.27002,-0.16918 -0.0617,-0.42198 -0.36902,-1.00656 0.16948,-1.18532 l -2.4e-4,1.69334 -1.43929,-0.33884 m 1.01653,-4.14854 0.0847,0.0847 c 0.44963,-0.37536 0.1661,-1.2682 -0.40375,-0.86687 -0.82134,0.57826 0.49335,2.07939 1.27581,0.95021 0.12532,-0.18093 0.17785,-0.38107 0.22868,-0.5912 0.39868,0.76729 -0.39732,1.84787 -1.25579,1.39066 -0.87454,-0.46628 -1.20448,-2.68026 0.23989,-2.28538 0.64429,0.17619 1.03615,1.40687 0.25041,1.67475 -0.41235,0.14048 -1.02357,-0.41466 -0.75259,-0.83424 0.28877,-0.44895 0.43262,0.2251 0.33268,0.47739 m -0.42229,-8.63605 0.0847,2.8e-4 -0.2298,2.79397 1.58353,4.8262 c -0.49862,-0.42779 -0.74154,-1.17832 -0.98191,-1.77813 -0.67797,-1.69366 -1.43375,-4.12284 -0.45649,-5.84205 m -0.26,49.44504 c 0.4124,-0.60735 0.21691,-1.44457 1.10087,-1.6932 l 0.76178,1.77809 c -0.49616,0.14659 -1.42243,0.21242 -1.86265,-0.0849 m 0.85004,-27.85527 c -0.0576,0.57632 -0.32106,1.39299 -0.7622,1.77791 -0.011,-0.50969 0.32613,-1.48975 0.7622,-1.77791 m 0.76127,6.0961 c -0.14558,-0.43012 -0.39104,-1.00513 0.0848,-1.26999 l 0.42312,1.86272 -1.94732,-0.25424 c 0.19905,-0.62965 0.93475,-0.25828 1.43939,-0.33849 m -1.3547,0.67717 1.6933,0.16954 c -0.24643,0.44599 -0.66381,0.30912 -1.10069,0.25386 0.0178,0.4131 0.2378,0.93729 -0.25413,1.10064 l -0.33848,-1.52404 m 0.17272,-27.93998 0.0847,2.9e-4 c -0.21962,2.77949 1.03745,4.66746 1.87111,7.19688 0.24037,0.72885 0.30118,1.86077 -0.60223,2.11661 0.14651,-0.366 0.38108,-0.70075 0.39552,-1.10816 0.0383,-1.08721 -0.84301,-2.21583 -1.20441,-3.20995 -0.59924,-1.64862 -0.86828,-3.25782 -0.54465,-4.99539 m 0.16438,40.7244 0.42332,0.0847 2.8e-4,-0.0847 -0.42332,-4.1e-4 m 0.005,-41.14759 0.0847,0.0847 -0.0847,-0.0847 m 0.50801,6e-5 c -0.24067,1.6349 -0.16973,3.09379 0.46086,4.65673 0.37411,0.92563 0.95567,1.76771 1.28406,2.70949 0.27168,0.77939 0.39853,2.02503 -0.47612,2.45528 0.12281,-0.45008 0.35063,-0.8766 0.33037,-1.35463 -0.0836,-1.95073 -1.55066,-3.7317 -1.92126,-5.6729 -0.13707,-0.71393 -0.37648,-2.31543 0.32209,-2.79397 m -0.25865,38.18464 c 0.59095,0.18786 2.2639,0.66288 2.54002,-0.16901 l -2.54,-2.6e-4 4.4e-4,0.16933 m 0.0841,0.84662 0.4233,0.33871 c 0.33107,-0.31262 0.69088,-0.0271 1.10065,1.7e-4 -0.30643,-0.40838 -1.05743,-0.373 -1.52395,-0.33885 m 0.68208,-39.03128 c -0.61754,2.7001 0.63272,4.73074 1.70094,7.1122 0.31063,0.69431 0.47811,1.97923 -0.26277,2.45531 0.0432,-0.43062 0.26257,-0.83123 0.21351,-1.26997 -0.11586,-1.04523 -0.75922,-1.95293 -1.207,-2.87882 -0.42915,-0.88778 -0.7025,-1.82948 -0.89628,-2.79411 -0.14638,-0.72477 -0.31044,-2.22584 0.4516,-2.62461 m -0.42572,19.55794 0.50807,-0.59259 -0.0847,-0.0847 -0.42336,0.16928 0.42343,-0.67727 -0.42335,0.0846 0.50809,-0.76195 -0.50801,0.0846 0.50809,-0.67726 -0.50801,0.0846 0.59275,-0.76192 -0.59268,0.0846 0.59274,-0.5926 -0.59267,3e-5 0.67743,-0.67725 -0.67736,0.16925 0.67742,-0.67726 -0.50802,0.16929 -0.0847,-0.0847 0.67739,-0.50792 2.8e-4,-0.0847 -0.50801,0.0846 -0.0847,-0.33868 0.59271,-0.33859 -0.59266,3e-5 0.76204,-0.42325 2.9e-4,-0.0847 -0.67735,0.0847 c 0.0711,-0.42917 0.36667,-0.47528 0.76205,-0.5079 l 2.9e-4,-0.0847 -0.67733,-5e-5 0.76208,-0.76191 -0.67735,0.16924 -0.0847,-0.25401 0.84673,-0.5079 -0.76202,0.16924 c 0.2007,-0.36107 0.44201,-0.47119 0.84673,-0.50789 l 2.8e-4,-0.0847 -0.76199,-0.0848 c 0.73079,-0.88019 2.52567,-0.48915 3.55608,-0.68029 0.46483,-0.0864 0.8899,-0.3847 1.35473,-0.44671 0.39117,-0.0522 1.02615,0.0272 1.10061,0.4504 l -1.01599,-0.0848 -6e-5,0.16932 c 0.35135,0.001 0.63838,-0.0327 0.76196,0.33877 l -1.01599,-0.0848 -7e-5,0.16934 0.76199,0.0847 -6e-5,0.16934 -0.0847,0.0847 -0.93134,-1e-4 -2.8e-4,0.0847 c 0.36405,0.002 0.7476,-0.0341 0.67728,0.42341 l -0.93133,-0.0848 4.4e-4,0.16934 0.762,1.4e-4 -0.0847,0.33865 -0.8467,0.16923 0.67735,6e-5 -5e-5,0.254 -1.01601,0.0845 -2.8e-4,0.0847 0.84665,0.0848 -1.1007,0.33854 -2.8e-4,0.0847 0.84665,0.0848 4.3e-4,0.16933 -1.01604,0.33856 0.76202,-0.0846 -1.01609,0.67723 0.84669,-0.0846 4.3e-4,0.16933 -1.01605,0.50788 0.762,-0.0846 -1.01609,0.76188 0.84669,-0.16924 -1.01609,0.76188 0.84668,-0.16923 -1.0161,0.76187 0.84669,-0.16922 -0.93142,0.76189 0.84668,-0.16924 -0.93144,0.84655 0.76202,-0.16923 -0.76208,0.76191 0.67735,-0.16926 -0.67742,0.76191 0.67735,-0.16924 -0.76211,0.84658 0.67737,-0.25392 -0.67745,0.93125 0.67737,-0.25393 -0.59276,0.76194 0.59269,-0.16926 -0.50808,0.67726 0.59267,-0.0846 -0.59276,0.76192 0.59269,-0.16925 -0.50809,0.67727 0.59269,-0.16926 -0.50809,0.76194 0.59269,-0.16927 -0.50809,0.76195 0.67735,-0.16927 -0.50808,0.67729 0.59269,-0.16928 c -0.43272,0.61446 -2.32165,0.69645 -3.0481,0.84631 l 2.8e-4,-0.0847 0.3387,-0.33862 -0.42334,0.0846 0.25406,-0.50797 -0.33868,0.0847 0.33875,-0.67729 -0.42334,0.0846 0.33873,-0.59262 -0.33867,0.0847 0.25409,-0.67731 -0.42334,-4.1e-4 0.33875,-0.59262 -0.33868,0.0847 0.33875,-0.76196 -0.42334,0.0846 0.4234,-0.59262 -0.50801,0.0846 0.42341,-0.59262 -0.42334,0.0846 0.42342,-0.76194 -0.50801,0.0846 m 0.58845,20.57442 -0.42326,-0.50804 c -0.0635,0.30301 0.16588,0.40379 0.42326,0.50804 m -0.50255,-44.78872 4.14867,5.2e-4 -1.10093,2.11652 c -0.39367,-0.18537 -0.65018,-0.4892 -0.7187,-0.93142 -0.0406,-0.26035 0.0805,-0.6841 -0.2319,-0.819 -0.16509,-0.071 -0.33358,0.0184 -0.43011,0.15547 -0.41918,0.59228 -0.3498,0.98659 -1.0746,1.42532 l -0.59243,-1.9474 m 0.84611,4.65675 c -0.25001,1.85671 -0.0317,3.42519 0.7131,5.16476 0.34195,0.79963 0.86425,1.54536 1.14018,2.37081 0.25728,0.77084 0.0548,1.8454 -0.66915,2.28592 0.14399,-0.57199 0.51575,-1.07165 0.48534,-1.69328 -0.0405,-0.80891 -0.6238,-1.50493 -0.9717,-2.20145 -0.51973,-1.0379 -0.91667,-2.16207 -1.14938,-3.30214 -0.13284,-0.64865 -0.34007,-2.35344 0.45161,-2.62462 m -0.51024,18.37262 0.0847,-0.0847 -0.0847,0.0847 m 0.30839,19.19117 0.0559,-0.0283 -0.0559,0.0283 m 0.003,-27.37561 0.0559,0.0283 -0.0559,-0.0283 m 1.72271,-11.71199 c 0.0112,-0.27744 0.0856,-0.61721 -0.1286,-0.83778 -0.513,-0.52906 -1.21325,-0.0664 -1.14136,0.58363 -0.71966,-0.12015 -0.3538,-0.96135 0.17032,-1.13002 0.88395,-0.28447 2.22407,0.94319 1.09964,1.38417 m 0.42005,27.00873 2.8e-4,-0.0847 -1.69333,-2.4e-4 -0.0847,-2.8e-4 -0.16935,0.16931 c 0.12879,-0.81245 1.29973,-0.76895 1.94744,-0.88563 0.90087,-0.1622 2.6205,-0.6424 3.44763,-0.0503 0.59515,0.42561 0.5941,2.13935 0.1978,2.69098 -0.44374,0.61819 -2.24463,0.87256 -2.88382,0.53129 -0.0517,0.24136 -0.1101,0.24161 -0.33869,0.16928 0.34636,-0.59381 1.55793,-0.54159 2.20141,-0.5924 l -10e-6,-0.0847 -4.31802,0.0842 c 0.17363,-0.52786 0.88989,-0.42068 1.35471,-0.42317 l 2.9e-4,-0.0847 c -0.40132,-8e-5 -0.94405,0.11843 -1.1853,-0.25414 l -0.0847,-2.8e-4 -0.0847,0.25398 -0.0847,-2.8e-4 c -0.0802,-0.82905 1.39962,-0.57547 1.94742,-0.67709 l 2.8e-4,-0.0847 c -0.49614,-5.2e-4 -1.48001,0.28972 -1.77798,-0.16955 l -0.25402,0.1693 c 0.0331,-0.71906 1.31072,-0.65346 1.86275,-0.6771 m -0.84675,-6.09525 0.16941,-0.50799 c -0.62912,0.31446 -1.07021,0.1344 -1.18527,-0.59281 -0.36333,0.87423 0.4935,0.86409 1.01586,1.1008 m -0.50565,-19.30407 c -0.41341,2.00223 0.15111,3.75337 0.95014,5.58811 0.25054,0.57517 0.66957,1.08602 0.84475,1.69344 0.2539,0.87785 0.0293,2.19786 -0.86475,2.62456 0.26593,-0.64234 0.6834,-1.21014 0.65555,-1.94725 -0.0262,-0.67598 -0.51038,-1.28057 -0.80326,-1.86277 -0.54343,-1.07965 -1.05469,-2.18123 -1.22895,-3.38681 -0.0981,-0.67921 -0.53732,-2.5487 0.44652,-2.70928 m 0.16662,22.43669 0.254,-1.5e-4 -0.25394,-0.50803 0.42337,-0.33861 c -0.99996,0.42744 -0.75429,-0.78538 -0.67717,-1.35476 l 0.25399,0.0847 0.16943,-0.76198 c -1.12279,0.92993 -0.60644,1.81247 -0.16968,2.87865 m 0.0816,25.06155 c 0.46143,0.0657 0.87541,0.40041 1.03876,0.84688 0.0974,0.26527 0.0414,0.69943 0.40376,0.77619 0.67394,0.14257 0.27025,-1.26514 0.69954,-1.56676 0.27604,-0.19359 0.54948,0.10593 0.73657,0.28432 0.49355,0.47165 1.14881,0.98363 1.43913,1.60722 l -3.21733,-3.1e-4 -1.69333,-3.4e-4 0.5929,-1.94726 m -0.53471,-10.10353 0.0559,-0.0283 -0.0559,0.0283 m -0.0543,-19.52982 0.42334,-0.0846 2.8e-4,-0.0847 -0.42335,0.16928 m -2.1e-4,-0.50803 0.25404,-0.33864 -0.25404,0.33864 m 0.25405,-0.42331 0.0847,2.8e-4 0.16936,-0.16931 0.59248,1.4394 0.0847,2.8e-4 -0.59246,-1.6934 c 0.50546,-0.0122 0.82468,-0.15339 0.93142,-0.67722 l -0.0847,-2.8e-4 c -0.40565,0.76348 -1.40131,0.62704 -1.21408,-0.33881 0.21095,-1.08304 2.04994,-1.31386 1.62845,-2.62448 -0.0957,-0.2982 -0.25732,-0.57762 -0.41391,-0.84671 l -0.0847,-2.8e-4 c 0.0991,0.28948 0.26155,0.55739 0.35296,0.8467 0.0541,0.16943 0.0567,0.33961 -0.006,0.50767 -0.55221,1.49312 -2.21736,-0.45146 -0.77038,-0.67708 l 2.8e-4,-0.0847 c -0.6892,0.0377 -1.15072,0.79539 -0.48869,1.30356 0.24805,0.19027 0.6189,0.1358 0.91184,0.13584 -1.30228,0.93607 -1.16603,1.44893 -1.10101,2.87852 m -0.002,10.92199 c 0.52243,-0.28747 1.11849,-0.3393 1.69336,-0.16912 l -0.25406,0.50797 0.16935,-0.16932 0.0847,2.9e-4 0.84662,0.42342 0.0847,2.9e-4 1.3e-4,-0.33867 0.93135,10e-5 -0.25405,0.33864 0.67737,-0.25392 -0.33878,0.84664 0.59273,-0.42327 -0.33879,0.93129 0.59272,-0.42326 -0.33877,0.84663 0.59272,-0.42326 -0.33876,0.76196 0.59271,-0.3386 -0.33876,0.76195 0.50805,-0.42326 -0.2541,0.84663 0.59272,-0.42326 -0.33878,0.84663 0.67739,-0.33859 -0.42343,0.67728 0.67738,-0.33858 -0.33876,0.76196 0.59271,-0.33859 -0.33876,0.76196 0.42338,-0.42328 0.16935,-4.4e-4 0.0847,0.0847 -0.33874,0.6773 0.59271,-0.42326 -0.2541,0.76197 0.59272,-0.3386 -0.33876,0.67729 0.59272,-0.42325 -0.25409,0.76197 0.67737,-0.33859 -0.4234,0.59261 0.76203,-0.2539 -0.33874,0.59262 0.67738,-0.33858 -0.42342,0.67728 0.76205,-0.42323 c -0.43529,0.89038 -2.10077,1.53533 -2.96357,1.96787 -0.30651,0.15346 -0.66807,0.41123 -1.01605,0.44268 -0.31666,0.0286 -0.63329,-0.20708 -0.9313,-0.29449 l -10e-6,-0.0847 c 0.23369,-0.077 0.47499,-0.14787 0.67567,-0.2971 1.63083,-1.21402 -1.08257,-2.59043 -2.19936,-2.32776 l 0.33873,-0.59263 -0.59268,0.16927 -4.4e-4,-0.16934 0.33871,-0.42329 -0.50802,0.25393 0.33874,-0.59263 -0.5927,0.25393 0.33874,-0.59262 -0.50803,0.25394 0.33876,-0.76196 -0.33871,0.33862 -0.16934,4.4e-4 -0.0847,-0.0847 0.25409,-0.67731 -0.42336,0.25395 -0.0847,-0.0847 0.33874,-0.59263 -0.50802,0.16927 0.33873,-0.67729 -0.42335,0.25395 0.16942,-0.76199 -0.42335,0.16928 0.16941,-0.67731 -0.33868,0.16929 c -0.10326,-0.31056 -0.0339,-0.42358 0.16941,-0.6773 l -0.42334,0.0846 0.25406,-0.50796 -0.33868,0.0847 -0.0847,-0.33867 0.25404,-0.25396 -0.33867,0.0847 -1.6e-4,-0.254 m 0.17043,-3.89524 0.0847,2.8e-4 4.1e-4,-0.42334 -0.0847,0.42334 m 0.17183,-23.96093 c 0.40554,0.23788 0.13945,2.04633 0.274,2.6247 0.15232,0.6583 0.3546,1.32168 0.61021,1.9474 0.63567,1.55786 2.44047,3.91182 0.46926,5.33406 -0.002,-0.84623 0.67413,-1.52417 0.46343,-2.45527 -0.1574,-0.69531 -0.64162,-1.31166 -0.94889,-1.94745 -0.75587,-1.56288 -1.59212,-3.79834 -0.86801,-5.50344 m -0.1721,22.77531 0.0847,-0.0847 -0.0847,0.0847 m 0.003,-26.162 c 0.32431,-0.3045 0.60624,-0.25494 0.76198,0.16943 l -0.76198,-0.16943 m 0.0818,23.87601 0.0847,-0.0847 -0.0847,0.0847 m 2.5e-4,-2.032 c 0.20322,-0.17777 0.20325,-0.41484 -2e-5,-0.59267 l 2e-5,0.59267 m 1.01693,-7.70454 c -0.40136,0.36969 -0.34133,1.0389 -1.01611,0.93121 0.38089,0.9428 0.90093,-0.61703 1.01611,-0.93121 m -0.93509,30.90322 0.33867,1.3e-4 -0.25404,0.25397 -0.0847,-0.25401 m 0.50748,4.65664 c -0.002,0.24054 -0.0661,0.56641 0.0769,0.77699 0.32167,0.47358 1.13194,0.36506 1.30727,-0.18542 0.0855,-0.26881 -0.083,-0.53011 -0.19886,-0.76076 1.02274,0.167 0.45108,1.45989 -0.33886,1.57646 -0.76625,0.11311 -1.85408,-1.01208 -0.8465,-1.40727 m -0.16631,-24.89201 -0.1693,-0.25403 0.1693,0.25403 m -0.16867,-5.50337 0.16935,-4.3e-4 c 0.055,-0.34383 0.21257,-0.50374 0.50802,-0.25394 0.0135,-0.56211 -0.6426,-0.18998 -0.67736,0.25391 m 0.0837,8.04381 0.0847,-0.0847 -0.0847,0.0847 m 1.5e-4,-1.27 0.25388,1.01603 0.0847,2.8e-4 c 10e-6,-0.2645 0.0695,-1.0883 -0.33855,-1.01604 m 0.0858,-9.39826 c 0.30228,-0.0647 0.26334,-0.24898 0.16939,-0.50798 l -0.0847,-2.9e-4 -0.0848,0.508 m 0.42497,-13.12302 c -0.11448,1.44457 -0.004,2.70163 0.54561,4.06407 0.3995,0.98938 1.13261,1.91183 1.35685,2.9635 0.16923,0.79173 0.0835,2.12353 -0.71828,2.53992 0.18634,-0.65387 0.5488,-1.32938 0.47945,-2.03195 -0.0845,-0.85666 -0.61703,-1.54863 -1.00556,-2.28611 -0.41647,-0.79187 -0.72201,-1.66575 -0.91155,-2.54012 -0.15231,-0.70445 -0.50518,-2.26761 0.25348,-2.70931 m -0.3437,41.65596 c 0.26337,-0.38639 0.68162,-0.42698 0.93134,10e-5 l -0.93134,-10e-5 m 0.002,-17.94932 0.0847,-0.0847 -0.0847,0.0847 m 0.25223,14.81669 0.0847,-0.0847 -0.0847,0.0847 m 0.0844,2.37067 0.76197,0.2541 c -0.21756,-0.24649 -0.43937,-0.37826 -0.76197,-0.2541 m 0.4283,-40.80928 c 0.10402,0.96818 -0.0562,1.81288 0.24434,2.79403 0.54927,1.79754 3.13714,5.008 1.10917,6.6888 0.0915,-0.91659 0.5463,-1.66694 0.27294,-2.62497 -0.4807,-1.67976 -1.61167,-3.05057 -1.90187,-4.82589 -0.10406,-0.64061 -0.17847,-1.512 0.27542,-2.03197 m -0.17513,47.66731 0.76199,1.4e-4 c -0.19732,0.46463 -0.58001,0.49379 -0.76199,-1.4e-4 m 0.67961,-18.62657 2.8e-4,-0.0847 -0.50792,-0.59273 c -0.0721,0.36846 0.1845,0.56407 0.50791,0.6774 m -0.50796,-2.37073 0.59266,-3e-5 2.9e-4,-0.0847 -0.59267,0.0846 m 0.42486,-14.90115 -0.0847,0.33864 0.0847,2.9e-4 0.5928,-1.01593 -0.0847,-2.9e-4 c -0.22275,0.63472 -0.83995,0.50062 -0.59264,-0.1694 -0.43776,0.25598 -0.30996,0.62489 0.0846,0.84669 m 0.0861,-11.684 c -0.20001,1.58231 0.22061,2.98758 0.92825,4.40277 0.34451,0.68856 0.7991,1.27882 1.0056,2.03213 0.22173,0.81054 0.40783,2.15523 -0.49562,2.62461 0.17194,-0.60645 0.38708,-1.22296 0.3245,-1.86263 -0.15559,-1.58532 -1.41104,-2.95894 -1.87144,-4.48756 -0.20735,-0.68785 -0.61864,-2.21123 0.10873,-2.70932 m -0.33993,10.15996 0.76194,0.59276 0.0847,2.8e-4 0.25407,-0.59263 -1.10067,-1.7e-4 m 0.0828,15.66307 0.0847,-0.0847 -0.0847,0.0847 m 0.5075,4.57207 -0.2539,-0.76203 c -0.13297,0.32976 -0.006,0.54551 0.2539,0.76203 m 1.7774,4.74155 0.33865,0.0847 c -0.16168,-0.23894 -0.52405,-0.21892 -0.56644,0.13455 -0.0687,0.58344 0.86694,0.4292 0.8814,-0.13476 0.0349,-1.41181 -1.81181,-0.43541 -2.12263,0.25399 -0.32097,0.71285 0.27328,1.59304 -0.13996,2.20131 -0.38682,-0.87346 -0.54671,-1.97135 0.0545,-2.79272 0.49707,-0.6787 1.8899,-1.12633 2.37407,-0.1687 0.37075,0.73284 -0.50738,1.8919 -1.19563,1.14684 -1.00317,-1.08708 1.32351,-1.34918 0.79508,-0.49842 -0.2134,0.34422 -0.46059,0.0471 -0.41907,-0.22679 m -1.26808,-15.49413 -0.33849,-1.43937 c 0.96352,-0.0741 1.19059,-1.53089 0.16953,-1.69331 l 0.42338,-0.33862 -0.16916,-1.43935 c 0.52913,0.2936 0.40968,0.91097 0.48496,1.43938 0.1895,1.32677 0.0199,3.35535 -1.24764,4.14853 0.0653,-0.40115 0.31165,-0.54251 0.67742,-0.67726 m -0.33629,-19.55805 c -0.0763,0.96596 -0.0722,1.78147 0.27314,2.70938 0.44521,1.19723 1.33408,2.18659 1.74965,3.38687 0.27253,0.78829 0.35535,2.03468 -0.33052,2.62463 0.067,-0.8216 0.2999,-1.45192 0.0934,-2.28599 -0.34951,-1.41126 -1.43225,-2.5538 -1.83425,-3.97955 -0.17602,-0.62232 -0.59326,-2.00354 0.0486,-2.45534 m -0.25757,29.20997 c 1.19891,-0.19492 1.28423,1.27712 0.93108,2.03212 l 0.59268,-0.0846 -0.25468,-1.35343 -0.59171,-0.93267 -0.67734,0.0847 1.6e-4,0.25401 m 0.16897,1.18527 0.254,-1.5e-4 2.8e-4,-0.0847 -0.25401,0.0847 m 0.0847,-2.28584 0.0847,-0.0847 -0.0847,0.0847 m 0.42674,-28.02463 c 0.0795,0.72891 -0.051,1.38404 0.17246,2.1167 0.4037,1.32439 1.33152,2.37573 1.83683,3.64088 0.24631,0.61522 0.46293,1.60788 -0.063,2.11667 9e-5,-0.70114 0.0239,-1.3656 -0.23259,-2.03204 -0.49007,-1.27268 -1.47546,-2.31513 -1.88,-3.64089 -0.17943,-0.58685 -0.42904,-1.79346 0.16621,-2.20132 m 1.26511,40.5555 c -0.4402,-0.46793 -0.98209,-0.26851 -1.20654,0.33852 -0.20835,0.55979 0.10566,1.43299 0.10559,2.03201 l -0.16934,4.4e-4 c -0.007,-0.84719 -0.46631,-1.71431 -0.0784,-2.53874 0.27016,-0.57308 1.29805,-0.86988 1.61462,-0.16126 0.2971,0.66382 -0.63941,1.39234 -1.00931,0.65925 -0.29795,-0.59117 0.46487,-0.41658 0.74341,-0.32976 m -0.76128,-5.84256 -0.42358,2.03195 -0.16933,4.4e-4 c -0.26407,-0.7804 -0.24195,-1.639 0.5929,-2.03193 m -0.76138,-4.99588 0.1693,0.33869 0.0847,2.9e-4 -0.25396,-0.3387 m 0.16946,-1.01626 0.0847,-0.0847 -0.0847,0.0847 m 0.083,14.39334 0.0847,0.0847 -0.0847,-0.0847 m 0.33909,-3.47129 0.0849,-1.77799 0.16934,-4.3e-4 c 0.40549,0.5111 0.99985,0.4685 1.37754,-0.0878 0.19815,-0.29284 0.0568,-0.70399 0.28289,-0.95907 0.55634,-0.62782 1.83825,-1.05837 2.5732,-1.47992 1.60117,-0.91894 3.188,-2.42869 4.91105,-3.06009 l 0.0827,16.67933 c -1.85928,-2.5e-4 -3.73382,0.13341 -5.588,0.007 -0.46228,-0.0317 -1.38179,0.22166 -1.72635,-0.11976 -0.32338,-0.32084 -0.5206,-0.84799 -0.74068,-1.24281 -0.59169,-1.06222 -1.62273,-2.63216 -1.6048,-3.89487 0.008,-0.56549 0.33714,-1.39307 0.50484,-1.94228 0.18041,-0.59069 1.10411,-0.42456 1.11691,-1.25072 0.012,-0.77641 -0.87196,-0.87057 -1.44346,-0.87098 m -0.0849,1.44006 c 0.35303,0.25438 0.28185,0.71911 0.1692,1.10069 l -0.1692,-1.10069 m -0.0798,-40.38601 1.27003,-0.16918 c -0.22526,0.34711 -0.94578,0.40543 -1.27003,0.16918 m 0.0846,1.016 c 1.20909,-0.3606 2.72293,-0.33833 3.97938,-0.33817 -0.011,0.26043 0.003,0.75175 -0.2321,0.92596 -0.34632,0.25769 -0.75184,-0.0121 -0.98643,0.51474 -0.58774,1.32049 1.20045,1.0965 1.81092,0.84537 -0.10769,1.35601 -0.62346,2.61799 -1.2493,3.80985 -0.16259,0.31019 -0.56657,1.25207 -1.03304,0.95983 -0.46733,-0.29233 -0.005,-1.43892 -0.131,-1.97597 -0.3918,-1.66019 -1.62861,-3.08486 -2.15843,-4.74161 m 1e-4,-0.76199 0.93134,10e-5 -0.93137,0.16923 -4.3e-4,-0.16935 m 5.4e-4,-0.67731 1.10067,1.7e-4 10e-6,0.0847 -1.01602,0.1692 -0.0847,-0.25401 m 0.16506,35.30599 0.50793,0.59274 c -0.49871,0.17493 -0.63669,-0.13885 -0.50793,-0.59274 m -0.0805,-34.20534 2.80843,-0.33063 1.0016,0.0771 c -0.9373,0.277 -2.85841,0.48233 -3.81003,0.25354 m 2.45557,-2.03168 c -0.49024,0.20364 -1.2006,0.28907 -1.69334,0.0845 0.43257,0.65275 -0.23884,0.67698 -0.76209,0.67725 0.22962,-1.28844 1.13299,-1.11958 2.20148,-1.1926 0.37678,-0.0258 1.29036,-0.30321 1.23948,0.34787 -0.067,0.85174 -1.47753,0.83768 -0.98553,0.0831 m -2.37007,-4.5724 2.37066,3e-4 c -0.13895,0.77095 -0.53262,0.55779 -0.96955,0.97219 -0.23202,0.22061 -0.0314,0.53636 -0.16605,0.79356 -0.16598,0.31663 -0.66806,0.36372 -0.98133,0.43532 l -0.25373,-2.20137 m 1.94267,38.35425 c 0.70368,-0.81627 1.62962,1.73772 0.43505,1.13433 -0.12191,-0.0614 -0.18794,-0.18528 -0.26583,-0.28765 l -0.0847,-2.9e-4 c 0.0964,0.475 0.67553,0.91288 1.01342,0.32746 0.54791,-0.94864 -0.70762,-1.56567 -1.4366,-1.5975 l 0.1694,-0.50798 -0.0847,-2.9e-4 c -0.70964,1.05453 -1.35129,0.0743 -1.52391,-0.76218 -0.55472,1.32217 1.06411,1.27597 1.7778,1.69356 m -1.43783,-12.36097 c 0.0466,0.30142 -0.0433,0.37412 -0.33873,0.4233 l 0.33873,-0.4233 m 0.59554,-23.70659 -0.76214,1.18523 c -0.002,-0.74515 -0.14211,-1.17713 0.76214,-1.18523 m -0.59753,40.04725 c 0.45639,-0.32904 0.6993,0.32275 0.0847,0.42334 l 0.16939,-0.4233 -0.254,1.5e-4 m 0.93318,-15.57874 c -0.62665,0.91407 -1.22842,-0.74953 -0.26753,-0.21103 0.0948,0.0533 0.18625,0.14464 0.26753,0.21103 m 7.79258,-26.75372 -0.001,8.97466 -5e-4,4.064 c -1.42818,-1.18348 -2.16103,-4.2087 -1.53174,-5.92228 0.27525,-0.74936 1.47846,-1.48588 1.22371,-2.28915 -0.36985,-1.16651 -1.46288,-1.31293 -2.4848,-1.41703 -0.2794,-0.0284 -0.72645,0.11226 -0.95418,-0.0785 -0.59345,-0.49596 0.11704,-1.63845 -0.99292,-1.77125 -1.49943,-0.17926 -0.74103,1.63312 -1.24402,2.1977 -0.16343,0.18313 -0.48601,0.12788 -0.7036,0.14317 -0.65786,0.0464 -1.38349,0.22598 -2.03201,0.0769 l 1.58701,-2.96314 0.64782,-0.96487 1.91432,-0.0509 4.572,5.3e-4 m -7.62196,15.4085 c 0.84918,0.23666 1.53988,1.70241 1.87422,2.45556 1.17146,2.64378 1.2134,5.86689 -0.11952,8.46666 -0.542,1.05743 -1.37785,2.62078 -2.68764,2.62435 0.23039,-0.82108 1.24225,-1.55264 1.71901,-2.2858 0.91288,-1.40129 1.3669,-3.10905 1.3417,-4.77708 -0.0227,-1.49655 -0.36032,-2.96853 -1.10184,-4.28223 -0.3589,-0.63605 -1.31977,-1.45202 -1.02589,-2.20146 m -0.93164,2.20123 c 0.0907,-1.18762 1.38516,-0.14275 0,0 m 0.25161,19.6427 9e-5,-0.50801 c -0.14734,0.19573 -0.19308,0.33688 -9e-5,0.50801 m -0.16869,-5.24936 0.33866,1.3e-4 -2e-5,-0.0847 -0.33867,0.0847 m 0.33811,4.74124 0.0847,-0.0847 -0.0847,0.0847 m 0.003,-22.69067 1.01599,0.0848 2e-5,0.0847 -1.01598,-0.16947 m 9.4e-4,-7.95862 1.18535,-0.0846 -7e-5,0.16932 -1.18535,0.0846 7e-5,-0.16933 m 9e-5,-0.762 1.016,8e-5 c -0.22102,0.34144 -0.64434,0.25393 -1.01603,0.25388 l 4e-5,-0.254 m 0.93138,-0.42318 -5e-5,0.25399 -0.93135,0.0846 c 0.17109,-0.44685 0.50976,-0.43784 0.93138,-0.33855 m -0.84837,14.39323 0.42333,4.1e-4 -0.0848,0.50798 -0.16935,4.4e-4 -0.16927,-0.50802 m 0.16883,4.57121 0.33866,1.3e-4 c -0.0254,0.32164 -0.0831,0.47546 -0.42338,0.42327 l 0.0848,-0.42331 m -0.0825,-18.11878 0.76201,-0.0846 c -0.2024,0.28599 -0.49196,0.28798 -0.76201,0.0846 m 0.50542,21.2514 c -0.0618,0.28371 -0.13552,0.37353 -0.4234,0.42329 0.0491,-0.29414 0.12959,-0.37456 0.4234,-0.42329 m -0.42173,-13.29272 0.42334,4.1e-4 1e-5,0.0847 -0.42333,-0.0847 m 3.46687,36.57602 c 0.21669,0.46247 0.38427,0.94095 0.84991,1.21515 1.02948,0.60583 2.37831,-0.15287 2.52068,-1.29941 0.23815,-1.90954 -1.31522,-4.02775 -2.22012,-5.58827 -0.35384,-0.6099 -0.69494,-1.40377 -1.23422,-1.86282 -1.20844,2.06851 -3.12559,4.46798 -3.29522,6.94227 -0.0908,1.32096 1.13084,2.50644 2.44749,1.82461 0.48941,-0.25369 0.70706,-0.75989 0.93148,-1.23153 m -3.38504,-13.37776 0.0847,-0.0847 -0.0847,0.0847 m 0.0872,-20.31999 0.33861,0.42339 -0.33866,-1.3e-4 1e-5,-0.42334 m 0.0841,4.99544 c 0.49363,-0.11238 0.53676,0.28589 0.0846,0.42334 l -0.0846,-0.42334 m 0.085,-2.54 0.76202,-0.16924 0.16927,0.50802 c -0.49025,0.27443 -0.8323,0.27592 -0.93129,-0.33878 m 0.84598,5.67277 -0.76198,-0.16942 c 0.14741,-0.70525 0.87044,-0.53084 0.76198,0.16942 m -0.42507,14.22395 0.59268,-3e-5 c -0.21673,-0.2149 -0.40214,-0.26556 -0.59268,3e-5 m 10e-4,-9.73666 0.59268,-0.0846 c 0.24708,1.19645 0.40188,2.36936 -4.4e-4,3.55601 l -0.51641,-0.43229 0.14918,-1.34577 -0.22502,-1.69335 m 0.84755,-7.1966 c -1.43933,-0.005 0.0771,-1.00566 0,0 m -0.59174,-7.62008 0.0847,2.9e-4 c 1.69228,1.6971 3.24061,3.53548 4.91341,5.2512 0.69079,0.70857 1.83878,1.49247 1.94364,2.53896 -0.61464,-0.28666 -0.9761,-0.89647 -1.46457,-1.34501 -1.45356,-1.33436 -2.78434,-2.86429 -4.10835,-4.32833 -0.43682,-0.48325 -1.68639,-1.42472 -1.3688,-2.11684 m -0.16828,-8.63628 0.84669,-0.16923 -2e-5,-0.0847 -0.76199,-0.0847 -2e-5,-0.0847 1.01601,-0.0846 -0.0847,0.254 0.33866,0.0847 -0.0847,0.25398 0.25397,0.25404 -1.18534,0.0846 c 0.19731,-0.30461 0.50887,-0.25368 0.84669,-0.2539 l -1e-5,-0.0847 -1.18532,-0.0849 m 0.50644,12.95404 0.16934,-4.4e-4 0.16929,0.42335 -0.33868,0.0847 9e-5,-0.508 m 0.33788,6.18113 c -0.6155,-0.20454 0.12455,-0.73946 0,0 m 0.67939,-16.93326 c 0.0992,-0.58292 0.30578,-1.08522 0.23982,-1.6933 -0.049,-0.44731 -0.34535,-0.76678 -0.43166,-1.18538 -0.11677,-0.56924 -0.0989,-1.69928 -0.0361,-2.286 0.0653,-0.60705 0.80029,-1.55169 1.43606,-0.87165 0.4402,0.47165 -0.0374,1.16129 -0.61479,0.87174 -0.35158,1.70489 0.45086,3.34684 0.12976,5.08002 -0.11521,0.62152 -0.78676,1.74776 -1.51056,0.9673 -0.62053,-0.66886 0.13729,-1.15797 0.7875,-0.88273 m 1.43884,3.89484 c 0.34535,0.73936 0.44429,1.65758 1.1004,2.20147 l 0.76227,-2.20124 c 0.5672,0.52483 1.96833,1.41053 2.20107,2.11694 l -2.03187,-1.10091 -0.93154,1.77788 c -0.62565,-0.30496 -0.99977,-1.13313 -1.18512,-1.77814 l -2.20146,1.01573 c 0.19736,-0.66944 1.7037,-1.6215 2.28625,-2.03173 m -1.94979,20.2351 0.16933,-4.4e-4 0.50789,0.9314 c -0.6189,-0.0635 -0.93552,-0.31668 -0.67722,-0.93142 m 0.84709,-3.47076 c -0.12537,0.49706 -0.37775,1.03009 -0.84682,1.26989 -0.21835,-0.77735 0.0314,-1.12462 0.84682,-1.26989 m -0.93227,7.61989 c 1.33188,-0.53122 2.76118,-1.57202 3.87973,-2.43819 0.7172,-0.55558 1.39716,-1.33307 2.30143,-1.5404 -0.003,0.77437 -0.44802,1.0488 -1.01619,1.51676 -1.01187,0.83334 -2.10754,1.59326 -3.2176,2.28849 -0.68163,0.42689 -1.45557,1.14917 -1.94737,0.17334 m 0.0653,-14.34533 c -0.083,-0.25553 0.32009,-0.40958 0.36662,-0.12373 0.0347,0.21505 -0.29129,0.35336 -0.36662,0.12373 m 1.37475,8.92683 -6e-5,0.16934 -1.27005,0.42318 c -0.16922,-1.04228 0.47764,-1.00799 1.27007,-0.59252 m -1.10074,0.93121 1.77809,-0.7618 7e-5,-0.16933 -1.77792,-0.67754 1.52429,-2.37049 -0.50825,2.03193 c 0.6426,0.12404 1.41048,0.58506 1.69319,1.18556 l -1.77814,1.10044 c 0.29373,0.5607 0.64755,1.21453 0.50777,1.86273 -0.65442,-0.38269 -1.1699,-1.50027 -1.43906,-2.2015 m 2.20329,-16.42508 -1.02354,-0.68034 -1.09313,0.68008 c 0.39896,-1.4016 1.59272,-1.12442 2.11667,2.5e-4 m -1.97494,-2.76603 0.0559,0.0283 -0.0559,-0.0283 m 0.028,-0.36686 0.508,-3.1e-4 -6e-5,0.16933 -0.50798,-0.16939 m 0.25101,24.8924 5.24977,-3.64002 c -0.87305,1.18607 -2.55973,2.18603 -3.81035,2.94559 -0.38357,0.23296 -0.98561,0.73716 -1.43942,0.69443 m 0.003,-25.31533 0.59266,0.0848 -7e-5,0.16934 -0.59266,-0.0848 7e-5,-0.16933 m 0.0842,3.89465 5.16466,6e-4 -4e-5,0.254 c -1.57141,-2e-4 -3.66019,0.35956 -5.16465,-0.0852 l 6e-5,-0.16934 m 4.9e-4,-4.23342 0.84664,0.16944 1e-5,0.0847 -0.84662,-0.25411 m 0.16934,-0.33864 0.93132,0.0848 2e-5,0.0847 -0.93131,-0.16944 m 0.0847,-0.42332 3.38665,0.0851 2e-5,0.0847 c -0.84839,0.25314 -2.65265,0.4082 -3.38664,-0.16974 m 0.0856,-7.61998 c 0.72135,0.0777 1.01851,0.21535 1.10054,1.01613 l 0.42332,0.0847 c -0.38196,1.03857 -1.69668,-0.30322 -1.52386,-1.10084 m 0.0838,7.11207 3.048,3.5e-4 c -0.2634,0.79312 -2.41559,0.40475 -3.04803,0.25364 l 5e-5,-0.254 m 2.96334,-0.25364 c -0.36238,0.10714 -0.72644,0.0686 -1.10067,0.10782 -0.2684,0.0281 -0.50208,0.0229 -0.76963,-0.003 -0.39793,-0.0392 -1.65181,-0.31152 -0.79152,-0.94895 0.2735,-0.20257 2.09891,-0.19109 2.3749,0.002 0.23705,0.16691 0.23785,0.58228 0.28692,0.8423 m -0.67694,-3.21723 -0.16921,-0.93135 -0.0847,-2.8e-4 -0.33871,0.33863 10e-6,0.0847 c 0.48341,0.31646 -0.30996,0.64114 -0.33863,-0.25404 l -0.33868,0.0847 2e-5,0.0847 c 0.22604,0.14667 0.22942,0.24912 0.16927,0.50803 -1.35628,-0.67802 0.39659,-2.91901 0.25413,-1.10064 l 0.0847,2.8e-4 c 0.0517,-0.65531 0.12545,-1.16711 -0.33846,-1.69337 l -2e-5,-0.0847 c 0.8679,-0.46954 1.1489,0.22229 1.18522,1.01614 l 0.0847,2.9e-4 -0.0846,-1.18535 c 0.74251,0.0587 0.78644,0.84702 0.67715,1.43942 l 0.0847,2.8e-4 c 0.0601,-0.32367 -0.10827,-0.89714 0.0196,-1.15679 0.20664,-0.42034 0.5283,0.22434 0.58076,0.39494 0.16504,0.53215 -0.0434,1.6262 -0.51585,1.9472 0.16507,0.26223 -0.0568,0.51324 -0.25233,0.22543 -0.19132,-0.28272 -0.0261,-0.75938 -0.002,-1.07213 l -0.0847,-2.8e-4 -0.33877,0.84662 10e-6,0.0847 c 0.12528,0.25274 -0.005,0.34475 -0.25405,0.42329 l 2e-5,0.0847 c 0.16933,-0.019 0.46823,-0.13229 0.62654,-0.0475 0.25991,0.13947 0.10067,0.69707 0.003,0.89051 -0.23882,0.46912 -0.69687,0.51943 -1.13712,0.34226 0.27933,0.58101 0.14806,0.92357 -0.50811,0.93128 l 9e-5,-0.508 -0.0847,-2.8e-4 c -0.1059,0.63363 -1.03384,0.53234 -0.84664,-0.16944 l 1.016,8e-5 c -0.26246,-0.0779 -0.60367,-0.0497 -0.82801,-0.22049 -0.34795,-0.26522 -0.57642,-1.30452 -0.0675,-1.5428 0.34208,-0.16024 1.32161,0.32799 1.82708,0.23941 m -1.94708,-2.2016 0.0847,2.8e-4 0.0846,0.93135 -0.254,1.5e-4 0.0848,-0.93132 m 0.15105,25.04523 c -0.0542,-0.21777 0.10589,-0.46549 0.17957,-0.66165 0.42771,-1.14227 1.71883,-0.76179 2.79917,-0.76166 0.34375,2e-4 1.19975,-0.16393 1.32755,0.26669 0.21242,0.7158 -0.40398,0.9897 -0.9044,1.3129 -1.04826,0.6772 -1.71295,1.12256 -2.79405,0.38389 -0.1998,-0.13661 -0.54352,-0.28143 -0.60784,-0.54017 m 0.0141,8.82099 2.79424,-2.00711 1.52412,-0.9557 c -0.54115,1.00992 -2.19225,1.8282 -3.13297,2.45497 -0.33615,0.22414 -0.76292,0.62337 -1.18539,0.50784 m 0.50805,0.33873 c 0.44199,-0.20907 0.78066,-0.17245 0.93129,0.33879 -0.42589,0.17579 -0.78233,0.144 -0.93129,-0.33879 m 0.003,-27.09333 1.18533,1.5e-4 c -0.25574,0.39443 -0.77981,0.21334 -1.18535,0.16919 l 6e-5,-0.16933 m 10e-6,-0.42335 1.18532,0.0849 2e-5,0.0847 -1.18533,-1.5e-4 6e-5,-0.16934 m 0.0845,0.84664 1.016,8e-5 -7e-5,0.16934 -1.016,-8e-5 7e-5,-0.16934 m 0.0846,0.42335 0.84666,0.0848 -0.84666,-0.0848 m 0.0815,26.50067 0.25401,-1.5e-4 6e-5,-0.16933 -0.254,1.5e-4 -7e-5,0.16933 m 0.0879,-26.162 0.50801,-3e-4 -6e-5,0.16934 -0.50801,3.1e-4 6e-5,-0.16935 m 8.5e-4,-6.94265 0.0847,2.8e-4 3e-5,-0.33868 -0.0848,0.33867 m 0.16782,13.54641 c 0.46477,0.45498 0.25382,1.50304 0.25374,2.1167 l -5e-4,4.14868 c -9e-5,0.70375 0.11496,1.52408 -0.085,2.20131 -0.39787,-0.52574 -0.16912,-1.7251 -0.16905,-2.37069 l 7.5e-4,-6.096 m 7.7e-4,-6.096 0.16934,-0.0847 -6e-5,0.16933 -0.16932,-0.0848 m 0.0841,4.57211 3.13266,3.4e-4 0.0843,3.30201 c -0.83053,-0.43578 -0.31554,-2.24056 -0.50763,-3.04805 -0.71546,0.19964 -2.04219,0.23605 -2.70932,-0.085 l 6e-5,-0.16934 m 1.1828,20.48948 c -0.88828,1.05653 -1.18778,-0.80117 -0.26753,-0.23913 0.0923,0.0563 0.19387,0.17131 0.26753,0.23913 m -0.76201,0.0846 0.33869,-0.16929 -0.33869,0.16929 m 10e-4,-10.75266 0.76212,-0.93125 -0.59268,3e-5 5e-5,-0.254 0.59267,-2e-5 c -0.18962,-0.26901 -0.55534,-0.53194 -0.65521,-0.84674 -0.1388,-0.43538 0.58601,-1.03812 0.82481,-1.35457 l -0.76199,-0.0847 6e-5,-0.16933 0.76201,-0.0846 c -0.23702,-0.33631 -0.78223,-0.68894 -0.86092,-1.10076 -0.0939,-0.49227 0.74607,-1.24968 1.03059,-1.60854 l -0.93133,-0.0848 7e-5,-0.16933 c 0.14732,-0.0435 0.27009,-0.0764 0.42503,-0.0814 1.66794,-0.0527 -0.17627,1.3218 -0.10605,1.85936 0.0685,0.53331 0.89145,0.73138 0.95743,1.27011 0.0702,0.57024 -0.85779,0.88804 -0.89257,1.43922 -0.0246,0.39684 0.63151,0.84683 0.88548,1.10078 l 1e-5,0.0847 c -0.32431,0.32398 -0.93995,1.28106 -1.43945,1.01582 m 0.67958,-19.55799 -9e-5,0.67734 c -0.78486,0.04 -0.65355,-0.51969 9e-5,-0.67734 m -0.59392,10.32926 c 0.48938,-0.01 1.47747,-0.31663 1.89653,0.0154 0.35218,0.27929 0.13528,1.59404 0.13523,2.01687 l -0.38926,-1.72699 -1.6425,-0.30526 m 4e-4,-3.2173 c 0.29975,-0.29859 0.75618,-0.93557 1.18122,-1.03753 0.47499,-0.1139 1.08364,0.77254 1.27409,1.12249 l -1.26991,-0.67343 -1.1854,0.58847 m 10e-4,-9.48267 0.0847,2.8e-4 4e-5,-0.254 -0.0847,0.25399 m 0.0847,-0.33893 0.0847,-0.0847 -0.0847,0.0847 m 0.0847,-0.33865 0.0847,2.8e-4 5e-5,-0.254 -0.0847,0.25399 m 0.3736,32.60482 c 0.14654,-0.48385 0.98471,-0.24084 0.79245,0.22947 -0.177,0.43457 -0.92119,0.19385 -0.79245,-0.22947 m -0.0357,-26.50905 0.67733,6e-5 2e-5,0.0847 -0.67734,0.0847 6e-5,-0.16932 m 0.16921,0.42329 0.67734,-0.0847 -7e-5,0.16934 -0.67732,-0.0848 m 1.01482,10.07555 -0.35827,1.10063 0.69667,1.18541 c -1.29535,-0.44609 -1.4036,-1.52001 -0.3384,-2.28604 m -0.84864,16.2559 0.16934,-4.4e-4 5e-5,-0.25399 -0.16935,4.3e-4 -4e-5,0.254 m 10e-4,-10.24467 1.1008,-1.01586 -2e-5,-0.0847 c -1.20047,-0.84572 -1.11065,-1.52609 0.085,-2.37066 -0.0365,0.49225 -0.54705,0.80943 -0.55642,1.2624 -0.007,0.32783 0.40126,0.55715 0.50536,0.85434 0.20736,0.58991 -0.4938,1.5938 -1.1347,1.35445 m 0.003,-22.43667 0.0847,2.9e-4 5e-5,-0.254 -0.0847,0.25398 m 0.16847,6.77308 0.50801,-0.0846 -7e-5,0.16933 -0.50799,-0.0848 m 0.41016,25.15241 c -0.0405,-0.47836 0.71802,-0.38879 0.71796,0.0628 8.1e-4,0.44832 -0.6833,0.3424 -0.71796,-0.0628 m -0.0715,-24.81369 0.33868,-0.0847 -0.33868,0.0847 m 0.25097,24.89203 0.33867,1.3e-4 -2e-5,-0.0847 -0.33868,0.0847 m 0.51198,-32.51207 c -0.0111,0.32834 -0.0424,0.51408 -0.33874,0.67729 l 0.33874,-0.67729 m 0.58885,31.4114 -2e-5,0.33867 -0.33868,0.0847 -7e-5,0.16933 0.33867,1.3e-4 -0.0847,0.33867 c -0.58416,-0.2816 -0.54177,-0.76665 0.0848,-0.93134 m -0.33701,-13.6315 c 0.46395,0.27124 0.33856,0.88041 0.33851,1.35471 l -4.8e-4,3.89466 -0.33867,-1.3e-4 6.4e-4,-5.24933 m 0.50493,25.23083 0.0847,0.0847 -0.0847,-0.0847 m 1.43688,19.38891 4.65666,6.1e-4 2e-4,-1.69333 -1.10066,-1.7e-4 1.91208,-2.53977 2.23721,-2.62439 -6.2e-4,5.08 -1.35466,-2.1e-4 -0.0849,1.77798 4.572,5.3e-4 -0.0845,-1.77801 -1.18534,0.0846 -0.0894,-3.30328 -0.0787,-7.19541 1.43933,2e-4 2.1e-4,-1.778 -4.572,-5.3e-4 -2.1e-4,1.778 1.35467,1.1e-4 -0.0714,2.28591 -1.70717,2.37054 -0.16935,4.4e-4 -2.37009,-4.65696 c 0.31411,-2.5e-4 0.9601,0.12247 1.21667,-0.0868 0.25571,-0.20842 0.25418,-1.48638 -0.0582,-1.63992 -0.34034,-0.16768 -0.95503,-0.0513 -1.32757,-0.0513 l -3.13267,-3.3e-4 -2.1e-4,1.778 c 0.35306,3.5e-4 0.85768,-0.0897 1.17685,0.0871 0.38437,0.21349 0.55108,0.81312 0.74493,1.18305 0.53159,1.01362 1.04962,2.03374 1.57951,3.04819 0.23955,0.4585 0.9354,1.42583 0.84812,1.94745 -0.1237,0.73522 -1.16352,1.62264 -1.61148,2.20113 -0.74094,0.95694 -1.31174,2.19647 -2.65453,1.94701 l -0.0849,1.77798 m 5.42096,-19.04979 c 0.21752,0.66822 0.45958,1.37344 1.10046,1.74741 1.36727,0.79772 3.29185,-0.11636 3.38349,-1.74686 0.19686,-3.5 -2.80161,-7.05519 -4.48274,-9.90654 -0.68673,0.67903 -1.1593,1.7876 -1.64454,2.62447 -1.21269,2.08773 -3.10785,4.73249 -2.85755,7.28098 0.14799,1.49795 1.83273,2.58789 3.23066,1.82775 0.75443,-0.41028 0.94926,-1.10359 1.27022,-1.82721 m 2.90717,-1.52341 0.0288,-0.0282 c 0.0135,0.0417 -0.0288,0.0936 -0.0288,0.0282 m -53.78281,-63.11866 c 2.64703,-0.0149 12.93948,0.0398 23.6089,0.13022 2.11969,0.0177 8.02333,0.0628 13.12273,0.0992 5.09909,0.0364 11.67163,0.0836 14.60478,0.10697 l 5.19141,0.0403 0.42426,0.22738 c 0.57341,0.30656 1.35581,1.1003 1.58491,1.56372 l 0.18656,0.38034 0.0129,4.60541 c 0.0103,3.78237 0.003,12.61649 -0.0124,20.70571 -0.0151,8.08922 -0.0392,15.49361 -0.0563,16.23622 -0.0205,0.88429 -0.0367,7.87741 -0.0403,15.67811 -0.004,8.12716 -0.0157,14.33266 -0.0351,18.5508 -0.01,2.10908 -0.0222,3.72226 -0.0357,4.82813 -0.007,0.55294 -0.0125,0.97915 -0.0201,1.27538 -0.004,0.14811 -0.009,0.26408 -0.0124,0.34364 -0.004,0.0796 -0.0172,0.15865 -0.003,0.0816 -0.0653,0.34517 -0.41862,0.95417 -0.91207,1.40199 -0.69143,0.62746 -1.193,0.88178 -1.80559,0.97203 -0.22445,0.0331 -0.72689,0.0665 -1.15083,0.0796 -0.21196,0.007 -0.40868,0.009 -0.54518,0.006 -0.06,-10e-4 -0.10115,-0.005 -0.1266,-0.007 -0.005,-0.002 -0.016,-0.004 -0.016,-0.004 -5e-4,-1.3e-4 -0.048,-0.01 -0.0605,-0.0119 -0.0249,-0.004 -0.0342,-0.005 -0.0444,-0.006 -0.0206,-0.002 -0.0352,-0.002 -0.0512,-0.003 -0.0319,-10e-4 -0.0691,-0.003 -0.11678,-0.005 -0.0954,-0.003 -0.23061,-0.006 -0.40257,-0.009 -0.34393,-0.006 -0.8351,-0.0114 -1.44126,-0.0176 -1.2123,-0.0123 -2.87817,-0.0245 -4.70667,-0.0346 -3.65501,-0.0204 -8.32524,-0.0517 -10.37301,-0.0682 -5.82634,-0.047 -12.05683,-0.0887 -19.00764,-0.12609 -3.51557,-0.0189 -9.19448,-0.0518 -12.61679,-0.0739 l -6.09161,-0.0382 -0.47492,-0.22789 c -0.54539,-0.26185 -1.26953,-0.93933 -1.66087,-1.59577 l -0.21654,-0.3607 -0.0294,-17.41289 c -0.0289,-16.53716 0.0195,-44.22993 0.10438,-58.63725 l 0.0377,-6.30452 0.26768,-0.52969 c 0.45784,-0.90798 1.63296,-1.76239 2.32339,-1.83555 -0.0397,0.004 0.0454,-0.001 0.1483,-0.003 0.10697,-10e-4 0.25778,-0.002 0.44751,-0.003 z m -0.54311,-0.51263 -0.40516,0.1111 c -1.01258,0.27946 -2.1504,1.24016 -2.61379,2.20659 l -0.25474,0.53123 -0.0217,3.85351 c -0.0463,8.24007 -0.0644,19.62764 -0.0486,30.91284 0.005,3.23712 0.007,7.4478 0.006,9.35757 -0.003,4.89627 10e-4,10.04993 0.0196,21.29896 0.0181,10.92558 0.0189,13.03863 0.006,15.38717 -0.006,1.117 0.0246,1.72558 0.0972,1.94562 0.27593,0.83552 1.26785,1.80845 2.33008,2.28513 l 0.55089,0.24701 2.08049,0.0181 c 1.86233,0.0164 5.37435,0.0241 16.51993,0.0346 5.88227,0.006 7.15687,0.008 10.07845,0.0233 1.56054,0.008 3.82797,0.0118 5.03896,0.01 2.64539,-0.005 4.62786,0.004 7.79279,0.0367 1.30451,0.0128 4.31507,0.0227 6.69055,0.0207 2.37548,-0.002 5.19573,0.007 6.26732,0.0196 2.23091,0.0267 2.5949,-0.001 3.21066,-0.24804 0.87249,-0.34939 1.77935,-1.215 2.21742,-2.11719 0.21783,-0.44885 0.25686,-1.44718 0.22376,-5.72316 -0.014,-1.83957 -0.0178,-3.87867 -0.009,-4.53099 0.009,-0.65231 0.009,-3.18653 -5.1e-4,-5.6317 -0.01,-2.44517 -0.0187,-6.1036 -0.0207,-8.12974 -10e-4,-2.02614 -0.003,-4.59857 -0.004,-5.71644 0,-1.11788 6e-5,-2.77568 0.002,-3.68401 0.002,-0.90833 9.2e-4,-2.64203 -0.002,-3.853 -0.003,-1.21097 -0.005,-3.80247 -0.003,-5.75882 0.002,-1.95631 -10e-4,-6.2057 -0.005,-9.44283 -0.004,-3.23711 -0.005,-7.42869 -0.002,-9.3152 0.003,-1.88651 3.2e-4,-5.31676 -0.006,-7.62227 -0.0157,-5.84852 -0.007,-10.7462 0.0228,-12.19564 l 0.0243,-1.22886 -0.36433,-0.68472 c -0.46773,-0.87956 -1.19369,-1.5841 -2.03914,-1.97817 l -0.60926,-0.2837 -6.30454,-0.016 c -3.4679,-0.009 -7.04924,-0.0219 -7.95764,-0.0269 -0.90842,-0.005 -3.21393,-0.012 -5.12372,-0.0139 -9.56477,-0.0126 -12.59695,-0.0191 -15.20217,-0.0326 -0.76864,-0.004 -2.25509,-0.008 -3.30316,-0.0103 -1.04807,-10e-4 -3.9637,-0.0102 -6.4792,-0.0202 -2.51547,-0.01 -6.33478,-0.0208 -8.48733,-0.0258 z" />
  </g>
</svg>
