<?xml version="1.0" encoding="UTF-8" standalone="no"?>
<svg
   sodipodi:docname="10C.svg"
   id="svg8"
   version="1.1"
   viewBox="0 0 63.102371 88.347832"
   height="88.347832mm"
   width="63.102371mm"
   inkscape:version="1.1.1 (1:1.1+202109281949+c3084ef5ed)"
   inkscape:export-filename="/home/doug/k40/52Cards/10C.png"
   inkscape:export-xdpi="96"
   inkscape:export-ydpi="96"
   xmlns:inkscape="http://www.inkscape.org/namespaces/inkscape"
   xmlns:sodipodi="http://sodipodi.sourceforge.net/DTD/sodipodi-0.dtd"
   xmlns="http://www.w3.org/2000/svg"
   xmlns:svg="http://www.w3.org/2000/svg"
   xmlns:rdf="http://www.w3.org/1999/02/22-rdf-syntax-ns#"
   xmlns:cc="http://creativecommons.org/ns#"
   xmlns:dc="http://purl.org/dc/elements/1.1/">
  <defs
     id="defs2">
    <marker
       style="overflow:visible"
       id="marker2995"
       refX="0"
       refY="0"
       orient="auto"
       inkscape:stockid="Arrow1Lstart"
       inkscape:isstock="true">
      <path
         transform="matrix(0.8,0,0,0.8,10,0)"
         style="fill:#000000;fill-opacity:1;fill-rule:evenodd;stroke:#000000;stroke-width:1pt;stroke-opacity:1"
         d="M 0,0 5,-5 -12.5,0 5,5 Z"
         id="path2993" />
    </marker>
    <marker
       style="overflow:visible"
       id="marker2985"
       refX="0"
       refY="0"
       orient="auto"
       inkscape:stockid="Arrow1Lstart"
       inkscape:isstock="true">
      <path
         transform="matrix(0.8,0,0,0.8,10,0)"
         style="fill:#000000;fill-opacity:1;fill-rule:evenodd;stroke:#000000;stroke-width:1pt;stroke-opacity:1"
         d="M 0,0 5,-5 -12.5,0 5,5 Z"
         id="path2983" />
    </marker>
    <marker
       style="overflow:visible"
       id="marker2791"
       refX="0"
       refY="0"
       orient="auto"
       inkscape:stockid="Arrow1Lstart"
       inkscape:isstock="true">
      <path
         transform="matrix(0.8,0,0,0.8,10,0)"
         style="fill:#000000;fill-opacity:1;fill-rule:evenodd;stroke:#000000;stroke-width:1pt;stroke-opacity:1"
         d="M 0,0 5,-5 -12.5,0 5,5 Z"
         id="path2789" />
    </marker>
    <marker
       style="overflow:visible"
       id="marker2781"
       refX="0"
       refY="0"
       orient="auto"
       inkscape:stockid="Arrow1Lstart"
       inkscape:isstock="true">
      <path
         transform="matrix(0.8,0,0,0.8,10,0)"
         style="fill:#000000;fill-opacity:1;fill-rule:evenodd;stroke:#000000;stroke-width:1pt;stroke-opacity:1"
         d="M 0,0 5,-5 -12.5,0 5,5 Z"
         id="path2779" />
    </marker>
    <marker
       style="overflow:visible"
       id="marker2417"
       refX="0"
       refY="0"
       orient="auto"
       inkscape:stockid="Arrow1Lstart"
       inkscape:isstock="true">
      <path
         transform="matrix(0.8,0,0,0.8,10,0)"
         style="fill:#000000;fill-opacity:1;fill-rule:evenodd;stroke:#000000;stroke-width:1pt;stroke-opacity:1"
         d="M 0,0 5,-5 -12.5,0 5,5 Z"
         id="path2415" />
    </marker>
    <marker
       style="overflow:visible"
       id="marker2383"
       refX="0"
       refY="0"
       orient="auto"
       inkscape:stockid="Arrow1Lstart"
       inkscape:isstock="true">
      <path
         transform="matrix(0.8,0,0,0.8,10,0)"
         style="fill:#000000;fill-opacity:1;fill-rule:evenodd;stroke:#000000;stroke-width:1pt;stroke-opacity:1"
         d="M 0,0 5,-5 -12.5,0 5,5 Z"
         id="path2381" />
    </marker>
    <marker
       style="overflow:visible"
       id="marker2355"
       refX="0"
       refY="0"
       orient="auto"
       inkscape:stockid="Arrow1Lstart"
       inkscape:isstock="true">
      <path
         transform="matrix(0.8,0,0,0.8,10,0)"
         style="fill:#000000;fill-opacity:1;fill-rule:evenodd;stroke:#000000;stroke-width:1pt;stroke-opacity:1"
         d="M 0,0 5,-5 -12.5,0 5,5 Z"
         id="path2353" />
    </marker>
    <marker
       style="overflow:visible"
       id="Arrow1Lstart"
       refX="0"
       refY="0"
       orient="auto"
       inkscape:stockid="Arrow1Lstart"
       inkscape:isstock="true">
      <path
         transform="matrix(0.8,0,0,0.8,10,0)"
         style="fill:#000000;fill-opacity:1;fill-rule:evenodd;stroke:#000000;stroke-width:1pt;stroke-opacity:1"
         d="M 0,0 5,-5 -12.5,0 5,5 Z"
         id="path2071" />
    </marker>
  </defs>
  <sodipodi:namedview
     id="base"
     pagecolor="#ffffff"
     bordercolor="#666666"
     borderopacity="1.0"
     inkscape:pageopacity="0.0"
     inkscape:pageshadow="2"
     inkscape:zoom="1.5033853"
     inkscape:cx="86.138929"
     inkscape:cy="167.28912"
     inkscape:document-units="mm"
     inkscape:current-layer="layer1"
     inkscape:document-rotation="0"
     showgrid="false"
     inkscape:snap-smooth-nodes="false"
     inkscape:object-nodes="false"
     inkscape:window-width="1366"
     inkscape:window-height="712"
     inkscape:window-x="0"
     inkscape:window-y="0"
     inkscape:window-maximized="1"
     inkscape:object-paths="false"
     inkscape:snap-intersection-paths="false"
     inkscape:snap-midpoints="false"
     inkscape:snap-others="false"
     inkscape:pagecheckerboard="0"
     showguides="true"
     inkscape:guide-bbox="true"
     inkscape:snap-bbox="true"
     showborder="false"
     fit-margin-top="0"
     fit-margin-left="0"
     fit-margin-right="0"
     fit-margin-bottom="0" />
  <metadata
     id="metadata5">
    <rdf:RDF>
      <cc:Work
         rdf:about="">
        <dc:format>image/svg+xml</dc:format>
        <dc:type
           rdf:resource="http://purl.org/dc/dcmitype/StillImage" />
      </cc:Work>
    </rdf:RDF>
  </metadata>
  <g
     inkscape:label="Layer 1"
     inkscape:groupmode="layer"
     id="layer1"
     transform="translate(-28.489861,475.26821)">
    <path
       style="fill:#000000;stroke-width:0.0846667"
       id="path389"
       d="" />
    <path
       id="path15637"
       style="fill:#000000;fill-opacity:1;stroke:none;stroke-width:0.0846667;stroke-opacity:1"
       d="m 36.399955,-475.26806 0.0036,5.3e-4 c -1.120299,0.001 -2.135857,0.005 -2.776058,0.0124 l -2.32854,0.0258 -0.577742,0.29609 c -0.742301,0.37987 -1.689126,1.33263 -1.982824,1.99525 l -0.20774,0.46921 -0.0098,4.57285 c -0.01,2.5151 -0.01419,5.35429 -0.02119,6.30918 -0.01,0.9549 -0.0098,3.88911 -0.0098,6.52052 0,2.63136 0.01,5.88917 0,7.23987 0,1.35067 -1.61e-4,6.68594 0.0098,11.85561 0.01,5.16967 0.01034,10.48584 0.01034,11.81322 0,1.32744 -8.2e-5,4.87109 0.01292,7.87498 0.018,5.89952 0.01904,6.55408 0.03204,17.7519 0,4.10523 0.01195,7.74896 0.01395,8.09665 l 0.001,0.63201 0.193786,0.36793 c 0.326801,0.62013 0.797727,1.15573 1.381829,1.572 0.9935,0.7077 1.033362,0.71374 4.924764,0.71469 1.327399,3.2e-4 3.09976,0.007 3.938259,0.0139 2.489102,0.0218 5.158174,0.0307 9.823175,0.031 2.421898,1.9e-4 4.975272,0.0104 5.674071,0.0233 0.6989,0.0129 3.156699,0.0254 5.462199,0.0284 2.3055,0.003 5.697625,0.0147 7.537524,0.0264 1.839942,0.0117 5.956088,0.0336 9.146728,0.0491 3.190629,0.0154 7.019983,0.0369 8.510592,0.048 3.074382,0.023 3.482375,-9.8e-4 3.990454,-0.23717 h 0.0041 c 1.012166,-0.47017 2.154933,-1.68206 2.345592,-2.48772 0.0404,-0.171 0.07765,-2.38741 0.08165,-4.9258 0.0142,-8.09744 0.0079,-17.79326 -0.01395,-21.67877 -0.0116,-2.07235 -0.02284,-5.92053 -0.02584,-8.55194 -0.002,-2.63139 -0.008,-7.01387 -0.0124,-9.73841 -0.02,-13.76802 -0.02385,-26.62161 -0.01033,-33.09774 l 0.01033,-4.60282 -0.293524,-0.55758 c -0.52456,-0.99566 -1.775185,-2.04706 -2.610175,-2.1947 -0.440111,-0.0778 -2.166292,-0.0939 -12.873633,-0.11834 -1.257559,-0.003 -2.800874,-0.0116 -3.429764,-0.0186 -0.628891,-0.007 -2.382206,-0.0131 -3.895887,-0.0129 -2.818241,4e-4 -12.303469,-0.0289 -15.793868,-0.0486 -1.0713,-0.006 -3.529197,-0.0179 -5.462198,-0.0269 -1.932998,-0.009 -5.248725,-0.026 -7.368027,-0.0367 -1.059698,-0.005 -2.285177,-0.007 -3.405476,-0.006 z m -4.049882,0.50797 v 5.3e-4 h 5.16e-4 c 2.647001,-0.0141 12.939496,0.0446 23.608895,0.13848 2.119702,0.0184 8.023395,0.0648 13.122714,0.10285 5.099101,0.038 11.671671,0.0878 14.604794,0.11213 l 5.191413,0.0419 0.424262,0.22739 c 0.573299,0.30673 1.354934,1.10074 1.583883,1.56424 l 0.187069,0.38034 0.01137,4.60592 c 0.009,3.78237 -0.002,12.61599 -0.01964,20.7052 -0.0178,8.08922 -0.044,15.49414 -0.06149,16.23674 -0.0207,0.88429 -0.03929,7.87691 -0.04547,15.6776 -0.006,8.12718 -0.02002,14.33263 -0.04082,18.55081 -0.0104,2.10904 -0.02331,3.72226 -0.03721,4.82811 -0.007,0.55296 -0.01297,0.97915 -0.02067,1.27537 -0.004,0.14809 -0.009,0.26408 -0.0124,0.34364 -0.004,0.0796 -0.0173,0.1591 -0.0031,0.0822 -0.0654,0.34515 -0.419007,0.95377 -0.912606,1.40148 -0.691621,0.62722 -1.193474,0.88093 -1.806091,0.97099 -0.22447,0.033 -0.726924,0.0666 -1.150834,0.0796 -0.21196,0.007 -0.408686,0.009 -0.545187,0.006 -0.06,-0.001 -0.101127,-0.005 -0.126609,-0.007 -0.005,-0.002 -0.0155,-0.004 -0.0155,-0.004 -5.29e-4,-1.3e-4 -0.04796,-0.0105 -0.06046,-0.0124 -0.0249,-0.004 -0.03466,-0.005 -0.04496,-0.006 -0.0206,-0.002 -0.03474,-0.001 -0.05064,-0.002 -0.0319,-0.002 -0.06959,-0.004 -0.117306,-0.005 -0.0954,-0.003 -0.2306,-0.006 -0.402561,-0.009 -0.343945,-0.006 -0.835094,-0.0117 -1.441254,-0.0181 -1.212292,-0.0127 -2.878153,-0.0255 -4.706691,-0.0362 -3.654978,-0.0216 -8.325268,-0.0541 -10.373008,-0.0713 -5.826371,-0.0488 -12.056309,-0.0927 -19.007109,-0.1323 -3.5156,-0.02 -9.194919,-0.0549 -12.617317,-0.078 l -6.091619,-0.0403 -0.474905,-0.22791 c -0.545301,-0.26202 -1.269164,-0.93972 -1.660364,-1.59628 l -0.216009,-0.36121 -0.02377,-17.41239 c -0.024,-16.53717 0.03401,-44.23045 0.123505,-58.63775 l 0.03979,-6.30452 0.267684,-0.52917 c 0.4581,-0.90784 1.63349,-1.76157 2.323888,-1.83451 -0.04,0.004 0.04501,-0.002 0.148313,-0.003 0.107,-9.8e-4 0.257818,-0.002 0.447518,-0.003 z m -0.617016,3.56309 c -0.402823,10e-4 -0.726352,0.0209 -0.752927,0.047 -0.03007,0.0301 -0.04351,0.55362 -0.02687,1.16375 0.03682,1.42925 0.0472,7.55636 0.01757,10.52906 l -0.02325,2.30685 0.930175,0.01 0.930177,0.0103 -10e-4,-4.00079 c -0.0051,-2.20043 -0.0095,-4.85817 -0.02119,-5.9061 -0.01168,-1.04791 -0.01519,-2.40972 -0.0098,-3.02671 l 0.0124,-1.12188 -0.878499,-0.0104 c -0.06015,-6.1e-4 -0.11919,-10e-4 -0.176734,-10e-4 z m 6.84816,0.0455 c -0.196466,-3.1e-4 -0.418412,1.9e-4 -0.669726,5.3e-4 l -5.16e-4,5e-4 c -1.826612,0.003 -2.159312,0.0225 -2.456699,0.15296 -0.397788,0.17412 -0.668033,0.44482 -0.802534,0.8041 h -5.19e-4 c -0.09557,0.25497 -0.16755,10.31359 -0.08165,11.43185 0.05343,0.70387 0.302315,1.13577 0.799952,1.38906 0.384365,0.196 0.458099,0.20182 2.453079,0.21344 1.131186,0.006 2.198848,-0.0249 2.371949,-0.0698 0.497486,-0.1284 0.879153,-0.5415 1.000456,-1.08106 0.101404,-0.4512 0.134546,-5.43245 0.06563,-9.95238 -0.02622,-1.713 -0.03497,-1.79073 -0.239778,-2.14871 -0.152009,-0.26567 -0.324509,-0.42421 -0.604613,-0.55706 -0.32612,-0.1547 -0.459766,-0.18118 -1.835031,-0.18346 z m -0.83199,1.71051 c 0.08938,1.6e-4 0.180832,10e-4 0.273368,0.002 v -5.3e-4 c 1.325774,0.0138 1.346599,0.0165 1.389578,0.20466 0.02376,0.10504 0.02852,2.4579 0.01137,5.22861 l -0.03359,5.03793 -1.432988,0.008 c -0.788115,0.004 -1.464101,-0.0227 -1.501717,-0.061 l 5.18e-4,-5.3e-4 c -0.03692,-0.0383 -0.06954,-2.37614 -0.07131,-5.19554 -0.0032,-4.82262 0.0016,-5.12985 0.144695,-5.1816 0.07094,-0.0264 0.594379,-0.0436 1.220081,-0.0424 z m 5.914885,10.7828 -0.03307,5.31233 c -0.01654,2.92219 -0.03024,6.09436 -0.02791,7.04919 0.0023,0.9548 -0.0099,3.81254 -0.0279,6.3505 -0.02311,2.53791 -0.03165,5.5861 -0.03049,6.77376 0.0012,1.18763 -0.0092,4.23627 -0.02532,6.77426 -0.01311,2.53804 -0.02308,5.01441 -0.01654,5.50354 0.0066,0.48914 -0.0041,3.42318 -0.02222,6.52002 -0.01814,3.09682 -0.02912,5.72596 -0.02119,5.84253 0.0089,0.11655 -0.0014,1.25384 -0.01292,2.52802 l -0.03101,2.31716 6.794934,0.0636 c 3.736938,0.0346 7.498924,0.0587 8.36073,0.0506 0.861804,-0.008 4.709708,0.0177 8.551418,0.0563 3.841604,0.0389 7.499945,0.0665 8.128701,0.063 l 1.143085,-0.008 0.03721,-2.22983 c 0.02114,-1.22658 0.04928,-4.28781 0.05219,-6.80268 0.0088,-2.51481 0.02763,-7.33462 0.04031,-10.71097 0.01269,-3.3764 0.0246,-7.47225 0.02842,-9.1023 0.0028,-1.62999 0.01772,-4.79269 0.03204,-7.02799 0.01033,-2.23531 0.0243,-4.99756 0.02171,-6.13865 -0.0036,-1.14112 0.01232,-4.52726 0.03255,-7.52409 l 0.04341,-5.44825 -5.300453,-0.0403 c -2.914925,-0.021 -6.404843,-0.0402 -7.755599,-0.0403 -1.350558,-2.6e-4 -5.274953,-0.0258 -8.720915,-0.0569 -3.445963,-0.0306 -6.874539,-0.0541 -7.619688,-0.0522 -0.745249,0.002 -1.865273,-0.002 -2.488737,-0.009 l 5.16e-4,-5e-4 z m 2.037085,0.39066 c 0.987859,-7.7e-4 2.340369,0.004 3.818887,0.0145 2.957132,0.0208 6.900614,0.0467 8.763289,0.0579 1.86278,0.0108 5.768559,0.0404 8.679058,0.0646 2.910398,0.024 6.196713,0.0408 7.302912,0.0346 l 2.009696,-0.009 -0.0062,0.70228 c -0.0036,0.38661 0.0031,1.08447 0.01085,1.5503 0.0068,0.46588 -0.0031,3.01866 -0.02119,5.67304 -0.01411,2.65443 -0.03511,5.91201 -0.03514,7.23934 -1.03e-4,1.32736 -0.01577,4.47098 -0.03462,6.98564 -0.02285,2.5146 -0.0346,5.60096 -0.03307,6.85847 0.0016,1.25751 -0.01583,4.43937 -0.03772,7.07038 -0.02395,2.63102 -0.03522,5.6601 -0.02997,6.73137 0.0042,1.07127 -0.0049,4.08647 -0.01964,6.70036 l -0.02791,4.75218 -4.011639,-0.0171 c -4.164814,-0.0175 -9.093412,-0.0496 -16.839285,-0.10956 -2.491419,-0.0201 -6.059056,-0.0384 -7.928197,-0.0424 l -3.398242,-0.008 -0.01964,-1.80866 c -0.011,-0.99478 -4.3e-5,-4.13269 0.02377,-6.97323 0.02578,-2.84059 0.03457,-5.67923 0.02429,-6.30814 -0.01028,-0.62891 -0.0027,-3.27713 0.01809,-5.88492 0.02369,-2.60775 0.03705,-5.78908 0.03669,-7.06985 -0.0014,-1.28079 0.0074,-3.96769 0.01757,-5.97016 0.0082,-2.0025 0.02083,-4.80296 0.02274,-6.2234 9.42e-4,-1.42047 0.01327,-4.29731 0.02532,-6.39289 0.0091,-2.09563 0.01318,-4.65299 0.0026,-5.68338 -0.01059,-1.03039 0.01704,-1.89211 0.05529,-1.91513 0.02011,-0.0115 0.643564,-0.0178 1.631426,-0.0186 z m 24.260535,3.13573 c -0.272241,10e-4 -0.554453,0.0711 -0.838711,0.20876 -1.135229,0.55113 -1.36054,2.03417 -0.456303,3.00448 0.355552,0.38187 0.367959,0.49537 0.03721,0.34054 -0.402582,-0.18846 -0.995063,-0.21876 -1.442289,-0.0734 -0.508269,0.16526 -0.857453,0.46249 -1.081071,0.91932 -0.240596,0.4917 -0.19526,1.26252 0.10232,1.72239 0.431715,0.66712 1.302707,1.00004 2.08566,0.79787 0.531008,-0.13713 1.082897,-0.6873 1.163754,-1.16064 0.03344,-0.19492 0.09971,-0.37783 0.147277,-0.40669 0.151204,-0.0914 -0.02973,1.21046 -0.270269,1.94767 -0.123441,0.3777 -0.331867,0.89554 -0.463537,1.15031 l -0.239778,0.46302 1.245401,0.0129 1.245402,0.0129 -0.306956,-0.63924 c -0.409308,-0.851 -0.632606,-1.62724 -0.684713,-2.38694 -0.04166,-0.60174 0.04285,-0.63259 0.159163,-0.0584 0.06725,0.33253 0.414806,0.71263 0.848526,0.92811 0.562079,0.27937 1.384261,0.23082 1.881024,-0.11163 0.899181,-0.61971 1.051584,-1.90767 0.318325,-2.68923 -0.495924,-0.52842 -1.54782,-0.74469 -2.245857,-0.46148 -0.344712,0.13986 -0.399378,0.0615 -0.124539,-0.17931 0.289266,-0.25347 0.580204,-0.75142 0.675409,-1.15705 0.128823,-0.54845 -0.07074,-1.18136 -0.518313,-1.63814 -0.285951,-0.29186 -0.615746,-0.46829 -0.968417,-0.52554 -0.08819,-0.0143 -0.17797,-0.0213 -0.268716,-0.0207 z m -19.89491,0.015 c -1.727168,-0.0168 -2.453971,2.05317 -1.157036,3.29541 0.278606,0.26675 0.290856,0.29469 0.104386,0.23617 -0.11602,-0.0364 -0.523962,-0.0885 -0.906404,-0.11473 -0.595911,-0.0409 -0.73551,-0.023 -0.975135,0.12195 -0.416563,0.25188 -0.748332,0.62402 -0.883151,0.99012 -0.44097,1.19767 0.407961,2.39901 1.708423,2.41742 0.835078,0.012 1.43461,-0.39867 1.72806,-1.1839 l 0.166399,-0.44596 -0.05064,0.71933 c -0.05373,0.77917 -0.354327,1.79244 -0.731737,2.46911 -0.122692,0.22064 -0.206923,0.41762 -0.187068,0.43821 0.01996,0.0207 0.207708,5.3e-4 0.416509,-0.046 0.208704,-0.0465 0.750425,-0.0617 1.204064,-0.0336 0.453736,0.0281 0.825653,0.0384 0.825788,0.0222 1.35e-4,-0.0162 -0.07226,-0.15669 -0.160713,-0.3116 -0.421561,-0.73586 -0.895673,-2.34416 -0.902272,-3.06287 6.62e-4,-0.27768 0.133157,-0.14751 0.226343,0.21756 0.129178,0.50335 0.391539,0.81288 0.894004,1.05315 0.523742,0.25053 0.984083,0.26363 1.488281,0.0413 0.742032,-0.32718 1.109451,-0.86055 1.117243,-1.61954 0.01164,-0.73326 -0.254955,-1.18872 -0.94206,-1.63504 -0.264618,-0.17182 -1.22887,-0.23085 -1.749248,-0.10748 l -0.297656,0.0703 0.269235,-0.28422 c 0.147746,-0.15613 0.331742,-0.40629 0.409276,-0.55605 0.633534,-1.22594 -0.237315,-2.67742 -1.614887,-2.69078 z m -13.927833,0.99375 c -0.276148,-5.9e-4 -0.559157,0.0469 -0.840259,0.14883 -0.597283,0.21661 -0.998344,0.5539 -1.308965,1.10122 -0.22217,0.39118 -0.251619,0.53472 -0.257347,1.08572 -0.0019,0.79494 0.276326,1.44721 0.826823,1.94201 0.204989,0.18431 0.372168,0.37814 0.371552,0.43045 -0.0013,0.1248 -6.59e-4,0.12396 -0.615982,-0.0899 -0.392692,-0.13756 -0.65482,-0.17439 -1.044382,-0.1478 -1.036158,0.0705 -1.928548,0.7547 -2.260327,1.73167 -0.125627,0.37113 -0.04625,1.36721 0.139528,1.73736 0.571558,1.1407 1.855459,1.67733 3.0055,1.25677 0.849397,-0.31065 1.377061,-0.89241 1.496549,-1.65002 0.06898,-0.43939 0.218107,-0.51805 0.251148,-0.13282 0.06532,0.75232 -0.535667,2.92658 -1.08934,3.94446 -0.169796,0.31242 -0.292571,0.58576 -0.271817,0.60669 0.02095,0.0209 0.204772,6.4e-4 0.409279,-0.0439 0.478933,-0.10485 2.149459,-0.0918 2.524908,0.0201 0.159197,0.047 0.306382,0.0692 0.327631,0.0486 0.02105,-0.0206 -0.115467,-0.34009 -0.303342,-0.71054 -0.187974,-0.37047 -0.468495,-1.07079 -0.623218,-1.55546 -0.321258,-1.00621 -0.529665,-2.40291 -0.380339,-2.5492 0.06814,-0.0663 0.108074,-0.0242 0.144179,0.15348 0.192903,0.94073 0.498071,1.3662 1.255221,1.74874 0.494741,0.2499 0.594032,0.27069 1.156001,0.23976 0.961319,-0.0527 1.61933,-0.4478 2.071706,-1.24489 0.224682,-0.39534 0.250704,-0.53004 0.256834,-1.12654 0.0021,-0.52763 -0.03817,-0.75666 -0.180351,-1.03661 -0.402637,-0.79126 -0.987615,-1.22764 -1.875337,-1.39734 -0.433319,-0.0828 -0.716545,-0.0492 -1.748216,0.20619 -0.259942,0.0644 -0.242861,-0.1042 0.02842,-0.27803 0.549786,-0.35219 1.049399,-1.4932 0.960665,-2.19519 -0.155464,-1.22825 -1.072142,-2.09844 -2.153359,-2.22727 -0.09011,-0.0107 -0.181316,-0.0163 -0.273367,-0.0165 z m 23.913269,5.48854 c -1.714646,-0.0257 -2.492468,2.04274 -1.226283,3.26184 0.166047,0.15994 0.285377,0.30633 0.266134,0.32554 -0.02004,0.0192 -0.223266,-0.0255 -0.453203,-0.0992 -0.981196,-0.31491 -2.040395,0.14512 -2.410706,1.04593 -0.04725,0.11459 -0.09302,0.42068 -0.0956,0.68111 -0.01335,0.6051 0.246679,1.13099 0.730705,1.4795 0.480727,0.34599 1.328336,0.41958 1.850015,0.16018 0.449601,-0.22355 0.866737,-0.72478 0.934828,-1.12242 0.08207,-0.48217 0.18452,-0.29916 0.135908,0.24445 -0.06256,0.699 -0.326987,1.61819 -0.679545,2.36109 -0.169595,0.35729 -0.297092,0.66043 -0.28422,0.67387 0.01297,0.0134 0.194788,-0.0131 0.403592,-0.0594 0.208704,-0.0465 0.750224,-0.0617 1.204061,-0.0336 0.453739,0.0281 0.825651,0.038 0.825791,0.0217 2.35e-4,-0.0163 -0.126228,-0.29025 -0.28112,-0.60873 -0.357661,-0.73496 -0.636212,-1.70278 -0.684197,-2.38281 -0.04363,-0.6132 0.02384,-0.68511 0.157097,-0.16846 0.126309,0.48887 0.359682,0.80145 0.752925,1.00716 0.807058,0.4223 1.690097,0.27834 2.273247,-0.37052 0.844095,-0.93906 0.556154,-2.26314 -0.625285,-2.87372 -0.288369,-0.1492 -1.077653,-0.15817 -1.663464,-0.0191 l -0.255284,0.061 0.269754,-0.28268 c 0.408159,-0.42979 0.632589,-0.93102 0.637685,-1.42264 0.01232,-1.04368 -0.768167,-1.86399 -1.782836,-1.87947 z m -9.874851,6.53449 c -0.720296,-0.008 -1.461764,0.3904 -1.748213,1.03664 -0.32041,0.72279 -0.101949,1.69003 0.515731,2.2815 0.282697,0.27086 0.293251,0.29647 0.10387,0.24339 -0.829185,-0.23233 -1.079039,-0.25884 -1.472779,-0.15295 -0.508706,0.13676 -1.126048,0.67813 -1.29036,1.1317 h -5.16e-4 c -0.379238,1.04696 0.187391,2.11815 1.282608,2.4252 0.203774,0.0572 0.505912,0.0793 0.671277,0.0501 0.669769,-0.11851 1.315759,-0.6223 1.425752,-1.1126 0.02727,-0.12417 0.08518,-0.30263 0.126092,-0.39531 0.129652,-0.29197 0.09172,0.56406 -0.05374,1.22163 -0.143042,0.64654 -0.619086,1.91392 -0.747758,1.9916 -0.04306,0.0264 -0.07995,0.0996 -0.0801,0.1628 -8.6e-4,0.092 0.06151,0.0992 0.313158,0.0325 0.172903,-0.0455 0.725697,-0.0654 1.228349,-0.0429 0.50265,0.0225 0.904198,0.0212 0.89245,-0.003 -0.01195,-0.0242 -0.129119,-0.25411 -0.260447,-0.51057 -0.396476,-0.77438 -0.791721,-2.16569 -0.785482,-2.76675 7.51e-4,-0.33501 0.129691,-0.235 0.238744,0.19016 0.387334,1.51101 2.564373,1.65182 3.322278,0.21497 0.305794,-0.57991 0.181821,-1.5072 -0.267166,-2.00607 -0.474327,-0.52676 -1.434306,-0.75033 -2.159558,-0.50281 -0.404008,0.13784 -0.443402,0.0723 -0.128159,-0.21601 0.497615,-0.45461 0.735049,-1.25042 0.563274,-1.88928 -0.112766,-0.41945 -0.562449,-1.00812 -0.91054,-1.19269 -0.21904,-0.11615 -0.461825,-0.17714 -0.708998,-0.18915 -0.02318,-0.001 -0.04653,-0.002 -0.06977,-0.002 z m 19.79259,0.003 c -1.04454,-0.0129 -1.791504,0.73115 -1.802474,1.79988 -0.01132,0.59029 0.160674,1.00589 0.572058,1.41647 0.153758,0.15367 0.262192,0.30708 0.240814,0.34105 -0.02208,0.0341 -0.194326,0.005 -0.384472,-0.0641 -0.497893,-0.18153 -0.981911,-0.15999 -1.480013,0.0656 -0.428638,0.19421 -0.796171,0.56581 -0.964284,0.97462 -0.04726,0.11451 -0.09305,0.40942 -0.0956,0.65577 -0.03667,1.64941 2.066162,2.4466 3.179132,1.2051 0.166915,-0.18608 0.300297,-0.44209 0.334346,-0.64442 0.102333,-0.59785 0.227375,-0.37716 0.157615,0.27855 -0.07252,0.68017 -0.47,1.93294 -0.794268,2.50061 -0.11565,0.20259 -0.21031,0.3728 -0.210323,0.3788 -1.08e-4,0.005 0.551617,0.0158 1.226799,0.0227 0.674986,0.007 1.227696,0.002 1.227831,-0.0129 3.33e-4,-0.0144 -0.147281,-0.34018 -0.327629,-0.72348 -0.352134,-0.74784 -0.665715,-1.92783 -0.650089,-2.4784 l 5.19e-4,-0.33849 0.157612,0.41548 c 0.297548,0.78584 0.876779,1.1902 1.724959,1.20097 0.797076,0.0107 1.434274,-0.42995 1.712558,-1.18443 0.170225,-0.46136 0.148492,-0.8508 -0.07441,-1.34255 -0.385305,-0.85035 -1.34389,-1.28961 -2.258261,-1.03405 -0.630494,0.17624 -0.631852,0.17558 -0.326594,-0.16483 0.786858,-0.87784 0.86791,-1.81518 0.222724,-2.58488 -0.365953,-0.43659 -0.849032,-0.675 -1.386478,-0.68315 z m -21.060211,13.01575 c -0.0089,3.5e-4 -0.01477,0.001 -0.01654,0.003 -0.01438,0.0154 0.08685,0.24093 0.225309,0.50228 0.345244,0.6536 0.62203,1.51138 0.736907,2.2841 0.120197,0.80886 0.06159,1.01671 -0.124024,0.43873 -0.162869,-0.5075 -0.452659,-0.83971 -0.929658,-1.06452 -0.363321,-0.17127 -1.086223,-0.21908 -1.424205,-0.0946 -0.312255,0.11502 -0.812723,0.57508 -0.998386,0.91776 l 5.16e-4,5.3e-4 c -0.100717,0.18616 -0.16967,0.48065 -0.172601,0.76327 -0.02393,1.3167 1.251254,2.19319 2.56522,1.76215 0.468643,-0.15369 0.594804,-0.0829 0.267684,0.15039 -0.129506,0.0923 -0.341609,0.34407 -0.471289,0.55965 -0.193318,0.32089 -0.234558,0.49157 -0.239263,0.94205 -0.0014,0.61553 0.120923,0.92223 0.542087,1.34257 0.65175,0.65069 1.795573,0.6563 2.518709,0.0134 0.757504,-0.67419 0.765653,-1.93752 0.01705,-2.70163 -0.351303,-0.35822 -0.35591,-0.4903 -0.01137,-0.32917 0.332856,0.15581 1.214093,0.13086 1.605587,-0.0455 0.640344,-0.28851 1.068385,-0.95875 1.075904,-1.68516 0.01171,-0.76407 -0.725884,-1.61674 -1.51257,-1.75805 -0.862957,-0.15497 -1.875602,0.44754 -2.002462,1.19165 -0.08004,0.47009 -0.210129,0.5388 -0.205671,0.10904 0.0116,-0.71977 0.422166,-2.14302 0.834575,-2.86337 0.118965,-0.2086 0.203967,-0.39291 0.1881,-0.40929 -0.01596,-0.0162 -0.334777,0.0102 -0.708482,0.0594 -0.502449,0.0652 -0.818878,0.063 -1.214914,-0.0114 -0.257755,-0.0481 -0.484129,-0.08 -0.546219,-0.0775 z m 20.216336,0.0584 c -0.222335,-3.7e-4 -0.360646,6.1e-4 -0.360701,0.004 -1.1e-5,0.005 0.163898,0.36914 0.364318,0.80822 0.398258,0.87243 0.629295,1.79234 0.609782,2.42623 l -0.01447,0.40669 -0.135392,-0.45114 c -0.07445,-0.248 -0.226627,-0.54772 -0.337963,-0.66559 -0.917938,-0.97155 -2.54934,-0.68665 -3.050461,0.53226 l 0.001,-5.3e-4 c -0.128802,0.31467 -0.120547,1.04032 0.01654,1.36324 0.377817,0.89033 1.362967,1.34438 2.299602,1.0604 0.517951,-0.15711 0.650338,-0.1011 0.335897,0.14108 -0.558361,0.42973 -0.825008,1.49172 -0.546738,2.17765 0.733772,1.80877 3.495934,1.32043 3.516064,-0.62169 0.0013,-0.55899 -0.170304,-0.97671 -0.598411,-1.42317 -0.190757,-0.19891 -0.32653,-0.38203 -0.301276,-0.40669 0.02506,-0.0246 0.194244,0.0188 0.375172,0.0967 0.381735,0.1642 1.228016,0.14031 1.563729,-0.0444 0.945566,-0.52062 1.336533,-1.57369 0.904854,-2.43602 -0.15063,-0.30078 -0.70586,-0.82775 -0.98702,-0.93689 -0.363686,-0.14123 -1.07583,-0.11424 -1.458309,0.0548 -0.438933,0.19389 -0.785688,0.5987 -0.916739,1.06918 -0.137697,0.49276 -0.262911,0.47064 -0.190685,-0.0336 0.151365,-1.06063 0.556479,-2.37987 0.880565,-2.867 0.06823,-0.10242 0.123894,-0.19701 0.124023,-0.21031 1.3e-4,-0.0132 -0.551886,-0.0299 -1.226799,-0.0367 l -5.16e-4,-5e-4 c -0.337399,-0.004 -0.643763,-0.005 -0.866097,-0.006 z m -7.850682,6.49417 c -0.06648,-0.003 -0.315209,0.023 -0.601515,0.0646 -0.397229,0.0575 -0.787466,0.0577 -1.175639,5.3e-4 -0.319497,-0.0469 -0.596294,-0.072 -0.614434,-0.0558 -0.01804,0.0163 0.09827,0.308 0.259416,0.64852 0.402008,0.84998 0.642337,1.69651 0.680064,2.40141 l 0.03256,0.59272 -0.166397,-0.46146 c -0.197477,-0.54996 -0.406588,-0.79594 -0.877467,-1.02991 -0.981313,-0.48761 -2.237509,0.0267 -2.567802,1.05058 -0.132818,0.41253 -0.136377,0.54747 -0.02997,0.99065 0.245232,1.01796 1.398109,1.63568 2.439643,1.30688 0.47964,-0.15145 0.640295,-0.11065 0.349851,0.0884 -0.543131,0.37174 -0.862851,1.524 -0.599964,2.1575 0.630217,1.51868 2.668011,1.61022 3.362068,0.15089 0.325327,-0.68419 0.140738,-1.53435 -0.47749,-2.19626 l -0.310058,-0.33073 0.25373,0.0641 c 0.92778,0.23503 1.626812,0.1393 2.12597,-0.28991 1.008335,-0.86706 0.83235,-2.35558 -0.350883,-2.97037 -0.758322,-0.39396 -1.493816,-0.28543 -2.103747,0.3111 -0.261972,0.25625 -0.377579,0.44804 -0.420129,0.69556 -0.08816,0.51911 -0.19943,0.40727 -0.144695,-0.1457 0.07571,-0.76372 0.355817,-1.75922 0.68058,-2.41486 0.163443,-0.3302 0.2859,-0.61124 0.273367,-0.62529 -0.0016,-0.002 -0.0076,-0.003 -0.01705,-0.003 z m 20.947041,2.46652 0.368453,0.71261 c 0.453152,0.87484 0.822709,1.99744 0.985986,2.99466 0.151381,0.94914 0.150074,1.15403 -0.0124,1.15236 -0.082,-9.8e-4 -0.125791,-0.0839 -0.125055,-0.23408 7.09e-4,-0.32215 -0.341821,-1.03642 -0.632002,-1.31413 -0.419606,-0.4015 -1.01,-0.61973 -1.6769,-0.6196 -0.329904,8e-5 -0.734563,0.0585 -0.910024,0.1297 -0.650989,0.26413 -1.229508,0.86852 -1.427303,1.49294 -0.146129,0.46114 -0.07303,1.34826 0.149863,1.80557 0.5462,1.12255 2.091481,1.68428 3.255097,1.1839 0.577556,-0.24842 0.627335,-0.0941 0.12764,0.39534 -1.023532,1.00211 -1.062117,2.48121 -0.09405,3.57548 0.819235,0.92588 2.371717,0.98324 3.370337,0.12454 0.530315,-0.45604 0.780471,-1.01934 0.787548,-1.77147 0.01175,-0.78608 -0.25773,-1.41248 -0.82424,-1.94561 -0.331103,-0.31263 -0.464077,-0.52023 -0.329179,-0.51882 0.025,2.6e-4 0.281001,0.0834 0.569476,0.18446 0.886309,0.31044 1.829731,0.12923 2.549715,-0.48987 1.873396,-1.61081 0.334457,-4.5951 -2.129586,-4.12946 -0.881171,0.1665 -1.68561,0.94676 -1.816428,1.76165 -0.08113,0.50361 -0.212056,0.48053 -0.206706,-0.0362 0.01233,-1.04769 0.413658,-2.47078 1.064535,-3.76047 0.184545,-0.36573 0.326287,-0.67294 0.315228,-0.68524 v -5e-4 c -0.02021,-0.009 -0.288357,0.0351 -0.609783,0.10025 -0.575559,0.11641 -1.905907,0.0875 -2.518193,-0.0543 z m 3.360518,0.007 c 0,0 0,5.3e-4 0,5.3e-4 0,0 5.16e-4,0 5.16e-4,0 0,0 5.18e-4,0 5.18e-4,0 0,0 5.16e-4,0 5.16e-4,0 0,0 5.16e-4,0 5.16e-4,0 0,0 5.19e-4,0 5.19e-4,0 0,0 5.15e-4,0 5.15e-4,0 0,0 5.16e-4,0 5.16e-4,0 0,0 5.19e-4,0 5.19e-4,0 0,0 5.16e-4,0 5.16e-4,0 0,0 0,-5.3e-4 0,-5.3e-4 z m -36.638074,4.0137 c -0.0091,1.3e-4 -0.0149,5.3e-4 -0.01654,0.002 -0.01303,0.0124 0.122735,0.30777 0.300757,0.6563 0.358735,0.70236 0.627496,1.61036 0.707451,2.39313 0.05579,0.54346 -0.07254,0.64622 -0.1695,0.13539 -0.130959,-0.6916 -0.874633,-1.20909 -1.751314,-1.21904 -0.673585,-0.007 -1.201457,0.3139 -1.53324,0.93329 -0.157556,0.29501 -0.242398,0.57978 -0.244946,0.82476 -0.01283,1.26751 1.283899,2.19019 2.526978,1.79782 0.512161,-0.16169 0.619953,-0.11542 0.302307,0.12919 -0.124613,0.096 -0.333155,0.35147 -0.463537,0.5679 -0.196027,0.32507 -0.231449,0.48906 -0.236161,0.94364 2.75e-4,0.32893 0.05363,0.65347 0.132291,0.80613 0.596329,1.15433 2.294255,1.36938 3.059245,0.38759 0.678945,-0.87135 0.630542,-1.7236 -0.147796,-2.60554 l -0.321943,-0.36533 0.253731,0.0682 c 0.541377,0.14557 1.26329,0.15732 1.583883,0.0263 1.811155,-0.74025 1.441521,-3.34846 -0.497129,-3.50883 -0.415522,-0.0344 -0.577238,-0.003 -0.963247,0.17981 -0.507241,0.24173 -0.792909,0.59751 -0.879017,1.09453 -0.09118,0.53004 -0.227645,0.3396 -0.16278,-0.22738 0.08567,-0.74681 0.372986,-1.71095 0.7121,-2.39107 0.160319,-0.32181 0.285316,-0.59293 0.275436,-0.60203 -0.01001,-0.009 -0.310337,0.0216 -0.670242,0.0682 -0.474837,0.0612 -0.810009,0.0571 -1.222148,-0.0155 -0.27333,-0.0482 -0.510759,-0.0805 -0.574643,-0.0796 z m 22.200195,0.005 c -0.04901,0.003 -0.118216,0.0185 -0.208772,0.0424 -0.175101,0.0461 -0.738574,0.0648 -1.252119,0.0398 l -0.93431,-0.0455 0.388088,0.77671 c 0.360193,0.72136 0.586539,1.51323 0.673862,2.3554 0.046,0.44894 -0.08217,0.47135 -0.187587,0.0326 -0.12078,-0.5016 -0.377703,-0.80651 -0.883666,-1.04852 -0.955082,-0.45678 -1.992876,-0.10311 -2.437061,0.83095 h -0.001 c -0.425797,0.89519 -0.02813,2.0029 0.872813,2.43139 0.414065,0.19693 1.175554,0.22045 1.597837,0.0491 0.367332,-0.14888 0.417391,-0.0217 0.09043,0.22995 -0.622768,0.47961 -0.821674,1.73916 -0.381889,2.41951 0.687131,1.06301 2.092036,1.18022 2.932123,0.24545 0.707657,-0.78737 0.621546,-1.87571 -0.208775,-2.63136 -0.165163,-0.15028 -0.276791,-0.29612 -0.247528,-0.32454 0.02906,-0.0284 0.248602,0.0151 0.487825,0.0961 1.055704,0.35745 2.212692,-0.25168 2.476334,-1.30276 0.321759,-1.28273 -0.79937,-2.44496 -2.130103,-2.20813 -0.676669,0.12046 -1.136239,0.54078 -1.385961,1.26865 l -0.123508,0.3607 0.04289,-0.68265 c 0.04257,-0.70379 0.423709,-1.97516 0.764294,-2.5523 0.172754,-0.2926 0.204052,-0.39177 0.05633,-0.3824 z m 16.145785,10.99053 0.0098,4.27572 c 0.0048,2.3518 0.02202,5.50532 0.03566,7.00733 l 0.02481,2.73058 0.885735,0.009 0.885735,0.009 -0.0021,-5.82083 c -0.0029,-3.20164 -0.0095,-5.974 -0.01705,-6.16035 -0.0096,-0.18637 -0.01363,-0.72019 -0.0186,-1.18597 l 0.0021,-0.84645 -0.900203,-0.009 z m -4.850868,5.3e-4 c -0.129053,-5e-5 -0.264901,2.4e-4 -0.407726,0.002 -1.835726,0.0101 -1.98425,0.0227 -2.356445,0.2005 -0.464095,0.22156 -0.5594,0.32086 -0.722953,0.74879 -0.100689,0.26361 -0.124126,1.22286 -0.132291,5.69267 -0.0066,2.95709 0.0096,5.5862 0.03307,5.84256 0.05565,0.60894 0.29705,1.03687 0.727085,1.28931 0.332468,0.19503 0.431647,0.20643 2.224154,0.25064 2.144588,0.0529 2.718853,-0.0133 3.163631,-0.36224 0.573405,-0.44982 0.604411,-0.66392 0.592214,-4.02923 -0.03251,-8.74149 -0.02282,-8.52623 -0.427366,-9.08368 -0.2609,-0.35919 -0.588856,-0.49591 -1.70067,-0.53639 h -5.19e-4 c -0.185337,-0.007 -0.392543,-0.011 -0.624765,-0.0129 v -5.1e-4 c -0.11611,-5e-4 -0.238366,-9.8e-4 -0.367422,-10e-4 z m -0.07131,1.81951 c 0.260548,-10e-4 0.511598,0.003 0.719336,0.0119 h 5.18e-4 c 0.276971,0.0124 0.477187,0.0341 0.521415,0.0672 0.111014,0.083 0.127756,0.77486 0.130225,5.18469 l 0.0015,5.08754 -0.278537,0.0532 c -0.384863,0.0729 -2.562916,0.0416 -2.68614,-0.0387 -0.07289,-0.048 -0.103404,-1.01524 -0.111104,-3.66231 -0.0056,-1.97819 -0.02349,-4.24455 -0.03772,-5.0364 -0.01521,-0.79182 0.0031,-1.4841 0.03824,-1.53839 0.05193,-0.0772 0.920591,-0.12507 1.702221,-0.1287 z" />
  </g>
</svg>
