<?xml version="1.0" encoding="UTF-8" standalone="no"?>
<svg
   sodipodi:docname="10D.svg"
   id="svg8"
   version="1.1"
   viewBox="0 0 63.102783 88.347931"
   height="88.347931mm"
   width="63.102783mm"
   inkscape:version="1.1.1 (1:1.1+202109281949+c3084ef5ed)"
   inkscape:export-filename="/home/doug/k40/52Cards/10D.png"
   inkscape:export-xdpi="96"
   inkscape:export-ydpi="96"
   xmlns:inkscape="http://www.inkscape.org/namespaces/inkscape"
   xmlns:sodipodi="http://sodipodi.sourceforge.net/DTD/sodipodi-0.dtd"
   xmlns="http://www.w3.org/2000/svg"
   xmlns:svg="http://www.w3.org/2000/svg"
   xmlns:rdf="http://www.w3.org/1999/02/22-rdf-syntax-ns#"
   xmlns:cc="http://creativecommons.org/ns#"
   xmlns:dc="http://purl.org/dc/elements/1.1/">
  <defs
     id="defs2">
    <marker
       style="overflow:visible"
       id="marker2995"
       refX="0"
       refY="0"
       orient="auto"
       inkscape:stockid="Arrow1Lstart"
       inkscape:isstock="true">
      <path
         transform="matrix(0.8,0,0,0.8,10,0)"
         style="fill:#000000;fill-opacity:1;fill-rule:evenodd;stroke:#000000;stroke-width:1pt;stroke-opacity:1"
         d="M 0,0 5,-5 -12.5,0 5,5 Z"
         id="path2993" />
    </marker>
    <marker
       style="overflow:visible"
       id="marker2985"
       refX="0"
       refY="0"
       orient="auto"
       inkscape:stockid="Arrow1Lstart"
       inkscape:isstock="true">
      <path
         transform="matrix(0.8,0,0,0.8,10,0)"
         style="fill:#000000;fill-opacity:1;fill-rule:evenodd;stroke:#000000;stroke-width:1pt;stroke-opacity:1"
         d="M 0,0 5,-5 -12.5,0 5,5 Z"
         id="path2983" />
    </marker>
    <marker
       style="overflow:visible"
       id="marker2791"
       refX="0"
       refY="0"
       orient="auto"
       inkscape:stockid="Arrow1Lstart"
       inkscape:isstock="true">
      <path
         transform="matrix(0.8,0,0,0.8,10,0)"
         style="fill:#000000;fill-opacity:1;fill-rule:evenodd;stroke:#000000;stroke-width:1pt;stroke-opacity:1"
         d="M 0,0 5,-5 -12.5,0 5,5 Z"
         id="path2789" />
    </marker>
    <marker
       style="overflow:visible"
       id="marker2781"
       refX="0"
       refY="0"
       orient="auto"
       inkscape:stockid="Arrow1Lstart"
       inkscape:isstock="true">
      <path
         transform="matrix(0.8,0,0,0.8,10,0)"
         style="fill:#000000;fill-opacity:1;fill-rule:evenodd;stroke:#000000;stroke-width:1pt;stroke-opacity:1"
         d="M 0,0 5,-5 -12.5,0 5,5 Z"
         id="path2779" />
    </marker>
    <marker
       style="overflow:visible"
       id="marker2417"
       refX="0"
       refY="0"
       orient="auto"
       inkscape:stockid="Arrow1Lstart"
       inkscape:isstock="true">
      <path
         transform="matrix(0.8,0,0,0.8,10,0)"
         style="fill:#000000;fill-opacity:1;fill-rule:evenodd;stroke:#000000;stroke-width:1pt;stroke-opacity:1"
         d="M 0,0 5,-5 -12.5,0 5,5 Z"
         id="path2415" />
    </marker>
    <marker
       style="overflow:visible"
       id="marker2383"
       refX="0"
       refY="0"
       orient="auto"
       inkscape:stockid="Arrow1Lstart"
       inkscape:isstock="true">
      <path
         transform="matrix(0.8,0,0,0.8,10,0)"
         style="fill:#000000;fill-opacity:1;fill-rule:evenodd;stroke:#000000;stroke-width:1pt;stroke-opacity:1"
         d="M 0,0 5,-5 -12.5,0 5,5 Z"
         id="path2381" />
    </marker>
    <marker
       style="overflow:visible"
       id="marker2355"
       refX="0"
       refY="0"
       orient="auto"
       inkscape:stockid="Arrow1Lstart"
       inkscape:isstock="true">
      <path
         transform="matrix(0.8,0,0,0.8,10,0)"
         style="fill:#000000;fill-opacity:1;fill-rule:evenodd;stroke:#000000;stroke-width:1pt;stroke-opacity:1"
         d="M 0,0 5,-5 -12.5,0 5,5 Z"
         id="path2353" />
    </marker>
    <marker
       style="overflow:visible"
       id="Arrow1Lstart"
       refX="0"
       refY="0"
       orient="auto"
       inkscape:stockid="Arrow1Lstart"
       inkscape:isstock="true">
      <path
         transform="matrix(0.8,0,0,0.8,10,0)"
         style="fill:#000000;fill-opacity:1;fill-rule:evenodd;stroke:#000000;stroke-width:1pt;stroke-opacity:1"
         d="M 0,0 5,-5 -12.5,0 5,5 Z"
         id="path2071" />
    </marker>
  </defs>
  <sodipodi:namedview
     id="base"
     pagecolor="#ffffff"
     bordercolor="#666666"
     borderopacity="1.0"
     inkscape:pageopacity="0.0"
     inkscape:pageshadow="2"
     inkscape:zoom="1.5033837"
     inkscape:cx="86.139021"
     inkscape:cy="166.62413"
     inkscape:document-units="mm"
     inkscape:current-layer="layer1"
     inkscape:document-rotation="0"
     showgrid="false"
     inkscape:snap-smooth-nodes="false"
     inkscape:object-nodes="false"
     inkscape:window-width="1366"
     inkscape:window-height="712"
     inkscape:window-x="0"
     inkscape:window-y="0"
     inkscape:window-maximized="1"
     inkscape:object-paths="false"
     inkscape:snap-intersection-paths="false"
     inkscape:snap-midpoints="false"
     inkscape:snap-others="false"
     inkscape:pagecheckerboard="0"
     showguides="true"
     inkscape:guide-bbox="true"
     inkscape:snap-bbox="true"
     showborder="false"
     fit-margin-top="0"
     fit-margin-left="0"
     fit-margin-right="0"
     fit-margin-bottom="0" />
  <metadata
     id="metadata5">
    <rdf:RDF>
      <cc:Work
         rdf:about="">
        <dc:format>image/svg+xml</dc:format>
        <dc:type
           rdf:resource="http://purl.org/dc/dcmitype/StillImage" />
      </cc:Work>
    </rdf:RDF>
  </metadata>
  <g
     inkscape:label="Layer 1"
     inkscape:groupmode="layer"
     id="layer1"
     transform="translate(-28.489609,596.9)">
    <path
       style="fill:#000000;stroke-width:0.0846667"
       id="path389"
       d="" />
    <path
       id="path6748-67"
       style="fill:#000000;fill-opacity:1;stroke:none;stroke-width:0.264999;stroke-miterlimit:4;stroke-dasharray:none;stroke-opacity:1"
       d="m 36.400132,-596.89981 v 0 c -1.120378,0 -2.135796,0.005 -2.776059,0.0124 l -2.328538,0.0259 -0.577743,0.29612 c -0.74224,0.37983 -1.689085,1.3326 -1.982825,1.99522 l -0.207739,0.46921 -0.0093,4.57285 c -0.005,2.5151 -0.01367,5.35429 -0.02067,6.30917 -0.007,0.95491 -0.0099,3.88914 -0.0057,6.52056 0.003,2.63136 0.0046,5.88917 0.0036,7.23984 -0.001,1.35067 0.0023,6.68597 0.0083,11.85561 0.006,5.16967 0.0087,10.48583 0.0067,11.81325 -0.002,1.32741 0.003,4.87108 0.01292,7.87495 0.0185,5.89955 0.01944,6.5541 0.03204,17.7519 0.005,4.10522 0.01205,7.74899 0.01395,8.09668 l 10e-4,0.63198 0.193787,0.36796 c 0.32674,0.62013 0.797688,1.15567 1.381828,1.57199 0.99349,0.70771 1.033384,0.71371 4.924763,0.71467 1.327341,0 3.099771,0.007 3.938262,0.014 2.489121,0.0217 5.158172,0.0307 9.823173,0.031 2.421871,1.8e-4 4.975232,0.0103 5.674071,0.0233 0.69887,0.013 3.156731,0.0254 5.462199,0.0285 2.305502,0.003 5.697616,0.0145 7.537526,0.0265 1.83991,0.0116 5.956088,0.0336 9.146728,0.0491 3.190629,0.0153 7.01998,0.0369 8.51059,0.0481 3.074382,0.023 3.482374,0 3.990454,-0.2372 h 0.0041 c 1.012169,-0.47017 2.154934,-1.68206 2.345592,-2.48772 0.0404,-0.171 0.07765,-2.38739 0.08165,-4.92577 0.01421,-8.09744 0.0079,-17.79328 -0.01394,-21.6788 -0.01159,-2.07235 -0.02283,-5.92053 -0.02582,-8.55194 -0.0021,-2.63139 -0.008,-7.01386 -0.01241,-9.73841 -0.02,-13.76802 -0.02331,-26.62158 -0.0098,-33.09774 l 0.0098,-4.60279 -0.293521,-0.55761 c -0.52456,-0.99563 -1.775187,-2.04706 -2.610178,-2.19469 -0.440108,-0.0778 -2.166292,-0.0939 -12.873633,-0.11833 -1.257559,-0.003 -2.800873,-0.0116 -3.429764,-0.0185 -0.628888,-0.007 -2.382205,-0.0132 -3.895887,-0.013 -2.818238,0 -12.303437,-0.0289 -15.793868,-0.0486 -1.071329,-0.006 -3.529179,-0.018 -5.462198,-0.0269 -1.93299,-0.009 -5.248664,-0.0259 -7.368024,-0.0367 -1.05968,-0.005 -2.285127,-0.007 -3.405479,-0.006 z m -4.027144,0.52351 h 5.3e-4 c 2.647021,-0.014 12.939495,0.0446 23.608894,0.13848 2.119691,0.0185 8.023344,0.0648 13.122714,0.10284 5.099101,0.038 11.671673,0.0878 14.604794,0.11213 l 5.191413,0.0424 0.424265,0.22736 c 0.573299,0.30675 1.354931,1.10077 1.58388,1.56424 l 0.187071,0.38034 0.01138,4.60592 c 0.009,3.7824 -0.0021,12.61599 -0.01963,20.7052 -0.01781,8.08922 -0.044,15.49414 -0.06149,16.23674 -0.02069,0.88429 -0.03927,7.87638 -0.04547,15.67707 -0.006,8.12718 -0.02003,14.33319 -0.04082,18.55134 -0.0104,2.10907 -0.02331,3.72226 -0.03721,4.82811 -0.007,0.55293 -0.01296,0.97917 -0.02066,1.27537 -0.004,0.14812 -0.009,0.26409 -0.01241,0.34367 -0.004,0.0796 -0.0173,0.1591 -0.0031,0.0822 -0.0654,0.34514 -0.419008,0.95379 -0.912607,1.40147 -0.69162,0.62722 -1.193471,0.88093 -1.80609,0.97099 -0.22447,0.033 -0.726925,0.0666 -1.150835,0.0796 -0.21196,0.007 -0.408686,0.009 -0.545187,0.006 -0.06,0 -0.101126,-0.005 -0.126608,-0.007 -0.005,-0.003 -0.01551,-0.004 -0.01551,-0.004 -5.29e-4,-1.6e-4 -0.04796,-0.0106 -0.06046,-0.0124 -0.0249,-0.004 -0.03466,-0.005 -0.04496,-0.006 -0.02058,-0.003 -0.03474,0 -0.05064,-0.003 -0.0319,-0.003 -0.06959,-0.004 -0.117305,-0.005 -0.0954,-0.003 -0.230601,-0.006 -0.402561,-0.009 -0.343948,-0.006 -0.835094,-0.0116 -1.441254,-0.018 -1.212292,-0.0127 -2.878151,-0.0254 -4.706689,-0.0362 -3.654981,-0.0217 -8.325271,-0.0541 -10.373011,-0.0713 -5.826342,-0.0488 -12.056319,-0.0927 -19.007108,-0.1323 -3.515601,-0.0201 -9.195009,-0.0549 -12.617317,-0.078 l -6.091619,-0.0403 -0.474906,-0.22789 c -0.545311,-0.26202 -1.269224,-0.93972 -1.660364,-1.59628 l -0.216008,-0.36121 -0.02377,-17.41239 c -0.0236,-16.53715 0.03401,-44.23045 0.123507,-58.63775 l 0.03979,-6.30455 0.267684,-0.52916 c 0.45812,-0.90782 1.633439,-1.76157 2.32389,-1.83452 -0.0397,0.004 0.04541,-0.003 0.148309,-0.003 0.106971,0 0.257789,-0.003 0.447519,-0.003 z m -0.736389,3.55325 c -0.164137,0.004 -0.280175,0.0106 -0.309025,0.0201 -0.081,0.029 -0.100534,1.60856 -0.09043,7.02646 l 0.01447,6.98871 h 0.497645 c 0.584811,-0.0188 0.763606,-0.003 1.040204,-0.0249 h 0.236678 l -0.0098,-4.90826 c 0,-2.666 -0.0011,-5.79972 0.0098,-6.96391 l 0.01498,-2.11667 -0.807186,-0.0185 c -0.221001,-0.005 -0.433242,-0.005 -0.59738,-0.003 z m 5.331458,0.062 c -0.965139,0.003 -1.066972,0.0399 -1.34462,0.18243 -0.425802,0.21821 -0.685946,0.59939 -0.765847,1.12189 h 5.29e-4 c -0.095,0.62259 -0.06083,10.94478 0.03617,11.39878 0.110098,0.50818 0.416981,0.89344 0.877983,1.10175 0.302498,0.13679 0.585721,0.15468 2.417421,0.15089 2.3066,0 2.533232,-0.049 2.978631,-0.58084 0.3086,-0.3683 0.38907,-0.87664 0.372071,-2.34405 l -0.01603,-1.26971 c 5.29e-4,-1.02454 0.0075,-2.94645 0.01138,-4.27931 0.01299,-4.7311 0.01238,-4.73779 -0.651124,-5.19967 l -0.367419,-0.2553 -2.257742,-0.019 c -0.55195,-0.005 -0.969682,-0.008 -1.291394,-0.007 z m 1.034045,1.72083 c 0.74259,0.0132 1.567627,0.0649 1.648478,0.13179 0.075,0.061 0.09296,1.34395 0.07597,5.09735 -0.01201,2.759 -0.03891,5.06458 -0.05891,5.12268 -0.027,0.079 -0.401863,0.10673 -1.481564,0.10903 -1.196998,0 -1.450697,-0.019 -1.491898,-0.12244 -0.051,-0.13851 -0.09924,-5.77864 -0.06925,-8.48683 0.01799,-1.5948 0.03115,-1.71863 0.183452,-1.80094 0.051,-0.027 0.24483,-0.0431 0.509529,-0.0501 0.198575,-0.005 0.436666,-0.005 0.684197,0 z m 11.255645,10.92284 h 5.29e-4 c -1.42058,-0.003 -3.247806,0.006 -4.060735,0.0212 l -1.476912,0.0274 -0.01344,0.46559 c -0.007,0.2563 -0.0049,3.05702 0.0041,6.22393 0.009,3.16688 0.01238,6.50155 0.0057,7.40987 -0.006,0.90831 -0.0028,3.13748 0.0072,4.95371 0.0104,1.81621 0.01246,4.04484 0.0047,4.95319 -0.007,0.90834 -0.01098,3.82397 -0.0088,6.47866 0.0021,2.65473 0.0031,6.7895 0.0031,9.18808 -7.94e-4,10.21829 0.003,11.73242 0.03462,13.42141 l 0.03255,1.77716 h 0.888836 c 0.48905,0 2.756728,0.006 5.038968,0.0119 2.28227,0.006 5.350116,0.009 6.817156,0.006 1.467059,-0.003 3.296227,0.003 4.064868,0.0103 0.768639,0.008 2.616922,0.0122 4.107241,0.009 1.49035,-0.004 3.490836,-0.003 4.445725,0.003 0.954849,0.005 2.95584,0.0109 4.446241,0.0124 1.489969,0.003 2.724599,0.0177 2.745052,0.0351 h 5.29e-4 c 0.0802,0.0702 0.268317,0.0206 0.297656,-0.0791 0.0172,-0.0585 0.02551,-2.65965 0.0186,-5.78001 -0.007,-3.12036 -0.01079,-6.62583 -0.0093,-7.79023 0.004,-2.15308 5.29e-4,-9.14607 -0.0057,-14.05702 -0.0021,-1.49035 -0.0031,-5.64367 -0.0021,-9.22994 0.003,-11.10189 -0.004,-14.15947 -0.04082,-16.11736 l -0.03462,-1.89031 -0.805119,-0.0146 c -0.44259,-0.008 -2.405023,-0.007 -4.360973,0.003 -1.955959,0.009 -3.937358,0.004 -4.40335,-0.009 -0.465979,-0.0135 -2.219274,-0.0217 -3.895886,-0.018 -1.676609,0.004 -3.543549,0.003 -4.149101,-0.004 -0.605578,-0.006 -2.453812,-0.0116 -4.10724,-0.013 -1.653411,0 -4.168725,-0.005 -5.589323,-0.009 z m 0.808736,0.31316 c 2.263669,-0.003 4.567824,0.005 5.635312,0.0233 0.628963,0.0109 2.648072,0.0114 4.487582,0.003 1.839521,-0.01 3.726014,-0.006 4.191992,0.007 0.466011,0.0135 2.333279,0.0217 4.14962,0.018 1.816369,-0.003 4.293523,0 5.504571,0.006 l 2.201934,0.0124 0.01913,1.86243 c 0.02069,2.01282 0.04111,11.50665 0.03101,14.60685 -0.003,1.04799 -0.004,3.12489 -0.0011,4.61521 0.003,1.49034 0.003,3.58582 -5.3e-4,4.65709 -0.007,2.30394 -0.0051,4.96625 0.01085,11.89799 0.006,2.81763 0.0071,5.96141 0.0021,6.98614 -0.005,1.02473 -0.0061,3.13978 -0.0031,4.69995 0.007,3.15706 -0.02241,4.81918 -0.0863,4.92683 -0.02339,0.0393 -0.126248,0.0663 -0.228409,0.0605 -0.365811,-0.0212 -4.902264,-0.0419 -8.061524,-0.0377 -1.769771,0.003 -3.73254,-0.005 -4.361492,-0.0156 -0.628938,-0.0109 -2.248074,-0.019 -3.598746,-0.019 -10.26306,0 -15.759469,-0.0251 -15.80937,-0.0739 -0.0316,-0.0315 -0.05419,-1.65753 -0.04909,-3.61373 0.005,-1.95625 0.0011,-6.20506 -0.0098,-9.44179 -0.0109,-3.23675 -0.01154,-6.39958 -0.0011,-7.02852 0.0104,-0.62894 0.0089,-2.87766 -0.0041,-4.99661 -0.0127,-2.11891 -0.014,-4.23352 -0.0031,-4.69945 0.01111,-0.46595 0.01537,-2.33333 0.0083,-4.14962 -0.007,-1.81628 -0.01042,-5.13135 -0.0072,-7.36697 0.003,-2.23565 0.0052,-5.16988 0.0052,-6.52056 -7.94e-4,-1.35061 0.006,-3.32583 0.01601,-4.38938 l 0.01757,-1.9332 0.122992,-0.0501 c 0.01461,-0.006 0.166592,-0.0119 0.425812,-0.0164 h 5.29e-4 c 0.907183,-0.0172 3.130865,-0.0277 5.394505,-0.0295 z m 20.181712,3.02102 -0.301789,0.62888 c -0.4964,1.03442 -1.69282,2.77136 -2.47582,3.59514 -0.399298,0.41992 -0.729771,0.7762 -0.72967,0.79221 0,0.0161 0.322286,0.37777 0.720886,0.80357 0.800201,0.855 1.830337,2.32838 2.402438,3.43699 0.2042,0.39582 0.383876,0.73279 0.399976,0.7488 0.01601,0.0161 0.14892,-0.21249 0.296621,-0.50851 0.685901,-1.37559 1.641785,-2.74799 2.656687,-3.81629 l 0.617016,-0.65009 -0.573093,-0.58859 c -0.771998,-0.792 -1.722342,-2.11804 -2.430343,-3.39206 z m -20.536214,0.0744 c -0.025,10e-5 -0.159272,0.21942 -0.298173,0.48731 -0.8338,1.60832 -1.871895,3.07678 -2.801895,3.96359 -0.2447,0.23331 -0.447103,0.44474 -0.447003,0.46974 0,0.0251 0.191381,0.23397 0.427882,0.46458 0.887299,0.86559 2.09768,2.60247 2.900082,4.16097 0.101798,0.1977 0.206026,0.35452 0.232026,0.35452 0.02601,0 0.198456,-0.31155 0.383956,-0.68575 0.657399,-1.3263 1.54805,-2.59755 2.553851,-3.64474 l 0.622183,-0.64752 -0.201538,-0.15761 c -0.773999,-0.60751 -2.37585,-2.82781 -3.087151,-4.27932 -0.131098,-0.26741 -0.25922,-0.48596 -0.28422,-0.48577 z m -13.339755,0.97565 h -5.29e-4 c -0.098,0.099 -0.460219,0.85561 -0.45992,0.96171 1.01e-4,0.068 -0.03396,0.12237 -0.07596,0.12247 -0.042,8e-5 -0.195781,0.2303 -0.341583,0.5121 -0.145899,0.2817 -0.510484,0.89318 -0.810286,1.35859 -0.299598,0.46529 -0.544769,0.88362 -0.544669,0.9286 1.01e-4,0.046 -0.03021,0.0827 -0.06821,0.0827 -0.038,10e-5 -0.261945,0.25778 -0.497644,0.57258 -0.4972,0.66421 -1.37087,1.64521 -1.860869,2.08979 l -0.341581,0.30853 0.707967,0.71932 c 1.3399,1.3617 3.270316,4.12657 4.054017,5.80689 0.1026,0.21989 0.2243,0.39941 0.271301,0.39841 0.047,0 0.197914,-0.23821 0.336412,-0.52761 0.945201,-1.9744 2.534161,-4.23828 4.021461,-5.72989 l 0.622702,-0.62527 -0.790133,-0.81391 c -0.4347,-0.44759 -1.005457,-1.09887 -1.268656,-1.44745 -0.263102,-0.3488 -0.501685,-0.65355 -0.529685,-0.67646 -0.205799,-0.16799 -1.523024,-2.36035 -2.075326,-3.45456 -0.172598,-0.34211 -0.329914,-0.60606 -0.348816,-0.58706 z m 23.59701,5.35421 c -0.027,0 -0.215395,0.31406 -0.419095,0.69866 -0.807,1.52339 -1.605325,2.66224 -2.513025,3.58272 -0.322199,0.3265 -0.591513,0.60672 -0.601515,0.6227 -0.01,0.0161 0.327293,0.39264 0.745691,0.83664 0.8503,0.90231 1.716427,2.12421 2.337327,3.29851 0.227499,0.43021 0.441423,0.78144 0.475422,0.78137 0.034,0 0.256325,-0.36526 0.494027,-0.81238 0.6463,-1.21539 1.362808,-2.23869 2.244307,-3.20598 l 0.789615,-0.86715 -0.675926,-0.71313 c -0.725001,-0.7651 -1.859465,-2.39154 -2.458765,-3.52486 -0.203002,-0.38378 -0.391062,-0.6972 -0.418063,-0.6971 z m -10.235552,6.28695 c -0.024,-10e-5 -0.266067,0.40987 -0.538466,0.91107 -0.807202,1.48489 -1.802292,2.84406 -2.684592,3.66694 -0.175099,0.16341 -0.319593,0.31117 -0.320392,0.32919 -7.94e-4,0.018 0.236947,0.2843 0.528648,0.59219 0.8124,0.85781 1.585372,1.93024 2.323372,3.22514 0.3688,0.64731 0.689618,1.17356 0.712618,1.17356 0.02299,0 0.183552,-0.29633 0.35605,-0.65474 0.322501,-0.67008 1.149067,-1.98384 1.666565,-2.64943 0.160902,-0.20701 0.567106,-0.6632 0.903306,-1.01391 l 0.610815,-0.63767 -0.532268,-0.5483 c -0.981699,-1.00988 -1.928743,-2.34071 -2.612244,-3.67212 -0.2037,-0.3969 -0.389411,-0.72173 -0.413412,-0.72192 z m 20.560504,0.0388 c -0.031,0 -0.232352,0.32809 -0.448551,0.73017 -0.653502,1.21442 -1.60233,2.57411 -2.35903,3.38119 -0.3937,0.41992 -0.709181,0.78643 -0.699183,0.81444 0.01,0.028 0.333669,0.38987 0.720371,0.80407 0.386699,0.41421 0.966409,1.15211 1.288809,1.63971 0.3224,0.48749 0.64562,0.95265 0.71882,1.03454 0.073,0.081 0.132707,0.18233 0.132807,0.22532 1.01e-4,0.068 0.567238,1.18362 0.64234,1.26453 0.01601,0.0169 0.154575,-0.23077 0.307475,-0.55087 0.152998,-0.32009 0.297426,-0.60126 0.321426,-0.62426 0.024,-0.023 0.191305,-0.29067 0.373105,-0.59375 0.540499,-0.90119 1.214829,-1.77961 1.93063,-2.5151 l 0.672828,-0.69194 -0.542087,-0.54261 c -0.4827,-0.4831 -1.771784,-2.09081 -1.771983,-2.21019 -1e-4,-0.0251 -0.143227,-0.26959 -0.318328,-0.54211 -0.175199,-0.27239 -0.452483,-0.74885 -0.615982,-1.05883 -0.1637,-0.31009 -0.322469,-0.56401 -0.353467,-0.56431 z m -20.553267,12.73824 -0.559139,1.01957 c -0.7273,1.3259 -1.472157,2.37709 -2.322856,3.27628 l -0.685747,0.72504 0.644406,0.65783 c 0.795699,0.8123 1.674981,2.0302 2.36988,3.283 0.290201,0.5233 0.551876,0.94682 0.581877,0.94671 0.03,0 0.184531,-0.27313 0.34313,-0.60203 0.352103,-0.7297 1.243174,-2.15305 1.713074,-2.73627 0.1905,-0.23638 0.603057,-0.68244 0.917258,-0.99116 l 0.571542,-0.56067 -0.468707,-0.45527 c -0.9829,-0.95481 -1.95771,-2.33471 -2.786909,-3.94603 z m 20.69951,0.19584 -0.559655,1.0196 c -0.727601,1.32569 -1.472155,2.37657 -2.322856,3.27575 l -0.685747,0.72504 0.644406,0.65783 c 0.7958,0.8122 1.674982,2.03071 2.369881,3.28351 0.2902,0.52332 0.551878,0.94681 0.581877,0.94673 0.03,0 0.18453,-0.27366 0.343132,-0.60256 0.3521,-0.7297 1.243174,-2.15307 1.713074,-2.73627 0.1905,-0.2364 0.603054,-0.68194 0.917255,-0.99063 l 0.571542,-0.5612 -0.468706,-0.45527 c -0.9828,-0.95491 -1.957409,-2.33492 -2.786909,-3.94602 z m -10.423136,6.20945 c -0.06,0 -0.11934,0.0711 -0.213939,0.25168 -0.934601,1.7826 -1.727542,2.94087 -2.683042,3.91758 -0.5759,0.58859 -0.752708,0.84788 -0.57671,0.84748 0.039,-8e-5 0.386781,0.35682 0.773081,0.79272 0.807101,0.9108 1.70606,2.21702 2.261362,3.2861 0.211399,0.4069 0.410998,0.74012 0.443899,0.74001 0.033,-1e-4 0.224364,-0.31456 0.424262,-0.69919 0.783701,-1.50767 1.629278,-2.70779 2.607077,-3.69951 l 0.533819,-0.54104 -0.659908,-0.68628 c -0.363001,-0.37737 -0.911548,-1.04751 -1.219047,-1.48931 -0.556702,-0.79978 -1.519605,-2.40446 -1.519804,-2.53318 -10e-5,-0.037 -0.05017,-0.10874 -0.110072,-0.15864 -0.02101,-0.0169 -0.04098,-0.0269 -0.06098,-0.0279 z m 23.753072,1.28882 c -0.082,-0.022 -0.284965,0.26775 -0.599964,0.85886 -1.2475,2.34069 -2.530171,4.13107 -3.99097,5.56969 l -0.510564,0.50281 0.823722,0.85215 c 1.416402,1.46489 2.918119,3.63553 3.881419,5.61152 0.140298,0.28771 0.280125,0.52298 0.312124,0.52298 0.032,10e-5 0.152736,-0.19963 0.269235,-0.44443 0.908301,-1.90769 2.578359,-4.33247 4.012157,-5.82549 l 0.688848,-0.71673 -0.585494,-0.59531 c -0.322,-0.3275 -0.676232,-0.70514 -0.787032,-0.83923 -0.1108,-0.13401 -0.24022,-0.28607 -0.287322,-0.33798 -0.047,-0.052 -0.277712,-0.34168 -0.512114,-0.64389 -0.423698,-0.54618 -0.513635,-0.67667 -1.255736,-1.82779 -0.460899,-0.71499 -1.416151,-2.44205 -1.416452,-2.56056 -9.8e-5,-0.077 -0.01386,-0.1193 -0.04186,-0.1266 z m -13.458611,4.97075 c -0.015,1.1e-4 -0.185036,0.30422 -0.377238,0.6754 -0.751099,1.45111 -2.058209,3.25903 -2.882511,3.98632 -0.130799,0.11552 -0.237712,0.2432 -0.237712,0.28321 1.01e-4,0.04 0.309065,0.40262 0.686263,0.8051 0.752901,0.80359 1.897467,2.45102 2.464967,3.54812 l 0.363286,0.70278 0.120923,-0.23823 c 0.779399,-1.52879 1.944674,-3.23382 2.869075,-4.19923 l 0.545187,-0.56946 -0.596863,-0.63667 c -0.7987,-0.8518 -1.686216,-2.10357 -2.367814,-3.34086 -0.3077,-0.5588 -0.572561,-1.01648 -0.587563,-1.01648 z m -20.562567,0.0393 c -0.031,0 -0.172492,0.2231 -0.314193,0.4925 -0.795501,1.51318 -1.727771,2.85774 -2.662369,3.83902 -0.288902,0.30332 -0.528135,0.5691 -0.528135,0.59119 0,0.022 0.20457,0.25045 0.458372,0.50747 0.703498,0.71199 1.814499,2.24777 2.382798,3.29435 0.7514,1.3834 0.647967,1.33406 1.059367,0.50697 0.547302,-1.10011 1.68623,-2.75812 2.442229,-3.55431 0.374801,-0.3947 0.681712,-0.73884 0.681612,-0.76586 -1.01e-4,-0.027 -0.194848,-0.23757 -0.433049,-0.46818 -0.893099,-0.86471 -1.983571,-2.39233 -2.67167,-3.74293 -0.197001,-0.38639 -0.383963,-0.7012 -0.414962,-0.70022 z m 38.208518,11.94554 -0.894,0.004 0.01394,7.01714 0.01447,7.01871 0.86713,-0.0161 0.867648,-0.0161 0.01034,-7.0032 0.0098,-7.00421 z m -6.058542,0.014 h 5.29e-4 c -2.0779,0 -2.18063,0.0119 -2.540932,0.19584 -0.418197,0.2131 -0.645207,0.54309 -0.752408,1.094 h -5.3e-4 c -0.039,0.20251 -0.06354,2.88293 -0.04754,5.95622 0.02601,6.306 -0.0104,6.00422 0.687814,6.46163 l 0.340548,0.22479 2.164209,0.0222 c 2.431,0.0249 2.747725,-0.0212 3.126425,-0.45423 0.428401,-0.49041 0.444543,-0.76491 0.405144,-6.77839 l -0.03669,-5.50561 -0.214974,-0.42116 c -0.162298,-0.31761 -0.306144,-0.46638 -0.590145,-0.60979 -0.360698,-0.17981 -0.463545,-0.18981 -2.541444,-0.18552 z m 5.29e-4,1.77871 c 0.944099,0 1.449564,0.0289 1.487765,0.0899 0.031,0.051 0.06218,2.37969 0.06718,5.17488 0.01,4.20399 -0.01032,5.09577 -0.105421,5.16196 -0.153199,0.10629 -2.773394,0.0318 -2.888194,-0.0822 -0.105201,-0.1048 -0.162812,-10.03445 -0.05891,-10.22056 0.054,-0.097 0.345583,-0.12163 1.497584,-0.12401 z"
       sodipodi:nodetypes="ccccccccscsssccccscscscssscccscscccccscssssccsscscccccccccsscccsscccccsscssccsccccccccccsssccccccccccssccccscsccccccssccccccccscccccsccccccccssccscccssccsccssccscccscccccscsccscscccccsssccscccccccccscscssccccccsssscssscccsssssscssssccsssccccccsssccssssccccssscsscsssscccssscsssscscsssccssccscsccssscsccscccsccssscsccsscccsssssccccsscccccsccssccccscssscscssccccscscsccssccsssscccccccccccccccccccsccccccccccccc" />
  </g>
</svg>
