<?xml version="1.0" encoding="UTF-8" standalone="no"?>
<svg
   sodipodi:docname="2D.svg"
   id="svg8"
   version="1.1"
   viewBox="0 0 63.10236 88.347885"
   height="88.347885mm"
   width="63.10236mm"
   inkscape:version="1.1.1 (1:1.1+202109281949+c3084ef5ed)"
   inkscape:export-filename="/home/doug/k40/52Cards/2D.png"
   inkscape:export-xdpi="96"
   inkscape:export-ydpi="96"
   xmlns:inkscape="http://www.inkscape.org/namespaces/inkscape"
   xmlns:sodipodi="http://sodipodi.sourceforge.net/DTD/sodipodi-0.dtd"
   xmlns="http://www.w3.org/2000/svg"
   xmlns:svg="http://www.w3.org/2000/svg"
   xmlns:rdf="http://www.w3.org/1999/02/22-rdf-syntax-ns#"
   xmlns:cc="http://creativecommons.org/ns#"
   xmlns:dc="http://purl.org/dc/elements/1.1/">
  <defs
     id="defs2">
    <marker
       style="overflow:visible"
       id="marker2995"
       refX="0"
       refY="0"
       orient="auto"
       inkscape:stockid="Arrow1Lstart"
       inkscape:isstock="true">
      <path
         transform="matrix(0.8,0,0,0.8,10,0)"
         style="fill:#000000;fill-opacity:1;fill-rule:evenodd;stroke:#000000;stroke-width:1pt;stroke-opacity:1"
         d="M 0,0 5,-5 -12.5,0 5,5 Z"
         id="path2993" />
    </marker>
    <marker
       style="overflow:visible"
       id="marker2985"
       refX="0"
       refY="0"
       orient="auto"
       inkscape:stockid="Arrow1Lstart"
       inkscape:isstock="true">
      <path
         transform="matrix(0.8,0,0,0.8,10,0)"
         style="fill:#000000;fill-opacity:1;fill-rule:evenodd;stroke:#000000;stroke-width:1pt;stroke-opacity:1"
         d="M 0,0 5,-5 -12.5,0 5,5 Z"
         id="path2983" />
    </marker>
    <marker
       style="overflow:visible"
       id="marker2791"
       refX="0"
       refY="0"
       orient="auto"
       inkscape:stockid="Arrow1Lstart"
       inkscape:isstock="true">
      <path
         transform="matrix(0.8,0,0,0.8,10,0)"
         style="fill:#000000;fill-opacity:1;fill-rule:evenodd;stroke:#000000;stroke-width:1pt;stroke-opacity:1"
         d="M 0,0 5,-5 -12.5,0 5,5 Z"
         id="path2789" />
    </marker>
    <marker
       style="overflow:visible"
       id="marker2781"
       refX="0"
       refY="0"
       orient="auto"
       inkscape:stockid="Arrow1Lstart"
       inkscape:isstock="true">
      <path
         transform="matrix(0.8,0,0,0.8,10,0)"
         style="fill:#000000;fill-opacity:1;fill-rule:evenodd;stroke:#000000;stroke-width:1pt;stroke-opacity:1"
         d="M 0,0 5,-5 -12.5,0 5,5 Z"
         id="path2779" />
    </marker>
    <marker
       style="overflow:visible"
       id="marker2417"
       refX="0"
       refY="0"
       orient="auto"
       inkscape:stockid="Arrow1Lstart"
       inkscape:isstock="true">
      <path
         transform="matrix(0.8,0,0,0.8,10,0)"
         style="fill:#000000;fill-opacity:1;fill-rule:evenodd;stroke:#000000;stroke-width:1pt;stroke-opacity:1"
         d="M 0,0 5,-5 -12.5,0 5,5 Z"
         id="path2415" />
    </marker>
    <marker
       style="overflow:visible"
       id="marker2383"
       refX="0"
       refY="0"
       orient="auto"
       inkscape:stockid="Arrow1Lstart"
       inkscape:isstock="true">
      <path
         transform="matrix(0.8,0,0,0.8,10,0)"
         style="fill:#000000;fill-opacity:1;fill-rule:evenodd;stroke:#000000;stroke-width:1pt;stroke-opacity:1"
         d="M 0,0 5,-5 -12.5,0 5,5 Z"
         id="path2381" />
    </marker>
    <marker
       style="overflow:visible"
       id="marker2355"
       refX="0"
       refY="0"
       orient="auto"
       inkscape:stockid="Arrow1Lstart"
       inkscape:isstock="true">
      <path
         transform="matrix(0.8,0,0,0.8,10,0)"
         style="fill:#000000;fill-opacity:1;fill-rule:evenodd;stroke:#000000;stroke-width:1pt;stroke-opacity:1"
         d="M 0,0 5,-5 -12.5,0 5,5 Z"
         id="path2353" />
    </marker>
    <marker
       style="overflow:visible"
       id="Arrow1Lstart"
       refX="0"
       refY="0"
       orient="auto"
       inkscape:stockid="Arrow1Lstart"
       inkscape:isstock="true">
      <path
         transform="matrix(0.8,0,0,0.8,10,0)"
         style="fill:#000000;fill-opacity:1;fill-rule:evenodd;stroke:#000000;stroke-width:1pt;stroke-opacity:1"
         d="M 0,0 5,-5 -12.5,0 5,5 Z"
         id="path2071" />
    </marker>
  </defs>
  <sodipodi:namedview
     id="base"
     pagecolor="#ffffff"
     bordercolor="#666666"
     borderopacity="1.0"
     inkscape:pageopacity="0.0"
     inkscape:pageshadow="2"
     inkscape:zoom="1.5033844"
     inkscape:cx="86.138981"
     inkscape:cy="167.28922"
     inkscape:document-units="mm"
     inkscape:current-layer="layer1"
     inkscape:document-rotation="0"
     showgrid="false"
     inkscape:snap-smooth-nodes="false"
     inkscape:object-nodes="false"
     inkscape:window-width="1366"
     inkscape:window-height="712"
     inkscape:window-x="0"
     inkscape:window-y="0"
     inkscape:window-maximized="1"
     inkscape:object-paths="false"
     inkscape:snap-intersection-paths="false"
     inkscape:snap-midpoints="false"
     inkscape:snap-others="false"
     inkscape:pagecheckerboard="0"
     showguides="true"
     inkscape:guide-bbox="true"
     inkscape:snap-bbox="true"
     showborder="false"
     fit-margin-top="0"
     fit-margin-left="0"
     fit-margin-right="0"
     fit-margin-bottom="0" />
  <metadata
     id="metadata5">
    <rdf:RDF>
      <cc:Work
         rdf:about="">
        <dc:format>image/svg+xml</dc:format>
        <dc:type
           rdf:resource="http://purl.org/dc/dcmitype/StillImage" />
      </cc:Work>
    </rdf:RDF>
  </metadata>
  <g
     inkscape:label="Layer 1"
     inkscape:groupmode="layer"
     id="layer1"
     transform="translate(660.29148,596.89998)">
    <path
       id="path11615"
       style="fill:#000000;fill-opacity:1;stroke:none;stroke-width:0.0846667;stroke-opacity:1"
       d="m -652.38139,-596.89998 0.004,5.3e-4 c -1.1203,9.8e-4 -2.13585,0.005 -2.77606,0.0124 l -2.32855,0.0258 -0.57772,0.29612 c -0.74231,0.37984 -1.68912,1.3326 -1.98284,1.99523 l -0.20772,0.46921 -0.01,4.57284 c -0.01,2.51511 -0.0142,5.3543 -0.0212,6.30918 -0.01,0.95491 -0.01,3.88914 -0.01,6.52055 0,2.63136 0.01,5.88917 0,7.23985 0,1.35067 -1.8e-4,6.68596 0.01,11.8556 0.01,5.16967 0.0103,10.48584 0.0103,11.81325 0,1.32742 -8e-5,4.87109 0.0129,7.87496 0.018,5.89954 0.019,6.5541 0.032,17.7519 0,4.10519 0.0119,7.74898 0.0139,8.09667 l 0.001,0.63198 0.19378,0.36796 c 0.32682,0.62013 0.79772,1.15567 1.38184,1.572 0.99349,0.7077 1.03336,0.71371 4.92477,0.71466 1.32739,3.2e-4 3.09975,0.007 3.93825,0.014 2.48909,0.0218 5.15818,0.0307 9.82318,0.031 2.42189,2.2e-4 4.97528,0.0105 5.67407,0.0233 0.6989,0.0129 3.15669,0.0254 5.46219,0.0284 2.3055,0.003 5.69762,0.0147 7.53753,0.0264 1.83994,0.0117 5.95609,0.0336 9.14672,0.0491 3.19064,0.0154 7.01998,0.0368 8.51059,0.0481 3.07438,0.023 3.4824,-0.001 3.99047,-0.2372 h 0.004 c 1.01219,-0.47016 2.15546,-1.68206 2.34612,-2.48772 0.0404,-0.171 0.0771,-2.38738 0.0811,-4.9258 0.0142,-8.09741 0.008,-17.79325 -0.0134,-21.67876 -0.0116,-2.07235 -0.0228,-5.92053 -0.0258,-8.55195 -0.002,-2.63141 -0.008,-7.01386 -0.0124,-9.73841 -0.02,-13.76802 -0.0238,-26.62158 -0.0103,-33.09773 l 0.0103,-4.6028 -0.2935,-0.55761 c -0.52456,-0.99563 -1.77519,-2.04705 -2.61019,-2.19469 -0.44011,-0.0778 -2.16628,-0.0939 -12.87362,-0.11835 -1.25757,-0.003 -2.80088,-0.0116 -3.42977,-0.0186 -0.62889,-0.007 -2.3822,-0.0131 -3.89588,-0.0129 -2.81824,3.9e-4 -12.30347,-0.0289 -15.79388,-0.0486 -1.0713,-0.006 -3.5292,-0.0179 -5.46219,-0.0269 -1.93299,-0.009 -5.24873,-0.026 -7.36804,-0.0367 -1.05968,-0.005 -2.28518,-0.007 -3.40548,-0.006 z m -4.04987,0.508 5.3e-4,5e-4 c 2.647,-0.0141 12.93948,0.0446 23.60888,0.13851 2.11971,0.0184 8.02341,0.0648 13.12272,0.10282 5.0991,0.038 11.67167,0.0878 14.60479,0.11216 l 5.19142,0.0419 0.42426,0.22736 c 0.57329,0.30676 1.35493,1.10077 1.58387,1.56424 l 0.18709,0.38034 0.0113,4.60592 c 0.009,3.7824 -0.002,12.61599 -0.0196,20.70521 -0.0178,8.08921 -0.044,15.49413 -0.0615,16.23674 -0.0207,0.88429 -0.0393,7.87691 -0.0455,15.67759 -0.006,8.12718 -0.02,14.33266 -0.0408,18.55081 -0.0104,2.10907 -0.0233,3.72226 -0.0372,4.82812 -0.007,0.55292 -0.013,0.97917 -0.0207,1.27537 -0.004,0.14811 -0.009,0.26408 -0.0124,0.34366 -0.004,0.0796 -0.0173,0.1591 -0.003,0.0822 -0.0654,0.34515 -0.41902,0.95379 -0.9126,1.40147 -0.69162,0.62722 -1.19348,0.88093 -1.8061,0.97099 -0.22447,0.033 -0.72692,0.0666 -1.15083,0.0796 -0.21196,0.007 -0.4087,0.009 -0.5452,0.006 -0.06,-10e-4 -0.10112,-0.005 -0.1266,-0.007 -0.005,-0.002 -0.0155,-0.004 -0.0155,-0.004 -5.3e-4,-1.3e-4 -0.0479,-0.0105 -0.0605,-0.0124 -0.0249,-0.004 -0.0347,-0.005 -0.0449,-0.006 -0.0206,-0.002 -0.0347,-10e-4 -0.0506,-0.002 -0.0319,-0.002 -0.0696,-0.004 -0.11732,-0.005 -0.0954,-0.003 -0.23058,-0.006 -0.40256,-0.009 -0.34393,-0.006 -0.83508,-0.0117 -1.44124,-0.0181 -1.21229,-0.0127 -2.87816,-0.0255 -4.7067,-0.0362 -3.65498,-0.0216 -8.32527,-0.0541 -10.37301,-0.0713 -5.82637,-0.0488 -12.0563,-0.0927 -19.00711,-0.13229 -3.5156,-0.02 -9.19491,-0.0549 -12.61732,-0.078 l -6.09161,-0.0403 -0.4749,-0.22788 c -0.54531,-0.26204 -1.26918,-0.93972 -1.66037,-1.59631 l -0.216,-0.36121 -0.0243,-17.41236 c -0.024,-16.53717 0.034,-44.23048 0.12351,-58.63778 l 0.0403,-6.30452 0.26768,-0.52916 c 0.4581,-0.90784 1.63351,-1.76157 2.32392,-1.83452 -0.04,0.004 0.045,-0.002 0.1483,-0.003 0.10699,-0.001 0.25781,-0.002 0.44751,-0.003 z m 3.6158,3.76153 5.3e-4,5e-4 c -0.21582,0.004 -0.4395,0.0174 -0.67181,0.0403 -2.09801,0.20709 -3.48768,1.61939 -3.7424,3.80339 l -0.047,0.40306 0.92244,-0.0145 0.92295,-0.0139 0.008,-0.34367 c 0.0186,-0.78698 0.66521,-1.70669 1.38803,-1.97453 0.20542,-0.0761 0.68021,-0.1269 1.26039,-0.13489 1.04542,-0.0144 1.44362,0.10327 2.03036,0.60254 0.44855,0.38166 0.659,0.81674 0.66768,1.37615 0.01,0.62664 -0.21132,1.11048 -0.7488,1.63867 -0.48146,0.47318 -0.58356,0.54898 -2.41535,1.78697 -2.66761,1.80284 -3.76627,3.05139 -3.98426,4.52787 l 5.3e-4,5.3e-4 c -0.0378,0.25672 -0.0577,0.87624 -0.0429,1.37665 l 0.0259,0.90951 0.61444,0.005 c 0.33768,0.003 0.71876,0.0125 0.84695,0.0217 0.12825,0.009 1.90966,-0.004 3.95844,-0.0294 l 3.72483,-0.047 0.0429,-0.74568 c 0.0236,-0.40997 0.0373,-1.36461 0.0305,-2.12132 l -0.0124,-1.37562 -0.40256,-0.006 c -0.22127,-0.003 -0.62103,-0.007 -0.88884,-0.008 l -0.48678,-0.003 -0.002,0.59378 c -10e-4,0.32647 -0.002,0.88913 -0.002,1.25108 v 0.65887 l -2.77706,0.0367 c -2.35329,0.0313 -2.7844,0.0183 -2.8262,-0.0858 -0.0272,-0.0676 0.0525,-0.33936 0.17674,-0.6036 0.3448,-0.73342 1.53228,-1.91725 2.74868,-2.73936 0.55305,-0.37378 1.32643,-0.89519 1.71823,-1.15911 0.92442,-0.62273 1.90762,-1.63198 2.19778,-2.25515 0.63733,-1.36864 0.37921,-2.85631 -0.69349,-3.99407 -0.91104,-0.96626 -2.03118,-1.40666 -3.5419,-1.37872 z m 40.66705,12.56715 -1.97779,-0.003 c -1.08779,-0.002 -2.4156,-0.0138 -2.95114,-0.0264 -0.53555,-0.0128 -4.34594,-0.0373 -8.46718,-0.0549 -4.1212,-0.0175 -8.23597,-0.0457 -9.14407,-0.0624 -0.90813,-0.0165 -3.65146,-0.0362 -6.09621,-0.043 l -4.44541,-0.0118 -0.008,0.25415 c -0.005,0.13971 -0.0187,5.51206 -0.0326,11.93831 -0.0139,6.42626 -0.0393,12.08417 -0.0562,12.57318 -0.0169,0.48899 -0.0415,6.26098 -0.0542,12.82695 -0.0129,6.56594 -0.0301,11.94723 -0.0391,11.95785 l 5.2e-4,5.4e-4 c -0.009,0.0107 -0.0224,1.22007 -0.031,2.68801 -0.0121,2.1605 0.006,2.67571 0.0976,2.70414 0.062,0.0193 2.43667,0.0504 5.27728,0.0687 2.84066,0.0188 7.66021,0.0507 10.71042,0.0708 3.05016,0.0201 8.09831,0.0539 11.21839,0.0747 3.12004,0.0209 5.68005,0.0362 5.68906,0.0353 0.0576,-0.009 0.10069,-4.75846 0.11564,-12.74195 0.01,-5.09909 0.0317,-10.852 0.049,-12.78462 0.0174,-1.93255 0.0411,-7.00014 0.053,-11.26105 0.0119,-4.26088 0.0377,-10.09966 0.0571,-12.97522 z m -0.42138,0.34044 -0.028,9.03806 c -0.0156,4.97105 -0.0435,9.83799 -0.0619,10.81595 -0.0184,0.97796 -0.045,6.94081 -0.059,13.25067 -0.0141,6.30982 -0.0313,11.83489 -0.038,12.27727 -0.007,0.44243 -0.0133,2.62829 -0.0138,4.85779 l -0.002,4.05378 -3.78871,-0.0409 c -2.08392,-0.0224 -7.16131,-0.0541 -11.28251,-0.0698 -4.12123,-0.0158 -7.53891,-0.0429 -7.59526,-0.0603 -0.0564,-0.0172 -2.13558,-0.031 -4.62037,-0.031 -2.4848,1.8e-4 -4.6239,-0.0196 -4.75404,-0.0441 l 1e-5,-5.2e-4 -0.23719,-0.0449 0.0189,-4.35539 c 0.01,-2.39564 0.0224,-4.36178 0.0274,-4.36978 0.005,-0.008 0.0208,-4.79643 0.0338,-10.6406 0.0272,-12.22607 0.0626,-21.44796 0.10312,-26.54286 0.0157,-1.95583 0.027,-4.61975 0.0242,-5.91918 l -0.005,-2.36188 5.82082,0.0385 c 3.20152,0.0214 8.39294,0.0536 11.53625,0.071 3.14331,0.0174 6.21054,0.0434 6.81595,0.0583 0.6054,0.0147 2.67698,0.0249 4.60341,0.0231 z m -16.42232,3.00358 -0.42426,0.79271 c -0.76817,1.43577 -1.85069,2.95035 -2.7373,3.83024 -0.34081,0.33822 -0.3497,0.36934 -0.15349,0.52557 0.33761,0.26871 1.43436,1.55679 1.86812,2.19366 0.4862,0.71385 1.44859,2.37133 1.45055,2.49854 0.003,0.16899 0.1493,0.0481 0.27543,-0.22735 0.56258,-1.22846 1.95215,-3.27025 2.82411,-4.14912 0.25651,-0.25852 0.46551,-0.49223 0.46511,-0.51935 -4.2e-4,-0.0271 -0.21389,-0.26577 -0.4744,-0.5307 -0.26053,-0.26496 -0.58036,-0.62042 -0.71056,-0.78962 -0.13015,-0.1692 -0.26046,-0.32597 -0.28991,-0.34883 -0.14967,-0.11602 -1.72315,-2.52431 -1.72495,-2.64015 -2.6e-4,-0.0181 -0.0832,-0.16864 -0.18449,-0.33432 z m -23.62957,1.13479 c -0.0151,2.4e-4 -0.1809,0.29528 -0.36843,0.6563 -1.10723,2.1312 -2.47807,4.12107 -3.71864,5.39864 -0.44715,0.46048 -0.81942,0.86503 -0.82786,0.89916 -0.008,0.0341 0.15955,0.21738 0.37206,0.40722 0.4491,0.40127 1.37559,1.4496 2.02314,2.28875 0.52755,0.68363 1.9378,2.95 2.33992,3.75997 0.15293,0.30805 0.29493,0.55946 0.31522,0.55914 0.0203,-3.1e-4 0.17161,-0.27887 0.33589,-0.61907 1.08529,-2.2475 2.21882,-3.91864 3.80958,-5.61567 l 0.77515,-0.82736 -0.62736,-0.62529 c -1.46124,-1.45632 -2.62577,-3.0576 -3.88141,-5.33765 -0.28607,-0.51951 -0.53218,-0.94437 -0.54726,-0.94414 z m 47.62449,31.83994 c -0.0322,-0.0342 -0.23659,0.2926 -0.45423,0.72657 -0.47599,0.94879 -1.49903,2.62186 -2.16628,3.5419 -0.26707,0.36824 -0.90646,1.11421 -1.42057,1.65777 -0.51414,0.54359 -0.93583,1.01134 -0.93639,1.03973 -9.3e-4,0.0284 0.15621,0.17841 0.34933,0.33332 1.13546,0.91104 3.65813,4.40174 4.49895,6.22546 0.0969,0.21014 0.19301,0.3822 0.21341,0.38188 0.0204,-3.2e-4 0.15243,-0.24054 0.29353,-0.5338 0.49953,-1.03809 1.34366,-2.44335 2.22157,-3.69747 0.48541,-0.69337 1.93075,-2.38207 2.24174,-2.61895 l 0.21185,-0.16124 -0.5648,-0.5674 c -1.68942,-1.69762 -2.75834,-3.15539 -3.97857,-5.42602 -0.24821,-0.46188 -0.47739,-0.86754 -0.50954,-0.90175 z m -23.61252,5.12836 c -0.0119,5e-5 -0.0249,0.004 -0.0387,0.0109 -0.0556,0.0277 -0.12343,0.1084 -0.17364,0.22685 -0.12825,0.30258 -0.67429,1.2672 -1.14824,2.02883 -0.41291,0.66349 -1.49961,2.02321 -1.88466,2.35799 -0.13631,0.11856 -0.24945,0.25532 -0.2527,0.30387 -0.003,0.0485 0.17182,0.25512 0.38809,0.4594 0.86773,0.81955 2.16432,2.62951 2.86237,3.9951 0.12401,0.24257 0.25892,0.44091 0.29922,0.4403 0.0403,-6.4e-4 0.17076,-0.20323 0.2904,-0.44961 0.61807,-1.27249 1.86098,-3.06724 2.78538,-4.02249 0.2177,-0.22497 0.39581,-0.43622 0.39531,-0.46921 -5.3e-4,-0.033 -0.0962,-0.13634 -0.21238,-0.22945 -0.48673,-0.39002 -1.69878,-1.95529 -2.44586,-3.15899 -0.44085,-0.71032 -0.80219,-1.33686 -0.80304,-1.39216 -7.6e-4,-0.0695 -0.0258,-0.10144 -0.0615,-0.10128 z m 26.45164,11.82719 c -0.56367,-0.009 -7.00485,0.0499 -7.32928,0.0677 l -10e-4,5.3e-4 c -0.0264,10e-4 -0.0303,0.95705 -0.009,2.12339 l 0.0382,2.12027 0.86868,0.007 c 0.47744,0.004 0.8691,-0.0139 0.86971,-0.0393 0.006,-0.18473 0.0353,-1.73299 0.0393,-2.05724 l 0.005,-0.40206 2.79363,-0.0434 2.79363,-0.0434 0.003,0.19793 c 0.005,0.31391 -0.32141,0.85987 -0.91982,1.53787 -0.67657,0.76652 -1.46751,1.39771 -2.78897,2.2252 -2.21263,1.38554 -2.96723,2.15077 -3.37344,3.42148 -0.53986,1.68871 0.38105,3.50949 2.20864,4.36563 0.82899,0.38838 1.35601,0.49982 2.29494,0.48524 1.76395,-0.0274 3.32489,-0.9403 3.95068,-2.31095 0.19156,-0.4196 0.43555,-1.46375 0.44079,-1.88568 9.6e-4,-0.0781 -0.2305,-0.10163 -0.88262,-0.0915 l -0.88368,0.0134 -0.0532,0.40307 c -0.11115,0.83357 -0.53128,1.46232 -1.22992,1.84176 -0.53043,0.28808 -1.94177,0.34171 -2.61792,0.0992 -1.5432,-0.55335 -2.01308,-2.09076 -1.00509,-3.28922 0.31668,-0.37653 0.99343,-0.88707 2.11457,-1.59525 2.65817,-1.67905 3.87938,-2.85718 4.37081,-4.21627 0.15037,-0.41577 0.18862,-0.7361 0.2067,-1.71826 l 0.0222,-1.20663 -0.58187,0.001 c -0.3202,6.9e-4 -0.92535,-0.005 -1.34461,-0.0119 z" />
  </g>
</svg>
