<?xml version="1.0" encoding="UTF-8" standalone="no"?>
<svg
   sodipodi:docname="2H.svg"
   id="svg8"
   version="1.1"
   viewBox="0 0 63.209885 88.282639"
   height="88.282639mm"
   width="63.209885mm"
   inkscape:version="1.1.1 (1:1.1+202109281949+c3084ef5ed)"
   inkscape:export-filename="/home/doug/k40/52Cards/2H.png"
   inkscape:export-xdpi="96"
   inkscape:export-ydpi="96"
   xmlns:inkscape="http://www.inkscape.org/namespaces/inkscape"
   xmlns:sodipodi="http://sodipodi.sourceforge.net/DTD/sodipodi-0.dtd"
   xmlns="http://www.w3.org/2000/svg"
   xmlns:svg="http://www.w3.org/2000/svg"
   xmlns:rdf="http://www.w3.org/1999/02/22-rdf-syntax-ns#"
   xmlns:cc="http://creativecommons.org/ns#"
   xmlns:dc="http://purl.org/dc/elements/1.1/">
  <defs
     id="defs2">
    <marker
       style="overflow:visible"
       id="marker2995"
       refX="0"
       refY="0"
       orient="auto"
       inkscape:stockid="Arrow1Lstart"
       inkscape:isstock="true">
      <path
         transform="matrix(0.8,0,0,0.8,10,0)"
         style="fill:#000000;fill-opacity:1;fill-rule:evenodd;stroke:#000000;stroke-width:1pt;stroke-opacity:1"
         d="M 0,0 5,-5 -12.5,0 5,5 Z"
         id="path2993" />
    </marker>
    <marker
       style="overflow:visible"
       id="marker2985"
       refX="0"
       refY="0"
       orient="auto"
       inkscape:stockid="Arrow1Lstart"
       inkscape:isstock="true">
      <path
         transform="matrix(0.8,0,0,0.8,10,0)"
         style="fill:#000000;fill-opacity:1;fill-rule:evenodd;stroke:#000000;stroke-width:1pt;stroke-opacity:1"
         d="M 0,0 5,-5 -12.5,0 5,5 Z"
         id="path2983" />
    </marker>
    <marker
       style="overflow:visible"
       id="marker2791"
       refX="0"
       refY="0"
       orient="auto"
       inkscape:stockid="Arrow1Lstart"
       inkscape:isstock="true">
      <path
         transform="matrix(0.8,0,0,0.8,10,0)"
         style="fill:#000000;fill-opacity:1;fill-rule:evenodd;stroke:#000000;stroke-width:1pt;stroke-opacity:1"
         d="M 0,0 5,-5 -12.5,0 5,5 Z"
         id="path2789" />
    </marker>
    <marker
       style="overflow:visible"
       id="marker2781"
       refX="0"
       refY="0"
       orient="auto"
       inkscape:stockid="Arrow1Lstart"
       inkscape:isstock="true">
      <path
         transform="matrix(0.8,0,0,0.8,10,0)"
         style="fill:#000000;fill-opacity:1;fill-rule:evenodd;stroke:#000000;stroke-width:1pt;stroke-opacity:1"
         d="M 0,0 5,-5 -12.5,0 5,5 Z"
         id="path2779" />
    </marker>
    <marker
       style="overflow:visible"
       id="marker2417"
       refX="0"
       refY="0"
       orient="auto"
       inkscape:stockid="Arrow1Lstart"
       inkscape:isstock="true">
      <path
         transform="matrix(0.8,0,0,0.8,10,0)"
         style="fill:#000000;fill-opacity:1;fill-rule:evenodd;stroke:#000000;stroke-width:1pt;stroke-opacity:1"
         d="M 0,0 5,-5 -12.5,0 5,5 Z"
         id="path2415" />
    </marker>
    <marker
       style="overflow:visible"
       id="marker2383"
       refX="0"
       refY="0"
       orient="auto"
       inkscape:stockid="Arrow1Lstart"
       inkscape:isstock="true">
      <path
         transform="matrix(0.8,0,0,0.8,10,0)"
         style="fill:#000000;fill-opacity:1;fill-rule:evenodd;stroke:#000000;stroke-width:1pt;stroke-opacity:1"
         d="M 0,0 5,-5 -12.5,0 5,5 Z"
         id="path2381" />
    </marker>
    <marker
       style="overflow:visible"
       id="marker2355"
       refX="0"
       refY="0"
       orient="auto"
       inkscape:stockid="Arrow1Lstart"
       inkscape:isstock="true">
      <path
         transform="matrix(0.8,0,0,0.8,10,0)"
         style="fill:#000000;fill-opacity:1;fill-rule:evenodd;stroke:#000000;stroke-width:1pt;stroke-opacity:1"
         d="M 0,0 5,-5 -12.5,0 5,5 Z"
         id="path2353" />
    </marker>
    <marker
       style="overflow:visible"
       id="Arrow1Lstart"
       refX="0"
       refY="0"
       orient="auto"
       inkscape:stockid="Arrow1Lstart"
       inkscape:isstock="true">
      <path
         transform="matrix(0.8,0,0,0.8,10,0)"
         style="fill:#000000;fill-opacity:1;fill-rule:evenodd;stroke:#000000;stroke-width:1pt;stroke-opacity:1"
         d="M 0,0 5,-5 -12.5,0 5,5 Z"
         id="path2071" />
    </marker>
  </defs>
  <sodipodi:namedview
     id="base"
     pagecolor="#ffffff"
     bordercolor="#666666"
     borderopacity="1.0"
     inkscape:pageopacity="0.0"
     inkscape:pageshadow="2"
     inkscape:zoom="1.5044955"
     inkscape:cx="125.95584"
     inkscape:cy="166.501"
     inkscape:document-units="mm"
     inkscape:current-layer="layer1"
     inkscape:document-rotation="0"
     showgrid="false"
     inkscape:snap-smooth-nodes="false"
     inkscape:object-nodes="false"
     inkscape:window-width="1366"
     inkscape:window-height="712"
     inkscape:window-x="0"
     inkscape:window-y="0"
     inkscape:window-maximized="1"
     inkscape:object-paths="false"
     inkscape:snap-intersection-paths="false"
     inkscape:snap-midpoints="false"
     inkscape:snap-others="false"
     inkscape:pagecheckerboard="0"
     showguides="true"
     inkscape:guide-bbox="true"
     inkscape:snap-bbox="true"
     showborder="false"
     fit-margin-top="0"
     fit-margin-left="0"
     fit-margin-right="0"
     fit-margin-bottom="0" />
  <metadata
     id="metadata5">
    <rdf:RDF>
      <cc:Work
         rdf:about="">
        <dc:format>image/svg+xml</dc:format>
        <dc:type
           rdf:resource="http://purl.org/dc/dcmitype/StillImage" />
      </cc:Work>
    </rdf:RDF>
  </metadata>
  <g
     inkscape:label="Layer 1"
     inkscape:groupmode="layer"
     id="layer1"
     transform="translate(660.34501,353.604)">
    <path
       id="path389"
       style="fill:#000000;fill-opacity:1;stroke:none;stroke-width:0.0846667;stroke-opacity:1"
       d="m -654.78526,-353.6016 c -0.78931,0.003 -1.44587,0.01 -1.87637,0.0191 l -0.001,10e-4 c -0.28699,0.006 -0.47376,0.0137 -0.53175,0.0227 -0.71274,0.10703 -1.36623,0.48943 -2.06084,1.20561 -0.35994,0.37102 -0.71327,0.83104 -0.82373,1.07229 l -0.19378,0.42271 -0.046,0.97875 c -0.0248,0.53812 -0.034,3.07406 -0.0191,5.63532 0.0147,2.56127 0.0237,6.71443 0.0207,9.22941 -0.003,2.51498 0.005,6.5732 0.0191,9.01804 0.014,2.44485 0.0168,5.11212 0.009,5.92729 -0.01,0.81518 -0.004,3.48245 0.0109,5.92729 0.0149,2.44483 0.0236,5.32166 0.0196,6.39289 -0.004,1.07124 0.002,3.75714 0.0139,5.96914 0.012,2.21202 0.0174,4.91748 0.0124,6.01204 -0.005,1.09454 -0.004,3.47644 0.002,5.2927 0.0285,9.44305 0.0307,15.02883 0.007,16.1308 -0.0149,0.67556 -0.008,2.34826 0.0155,3.71708 l 0.0408,2.48874 0.19224,0.38086 c 0.4037,0.80052 1.52694,1.79313 2.36832,2.09238 l 0.45992,0.16381 6.07044,0.0233 c 3.33873,0.0129 7.2708,0.0259 8.73797,0.0289 1.46704,0.003 5.50638,0.0143 8.97618,0.0243 3.46993,0.0101 7.71863,0.0164 9.44181,0.0134 1.72307,-0.003 3.80008,0.002 4.61521,0.0103 0.81518,0.008 3.61574,0.0235 6.22392,0.0315 2.60816,0.008 5.96168,0.0245 7.45226,0.0356 1.49048,0.012 3.37431,0.0163 4.18579,0.0103 l 1.47537,-0.0114 0.62735,-0.32246 h 10e-4 c 0.76044,-0.39123 1.65285,-1.2625 1.97922,-1.93167 l 0.22426,-0.45888 5.3e-4,-6.64766 c 3.9e-4,-3.65598 -0.008,-9.56211 -0.0165,-13.12478 -0.009,-3.56268 -0.0138,-7.48718 -0.009,-8.72143 0.005,-1.23426 0.003,-4.91108 -0.004,-8.17108 -0.0152,-7.24781 -0.0231,-15.79624 -0.0181,-19.26445 0.002,-1.4205 -0.002,-5.2501 -0.0114,-8.51007 -0.008,-3.25996 -0.0176,-8.66194 -0.0196,-12.00495 l -0.004,-6.0787 -0.23408,-0.45786 c -0.49138,-0.96422 -1.47196,-1.92827 -2.27222,-2.23345 -0.46265,-0.17645 -1.06087,-0.19292 -6.91483,-0.19792 -2.70131,-0.002 -5.7691,-0.01 -6.81715,-0.0176 -1.04798,-0.007 -4.22955,-0.0124 -7.07038,-0.0114 -2.84093,10e-4 -5.71833,-0.008 -6.39392,-0.0196 -0.67548,-0.012 -2.79,-0.0174 -4.69945,-0.0114 -1.90936,0.005 -3.83405,-8.7e-4 -4.27675,-0.0145 -0.44267,-0.0139 -3.22461,-0.0285 -6.18204,-0.0325 -2.95749,-0.004 -7.47329,-0.0183 -10.03506,-0.0315 -0.96065,-0.005 -1.88236,-0.006 -2.67166,-0.003 z m 6.85694,0.65577 c 4.23778,-0.006 9.47867,-0.006 14.81357,0.002 2.11976,0.003 8.0232,0.007 13.1227,0.008 5.09926,0.001 11.67262,0.003 14.60585,0.006 l 5.19141,0.004 0.4258,0.22479 c 0.57552,0.30258 1.36294,1.09055 1.59525,1.55237 l 0.18965,0.3793 0.045,4.6054 c 0.0366,3.78221 0.0897,12.61555 0.13073,20.70467 0.041,8.08913 0.0689,15.49403 0.0568,16.23674 -0.0143,0.88441 0.0177,7.87706 0.0682,15.67759 0.0526,8.127 0.0842,14.33263 0.094,18.55081 0.005,2.10909 0.004,3.72219 -0.002,4.82813 -0.003,0.55297 -0.006,0.9791 -0.0119,1.27537 -0.003,0.14814 -0.007,0.26406 -0.01,0.34365 -0.003,0.0796 -0.0161,0.15926 -0.002,0.0822 -0.0629,0.34561 -0.41193,0.95695 -0.90228,1.40818 -0.68705,0.63225 -1.18692,0.88994 -1.79885,0.98444 -0.22424,0.0346 -0.7265,0.0718 -1.15033,0.0879 -0.21191,0.008 -0.40815,0.0119 -0.54467,0.01 -0.06,-9.4e-4 -0.10166,-0.004 -0.12711,-0.006 -0.005,-0.002 -0.0155,-0.004 -0.0155,-0.004 -5.3e-4,-1.3e-4 -0.048,-0.01 -0.0605,-0.0119 -0.025,-0.004 -0.0347,-0.005 -0.045,-0.006 -0.0206,-0.002 -0.0352,-0.001 -0.0511,-0.002 -0.0319,-0.001 -0.0691,-0.003 -0.11679,-0.004 -0.0954,-0.002 -0.23058,-0.004 -0.40256,-0.006 -0.34399,-0.003 -0.83508,-0.006 -1.44127,-0.008 -1.21235,-0.004 -2.87864,-0.005 -4.7072,-0.002 -3.65506,0.005 -8.32519,0.006 -10.37302,0.004 -5.82652,-0.006 -12.05671,-0.005 -19.00761,0.006 -3.51562,0.005 -9.19493,0.0123 -12.61732,0.0139 l -6.09163,0.004 -0.47697,-0.22428 c -0.54721,-0.25805 -1.27582,-0.93069 -1.67174,-1.5844 l -0.21857,-0.35915 -0.15039,-17.41237 c -0.1437,-16.53655 -0.28768,-44.22915 -0.30282,-58.63672 l -0.006,-6.30453 0.26356,-0.53123 c 0.45151,-0.91114 1.62054,-1.77362 2.31044,-1.85157 -0.0397,0.004 0.0454,-0.002 0.14833,-0.004 0.10692,-0.002 0.25778,-0.004 0.44752,-0.006 1.32341,-0.0166 4.55808,-0.0289 8.79583,-0.0351 z m -4.04524,3.34037 c -0.2258,0.006 -0.45598,0.0252 -0.69244,0.0584 l -0.78084,0.10956 -0.67334,0.34158 c -0.82105,0.41631 -1.44544,1.04441 -1.82316,1.83399 -0.27636,0.57794 -0.44133,1.24816 -0.43045,1.7477 l 0.006,0.29042 0.19118,0.0434 c 0.10539,0.0245 0.5329,0.0255 0.9493,0.003 l 0.75655,-0.0418 0.0832,-0.51005 c 0.14068,-0.86212 0.46625,-1.37159 1.10434,-1.72806 l 0.293,-0.1633 1.01544,-0.0227 1.01595,-0.0233 0.42738,0.18552 c 1.39904,0.60801 1.70114,1.97778 0.69916,3.17035 -0.24979,0.29727 -0.69717,0.62644 -2.62051,1.92753 -1.40935,0.95343 -2.08669,1.50156 -2.71351,2.19573 -1.04106,1.15291 -1.30453,1.90571 -1.26712,3.62303 l 0.0238,1.08107 0.19119,0.0372 c 0.10527,0.0205 2.05816,0.0293 4.3403,0.0196 v 5.2e-4 c 2.28214,-0.01 4.24447,-0.0134 4.36097,-0.009 0.42299,0.0168 0.4259,0.003 0.43151,-2.26395 l 0.006,-2.1301 -0.11835,-0.0393 c -0.0653,-0.0217 -0.50049,-0.0416 -0.96634,-0.0444 l -0.84645,-0.005 -0.0238,1.20819 c -0.0127,0.66426 -0.0466,1.23149 -0.0739,1.26039 -0.0277,0.0288 -1.23343,0.0499 -2.67994,0.047 l -2.63033,-0.005 -0.004,-0.18138 c -0.009,-0.41279 0.9684,-1.63066 1.89703,-2.3642 0.36582,-0.2889 0.95634,-0.71073 1.31257,-0.93741 2.76744,-1.76105 3.67935,-2.75048 3.92587,-4.25814 l 0.0884,-0.53743 -0.11576,-0.60514 c -0.26268,-1.36864 -1.23592,-2.43932 -2.71714,-2.99051 -0.62833,-0.23348 -1.26365,-0.34032 -1.94098,-0.32298 z m 39.89653,12.70417 -0.83725,0.0104 c -0.46049,0.005 -1.50357,1.9e-4 -2.3187,-0.0127 -0.81516,-0.0136 -4.62623,-0.0362 -8.4686,-0.0511 -3.84228,-0.015 -7.97659,-0.034 -9.1875,-0.0425 -2.39038,-0.0162 -10.15199,-0.0637 -11.28597,-0.0682 l 5.4e-4,-5.1e-4 c -0.38539,-0.002 -0.72316,0.0202 -0.75078,0.0482 -0.0786,0.0805 -0.0869,0.47944 -0.09,4.25136 -0.002,1.95601 -0.01,4.60416 -0.0164,5.88495 -0.006,1.2808 -0.0136,4.86284 -0.016,7.95985 -0.002,3.09701 -0.012,6.44989 -0.0212,7.4513 -0.009,1.00141 -0.0175,3.2884 -0.0171,5.08137 -4.4e-4,1.793 -0.006,4.11718 -0.0137,5.16512 -0.008,1.04795 -0.0118,3.52443 -0.009,5.50365 0.003,1.97924 -0.002,4.37982 -0.011,5.33464 -0.009,0.95483 -0.0207,3.19396 -0.0256,4.97537 l -0.008,3.23859 0.58091,-0.007 c 0.31961,-0.003 1.34314,0.002 2.27475,0.0133 0.93156,0.0115 4.76119,0.0333 8.51049,0.0494 3.74914,0.016 7.61709,0.0379 8.59522,0.0485 0.97814,0.0109 3.07388,0.0257 4.65747,0.0345 1.58357,0.009 4.04199,0.0256 5.46259,0.038 l 5.1e-4,10e-6 c 1.42059,0.0123 2.61847,0.0161 2.66238,0.01 0.16815,-0.0268 0.19532,-0.56595 0.17098,-3.06935 -0.0156,-1.42178 -0.0148,-2.60933 0.002,-2.63867 0.0166,-0.0295 0.0256,-2.18714 0.0195,-4.79505 -0.006,-2.6079 0.003,-4.95106 0.0202,-5.20744 0.0175,-0.25637 0.0292,-2.16192 0.0251,-4.2343 -0.005,-3.69742 -2.2e-4,-6.19302 0.0212,-10.83828 0.006,-1.28079 0.0126,-3.60549 0.0142,-5.16563 0.002,-1.56015 0.008,-3.84665 0.014,-5.08087 0.006,-1.23422 0.0102,-3.6921 0.01,-5.46177 -2.5e-4,-1.76969 0.007,-4.3892 0.0174,-5.8214 z m -6.29859,0.26451 c 0.78335,0.005 1.27611,0.0113 1.2887,0.0184 0.0252,0.0141 1.04351,0.0212 2.26287,0.0162 1.21923,-0.005 2.26186,0.0173 2.3163,0.0501 0.0747,0.0449 0.0962,0.80928 0.086,3.05382 -0.008,1.64667 -0.0168,4.17455 -0.0199,5.6183 -0.0127,5.84774 -0.0211,7.87038 -0.0374,9.52655 -0.01,0.95486 -0.0175,3.16492 -0.0184,4.91135 -0.001,1.74641 -0.011,3.76605 -0.0221,4.48805 -0.0118,0.72201 -0.0191,2.98942 -0.0153,5.0385 0.003,2.04906 -0.004,4.29683 -0.0169,4.99559 -0.0136,0.69873 -0.0172,3.44131 -0.008,6.09433 0.009,2.65304 0.003,4.84864 -0.016,4.8788 -0.0185,0.0301 -0.0242,1.26384 -0.004,2.74149 0.0153,1.47772 0.008,2.74035 -0.0156,2.806 l 0.005,5e-5 c -0.0333,0.0904 -0.23338,0.12217 -0.82534,0.13029 -0.42964,0.006 -0.79761,-0.003 -0.81687,-0.0211 -0.0197,-0.0172 -1.90268,-0.0315 -4.18462,-0.0327 -2.28201,-8.7e-4 -4.41607,-0.0121 -4.74229,-0.0248 -0.32609,-0.0127 -2.13631,-0.0242 -4.02241,-0.0264 -1.88621,-0.002 -3.94347,-0.0129 -4.57229,-0.0244 -0.62889,-0.0121 -3.73481,-0.0281 -6.90183,-0.036 -3.16689,-0.008 -5.847,-0.0309 -5.95549,-0.052 l -0.19712,-0.0367 0.0238,-1.66953 c 0.0124,-0.91819 0.0216,-3.30829 0.0185,-5.3108 -0.003,-2.00251 -8.6e-4,-4.53627 0.007,-5.6308 0.007,-1.09451 0.0128,-3.53329 0.011,-5.41939 -0.002,-1.88609 5.1e-4,-4.45808 0.005,-5.71556 0.005,-1.25748 0.0124,-3.56253 0.016,-5.12272 0.004,-1.56017 0.0166,-4.76128 0.0273,-7.11327 0.0109,-2.35198 0.022,-5.85759 0.0224,-7.7903 0.003,-5.42554 0.0574,-10.33178 0.11711,-10.43131 0.0269,-0.0448 0.23853,-0.0661 0.62995,-0.0636 v 0.001 c 0.13048,10e-4 0.28122,0.004 0.45156,0.0106 0.56488,0.0203 2.68446,0.0344 4.71022,0.0319 2.02588,-0.003 3.9309,0.009 4.23378,0.0251 0.30295,0.017 2.39881,0.0297 4.65751,0.0285 2.25867,-10e-4 4.12591,0.007 4.14909,0.02 0.0235,0.0127 1.96717,0.0248 4.31904,0.0258 1.17593,4.7e-4 2.25006,0.004 3.03343,0.009 z m -8.60823,2.98849 c -0.54732,-0.0142 -1.04338,0.25887 -1.42163,0.80046 l -0.28784,0.41134 -0.0873,-0.13797 c -0.46125,-0.72773 -0.77751,-0.97848 -1.3317,-1.05472 -0.0712,-0.01 -0.14179,-0.0152 -0.21135,-0.0165 -0.48676,-0.009 -0.9307,0.19059 -1.31517,0.5922 l -0.38706,0.40411 -0.0894,0.48422 c -0.16063,0.8681 0.14687,1.87329 1.16068,3.7946 0.35231,0.66801 1.77289,3.11057 2.10632,3.62199 0.0692,0.10615 0.16904,0.17769 0.22066,0.15916 0.052,-0.0185 0.27779,-0.34062 0.50178,-0.7152 2.17681,-3.64065 2.90317,-5.27862 2.87682,-6.48796 l -0.0119,-0.5364 -0.24392,-0.44908 -0.24392,-0.44855 -0.46302,-0.22273 c -0.26366,-0.12676 -0.52327,-0.19251 -0.77203,-0.19894 z m -22.55935,1.05833 c -0.81339,0.0233 -1.52009,0.4765 -1.91514,1.27433 -0.12935,0.26116 -0.25717,0.47539 -0.28318,0.47595 -0.0264,6.8e-4 -0.13899,-0.20675 -0.25064,-0.46044 -0.23773,-0.54014 -0.78883,-1.0474 -1.28725,-1.18495 -0.21125,-0.0583 -0.42818,-0.087 -0.64336,-0.0884 -0.64559,-0.004 -1.27662,0.23964 -1.70069,0.68264 -1.11943,1.16924 -0.92567,2.76805 0.7271,5.99498 0.61915,1.2091 2.78045,4.93057 3.07009,5.2865 h 5.1e-4 c 0.0478,0.0587 0.12649,0.0933 0.17311,0.0765 0.047,-0.0168 0.48877,-0.7043 0.98187,-1.52755 2.48375,-4.14701 3.44429,-6.29035 3.50779,-7.82846 l 0.0284,-0.68626 -0.16124,-0.45166 c -0.21325,-0.59827 -0.86886,-1.27013 -1.4061,-1.44022 -0.28734,-0.091 -0.57018,-0.13074 -0.84129,-0.12298 z m 44.07791,34.04701 v 5.1e-4 c -0.0645,0.0121 -0.25379,0.2528 -0.4201,0.53589 -0.16648,0.28309 -0.64418,1.09419 -1.06146,1.80195 -1.60673,2.72509 -2.35323,4.2253 -2.8112,5.65031 l -0.2191,0.68264 0.0186,0.84594 0.0181,0.84698 0.185,0.37672 c 0.52279,1.06807 1.71846,1.56109 2.88353,1.18907 0.42783,-0.13658 1.14964,-0.86144 1.29916,-1.30482 0.0585,-0.17379 0.12964,-0.31667 0.15864,-0.3173 0.0286,-6.2e-4 0.1406,0.19969 0.24858,0.44494 0.23445,0.53263 0.71599,1.00659 1.1839,1.16634 l -0.004,5.1e-4 c 0.54216,0.18515 1.36673,0.13871 1.86036,-0.10438 0.72105,-0.35512 1.14195,-0.97577 1.26556,-1.86656 0.18624,-1.34154 -0.59486,-3.44578 -2.38641,-6.42751 -0.33377,-0.55539 -0.94287,-1.57964 -1.35393,-2.27635 -0.4596,-0.77893 -0.79335,-1.25845 -0.86508,-1.24488 z m -23.05645,4.08554 c -0.13711,0.049 -0.40301,0.48152 -1.43404,2.26859 -2.01954,3.5007 -2.41705,5.24244 -1.42523,6.24199 0.72548,0.73122 1.8656,0.68283 2.51147,-0.10593 0.15931,-0.19449 0.28866,-0.4036 0.28732,-0.46509 -0.004,-0.18327 0.16507,-0.12991 0.2496,0.0786 0.18688,0.46098 0.66281,0.85637 1.171,0.97359 0.32279,0.0745 0.94506,-0.0105 1.23557,-0.16899 0.4023,-0.21926 0.80288,-0.80068 0.89504,-1.29914 l 0.0853,-0.46044 -0.14676,-0.65061 c -0.25125,-1.11456 -0.93372,-2.55354 -2.17403,-4.5837 -0.33697,-0.55159 -0.71903,-1.17955 -0.84905,-1.39526 -0.13004,-0.21571 -0.28993,-0.41055 -0.35346,-0.43356 -0.0162,-0.006 -0.0332,-0.007 -0.0527,0 z m 26.35755,10.81691 c -0.7484,-5.2e-4 -1.76027,0.004 -2.85461,0.0139 -2.18866,0.0204 -4.17,0.0229 -4.40333,0.005 -0.11663,-0.009 -0.23553,-0.008 -0.33279,5.1e-4 l 5e-4,10e-4 c -0.0973,0.008 -0.17357,0.0243 -0.20463,0.0455 l -0.11266,0.077 v 2.11564 c -5e-5,1.60438 0.0238,2.12928 0.10284,2.17557 0.057,0.0336 0.4825,0.0735 0.94464,0.0889 l 0.83974,0.0284 0.0362,-0.11937 c 0.0196,-0.0653 0.0498,-0.6474 0.0677,-1.29397 l 0.0315,-1.17564 2.59519,0.004 c 1.42729,0.002 2.62567,0.0323 2.66443,0.0672 0.13002,0.11865 -0.0262,0.4866 -0.45889,1.08158 -0.67419,0.92691 -1.43076,1.55276 -3.46128,2.86081 -2.09301,1.34834 -2.92455,2.33416 -3.15484,3.74241 -0.10282,0.62876 0.0301,1.41933 0.3483,2.07636 0.55716,1.15011 2.05983,2.1556 3.48816,2.33422 h 5e-4 c 2.16802,0.27109 4.02566,-0.64272 4.84934,-2.38487 0.27345,-0.57841 0.43518,-1.30091 0.38497,-1.7234 l -0.0331,-0.27699 -0.8051,-0.0279 c -0.44286,-0.0154 -0.86632,0.002 -0.94154,0.0393 -0.0836,0.0411 -0.15698,0.22532 -0.18759,0.47335 -0.0737,0.59249 -0.28927,1.04986 -0.65112,1.38183 -0.48328,0.44333 -0.81534,0.55714 -1.72238,0.5886 l -0.80357,0.0279 -0.53226,-0.18914 c -0.36944,-0.13106 -0.63772,-0.29962 -0.88162,-0.55294 -0.42428,-0.44025 -0.52284,-0.66368 -0.53485,-1.21491 -0.0178,-0.82009 0.53443,-1.56427 1.7503,-2.36006 0.42394,-0.27746 1.0147,-0.66512 1.3131,-0.86145 1.76157,-1.15873 3.21617,-2.51193 3.68244,-3.42615 0.36068,-0.70775 0.44866,-1.21461 0.42273,-2.44946 l -0.0233,-1.11569 -0.14883,-0.0403 c -0.041,-0.011 -0.52594,-0.0165 -1.27434,-0.0171 z" />
  </g>
</svg>
