<?xml version="1.0" encoding="UTF-8" standalone="no"?>
<svg
   sodipodi:docname="3C.svg"
   id="svg8"
   version="1.1"
   viewBox="0 0 63.101513 88.347931"
   height="88.347931mm"
   width="63.101513mm"
   inkscape:version="1.1.1 (1:1.1+202109281949+c3084ef5ed)"
   inkscape:export-filename="/home/doug/k40/52Cards/3C.png"
   inkscape:export-xdpi="96"
   inkscape:export-ydpi="96"
   xmlns:inkscape="http://www.inkscape.org/namespaces/inkscape"
   xmlns:sodipodi="http://sodipodi.sourceforge.net/DTD/sodipodi-0.dtd"
   xmlns="http://www.w3.org/2000/svg"
   xmlns:svg="http://www.w3.org/2000/svg"
   xmlns:rdf="http://www.w3.org/1999/02/22-rdf-syntax-ns#"
   xmlns:cc="http://creativecommons.org/ns#"
   xmlns:dc="http://purl.org/dc/elements/1.1/">
  <defs
     id="defs2">
    <marker
       style="overflow:visible"
       id="marker2995"
       refX="0"
       refY="0"
       orient="auto"
       inkscape:stockid="Arrow1Lstart"
       inkscape:isstock="true">
      <path
         transform="matrix(0.8,0,0,0.8,10,0)"
         style="fill:#000000;fill-opacity:1;fill-rule:evenodd;stroke:#000000;stroke-width:1pt;stroke-opacity:1"
         d="M 0,0 5,-5 -12.5,0 5,5 Z"
         id="path2993" />
    </marker>
    <marker
       style="overflow:visible"
       id="marker2985"
       refX="0"
       refY="0"
       orient="auto"
       inkscape:stockid="Arrow1Lstart"
       inkscape:isstock="true">
      <path
         transform="matrix(0.8,0,0,0.8,10,0)"
         style="fill:#000000;fill-opacity:1;fill-rule:evenodd;stroke:#000000;stroke-width:1pt;stroke-opacity:1"
         d="M 0,0 5,-5 -12.5,0 5,5 Z"
         id="path2983" />
    </marker>
    <marker
       style="overflow:visible"
       id="marker2791"
       refX="0"
       refY="0"
       orient="auto"
       inkscape:stockid="Arrow1Lstart"
       inkscape:isstock="true">
      <path
         transform="matrix(0.8,0,0,0.8,10,0)"
         style="fill:#000000;fill-opacity:1;fill-rule:evenodd;stroke:#000000;stroke-width:1pt;stroke-opacity:1"
         d="M 0,0 5,-5 -12.5,0 5,5 Z"
         id="path2789" />
    </marker>
    <marker
       style="overflow:visible"
       id="marker2781"
       refX="0"
       refY="0"
       orient="auto"
       inkscape:stockid="Arrow1Lstart"
       inkscape:isstock="true">
      <path
         transform="matrix(0.8,0,0,0.8,10,0)"
         style="fill:#000000;fill-opacity:1;fill-rule:evenodd;stroke:#000000;stroke-width:1pt;stroke-opacity:1"
         d="M 0,0 5,-5 -12.5,0 5,5 Z"
         id="path2779" />
    </marker>
    <marker
       style="overflow:visible"
       id="marker2417"
       refX="0"
       refY="0"
       orient="auto"
       inkscape:stockid="Arrow1Lstart"
       inkscape:isstock="true">
      <path
         transform="matrix(0.8,0,0,0.8,10,0)"
         style="fill:#000000;fill-opacity:1;fill-rule:evenodd;stroke:#000000;stroke-width:1pt;stroke-opacity:1"
         d="M 0,0 5,-5 -12.5,0 5,5 Z"
         id="path2415" />
    </marker>
    <marker
       style="overflow:visible"
       id="marker2383"
       refX="0"
       refY="0"
       orient="auto"
       inkscape:stockid="Arrow1Lstart"
       inkscape:isstock="true">
      <path
         transform="matrix(0.8,0,0,0.8,10,0)"
         style="fill:#000000;fill-opacity:1;fill-rule:evenodd;stroke:#000000;stroke-width:1pt;stroke-opacity:1"
         d="M 0,0 5,-5 -12.5,0 5,5 Z"
         id="path2381" />
    </marker>
    <marker
       style="overflow:visible"
       id="marker2355"
       refX="0"
       refY="0"
       orient="auto"
       inkscape:stockid="Arrow1Lstart"
       inkscape:isstock="true">
      <path
         transform="matrix(0.8,0,0,0.8,10,0)"
         style="fill:#000000;fill-opacity:1;fill-rule:evenodd;stroke:#000000;stroke-width:1pt;stroke-opacity:1"
         d="M 0,0 5,-5 -12.5,0 5,5 Z"
         id="path2353" />
    </marker>
    <marker
       style="overflow:visible"
       id="Arrow1Lstart"
       refX="0"
       refY="0"
       orient="auto"
       inkscape:stockid="Arrow1Lstart"
       inkscape:isstock="true">
      <path
         transform="matrix(0.8,0,0,0.8,10,0)"
         style="fill:#000000;fill-opacity:1;fill-rule:evenodd;stroke:#000000;stroke-width:1pt;stroke-opacity:1"
         d="M 0,0 5,-5 -12.5,0 5,5 Z"
         id="path2071" />
    </marker>
  </defs>
  <sodipodi:namedview
     id="base"
     pagecolor="#ffffff"
     bordercolor="#666666"
     borderopacity="1.0"
     inkscape:pageopacity="0.0"
     inkscape:pageshadow="2"
     inkscape:zoom="1.5033837"
     inkscape:cx="85.473855"
     inkscape:cy="166.62413"
     inkscape:document-units="mm"
     inkscape:current-layer="layer1"
     inkscape:document-rotation="0"
     showgrid="false"
     inkscape:snap-smooth-nodes="false"
     inkscape:object-nodes="false"
     inkscape:window-width="1366"
     inkscape:window-height="712"
     inkscape:window-x="0"
     inkscape:window-y="0"
     inkscape:window-maximized="1"
     inkscape:object-paths="false"
     inkscape:snap-intersection-paths="false"
     inkscape:snap-midpoints="false"
     inkscape:snap-others="false"
     inkscape:pagecheckerboard="0"
     showguides="true"
     inkscape:guide-bbox="true"
     inkscape:snap-bbox="true"
     showborder="false"
     fit-margin-top="0"
     fit-margin-left="0"
     fit-margin-right="0"
     fit-margin-bottom="0" />
  <metadata
     id="metadata5">
    <rdf:RDF>
      <cc:Work
         rdf:about="">
        <dc:format>image/svg+xml</dc:format>
        <dc:type
           rdf:resource="http://purl.org/dc/dcmitype/StillImage" />
      </cc:Work>
    </rdf:RDF>
  </metadata>
  <g
     inkscape:label="Layer 1"
     inkscape:groupmode="layer"
     id="layer1"
     transform="translate(575.74365,475.26845)">
    <path
       style="fill:#000000;stroke-width:0.0846667"
       id="path389"
       d="" />
    <path
       id="path6742-7-6-04"
       style="fill:#000000;fill-opacity:1;stroke:none;stroke-width:0.264999;stroke-miterlimit:4;stroke-dasharray:none;stroke-opacity:1"
       d="m -567.83356,-475.26806 h 0.004 c -1.1203,0 -2.13585,0.005 -2.77604,0.0124 l -2.32854,0.0259 -0.57775,0.29609 c -0.74231,0.37987 -1.68912,1.33263 -1.98284,1.99525 l -0.20772,0.46922 -0.0103,4.57284 c -0.01,2.5151 -0.0138,5.35427 -0.0206,6.30918 -0.01,0.95488 -0.0103,3.88913 -0.0103,6.52052 0,2.63139 0.0101,5.8892 0,7.23987 0,1.35068 0,6.68595 0.0103,11.85561 0.0101,5.16967 0.01,10.48584 0.01,11.81325 0,1.32739 -8e-5,4.87106 0.013,7.87495 0.018,5.89955 0.019,6.5541 0.032,17.7519 0,4.1052 0.0119,7.74899 0.014,8.09665 v 0.63201 l 0.19378,0.36793 c 0.32679,0.62016 0.79772,1.1557 1.38184,1.572 0.99348,0.70773 1.03336,0.71374 4.92474,0.71469 1.32742,0 3.09978,0.007 3.93827,0.014 2.4891,0.0217 5.15819,0.0307 9.82319,0.031 2.42189,2.1e-4 4.97525,0.0106 5.67407,0.0233 0.69889,0.013 3.15669,0.0254 5.46219,0.0284 2.3055,0.003 5.69761,0.0145 7.53753,0.0265 1.83994,0.0116 5.95609,0.0336 9.14672,0.0491 3.19064,0.0154 7.01998,0.0369 8.51059,0.048 3.07438,0.023 3.48237,0 3.99045,-0.23717 h 0.004 c 1.01216,-0.47017 2.15492,-1.68207 2.34558,-2.48772 0.0404,-0.171 0.0777,-2.38742 0.0816,-4.9258 0.0143,-8.09742 0.008,-17.79326 -0.014,-21.67877 -0.0116,-2.07235 -0.0227,-5.92053 -0.0259,-8.55194 -0.003,-2.63142 -0.008,-7.0139 -0.0124,-9.73842 -0.0201,-13.76801 -0.0233,-26.62158 -0.01,-33.09773 l 0.01,-4.60282 -0.29353,-0.55759 c -0.52454,-0.99562 -1.77517,-2.04705 -2.61017,-2.19469 -0.44011,-0.0778 -2.1663,-0.0939 -12.87362,-0.11835 -1.25756,-0.003 -2.80088,-0.0116 -3.42977,-0.0185 -0.62888,-0.007 -2.3822,-0.0132 -3.89588,-0.013 -2.81826,0 -12.30347,-0.0289 -15.79388,-0.0486 -1.0713,-0.006 -3.5292,-0.0177 -5.46219,-0.0269 -1.93302,-0.009 -5.24872,-0.0259 -7.36804,-0.0367 -1.05968,-0.005 -2.28518,-0.007 -3.40548,-0.006 z m -4.04987,0.50851 v 0 c 2.647,-0.014 12.9395,0.0446 23.60891,0.13848 2.11971,0.0185 8.02338,0.0648 13.12272,0.10284 5.09908,0.038 11.67167,0.0878 14.60479,0.11213 l 5.19141,0.0419 0.42426,0.22738 c 0.5733,0.30676 1.35494,1.10078 1.58388,1.56425 l 0.18706,0.38034 0.0114,4.60592 c 0.009,3.78237 -0.003,12.61599 -0.0196,20.7052 -0.0177,8.08921 -0.044,15.49413 -0.0615,16.23674 -0.0206,0.88426 -0.0393,7.87691 -0.0455,15.67759 -0.006,8.12716 -0.0201,14.33267 -0.0408,18.55081 -0.0103,2.10908 -0.0233,3.72224 -0.0372,4.82812 -0.007,0.55293 -0.013,0.97917 -0.0206,1.27537 -0.004,0.14812 -0.009,0.26408 -0.0124,0.34364 -0.004,0.0796 -0.0167,0.15912 -0.003,0.0822 -0.0654,0.34515 -0.41899,0.9538 -0.9126,1.40147 -0.69162,0.62723 -1.19348,0.88093 -1.8061,0.971 -0.22447,0.033 -0.72691,0.0666 -1.15083,0.0796 -0.21196,0.007 -0.40867,0.009 -0.54517,0.006 -0.06,0 -0.10113,-0.005 -0.12661,-0.007 -0.005,-0.003 -0.0156,-0.004 -0.0156,-0.004 0,-1.3e-4 -0.048,-0.0106 -0.0605,-0.0124 -0.0249,-0.004 -0.0352,-0.005 -0.0455,-0.006 -0.0206,-0.003 -0.0342,0 -0.0501,-0.003 -0.0319,-0.003 -0.0696,-0.004 -0.11729,-0.005 -0.0954,-0.003 -0.23061,-0.006 -0.40257,-0.009 -0.34396,-0.006 -0.8351,-0.0116 -1.44126,-0.018 -1.2123,-0.0127 -2.87814,-0.0254 -4.7067,-0.0362 -3.65498,-0.0217 -8.32525,-0.0541 -10.37299,-0.0713 -5.82639,-0.0488 -12.05632,-0.0927 -19.00711,-0.13229 -3.5156,-0.0201 -9.19544,-0.0549 -12.61785,-0.078 l -6.0911,-0.0403 -0.4749,-0.22791 c -0.54531,-0.26202 -1.26969,-0.9397 -1.66087,-1.59629 l -0.21601,-0.36121 -0.0238,-17.41236 c -0.0241,-16.53717 0.034,-44.23047 0.12351,-58.63778 l 0.0398,-6.30451 0.26768,-0.52917 c 0.4581,-0.90784 1.63348,-1.76157 2.32389,-1.83452 -0.04,0.004 0.045,-0.003 0.14832,-0.003 0.107,0 0.25781,-0.003 0.44752,-0.003 z m 3.21736,3.49281 c -1.46298,-0.003 -2.89742,-0.003 -3.44008,0.003 l -0.33901,0.003 -0.0244,1.69447 c -0.0135,0.93189 -0.005,1.7417 0.018,1.79935 0.0299,0.0742 0.28752,0.0991 0.88109,0.0853 l 0.8392,-0.019 0.0398,-0.88934 0.0398,-0.88934 2.1301,0.005 c 1.17176,0.003 2.23674,0.003 2.36678,-0.004 0.13007,-0.005 0.22625,0.0214 0.21344,0.0589 -0.013,0.0376 -1.01796,1.1231 -2.23398,2.41176 -1.21605,1.28862 -2.2089,2.37267 -2.20607,2.40863 0.003,0.0359 0.30895,0.2966 0.68059,0.57981 l 0.67593,0.51522 0.2563,-0.25064 c 0.83114,-0.81335 2.061,-0.85251 2.9187,-0.092 0.78584,0.69678 0.98544,2.21316 0.43976,3.33676 -0.20608,0.42434 -0.35372,0.59481 -0.77824,0.89451 -0.64061,0.45222 -1.05823,0.58269 -1.77922,0.55655 -0.67506,-0.0246 -1.32869,-0.29353 -1.90841,-0.78547 -0.44424,-0.37695 -0.84601,-1.02468 -0.85421,-1.37822 -0.006,-0.26564 -0.0201,-0.27006 -1.04439,-0.30953 l -0.82632,-0.0315 0.007,0.28062 c 0.0101,0.42082 0.25863,1.21711 0.52864,1.69084 0.32401,0.5683 1.11776,1.3629 1.68518,1.68672 1.32403,0.75568 3.00744,0.88784 4.43693,0.3478 1.22921,-0.46443 2.21306,-1.66291 2.54921,-3.10317 0.18278,-0.7833 0.13721,-2.11045 -0.0966,-2.80501 -0.43244,-1.28394 -1.47505,-2.3069 -2.49182,-2.44533 -0.19013,-0.0259 -0.39505,-0.076 -0.4558,-0.11163 -0.078,-0.0457 0.34309,-0.56694 1.42939,-1.76836 l 1.53942,-1.70273 -0.0201,-0.86868 -0.0201,-0.86868 -1.54618,-0.018 c -0.65619,-0.008 -2.14762,-0.014 -3.61063,-0.0169 z m 8.07445,12.6323 v 0.40875 c 0,0.22469 -0.005,0.61807 -0.009,0.87437 -0.004,0.2563 -0.008,1.57149 -0.009,2.9223 0,1.35083 -0.008,2.91354 -0.0156,3.47265 -0.008,0.55915 -0.009,2.08384 -0.003,3.38791 0.005,1.30411 0.003,2.84732 -0.006,3.42977 -0.009,0.58245 -0.0132,2.01163 -0.01,3.17603 0.003,1.16441 0.004,2.84134 0,3.72639 -0.003,0.88506 0,2.58107 0.003,3.76878 0.003,1.18769 0,2.67417 -0.007,3.30314 -0.0124,1.16332 -0.0196,3.09772 -0.0217,6.52105 0,1.04804 -0.006,4.93557 -0.0119,8.63875 -0.006,3.70319 -0.0116,7.7238 -0.0124,8.93485 0,1.21108 -0.0159,2.21906 -0.0331,2.23967 v 0 c -0.16314,0.19389 0.50186,0.21098 7.93597,0.20257 1.0946,0 2.50515,0.005 3.13417,0.014 0.62902,0.009 2.6683,0.0172 4.53149,0.0191 1.86322,0.003 4.03564,0.008 4.82762,0.014 0.79197,0.006 3.07887,0.0138 5.08187,0.0169 2.00301,0.003 4.50554,0.0122 5.56192,0.018 l 1.92135,0.0124 0.0294,-0.76324 c 0.0316,-0.81285 0.0438,-5.42846 0.031,-11.72953 -0.007,-3.68703 -0.006,-5.40121 0.009,-8.76586 0.004,-0.83852 0.003,-2.55363 -0.003,-3.81114 -0.005,-1.25754 -0.005,-2.87716 0,-3.59926 0.005,-0.72213 0.0124,-2.85636 0.0145,-4.74287 0.003,-1.8865 0.006,-4.15393 0.008,-5.03896 0.003,-0.88506 0.005,-2.42882 0.006,-3.4303 0.003,-1.00147 0.008,-2.37386 0.0145,-3.04942 0.006,-0.67554 0.009,-2.37146 0.006,-3.76876 -0.003,-1.39731 0,-3.37431 0.004,-4.39353 0.007,-1.20859 -0.0193,-1.86137 -0.0749,-1.87688 -0.0469,-0.013 -1.83851,-0.0238 -3.98116,-0.0238 -2.14265,-1.1e-4 -4.40994,-0.008 -5.03896,-0.0169 -1.08392,-0.0153 -5.42401,-0.0262 -9.69759,-0.0254 -1.07132,-7e-5 -2.48192,-0.005 -3.1342,-0.013 -0.65228,-0.007 -1.98646,-0.0146 -2.96465,-0.0161 -2.93979,-0.005 -4.82548,-0.0116 -6.49986,-0.0238 z m 2.96624,0.39947 c 1.4246,0 4.55295,0.006 6.95201,0.0161 2.39908,0.0103 5.372,0.0175 6.60633,0.0164 1.23431,0 2.47354,0.008 2.75331,0.0206 0.27979,0.013 1.86121,0.0148 3.51451,0.004 1.65333,-0.0111 3.13976,-0.007 3.30316,0.009 0.16341,0.0159 1.51617,0.0217 3.00654,0.0135 1.49032,-0.008 2.89232,0.003 3.11505,0.0228 l 0.40463,0.0388 -0.0326,0.39481 c -0.0175,0.21717 -0.027,1.49979 -0.0212,2.85049 0.006,1.35067 0.007,3.12304 0.004,3.93824 -0.004,0.81524 -0.008,3.10169 -0.008,5.08135 0,1.97961 -0.003,5.16216 -0.004,7.07192 0,1.90979 0,4.38671 0,5.50457 0.003,1.11787 0,2.66163 -0.005,3.43027 -0.0109,1.855 -0.0143,4.32943 -0.0119,6.81768 0.003,1.11787 -0.003,2.58522 -0.0103,3.26078 -0.007,0.67556 -0.007,3.09576 0,5.37797 0.007,2.28225 0,4.39738 -0.014,4.70049 -0.0148,0.3031 -0.0251,1.70439 -0.0227,3.11404 0.003,1.40967 -0.0254,2.5827 -0.062,2.60654 -0.0367,0.0238 -1.43248,0.0371 -3.10163,0.0295 -4.22146,-0.019 -5.79559,-0.0254 -7.94682,-0.0284 -1.02475,-0.003 -3.19767,-0.009 -4.82811,-0.0164 -1.63044,-0.008 -4.58433,-0.0148 -6.56394,-0.0146 -1.97962,0 -4.11385,-0.007 -4.74287,-0.0156 -0.62902,-0.009 -1.98218,-0.0204 -3.00705,-0.0259 -1.02486,-0.006 -1.89216,-0.0259 -1.92754,-0.046 -0.0354,-0.0198 -0.0598,-0.12004 -0.0553,-0.22222 0.0193,-0.38913 0.0364,-4.71747 0.0388,-10.13736 0.003,-3.09755 0.005,-6.37492 0.009,-7.28329 0.003,-0.90836 0.009,-3.13806 0.0119,-4.95472 0.004,-1.81665 0.007,-4.08405 0.008,-5.03896 0.003,-0.95493 0.005,-2.51775 0.006,-3.47266 0.003,-1.84703 0.009,-3.70631 0.019,-6.52158 0.007,-1.94873 0.0193,-10.35605 0.0206,-14.09269 l 0.003,-2.44686 z m 13.43121,3.12745 v 0 c -0.79947,0.0185 -1.33954,0.37719 -1.64952,1.09659 -0.29025,0.67358 -0.0614,1.61364 0.5276,2.16988 0.13312,0.12573 0.22064,0.2505 0.19535,0.27699 -0.0254,0.0266 -0.22305,-0.007 -0.44027,-0.0754 -0.59222,-0.1859 -1.06273,-0.14547 -1.57149,0.13589 -0.52139,0.28831 -0.7302,0.55726 -0.86609,1.11416 v 0 c -0.12983,0.53228 -0.13171,0.4818 0.0377,1.01803 0.27292,0.86342 1.08058,1.36372 1.97043,1.22061 0.71877,-0.1156 1.18401,-0.50671 1.45158,-1.2201 l 0.16537,-0.43977 -0.0305,0.58859 c -0.0339,0.66424 -0.29792,1.59272 -0.70437,2.47687 -0.15127,0.32909 -0.26808,0.60452 -0.25993,0.61132 0.008,0.007 0.24312,-0.0287 0.52141,-0.0796 0.33502,-0.0611 0.73308,-0.0676 1.17772,-0.0185 0.36933,0.0407 0.7058,0.0733 0.74879,0.0723 0.043,0 0,-0.12416 -0.0935,-0.27336 -0.44225,-0.69737 -0.9154,-2.20663 -0.93329,-2.97604 -0.008,-0.36562 0.12364,-0.30615 0.20826,0.0935 0.0347,0.16373 0.18489,0.42934 0.33332,0.59066 0.76099,0.82706 2.03747,0.79605 2.76055,-0.0672 0.34484,-0.41161 0.42342,-0.63685 0.41082,-1.17769 -0.0294,-1.26465 -1.3531,-2.1196 -2.56831,-1.65883 -0.28477,0.10827 -0.34716,0.11089 -0.34933,0.0175 -0.003,-0.0624 0.0914,-0.17762 0.20566,-0.25631 0.22961,-0.15819 0.56351,-0.80396 0.63357,-1.22422 0.0246,-0.14875 -0.008,-0.45482 -0.0718,-0.68056 -0.2449,-0.86122 -0.91511,-1.35613 -1.80972,-1.33533 z m -23.76236,0.90641 c -0.0716,-0.003 -0.14269,-2.7e-4 -0.21291,0.004 -0.84254,0.0525 -1.57393,0.52121 -1.98644,1.31673 -0.20553,0.39642 -0.2349,0.547 -0.22326,1.13429 0.0172,0.82762 0.21643,1.29019 0.79478,1.84227 0.3474,0.33189 0.48723,0.54173 0.36174,0.54467 -0.0214,0 -0.24246,-0.0768 -0.49091,-0.17158 -0.68506,-0.26114 -1.50701,-0.22535 -2.11822,0.0915 -0.57386,0.29749 -1.10004,0.89654 -1.25884,1.43298 -0.0696,0.23582 -0.0995,0.61023 -0.0744,0.94104 0.0672,0.88694 0.50398,1.54633 1.29966,1.96318 0.39238,0.20556 0.54761,0.23747 1.09244,0.22479 0.52457,-0.0122 0.71731,-0.0576 1.11313,-0.26355 0.26342,-0.13705 0.60375,-0.40158 0.75602,-0.58806 0.2485,-0.3044 0.34105,-0.5203 0.50282,-1.18031 0.0316,-0.12885 0.0784,-0.17184 0.13229,-0.12041 0.13782,0.13161 -0.0488,1.41944 -0.34573,2.38644 -0.14915,0.48585 -0.43866,1.22796 -0.64387,1.64899 -0.20521,0.42106 -0.35761,0.78065 -0.33848,0.79891 0.019,0.0182 0.18555,-0.005 0.36947,-0.0527 0.48625,-0.1247 1.7744,-0.13676 2.38953,-0.0227 0.29236,0.0538 0.53091,0.0728 0.5302,0.0419 0,-0.031 -0.13613,-0.31683 -0.30025,-0.6351 -0.43027,-0.83455 -0.74113,-1.67862 -0.91054,-2.47065 -0.16743,-0.78275 -0.21347,-1.68789 -0.0863,-1.69085 0.0466,0 0.0858,0.0482 0.0873,0.10954 0.007,0.33692 0.32263,1.03087 0.60153,1.32551 0.99031,1.04621 2.60292,1.00081 3.59048,-0.10129 0.8837,-0.98623 0.83343,-2.33994 -0.12042,-3.25045 -0.60819,-0.58053 -1.24899,-0.81185 -2.02829,-0.7307 -0.30742,0.032 -0.69543,0.11906 -0.86196,0.19327 -0.46768,0.20826 -0.45194,0.0286 0.0419,-0.47646 1.05264,-1.07659 1.04669,-2.51087 -0.0146,-3.54655 -0.39428,-0.38481 -0.57711,-0.497 -0.98856,-0.60513 -0.22336,-0.0587 -0.44445,-0.0892 -0.65939,-0.0935 z m 23.63316,18.59679 c -0.29183,0.0243 -0.58931,0.12174 -0.87487,0.29816 -0.81179,0.50144 -1.06304,1.68458 -0.53795,2.53215 0.13594,0.21939 0.32223,0.44278 0.41394,0.49715 0.35102,0.20801 0.17179,0.28599 -0.3111,0.13538 -1.07442,-0.33512 -2.16916,0.26755 -2.41691,1.33014 v 0 c -0.165,0.70753 0.0421,1.33353 0.59994,1.81436 0.31702,0.27331 0.78459,0.45363 1.15652,0.44598 0.0963,-0.003 0.36296,-0.0641 0.59222,-0.13798 0.50974,-0.16436 0.89932,-0.56399 1.10744,-1.13586 l 0.15295,-0.42013 0.0109,0.33848 c 0.0214,0.68268 -0.34266,2.00674 -0.77671,2.82464 -0.12854,0.24231 -0.21733,0.45588 -0.19738,0.4749 0.0198,0.019 0.2663,-0.009 0.54777,-0.0625 0.36285,-0.0688 0.71257,-0.0722 1.2025,-0.0124 0.38002,0.0464 0.70099,0.0746 0.7126,0.0625 0.0117,-0.0122 -0.11617,-0.28477 -0.28368,-0.60616 -0.39254,-0.75308 -0.6722,-1.76786 -0.68162,-2.47377 l -0.006,-0.55809 0.11525,0.39119 c 0.15473,0.52549 0.34555,0.78433 0.76481,1.03558 0.47064,0.28202 1.13832,0.33459 1.64073,0.12919 0.7316,-0.29903 1.29998,-1.28539 1.13583,-1.9704 -0.28342,-1.1829 -1.41398,-1.80385 -2.60551,-1.43198 -0.15848,0.0496 -0.30646,0.0724 -0.32919,0.0507 -0.0228,-0.0217 0.0892,-0.17224 0.24804,-0.33385 0.59079,-0.60108 0.76394,-1.39441 0.45064,-2.06137 -0.3275,-0.69713 -0.90551,-1.10278 -1.54101,-1.15599 v 0 c -0.0953,-0.008 -0.19211,-0.008 -0.2894,0 z m 25.61963,15.60317 c 0,-0.0116 -0.20002,0.0199 -0.44339,0.0708 -0.42915,0.0899 -2.11023,0.0842 -2.66597,-0.01 l -0.27389,-0.0455 0.34107,0.65786 c 0.59942,1.15494 0.91715,2.19837 1.06609,3.49901 0.0628,0.54875 0.055,0.65487 -0.0501,0.65731 -0.0845,0.003 -0.14539,-0.12129 -0.18656,-0.37722 -0.0336,-0.209 -0.13745,-0.52065 -0.23098,-0.693 -0.55229,-1.01796 -2.16252,-1.43026 -3.24683,-0.83148 -0.33698,0.18606 -0.88988,0.83415 -1.06609,1.25008 -0.25172,0.59415 -0.18746,1.78271 0.0961,1.77609 0.0827,-0.003 0.10912,0.0458 0.076,0.13851 -0.11806,0.33047 0.67217,1.07501 1.39525,1.31414 0.43489,0.14353 1.2795,0.1216 1.71876,-0.045 0.6283,-0.23825 0.67995,-0.13131 0.17055,0.35087 -1.30477,1.23505 -0.9171,3.50186 0.71107,4.1579 0.62915,0.25347 1.57144,0.18095 2.12958,-0.16383 0.82512,-0.5097 1.20956,-1.2078 1.18752,-2.15593 -0.0169,-0.72869 -0.26759,-1.2858 -0.84129,-1.87122 -0.21669,-0.22113 -0.37253,-0.42463 -0.34676,-0.45164 0.0257,-0.027 0.22219,0.0238 0.43666,0.11266 1.19748,0.49676 2.61205,0.0387 3.25253,-1.05317 0.20299,-0.346 0.24423,-0.52033 0.26149,-1.11207 0.0238,-0.81812 -0.13108,-1.24265 -0.65321,-1.79422 -0.47125,-0.49784 -0.99131,-0.70332 -1.75905,-0.69247 -0.53229,0.007 -0.71277,0.0493 -1.11467,0.25839 -0.5938,0.30893 -0.92517,0.71959 -1.10278,1.36684 -0.14094,0.51369 -0.27033,0.65381 -0.27853,0.30128 -0.0206,-0.88863 0.47943,-2.72669 1.05111,-3.86437 0.20172,-0.40143 0.36664,-0.73917 0.36637,-0.75086 z m -24.31325,3.95171 c -0.0153,-0.014 -0.2509,0.0151 -0.52295,0.0646 -0.32554,0.0594 -0.72657,0.0641 -1.17305,0.0135 -0.37312,-0.0421 -0.69488,-0.0601 -0.7147,-0.0393 -0.0198,0.0209 0.0431,0.16486 0.13902,0.31988 0.35586,0.5748 0.73488,1.81229 0.79065,2.58019 l 0.0532,0.73485 -0.14523,-0.42013 c -0.20582,-0.59428 -0.41113,-0.83338 -0.91982,-1.0723 -1.03484,-0.48596 -2.18382,-0.0161 -2.56058,1.04698 -0.15256,0.43032 -0.0454,1.1263 0.24185,1.57353 0.44553,0.69358 1.49548,1.01386 2.2996,0.70178 0.3941,-0.15296 0.4327,-0.0462 0.0956,0.26405 -0.75789,0.69731 -0.82637,2.00295 -0.14157,2.70373 0.4264,0.43635 1.24743,0.65598 1.82054,0.48731 1.37173,-0.40381 1.8039,-2.19324 0.76224,-3.15693 -0.35134,-0.32502 -0.32472,-0.47355 0.0517,-0.28991 0.37635,0.18368 1.1312,0.15431 1.58957,-0.0615 0.73723,-0.34695 1.12662,-1.05437 1.03817,-1.88516 -0.18333,-1.72342 -2.6397,-2.17384 -3.38685,-0.62116 -0.087,0.18065 -0.15717,0.38473 -0.15555,0.45373 0.003,0.0689 -0.0379,0.15211 -0.0879,0.18447 -0.12711,0.0827 -0.039,-0.77899 0.15608,-1.53271 0.0849,-0.32805 0.29898,-0.91728 0.47593,-1.31 0.17695,-0.39272 0.30948,-0.72567 0.29403,-0.73949 z m 22.29115,11.09184 c -2.31693,0.058 -3.89131,1.43441 -4.26951,3.73258 -0.38959,2.36752 0.75251,4.50556 2.6474,4.95578 0.30694,0.073 0.54917,0.15698 0.53795,0.18653 -0.0111,0.0295 -0.69837,0.80648 -1.52704,1.72651 l -1.50688,1.67278 0.0206,0.87127 0.0201,0.87178 0.35968,-0.007 c 0.19783,-0.004 1.46529,0.003 2.81635,0.0145 1.35107,0.0124 3.19911,0.0169 4.10724,0.0103 l 1.65158,-0.0124 0.005,-1.73633 c 0.004,-0.95493 0,-1.74707 -0.008,-1.76009 -0.008,-0.013 -0.40987,-0.0227 -0.8935,-0.0217 l -0.879,0.003 -0.004,0.88162 -0.004,0.88109 -1.40869,-0.0228 c -0.77459,-0.0127 -1.82078,-0.0127 -2.32545,0 -0.58301,0.0135 -0.91853,-0.0114 -0.91985,-0.0677 0,-0.0488 0.64508,-0.77814 1.43611,-1.62108 0.79102,-0.84296 1.7745,-1.90283 2.1859,-2.3549 l 0.74827,-0.82166 -0.19068,-0.14883 c -0.10488,-0.0817 -0.40958,-0.33014 -0.67747,-0.55242 l -0.48731,-0.4046 -0.26511,0.26508 c -0.73618,0.73703 -1.88659,0.85329 -2.72489,0.27493 -0.61246,-0.42254 -1.00298,-1.44388 -0.93483,-2.44483 0.1025,-1.50516 1.1929,-2.52939 2.72592,-2.56002 1.25617,-0.0254 2.44028,0.8378 2.8293,2.0624 0.0639,0.201 0.14393,0.38451 0.17828,0.40772 0.0344,0.0233 0.44976,0.0452 0.92241,0.0491 l 0.8594,0.007 -0.0651,-0.40719 c -0.37999,-2.39152 -2.40032,-3.99143 -4.96043,-3.92689 z" />
  </g>
</svg>
