<?xml version="1.0" encoding="UTF-8" standalone="no"?>
<svg
   sodipodi:docname="3H.svg"
   id="svg8"
   version="1.1"
   viewBox="0 0 63.102913 88.347832"
   height="88.347832mm"
   width="63.102913mm"
   inkscape:version="1.1.1 (1:1.1+202109281949+c3084ef5ed)"
   inkscape:export-filename="/home/doug/k40/52Cards/3H.png"
   inkscape:export-xdpi="96"
   inkscape:export-ydpi="96"
   xmlns:inkscape="http://www.inkscape.org/namespaces/inkscape"
   xmlns:sodipodi="http://sodipodi.sourceforge.net/DTD/sodipodi-0.dtd"
   xmlns="http://www.w3.org/2000/svg"
   xmlns:svg="http://www.w3.org/2000/svg"
   xmlns:rdf="http://www.w3.org/1999/02/22-rdf-syntax-ns#"
   xmlns:cc="http://creativecommons.org/ns#"
   xmlns:dc="http://purl.org/dc/elements/1.1/">
  <defs
     id="defs2">
    <marker
       style="overflow:visible"
       id="marker2995"
       refX="0"
       refY="0"
       orient="auto"
       inkscape:stockid="Arrow1Lstart"
       inkscape:isstock="true">
      <path
         transform="matrix(0.8,0,0,0.8,10,0)"
         style="fill:#000000;fill-opacity:1;fill-rule:evenodd;stroke:#000000;stroke-width:1pt;stroke-opacity:1"
         d="M 0,0 5,-5 -12.5,0 5,5 Z"
         id="path2993" />
    </marker>
    <marker
       style="overflow:visible"
       id="marker2985"
       refX="0"
       refY="0"
       orient="auto"
       inkscape:stockid="Arrow1Lstart"
       inkscape:isstock="true">
      <path
         transform="matrix(0.8,0,0,0.8,10,0)"
         style="fill:#000000;fill-opacity:1;fill-rule:evenodd;stroke:#000000;stroke-width:1pt;stroke-opacity:1"
         d="M 0,0 5,-5 -12.5,0 5,5 Z"
         id="path2983" />
    </marker>
    <marker
       style="overflow:visible"
       id="marker2791"
       refX="0"
       refY="0"
       orient="auto"
       inkscape:stockid="Arrow1Lstart"
       inkscape:isstock="true">
      <path
         transform="matrix(0.8,0,0,0.8,10,0)"
         style="fill:#000000;fill-opacity:1;fill-rule:evenodd;stroke:#000000;stroke-width:1pt;stroke-opacity:1"
         d="M 0,0 5,-5 -12.5,0 5,5 Z"
         id="path2789" />
    </marker>
    <marker
       style="overflow:visible"
       id="marker2781"
       refX="0"
       refY="0"
       orient="auto"
       inkscape:stockid="Arrow1Lstart"
       inkscape:isstock="true">
      <path
         transform="matrix(0.8,0,0,0.8,10,0)"
         style="fill:#000000;fill-opacity:1;fill-rule:evenodd;stroke:#000000;stroke-width:1pt;stroke-opacity:1"
         d="M 0,0 5,-5 -12.5,0 5,5 Z"
         id="path2779" />
    </marker>
    <marker
       style="overflow:visible"
       id="marker2417"
       refX="0"
       refY="0"
       orient="auto"
       inkscape:stockid="Arrow1Lstart"
       inkscape:isstock="true">
      <path
         transform="matrix(0.8,0,0,0.8,10,0)"
         style="fill:#000000;fill-opacity:1;fill-rule:evenodd;stroke:#000000;stroke-width:1pt;stroke-opacity:1"
         d="M 0,0 5,-5 -12.5,0 5,5 Z"
         id="path2415" />
    </marker>
    <marker
       style="overflow:visible"
       id="marker2383"
       refX="0"
       refY="0"
       orient="auto"
       inkscape:stockid="Arrow1Lstart"
       inkscape:isstock="true">
      <path
         transform="matrix(0.8,0,0,0.8,10,0)"
         style="fill:#000000;fill-opacity:1;fill-rule:evenodd;stroke:#000000;stroke-width:1pt;stroke-opacity:1"
         d="M 0,0 5,-5 -12.5,0 5,5 Z"
         id="path2381" />
    </marker>
    <marker
       style="overflow:visible"
       id="marker2355"
       refX="0"
       refY="0"
       orient="auto"
       inkscape:stockid="Arrow1Lstart"
       inkscape:isstock="true">
      <path
         transform="matrix(0.8,0,0,0.8,10,0)"
         style="fill:#000000;fill-opacity:1;fill-rule:evenodd;stroke:#000000;stroke-width:1pt;stroke-opacity:1"
         d="M 0,0 5,-5 -12.5,0 5,5 Z"
         id="path2353" />
    </marker>
    <marker
       style="overflow:visible"
       id="Arrow1Lstart"
       refX="0"
       refY="0"
       orient="auto"
       inkscape:stockid="Arrow1Lstart"
       inkscape:isstock="true">
      <path
         transform="matrix(0.8,0,0,0.8,10,0)"
         style="fill:#000000;fill-opacity:1;fill-rule:evenodd;stroke:#000000;stroke-width:1pt;stroke-opacity:1"
         d="M 0,0 5,-5 -12.5,0 5,5 Z"
         id="path2071" />
    </marker>
  </defs>
  <sodipodi:namedview
     id="base"
     pagecolor="#ffffff"
     bordercolor="#666666"
     borderopacity="1.0"
     inkscape:pageopacity="0.0"
     inkscape:pageshadow="2"
     inkscape:zoom="1.5033853"
     inkscape:cx="86.138929"
     inkscape:cy="167.28912"
     inkscape:document-units="mm"
     inkscape:current-layer="layer1"
     inkscape:document-rotation="0"
     showgrid="false"
     inkscape:snap-smooth-nodes="false"
     inkscape:object-nodes="false"
     inkscape:window-width="1366"
     inkscape:window-height="712"
     inkscape:window-x="0"
     inkscape:window-y="0"
     inkscape:window-maximized="1"
     inkscape:object-paths="false"
     inkscape:snap-intersection-paths="false"
     inkscape:snap-midpoints="false"
     inkscape:snap-others="false"
     inkscape:pagecheckerboard="0"
     showguides="true"
     inkscape:guide-bbox="true"
     inkscape:snap-bbox="true"
     showborder="false"
     fit-margin-top="0"
     fit-margin-left="0"
     fit-margin-right="0"
     fit-margin-bottom="0" />
  <metadata
     id="metadata5">
    <rdf:RDF>
      <cc:Work
         rdf:about="">
        <dc:format>image/svg+xml</dc:format>
        <dc:type
           rdf:resource="http://purl.org/dc/dcmitype/StillImage" />
      </cc:Work>
    </rdf:RDF>
  </metadata>
  <g
     inkscape:label="Layer 1"
     inkscape:groupmode="layer"
     id="layer1"
     transform="translate(574.20026,353.63659)">
    <path
       id="path2042-9"
       style="fill:#000000;fill-opacity:1;stroke:none;stroke-width:0.265;stroke-miterlimit:4;stroke-dasharray:none;stroke-opacity:1"
       d="m -566.28977,-353.63581 c -1.12038,10e-4 -2.1358,0.005 -2.77606,0.0124 l -2.32855,0.0258 -0.57774,0.29611 c -0.74224,0.37985 -1.68907,1.3326 -1.98281,1.99522 l -0.20775,0.46923 -0.009,4.57284 c -0.005,2.51511 -0.0137,5.35428 -0.0207,6.30918 -0.007,0.95489 -0.0102,3.88913 -0.006,6.52053 0.003,2.63138 0.005,5.88919 0.004,7.23987 -10e-4,1.35067 0.002,6.68594 0.008,11.8556 0.006,5.16967 0.009,10.48582 0.007,11.81323 -0.002,1.32741 0.003,4.87109 0.0129,7.87498 0.0185,5.89953 0.0194,6.55407 0.032,17.75188 0.005,4.10521 0.012,7.749 0.0139,8.09667 l 10e-4,0.632 0.19381,0.36794 c 0.32674,0.62015 0.79767,1.15569 1.38181,1.57199 0.99349,0.70771 1.03339,0.71372 4.92477,0.71469 1.32734,3e-4 3.09978,0.007 3.93827,0.0139 2.48912,0.0218 5.15816,0.0307 9.82316,0.031 2.42187,2e-4 4.97523,0.0104 5.67407,0.0232 0.69887,0.0129 3.15672,0.0254 5.46219,0.0284 2.3055,0.003 5.69762,0.0146 7.53753,0.0263 1.83991,0.0117 5.95609,0.0336 9.14673,0.0491 3.19063,0.0154 7.02,0.0369 8.51061,0.0481 3.07438,0.023 3.48237,-10e-4 3.99045,-0.2372 h 0.004 c 1.01217,-0.47016 2.15495,-1.68205 2.34561,-2.4877 0.0404,-0.17101 0.0776,-2.38741 0.0816,-4.9258 0.0142,-8.09742 0.008,-17.79326 -0.0139,-21.67878 -0.0116,-2.07234 -0.0228,-5.92052 -0.0258,-8.55193 -0.002,-2.63141 -0.008,-7.01388 -0.0124,-9.73842 -0.02,-13.76802 -0.0235,-26.62157 -0.01,-33.09772 l 0.01,-4.60282 -0.29353,-0.55759 c -0.52456,-0.99563 -1.77517,-2.04706 -2.61016,-2.1947 -0.44011,-0.0778 -2.16631,-0.0939 -12.87365,-0.11833 -1.25756,-0.003 -2.80088,-0.0116 -3.42977,-0.0186 -0.62889,-0.007 -2.3822,-0.0131 -3.89588,-0.0129 -2.81824,4e-4 -12.30342,-0.0289 -15.79385,-0.0486 -1.07133,-0.006 -3.5292,-0.0179 -5.46222,-0.0269 -1.93299,-0.009 -5.24865,-0.026 -7.36801,-0.0367 -1.05968,-0.005 -2.28513,-0.007 -3.40548,-0.006 z m -4.02664,0.52297 c 2.64702,-0.0141 12.9395,0.0446 23.6089,0.13849 2.11969,0.0184 8.02336,0.0648 13.12273,0.10284 5.0991,0.038 11.67167,0.0878 14.60479,0.11213 l 5.19141,0.0419 0.42426,0.22738 c 0.5733,0.30675 1.35493,1.10075 1.58388,1.56424 l 0.18706,0.38034 0.0114,4.60592 c 0.009,3.78238 -0.002,12.61598 -0.0196,20.70519 -0.0178,8.08922 -0.044,15.49413 -0.0615,16.23674 -0.0207,0.88428 -0.0393,7.8769 -0.0455,15.67759 -0.006,8.12717 -0.02,14.33267 -0.0408,18.55081 -0.0104,2.10907 -0.0233,3.72226 -0.0372,4.82813 -0.007,0.55293 -0.013,0.97915 -0.0207,1.27537 -0.004,0.14811 -0.009,0.26409 -0.0124,0.34365 -0.004,0.0796 -0.0172,0.15916 -0.003,0.0822 -0.0654,0.34514 -0.419,0.95381 -0.9126,1.40147 -0.69162,0.62723 -1.19348,0.88094 -1.8061,0.971 -0.22447,0.033 -0.72692,0.0666 -1.15083,0.0796 -0.21196,0.007 -0.40868,0.009 -0.54518,0.006 -0.06,-10e-4 -0.10115,-0.005 -0.12663,-0.007 -0.005,-0.002 -0.0155,-0.004 -0.0155,-0.004 -5.3e-4,-1.4e-4 -0.048,-0.0105 -0.0605,-0.0124 -0.0249,-0.004 -0.0347,-0.005 -0.045,-0.006 -0.0206,-0.002 -0.0347,-0.001 -0.0506,-0.002 -0.0319,-0.002 -0.0696,-0.004 -0.11732,-0.005 -0.0954,-0.003 -0.23058,-0.006 -0.40254,-0.009 -0.34395,-0.006 -0.8351,-0.0117 -1.44126,-0.0181 -1.21229,-0.0127 -2.87816,-0.0255 -4.7067,-0.0362 -3.65498,-0.0216 -8.32525,-0.0541 -10.37299,-0.0713 -5.82634,-0.0488 -12.05632,-0.0927 -19.00711,-0.1323 -3.5156,-0.02 -9.19501,-0.0549 -12.61732,-0.078 l -6.09163,-0.0403 -0.4749,-0.22789 c -0.54531,-0.26202 -1.26923,-0.93971 -1.66037,-1.59628 l -0.216,-0.36122 -0.0238,-17.41237 c -0.0236,-16.53716 0.034,-44.23046 0.1235,-58.63776 l 0.0398,-6.30453 0.26768,-0.52917 c 0.45812,-0.90783 1.63343,-1.76157 2.32388,-1.83451 -0.0397,0.004 0.0454,-0.002 0.1483,-0.003 0.10697,-10e-4 0.25779,-0.002 0.44752,-0.003 z m 4.06125,3.57187 -3.91292,0.009 -0.0455,0.20102 c -0.023,0.11055 -0.0209,0.92482 0.008,1.80919 l 0.0538,1.60817 0.80304,0.0413 c 0.45511,0.0236 0.86564,0.006 0.94879,-0.0403 l 0.14624,-0.0817 0.009,-0.82113 0.009,-0.82218 1.77818,-0.003 c 2.2655,-0.004 2.54056,0.008 2.54246,0.11266 0.002,0.0893 -0.2128,0.32765 -2.6789,2.97656 -0.83193,0.89365 -1.51223,1.6549 -1.51152,1.6924 9e-4,0.0687 1.32197,1.15954 1.40198,1.15807 0.0237,-4.4e-4 0.19606,-0.13365 0.38343,-0.2961 0.87665,-0.76021 2.00758,-0.76999 2.78122,-0.0243 0.72845,0.70214 0.92261,2.18801 0.42014,3.21634 -0.3686,0.75437 -1.2386,1.34786 -2.13683,1.45727 -1.21428,0.14795 -2.61454,-0.77496 -2.99464,-1.97352 -0.0756,-0.23842 -0.18526,-0.46285 -0.24392,-0.49868 -0.17711,-0.10796 -1.65406,-0.0529 -1.72391,0.0641 -0.19402,0.32718 0.18695,1.59941 0.70022,2.33836 0.6465,0.93055 1.67031,1.61395 2.84786,1.89963 1.23079,0.29858 2.80004,0.0827 3.7569,-0.51677 1.2776,-0.80049 2.08391,-2.46365 2.05103,-4.25245 -0.0267,-1.66787 -0.91557,-3.18868 -2.20245,-3.76876 -0.29562,-0.13324 -0.61666,-0.24101 -0.71366,-0.23926 -0.0971,0.002 -0.20198,-0.0211 -0.23254,-0.0507 -0.0308,-0.0296 0.41841,-0.58116 0.99787,-1.22525 0.57957,-0.64408 1.25212,-1.39189 1.49501,-1.66243 l 0.44182,-0.49195 -0.0403,-0.87075 -0.0398,-0.87023 -0.59377,-0.0419 c -0.32645,-0.023 -2.354,-0.0377 -4.50567,-0.0326 z m 12.82351,12.6876 c -1.42058,-0.003 -3.24779,0.006 -4.06072,0.0212 l -1.47693,0.0274 -0.0134,0.4656 c -0.007,0.25629 -0.005,3.05701 0.004,6.22391 0.009,3.16689 0.0127,6.50156 0.006,7.40988 -0.006,0.90831 -0.003,3.13746 0.007,4.9537 0.0104,1.81621 0.0128,4.04485 0.005,4.95319 -0.007,0.90833 -0.0112,3.82395 -0.009,6.47867 0.002,2.65471 0.003,6.78948 0.003,9.18807 -6.9e-4,10.2183 0.003,11.73242 0.0346,13.4214 l 0.0326,1.77716 0.88884,0.001 c 0.48905,10e-4 2.75672,0.006 5.03896,0.0119 2.28227,0.006 5.35011,0.009 6.81715,0.006 1.46706,-0.003 3.29623,0.002 4.06487,0.0103 0.76864,0.008 2.61694,0.0125 4.10726,0.009 1.49035,-0.004 3.49083,-0.002 4.44572,0.003 0.95485,0.005 2.95584,0.0107 4.44624,0.0124 1.48997,0.002 2.7246,0.0176 2.74505,0.0351 h 5e-4 c 0.0802,0.0702 0.26832,0.0205 0.29766,-0.0791 0.0172,-0.0585 0.0255,-2.65964 0.0186,-5.78002 -0.007,-3.12036 -0.0105,-6.62581 -0.009,-7.79022 0.004,-2.15307 1.5e-4,-9.14605 -0.006,-14.05702 -0.002,-1.49035 -0.003,-5.64367 -0.002,-9.22993 0.003,-11.1019 -0.004,-14.15947 -0.0408,-16.11735 l -0.0346,-1.89033 -0.80513,-0.0145 c -0.44259,-0.008 -2.40501,-0.007 -4.36096,0.002 -1.95596,0.009 -3.93737,0.004 -4.40336,-0.009 -0.46598,-0.0134 -2.21927,-0.0218 -3.89588,-0.0181 -1.67661,0.004 -3.54354,0.002 -4.14909,-0.004 -0.60558,-0.006 -2.45383,-0.0115 -4.10726,-0.0129 -1.65341,-10e-4 -4.16872,-0.005 -5.58932,-0.009 z m 0.80822,0.31264 c 2.26367,-0.002 4.56782,0.005 5.63531,0.0232 0.62896,0.0108 2.64808,0.0114 4.48759,0.002 1.83952,-0.01 3.726,-0.006 4.19198,0.007 0.46601,0.0135 2.33328,0.0216 4.14962,0.0181 1.81637,-0.003 4.29353,-3.2e-4 5.50458,0.006 l 2.20194,0.0124 0.0191,1.86241 c 0.0207,2.01284 0.0411,11.50666 0.031,14.60686 -0.003,1.04799 -0.004,3.12489 -10e-4,4.61522 0.003,1.49033 0.003,3.5858 -5e-4,4.65708 -0.007,2.30393 -0.005,4.96625 0.0109,11.89799 0.006,2.81763 0.007,5.9614 0.002,6.98613 -0.005,1.02474 -0.006,3.13979 -0.003,4.69997 0.007,3.15705 -0.0224,4.81917 -0.0863,4.92683 -0.0234,0.0393 -0.12626,0.0663 -0.22842,0.0605 -0.36581,-0.0211 -4.90225,-0.0424 -8.06151,-0.0382 -1.76977,0.002 -3.73255,-0.005 -4.3615,-0.0155 -0.62894,-0.0108 -2.24808,-0.0191 -3.59875,-0.0191 -10.26306,7.6e-4 -15.75946,-0.0252 -15.80936,-0.0739 -0.0316,-0.0315 -0.0542,-1.65751 -0.0491,-3.61373 0.005,-1.95623 9.6e-4,-6.20506 -0.01,-9.4418 -0.0109,-3.23673 -0.0115,-6.39956 -10e-4,-7.02851 0.0104,-0.62895 0.009,-2.87768 -0.004,-4.9966 -0.0127,-2.11891 -0.0139,-4.23351 -0.003,-4.69945 0.0111,-0.46596 0.0151,-2.33334 0.008,-4.14962 -0.007,-1.81628 -0.0102,-5.13136 -0.007,-7.36699 0.003,-2.23563 0.005,-5.16988 0.005,-6.52053 -7.1e-4,-1.35063 0.006,-3.32586 0.016,-4.38939 l 0.0176,-1.93322 0.12297,-0.0501 c 0.0146,-0.006 0.16661,-0.0118 0.42583,-0.0165 l 5.2e-4,5.2e-4 c 0.90718,-0.0172 3.13085,-0.0277 5.39449,-0.0295 z m 8.39795,3.06545 c -0.66564,0.0182 -1.30365,0.42588 -1.59475,1.08624 -0.45217,1.0257 0.10314,2.7061 1.89394,5.73039 0.41146,0.69486 0.86501,1.47713 1.0077,1.73839 0.14819,0.27129 0.31654,0.47425 0.39274,0.47284 0.16169,-0.003 1.71911,-2.57779 2.48616,-4.11033 1.11151,-2.22079 1.25227,-3.569 0.45887,-4.40077 -0.41855,-0.43887 -1.32168,-0.62587 -1.90323,-0.39429 -0.30758,0.12245 -0.74012,0.55851 -0.86196,0.86868 -0.0528,0.13459 -0.12433,0.24536 -0.15814,0.24598 -0.0338,6.2e-4 -0.13139,-0.14858 -0.21757,-0.33073 -0.19161,-0.40515 -0.42667,-0.62475 -0.84127,-0.7891 -0.21619,-0.0857 -0.44061,-0.12328 -0.66249,-0.1173 z m -23.67298,0.95808 c -0.83439,0.0203 -1.60221,0.50078 -2.01589,1.32136 l -0.22169,0.43925 0.0264,0.88832 0.0268,0.88884 0.32764,0.91053 c 0.44624,1.23749 1.39414,3.08897 2.72386,5.32009 0.61065,1.0245 1.15617,1.9578 1.21131,2.07378 h -5.3e-4 c 0.116,0.24261 0.3923,0.27486 0.47027,0.0553 0.029,-0.0821 0.26334,-0.49595 0.52039,-0.91985 2.23046,-3.67741 2.98587,-5.13585 3.52689,-6.81043 l 0.25736,-0.79581 -0.015,-0.80357 -0.015,-0.80409 -0.20772,-0.43926 c -0.28482,-0.60129 -0.82696,-1.06458 -1.4392,-1.23041 -1.10165,-0.29841 -2.06388,0.16173 -2.66496,1.27382 l -0.20307,0.37518 -0.2367,-0.45165 c -0.32517,-0.62215 -0.68868,-0.96487 -1.22523,-1.15445 -0.28218,-0.0997 -0.56785,-0.14381 -0.84595,-0.13695 z m 25.40362,18.67224 c -0.0517,-0.0136 -0.2277,0.19692 -0.39224,0.46974 -0.16521,0.2742 -0.53285,0.86541 -0.81698,1.3131 -1.39229,2.19363 -2.26378,4.28031 -2.24949,5.38416 l 0.007,0.55811 0.24649,0.43408 c 0.25479,0.44829 0.62867,0.73524 1.10228,0.84543 0.67243,0.15646 1.46338,-0.17813 1.8035,-0.76275 0.25125,-0.43189 0.32009,-0.46281 0.42892,-0.19172 0.127,0.31639 0.54279,0.74107 0.84127,0.85938 0.15314,0.0607 0.50032,0.10629 0.77205,0.10129 l 0.49403,-0.009 0.39325,-0.25942 c 0.45675,-0.3016 0.68255,-0.64817 0.79375,-1.21749 0.17452,-0.89367 -0.41661,-2.57937 -1.63761,-4.66846 -1.07074,-1.83202 -1.6931,-2.8276 -1.78594,-2.85667 z m 22.99962,15.56546 c -0.0868,5.9e-4 -0.55896,0.76426 -2.24896,3.63905 -2.6421,4.49426 -2.98357,7.02011 -1.09966,8.13749 l 0.40204,0.23823 0.57721,0.0305 0.57671,0.031 0.4372,-0.19793 c 0.49549,-0.22404 0.92628,-0.67319 1.14462,-1.19372 0.0817,-0.19483 0.17388,-0.35444 0.20515,-0.35502 0.0312,-5.7e-4 0.12158,0.16054 0.20103,0.3576 0.21228,0.52654 0.63826,0.97708 1.12914,1.19476 0.31538,0.13986 0.58388,0.18901 0.98803,0.18242 l 0.55502,-0.009 0.43201,-0.22531 c 0.73488,-0.38323 1.22346,-1.12697 1.31001,-1.99368 0.0522,-0.52323 -0.1237,-1.45956 -0.4372,-2.32751 -0.28932,-0.80105 -1.30847,-2.92157 -1.64846,-3.42924 -0.13049,-0.19491 -0.39616,-0.6385 -0.59015,-0.98547 -0.77219,-1.38111 -1.84283,-3.09414 -1.93374,-3.09387 z m -23.02856,3.97857 c -0.16156,0.003 -1.92892,2.98019 -2.58538,4.35528 -1.06093,2.22246 -1.11601,3.43704 -0.19378,4.2814 0.14425,0.13205 0.44585,0.28571 0.67024,0.34054 0.40569,0.0991 0.58677,0.0858 1.09657,-0.0791 0.26098,-0.0844 0.94522,-0.76339 0.94207,-0.93482 -0.003,-0.15337 0.15463,-0.0952 0.21342,0.0791 0.18396,0.54462 0.91326,0.99883 1.58387,0.9865 0.53414,-0.01 0.89226,-0.16367 1.2387,-0.53279 0.40592,-0.43247 0.5442,-0.90535 0.47956,-1.63607 -0.0964,-1.08888 -0.59561,-2.25254 -2.01176,-4.68499 -1.04947,-1.8026 -1.29696,-2.17757 -1.43351,-2.17506 z m 23.05285,10.97349 c -0.12364,-10e-4 -0.25006,6.8e-4 -0.37465,0.005 -0.49892,0.0182 -0.98226,0.0802 -1.26505,0.17983 -1.56356,0.55111 -2.56461,1.66465 -2.94452,3.27577 -0.15568,0.66016 -0.12888,2.06616 0.0512,2.70888 0.36959,1.31911 1.5195,2.47216 2.64946,2.65617 0.17515,0.0285 0.31937,0.0741 0.31985,0.10128 10e-4,0.0652 -0.37214,0.49724 -1.75543,2.03244 l -1.14827,1.27382 0.0165,0.88212 0.016,0.88263 0.1509,0.0765 c 0.0828,0.0424 1.67428,0.0759 3.53673,0.0744 1.86246,-0.002 3.40048,0.009 3.41736,0.0248 0.0468,0.0417 1.861,-0.0395 1.90013,-0.0853 0.0711,-0.083 0.084,-3.54005 0.0129,-3.58221 -0.041,-0.0243 -0.45807,-0.0637 -0.92657,-0.0873 l -0.85111,-0.0429 -0.0729,0.11886 c -0.0399,0.0651 -0.0735,0.25142 -0.0744,0.41444 -10e-4,0.16304 -0.004,0.51556 -0.007,0.78342 l -0.006,0.48679 -1.42626,0.0264 c -1.63819,0.0301 -2.99368,-0.0254 -2.96053,-0.12144 0.0125,-0.0362 0.9684,-1.07741 2.12493,-2.31407 1.15649,-1.23668 2.08983,-2.30008 2.07377,-2.36265 -0.0405,-0.15843 -1.20173,-1.04301 -1.36683,-1.04128 -0.0743,7.7e-4 -0.20561,0.0841 -0.2925,0.18552 -0.27588,0.32188 -0.94832,0.59635 -1.48725,0.6072 -1.2532,0.025 -2.09883,-1.04743 -2.03811,-2.58589 l 0.0258,-0.66094 0.23614,-0.48834 c 0.43804,-0.90675 1.33273,-1.45532 2.39212,-1.4671 1.23796,-0.0138 2.37715,0.85992 2.78329,2.13476 l 0.10747,0.33693 0.90281,0.007 0.90279,0.008 0.0527,-0.14573 c 0.029,-0.08 0.006,-0.39143 -0.0512,-0.69195 -0.30961,-1.62733 -1.84862,-3.11298 -3.64112,-3.51503 -0.25802,-0.0579 -0.61195,-0.0875 -0.9834,-0.091 z" />
    <path
       style="fill:#000000;stroke-width:0.0846667"
       id="path389"
       d="" />
  </g>
</svg>
