<?xml version="1.0" encoding="UTF-8" standalone="no"?>
<svg
   sodipodi:docname="3S.svg"
   id="svg8"
   version="1.1"
   viewBox="0 0 63.209408 88.282745"
   height="88.282745mm"
   width="63.209408mm"
   inkscape:version="1.1.1 (1:1.1+202109281949+c3084ef5ed)"
   inkscape:export-filename="/home/doug/k40/52Cards/3S.png"
   inkscape:export-xdpi="96"
   inkscape:export-ydpi="96"
   xmlns:inkscape="http://www.inkscape.org/namespaces/inkscape"
   xmlns:sodipodi="http://sodipodi.sourceforge.net/DTD/sodipodi-0.dtd"
   xmlns="http://www.w3.org/2000/svg"
   xmlns:svg="http://www.w3.org/2000/svg"
   xmlns:rdf="http://www.w3.org/1999/02/22-rdf-syntax-ns#"
   xmlns:cc="http://creativecommons.org/ns#"
   xmlns:dc="http://purl.org/dc/elements/1.1/">
  <defs
     id="defs2">
    <marker
       style="overflow:visible"
       id="marker2995"
       refX="0"
       refY="0"
       orient="auto"
       inkscape:stockid="Arrow1Lstart"
       inkscape:isstock="true">
      <path
         transform="matrix(0.8,0,0,0.8,10,0)"
         style="fill:#000000;fill-opacity:1;fill-rule:evenodd;stroke:#000000;stroke-width:1pt;stroke-opacity:1"
         d="M 0,0 5,-5 -12.5,0 5,5 Z"
         id="path2993" />
    </marker>
    <marker
       style="overflow:visible"
       id="marker2985"
       refX="0"
       refY="0"
       orient="auto"
       inkscape:stockid="Arrow1Lstart"
       inkscape:isstock="true">
      <path
         transform="matrix(0.8,0,0,0.8,10,0)"
         style="fill:#000000;fill-opacity:1;fill-rule:evenodd;stroke:#000000;stroke-width:1pt;stroke-opacity:1"
         d="M 0,0 5,-5 -12.5,0 5,5 Z"
         id="path2983" />
    </marker>
    <marker
       style="overflow:visible"
       id="marker2791"
       refX="0"
       refY="0"
       orient="auto"
       inkscape:stockid="Arrow1Lstart"
       inkscape:isstock="true">
      <path
         transform="matrix(0.8,0,0,0.8,10,0)"
         style="fill:#000000;fill-opacity:1;fill-rule:evenodd;stroke:#000000;stroke-width:1pt;stroke-opacity:1"
         d="M 0,0 5,-5 -12.5,0 5,5 Z"
         id="path2789" />
    </marker>
    <marker
       style="overflow:visible"
       id="marker2781"
       refX="0"
       refY="0"
       orient="auto"
       inkscape:stockid="Arrow1Lstart"
       inkscape:isstock="true">
      <path
         transform="matrix(0.8,0,0,0.8,10,0)"
         style="fill:#000000;fill-opacity:1;fill-rule:evenodd;stroke:#000000;stroke-width:1pt;stroke-opacity:1"
         d="M 0,0 5,-5 -12.5,0 5,5 Z"
         id="path2779" />
    </marker>
    <marker
       style="overflow:visible"
       id="marker2417"
       refX="0"
       refY="0"
       orient="auto"
       inkscape:stockid="Arrow1Lstart"
       inkscape:isstock="true">
      <path
         transform="matrix(0.8,0,0,0.8,10,0)"
         style="fill:#000000;fill-opacity:1;fill-rule:evenodd;stroke:#000000;stroke-width:1pt;stroke-opacity:1"
         d="M 0,0 5,-5 -12.5,0 5,5 Z"
         id="path2415" />
    </marker>
    <marker
       style="overflow:visible"
       id="marker2383"
       refX="0"
       refY="0"
       orient="auto"
       inkscape:stockid="Arrow1Lstart"
       inkscape:isstock="true">
      <path
         transform="matrix(0.8,0,0,0.8,10,0)"
         style="fill:#000000;fill-opacity:1;fill-rule:evenodd;stroke:#000000;stroke-width:1pt;stroke-opacity:1"
         d="M 0,0 5,-5 -12.5,0 5,5 Z"
         id="path2381" />
    </marker>
    <marker
       style="overflow:visible"
       id="marker2355"
       refX="0"
       refY="0"
       orient="auto"
       inkscape:stockid="Arrow1Lstart"
       inkscape:isstock="true">
      <path
         transform="matrix(0.8,0,0,0.8,10,0)"
         style="fill:#000000;fill-opacity:1;fill-rule:evenodd;stroke:#000000;stroke-width:1pt;stroke-opacity:1"
         d="M 0,0 5,-5 -12.5,0 5,5 Z"
         id="path2353" />
    </marker>
    <marker
       style="overflow:visible"
       id="Arrow1Lstart"
       refX="0"
       refY="0"
       orient="auto"
       inkscape:stockid="Arrow1Lstart"
       inkscape:isstock="true">
      <path
         transform="matrix(0.8,0,0,0.8,10,0)"
         style="fill:#000000;fill-opacity:1;fill-rule:evenodd;stroke:#000000;stroke-width:1pt;stroke-opacity:1"
         d="M 0,0 5,-5 -12.5,0 5,5 Z"
         id="path2071" />
    </marker>
  </defs>
  <sodipodi:namedview
     id="base"
     pagecolor="#ffffff"
     bordercolor="#666666"
     borderopacity="1.0"
     inkscape:pageopacity="0.0"
     inkscape:pageshadow="2"
     inkscape:zoom="1.5044937"
     inkscape:cx="86.075468"
     inkscape:cy="166.5012"
     inkscape:document-units="mm"
     inkscape:current-layer="layer1"
     inkscape:document-rotation="0"
     showgrid="false"
     inkscape:snap-smooth-nodes="false"
     inkscape:object-nodes="false"
     inkscape:window-width="1366"
     inkscape:window-height="712"
     inkscape:window-x="0"
     inkscape:window-y="0"
     inkscape:window-maximized="1"
     inkscape:object-paths="false"
     inkscape:snap-intersection-paths="false"
     inkscape:snap-midpoints="false"
     inkscape:snap-others="false"
     inkscape:pagecheckerboard="0"
     showguides="true"
     inkscape:guide-bbox="true"
     inkscape:snap-bbox="true"
     showborder="false"
     fit-margin-top="0"
     fit-margin-left="0"
     fit-margin-right="0"
     fit-margin-bottom="0" />
  <metadata
     id="metadata5">
    <rdf:RDF>
      <cc:Work
         rdf:about="">
        <dc:format>image/svg+xml</dc:format>
        <dc:type
           rdf:resource="http://purl.org/dc/dcmitype/StillImage" />
      </cc:Work>
    </rdf:RDF>
  </metadata>
  <g
     inkscape:label="Layer 1"
     inkscape:groupmode="layer"
     id="layer1"
     transform="translate(574.25351,231.81337)">
    <path
       style="fill:#000000;stroke-width:0.0846667"
       id="path389"
       d="" />
    <path
       id="path6748-1"
       style="fill:#000000;fill-opacity:1;stroke:none;stroke-width:0.264999;stroke-miterlimit:4;stroke-dasharray:none;stroke-opacity:1"
       d="m -568.69465,-231.81148 v 5.2e-4 c -0.78931,0.003 -1.44587,0.01 -1.87637,0.0191 v 0.001 c -0.287,0.006 -0.47377,0.0137 -0.53176,0.0227 -0.71274,0.10703 -1.36626,0.48943 -2.06087,1.20561 -0.35991,0.37102 -0.71326,0.83104 -0.8237,1.07229 l -0.19381,0.42271 -0.046,0.97875 c -0.0249,0.53812 -0.0341,3.07406 -0.0191,5.63532 0.0148,2.56127 0.0238,6.71443 0.0207,9.22941 -0.003,2.51498 0.005,6.57321 0.0191,9.01805 0.014,2.44485 0.0172,5.11212 0.009,5.92729 -0.0101,0.81518 -0.004,3.48244 0.0108,5.92728 0.0148,2.44484 0.0236,5.32167 0.0196,6.3929 -0.004,1.07124 0.003,3.75714 0.014,5.96914 0.0119,2.21202 0.0174,4.91748 0.0124,6.01204 -0.005,1.09454 -0.004,3.47644 0.003,5.2927 0.0285,9.44305 0.0305,15.02882 0.007,16.1308 -0.0148,0.67556 -0.008,2.34826 0.0155,3.71708 l 0.0408,2.48874 0.19225,0.38085 c 0.4037,0.80052 1.52691,1.79313 2.36831,2.09238 l 0.45992,0.16381 6.07045,0.0233 c 3.33872,0.0129 7.2708,0.0259 8.73797,0.0289 1.46703,0.003 5.50637,0.0143 8.97617,0.0243 3.46993,0.0101 7.71864,0.0164 9.44182,0.0134 1.72307,-0.003 3.80007,0.002 4.6152,0.0103 0.81518,0.008 3.61575,0.0235 6.22393,0.0315 2.60815,0.008 5.96167,0.0245 7.45225,0.0357 1.49048,0.012 3.37431,0.0163 4.18579,0.0103 l 1.47537,-0.0114 0.62735,-0.32246 c 0.76044,-0.39123 1.65283,-1.26249 1.97919,-1.93166 l 0.22429,-0.45889 v -6.64766 c 0,-3.65597 -0.008,-9.56211 -0.0165,-13.12477 -0.009,-3.56268 -0.0135,-7.48719 -0.009,-8.72144 0.005,-1.23426 0.003,-4.91107 -0.004,-8.17107 -0.0151,-7.24781 -0.0231,-15.79625 -0.0181,-19.26446 0.003,-1.4205 -0.003,-5.25011 -0.0114,-8.51008 -0.008,-3.25996 -0.0172,-8.66194 -0.0191,-12.00495 l -0.005,-6.07869 -0.23411,-0.45786 c -0.49135,-0.96422 -1.47195,-1.92827 -2.27221,-2.23345 -0.46265,-0.17646 -1.06085,-0.19293 -6.91481,-0.19793 -2.70131,-0.002 -5.7691,-0.0105 -6.81715,-0.0181 -1.04798,-0.007 -4.22955,-0.0123 -7.07038,-0.0114 -2.84093,0.001 -5.71833,-0.008 -6.39392,-0.0196 -0.67548,-0.012 -2.79,-0.0174 -4.69945,-0.0114 -1.90936,0.005 -3.83405,-7.9e-4 -4.27675,-0.0145 -0.44267,-0.0139 -3.22461,-0.0285 -6.18204,-0.0326 -2.95749,-0.004 -7.47329,-0.0178 -10.03506,-0.031 -0.96065,-0.005 -1.88236,-0.006 -2.67166,-0.003 z m 6.85488,0.65629 h 0.002 c 4.23778,-0.006 9.47867,-0.006 14.81357,0.002 2.11976,0.003 8.02323,0.007 13.12273,0.008 5.09926,0.001 11.67257,0.003 14.60582,0.006 l 5.19141,0.004 0.42582,0.22479 c 0.57553,0.30258 1.36295,1.09054 1.59526,1.55236 l 0.18965,0.3793 0.0449,4.60541 c 0.0366,3.78221 0.0897,12.61556 0.13073,20.70468 0.041,8.08913 0.069,15.49402 0.0569,16.23673 -0.0143,0.88441 0.0177,7.87707 0.0682,15.6776 0.0526,8.127 0.0843,14.33262 0.0941,18.5508 0.005,2.10909 0.004,3.72219 -0.003,4.82813 -0.003,0.55297 -0.006,0.97911 -0.0119,1.27538 -0.003,0.14814 -0.007,0.26405 -0.01,0.34364 -0.003,0.0796 -0.0161,0.15923 -0.003,0.0822 -0.0629,0.34561 -0.41193,0.95695 -0.90228,1.40818 -0.68705,0.63225 -1.18692,0.88994 -1.79885,0.98444 -0.22426,0.0346 -0.7265,0.0717 -1.15033,0.0878 -0.21191,0.008 -0.40812,0.0117 -0.54465,0.01 -0.06,-0.001 -0.10168,-0.004 -0.12713,-0.006 -0.005,-0.002 -0.0158,-0.004 -0.0155,-0.004 0,-1.3e-4 -0.048,-0.01 -0.0605,-0.0119 -0.0249,-0.004 -0.0347,-0.005 -0.0449,-0.006 -0.0206,-0.002 -0.0353,-0.001 -0.0512,-0.002 -0.0319,-0.001 -0.0691,-0.003 -0.11679,-0.004 -0.0954,-0.002 -0.23059,-0.004 -0.40256,-0.006 -0.34402,-0.003 -0.83508,-0.006 -1.44127,-0.008 -1.21235,-0.004 -2.87864,-0.005 -4.7072,-0.002 -3.65506,0.005 -8.32519,0.006 -10.37302,0.004 -5.82652,-0.006 -12.05672,-0.005 -19.00761,0.006 -3.51563,0.005 -9.19493,0.0124 -12.61732,0.014 l -6.09161,0.004 -0.47699,-0.22427 c -0.54721,-0.25805 -1.27579,-0.93069 -1.67171,-1.5844 l -0.2186,-0.35915 -0.15039,-17.41238 c -0.1437,-16.53655 -0.28768,-44.22916 -0.30282,-58.63673 l -0.006,-6.30452 0.26355,-0.53124 c 0.45151,-0.91114 1.62055,-1.77361 2.31045,-1.85156 -0.0397,0.004 0.0454,-0.002 0.1483,-0.004 0.10692,-0.002 0.25778,-0.004 0.44752,-0.006 1.32342,-0.0166 4.55811,-0.0289 8.79586,-0.0351 z m -0.4775,3.55741 -3.34399,0.008 c -1.83938,0.004 -3.66903,0.0212 -4.06487,0.0372 -0.39584,0.016 -0.89807,0.0293 -1.11673,0.031 l -0.3979,0.002 0.0253,0.69816 c 0.0138,0.38418 0.03,1.18445 0.0351,1.77818 l 0.01,1.07952 0.88934,0.001 0.88884,10e-4 v -0.88884 c 0,-0.65458 0.0295,-0.88895 0.10748,-0.88883 0.0582,-2e-5 1.10561,-0.024 2.32801,-0.0527 1.3167,-0.0308 2.2225,-0.0208 2.22158,0.0248 0,0.0423 -0.73094,0.87605 -1.62211,1.8526 -0.89117,0.97655 -1.87198,2.05575 -2.17972,2.39779 l -0.55914,0.62167 0.25064,0.1819 c 0.13795,0.10011 0.4541,0.34726 0.70228,0.54932 l 0.45112,0.36742 0.29818,-0.29714 c 0.4068,-0.40555 0.82188,-0.58836 1.4242,-0.62684 0.43341,-0.0277 0.5761,0.003 0.96946,0.21033 0.57856,0.30513 0.96814,0.83233 1.1534,1.56011 0.35528,1.39548 -0.24479,2.75143 -1.4831,3.35121 -0.39738,0.19249 -0.59306,0.23194 -1.15602,0.23307 -0.57184,0.001 -0.75996,-0.0374 -1.20869,-0.24547 -0.8391,-0.38905 -1.51125,-1.20633 -1.74927,-2.12752 -0.0135,-0.0516 -0.35965,-0.0744 -0.89088,-0.0589 l -0.86868,0.0258 0.0444,0.43873 c 0.13017,1.27777 1.07418,2.54136 2.38384,3.19257 1.94453,0.96696 4.22468,0.68775 5.56866,-0.68161 0.86,-0.87625 1.26383,-1.96434 1.26399,-3.40548 -5e-5,-1.29272 -0.35329,-2.25216 -1.13429,-3.08043 -0.48816,-0.51771 -1.02132,-0.8233 -1.68206,-0.96376 -0.2454,-0.0521 -0.45937,-0.10691 -0.47543,-0.12144 -0.0269,-0.0242 0.9253,-1.12833 2.38072,-2.76056 l 0.58086,-0.65112 -0.0233,-0.8971 z m 8.74263,12.38787 5e-4,5.2e-4 c -1.42057,-0.003 -3.24781,0.006 -4.06072,0.0212 l -1.47693,0.0274 -0.0134,0.46561 c -0.007,0.25629 -0.005,3.05701 0.004,6.22391 0.009,3.16689 0.0129,6.50156 0.006,7.40988 -0.006,0.90831 -0.003,3.13747 0.007,4.95371 0.0104,1.8162 0.013,4.04484 0.005,4.95318 -0.007,0.90833 -0.0115,3.82397 -0.009,6.47868 0.002,2.65472 0.003,6.78948 0.003,9.18806 -6.9e-4,10.21831 0.003,11.73243 0.0346,13.42141 l 0.0326,1.77715 0.88885,0.001 c 0.48902,10e-4 2.75672,0.006 5.03896,0.0119 2.28227,0.006 5.35011,0.009 6.81715,0.006 1.46706,-0.003 3.29623,0.002 4.06487,0.0103 0.76864,0.008 2.61691,0.0123 4.10723,0.009 1.49037,-0.004 3.49084,-0.002 4.44574,0.003 0.95486,0.005 2.95585,0.0107 4.44625,0.0124 1.48994,0.002 2.7246,0.0176 2.74505,0.0351 h 5e-4 c 0.0802,0.0702 0.26832,0.0205 0.29766,-0.0791 0.0172,-0.0585 0.0255,-2.65963 0.0186,-5.78001 -0.007,-3.12036 -0.0103,-6.62581 -0.009,-7.79022 0.004,-2.15307 -5e-5,-9.14605 -0.006,-14.05703 -0.002,-1.49035 -0.003,-5.64366 -0.002,-9.22992 0.003,-11.1019 -0.004,-14.15949 -0.0408,-16.11737 l -0.0346,-1.89032 -0.80513,-0.0145 c -0.44257,-0.008 -2.40501,-0.007 -4.36097,0.002 -1.95595,0.009 -3.93734,0.004 -4.40335,-0.009 -0.46596,-0.0134 -2.21927,-0.0218 -3.89588,-0.0181 -1.67662,0.004 -3.54354,0.002 -4.14909,-0.004 -0.60558,-0.006 -2.45383,-0.0115 -4.10724,-0.0129 -1.6534,-10e-4 -4.16872,-0.005 -5.58932,-0.009 z m 0.80873,0.31264 v 5.2e-4 c 2.26366,-0.002 4.56782,0.005 5.6353,0.0233 0.62897,0.0108 2.64809,0.0115 4.4876,0.002 1.83952,-0.01 3.726,-0.006 4.19198,0.007 0.46601,0.0135 2.33328,0.0216 4.14962,0.0181 1.81636,-0.003 4.29353,-6.3e-4 5.50458,0.006 l 2.20194,0.0124 0.0191,1.86242 c 0.0207,2.01284 0.0411,11.50666 0.031,14.60686 -0.003,1.04799 -0.004,3.12489 -10e-4,4.61522 0.003,1.49033 0.003,3.5858 -5e-4,4.65708 -0.007,2.30393 -0.005,4.96624 0.0108,11.89798 0.006,2.81763 0.007,5.96141 0.002,6.98614 -0.005,1.02474 -0.006,3.13979 -0.003,4.69997 0.007,3.15705 -0.0224,4.81917 -0.0863,4.92683 -0.0234,0.0393 -0.12625,0.0663 -0.22841,0.0605 -0.36581,-0.0211 -4.90225,-0.0424 -8.06151,-0.0382 -1.76977,0.002 -3.73256,-0.005 -4.3615,-0.0155 -0.62894,-0.0108 -2.24808,-0.0191 -3.59875,-0.0191 -10.26306,7.6e-4 -15.75946,-0.0252 -15.80936,-0.0739 -0.0316,-0.0315 -0.0542,-1.65752 -0.0491,-3.61373 0.005,-1.95624 10e-4,-6.20507 -0.01,-9.4418 -0.0109,-3.23674 -0.0115,-6.39957 -0.001,-7.02851 0.0104,-0.62895 0.009,-2.87768 -0.004,-4.9966 -0.0127,-2.11892 -0.0135,-4.23352 -0.003,-4.69945 0.0111,-0.46596 0.0149,-2.33334 0.008,-4.14962 -0.007,-1.81628 -0.0104,-5.13135 -0.007,-7.36699 0.003,-2.23563 0.005,-5.16987 0.005,-6.52053 -7.1e-4,-1.35063 0.006,-3.32586 0.016,-4.3894 l 0.0176,-1.93321 0.12298,-0.0501 c 0.0146,-0.006 0.16658,-0.0113 0.42582,-0.016 l 5.1e-4,5.2e-4 c 0.90717,-0.0172 3.13086,-0.0282 5.39451,-0.03 z m 9.85469,3.17139 c -0.0233,1.7e-4 -0.20595,0.27613 -0.40566,0.61288 -0.19973,0.33671 -0.82113,1.24012 -1.3808,2.00763 -1.08988,1.49452 -1.49612,2.22028 -1.66034,2.96106 -0.29557,1.33302 0.56581,2.37659 1.87378,2.27014 0.51543,-0.0419 1.0437,-0.3527 1.22885,-0.72347 l 0.11473,-0.22996 0.031,0.23978 c 0.0521,0.40542 -0.23368,1.59176 -0.53383,2.21485 -0.15679,0.32548 -0.27765,0.59925 -0.26768,0.60927 0.0101,0.01 0.28226,-0.0193 0.60566,-0.0646 0.32337,-0.0457 0.68371,-0.0646 0.80097,-0.0429 0.96333,0.17792 0.98031,0.16881 0.64545,-0.35243 -0.27109,-0.42197 -0.62243,-1.48424 -0.69349,-2.09652 l -0.0574,-0.49505 0.37309,0.38809 c 0.5597,0.58304 1.0958,0.6996 1.87947,0.40772 0.73896,-0.27518 1.07619,-0.78659 1.07746,-1.63246 0,-0.94982 -0.28929,-1.49588 -2.08359,-3.90467 -0.62889,-0.84428 -1.22505,-1.67767 -1.32448,-1.85208 -0.0993,-0.17443 -0.19992,-0.31726 -0.22323,-0.31729 z m -23.49934,1.22369 c -0.0698,0.009 -0.21322,0.18765 -0.38862,0.49506 -0.33906,0.59427 -1.15228,1.78104 -2.07168,3.02359 -1.42923,1.93155 -1.99414,2.86391 -2.29548,3.78943 -0.12435,0.382 -0.20002,0.82266 -0.20256,1.18029 -0.0122,1.50081 0.95827,2.52213 2.39726,2.52233 0.94355,5.3e-4 1.63073,-0.40172 2.16524,-1.26607 l 0.18293,-0.29559 -0.0563,0.59221 c -0.1284,1.34707 -0.50757,2.63328 -1.01078,3.42873 -0.16066,0.25389 -0.27742,0.47596 -0.25993,0.49351 0.0175,0.0175 0.21442,-0.009 0.4382,-0.0589 0.90178,-0.20116 2.12662,-0.18494 2.67169,0.0351 0.22053,0.089 0.18282,-0.07 -0.13489,-0.57154 -0.32798,-0.51778 -0.66212,-1.33066 -0.84439,-2.05569 -0.13015,-0.51775 -0.31679,-1.75299 -0.27181,-1.79782 0.0135,-0.0136 0.14142,0.1638 0.28422,0.39429 0.67492,1.08943 1.94027,1.38781 3.20807,0.75706 1.07093,-0.53287 1.49085,-1.88952 1.0201,-3.29747 -0.31027,-0.92788 -0.80563,-1.71833 -2.4593,-3.92741 -1.41322,-1.88785 -2.32669,-3.20692 -2.32645,-3.35897 8e-5,-0.0502 -0.0114,-0.0768 -0.0326,-0.0816 -0.004,-7.9e-4 -0.008,-10e-4 -0.0129,-5.2e-4 z m 24.81451,17.79065 c -0.0618,-0.002 -0.18246,0.018 -0.31007,0.0532 -0.17013,0.0469 -0.68191,0.0696 -1.13792,0.0506 -0.45595,-0.019 -0.81933,-0.0147 -0.80716,0.0103 0.65974,1.35478 0.90778,2.08469 0.90691,2.66598 v 0.2372 l -0.33332,-0.33435 c -0.82915,-0.83166 -2.21607,-0.6346 -2.73627,0.38861 -0.29202,0.5745 -0.30329,1.07799 -0.0408,1.80092 0.20778,0.57244 1.07988,1.93085 1.89654,2.95434 0.27675,0.34686 0.74086,0.98372 1.03198,1.4149 0.29112,0.43118 0.54044,0.7834 0.55396,0.78342 0.0135,2e-5 0.14322,-0.20867 0.28784,-0.46406 0.14462,-0.25537 0.77295,-1.17834 1.39681,-2.05103 1.21714,-1.70252 1.48445,-2.1608 1.71101,-2.93574 0.36375,-1.24421 -0.29631,-2.31606 -1.4795,-2.40347 -0.66286,-0.0489 -1.03362,0.0906 -1.42676,0.53588 -0.18098,0.20499 -0.34896,0.35291 -0.37312,0.32866 -0.14332,-0.14375 0.42826,-2.23222 0.7338,-2.68097 0.11387,-0.16723 0.18888,-0.32277 0.16639,-0.3452 -0.006,-0.006 -0.0196,-0.009 -0.0403,-0.009 z m 20.86022,13.83792 0.2377,0.31367 c 0.29875,0.39364 0.74584,1.38064 0.92658,2.04639 0.19269,0.71002 0.40751,2.00725 0.3421,2.06706 -0.03,0.0274 -0.0725,2.6e-4 -0.0941,-0.0605 -0.0821,-0.23168 -0.5902,-0.82719 -0.86249,-1.0113 -0.15626,-0.10565 -0.43965,-0.23482 -0.63045,-0.28681 -0.41775,-0.11379 -1.40096,-0.0522 -1.49137,0.0935 -0.0356,0.0577 -0.10245,0.0812 -0.14833,0.0527 -0.11284,-0.07 -0.71556,0.3748 -0.97771,0.7214 -0.11671,0.15437 -0.27205,0.45202 -0.34468,0.66146 -0.18155,0.52325 -0.17301,1.31645 0.0196,1.92288 0.35134,1.10556 0.82661,1.86297 2.7709,4.4173 1.02087,1.34116 2.05176,2.84353 2.05155,2.98948 0,0.20709 0.18645,0.0253 0.42117,-0.41031 0.14414,-0.26755 0.69672,-1.0959 1.22782,-1.8402 2.46896,-3.45981 2.97553,-4.28381 3.23183,-5.26169 0.46673,-1.7809 -0.396,-3.23925 -2.04483,-3.45664 -0.86931,-0.11464 -1.83721,0.35213 -2.27531,1.09709 -0.12552,0.21344 -0.24686,0.36968 -0.26924,0.34727 -0.0576,-0.0578 0.13367,-1.4356 0.28318,-2.04071 0.15142,-0.6127 0.5057,-1.49232 0.77412,-1.92339 0.10806,-0.17354 0.19632,-0.34797 0.19638,-0.38757 5e-5,-0.0395 -0.25715,-0.0178 -0.57153,0.048 -0.57661,0.12078 -2.10132,0.0985 -2.56109,-0.0372 z m -20.64991,5.21001 c -0.0483,-0.002 -0.15999,0.0188 -0.28937,0.0543 -0.17325,0.0473 -0.68815,0.0707 -1.14411,0.0517 -0.45598,-0.019 -0.81714,-0.014 -0.80256,0.0109 0.18161,0.3111 0.65508,1.39436 0.72347,1.6552 0.1478,0.56372 0.24281,1.31269 0.1664,1.31258 -0.0395,-6e-5 -0.0718,-0.0363 -0.0718,-0.0806 8e-5,-0.0443 -0.13687,-0.21408 -0.30435,-0.37723 -0.39944,-0.38894 -1.03206,-0.53681 -1.65831,-0.38758 -0.49897,0.11891 -1.02856,0.58589 -1.1648,1.02785 -0.0471,0.15307 -0.074,0.52953 -0.0594,0.83664 0.043,0.9012 0.30361,1.3662 2.20038,3.93257 0.51683,0.69929 1.04344,1.43332 1.17049,1.63143 0.127,0.19809 0.24672,0.36015 0.26612,0.36018 0.0193,4e-5 0.11895,-0.16708 0.22169,-0.37207 0.10279,-0.20497 0.74901,-1.15583 1.43608,-2.11253 1.81507,-2.52731 2.14892,-3.41294 1.66243,-4.4111 -0.30231,-0.62033 -0.72258,-0.90876 -1.39732,-0.9586 -0.65844,-0.0486 -1.02036,0.0859 -1.43454,0.53382 l -0.34624,0.37414 v -0.28422 c 0,-0.50263 0.26752,-1.51475 0.56327,-2.13837 0.15825,-0.33372 0.28732,-0.62586 0.28734,-0.64906 0,-0.006 -0.008,-0.009 -0.0238,-0.01 h -5.1e-4 z m 22.45651,11.84631 c -1.53283,0.009 -3.00868,0.69479 -3.79563,1.99006 -0.26725,0.43989 -0.53239,1.25171 -0.62166,1.90531 v 5.1e-4 c -0.13375,0.97931 0.0484,2.13975 0.46458,2.96416 0.47686,0.94462 1.66312,1.85197 2.42258,1.85312 0.16018,2.4e-4 0.31522,0.0242 0.34417,0.0532 0.0511,0.0513 -0.63826,0.8894 -2.16628,2.63239 l -0.74208,0.84595 v 0.91312 0.91261 l 4.41058,-0.0491 c 2.42605,-0.0272 4.43648,-0.0646 4.46691,-0.0832 0.0304,-0.0187 0.0456,-0.81904 0.0336,-1.77819 l -0.0222,-1.74356 -0.88572,-10e-4 -0.88575,-0.001 v 0.88883 0.88935 l -1.29087,0.006 c -0.71017,0.004 -1.75808,0.0209 -2.32855,0.0382 -0.5923,0.018 -1.03722,-0.002 -1.03714,-0.046 8e-5,-0.0658 0.56071,-0.7052 2.04536,-2.33268 0.40542,-0.44442 1.94416,-2.15941 2.12802,-2.37194 0.13991,-0.16178 0.12314,-0.18453 -0.52038,-0.69505 -0.36584,-0.29021 -0.68186,-0.5281 -0.70176,-0.52814 -0.0198,-3e-5 -0.19137,0.14745 -0.38137,0.32763 -0.35044,0.33235 -0.96792,0.60215 -1.37821,0.60152 -0.79066,-0.001 -1.55795,-0.52399 -1.91204,-1.30225 -0.20357,-0.44735 -0.23723,-0.63049 -0.23823,-1.28364 0,-0.66258 0.0318,-0.83439 0.24805,-1.31465 0.18039,-0.40049 0.35536,-0.63536 0.63563,-0.85473 0.63183,-0.49447 0.91903,-0.60609 1.6619,-0.64544 0.58476,-0.031 0.75785,-0.006 1.20356,0.17519 0.2862,0.11611 0.64908,0.32082 0.80614,0.45526 0.44103,0.37745 0.89836,1.03843 0.99994,1.44436 l 0.092,0.36742 0.87903,10e-4 0.879,0.001 -0.003,-0.3173 c 0,-0.43257 -0.35502,-1.40777 -0.68112,-1.87895 -0.14742,-0.21306 -0.48164,-0.57393 -0.74258,-0.80202 -0.96334,-0.84202 -2.19003,-1.24388 -3.38222,-1.23662 z" />
  </g>
</svg>
