<?xml version="1.0" encoding="UTF-8" standalone="no"?>
<svg
   sodipodi:docname="4C.svg"
   id="svg8"
   version="1.1"
   viewBox="0 0 63.1026 88.347847"
   height="88.347847mm"
   width="63.1026mm"
   inkscape:version="1.1.1 (1:1.1+202109281949+c3084ef5ed)"
   inkscape:export-filename="/home/doug/k40/52Cards/4C.png"
   inkscape:export-xdpi="96"
   inkscape:export-ydpi="96"
   xmlns:inkscape="http://www.inkscape.org/namespaces/inkscape"
   xmlns:sodipodi="http://sodipodi.sourceforge.net/DTD/sodipodi-0.dtd"
   xmlns="http://www.w3.org/2000/svg"
   xmlns:svg="http://www.w3.org/2000/svg"
   xmlns:rdf="http://www.w3.org/1999/02/22-rdf-syntax-ns#"
   xmlns:cc="http://creativecommons.org/ns#"
   xmlns:dc="http://purl.org/dc/elements/1.1/">
  <defs
     id="defs2">
    <marker
       style="overflow:visible"
       id="marker2995"
       refX="0"
       refY="0"
       orient="auto"
       inkscape:stockid="Arrow1Lstart"
       inkscape:isstock="true">
      <path
         transform="matrix(0.8,0,0,0.8,10,0)"
         style="fill:#000000;fill-opacity:1;fill-rule:evenodd;stroke:#000000;stroke-width:1pt;stroke-opacity:1"
         d="M 0,0 5,-5 -12.5,0 5,5 Z"
         id="path2993" />
    </marker>
    <marker
       style="overflow:visible"
       id="marker2985"
       refX="0"
       refY="0"
       orient="auto"
       inkscape:stockid="Arrow1Lstart"
       inkscape:isstock="true">
      <path
         transform="matrix(0.8,0,0,0.8,10,0)"
         style="fill:#000000;fill-opacity:1;fill-rule:evenodd;stroke:#000000;stroke-width:1pt;stroke-opacity:1"
         d="M 0,0 5,-5 -12.5,0 5,5 Z"
         id="path2983" />
    </marker>
    <marker
       style="overflow:visible"
       id="marker2791"
       refX="0"
       refY="0"
       orient="auto"
       inkscape:stockid="Arrow1Lstart"
       inkscape:isstock="true">
      <path
         transform="matrix(0.8,0,0,0.8,10,0)"
         style="fill:#000000;fill-opacity:1;fill-rule:evenodd;stroke:#000000;stroke-width:1pt;stroke-opacity:1"
         d="M 0,0 5,-5 -12.5,0 5,5 Z"
         id="path2789" />
    </marker>
    <marker
       style="overflow:visible"
       id="marker2781"
       refX="0"
       refY="0"
       orient="auto"
       inkscape:stockid="Arrow1Lstart"
       inkscape:isstock="true">
      <path
         transform="matrix(0.8,0,0,0.8,10,0)"
         style="fill:#000000;fill-opacity:1;fill-rule:evenodd;stroke:#000000;stroke-width:1pt;stroke-opacity:1"
         d="M 0,0 5,-5 -12.5,0 5,5 Z"
         id="path2779" />
    </marker>
    <marker
       style="overflow:visible"
       id="marker2417"
       refX="0"
       refY="0"
       orient="auto"
       inkscape:stockid="Arrow1Lstart"
       inkscape:isstock="true">
      <path
         transform="matrix(0.8,0,0,0.8,10,0)"
         style="fill:#000000;fill-opacity:1;fill-rule:evenodd;stroke:#000000;stroke-width:1pt;stroke-opacity:1"
         d="M 0,0 5,-5 -12.5,0 5,5 Z"
         id="path2415" />
    </marker>
    <marker
       style="overflow:visible"
       id="marker2383"
       refX="0"
       refY="0"
       orient="auto"
       inkscape:stockid="Arrow1Lstart"
       inkscape:isstock="true">
      <path
         transform="matrix(0.8,0,0,0.8,10,0)"
         style="fill:#000000;fill-opacity:1;fill-rule:evenodd;stroke:#000000;stroke-width:1pt;stroke-opacity:1"
         d="M 0,0 5,-5 -12.5,0 5,5 Z"
         id="path2381" />
    </marker>
    <marker
       style="overflow:visible"
       id="marker2355"
       refX="0"
       refY="0"
       orient="auto"
       inkscape:stockid="Arrow1Lstart"
       inkscape:isstock="true">
      <path
         transform="matrix(0.8,0,0,0.8,10,0)"
         style="fill:#000000;fill-opacity:1;fill-rule:evenodd;stroke:#000000;stroke-width:1pt;stroke-opacity:1"
         d="M 0,0 5,-5 -12.5,0 5,5 Z"
         id="path2353" />
    </marker>
    <marker
       style="overflow:visible"
       id="Arrow1Lstart"
       refX="0"
       refY="0"
       orient="auto"
       inkscape:stockid="Arrow1Lstart"
       inkscape:isstock="true">
      <path
         transform="matrix(0.8,0,0,0.8,10,0)"
         style="fill:#000000;fill-opacity:1;fill-rule:evenodd;stroke:#000000;stroke-width:1pt;stroke-opacity:1"
         d="M 0,0 5,-5 -12.5,0 5,5 Z"
         id="path2071" />
    </marker>
  </defs>
  <sodipodi:namedview
     id="base"
     pagecolor="#ffffff"
     bordercolor="#666666"
     borderopacity="1.0"
     inkscape:pageopacity="0.0"
     inkscape:pageshadow="2"
     inkscape:zoom="1.5033851"
     inkscape:cx="86.138941"
     inkscape:cy="167.28914"
     inkscape:document-units="mm"
     inkscape:current-layer="layer1"
     inkscape:document-rotation="0"
     showgrid="false"
     inkscape:snap-smooth-nodes="false"
     inkscape:object-nodes="false"
     inkscape:window-width="1366"
     inkscape:window-height="712"
     inkscape:window-x="0"
     inkscape:window-y="0"
     inkscape:window-maximized="1"
     inkscape:object-paths="false"
     inkscape:snap-intersection-paths="false"
     inkscape:snap-midpoints="false"
     inkscape:snap-others="false"
     inkscape:pagecheckerboard="0"
     showguides="true"
     inkscape:guide-bbox="true"
     inkscape:snap-bbox="true"
     showborder="false"
     fit-margin-top="0"
     fit-margin-left="0"
     fit-margin-right="0"
     fit-margin-bottom="0" />
  <metadata
     id="metadata5">
    <rdf:RDF>
      <cc:Work
         rdf:about="">
        <dc:format>image/svg+xml</dc:format>
        <dc:type
           rdf:resource="http://purl.org/dc/dcmitype/StillImage" />
      </cc:Work>
    </rdf:RDF>
  </metadata>
  <g
     inkscape:label="Layer 1"
     inkscape:groupmode="layer"
     id="layer1"
     transform="translate(487.97621,475.26822)">
    <path
       style="fill:#000000;stroke-width:0.0846667"
       id="path389"
       d="" />
    <path
       id="path5075"
       style="fill:#000000;stroke:none;stroke-width:0.0846667"
       d="m -480.0661,-475.26796 0.004,5.3e-4 c -1.12029,9.8e-4 -2.13534,0.005 -2.77555,0.0124 l -2.32905,0.0258 -0.57722,0.29609 c -0.74231,0.37986 -1.68912,1.33263 -1.98284,1.99522 l -0.20825,0.46924 -0.01,4.57285 c -0.01,2.5151 -0.0142,5.35427 -0.0212,6.30917 -0.01,0.95488 -0.01,3.88914 -0.01,6.52053 0,2.63138 0.01,5.8892 0,7.23987 0,1.35067 -1.8e-4,6.68594 0.01,11.85561 0.01,5.16967 0.0104,10.48583 0.0104,11.81322 0,1.32742 -8e-5,4.87109 0.0129,7.87498 0.018,5.89955 0.019,6.5541 0.032,17.7519 0,4.1052 0.012,7.74899 0.014,8.09665 l 10e-4,0.63201 0.19378,0.36793 c 0.32679,0.62015 0.79772,1.1557 1.38181,1.57199 0.99351,0.70774 1.03339,0.71374 4.92477,0.7147 1.32742,2.9e-4 3.09978,0.007 3.93827,0.0139 2.4891,0.0218 5.15816,0.0307 9.82316,0.031 2.42192,2.1e-4 4.97528,0.0104 5.6741,0.0233 0.69889,0.0129 3.15669,0.0254 5.46219,0.0284 2.3055,0.003 5.69761,0.0147 7.53753,0.0263 1.83994,0.0117 5.95609,0.0336 9.14672,0.0491 3.19064,0.0154 7.01998,0.0369 8.51059,0.048 3.07438,0.023 3.48237,-9.8e-4 3.99045,-0.2372 h 0.004 c 1.01219,-0.47014 2.15495,-1.68204 2.34561,-2.48769 0.0404,-0.171 0.0777,-2.38742 0.0817,-4.9258 0.0142,-8.09742 0.008,-17.79326 -0.014,-21.67877 -0.0116,-2.07235 -0.0228,-5.92053 -0.0258,-8.55194 -0.002,-2.63142 -0.008,-7.01389 -0.0124,-9.73841 -0.02,-13.76805 -0.0233,-26.62159 -0.01,-33.09774 l 0.01,-4.60282 -0.29353,-0.55759 c -0.52456,-0.99562 -1.77517,-2.04705 -2.61016,-2.19469 -0.44011,-0.0778 -2.16631,-0.0939 -12.87362,-0.11835 -1.25757,-0.003 -2.80088,-0.0116 -3.42977,-0.0186 -0.62889,-0.007 -2.38223,-0.0131 -3.89589,-0.0129 -2.81826,4e-4 -12.30346,-0.0289 -15.79387,-0.0486 -1.0713,-0.006 -3.5292,-0.0179 -5.46219,-0.0269 -1.93302,-0.009 -5.24873,-0.026 -7.36804,-0.0367 -1.05971,-0.005 -2.28518,-0.007 -3.40548,-0.006 z m -4.04987,0.50851 h 5e-4 c 2.647,-0.0141 12.9395,0.0446 23.6089,0.13848 2.11971,0.0184 8.02339,0.0648 13.1227,0.10284 5.09911,0.038 11.6717,0.0878 14.60482,0.11213 l 5.19141,0.0419 0.42426,0.22738 c 0.5733,0.30676 1.35493,1.10075 1.58388,1.56425 l 0.18706,0.38034 0.0114,4.60592 c 0.009,3.78237 -0.002,12.61599 -0.0196,20.7052 -0.0178,8.08921 -0.044,15.49411 -0.0615,16.23674 -0.0207,0.88426 -0.0393,7.87688 -0.0455,15.67759 -0.006,8.12716 -0.02,14.33267 -0.0408,18.55079 -0.0104,2.10907 -0.0233,3.72226 -0.0372,4.82814 -0.007,0.55293 -0.013,0.97914 -0.0207,1.27537 -0.004,0.14812 -0.009,0.26408 -0.0124,0.34364 -0.004,0.0796 -0.0173,0.15912 -0.003,0.0822 -0.0654,0.34512 -0.41899,0.9538 -0.9126,1.40147 -0.69162,0.62723 -1.19346,0.88093 -1.80607,0.971 -0.22447,0.033 -0.72694,0.0666 -1.15086,0.0796 -0.21196,0.007 -0.40868,0.009 -0.54517,0.006 -0.06,-10e-4 -0.10113,-0.005 -0.12661,-0.007 -0.005,-0.002 -0.0155,-0.004 -0.0155,-0.004 -5.3e-4,-1.3e-4 -0.048,-0.0105 -0.0605,-0.0124 -0.0249,-0.004 -0.0347,-0.005 -0.0449,-0.006 -0.0206,-0.002 -0.0348,-10e-4 -0.0506,-0.002 -0.0319,-0.002 -0.0696,-0.004 -0.11732,-0.005 -0.0954,-0.003 -0.23061,-0.006 -0.40256,-0.009 -0.34396,-0.006 -0.83511,-0.0117 -1.44127,-0.0181 -1.21227,-0.0127 -2.87813,-0.0255 -4.70667,-0.0362 -3.65498,-0.0216 -8.32527,-0.0541 -10.37302,-0.0713 -5.82636,-0.0488 -12.05632,-0.0927 -19.00711,-0.13229 -3.5156,-0.02 -9.1949,-0.0549 -12.61731,-0.078 l -6.09161,-0.0403 -0.4749,-0.22788 c -0.54531,-0.26202 -1.26918,-0.93972 -1.66037,-1.59629 l -0.21601,-0.36121 -0.0238,-17.41238 c -0.024,-16.53715 0.034,-44.23045 0.12351,-58.63775 l 0.0398,-6.30452 0.26768,-0.52917 c 0.4581,-0.90784 1.63348,-1.7616 2.32389,-1.83451 -0.04,0.004 0.045,-0.002 0.14832,-0.003 0.107,-9.8e-4 0.25781,-0.002 0.44752,-0.003 z m 6.42802,3.58066 c -0.47722,-0.008 -0.90958,0.0132 -0.96014,0.0465 -0.051,0.0333 -0.90718,1.05561 -1.90273,2.27222 -0.99552,1.21658 -2.44313,2.97825 -3.21635,3.91448 l -1.4092,1.70222 -0.016,0.91829 -0.016,0.91829 3.30264,0.003 3.30263,0.003 -0.0217,1.24127 -0.0217,1.24126 -0.66299,-0.0119 c -0.36476,-0.006 -0.67985,0.004 -0.69919,0.0232 -0.0164,0.0189 -0.0203,0.42148 -0.006,0.89506 l 0.0274,0.86093 1.94717,0.0165 c 1.96501,0.0177 2.57445,0.006 2.61742,-0.047 0.0133,-0.016 0.0134,-0.42 5e-4,-0.8976 l -0.0232,-0.8687 -0.709,-0.0124 -0.71004,-0.0129 0.0212,-1.2242 0.0217,-1.2237 0.69866,-0.0124 c 0.49525,-0.009 0.70064,-0.0431 0.69194,-0.11832 -0.004,-0.0583 -0.002,-0.46469 -0.004,-0.90281 v -0.79632 l -0.67593,0.0346 c -0.53335,0.0272 -0.68424,0.0101 -0.7116,-0.0837 -0.0323,-0.109 -0.0403,-5.41181 -0.0109,-7.12565 l 0.0124,-0.73898 z m -1.01234,3.03755 c 0.0176,0.0191 0.0415,1.1245 0.0522,2.45618 l 0.0196,2.42104 -1.09191,0.0362 c -0.60066,0.0201 -1.54009,0.0296 -2.08722,0.0201 -0.547,-0.009 -0.98711,-0.0457 -0.9865,-0.0806 0.004,-0.0349 0.84445,-1.05849 1.86706,-2.27481 1.02264,-1.21631 1.93429,-2.30195 2.02623,-2.41226 0.092,-0.11033 0.18183,-0.18499 0.20051,-0.16586 z m 38.66689,9.45006 -2.51923,0.0129 c -4.88511,0.0248 -10.26078,0.0364 -13.40072,0.0284 -1.74649,-0.005 -3.4998,0.004 -3.89588,0.0176 -0.39611,0.014 -2.64481,0.0167 -4.99661,0.007 -2.35177,-0.0102 -4.33263,-0.009 -4.40282,0.004 -0.0701,0.0122 -0.94266,0.0104 -1.93839,-0.003 l 5.3e-4,5.3e-4 -1.80973,-0.0253 -0.004,3.36619 c -0.002,1.85126 0.003,3.99492 0.0119,4.76353 0.009,0.76862 0.0144,2.61641 0.0124,4.10673 -0.002,1.49032 0.005,3.30044 0.0145,4.02249 0.0223,1.64745 0.0431,7.32393 0.0429,11.85614 3e-5,3.68011 0.0103,6.74785 0.0274,8.34109 0.008,0.7919 0.0111,2.85023 0.005,4.57335 -0.006,1.72313 -2.4e-4,3.57143 0.0124,4.10726 0.0126,0.53581 0.0221,2.32675 0.0212,3.9801 -5e-4,1.65333 0.008,3.23488 0.0196,3.51451 0.0121,0.27967 0.0185,0.9401 0.009,1.46762 l -0.0171,0.95912 1.41954,-0.0269 c 1.39528,-0.0264 3.50205,-0.031 17.169,-0.0387 3.77251,-0.002 7.58312,-0.0121 8.4682,-0.0222 0.88501,-0.01 2.295,-0.0102 3.13314,-5.2e-4 0.83815,0.0103 1.81735,0.004 2.17559,-0.014 l 0.65165,-0.0326 -0.0186,-1.11154 c -0.0176,-1.05894 -0.0391,-6.6476 -0.0444,-11.65511 -9.8e-4,-1.28079 -0.009,-2.95722 -0.0186,-3.72586 -0.009,-0.76861 -0.0147,-2.67369 -0.0114,-4.23386 0.003,-1.56017 -0.005,-3.23713 -0.0186,-3.72639 -0.0135,-0.48927 -0.0222,-2.22351 -0.0196,-3.8535 0.006,-3.32105 -0.0234,-13.82707 -0.045,-16.42846 -0.008,-0.93165 -0.009,-3.23707 -0.003,-5.1232 0.006,-1.88614 -2.6e-4,-3.67716 -0.0129,-3.98013 -0.0127,-0.30295 -0.025,-0.68008 -0.0222,-0.83817 z m -0.71107,0.38913 c 0.0751,-0.007 0.1473,-0.006 0.2031,0 l 10e-4,5e-4 c 0.0558,0.006 0.0951,0.0182 0.10491,0.0346 0.0195,0.033 0.0347,1.37491 0.0356,2.98173 6.8e-4,1.60681 0.008,3.58817 0.016,4.40335 0.008,0.81518 0.0143,2.62528 0.0139,4.02249 -4.7e-4,1.39721 0.005,3.26459 0.0124,4.14962 0.0148,1.81626 0.0221,4.7262 0.0217,8.46822 5e-4,1.39722 0.004,3.37916 0.008,4.40386 0.005,1.02471 0.0105,2.87248 0.0129,4.10673 0.007,3.20638 0.0169,6.04303 0.0279,8.0455 0.006,0.95486 0.009,3.18344 0.007,4.95319 -0.002,1.76977 0.006,3.27551 0.0176,3.34552 0.0117,0.07 0.0144,1.28956 0.007,2.70992 l -0.014,2.58228 -1.60919,0.0248 c -0.88509,0.0134 -2.96291,0.0253 -4.61627,0.0263 -1.65338,10e-4 -4.93016,0.005 -7.28223,0.01 -2.35212,0.004 -6.33404,0.0103 -8.84907,0.0129 -2.51505,0.003 -5.75828,0.009 -7.20733,0.0134 l -2.63496,0.009 0.004,-3.41993 c 0.002,-1.88116 -0.005,-3.91554 -0.016,-4.52117 -0.0104,-0.60566 -0.0183,-2.359 -0.0165,-3.89589 10e-4,-1.53691 -0.004,-4.49021 -0.0113,-6.56291 -0.0199,-5.44015 -0.0327,-10.20958 -0.0455,-16.80982 -0.004,-2.28219 -0.0132,-4.96874 -0.0196,-5.97019 -0.0214,-3.39551 -0.0277,-5.70839 -0.0207,-8.68008 h -0.003 c 0.004,-1.63002 -0.007,-3.27531 -0.0243,-3.65612 -0.0294,-0.65095 0.0317,-0.87098 0.20982,-0.75655 0.0352,0.0226 1.60668,0.036 3.49228,0.0295 1.88569,-0.006 4.78129,-0.0102 6.43475,-0.009 1.65333,9.8e-4 3.38696,-0.008 3.85299,-0.0207 0.46599,-0.0128 2.4479,-0.0158 4.40386,-0.007 1.95596,0.009 3.95642,0.006 4.44574,-0.008 0.48919,-0.0131 2.66153,-0.0158 4.82709,-0.007 2.16545,0.01 4.05982,0.006 4.21007,-0.009 z m -5.749,3.16412 c -1.40898,-0.0246 -2.24969,1.31919 -1.65777,2.65102 0.10755,0.24186 0.31234,0.52957 0.45474,0.63871 0.16642,0.12745 0.2286,0.22709 0.17571,0.27855 -0.0533,0.0515 -0.12623,0.0434 -0.20309,-0.0228 -0.18997,-0.16336 -0.93745,-0.23072 -1.35393,-0.12195 -0.46117,0.12044 -0.94332,0.49199 -1.1684,0.90072 h 0.003 c -0.18997,0.34531 -0.24546,1.12252 -0.10748,1.50895 0.22188,0.62105 0.99288,1.14138 1.71048,1.15392 0.81055,0.0142 1.58708,-0.5507 1.71773,-1.24952 0.0606,-0.32406 0.21574,-0.45445 0.21085,-0.17364 -0.0227,0.79195 -0.46504,2.31883 -0.87644,3.02566 l -0.22325,0.38294 0.45889,-0.0589 c 0.51141,-0.0653 1.51426,-0.0405 1.88463,0.046 0.13277,0.0311 0.22656,0.0236 0.20825,-0.0165 -0.0183,-0.0402 -0.18756,-0.39973 -0.37618,-0.79891 -0.38415,-0.81296 -0.66035,-1.87378 -0.65011,-2.45927 l 0.007,-0.38862 0.15192,0.46767 c 0.27469,0.84344 0.96578,1.27241 1.91823,1.19166 1.57628,-0.13372 2.16728,-2.11661 0.94258,-3.16259 -0.4609,-0.39365 -1.08593,-0.52284 -1.74924,-0.36174 -0.28559,0.0694 -0.53369,0.1116 -0.55139,0.0935 -0.0178,-0.018 0.10729,-0.1829 0.27905,-0.36639 0.40095,-0.4285 0.57947,-0.84106 0.5886,-1.36322 0.017,-0.97689 -0.78306,-1.77755 -1.79422,-1.79525 z m -19.8856,0.006 c -0.0658,4.5e-4 -0.13216,0.005 -0.19947,0.0124 -1.58837,0.18947 -2.19787,1.9785 -1.08006,3.17138 0.3637,0.38814 0.36539,0.49688 0.005,0.35295 -1.09731,-0.43757 -2.20821,0.0784 -2.59469,1.2056 l 0.002,5.3e-4 c -0.0862,0.25138 -0.0344,0.97359 0.0878,1.22317 0.13444,0.27458 0.58023,0.73662 0.85887,0.89037 0.36861,0.20339 1.18596,0.19617 1.60919,-0.0139 0.4749,-0.23561 0.72724,-0.52194 0.91676,-1.04077 l 0.16227,-0.44442 -0.008,0.46509 c -0.009,0.6368 -0.30556,1.73876 -0.67643,2.50579 -0.16947,0.3506 -0.29805,0.64738 -0.28628,0.65939 0.0118,0.012 0.23143,-0.0137 0.48834,-0.0568 0.25689,-0.0428 0.80016,-0.0518 1.20716,-0.0191 0.40701,0.0326 0.7397,0.0445 0.73999,0.0269 3.2e-4,-0.0176 -0.0709,-0.15864 -0.15811,-0.31419 -0.4114,-0.73038 -0.89459,-2.40228 -0.88316,-3.05562 0.005,-0.28673 0.13391,-0.16973 0.22739,0.20566 0.22979,0.92345 1.1599,1.43206 2.1337,1.16737 0.73319,-0.19934 1.35723,-0.9498 1.36943,-1.64746 0.0128,-0.70363 -0.39298,-1.3816 -1.01338,-1.6955 -0.43651,-0.22077 -1.18867,-0.2559 -1.63864,-0.077 -0.16992,0.0675 -0.32676,0.10377 -0.34936,0.0806 -0.0223,-0.0231 0.10472,-0.19648 0.28215,-0.38603 0.41678,-0.44543 0.566,-0.8032 0.57568,-1.35649 0.0129,-0.98079 -0.68556,-1.75771 -1.58181,-1.85055 h -0.001 c -0.064,-0.007 -0.12904,-0.01 -0.19481,-0.009 z m -13.96505,1.03352 c -0.36153,0.0109 -0.73274,0.10236 -1.09451,0.27699 -1.52712,0.73718 -1.73759,2.89568 -0.4005,4.10723 0.23091,0.20915 0.38611,0.40032 0.3447,0.42479 -0.0412,0.0244 -0.28215,-0.031 -0.53538,-0.12351 -0.95494,-0.3484 -1.91029,-0.1837 -2.6479,0.4558 -0.45508,0.3946 -0.63169,0.66442 -0.75705,1.15806 l 5.3e-4,-5.1e-4 c -0.40053,1.57684 0.69088,3.0149 2.30992,3.04321 1.18985,0.0208 2.16585,-0.72972 2.36005,-1.81538 0.0905,-0.50549 0.21985,-0.44373 0.21035,0.10025 -0.0172,0.97885 -0.47398,2.59498 -1.04802,3.70829 -0.16457,0.3188 -0.28323,0.59606 -0.26458,0.61548 0.0187,0.0195 0.20045,-0.006 0.40412,-0.0579 0.43998,-0.11018 2.20102,-0.0831 2.59001,0.0403 0.15388,0.0488 0.27472,0.0541 0.27543,0.0119 7.2e-4,-0.0412 -0.11422,-0.27861 -0.25527,-0.52761 -0.52332,-0.92392 -0.98512,-2.27346 -1.07228,-3.1347 -0.0261,-0.25662 -0.0659,-0.60995 -0.0879,-0.78497 -0.0318,-0.24479 -0.0128,-0.31742 0.0832,-0.31572 0.0827,9.7e-4 0.14211,0.12972 0.17571,0.38187 0.0728,0.5516 0.48657,1.13138 1.03764,1.45314 0.41997,0.24532 0.52911,0.27001 1.2232,0.28215 0.67609,0.0117 0.80589,-0.0116 1.15599,-0.20928 0.80872,-0.45657 1.27971,-1.19449 1.2945,-2.04071 0.0209,-0.98983 -0.39656,-1.73603 -1.23817,-2.21329 -0.57182,-0.32432 -1.51368,-0.41989 -2.10479,-0.21291 -0.84304,0.29525 -0.87082,0.2585 -0.25889,-0.35451 1.06328,-1.06524 1.03634,-2.65981 -0.062,-3.66128 -0.46027,-0.41963 -1.03561,-0.62532 -1.63814,-0.60719 z m 49.43678,33.9907 c -0.0162,-0.016 -0.19949,0.008 -0.40825,0.0558 -0.45381,0.10139 -2.11325,0.10022 -2.55953,-0.002 -0.38941,-0.0891 -0.3969,-0.0294 -0.0672,0.52813 0.58266,0.98515 1.12903,2.84356 1.11207,3.8127 -0.007,0.5389 -0.13764,0.5838 -0.20566,0.0708 -0.12859,-0.97357 -1.08924,-1.78065 -2.15803,-1.81333 -0.99882,-0.0306 -1.8593,0.4744 -2.32129,1.36221 h -5.3e-4 c -0.32406,0.62307 -0.32792,1.35901 -0.0119,2.05931 0.24514,0.54247 0.55155,0.86518 1.12395,1.18337 0.46389,0.25781 1.71667,0.29874 2.1544,0.0703 0.15705,-0.082 0.3434,-0.12557 0.41394,-0.0971 0.0979,0.0396 0.0428,0.13031 -0.23514,0.39068 -0.55009,0.51546 -0.82253,1.14766 -0.83611,1.92442 -0.008,0.51962 0.0297,0.71319 0.20619,1.06559 0.6177,1.23348 2.01682,1.7568 3.19151,1.19372 1.64566,-0.78878 1.91699,-2.79212 0.56071,-4.13877 -0.23868,-0.23702 -0.41251,-0.45099 -0.38706,-0.47594 0.0257,-0.0249 0.27747,0.0371 0.55914,0.13745 1.27667,0.45506 2.56839,-0.008 3.15381,-1.13014 0.62958,-1.20676 0.20074,-2.6539 -0.97721,-3.29594 -0.90829,-0.49501 -2.28928,-0.25741 -2.94246,0.50591 -0.14478,0.1692 -0.32774,0.51573 -0.40719,0.7705 -0.22588,0.72726 -0.24937,0.74654 -0.26924,0.22375 -0.0352,-0.93831 0.45085,-2.68446 1.08055,-3.88038 0.14253,-0.27 0.2462,-0.50471 0.23048,-0.52088 z m -16.67444,4.0323 c -0.0277,-7.1e-4 -0.0458,10e-4 -0.0512,0.006 -0.0209,0.0199 0.0776,0.27551 0.21913,0.5679 0.38968,0.80513 0.56608,1.33631 0.69813,2.10532 0.13616,0.79314 0.14314,0.93493 0.0481,0.93326 -0.0369,-6.3e-4 -0.11073,-0.18153 -0.1659,-0.40153 -0.17277,-0.69429 -0.87722,-1.22528 -1.6433,-1.23867 -0.6831,-0.0117 -1.39197,0.42018 -1.67846,1.02266 v 5.3e-4 c -0.42987,0.90419 -0.0433,2.00779 0.85577,2.44327 0.41264,0.19987 1.1734,0.22821 1.59681,0.0599 0.26157,-0.10377 0.30922,-0.10422 0.30747,-0.004 -10e-4,0.0655 -0.057,0.13907 -0.12351,0.1633 -0.17404,0.0633 -0.57626,0.75348 -0.67437,1.15859 -0.19648,0.80819 0.43974,1.8956 1.24437,2.12595 0.80568,0.23066 1.64488,-0.0761 2.08512,-0.76221 0.22527,-0.35026 0.26647,-0.49641 0.27443,-0.96893 0.008,-0.45329 -0.0322,-0.63053 -0.215,-0.95499 -0.12351,-0.2191 -0.32843,-0.47675 -0.45527,-0.57258 -0.28564,-0.21582 -0.19539,-0.33142 0.14367,-0.18397 0.30327,0.13142 1.07064,0.14658 1.40147,0.0274 0.75629,-0.27247 1.30995,-1.10432 1.23404,-1.85465 -0.13832,-1.37298 -1.56408,-2.11715 -2.76108,-1.44074 -0.41989,0.23728 -0.56534,0.42498 -0.78031,1.01026 l -0.15399,0.42066 0.0491,-0.71882 c 0.0538,-0.78774 0.29631,-1.62721 0.69144,-2.39263 0.13941,-0.27077 0.24238,-0.50448 0.22788,-0.52244 -0.0153,-0.0159 -0.35404,0.009 -0.75239,0.0548 -0.52414,0.0608 -0.85019,0.0571 -1.17978,-0.0145 -0.18785,-0.0407 -0.35925,-0.0671 -0.44236,-0.0692 z m -17.43768,0.0238 c -0.0132,-0.0139 -0.19552,0.0112 -0.40463,0.0558 -0.20912,0.0449 -0.77062,0.0578 -1.24748,0.0294 -0.47688,-0.0282 -0.86685,-0.0372 -0.86712,-0.0207 -3.2e-4,0.0166 0.0862,0.17323 0.19222,0.34883 0.43185,0.71541 0.86736,2.19062 0.84542,2.87113 -0.009,0.31459 -0.0171,0.32363 -0.0946,0.12557 -0.046,-0.11724 -0.13282,-0.33436 -0.19222,-0.48213 -0.1433,-0.35531 -0.61716,-0.72019 -1.11569,-0.85886 -0.98679,-0.27445 -1.97403,0.30247 -2.23914,1.30791 h 5e-4 c -0.0877,0.33235 -0.0295,0.86464 0.13126,1.20097 0.40367,0.84487 1.37967,1.26016 2.29703,0.97772 0.24143,-0.0743 0.4613,-0.11242 0.48781,-0.0847 0.0266,0.0276 -0.0713,0.15587 -0.21756,0.28475 -0.36103,0.31832 -0.55015,0.69633 -0.61442,1.22473 -0.0657,0.54321 0.0595,0.97927 0.39635,1.37665 1.10183,1.30019 3.18645,0.54623 3.21635,-1.16374 0.009,-0.50303 -0.31107,-1.21923 -0.65992,-1.47693 -0.32356,-0.23903 -0.23691,-0.34605 0.15917,-0.19688 1.82692,0.68816 3.41958,-1.50307 2.12183,-2.9192 -0.95629,-1.04354 -2.8144,-0.6368 -3.04631,0.66715 -0.0316,0.17777 -0.0956,0.32274 -0.1416,0.32194 -0.053,-9.5e-4 -0.0577,-0.24077 -0.0134,-0.6563 0.0766,-0.71239 0.47525,-1.95215 0.81598,-2.53886 0.11766,-0.20294 0.20391,-0.38044 0.19018,-0.39428 z m 30.03587,10.9683 c -1.22256,-0.002 -2.26062,0.007 -2.30785,0.0207 -0.0483,0.0146 -0.0803,0.35983 -0.0734,0.88209 l 0.0119,0.85784 0.71416,0.0129 0.71417,0.0129 -0.0222,1.26968 -0.0222,1.26968 -0.67747,-0.0114 -0.67749,-0.0119 -0.0155,0.88882 -0.0155,0.88884 0.67233,0.0119 c 0.36973,0.006 0.68858,0.0402 0.70795,0.0755 0.0194,0.0353 0.0389,1.28354 0.0429,2.77399 0.003,1.4904 0.0202,3.25358 0.0377,3.91758 l 0.031,1.20716 0.47543,0.007 c 0.99497,0.0158 1.30694,-0.056 1.54099,-0.35552 0.21167,-0.27088 1.27966,-1.57967 4.16459,-5.10202 0.79471,-0.97033 1.5883,-1.9567 1.76374,-2.19212 l 0.31936,-0.42789 -0.0186,-0.82579 -0.0186,-0.82576 -3.22308,-0.029 -3.22305,-0.0289 -0.0475,-0.32454 c -0.0259,-0.17846 -0.0402,-0.75311 -0.0315,-1.27691 l 0.016,-0.95239 0.67697,0.0113 0.67746,0.0119 0.0155,-0.87644 0.015,-0.87643 z m 0.82063,6.05081 2.10013,0.0367 c 1.99203,0.0348 2.09381,0.0439 1.97147,0.18243 -0.071,0.0802 -0.97348,1.16829 -2.00557,2.41742 -1.03198,1.24918 -1.91408,2.29306 -1.95958,2.32029 -0.0515,0.0308 -0.0777,-0.27937 -0.0687,-0.8227 h 5.1e-4 c 0.007,-0.48 0.002,-1.60641 -0.0119,-2.50322 z" />
  </g>
</svg>
