<?xml version="1.0" encoding="UTF-8" standalone="no"?>
<svg
   sodipodi:docname="4H.svg"
   id="svg8"
   version="1.1"
   viewBox="0 0 63.382515 88.206497"
   height="88.206497mm"
   width="63.382515mm"
   inkscape:version="1.1.1 (1:1.1+202109281949+c3084ef5ed)"
   inkscape:export-filename="/home/doug/k40/52Cards/4H.png"
   inkscape:export-xdpi="96"
   inkscape:export-ydpi="96"
   xmlns:inkscape="http://www.inkscape.org/namespaces/inkscape"
   xmlns:sodipodi="http://sodipodi.sourceforge.net/DTD/sodipodi-0.dtd"
   xmlns="http://www.w3.org/2000/svg"
   xmlns:svg="http://www.w3.org/2000/svg"
   xmlns:rdf="http://www.w3.org/1999/02/22-rdf-syntax-ns#"
   xmlns:cc="http://creativecommons.org/ns#"
   xmlns:dc="http://purl.org/dc/elements/1.1/">
  <defs
     id="defs2">
    <marker
       style="overflow:visible"
       id="marker2995"
       refX="0"
       refY="0"
       orient="auto"
       inkscape:stockid="Arrow1Lstart"
       inkscape:isstock="true">
      <path
         transform="matrix(0.8,0,0,0.8,10,0)"
         style="fill:#000000;fill-opacity:1;fill-rule:evenodd;stroke:#000000;stroke-width:1pt;stroke-opacity:1"
         d="M 0,0 5,-5 -12.5,0 5,5 Z"
         id="path2993" />
    </marker>
    <marker
       style="overflow:visible"
       id="marker2985"
       refX="0"
       refY="0"
       orient="auto"
       inkscape:stockid="Arrow1Lstart"
       inkscape:isstock="true">
      <path
         transform="matrix(0.8,0,0,0.8,10,0)"
         style="fill:#000000;fill-opacity:1;fill-rule:evenodd;stroke:#000000;stroke-width:1pt;stroke-opacity:1"
         d="M 0,0 5,-5 -12.5,0 5,5 Z"
         id="path2983" />
    </marker>
    <marker
       style="overflow:visible"
       id="marker2791"
       refX="0"
       refY="0"
       orient="auto"
       inkscape:stockid="Arrow1Lstart"
       inkscape:isstock="true">
      <path
         transform="matrix(0.8,0,0,0.8,10,0)"
         style="fill:#000000;fill-opacity:1;fill-rule:evenodd;stroke:#000000;stroke-width:1pt;stroke-opacity:1"
         d="M 0,0 5,-5 -12.5,0 5,5 Z"
         id="path2789" />
    </marker>
    <marker
       style="overflow:visible"
       id="marker2781"
       refX="0"
       refY="0"
       orient="auto"
       inkscape:stockid="Arrow1Lstart"
       inkscape:isstock="true">
      <path
         transform="matrix(0.8,0,0,0.8,10,0)"
         style="fill:#000000;fill-opacity:1;fill-rule:evenodd;stroke:#000000;stroke-width:1pt;stroke-opacity:1"
         d="M 0,0 5,-5 -12.5,0 5,5 Z"
         id="path2779" />
    </marker>
    <marker
       style="overflow:visible"
       id="marker2417"
       refX="0"
       refY="0"
       orient="auto"
       inkscape:stockid="Arrow1Lstart"
       inkscape:isstock="true">
      <path
         transform="matrix(0.8,0,0,0.8,10,0)"
         style="fill:#000000;fill-opacity:1;fill-rule:evenodd;stroke:#000000;stroke-width:1pt;stroke-opacity:1"
         d="M 0,0 5,-5 -12.5,0 5,5 Z"
         id="path2415" />
    </marker>
    <marker
       style="overflow:visible"
       id="marker2383"
       refX="0"
       refY="0"
       orient="auto"
       inkscape:stockid="Arrow1Lstart"
       inkscape:isstock="true">
      <path
         transform="matrix(0.8,0,0,0.8,10,0)"
         style="fill:#000000;fill-opacity:1;fill-rule:evenodd;stroke:#000000;stroke-width:1pt;stroke-opacity:1"
         d="M 0,0 5,-5 -12.5,0 5,5 Z"
         id="path2381" />
    </marker>
    <marker
       style="overflow:visible"
       id="marker2355"
       refX="0"
       refY="0"
       orient="auto"
       inkscape:stockid="Arrow1Lstart"
       inkscape:isstock="true">
      <path
         transform="matrix(0.8,0,0,0.8,10,0)"
         style="fill:#000000;fill-opacity:1;fill-rule:evenodd;stroke:#000000;stroke-width:1pt;stroke-opacity:1"
         d="M 0,0 5,-5 -12.5,0 5,5 Z"
         id="path2353" />
    </marker>
    <marker
       style="overflow:visible"
       id="Arrow1Lstart"
       refX="0"
       refY="0"
       orient="auto"
       inkscape:stockid="Arrow1Lstart"
       inkscape:isstock="true">
      <path
         transform="matrix(0.8,0,0,0.8,10,0)"
         style="fill:#000000;fill-opacity:1;fill-rule:evenodd;stroke:#000000;stroke-width:1pt;stroke-opacity:1"
         d="M 0,0 5,-5 -12.5,0 5,5 Z"
         id="path2071" />
    </marker>
  </defs>
  <sodipodi:namedview
     id="base"
     pagecolor="#ffffff"
     bordercolor="#666666"
     borderopacity="1.0"
     inkscape:pageopacity="0.0"
     inkscape:pageshadow="2"
     inkscape:zoom="1.5057942"
     inkscape:cx="86.66523"
     inkscape:cy="167.0215"
     inkscape:document-units="mm"
     inkscape:current-layer="layer1"
     inkscape:document-rotation="0"
     showgrid="false"
     inkscape:snap-smooth-nodes="false"
     inkscape:object-nodes="false"
     inkscape:window-width="1366"
     inkscape:window-height="712"
     inkscape:window-x="0"
     inkscape:window-y="0"
     inkscape:window-maximized="1"
     inkscape:object-paths="false"
     inkscape:snap-intersection-paths="false"
     inkscape:snap-midpoints="false"
     inkscape:snap-others="false"
     inkscape:pagecheckerboard="0"
     showguides="true"
     inkscape:guide-bbox="true"
     inkscape:snap-bbox="true"
     showborder="false"
     fit-margin-top="0"
     fit-margin-left="0"
     fit-margin-right="0"
     fit-margin-bottom="0" />
  <metadata
     id="metadata5">
    <rdf:RDF>
      <cc:Work
         rdf:about="">
        <dc:format>image/svg+xml</dc:format>
        <dc:type
           rdf:resource="http://purl.org/dc/dcmitype/StillImage" />
      </cc:Work>
    </rdf:RDF>
  </metadata>
  <g
     inkscape:label="Layer 1"
     inkscape:groupmode="layer"
     id="layer1"
     transform="translate(488.11616,353.56593)">
    <path
       id="path1965-7"
       style="fill:#000000;fill-opacity:1;stroke:none;stroke-width:0.265;stroke-miterlimit:4;stroke-dasharray:none;stroke-opacity:1"
       d="m -483.66062,-353.56593 c -1.23352,2.6e-4 -1.81702,0.11323 -2.34042,0.42271 -0.88767,0.52483 -1.66531,1.39311 -1.9482,2.17507 l -0.16692,0.46043 0.002,4.21938 c 0.003,6.69695 0.0289,14.50874 0.0765,23.14278 0.0673,12.21536 0.0987,18.93919 0.19741,42.12197 0.0178,4.19106 0.0396,8.8204 0.0496,10.28723 l 0.0171,2.66702 0.19689,0.39894 c 0.44967,0.9102 1.46774,1.79607 2.4169,2.10323 l 0.64234,0.20774 3.42356,-0.031 c 1.88261,-0.0179 4.14684,-0.0233 5.03174,-0.0129 0.88494,0.011 4.04712,0.0132 7.02748,0.006 2.98037,-0.007 6.98155,-0.0113 8.89093,-0.009 8.52535,0.009 10.9022,0.0102 15.83366,0.007 2.88727,-0.002 7.38323,-0.003 9.99112,-0.002 2.6079,6.1e-4 5.19851,-0.005 5.75727,-0.0114 l 1.01596,-0.0114 0.46302,-0.23565 c 1.00198,-0.50969 1.97536,-1.51457 2.21174,-2.28358 l 0.11989,-0.38861 0.0145,-3.00601 c 0.008,-1.6533 -10e-4,-6.24481 -0.0212,-10.203 -0.0197,-3.95818 -0.0451,-9.80674 -0.0568,-12.99662 -0.0397,-10.79409 -0.0819,-19.14063 -0.14779,-29.25196 -0.0361,-5.54136 -0.0597,-11.14226 -0.0527,-12.44627 0.008,-1.30402 0.008,-5.07607 10e-4,-8.38243 l -0.0129,-6.01204 -0.3266,-0.63097 c -0.41321,-0.79815 -1.28043,-1.67616 -1.95025,-1.97404 -0.25875,-0.11506 -0.69227,-0.24 -0.96326,-0.2775 -0.27096,-0.0375 -3.36949,-0.0595 -6.88537,-0.0486 -3.51587,0.0107 -7.82097,0.0169 -9.56737,0.0129 -1.74639,-0.004 -5.09948,-0.006 -7.45122,-0.004 -3.98879,0.004 -6.14285,0.004 -15.41043,-0.001 -1.97921,-9e-4 -5.96081,0.004 -8.84804,0.0114 -2.88723,0.007 -5.88405,-3.3e-4 -6.66006,-0.0165 -0.20437,-0.005 -0.39437,-0.007 -0.57051,-0.007 z m 8.04809,0.62012 c 4.23777,-0.006 9.47816,-0.006 14.81305,0.002 2.11976,0.003 8.02373,0.007 13.12323,0.008 5.09925,10e-4 11.67209,0.003 14.60531,0.006 l 5.19142,0.004 0.42581,0.22427 c 0.57552,0.30258 1.36345,1.09106 1.59576,1.55288 l 0.18914,0.37879 0.045,4.6054 c 0.0366,3.78221 0.0902,12.61607 0.13125,20.7052 0.041,8.08913 0.0684,15.49351 0.0563,16.23621 -0.0143,0.88441 0.0177,7.87759 0.0682,15.67812 0.0526,8.12699 0.0842,14.33262 0.094,18.5508 0.005,2.10909 0.004,3.7222 -0.002,4.82813 -0.003,0.55297 -0.006,0.97911 -0.0119,1.27538 -0.003,0.14813 -0.006,0.26405 -0.009,0.34365 -0.003,0.0796 -0.0161,0.15926 -0.002,0.0822 -0.0629,0.34561 -0.41193,0.95695 -0.90226,1.40818 -0.68704,0.63225 -1.18693,0.88942 -1.79886,0.98392 -0.22423,0.0346 -0.72649,0.0723 -1.15032,0.0884 -0.21191,0.008 -0.40865,0.0114 -0.54518,0.009 -0.06,-9.3e-4 -0.10166,-0.004 -0.12713,-0.006 -0.005,-0.002 -0.0154,-0.004 -0.0155,-0.004 -5.2e-4,-1.3e-4 -0.048,-0.01 -0.0605,-0.0119 -0.025,-0.004 -0.0347,-0.005 -0.045,-0.006 -0.0206,-0.002 -0.0347,-0.001 -0.0506,-0.002 -0.0319,-10e-4 -0.0696,-0.003 -0.1173,-0.004 -0.0954,-0.002 -0.23058,-0.004 -0.40256,-0.006 -0.34397,-0.003 -0.83508,-0.006 -1.44126,-0.008 -1.21235,-0.004 -2.87865,-0.005 -4.7072,-0.002 -3.65506,0.005 -8.32518,0.006 -10.37301,0.004 -5.82652,-0.007 -12.05674,-0.005 -19.00763,0.006 -3.51563,0.005 -9.19493,0.0118 -12.61731,0.0134 l -6.09162,0.004 -0.47646,-0.22479 c -0.54721,-0.25805 -1.27635,-0.93017 -1.67225,-1.58388 l -0.21859,-0.35915 -0.15038,-17.41238 c -0.14371,-16.53655 -0.28767,-44.22916 -0.30282,-58.63673 l -0.006,-6.30452 0.26355,-0.53123 c 0.45152,-0.91115 1.62055,-1.77362 2.31045,-1.85157 -0.0397,0.004 0.0459,-0.002 0.14883,-0.004 0.10694,-0.002 0.25728,-0.003 0.447,-0.006 1.32342,-0.0166 4.5586,-0.029 8.79636,-0.0351 z m -1.23765,3.48247 c -0.10372,0.002 -0.21244,0.007 -0.31988,0.0145 l -0.78134,0.0538 -0.56379,0.68316 c -0.3101,0.37593 -0.7892,0.95153 -1.06505,1.27951 -0.48832,0.58061 -0.86108,1.03551 -2.27067,2.76934 -0.3756,0.462 -1.11802,1.37231 -1.65002,2.02313 l -0.96791,1.18339 0.0103,0.8754 c 0.006,0.5132 0.0459,0.8979 0.0977,0.92914 0.0486,0.0293 1.46837,0.0568 3.15485,0.0615 1.68644,0.005 3.11519,0.0233 3.175,0.0413 l 0.10852,0.0331 -0.0114,1.12396 -0.0114,1.12345 -0.63201,0.032 c -0.37319,0.019 -0.65723,0.0743 -0.69349,0.13436 -0.095,0.15763 -0.0544,1.6072 0.0486,1.72857 l 0.0915,0.10801 2.26601,-0.0248 2.26549,-0.0248 0.0491,-0.19119 c 0.0896,-0.34932 0.0416,-1.54873 -0.0661,-1.65417 -0.0611,-0.0598 -0.35382,-0.0981 -0.72347,-0.094 l -0.62012,0.007 0.0103,-1.16375 0.0114,-1.16427 0.61444,-0.0119 c 0.33783,-0.007 0.65326,-0.0512 0.70073,-0.0997 0.0515,-0.0527 0.072,-0.44331 0.0517,-0.96945 l -0.0341,-0.88108 -0.67696,-0.0351 -0.67799,-0.0351 -0.0109,-3.8716 -0.0109,-3.8716 -0.20309,-0.0749 c -0.0838,-0.0309 -0.35394,-0.0438 -0.66508,-0.0362 z m -1.20458,3.37861 c 0.0159,-0.005 0.0276,-0.002 0.0357,0.006 0.0659,0.0649 0.0779,4.36008 0.0124,4.47156 -0.0633,0.10769 -3.75311,0.0559 -3.75429,-0.0527 -6.8e-4,-0.0622 0.68745,-0.91347 1.69809,-2.10065 0.23804,-0.2796 0.63463,-0.76035 0.88211,-1.06815 0.69691,-0.8668 1.0144,-1.22227 1.12603,-1.25522 z m 35.97817,9.23768 c -1.28578,5.6e-4 -3.05602,0.005 -5.00021,0.0119 -3.88839,0.0146 -8.25128,0.0209 -9.69502,0.014 -1.44372,-0.007 -5.65835,-0.004 -9.36583,0.006 l -6.74171,0.0186 0.016,6.42545 c 0.009,3.53402 0.0368,10.08324 0.0615,14.55363 0.0247,4.47039 0.0451,9.82307 0.0455,11.8954 4.7e-4,2.07234 0.0206,7.86926 0.045,12.88139 l 0.0444,9.11262 2.23449,0.0274 c 1.22898,0.0149 4.93969,0.0166 8.24601,0.004 8.74942,-0.0337 19.04794,-0.0589 19.06498,-0.047 h 5.2e-4 c 0.008,0.006 0.78008,0.013 1.71514,0.0165 l 1.70016,0.007 -0.0248,-2.56522 c -0.0134,-1.41068 -0.0175,-3.40301 -0.008,-4.42763 0.009,-1.02461 -0.01,-6.05376 -0.0403,-11.17607 -0.066,-10.94081 -0.0999,-19.66451 -0.0961,-24.68066 0.003,-3.96106 -0.0688,-12.03112 -0.10749,-12.068 -0.007,-0.006 -0.80815,-0.009 -2.09393,-0.009 z m -4.54391,0.31884 c 4.12443,0.002 6.20778,0.0196 6.26267,0.0527 0.0419,0.0252 0.0697,1.56773 0.0625,3.52743 -0.007,1.91542 0.0175,8.18776 0.0548,13.93869 0.0374,5.75091 0.0537,10.60925 0.0357,10.79572 -0.018,0.18648 0.006,6.07227 0.0527,13.08034 0.0473,7.00807 0.0683,12.77117 0.047,12.80645 -0.0376,0.0623 -5.63649,0.15558 -5.70766,0.0951 -0.0196,-0.0167 -3.35074,-0.0185 -7.40214,-0.004 -13.72337,0.0484 -18.88088,0.0536 -18.99625,0.0186 l -0.11524,-0.0351 -5.2e-4,-4.593 c -4.1e-4,-2.52601 -0.0249,-8.65019 -0.0543,-13.60951 -0.0294,-4.95933 -0.0491,-10.33107 -0.0439,-11.93777 0.005,-1.60671 -0.0198,-7.62707 -0.0553,-13.378 -0.0354,-5.75095 -0.0483,-10.50839 -0.0284,-10.57299 l 0.0367,-0.11783 7.34323,-0.0258 c 8.21854,-0.0291 14.384,-0.0428 18.50842,-0.0408 z m 2.46962,3.03495 c -0.45461,-0.02 -0.91932,0.14055 -1.27228,0.50126 -0.18214,0.18615 -0.35385,0.4123 -0.38137,0.5023 -0.0623,0.20405 -0.19604,0.21271 -0.26717,0.0176 -0.23058,-0.63249 -0.9538,-1.03636 -1.64434,-1.01753 h -5.2e-4 c -0.23018,0.007 -0.45657,0.0595 -0.65991,0.16692 -1.00826,0.5326 -1.27087,1.56597 -0.77514,3.05357 0.23344,0.70053 1.03865,2.32995 1.62781,3.29541 0.15526,0.25445 0.50565,0.84161 0.77928,1.30431 0.27361,0.46271 0.5514,0.92636 0.61701,1.03043 0.179,0.28358 0.301,0.22926 0.58653,-0.262 0.14246,-0.24513 0.56463,-0.96353 0.93845,-1.59629 1.45303,-2.45963 2.09589,-4.00629 2.10219,-5.06067 l 0.004,-0.59273 -0.20722,-0.40979 c -0.29465,-0.58249 -0.86296,-0.90701 -1.44746,-0.93276 z m -21.08502,0.0269 c -0.42348,0.004 -0.83149,0.17081 -1.11828,0.49815 -0.15401,0.1758 -0.3371,0.41003 -0.40721,0.52039 l -0.12764,0.19998 -0.27595,-0.43304 c -0.1983,-0.31131 -0.37805,-0.47834 -0.63872,-0.59324 -0.73676,-0.32481 -1.6874,-0.11635 -2.12132,0.4656 -0.26283,0.35246 -0.46806,0.92593 -0.46405,1.29449 0.005,0.50385 0.36449,1.60726 0.83199,2.55747 0.41016,0.8336 1.85347,3.35791 2.43344,4.25504 0.11406,0.17644 0.25063,0.30632 0.30282,0.28835 0.1282,-0.0443 2.13941,-3.49539 2.59519,-4.45295 0.97297,-2.04414 1.03733,-3.35954 0.20206,-4.12586 -0.34985,-0.32095 -0.78884,-0.47864 -1.21233,-0.47438 z m -16.50287,1.04179 c -0.20947,0.008 -0.42715,0.0459 -0.65009,0.11266 l -0.49712,0.14935 -0.46303,0.4842 -0.46354,0.48525 -0.15141,0.49971 -0.15089,0.50023 0.0584,0.60823 c 0.10622,1.11257 0.96258,3.14477 2.29133,5.43946 0.60653,1.04747 1.91417,3.23669 2.14871,3.59668 0.18345,0.2816 0.34875,0.22838 0.5488,-0.1757 0.0985,-0.19898 0.65512,-1.17198 1.23714,-2.16214 1.75587,-2.98702 2.64556,-4.9408 2.89129,-6.35052 0.24942,-1.43075 -0.38807,-2.70035 -1.54667,-3.08043 -0.39762,-0.13049 -1.22543,-0.10994 -1.572,0.0393 -0.43162,0.18592 -1.02007,0.78388 -1.18959,1.20923 -0.0828,0.20758 -0.17142,0.37799 -0.1974,0.37828 -0.026,4.5e-4 -0.1144,-0.14614 -0.19586,-0.32556 -0.43064,-0.94797 -1.19036,-1.44581 -2.09806,-1.40818 z m 48.52417,34.04134 c -0.12829,0.001 -2.38275,3.8192 -3.21996,5.4529 -1.47013,2.86872 -1.69153,4.73276 -0.69349,5.84202 0.43886,0.48778 0.90417,0.72481 1.5167,0.77308 0.94481,0.0745 1.69807,-0.34865 2.1456,-1.2051 0.14034,-0.26859 0.27738,-0.48874 0.30438,-0.48989 0.027,-10e-4 0.1397,0.18673 0.25063,0.41703 0.35481,0.73652 0.87835,1.14108 1.6154,1.24902 1.14176,0.16723 2.23482,-0.48784 2.57194,-1.54099 l 0.14314,-0.44804 -0.046,-0.77411 c -0.0942,-1.57844 -0.91362,-3.32712 -3.83387,-8.18348 -0.36167,-0.60147 -0.70117,-1.09302 -0.75448,-1.09244 z m -33.48529,4.02869 -0.11782,0.11989 c -0.0646,0.066 -0.40189,0.59782 -0.74983,1.18184 -2.26466,3.80119 -2.87181,5.42545 -2.46755,6.5996 0.1569,0.45575 0.62924,0.97008 1.02216,1.11311 0.31475,0.11458 1.1214,0.10281 1.35392,-0.0196 0.27342,-0.14426 0.64427,-0.5164 0.77928,-0.78186 0.14092,-0.27715 0.25193,-0.29968 0.32866,-0.0667 0.0966,0.29328 0.49534,0.69009 0.85215,0.84749 0.67618,0.2983 1.43572,0.14118 1.94872,-0.40308 0.6281,-0.66641 0.69243,-1.46394 0.22634,-2.80809 -0.16538,-0.47684 -0.46328,-1.1833 -0.66198,-1.56993 -0.35974,-0.69999 -1.66017,-2.90333 -2.22001,-3.76153 z m 20.9119,0.0625 c -0.0848,-0.016 -0.48225,0.58584 -1.21026,1.83348 -2.28363,3.91366 -2.7018,5.47565 -1.75493,6.55774 0.34442,0.39366 0.5473,0.51692 0.96634,0.58963 0.70143,0.1217 1.42272,-0.19274 1.76992,-0.77205 0.11435,-0.19079 0.23525,-0.34818 0.26924,-0.34984 0.034,-10e-4 0.13963,0.14526 0.23461,0.32659 0.49347,0.94182 1.85803,1.11265 2.66082,0.33331 0.74997,-0.72808 0.7556,-1.72568 0.0202,-3.50263 -0.55573,-1.34269 -2.691,-4.96633 -2.9559,-5.01623 z m 8.88886,10.8226 c -0.72623,9.1e-4 -1.02124,0.026 -1.09037,0.0847 -0.15863,0.13458 -0.16113,1.73239 -0.003,1.82779 0.0559,0.0337 0.35129,0.0664 0.65681,0.0724 0.30554,0.006 0.58153,0.0152 0.6134,0.0207 0.10357,0.0181 0.0838,2.19834 -0.0207,2.28616 -0.0528,0.0445 -0.2819,0.07 -0.50902,0.0568 -0.22715,-0.0131 -0.50321,0.0115 -0.6134,0.0548 l -0.19999,0.0791 0.009,0.83819 c 0.01,0.87942 0.0749,1.04495 0.40153,1.01183 0.0876,-0.009 0.34047,-0.0114 0.56172,-0.007 l 0.40256,0.009 0.0424,3.88039 c 0.0232,2.13418 0.0674,3.90549 0.0987,3.93619 0.0777,0.0761 1.74353,0.0502 1.84847,-0.0289 0.0893,-0.0671 0.87278,-0.9948 1.21594,-1.4397 0.19282,-0.24997 0.86208,-1.06278 3.92689,-4.77439 0.69849,-0.84586 1.29592,-1.61494 1.32757,-1.70842 0.11233,-0.33074 0.0887,-1.71595 -0.0305,-1.79111 -0.0611,-0.0385 -1.52112,-0.0739 -3.24424,-0.0785 l -3.13263,-0.008 -0.0362,-1.16014 -0.0362,-1.16014 0.65784,-0.032 0.65836,-0.032 0.0134,-0.95239 0.0139,-0.95292 -0.40514,5.2e-4 c -0.22273,4.3e-4 -1.23535,-0.0113 -2.24999,-0.0258 -0.34562,-0.005 -0.63539,-0.007 -0.87747,-0.007 z m 4.01009,6.29884 c 0.95913,-0.007 1.81538,0.0142 1.90273,0.0475 l 0.15865,0.0605 -0.44856,0.5395 c -0.46864,0.56359 -1.36969,1.64062 -2.38073,2.84479 h -5.2e-4 c -0.32709,0.38955 -0.66996,0.77744 -0.76274,0.86196 l -0.16847,0.15297 -0.0548,-0.13695 c -0.0707,-0.17855 -0.0907,-2.1888 -0.0341,-3.40392 l 0.0444,-0.95343 z" />
    <path
       style="fill:#000000;stroke-width:0.0846667"
       id="path389"
       d="" />
  </g>
</svg>
