<?xml version="1.0" encoding="UTF-8" standalone="no"?>
<svg
   sodipodi:docname="4S.svg"
   id="svg8"
   version="1.1"
   viewBox="0 0 63.103043 88.347847"
   height="88.347847mm"
   width="63.103043mm"
   inkscape:version="1.1.1 (1:1.1+202109281949+c3084ef5ed)"
   inkscape:export-filename="/home/doug/k40/52Cards/4S.png"
   inkscape:export-xdpi="96"
   inkscape:export-ydpi="96"
   xmlns:inkscape="http://www.inkscape.org/namespaces/inkscape"
   xmlns:sodipodi="http://sodipodi.sourceforge.net/DTD/sodipodi-0.dtd"
   xmlns="http://www.w3.org/2000/svg"
   xmlns:svg="http://www.w3.org/2000/svg"
   xmlns:rdf="http://www.w3.org/1999/02/22-rdf-syntax-ns#"
   xmlns:cc="http://creativecommons.org/ns#"
   xmlns:dc="http://purl.org/dc/elements/1.1/">
  <defs
     id="defs2">
    <marker
       style="overflow:visible"
       id="marker2995"
       refX="0"
       refY="0"
       orient="auto"
       inkscape:stockid="Arrow1Lstart"
       inkscape:isstock="true">
      <path
         transform="matrix(0.8,0,0,0.8,10,0)"
         style="fill:#000000;fill-opacity:1;fill-rule:evenodd;stroke:#000000;stroke-width:1pt;stroke-opacity:1"
         d="M 0,0 5,-5 -12.5,0 5,5 Z"
         id="path2993" />
    </marker>
    <marker
       style="overflow:visible"
       id="marker2985"
       refX="0"
       refY="0"
       orient="auto"
       inkscape:stockid="Arrow1Lstart"
       inkscape:isstock="true">
      <path
         transform="matrix(0.8,0,0,0.8,10,0)"
         style="fill:#000000;fill-opacity:1;fill-rule:evenodd;stroke:#000000;stroke-width:1pt;stroke-opacity:1"
         d="M 0,0 5,-5 -12.5,0 5,5 Z"
         id="path2983" />
    </marker>
    <marker
       style="overflow:visible"
       id="marker2791"
       refX="0"
       refY="0"
       orient="auto"
       inkscape:stockid="Arrow1Lstart"
       inkscape:isstock="true">
      <path
         transform="matrix(0.8,0,0,0.8,10,0)"
         style="fill:#000000;fill-opacity:1;fill-rule:evenodd;stroke:#000000;stroke-width:1pt;stroke-opacity:1"
         d="M 0,0 5,-5 -12.5,0 5,5 Z"
         id="path2789" />
    </marker>
    <marker
       style="overflow:visible"
       id="marker2781"
       refX="0"
       refY="0"
       orient="auto"
       inkscape:stockid="Arrow1Lstart"
       inkscape:isstock="true">
      <path
         transform="matrix(0.8,0,0,0.8,10,0)"
         style="fill:#000000;fill-opacity:1;fill-rule:evenodd;stroke:#000000;stroke-width:1pt;stroke-opacity:1"
         d="M 0,0 5,-5 -12.5,0 5,5 Z"
         id="path2779" />
    </marker>
    <marker
       style="overflow:visible"
       id="marker2417"
       refX="0"
       refY="0"
       orient="auto"
       inkscape:stockid="Arrow1Lstart"
       inkscape:isstock="true">
      <path
         transform="matrix(0.8,0,0,0.8,10,0)"
         style="fill:#000000;fill-opacity:1;fill-rule:evenodd;stroke:#000000;stroke-width:1pt;stroke-opacity:1"
         d="M 0,0 5,-5 -12.5,0 5,5 Z"
         id="path2415" />
    </marker>
    <marker
       style="overflow:visible"
       id="marker2383"
       refX="0"
       refY="0"
       orient="auto"
       inkscape:stockid="Arrow1Lstart"
       inkscape:isstock="true">
      <path
         transform="matrix(0.8,0,0,0.8,10,0)"
         style="fill:#000000;fill-opacity:1;fill-rule:evenodd;stroke:#000000;stroke-width:1pt;stroke-opacity:1"
         d="M 0,0 5,-5 -12.5,0 5,5 Z"
         id="path2381" />
    </marker>
    <marker
       style="overflow:visible"
       id="marker2355"
       refX="0"
       refY="0"
       orient="auto"
       inkscape:stockid="Arrow1Lstart"
       inkscape:isstock="true">
      <path
         transform="matrix(0.8,0,0,0.8,10,0)"
         style="fill:#000000;fill-opacity:1;fill-rule:evenodd;stroke:#000000;stroke-width:1pt;stroke-opacity:1"
         d="M 0,0 5,-5 -12.5,0 5,5 Z"
         id="path2353" />
    </marker>
    <marker
       style="overflow:visible"
       id="Arrow1Lstart"
       refX="0"
       refY="0"
       orient="auto"
       inkscape:stockid="Arrow1Lstart"
       inkscape:isstock="true">
      <path
         transform="matrix(0.8,0,0,0.8,10,0)"
         style="fill:#000000;fill-opacity:1;fill-rule:evenodd;stroke:#000000;stroke-width:1pt;stroke-opacity:1"
         d="M 0,0 5,-5 -12.5,0 5,5 Z"
         id="path2071" />
    </marker>
  </defs>
  <sodipodi:namedview
     id="base"
     pagecolor="#ffffff"
     bordercolor="#666666"
     borderopacity="1.0"
     inkscape:pageopacity="0.0"
     inkscape:pageshadow="2"
     inkscape:zoom="1.5033851"
     inkscape:cx="86.138941"
     inkscape:cy="167.28914"
     inkscape:document-units="mm"
     inkscape:current-layer="layer1"
     inkscape:document-rotation="0"
     showgrid="false"
     inkscape:snap-smooth-nodes="false"
     inkscape:object-nodes="false"
     inkscape:window-width="1366"
     inkscape:window-height="712"
     inkscape:window-x="0"
     inkscape:window-y="0"
     inkscape:window-maximized="1"
     inkscape:object-paths="false"
     inkscape:snap-intersection-paths="false"
     inkscape:snap-midpoints="false"
     inkscape:snap-others="false"
     inkscape:pagecheckerboard="0"
     showguides="true"
     inkscape:guide-bbox="true"
     inkscape:snap-bbox="true"
     showborder="false"
     fit-margin-top="0"
     fit-margin-left="0"
     fit-margin-right="0"
     fit-margin-bottom="0" />
  <metadata
     id="metadata5">
    <rdf:RDF>
      <cc:Work
         rdf:about="">
        <dc:format>image/svg+xml</dc:format>
        <dc:type
           rdf:resource="http://purl.org/dc/dcmitype/StillImage" />
      </cc:Work>
    </rdf:RDF>
  </metadata>
  <g
     inkscape:label="Layer 1"
     inkscape:groupmode="layer"
     id="layer1"
     transform="translate(487.97643,231.81942)">
    <path
       style="fill:#000000;stroke-width:0.0846667"
       id="path389"
       d="" />
    <path
       id="path6748-3"
       style="fill:#000000;fill-opacity:1;stroke:none;stroke-width:0.264999;stroke-miterlimit:4;stroke-dasharray:none;stroke-opacity:1"
       d="m -480.06535,-231.81934 -5e-4,5.1e-4 c -1.1204,9.9e-4 -2.13582,0.005 -2.77606,0.0124 l -2.32854,0.0258 -0.57775,0.29611 c -0.74223,0.37984 -1.68907,1.33261 -1.98281,1.99523 l -0.20775,0.46922 -0.009,4.57285 c -0.005,2.5151 -0.0137,5.35427 -0.0207,6.30917 -0.007,0.95489 -0.0104,3.88913 -0.006,6.52053 0.003,2.63139 0.005,5.88919 0.004,7.23987 -10e-4,1.35067 0.002,6.68595 0.008,11.85561 0.006,5.16967 0.009,10.48583 0.007,11.81323 -0.002,1.32741 0.003,4.87108 0.0129,7.87497 0.0185,5.89954 0.0195,6.55409 0.032,17.75189 0.005,4.10521 0.0121,7.74899 0.014,8.09666 l 0.001,0.63201 0.19378,0.36793 c 0.32673,0.62015 0.79769,1.1557 1.38181,1.572 0.99351,0.70772 1.03338,0.71373 4.92477,0.71468 1.32733,3.1e-4 3.09978,0.007 3.93827,0.014 2.48912,0.0218 5.15816,0.0307 9.82316,0.031 2.42189,1.9e-4 4.97525,0.0104 5.67407,0.0232 0.69887,0.0129 3.15674,0.0254 5.46221,0.0284 2.3055,0.003 5.69762,0.0147 7.53753,0.0264 1.83991,0.0117 5.95609,0.0336 9.14673,0.0491 3.19061,0.0154 7.01997,0.0369 8.51058,0.0481 3.07438,0.023 3.48237,-0.001 3.99045,-0.2372 h 0.004 c 1.01217,-0.47016 2.15493,-1.68205 2.34559,-2.4877 0.0404,-0.17101 0.0777,-2.38741 0.0816,-4.9258 0.0142,-8.09742 0.008,-17.79326 -0.0139,-21.67878 -0.0116,-2.07234 -0.0223,-5.92052 -0.0253,-8.55193 -0.002,-2.63141 -0.008,-7.01388 -0.0124,-9.73842 -0.02,-13.76802 -0.0238,-26.62158 -0.0103,-33.09772 l 0.0103,-4.60283 -0.29353,-0.55758 c -0.52457,-0.99563 -1.77517,-2.04706 -2.61017,-2.1947 -0.44011,-0.0778 -2.1663,-0.0939 -12.87362,-0.11834 -1.25756,-0.003 -2.80088,-0.0116 -3.42977,-0.0186 -0.62888,-0.007 -2.38223,-0.0131 -3.89591,-0.0129 -2.81823,4e-4 -12.30341,-0.0289 -15.79385,-0.0486 -1.07132,-0.006 -3.52917,-0.0179 -5.46219,-0.0269 -1.93299,-0.009 -5.24867,-0.026 -7.36804,-0.0367 -1.05968,-0.005 -2.28512,-0.007 -3.40548,-0.006 z m -4.02764,0.52296 5e-4,5.2e-4 c 2.64703,-0.0141 12.9395,0.0446 23.6089,0.13849 2.11969,0.0184 8.02333,0.0648 13.1227,0.10284 5.09911,0.038 11.67167,0.0878 14.60479,0.11214 l 5.19142,0.0419 0.42428,0.22738 c 0.5733,0.30675 1.35493,1.10076 1.58388,1.56425 l 0.18706,0.38034 0.0114,4.60592 c 0.009,3.78238 -0.002,12.61598 -0.0196,20.70519 -0.0178,8.08922 -0.044,15.49413 -0.0615,16.23674 -0.0207,0.88428 -0.0393,7.8769 -0.0455,15.67759 -0.006,8.12717 -0.02,14.33267 -0.0408,18.55081 -0.0104,2.10907 -0.0233,3.72226 -0.0372,4.82813 -0.007,0.55293 -0.013,0.97915 -0.0207,1.27537 -0.004,0.14811 -0.009,0.26408 -0.0124,0.34365 -0.004,0.0796 -0.0173,0.15911 -0.003,0.0822 -0.0654,0.34515 -0.41849,0.9538 -0.91207,1.40147 -0.69162,0.62723 -1.19399,0.88094 -1.80663,0.971 -0.22444,0.033 -0.72691,0.0666 -1.15083,0.0796 -0.21196,0.007 -0.40817,0.009 -0.54467,0.006 -0.06,-10e-4 -0.10163,-0.005 -0.12711,-0.007 -0.005,-0.002 -0.0155,-0.004 -0.0155,-0.004 -5.3e-4,-1.4e-4 -0.048,-0.0105 -0.0605,-0.0124 -0.0249,-0.004 -0.0347,-0.005 -0.045,-0.006 -0.0206,-0.002 -0.0347,-0.001 -0.0506,-0.002 -0.0319,-0.002 -0.0696,-0.004 -0.11729,-0.005 -0.0954,-0.003 -0.23061,-0.006 -0.40256,-0.009 -0.34396,-0.006 -0.83511,-0.0117 -1.44127,-0.0181 -1.21229,-0.0127 -2.87813,-0.0255 -4.70667,-0.0362 -3.65498,-0.0216 -8.32527,-0.0541 -10.37302,-0.0713 -5.82633,-0.0488 -12.05632,-0.0927 -19.00711,-0.13229 -3.5156,-0.02 -9.19501,-0.0549 -12.61731,-0.078 l -6.09161,-0.0403 -0.47493,-0.22789 c -0.54531,-0.26202 -1.26921,-0.93972 -1.66037,-1.59629 l -0.216,-0.36121 -0.0238,-17.41238 c -0.0236,-16.53716 0.034,-44.23046 0.12351,-58.63776 l 0.0398,-6.30453 0.26768,-0.52916 c 0.45812,-0.90783 1.63343,-1.76157 2.32389,-1.83452 -0.0397,0.004 0.0454,-0.002 0.1483,-0.003 0.10697,-9.9e-4 0.25781,-0.002 0.44754,-0.003 z m 7.16492,3.70624 -0.90432,0.0129 -0.90332,0.0129 -0.72088,0.88418 c -0.85773,1.05153 -1.45169,1.78753 -3.85869,4.7811 -1.29246,1.60744 -1.82821,2.33729 -1.85724,2.52956 -0.023,0.14862 -0.0424,0.56554 -0.045,0.92656 l -0.004,0.65577 0.27492,0.007 c 0.15145,0.004 0.3329,0.0142 0.40307,0.0217 0.0701,0.009 1.4129,-0.006 2.98432,-0.0315 l 2.8572,-0.0465 0.0264,1.27279 0.0269,1.27227 -0.68056,-0.0124 -0.68059,-0.0124 0.0424,0.89091 0.0424,0.8909 2.26446,-0.0238 2.26497,-0.0248 -0.0181,-0.88987 -0.0186,-0.89038 -0.67697,0.0134 -0.67696,0.0139 -0.0253,-1.22422 -0.0253,-1.22369 0.69659,-0.0388 0.69713,-0.0393 -0.0176,-0.88831 -0.0171,-0.88935 -0.42322,-0.003 c -0.23297,-0.001 -0.54933,-0.005 -0.70282,-0.007 l -0.27852,-0.004 -0.0227,-3.96875 z m -1.83089,3.02255 0.0486,2.34249 c 0.0285,1.28811 0.0291,2.40261 0.003,2.47685 -0.0424,0.11774 -0.30597,0.14045 -2.06706,0.17674 -1.11236,0.0229 -2.0234,0.0108 -2.02417,-0.0269 0,-0.0376 0.39132,-0.55065 0.87128,-1.13998 0.48,-0.58937 1.2174,-1.49799 1.63867,-2.019 0.42113,-0.52102 0.93736,-1.141 1.14773,-1.37821 z m 11.55072,9.53068 5.1e-4,5.2e-4 c -1.42058,-0.003 -3.24782,0.006 -4.06072,0.0212 l -1.47693,0.0274 -0.0134,0.4656 c -0.007,0.25629 -0.005,3.05701 0.004,6.22391 0.009,3.16689 0.0129,6.50156 0.006,7.40988 -0.006,0.90832 -0.003,3.13747 0.007,4.95371 0.0104,1.81621 0.013,4.04485 0.005,4.95318 -0.007,0.90833 -0.0115,3.82397 -0.009,6.47868 0.002,2.65472 0.003,6.78949 0.003,9.18807 -6.9e-4,10.2183 0.003,11.73242 0.0346,13.4214 l 0.0326,1.77715 0.88884,0.001 c 0.48903,10e-4 2.75672,0.006 5.03896,0.0119 2.28227,0.006 5.35012,0.009 6.81715,0.006 1.46706,-0.003 3.29623,0.002 4.06487,0.0103 0.76864,0.008 2.61692,0.0123 4.10724,0.009 1.49037,-0.004 3.49083,-0.002 4.44574,0.003 0.95485,0.005 2.95584,0.0107 4.44624,0.0124 1.48995,0.002 2.7246,0.0176 2.74505,0.0351 h 5.1e-4 c 0.0802,0.0702 0.26831,0.0205 0.29765,-0.0791 0.0172,-0.0585 0.0255,-2.65963 0.0186,-5.78001 -0.007,-3.12036 -0.0103,-6.62581 -0.009,-7.79022 0.004,-2.15307 -6e-5,-9.14605 -0.006,-14.05702 -0.002,-1.49035 -0.003,-5.64367 -0.002,-9.22993 0.003,-11.1019 -0.004,-14.15948 -0.0408,-16.11736 l -0.0346,-1.89033 -0.80512,-0.0145 c -0.44257,-0.008 -2.40501,-0.007 -4.36097,0.002 -1.95596,0.009 -3.93735,0.004 -4.40336,-0.009 -0.46595,-0.0134 -2.21927,-0.0218 -3.89588,-0.0181 -1.67661,0.004 -3.54354,0.002 -4.14909,-0.004 -0.60558,-0.006 -2.45383,-0.0115 -4.10723,-0.0129 -1.65341,-10e-4 -4.16872,-0.005 -5.58933,-0.009 z m 0.80873,0.31265 v 5.2e-4 c 2.26367,-0.002 4.56782,0.005 5.63531,0.0233 0.62896,0.0108 2.64808,0.0115 4.48759,0.002 1.83952,-0.01 3.726,-0.006 4.19198,0.007 0.46601,0.0135 2.33328,0.0216 4.14962,0.0181 1.81637,-0.003 4.29353,-1.2e-4 5.50458,0.006 l 2.20194,0.0124 0.0191,1.86242 c 0.0207,2.01284 0.0411,11.50666 0.031,14.60686 -0.003,1.04799 -0.004,3.12489 -0.001,4.61523 0.003,1.49033 0.003,3.5858 -5e-4,4.65708 -0.007,2.30393 -0.005,4.96624 0.0109,11.89798 0.006,2.81763 0.007,5.9614 0.002,6.98613 -0.005,1.02474 -0.006,3.13979 -0.003,4.69998 0.007,3.15705 -0.0224,4.81917 -0.0863,4.92683 -0.0234,0.0393 -0.12626,0.0663 -0.22842,0.0605 -0.36581,-0.0211 -4.90225,-0.0424 -8.06151,-0.0382 -1.76977,0.002 -3.73255,-0.005 -4.36149,-0.0155 -0.62895,-0.0108 -2.24809,-0.0191 -3.59876,-0.0191 -10.26306,7.6e-4 -15.75946,-0.0252 -15.80936,-0.0739 -0.0316,-0.0315 -0.0542,-1.65753 -0.0491,-3.61374 0.005,-1.95624 0.001,-6.20507 -0.01,-9.4418 -0.0109,-3.23674 -0.0115,-6.39957 -10e-4,-7.02851 0.0104,-0.62895 0.009,-2.87767 -0.004,-4.99659 -0.0127,-2.11892 -0.0135,-4.23353 -0.003,-4.69946 0.0111,-0.46596 0.0149,-2.33333 0.008,-4.14961 -0.007,-1.81628 -0.01,-5.13136 -0.007,-7.367 0.003,-2.23563 0.005,-5.16987 0.005,-6.52053 -7.2e-4,-1.35063 0.006,-3.32586 0.016,-4.3894 l 0.0176,-1.93321 0.12298,-0.0501 c 0.0146,-0.006 0.16658,-0.0118 0.42582,-0.0165 l 5e-4,5.1e-4 c 0.90718,-0.0172 3.13087,-0.0276 5.39451,-0.0294 z m 20.6897,3.00085 c -0.003,-2.2e-4 -0.005,1.7e-4 -0.007,0.001 -0.0344,0.0143 -0.33478,0.43937 -0.66818,0.94413 -0.33337,0.50475 -0.93054,1.35979 -1.32601,1.90014 -0.77787,1.06304 -1.25576,1.87806 -1.41801,2.41639 -0.14576,0.48476 -0.12205,1.26954 0.0486,1.59112 0.3524,0.66418 0.87884,0.97258 1.63298,0.95705 0.56129,-0.0115 1.0268,-0.24275 1.3343,-0.66353 0.12218,-0.16723 0.23534,-0.29117 0.25164,-0.27543 0.0169,0.0158 -0.0182,0.33862 -0.0765,0.71778 -0.11176,0.72252 -0.4353,1.6962 -0.69041,2.07739 -0.1897,0.28355 -0.13848,0.33066 0.25167,0.23151 0.4172,-0.1059 1.0748,-0.11396 1.53118,-0.0186 0.20491,0.0433 0.38862,0.0615 0.40722,0.0419 0.0188,-0.0197 -0.0839,-0.22672 -0.22792,-0.45992 -0.33657,-0.54479 -0.61163,-1.37741 -0.69246,-2.09755 l -0.0636,-0.56895 0.17881,0.2682 c 0.71392,1.06799 2.41109,0.94937 2.9719,-0.20826 0.51991,-1.0731 0.16743,-1.96437 -1.84589,-4.65966 -0.65106,-0.87155 -1.26299,-1.72707 -1.35959,-1.9017 -0.0907,-0.16373 -0.19079,-0.28971 -0.23151,-0.293 z m -21.9315,0.18138 c -0.041,8e-4 -0.17507,0.18166 -0.29815,0.40205 -0.12322,0.22036 -0.71705,1.08564 -1.31983,1.92288 -1.11709,1.5519 -1.61218,2.38367 -1.79731,3.02152 -0.40026,1.37961 0.41338,2.50621 1.78906,2.47788 0.47596,-0.01 0.86976,-0.2186 1.22886,-0.65061 l 0.29506,-0.35449 -0.0491,0.38188 c -0.0993,0.77238 -0.28295,1.41852 -0.58396,2.05776 l -0.30798,0.65474 0.7674,-0.0605 c 0.44733,-0.0355 0.9076,-0.0257 1.10329,0.0248 0.18462,0.0476 0.35364,0.0671 0.37621,0.0439 0.0225,-0.0233 -0.0867,-0.28711 -0.24289,-0.5855 -0.32557,-0.62174 -0.63971,-1.67371 -0.65008,-2.17764 l -0.007,-0.34365 0.14626,0.19999 c 0.97687,1.33526 3.00011,0.87165 3.18688,-0.73019 0.1079,-0.92487 -0.42847,-2.0282 -1.86449,-3.83594 -0.63249,-0.79637 -1.34192,-1.79345 -1.5503,-2.17868 -0.081,-0.14973 -0.18071,-0.27112 -0.2217,-0.27027 z m -12.59974,1.11208 c -0.0241,0.004 -0.36854,0.51645 -0.76584,1.13792 -0.39741,0.62143 -0.98171,1.47856 -1.2981,1.90427 -1.61377,2.17103 -2.3822,3.4316 -2.66599,4.37286 -0.42236,1.40086 -0.0198,2.69468 1.02319,3.29024 0.38611,0.22045 0.47771,0.23643 1.26865,0.22014 0.79973,-0.0165 0.87831,-0.034 1.25884,-0.28009 0.23796,-0.15392 0.5244,-0.44808 0.6935,-0.71106 0.15867,-0.24655 0.30514,-0.43228 0.32557,-0.4129 0.0627,0.0602 -0.20918,1.74774 -0.37621,2.33474 -0.18701,0.65722 -0.50766,1.39194 -0.76947,1.7632 -0.23082,0.32729 -0.17999,0.38785 0.21963,0.25942 0.42887,-0.13779 2.09701,-0.16069 2.49751,-0.0341 0.17891,0.0565 0.34221,0.085 0.36277,0.0636 0.0206,-0.0214 -0.1389,-0.35537 -0.35449,-0.74207 -0.21563,-0.38673 -0.49569,-1.03563 -0.62219,-1.44177 -0.2232,-0.71699 -0.48083,-2.14821 -0.40153,-2.23087 0.0214,-0.0225 0.1203,0.10885 0.21809,0.29197 0.24496,0.45671 0.87916,0.97189 1.34462,1.09192 0.22674,0.0581 0.62238,0.0774 0.96274,0.046 1.35268,-0.12487 2.22406,-1.13116 2.18434,-2.52439 -0.0309,-1.11087 -0.5375,-2.15929 -1.95802,-4.05815 -1.68235,-2.24884 -2.5051,-3.38355 -2.80551,-3.86746 -0.16409,-0.26444 -0.31819,-0.47786 -0.3421,-0.47336 z m 49.19702,31.56086 -0.28734,0.0589 c -0.73798,0.15068 -1.91238,0.19195 -2.46859,0.0863 -0.3157,-0.0599 -0.57333,-0.0788 -0.57256,-0.0419 0,0.037 0.11737,0.2414 0.2589,0.45475 0.47987,0.72335 0.93546,2.14294 1.13945,3.54914 0.039,0.24371 0.0458,0.44334 0.0191,0.4439 -0.0267,5.3e-4 -0.12703,-0.14533 -0.22273,-0.32402 -0.22444,-0.41846 -0.89341,-0.98211 -1.29862,-1.0945 -0.17413,-0.0482 -0.59738,-0.0674 -0.94102,-0.0419 -1.03518,0.0767 -1.66635,0.5274 -2.07584,1.48156 h -0.004 c -0.33086,0.77109 -0.14835,2.00654 0.46406,3.14193 0.35628,0.66053 1.73606,2.6162 2.4226,3.4339 0.35806,0.42636 1.50982,2.06863 1.7544,2.50114 0.10316,0.18228 0.22079,0.33961 0.26202,0.34985 0.0409,0.0103 0.27646,-0.31695 0.52347,-0.72709 0.24713,-0.41014 1.0468,-1.57771 1.77663,-2.59416 1.4719,-2.04987 2.01739,-2.92802 2.37246,-3.81682 0.209,-0.52209 0.2367,-0.69781 0.2212,-1.40146 -0.0145,-0.66408 -0.0514,-0.86492 -0.21032,-1.14928 -0.30618,-0.5481 -0.60918,-0.84294 -1.08678,-1.05627 -1.24952,-0.55812 -2.52957,-0.18796 -3.14243,0.90899 -0.11768,0.21069 -0.22965,0.36868 -0.24804,0.35088 -0.0594,-0.057 0.11625,-1.35168 0.27852,-2.05517 0.16627,-0.72128 0.57838,-1.74413 0.88263,-2.19057 z m -13.16511,5.15008 c -0.0695,0.003 -0.17278,0.0222 -0.31211,0.0574 -0.46024,0.11653 -1.11069,0.13315 -1.55339,0.0403 -0.18587,-0.039 -0.34796,-0.0606 -0.36071,-0.0475 -0.0111,0.0154 0.0939,0.22892 0.23461,0.47698 0.29538,0.52054 0.58957,1.44288 0.68625,2.15542 l 0.0672,0.48989 -0.22272,-0.30386 c -0.36045,-0.49209 -0.77838,-0.69176 -1.42214,-0.67851 -0.90207,0.0186 -1.344,0.37023 -1.69759,1.34824 -0.089,0.24744 0.0312,1.06216 0.22688,1.53996 0.22291,0.54445 0.94742,1.63055 1.87687,2.81378 0.34465,0.43864 0.81796,1.08874 1.05214,1.44488 0.23419,0.35613 0.44694,0.64591 0.47387,0.64337 0.0267,-0.003 0.26226,-0.34095 0.52298,-0.7519 0.26067,-0.41099 0.88228,-1.30804 1.38131,-1.99367 1.49892,-2.05946 1.87714,-3.12348 1.44177,-4.05557 -0.10536,-0.22542 -0.25768,-0.48237 -0.33952,-0.57051 -0.38814,-0.4194 -1.40914,-0.58255 -2.00194,-0.32039 -0.15126,0.0669 -0.41508,0.29113 -0.58653,0.49868 l -0.31163,0.37775 0.0471,-0.42478 c 0.11004,-0.9803 0.48411,-2.1408 0.81804,-2.5368 0.11287,-0.13381 0.12125,-0.19909 0.007,-0.20308 -0.009,-2.5e-4 -0.018,-4.1e-4 -0.0279,0 z m -21.84983,0.1974 c -0.0528,0.004 -0.25773,0.0407 -0.49506,0.0894 -0.35427,0.073 -0.6759,0.0796 -1.14255,0.0217 -0.35729,-0.0442 -0.66508,-0.0644 -0.68368,-0.045 -0.0185,0.0195 0.0276,0.10114 0.10335,0.18138 0.32271,0.34226 0.8632,1.95655 0.87799,2.62465 l 0.007,0.29197 -0.25527,-0.33228 c -0.31697,-0.41296 -0.88773,-0.69433 -1.3834,-0.68213 -0.39444,0.0101 -1.08569,0.2909 -1.08262,0.43977 0,0.0488 -0.0577,0.09 -0.1297,0.0915 -0.0745,0.002 -0.21831,0.19644 -0.33382,0.45166 -0.16815,0.36775 -0.19511,0.53981 -0.15658,0.95549 0.0854,0.923 0.61613,1.85085 2.29856,4.01785 0.35595,0.45843 0.79169,1.06852 0.96843,1.35599 0.17685,0.28747 0.34568,0.52203 0.37568,0.52141 0.0298,-5.3e-4 0.11854,-0.12602 0.19741,-0.27905 0.0788,-0.15299 0.47511,-0.74274 0.88003,-1.31 1.56342,-2.18995 1.76104,-2.48729 2.05777,-3.09077 0.50411,-1.02496 0.49448,-1.89822 -0.0284,-2.56211 -0.66389,-0.84274 -2.23139,-0.77931 -2.75695,0.11162 -0.0964,0.16341 -0.19222,0.2519 -0.21135,0.19688 -0.0911,-0.25567 0.23106,-1.55002 0.56483,-2.26911 0.1951,-0.42029 0.3501,-0.76929 0.34208,-0.78031 0,-7.9e-4 -0.005,-9.9e-4 -0.0129,-5.2e-4 z m 33.22641,11.73417 -2.15853,0.032 c -1.18739,0.0174 -2.20686,0.0291 -2.26499,0.0253 v 5.2e-4 c -0.077,-0.004 -0.10856,0.22972 -0.11263,0.85782 l -0.006,0.86507 0.70178,0.01 0.70228,0.0109 -0.003,0.42323 c -2.1e-4,0.23288 0.006,0.79489 0.005,1.24902 l 0.004,0.82527 -0.66352,0.0139 c -0.36473,0.008 -0.67849,0.0301 -0.69712,0.0501 v 5.1e-4 c -0.0185,0.0199 -0.0266,0.41051 -0.017,0.86817 l 0.017,0.83199 0.67799,0.0284 0.67853,0.0284 0.0817,3.96669 0.0816,3.96616 0.86093,0.0171 0.86143,0.0165 0.64389,-0.79788 c 0.35435,-0.43898 0.72765,-0.89485 0.82888,-1.01338 0.10131,-0.11852 1.06162,-1.31957 2.13424,-2.66908 1.07257,-1.34952 2.15212,-2.69344 2.39882,-2.98639 l 0.44907,-0.53278 -0.0191,-0.93741 -0.0196,-0.93638 -2.56056,0.0398 c -1.40845,0.022 -2.59916,0.0316 -2.64636,0.0217 -0.0468,-0.01 -0.34197,-0.0175 -0.65627,-0.016 l -0.57206,0.001 -0.0258,-1.26917 -0.0264,-1.26969 0.6785,0.0351 0.67852,0.0346 -0.0186,-0.89503 z m 1.91666,6.06733 c 0.55208,-0.002 0.91689,0.007 0.91726,0.0248 0,0.0485 -1.28349,1.6676 -1.97609,2.49081 -0.16169,0.19223 -0.68006,0.8217 -1.15187,1.39939 -0.47172,0.57768 -0.87185,1.05075 -0.88884,1.0511 -0.0169,2.6e-4 -0.0533,-1.104 -0.0811,-2.45411 l -0.0507,-2.45463 2.07378,-0.0424 c 0.42775,-0.009 0.82632,-0.0139 1.15755,-0.015 z" />
  </g>
</svg>
