<?xml version="1.0" encoding="UTF-8" standalone="no"?>
<svg
   sodipodi:docname="5C.svg"
   id="svg8"
   version="1.1"
   viewBox="0 0 63.536308 88.252258"
   height="88.252258mm"
   width="63.536308mm"
   inkscape:version="1.1.1 (1:1.1+202109281949+c3084ef5ed)"
   inkscape:export-filename="/home/doug/k40/52Cards/5C.png"
   inkscape:export-xdpi="96"
   inkscape:export-ydpi="96"
   xmlns:inkscape="http://www.inkscape.org/namespaces/inkscape"
   xmlns:sodipodi="http://sodipodi.sourceforge.net/DTD/sodipodi-0.dtd"
   xmlns="http://www.w3.org/2000/svg"
   xmlns:svg="http://www.w3.org/2000/svg"
   xmlns:rdf="http://www.w3.org/1999/02/22-rdf-syntax-ns#"
   xmlns:cc="http://creativecommons.org/ns#"
   xmlns:dc="http://purl.org/dc/elements/1.1/">
  <defs
     id="defs2">
    <marker
       style="overflow:visible"
       id="marker2995"
       refX="0"
       refY="0"
       orient="auto"
       inkscape:stockid="Arrow1Lstart"
       inkscape:isstock="true">
      <path
         transform="matrix(0.8,0,0,0.8,10,0)"
         style="fill:#000000;fill-opacity:1;fill-rule:evenodd;stroke:#000000;stroke-width:1pt;stroke-opacity:1"
         d="M 0,0 5,-5 -12.5,0 5,5 Z"
         id="path2993" />
    </marker>
    <marker
       style="overflow:visible"
       id="marker2985"
       refX="0"
       refY="0"
       orient="auto"
       inkscape:stockid="Arrow1Lstart"
       inkscape:isstock="true">
      <path
         transform="matrix(0.8,0,0,0.8,10,0)"
         style="fill:#000000;fill-opacity:1;fill-rule:evenodd;stroke:#000000;stroke-width:1pt;stroke-opacity:1"
         d="M 0,0 5,-5 -12.5,0 5,5 Z"
         id="path2983" />
    </marker>
    <marker
       style="overflow:visible"
       id="marker2791"
       refX="0"
       refY="0"
       orient="auto"
       inkscape:stockid="Arrow1Lstart"
       inkscape:isstock="true">
      <path
         transform="matrix(0.8,0,0,0.8,10,0)"
         style="fill:#000000;fill-opacity:1;fill-rule:evenodd;stroke:#000000;stroke-width:1pt;stroke-opacity:1"
         d="M 0,0 5,-5 -12.5,0 5,5 Z"
         id="path2789" />
    </marker>
    <marker
       style="overflow:visible"
       id="marker2781"
       refX="0"
       refY="0"
       orient="auto"
       inkscape:stockid="Arrow1Lstart"
       inkscape:isstock="true">
      <path
         transform="matrix(0.8,0,0,0.8,10,0)"
         style="fill:#000000;fill-opacity:1;fill-rule:evenodd;stroke:#000000;stroke-width:1pt;stroke-opacity:1"
         d="M 0,0 5,-5 -12.5,0 5,5 Z"
         id="path2779" />
    </marker>
    <marker
       style="overflow:visible"
       id="marker2417"
       refX="0"
       refY="0"
       orient="auto"
       inkscape:stockid="Arrow1Lstart"
       inkscape:isstock="true">
      <path
         transform="matrix(0.8,0,0,0.8,10,0)"
         style="fill:#000000;fill-opacity:1;fill-rule:evenodd;stroke:#000000;stroke-width:1pt;stroke-opacity:1"
         d="M 0,0 5,-5 -12.5,0 5,5 Z"
         id="path2415" />
    </marker>
    <marker
       style="overflow:visible"
       id="marker2383"
       refX="0"
       refY="0"
       orient="auto"
       inkscape:stockid="Arrow1Lstart"
       inkscape:isstock="true">
      <path
         transform="matrix(0.8,0,0,0.8,10,0)"
         style="fill:#000000;fill-opacity:1;fill-rule:evenodd;stroke:#000000;stroke-width:1pt;stroke-opacity:1"
         d="M 0,0 5,-5 -12.5,0 5,5 Z"
         id="path2381" />
    </marker>
    <marker
       style="overflow:visible"
       id="marker2355"
       refX="0"
       refY="0"
       orient="auto"
       inkscape:stockid="Arrow1Lstart"
       inkscape:isstock="true">
      <path
         transform="matrix(0.8,0,0,0.8,10,0)"
         style="fill:#000000;fill-opacity:1;fill-rule:evenodd;stroke:#000000;stroke-width:1pt;stroke-opacity:1"
         d="M 0,0 5,-5 -12.5,0 5,5 Z"
         id="path2353" />
    </marker>
    <marker
       style="overflow:visible"
       id="Arrow1Lstart"
       refX="0"
       refY="0"
       orient="auto"
       inkscape:stockid="Arrow1Lstart"
       inkscape:isstock="true">
      <path
         transform="matrix(0.8,0,0,0.8,10,0)"
         style="fill:#000000;fill-opacity:1;fill-rule:evenodd;stroke:#000000;stroke-width:1pt;stroke-opacity:1"
         d="M 0,0 5,-5 -12.5,0 5,5 Z"
         id="path2071" />
    </marker>
  </defs>
  <sodipodi:namedview
     id="base"
     pagecolor="#ffffff"
     bordercolor="#666666"
     borderopacity="1.0"
     inkscape:pageopacity="0.0"
     inkscape:pageshadow="2"
     inkscape:zoom="1.5033853"
     inkscape:cx="86.804095"
     inkscape:cy="166.62395"
     inkscape:document-units="mm"
     inkscape:current-layer="layer1"
     inkscape:document-rotation="0"
     showgrid="false"
     inkscape:snap-smooth-nodes="false"
     inkscape:object-nodes="false"
     inkscape:window-width="1366"
     inkscape:window-height="712"
     inkscape:window-x="0"
     inkscape:window-y="0"
     inkscape:window-maximized="1"
     inkscape:object-paths="false"
     inkscape:snap-intersection-paths="false"
     inkscape:snap-midpoints="false"
     inkscape:snap-others="false"
     inkscape:pagecheckerboard="0"
     showguides="true"
     inkscape:guide-bbox="true"
     inkscape:snap-bbox="true"
     showborder="false"
     fit-margin-top="0"
     fit-margin-left="0"
     fit-margin-right="0"
     fit-margin-bottom="0" />
  <metadata
     id="metadata5">
    <rdf:RDF>
      <cc:Work
         rdf:about="">
        <dc:format>image/svg+xml</dc:format>
        <dc:type
           rdf:resource="http://purl.org/dc/dcmitype/StillImage" />
      </cc:Work>
    </rdf:RDF>
  </metadata>
  <g
     inkscape:label="Layer 1"
     inkscape:groupmode="layer"
     id="layer1"
     transform="translate(402.01926,475.2401)">
    <path
       style="fill:#000000;stroke-width:0.0846667"
       id="path389"
       d="" />
    <path
       id="path6742-7-6-26"
       style="fill:#000000;fill-opacity:1;stroke:none;stroke-width:0.264999;stroke-miterlimit:4;stroke-dasharray:none;stroke-opacity:1"
       d="m -394.16782,-475.12123 0.004,5.1e-4 c -1.12026,0.008 -2.13576,0.0182 -2.7759,0.0295 l -2.32834,0.0402 -0.5759,0.29965 c -0.73995,0.38445 -1.68087,1.34303 -1.97048,2.00745 l -0.20482,0.47049 0.0182,4.57282 c 0.006,2.51512 0.0189,5.35426 0.0178,6.30919 -0.004,0.95493 0.014,3.88912 0.0303,6.52046 0.0162,2.63134 0.0464,5.88903 0.0447,7.23973 0.008,1.35065 0.0411,6.68582 0.0832,11.85533 0.0419,5.16951 0.0747,10.48557 0.083,11.81296 0.008,1.32736 0.03,4.87097 0.0615,7.87472 0.0544,5.89932 0.0595,6.55386 0.14162,17.75136 0.0254,4.10512 0.0603,7.74877 0.0645,8.09641 l 0.004,0.63199 0.19604,0.36673 c 0.33061,0.61813 0.80485,1.15075 1.3915,1.56344 0.99786,0.70158 1.03776,0.70734 4.92908,0.68426 1.32739,-0.008 3.10027,-0.0121 3.93879,-0.0104 2.4892,0.006 5.15777,-10e-4 9.82266,-0.0297 2.42187,-0.0147 4.97525,-0.0203 5.67413,-0.0117 0.69896,0.009 3.15678,0.006 5.46226,-0.005 2.30547,-0.0112 5.6976,-0.0205 7.53755,-0.0201 1.83997,3.4e-4 5.95618,-0.003 9.14685,-0.007 3.19068,-0.004 7.02061,-0.006 8.51126,-0.005 3.07445,0.004 3.48229,-0.0225 3.9889,-0.26181 l 0.004,-3e-5 c 1.00924,-0.47641 2.14449,-1.69533 2.33017,-2.50215 0.0393,-0.17125 0.063,-2.38785 0.0513,-4.92621 -0.0358,-8.09735 -0.10187,-17.79297 -0.14777,-21.67827 -0.0244,-2.07224 -0.0595,-5.92028 -0.0787,-8.55162 -0.0182,-2.63135 -0.0513,-7.01371 -0.0725,-9.73815 -0.10502,-13.76763 -0.18769,-26.62093 -0.21438,-33.09705 l -0.0184,-4.60279 -0.29697,-0.55576 c -0.53067,-0.99237 -1.78777,-2.03606 -2.62367,-2.17854 -0.44058,-0.0751 -2.16684,-0.0805 -12.8741,-0.0388 -1.25756,0.005 -2.8009,0.006 -3.42981,0.003 -0.62892,-0.003 -2.38225,0.002 -3.8959,0.0112 -2.8182,0.0178 -12.30341,0.0471 -15.79388,0.0489 -1.0713,6.2e-4 -3.52923,0.004 -5.46225,0.007 -1.93304,0.003 -5.24878,0.006 -7.36812,0.009 -1.0597,0.002 -2.28518,0.007 -3.40545,0.015 z m -4.04615,0.5335 5.3e-4,-10e-6 c 2.64686,-0.0304 12.93953,-0.0353 23.6093,-0.007 2.11976,0.005 8.02363,0.0153 13.12309,0.0218 5.09924,0.007 11.67199,0.0157 14.6052,0.0219 l 5.19157,0.01 0.42566,0.22476 c 0.57518,0.30321 1.3617,1.09236 1.59353,1.55443 l 0.1894,0.37918 0.0398,4.60576 c 0.0324,3.78225 0.0759,12.61576 0.10816,20.70493 0.0322,8.08918 0.0517,15.49412 0.0388,16.23681 -0.0152,0.88438 0.009,7.877 0.0514,15.67758 0.0442,8.12703 0.0685,14.33251 0.0737,18.55071 0.003,2.10906 -3.1e-4,3.7223 -0.007,4.82825 -0.004,0.55296 -0.007,0.97921 -0.0128,1.27547 -0.003,0.14814 -0.007,0.26413 -0.0103,0.34371 -0.004,0.0796 -0.0163,0.15923 -0.002,0.0822 -0.0633,0.34554 -0.41311,0.95637 -0.90393,1.40709 -0.68774,0.63148 -1.18803,0.88828 -1.80007,0.98212 -0.22426,0.0344 -0.7265,0.0711 -1.15032,0.0867 -0.21191,0.008 -0.40862,0.0115 -0.54513,0.009 -0.06,-6.3e-4 -0.10115,-0.004 -0.12667,-0.006 -0.005,-0.002 -0.0155,-0.004 -0.0155,-0.004 -5.2e-4,-1.3e-4 -0.0481,-0.0102 -0.0606,-0.012 -0.0249,-0.004 -0.0347,-0.005 -0.0449,-0.006 -0.0206,-0.002 -0.0347,-7.8e-4 -0.0506,-0.002 -0.0319,-0.002 -0.0696,-0.004 -0.11732,-0.004 -0.0954,-0.002 -0.23064,-0.005 -0.40262,-0.007 -0.34398,-0.004 -0.83515,-0.007 -1.44134,-0.009 -1.21236,-0.005 -2.87824,-0.008 -4.70683,-0.007 -3.65505,9.7e-4 -8.32543,-0.003 -10.37324,-0.007 -5.82658,-0.0128 -12.05666,-0.0183 -19.00756,-0.0149 -3.51566,0.002 -9.19509,0.002 -12.61756,-8e-5 l -6.09176,-0.003 -0.4763,-0.22497 c -0.54692,-0.25865 -1.27494,-0.93184 -1.6702,-1.586 l -0.21824,-0.35987 -0.13182,-17.4119 c -0.12612,-16.53669 -0.23913,-44.22982 -0.2386,-58.6374 l 0.001,-6.30465 0.2644,-0.53081 c 0.45248,-0.91065 1.62258,-1.77162 2.31251,-1.84883 -0.04,0.004 0.045,-0.002 0.14828,-0.004 0.107,-0.002 0.25783,-0.004 0.4475,-0.006 z m 1.33486,3.4345 c -0.78789,0.004 -1.3843,0.009 -1.57502,0.0157 -0.0349,0.001 -0.0538,1.58341 -0.0419,3.51586 l 0.0217,3.51341 1.05262,-0.007 c 0.97693,-0.006 1.0566,-0.0184 1.10534,-0.17529 0.10572,-0.3404 0.72732,-1.02612 1.15746,-1.27635 1.56296,-0.90925 3.35295,0.51748 3.52417,2.80912 0.0884,1.18389 -0.25717,2.33731 -0.92355,3.08415 -1.23481,1.38385 -3.35119,0.64337 -3.99919,-1.39904 l -0.0938,-0.29551 -0.91234,-0.0368 -0.91181,-0.0368 0.0491,0.33818 c 0.0664,0.45916 0.49954,1.46925 0.84104,1.96113 1.99547,2.87407 5.61034,2.59364 7.13994,-0.55364 0.50537,-1.03991 0.65089,-1.78124 0.5942,-3.02678 -0.0543,-1.19163 -0.3489,-2.11888 -0.9618,-3.02857 -0.49199,-0.73024 -0.93134,-1.11261 -1.71146,-1.49065 -1.30605,-0.63284 -2.68714,-0.49641 -3.7304,0.36928 -0.1968,0.16332 -0.37613,0.29739 -0.39814,0.29753 -0.0222,1.4e-4 -0.0319,-0.44741 -0.0221,-0.99467 0.01,-0.5472 0.0208,-1.17627 0.0245,-1.39749 l 0.007,-0.40209 3.12686,-0.0193 3.12742,-0.0193 0.0211,-0.85488 c 0.0118,-0.47035 -0.002,-0.87001 -0.0314,-0.88763 -0.0281,-0.017 -4.11516,-0.0151 -6.47881,-0.003 z m 10.03827,12.54212 0.004,0.79271 c 0.0187,3.67021 0.11938,36.77896 0.11143,36.79003 l -5.3e-4,10e-6 c -0.005,0.008 -0.003,1.20803 0.006,2.66701 0.0133,2.15645 0.0374,2.64854 0.1284,2.62909 0.0846,-0.018 0.0802,0.0221 -0.0186,0.16496 -0.11536,0.16689 -0.12738,0.8862 -0.0962,6.09906 l 0.036,5.9096 6.54062,-0.0301 c 3.59733,-0.0162 7.37865,-0.0236 8.40318,-0.0157 2.6951,0.0208 18.00041,-0.0531 18.0292,-0.087 0.0134,-0.0158 -0.007,-9.13458 -0.0455,-20.26398 -0.0384,-11.12942 -0.0669,-23.48083 -0.0636,-27.44703 l 0.006,-7.21111 -5.78839,0.002 c -3.18377,7.7e-4 -9.44613,0.0162 -13.9165,0.0348 -4.47037,0.0186 -9.29979,0.0187 -10.73187,1.7e-4 z m 0.42588,0.42733 15.72723,-0.0454 c 8.64976,-0.0248 15.89315,-0.0256 16.09646,-0.002 l 0.36923,0.0432 0.0724,21.5201 c 0.0396,11.83593 0.0649,22.37667 0.0563,23.4245 -0.009,1.04782 -0.009,3.55612 8.2e-4,5.57342 l 0.0166,3.66743 -12.17092,0.0261 c -12.12838,0.0257 -19.92647,0.01 -19.97772,-0.0399 -0.0534,-0.0527 -0.20332,-22.25235 -0.15052,-22.28549 0.0299,-0.0188 0.0324,-4.86346 0.006,-10.766 -0.0265,-5.90252 -0.0385,-11.34151 -0.0266,-12.08666 0.012,-0.74516 0.0121,-3.08203 0.001,-5.19255 z m 6.14345,3.01983 c -0.46255,-0.002 -0.93764,0.17412 -1.32821,0.56992 -0.33402,0.33854 -0.47053,0.70857 -0.4671,1.26434 0.004,0.59327 0.15238,0.9446 0.60569,1.43031 0.388,0.41573 0.36443,0.45731 -0.14057,0.24994 -0.47007,-0.19299 -1.25043,-0.11285 -1.69908,0.17433 -0.34973,0.22375 -0.63327,0.56082 -0.77517,0.92153 -0.12259,0.31162 -0.0979,0.97789 0.049,1.32367 0.26366,0.62037 0.94634,1.10744 1.55252,1.1077 0.8883,5.1e-4 1.71363,-0.57274 1.82671,-1.26808 0.0959,-0.59007 0.23108,-0.41432 0.16929,0.22012 -0.0721,0.73997 -0.39126,1.7917 -0.74451,2.45205 -0.15386,0.28754 -0.26042,0.54191 -0.23681,0.56527 0.0236,0.0233 0.16313,0.007 0.31038,-0.0365 0.14726,-0.0432 0.55398,-0.0799 0.90383,-0.0821 0.34987,-0.002 0.75701,0.0295 0.90479,0.0709 0.14779,0.0416 0.28709,0.0571 0.30926,0.0348 0.0221,-0.0223 -0.10639,-0.35169 -0.28564,-0.73154 -0.17925,-0.37985 -0.40797,-1.01162 -0.5084,-1.40404 -0.19389,-0.75757 -0.24727,-1.48978 -0.10215,-1.40137 0.0468,0.0285 0.0855,0.12739 0.0861,0.2196 5.7e-4,0.0922 0.079,0.31802 0.17417,0.50175 0.52418,1.01209 2.14373,1.12872 2.92002,0.21039 0.63004,-0.74527 0.60362,-1.6731 -0.068,-2.39276 -0.53736,-0.57576 -1.24681,-0.74894 -2.05262,-0.50099 -0.31595,0.0975 -0.3937,0.0995 -0.39424,0.0124 -3.7e-4,-0.0599 0.0973,-0.17398 0.21704,-0.25351 0.28026,-0.18613 0.62009,-0.92939 0.61849,-1.35209 -0.004,-1.06885 -0.77705,-1.79458 -1.64728,-1.89415 -0.0652,-0.008 -0.13141,-0.0114 -0.19748,-0.0117 z m 19.85587,-0.0213 c -0.0655,-6e-4 -0.12892,0.002 -0.19114,0.008 -0.37343,0.0356 -0.69522,0.19844 -1.0309,0.51175 -0.41058,0.38314 -0.54764,0.72547 -0.54968,1.36666 -0.002,0.52072 0.16605,0.895 0.60156,1.34401 0.16754,0.17275 0.28667,0.33231 0.26471,0.35443 -0.0219,0.0221 -0.1913,-0.0127 -0.37617,-0.0773 -0.40856,-0.14269 -0.89906,-0.15201 -1.35154,-0.0253 -0.47182,0.13222 -1.09816,0.79862 -1.20701,1.28338 -0.0453,0.20195 -0.0622,0.5 -0.0378,0.66274 0.28487,1.8875 2.86999,2.18365 3.50519,0.40159 l 0.16611,-0.46665 -0.0333,0.63532 c -0.0387,0.7357 -0.27497,1.5759 -0.67759,2.4108 -0.15594,0.32342 -0.27166,0.59965 -0.25721,0.61398 0.0145,0.0143 0.15665,-0.0126 0.31593,-0.0593 0.35425,-0.10361 1.36331,-0.11333 1.78999,-0.017 0.17255,0.0394 0.32922,0.0546 0.34852,0.0351 0.0193,-0.0195 -0.0964,-0.27963 -0.25731,-0.57824 -0.3449,-0.63991 -0.71809,-1.99587 -0.71788,-2.6099 l 3.2e-4,-0.43358 0.15727,0.44604 c 0.27604,0.78341 0.87543,1.19816 1.72357,1.19292 0.67075,-0.004 1.13686,-0.27314 1.48404,-0.8572 0.32598,-0.54836 0.36303,-1.18011 0.10239,-1.74474 -0.37754,-0.81795 -1.50485,-1.2397 -2.42253,-0.90645 -0.18405,0.0668 -0.3521,0.10479 -0.3731,0.084 -0.021,-0.0208 0.10531,-0.17879 0.28049,-0.35105 1.19048,-1.17057 0.58043,-3.02694 -1.05493,-3.21041 -0.0691,-0.008 -0.13668,-0.0123 -0.20214,-0.0132 z m -33.6861,1.05707 c -1.2529,-0.0113 -2.45607,0.95513 -2.46768,2.41205 -0.005,0.61138 0.24822,1.34728 0.43782,1.27319 0.0903,-0.0353 0.10943,-0.005 0.0725,0.11377 -0.0369,0.11874 0.0529,0.25948 0.33606,0.52658 0.21251,0.20049 0.38689,0.3932 0.38711,0.42809 9.9e-4,0.088 -0.3175,0.0826 -0.37316,-0.007 -0.0824,-0.13151 -1.05899,-0.28403 -1.45561,-0.22718 -1.07836,0.15459 -1.93338,0.93196 -2.13725,1.94284 h -5.3e-4 c -0.31986,1.5861 1.03358,3.09714 2.60025,2.9032 1.08127,-0.13386 1.86093,-0.79309 2.07692,-1.75591 0.22851,-1.01843 0.3335,-0.034 0.11355,1.06488 -0.17725,0.88588 -0.56873,1.99287 -0.96804,2.73817 -0.31955,0.59631 -0.32654,0.62502 -0.1376,0.56464 0.36479,-0.11648 2.13366,-0.16461 2.64751,-0.0721 0.27595,0.0497 0.51349,0.0781 0.528,0.0634 0.0145,-0.0147 -0.11043,-0.28097 -0.27806,-0.59207 -0.60951,-1.13092 -1.02043,-2.49149 -1.08626,-3.59778 -0.0359,-0.60383 0.12435,-0.83272 0.20133,-0.28755 0.27477,1.94665 2.9574,2.53535 4.21433,0.92485 0.37848,-0.48495 0.50593,-0.86232 0.50291,-1.49038 -0.006,-1.05552 -0.75744,-2.05649 -1.74137,-2.31731 -0.48623,-0.12887 -1.29033,-0.0929 -1.76275,0.0791 -0.21964,0.0801 -0.42412,0.12092 -0.45471,0.0906 -0.0306,-0.0302 0.11182,-0.21992 0.31675,-0.42156 0.58552,-0.57614 0.78348,-1.07013 0.77614,-1.93288 -0.007,-0.82576 -0.18152,-1.25358 -0.71624,-1.75725 -0.48259,-0.4546 -1.06247,-0.66179 -1.63195,-0.66691 z m 23.91111,18.49083 c -0.1342,9.1e-4 -0.27451,0.0171 -0.42138,0.0481 -0.53818,0.11371 -0.78167,0.27561 -1.15387,0.76678 -0.5323,0.70244 -0.42327,1.72575 0.2556,2.39626 0.18781,0.1855 0.32876,0.34935 0.31335,0.36446 -0.0154,0.0151 -0.26102,-0.032 -0.54583,-0.10463 -0.43537,-0.11092 -0.59101,-0.1147 -0.97841,-0.0255 -0.5329,0.12274 -1.01083,0.48221 -1.24894,0.93946 -0.20058,0.38588 -0.21508,1.16647 -0.0299,1.6022 0.28488,0.67013 0.85934,1.03121 1.62848,1.02347 0.87928,-0.008 1.4397,-0.40196 1.7268,-1.21215 l 0.15898,-0.44851 -0.0366,0.67772 c -0.0393,0.72596 -0.35318,1.7934 -0.74606,2.53681 -0.12121,0.22943 -0.20896,0.42892 -0.19467,0.44303 0.0143,0.0141 0.28346,-0.0162 0.598,-0.0672 0.39512,-0.0636 0.77264,-0.0669 1.22161,-0.01 0.35741,0.0455 0.65943,0.0733 0.67116,0.0615 0.0117,-0.0119 -0.10968,-0.26608 -0.26964,-0.56471 -0.35517,-0.66304 -0.628,-1.52896 -0.73108,-2.31839 -0.0932,-0.71428 -0.004,-0.88611 0.15167,-0.29291 0.22391,0.85177 1.16248,1.38625 2.04952,1.16765 1.18696,-0.29251 1.77889,-1.51533 1.25217,-2.58643 -0.37905,-0.77085 -1.4425,-1.21458 -2.24393,-0.93597 -0.22439,0.078 -0.43644,0.12485 -0.47118,0.10367 -0.0347,-0.0211 0.0793,-0.19031 0.25349,-0.3757 0.77941,-0.82955 0.71831,-2.0392 -0.1407,-2.78403 -0.31698,-0.27462 -0.66598,-0.40799 -1.06861,-0.40528 z m 25.40785,15.49929 c -0.0196,-0.005 -0.0531,0.003 -0.0981,0.0177 -0.37344,0.11549 -2.13694,0.16435 -2.6408,0.0731 -0.27593,-0.0499 -0.51255,-0.0795 -0.52597,-0.0659 -0.0134,0.0136 0.14395,0.36485 0.34951,0.78076 0.45816,0.92689 0.76893,1.83266 0.89726,2.61553 0.14978,0.9137 0.16284,1.3312 0.0426,1.37385 -0.062,0.022 -0.10615,-0.0341 -0.10678,-0.13576 -0.002,-0.33356 -0.34768,-1.07741 -0.62219,-1.3398 -0.70674,-0.67547 -1.9768,-0.86091 -2.81793,-0.41152 -0.56947,0.30422 -0.98505,0.76809 -1.18712,1.32461 -0.16278,0.44832 -0.10454,1.49549 0.10698,1.92327 0.54642,1.10515 1.96047,1.65337 3.15262,1.22182 0.79079,-0.28625 0.80873,-0.24323 0.17264,0.42167 -0.53393,0.55811 -0.72772,1.05504 -0.71981,1.85088 0.006,0.67039 0.19025,1.11233 0.6814,1.63861 0.51265,0.54929 1.0644,0.75716 1.86784,0.70421 1.00376,-0.0662 1.61983,-0.47727 2.08745,-1.39167 0.17331,-0.33881 0.21678,-0.54443 0.21386,-1.01728 -0.004,-0.71285 -0.25734,-1.27243 -0.86293,-1.91191 -0.21408,-0.22604 -0.36544,-0.43497 -0.3367,-0.46405 0.0287,-0.0291 0.25243,0.0315 0.49694,0.13492 0.59101,0.24996 1.52895,0.20615 2.1316,-0.0995 0.8309,-0.42141 1.34713,-1.27035 1.34135,-2.20611 -0.0102,-1.64536 -1.64313,-2.79619 -3.22008,-2.26944 -0.8057,0.26911 -1.55927,1.14487 -1.55518,1.80745 8.1e-4,0.13057 -0.0366,0.23743 -0.0832,0.23772 -0.13565,8.3e-4 -0.1003,-0.825 0.0704,-1.65152 0.19053,-0.92234 0.48463,-1.73917 0.92775,-2.57721 0.23258,-0.43975 0.29559,-0.57021 0.23669,-0.58438 z m -36.6081,4.04916 c -0.0159,0.0161 0.10387,0.29088 0.26578,0.61022 0.39457,0.77818 0.65047,1.6241 0.71849,2.37326 0.0631,0.69569 -0.003,0.80439 -0.14783,0.24327 -0.0597,-0.23095 -0.21258,-0.48933 -0.39794,-0.67245 -0.97761,-0.96561 -2.55799,-0.59197 -3.0373,0.71796 -0.25663,0.70137 0.0841,1.63463 0.76274,2.08874 0.32534,0.21767 0.43744,0.24424 1.00143,0.23877 0.34924,-0.003 0.76799,-0.0394 0.93072,-0.0802 l 0.29565,-0.0741 -0.30257,0.28816 c -0.83301,0.79228 -0.87419,2.06891 -0.0906,2.82059 0.56981,0.54658 1.65406,0.61961 2.30472,0.15526 0.46063,-0.32874 0.76985,-0.94346 0.76627,-1.52302 -0.003,-0.50301 -0.32184,-1.21248 -0.66438,-1.47852 -0.2664,-0.2068 -0.19905,-0.30778 0.12237,-0.18369 1.31658,0.50837 2.64622,-0.3616 2.63779,-1.72577 -0.004,-0.71891 -0.33139,-1.26346 -0.94506,-1.57344 -1.04025,-0.5255 -2.28369,-0.0481 -2.53394,0.97221 -0.0971,0.39601 -0.24678,0.54492 -0.24861,0.24753 -0.004,-0.61789 0.37127,-1.95858 0.7913,-2.82958 l 0.27296,-0.56703 -0.90195,0.0526 c -0.54731,0.0318 -1.03346,0.0164 -1.23636,-0.0389 -0.18397,-0.0501 -0.34779,-0.0779 -0.36369,-0.0618 z m 19.90238,-0.0226 c -0.0183,6.2e-4 -0.0284,0.003 -0.0283,0.009 1.4e-4,0.022 0.1333,0.31221 0.29546,0.64517 0.34981,0.7185 0.62824,1.66192 0.70833,2.39864 0.0657,0.60501 -0.0766,0.75472 -0.17201,0.18091 -0.11277,-0.67816 -0.91684,-1.2486 -1.75542,-1.24442 -0.6237,0.003 -1.35172,0.52794 -1.65304,1.19207 -0.34564,0.76177 0.13971,1.9286 0.95366,2.29222 0.39223,0.17522 1.15292,0.20235 1.56462,0.0559 0.36143,-0.1285 0.42681,-0.0376 0.13864,0.19189 -0.12873,0.10258 -0.32313,0.38047 -0.4318,0.61762 -0.55387,1.20887 0.15356,2.55355 1.39353,2.64866 0.65265,0.0501 0.97526,-0.0404 1.37122,-0.38366 0.46411,-0.40226 0.6831,-0.84986 0.67976,-1.39016 -0.003,-0.55963 -0.18601,-0.97367 -0.62318,-1.41471 -0.40034,-0.40386 -0.39494,-0.40874 0.25081,-0.22531 1.71577,0.4873 3.10073,-1.33334 2.12271,-2.79026 -0.79588,-1.18562 -2.7117,-0.98277 -3.13785,0.33204 -0.1839,0.56744 -0.26499,0.55101 -0.20335,-0.0411 0.075,-0.71988 0.39404,-1.84031 0.70559,-2.47815 0.13663,-0.27972 0.24847,-0.51981 0.24838,-0.53328 -8e-5,-0.0135 -0.3909,-0.004 -0.86805,0.0224 -0.47715,0.0257 -1.02937,0.0104 -1.22756,-0.0348 -0.14864,-0.0335 -0.27716,-0.0525 -0.33208,-0.0507 z m 15.26772,10.98536 c -0.24155,-0.0105 -0.48495,0.005 -0.72732,0.049 -1.7386,0.31329 -3.03639,1.65689 -3.55232,3.67759 v 5.3e-4 c -0.20184,0.79041 -0.21191,2.20191 -0.0217,3.00983 0.3469,1.47354 1.3246,2.80733 2.45992,3.35622 1.4014,0.67753 2.67149,0.56866 3.76476,-0.32348 l 0.51728,-0.42283 0.009,1.43917 0.009,1.43918 -0.23251,0.004 c -0.12808,0.003 -1.55681,0.01 -3.17496,0.0166 l -2.94244,0.0122 0.006,0.89192 0.005,0.89193 1.16425,-0.002 c 0.64033,-9.6e-4 2.46904,0.008 4.06405,0.0193 l 2.90028,0.0214 -0.0217,-3.51598 -0.0217,-3.51547 -1.05056,0.006 -1.05006,0.006 -0.21218,0.36664 c -1.40419,2.4304 -4.27506,1.28694 -4.52,-1.80041 -0.12935,-1.63057 0.59516,-3.21474 1.68111,-3.67639 0.37772,-0.16063 1.1505,-0.16128 1.54102,-5.2e-4 0.71071,0.29182 1.38251,1.08075 1.68814,1.98227 l 0.14159,0.41717 0.8821,-0.005 c 0.86888,-0.005 0.88209,-0.008 0.88088,-0.20387 -6.7e-4,-0.10912 -0.0736,-0.40508 -0.1622,-0.65735 -0.72058,-2.0531 -2.33357,-3.41076 -4.02444,-3.48406 z" />
  </g>
</svg>
