<?xml version="1.0" encoding="UTF-8" standalone="no"?>
<svg
   sodipodi:docname="5D.svg"
   id="svg8"
   version="1.1"
   viewBox="0 0 63.102509 88.347885"
   height="88.347885mm"
   width="63.102509mm"
   inkscape:version="1.1.1 (1:1.1+202109281949+c3084ef5ed)"
   inkscape:export-filename="/home/doug/k40/52Cards/5D.png"
   inkscape:export-xdpi="96"
   inkscape:export-ydpi="96"
   xmlns:inkscape="http://www.inkscape.org/namespaces/inkscape"
   xmlns:sodipodi="http://sodipodi.sourceforge.net/DTD/sodipodi-0.dtd"
   xmlns="http://www.w3.org/2000/svg"
   xmlns:svg="http://www.w3.org/2000/svg"
   xmlns:rdf="http://www.w3.org/1999/02/22-rdf-syntax-ns#"
   xmlns:cc="http://creativecommons.org/ns#"
   xmlns:dc="http://purl.org/dc/elements/1.1/">
  <defs
     id="defs2">
    <marker
       style="overflow:visible"
       id="marker2995"
       refX="0"
       refY="0"
       orient="auto"
       inkscape:stockid="Arrow1Lstart"
       inkscape:isstock="true">
      <path
         transform="matrix(0.8,0,0,0.8,10,0)"
         style="fill:#000000;fill-opacity:1;fill-rule:evenodd;stroke:#000000;stroke-width:1pt;stroke-opacity:1"
         d="M 0,0 5,-5 -12.5,0 5,5 Z"
         id="path2993" />
    </marker>
    <marker
       style="overflow:visible"
       id="marker2985"
       refX="0"
       refY="0"
       orient="auto"
       inkscape:stockid="Arrow1Lstart"
       inkscape:isstock="true">
      <path
         transform="matrix(0.8,0,0,0.8,10,0)"
         style="fill:#000000;fill-opacity:1;fill-rule:evenodd;stroke:#000000;stroke-width:1pt;stroke-opacity:1"
         d="M 0,0 5,-5 -12.5,0 5,5 Z"
         id="path2983" />
    </marker>
    <marker
       style="overflow:visible"
       id="marker2791"
       refX="0"
       refY="0"
       orient="auto"
       inkscape:stockid="Arrow1Lstart"
       inkscape:isstock="true">
      <path
         transform="matrix(0.8,0,0,0.8,10,0)"
         style="fill:#000000;fill-opacity:1;fill-rule:evenodd;stroke:#000000;stroke-width:1pt;stroke-opacity:1"
         d="M 0,0 5,-5 -12.5,0 5,5 Z"
         id="path2789" />
    </marker>
    <marker
       style="overflow:visible"
       id="marker2781"
       refX="0"
       refY="0"
       orient="auto"
       inkscape:stockid="Arrow1Lstart"
       inkscape:isstock="true">
      <path
         transform="matrix(0.8,0,0,0.8,10,0)"
         style="fill:#000000;fill-opacity:1;fill-rule:evenodd;stroke:#000000;stroke-width:1pt;stroke-opacity:1"
         d="M 0,0 5,-5 -12.5,0 5,5 Z"
         id="path2779" />
    </marker>
    <marker
       style="overflow:visible"
       id="marker2417"
       refX="0"
       refY="0"
       orient="auto"
       inkscape:stockid="Arrow1Lstart"
       inkscape:isstock="true">
      <path
         transform="matrix(0.8,0,0,0.8,10,0)"
         style="fill:#000000;fill-opacity:1;fill-rule:evenodd;stroke:#000000;stroke-width:1pt;stroke-opacity:1"
         d="M 0,0 5,-5 -12.5,0 5,5 Z"
         id="path2415" />
    </marker>
    <marker
       style="overflow:visible"
       id="marker2383"
       refX="0"
       refY="0"
       orient="auto"
       inkscape:stockid="Arrow1Lstart"
       inkscape:isstock="true">
      <path
         transform="matrix(0.8,0,0,0.8,10,0)"
         style="fill:#000000;fill-opacity:1;fill-rule:evenodd;stroke:#000000;stroke-width:1pt;stroke-opacity:1"
         d="M 0,0 5,-5 -12.5,0 5,5 Z"
         id="path2381" />
    </marker>
    <marker
       style="overflow:visible"
       id="marker2355"
       refX="0"
       refY="0"
       orient="auto"
       inkscape:stockid="Arrow1Lstart"
       inkscape:isstock="true">
      <path
         transform="matrix(0.8,0,0,0.8,10,0)"
         style="fill:#000000;fill-opacity:1;fill-rule:evenodd;stroke:#000000;stroke-width:1pt;stroke-opacity:1"
         d="M 0,0 5,-5 -12.5,0 5,5 Z"
         id="path2353" />
    </marker>
    <marker
       style="overflow:visible"
       id="Arrow1Lstart"
       refX="0"
       refY="0"
       orient="auto"
       inkscape:stockid="Arrow1Lstart"
       inkscape:isstock="true">
      <path
         transform="matrix(0.8,0,0,0.8,10,0)"
         style="fill:#000000;fill-opacity:1;fill-rule:evenodd;stroke:#000000;stroke-width:1pt;stroke-opacity:1"
         d="M 0,0 5,-5 -12.5,0 5,5 Z"
         id="path2071" />
    </marker>
  </defs>
  <sodipodi:namedview
     id="base"
     pagecolor="#ffffff"
     bordercolor="#666666"
     borderopacity="1.0"
     inkscape:pageopacity="0.0"
     inkscape:pageshadow="2"
     inkscape:zoom="1.5033844"
     inkscape:cx="86.138981"
     inkscape:cy="167.28922"
     inkscape:document-units="mm"
     inkscape:current-layer="layer1"
     inkscape:document-rotation="0"
     showgrid="false"
     inkscape:snap-smooth-nodes="false"
     inkscape:object-nodes="false"
     inkscape:window-width="1366"
     inkscape:window-height="712"
     inkscape:window-x="0"
     inkscape:window-y="0"
     inkscape:window-maximized="1"
     inkscape:object-paths="false"
     inkscape:snap-intersection-paths="false"
     inkscape:snap-midpoints="false"
     inkscape:snap-others="false"
     inkscape:pagecheckerboard="0"
     showguides="true"
     inkscape:guide-bbox="true"
     inkscape:snap-bbox="true"
     showborder="false"
     fit-margin-top="0"
     fit-margin-left="0"
     fit-margin-right="0"
     fit-margin-bottom="0" />
  <metadata
     id="metadata5">
    <rdf:RDF>
      <cc:Work
         rdf:about="">
        <dc:format>image/svg+xml</dc:format>
        <dc:type
           rdf:resource="http://purl.org/dc/dcmitype/StillImage" />
      </cc:Work>
    </rdf:RDF>
  </metadata>
  <g
     inkscape:label="Layer 1"
     inkscape:groupmode="layer"
     id="layer1"
     transform="translate(401.80546,596.89998)">
    <path
       style="fill:#000000;stroke-width:0.0846667"
       id="path389"
       d="" />
    <path
       id="path11515"
       style="fill:#000000;stroke:none;stroke-width:0.0846667"
       d="m -393.89534,-596.89998 0.004,5.3e-4 c -1.1203,9.8e-4 -2.13535,0.005 -2.77556,0.0124 l -2.32905,0.0258 -0.57721,0.29612 c -0.74232,0.37984 -1.68913,1.3326 -1.98285,1.99522 l -0.20825,0.46922 -0.01,4.57284 c -0.01,2.5151 -0.0142,5.35427 -0.0212,6.30918 -0.01,0.9549 -0.01,3.88913 -0.01,6.52055 0,2.63136 0.01,5.88917 0,7.23984 0,1.35068 -1.9e-4,6.68597 0.01,11.85561 0.01,5.16967 0.0103,10.48584 0.0103,11.81325 0,1.32739 -8e-5,4.87106 0.0129,7.87495 0.018,5.89955 0.019,6.5541 0.032,17.7519 0,4.1052 0.012,7.74899 0.014,8.09665 l 0.001,0.63201 0.19378,0.36793 c 0.32679,0.62016 0.79772,1.1557 1.38182,1.57202 0.99351,0.70771 1.03338,0.71372 4.92476,0.71467 1.32742,3.2e-4 3.09978,0.007 3.93827,0.014 2.4891,0.0218 5.15816,0.0307 9.82316,0.031 2.42192,2.1e-4 4.97528,0.0105 5.6741,0.0233 0.6989,0.0129 3.15669,0.0254 5.46219,0.0284 2.3055,0.003 5.69762,0.0146 7.53753,0.0264 1.83994,0.0117 5.95609,0.0336 9.14672,0.0491 3.19064,0.0154 7.01998,0.0369 8.51059,0.0481 3.07438,0.023 3.48237,-0.001 3.99045,-0.2372 h 0.004 c 1.01219,-0.47016 2.15496,-1.68206 2.34562,-2.48772 0.0404,-0.171 0.0777,-2.38739 0.0817,-4.9258 0.0142,-8.09741 0.008,-17.79325 -0.014,-21.67877 -0.0116,-2.07235 -0.0228,-5.92053 -0.0258,-8.55194 -0.002,-2.63141 -0.008,-7.01386 -0.0124,-9.73841 -0.02,-13.76802 -0.0233,-26.62158 -0.01,-33.09774 l 0.01,-4.60282 -0.29353,-0.55758 c -0.52456,-0.99563 -1.77516,-2.04706 -2.61016,-2.19469 -0.44011,-0.0778 -2.16631,-0.0939 -12.87362,-0.11835 -1.25757,-0.003 -2.80088,-0.0116 -3.42977,-0.0186 -0.62889,-0.007 -2.38223,-0.0131 -3.89588,-0.0129 -2.81827,3.9e-4 -12.30347,-0.0289 -15.79388,-0.0486 -1.0713,-0.006 -3.5292,-0.0179 -5.46219,-0.0269 -1.93302,-0.009 -5.24873,-0.026 -7.36804,-0.0367 -1.05971,-0.005 -2.28518,-0.007 -3.40548,-0.006 z m -4.04987,0.5085 h 5e-4 c 2.647,-0.0141 12.9395,0.0446 23.60891,0.13848 2.11971,0.0184 8.02338,0.0648 13.12269,0.10285 5.09911,0.038 11.6717,0.0878 14.60482,0.11213 l 5.19141,0.0418 0.42426,0.22739 c 0.5733,0.30675 1.35494,1.10077 1.58388,1.56424 l 0.18706,0.38034 0.0114,4.60592 c 0.009,3.78238 -0.002,12.61599 -0.0196,20.7052 -0.0178,8.08922 -0.044,15.49414 -0.0615,16.23674 -0.0207,0.88427 -0.0393,7.87691 -0.0455,15.6776 -0.006,8.12718 -0.02,14.33266 -0.0408,18.55081 -0.0104,2.10907 -0.0233,3.72226 -0.0372,4.82811 -0.007,0.55293 -0.013,0.97917 -0.0207,1.27537 -0.004,0.14812 -0.009,0.26409 -0.0124,0.34367 -0.004,0.0796 -0.0173,0.1591 -0.003,0.0822 -0.0654,0.34514 -0.41899,0.95379 -0.9126,1.40147 -0.69162,0.62722 -1.19345,0.88093 -1.80607,0.97099 -0.22447,0.033 -0.72694,0.0666 -1.15086,0.0796 -0.21196,0.007 -0.40867,0.009 -0.54517,0.006 -0.06,-0.001 -0.10113,-0.005 -0.12661,-0.007 -0.005,-0.002 -0.0155,-0.004 -0.0155,-0.004 -5.3e-4,-1.3e-4 -0.048,-0.0105 -0.0605,-0.0124 -0.0249,-0.004 -0.0347,-0.005 -0.045,-0.006 -0.0206,-0.002 -0.0348,-0.001 -0.0506,-0.002 -0.0319,-0.002 -0.0696,-0.004 -0.11732,-0.005 -0.0954,-0.003 -0.23061,-0.006 -0.40256,-0.009 -0.34396,-0.006 -0.83511,-0.0117 -1.44127,-0.0181 -1.21226,-0.0127 -2.87813,-0.0255 -4.70667,-0.0362 -3.65498,-0.0216 -8.32527,-0.0541 -10.37301,-0.0713 -5.82637,-0.0488 -12.05633,-0.0927 -19.00712,-0.1323 -3.51559,-0.02 -9.1949,-0.0549 -12.61731,-0.078 l -6.09161,-0.0403 -0.4749,-0.22791 c -0.54531,-0.26202 -1.26918,-0.93969 -1.66037,-1.59628 l -0.216,-0.36121 -0.0238,-17.41236 c -0.024,-16.53718 0.034,-44.23048 0.12351,-58.63778 l 0.0398,-6.30452 0.26768,-0.52917 c 0.4581,-0.90783 1.63349,-1.76157 2.32389,-1.83451 -0.04,0.004 0.045,-0.002 0.14832,-0.003 0.107,-10e-4 0.25781,-0.002 0.44752,-0.003 z m -0.41238,3.63286 -0.0103,1.6278 c -0.006,0.89511 10e-4,2.46528 0.0155,3.48972 l 0.0248,1.86293 1.03404,-10e-4 1.03352,-10e-4 0.15814,-0.3292 c 0.17351,-0.36237 0.76129,-0.97134 1.13686,-1.17768 1.04111,-0.57201 2.30524,-0.0424 2.98328,1.24952 0.58127,1.10746 0.65681,2.36622 0.21601,3.60082 -0.85664,2.39932 -3.24072,2.59418 -4.39404,0.35967 -0.18164,-0.35197 -0.3529,-0.71853 -0.38084,-0.81547 -0.0476,-0.165 -0.10851,-0.17473 -0.95449,-0.15346 l -0.90381,0.0222 0.0625,0.2739 c 0.12682,0.55787 0.52917,1.42549 0.93327,2.01176 1.11059,1.61128 2.73709,2.31195 4.31342,1.8588 1.99911,-0.57476 3.31722,-2.50008 3.38326,-4.94337 0.0316,-1.16888 -0.15479,-1.98726 -0.68522,-3.01223 -0.51576,-0.9966 -1.16221,-1.63449 -2.09238,-2.06549 -0.65524,-0.30367 -0.69043,-0.30981 -1.6056,-0.28681 -0.82685,0.0208 -0.98176,0.0488 -1.33736,0.24185 -0.2213,0.12012 -0.54581,0.34722 -0.72091,0.50488 -0.17508,0.15767 -0.34645,0.28747 -0.38084,0.28834 -0.0693,0.002 -0.037,-2.69891 0.0336,-2.81998 0.025,-0.0427 0.7901,-0.0725 1.7503,-0.0677 0.93821,0.005 2.33426,0.002 3.10264,-0.007 l 1.39734,-0.016 -0.0212,-0.84646 -0.0212,-0.84645 -2.1177,-10e-4 c -1.16451,-7.7e-4 -2.98016,-0.001 -4.0349,-0.001 z m 44.52647,12.52223 -1.76681,0.0331 c -0.97142,0.0181 -1.86196,0.0239 -1.97869,0.0124 -0.11673,-0.0115 -1.54593,-0.0122 -3.17603,-0.003 -1.6301,0.01 -3.30642,0.0107 -3.72586,0.002 -0.41945,-0.008 -2.11551,-0.004 -3.76878,0.0103 -1.6533,0.0143 -3.36788,0.0192 -3.81061,0.0108 -0.44273,-0.008 -2.00559,-0.007 -3.47266,0.004 -1.46706,0.0102 -2.93391,0.009 -3.26027,-0.003 -0.53914,-0.0198 -6.40567,-0.002 -7.62228,0.0238 l -0.5085,0.0103 -0.005,1.90582 c -0.003,1.04817 0.005,3.27708 0.0165,4.95371 0.0117,1.67664 0.026,4.66863 0.032,6.64816 0.006,1.97959 0.0139,4.55203 0.0176,5.71646 0.004,1.16446 0.005,2.8222 0.003,3.684 -0.002,0.86186 0.006,3.43382 0.0191,5.71596 0.022,3.9344 0.0276,5.7835 0.0274,9.4852 -3e-5,0.88503 0.0121,3.74285 0.0269,6.35103 0.0149,2.608 0.0292,5.98062 0.0315,7.49465 0.002,1.51344 0.01,2.80924 0.016,2.87887 0.0107,0.1083 0.37616,0.1252 2.51042,0.11576 1.37343,-0.006 3.50692,-0.0106 4.74134,-0.0104 2.7388,7.2e-4 8.17261,-0.004 10.75539,-0.0103 1.04804,-0.002 3.52541,-0.004 5.5051,-0.005 5.36226,-10e-4 9.5263,-0.0111 9.54101,-0.0222 0.0435,-0.0328 0.0454,-3.80444 0.005,-9.36842 -0.01,-1.32733 -0.0211,-3.2902 -0.0253,-4.36149 -0.004,-1.07128 -0.0154,-3.05224 -0.0253,-4.40283 -0.01,-1.35064 -0.0104,-2.89436 -10e-4,-3.43027 0.009,-0.53591 0.006,-2.15556 -0.006,-3.59926 -0.0122,-1.44372 -0.0242,-3.44426 -0.0269,-4.44574 -0.003,-1.00142 -0.009,-2.75423 -0.0139,-3.89535 -0.005,-1.14113 -0.007,-2.7422 -0.005,-3.55741 0.009,-3.05575 -0.007,-7.46577 -0.0429,-11.8556 -0.0116,-1.42045 -0.0179,-3.37109 -0.0139,-4.33462 z m -2.97604,0.41082 c 0.62931,-7.2e-4 1.0895,0.002 1.22939,0.007 0.27974,0.011 0.6936,0.0171 0.91982,0.0124 l 0.41188,-0.008 0.005,2.2655 c 0.003,1.246 0.004,2.95142 0.002,3.78994 -10e-4,0.83849 0.008,2.74407 0.0212,4.23437 0.0132,1.49024 0.0193,3.26162 0.0139,3.93721 -0.005,0.67556 4.2e-4,2.4098 0.0124,3.85352 0.012,1.44373 0.0175,3.17797 0.0124,3.85353 -0.005,0.67553 -10e-4,2.35249 0.009,3.72636 0.0268,3.52862 0.0404,6.38128 0.0476,10.2888 0.003,1.86317 0.0202,4.77835 0.0372,6.47814 0.0171,1.69979 0.027,3.64305 0.0222,4.31861 -0.005,0.67556 9.3e-4,2.62874 0.0134,4.3403 l 0.0217,3.11195 -1.02423,0.0248 c -0.56354,0.0138 -2.3399,0.022 -3.94705,0.0181 -4.87921,-0.0116 -6.29465,-0.0108 -8.76586,0.006 -1.30408,0.009 -2.9237,0.0112 -3.59926,0.006 -0.67556,-0.005 -2.2188,-0.005 -3.42977,0 -1.211,0.005 -2.6784,0.005 -3.26078,-10e-4 -0.58242,-0.005 -2.48785,-6.6e-4 -4.23439,0.0103 -1.74651,0.0108 -3.27125,0.014 -3.38788,0.008 -0.11663,-0.006 -0.31679,-0.0133 -0.44495,-0.016 l -5e-4,-5e-4 -0.23308,-0.005 -0.0165,-0.66249 c -0.009,-0.36468 -0.002,-0.67987 0.015,-0.69972 0.0174,-0.0198 0.017,-1.57932 -10e-4,-3.4654 -0.0179,-1.88611 -0.0255,-3.84784 -0.0165,-4.36047 0.009,-0.51263 1.8e-4,-2.39914 -0.0196,-4.19201 -0.0197,-1.79287 -0.0299,-3.69847 -0.0227,-4.23436 0.007,-0.53586 0.0102,-1.92736 0.005,-3.09179 -0.004,-1.16443 -0.0107,-2.95492 -0.0139,-3.9796 -0.003,-1.0247 -0.0168,-3.08258 -0.0305,-4.57284 -0.0136,-1.4903 -0.0205,-3.26218 -0.015,-3.93774 0.005,-0.67559 0.002,-2.31431 -0.007,-3.64165 -0.009,-1.32734 -0.0159,-3.11886 -0.015,-3.98063 9.3e-4,-0.86177 -0.005,-2.57641 -0.0129,-3.81063 -0.0315,-4.87236 -0.041,-7.4453 -0.031,-8.21447 0.006,-0.44267 0.009,-0.93327 0.007,-1.09037 l -0.002,-0.28578 2.51923,-0.007 c 1.3857,-0.004 2.92031,-10e-4 3.40961,0.006 0.48929,0.007 1.99435,0.008 3.34502,5e-4 1.35067,-0.007 3.97986,-0.0154 5.84306,-0.0181 1.86317,-0.003 4.28336,-0.007 5.37795,-0.0104 1.0946,-0.003 2.44736,7.4e-4 3.00653,0.009 0.5592,0.008 2.35062,0.004 3.98063,-0.009 0.81503,-0.007 1.61346,-0.0106 2.24277,-0.0114 z m -3.23183,3.12798 c -0.0282,-0.002 -0.23609,0.33991 -0.46199,0.76068 -0.64471,1.20076 -1.53972,2.46745 -2.34818,3.32279 l -0.7426,0.78497 0.56949,0.62116 c 0.31326,0.34147 0.70971,0.78894 0.88106,0.99425 0.37782,0.45265 1.44968,2.13836 1.80094,2.83237 0.14017,0.27702 0.28138,0.5031 0.31366,0.50231 0.0323,-8.2e-4 0.20463,-0.28424 0.38293,-0.62942 0.74684,-1.44576 1.82184,-2.95995 2.73111,-3.84783 0.21736,-0.21225 0.3941,-0.41342 0.39325,-0.44699 -8.4e-4,-0.0335 -0.21389,-0.27133 -0.47336,-0.52814 -0.8726,-0.86365 -1.87402,-2.23829 -2.51405,-3.45096 -0.2644,-0.50096 -0.504,-0.91291 -0.53226,-0.91519 z m -20.64734,0.0605 c -0.0323,0.0404 -0.30935,0.51752 -0.61545,1.06092 -0.64508,1.14501 -1.55594,2.38763 -2.34095,3.19257 -0.30271,0.31038 -0.5551,0.57859 -0.56068,0.59531 -0.005,0.0167 0.27006,0.31396 0.61132,0.66146 0.73726,0.75068 1.97577,2.50127 2.53008,3.57497 0.2182,0.4226 0.41759,0.767 0.44285,0.76637 0.0253,-8.2e-4 0.18323,-0.28617 0.3509,-0.63408 0.61555,-1.27714 1.72423,-2.86506 2.66546,-3.81836 l 0.5302,-0.53692 -0.58962,-0.60512 c -0.54677,-0.56097 -1.51469,-1.79261 -1.94612,-2.47634 -0.10128,-0.1605 -0.37232,-0.64307 -0.60203,-1.07281 -0.22972,-0.42974 -0.44368,-0.7484 -0.47596,-0.70797 z m -13.35887,1.00975 c -0.0362,0.0416 -0.16531,0.26842 -0.28681,0.50438 -1.11445,2.16432 -2.6267,4.33435 -3.9057,5.60379 -0.38518,0.38235 -0.70469,0.71708 -0.71003,0.74414 -0.005,0.0271 0.22913,0.28798 0.52091,0.57981 0.84095,0.84114 1.2323,1.2976 1.91254,2.23189 0.67061,0.9211 1.94339,2.99104 2.29547,3.73259 0.11475,0.24164 0.23024,0.43839 0.25683,0.4377 0.0266,-8.2e-4 0.2852,-0.45225 0.57412,-1.00354 1.09337,-2.0864 2.12008,-3.56002 3.51605,-5.04724 l 0.87387,-0.93173 -0.33849,-0.31007 c -0.42867,-0.39235 -1.64554,-1.80012 -2.16783,-2.50836 -0.59598,-0.80811 -1.44823,-2.17707 -1.99213,-3.19981 -0.2658,-0.49975 -0.51263,-0.87506 -0.5488,-0.83355 z m 23.75152,17.98392 c -0.0351,9e-4 -0.14008,0.16885 -0.23305,0.37311 -0.52012,1.14274 -1.87605,3.0562 -2.88666,4.07469 -0.2273,0.22908 -0.41325,0.429 -0.41288,0.44389 3.7e-4,0.0149 0.18111,0.20252 0.401,0.41754 0.87416,0.85484 1.92241,2.32328 2.80551,3.92949 0.17704,0.322 0.34859,0.58475 0.38137,0.58393 0.0328,-8.2e-4 0.13894,-0.17597 0.23617,-0.38962 0.55449,-1.2183 1.96027,-3.23469 2.85358,-4.09329 l 0.46302,-0.44495 -0.43203,-0.42789 c -1.01471,-1.00573 -2.36535,-2.88729 -2.93108,-4.08397 -0.1001,-0.21172 -0.20987,-0.38381 -0.24495,-0.38293 z m 23.69986,13.97074 c -0.0321,7.9e-4 -0.16452,0.22344 -0.29406,0.49453 -0.12954,0.27109 -0.39372,0.78266 -0.58756,1.13689 -0.8791,1.60668 -1.98506,3.11354 -3.25768,4.43796 l -0.82889,0.86196 0.68369,0.68678 c 1.3385,1.34469 2.71431,3.27853 3.7579,5.28391 0.27951,0.53705 0.53163,0.97909 0.56071,0.98134 0.0291,0.003 0.26085,-0.39153 0.51572,-0.8754 0.62712,-1.19068 1.86394,-3.13729 2.52905,-3.98063 0.2998,-0.38018 0.86206,-1.01494 1.24952,-1.41025 l 0.70488,-0.71882 -0.56277,-0.55499 c -0.57838,-0.57042 -1.26728,-1.31713 -1.60404,-1.73839 -0.65669,-0.82162 -2.19205,-3.27044 -2.58588,-4.12483 -0.12205,-0.26477 -0.24852,-0.48088 -0.28059,-0.48006 z m -33.92146,4.97694 -0.26509,0.50694 c -0.72988,1.39655 -1.88653,3.05266 -2.7125,3.88401 -0.27774,0.27953 -0.50962,0.53811 -0.5147,0.57515 -0.005,0.037 0.28467,0.38854 0.64492,0.78033 0.36029,0.39175 0.90554,1.07188 1.21129,1.51152 0.64371,0.92559 1.55385,2.43279 1.55753,2.57918 0.005,0.2136 0.17639,0.0798 0.34263,-0.26821 0.59034,-1.236 1.81647,-3.01125 2.76209,-3.99923 l 0.59428,-0.62063 -0.19481,-0.12867 c -0.67366,-0.44701 -2.73669,-3.2848 -3.29748,-4.53514 z m 20.60961,0.0181 c -0.0317,0.002 -0.25551,0.37949 -0.49712,0.8387 -0.65098,1.23727 -1.50347,2.45655 -2.30066,3.29179 -0.38904,0.40762 -0.71374,0.75245 -0.72139,0.76584 -0.008,0.0134 0.32364,0.4047 0.73689,0.87024 0.9112,1.02642 1.62777,2.04636 2.27947,3.24321 0.42661,0.78351 0.65593,1.0727 0.64955,0.8196 -0.004,-0.16158 0.77462,-1.55755 1.32292,-2.37247 0.31882,-0.47384 0.91977,-1.23219 1.33585,-1.68518 l 0.75653,-0.82373 -0.6041,-0.6201 c -0.86395,-0.88644 -2.57564,-3.38635 -2.83549,-4.14187 -0.0357,-0.10388 -0.0906,-0.18783 -0.12245,-0.18603 z m 13.40073,12.00131 c -0.13875,10e-4 -0.27528,0.009 -0.41032,0.0243 l -5e-4,5.3e-4 c -1.8905,0.2082 -3.38895,1.74829 -3.8339,4.04524 h 5.3e-4 c -0.14049,0.72369 -0.10546,1.99946 0.0729,2.66028 0.0819,0.30369 0.31131,0.87202 0.50951,1.26299 0.81674,1.61094 2.50378,2.60652 4.06643,2.39932 0.62561,-0.0829 1.4083,-0.4591 1.74924,-0.84076 0.13309,-0.14894 0.27797,-0.27173 0.32195,-0.27284 0.0586,-10e-4 0.0985,2.35767 0.0486,2.8675 -0.002,0.0251 -5.29039,0.0658 -6.10039,0.047 -0.21119,-0.005 -0.21201,-0.002 -0.21447,0.85215 l -0.002,0.8573 0.32144,0.0398 c 0.17677,0.0219 0.83542,0.0304 1.46399,0.0186 1.36131,-0.0252 3.77325,-0.024 5.27254,0.002 l 1.08003,0.0191 -0.002,-0.44854 c -9e-4,-0.24673 0.006,-0.56333 0.016,-0.70332 0.01,-0.13999 0.01,-1.51887 -0.001,-3.0644 l -0.0191,-2.81017 -0.86868,-0.005 c -0.47784,-0.003 -0.95054,0.009 -1.05008,0.0253 -0.10882,0.0183 -0.2939,0.20978 -0.46405,0.48059 -0.41188,0.65553 -1.05969,1.10008 -1.71514,1.17615 -0.96462,0.112 -1.74405,-0.37635 -2.32233,-1.45624 -0.93519,-1.74633 -0.38957,-4.36862 1.07538,-5.1697 0.83005,-0.45389 1.93389,-0.23963 2.6267,0.51057 0.27932,0.30242 0.8618,1.39692 0.86765,1.63039 0.003,0.11224 0.14621,0.12933 0.93276,0.10954 l 0.92864,-0.0233 -0.0579,-0.2744 c -0.20468,-0.96568 -1.04293,-2.36186 -1.81179,-3.01892 -0.55835,-0.47718 -1.4206,-0.86395 -2.0588,-0.92295 -0.14205,-0.0131 -0.28292,-0.0191 -0.42166,-0.0181 z" />
  </g>
</svg>
