<?xml version="1.0" encoding="UTF-8" standalone="no"?>
<svg
   sodipodi:docname="5H.svg"
   id="svg8"
   version="1.1"
   viewBox="0 0 63.263908 88.129311"
   height="88.129311mm"
   width="63.263908mm"
   inkscape:version="1.1.1 (1:1.1+202109281949+c3084ef5ed)"
   inkscape:export-filename="/home/doug/k40/52Cards/5H.png"
   inkscape:export-xdpi="96"
   inkscape:export-ydpi="96"
   xmlns:inkscape="http://www.inkscape.org/namespaces/inkscape"
   xmlns:sodipodi="http://sodipodi.sourceforge.net/DTD/sodipodi-0.dtd"
   xmlns="http://www.w3.org/2000/svg"
   xmlns:svg="http://www.w3.org/2000/svg"
   xmlns:rdf="http://www.w3.org/1999/02/22-rdf-syntax-ns#"
   xmlns:cc="http://creativecommons.org/ns#"
   xmlns:dc="http://purl.org/dc/elements/1.1/">
  <defs
     id="defs2">
    <marker
       style="overflow:visible"
       id="marker2995"
       refX="0"
       refY="0"
       orient="auto"
       inkscape:stockid="Arrow1Lstart"
       inkscape:isstock="true">
      <path
         transform="matrix(0.8,0,0,0.8,10,0)"
         style="fill:#000000;fill-opacity:1;fill-rule:evenodd;stroke:#000000;stroke-width:1pt;stroke-opacity:1"
         d="M 0,0 5,-5 -12.5,0 5,5 Z"
         id="path2993" />
    </marker>
    <marker
       style="overflow:visible"
       id="marker2985"
       refX="0"
       refY="0"
       orient="auto"
       inkscape:stockid="Arrow1Lstart"
       inkscape:isstock="true">
      <path
         transform="matrix(0.8,0,0,0.8,10,0)"
         style="fill:#000000;fill-opacity:1;fill-rule:evenodd;stroke:#000000;stroke-width:1pt;stroke-opacity:1"
         d="M 0,0 5,-5 -12.5,0 5,5 Z"
         id="path2983" />
    </marker>
    <marker
       style="overflow:visible"
       id="marker2791"
       refX="0"
       refY="0"
       orient="auto"
       inkscape:stockid="Arrow1Lstart"
       inkscape:isstock="true">
      <path
         transform="matrix(0.8,0,0,0.8,10,0)"
         style="fill:#000000;fill-opacity:1;fill-rule:evenodd;stroke:#000000;stroke-width:1pt;stroke-opacity:1"
         d="M 0,0 5,-5 -12.5,0 5,5 Z"
         id="path2789" />
    </marker>
    <marker
       style="overflow:visible"
       id="marker2781"
       refX="0"
       refY="0"
       orient="auto"
       inkscape:stockid="Arrow1Lstart"
       inkscape:isstock="true">
      <path
         transform="matrix(0.8,0,0,0.8,10,0)"
         style="fill:#000000;fill-opacity:1;fill-rule:evenodd;stroke:#000000;stroke-width:1pt;stroke-opacity:1"
         d="M 0,0 5,-5 -12.5,0 5,5 Z"
         id="path2779" />
    </marker>
    <marker
       style="overflow:visible"
       id="marker2417"
       refX="0"
       refY="0"
       orient="auto"
       inkscape:stockid="Arrow1Lstart"
       inkscape:isstock="true">
      <path
         transform="matrix(0.8,0,0,0.8,10,0)"
         style="fill:#000000;fill-opacity:1;fill-rule:evenodd;stroke:#000000;stroke-width:1pt;stroke-opacity:1"
         d="M 0,0 5,-5 -12.5,0 5,5 Z"
         id="path2415" />
    </marker>
    <marker
       style="overflow:visible"
       id="marker2383"
       refX="0"
       refY="0"
       orient="auto"
       inkscape:stockid="Arrow1Lstart"
       inkscape:isstock="true">
      <path
         transform="matrix(0.8,0,0,0.8,10,0)"
         style="fill:#000000;fill-opacity:1;fill-rule:evenodd;stroke:#000000;stroke-width:1pt;stroke-opacity:1"
         d="M 0,0 5,-5 -12.5,0 5,5 Z"
         id="path2381" />
    </marker>
    <marker
       style="overflow:visible"
       id="marker2355"
       refX="0"
       refY="0"
       orient="auto"
       inkscape:stockid="Arrow1Lstart"
       inkscape:isstock="true">
      <path
         transform="matrix(0.8,0,0,0.8,10,0)"
         style="fill:#000000;fill-opacity:1;fill-rule:evenodd;stroke:#000000;stroke-width:1pt;stroke-opacity:1"
         d="M 0,0 5,-5 -12.5,0 5,5 Z"
         id="path2353" />
    </marker>
    <marker
       style="overflow:visible"
       id="Arrow1Lstart"
       refX="0"
       refY="0"
       orient="auto"
       inkscape:stockid="Arrow1Lstart"
       inkscape:isstock="true">
      <path
         transform="matrix(0.8,0,0,0.8,10,0)"
         style="fill:#000000;fill-opacity:1;fill-rule:evenodd;stroke:#000000;stroke-width:1pt;stroke-opacity:1"
         d="M 0,0 5,-5 -12.5,0 5,5 Z"
         id="path2071" />
    </marker>
  </defs>
  <sodipodi:namedview
     id="base"
     pagecolor="#ffffff"
     bordercolor="#666666"
     borderopacity="1.0"
     inkscape:pageopacity="0.0"
     inkscape:pageshadow="2"
     inkscape:zoom="1.5071131"
     inkscape:cx="85.925867"
     inkscape:cy="166.87533"
     inkscape:document-units="mm"
     inkscape:current-layer="layer1"
     inkscape:document-rotation="0"
     showgrid="false"
     inkscape:snap-smooth-nodes="false"
     inkscape:object-nodes="false"
     inkscape:window-width="1366"
     inkscape:window-height="712"
     inkscape:window-x="0"
     inkscape:window-y="0"
     inkscape:window-maximized="1"
     inkscape:object-paths="false"
     inkscape:snap-intersection-paths="false"
     inkscape:snap-midpoints="false"
     inkscape:snap-others="false"
     inkscape:pagecheckerboard="0"
     showguides="true"
     inkscape:guide-bbox="true"
     inkscape:snap-bbox="true"
     showborder="false"
     fit-margin-top="0"
     fit-margin-left="0"
     fit-margin-right="0"
     fit-margin-bottom="0" />
  <metadata
     id="metadata5">
    <rdf:RDF>
      <cc:Work
         rdf:about="">
        <dc:format>image/svg+xml</dc:format>
        <dc:type
           rdf:resource="http://purl.org/dc/dcmitype/StillImage" />
      </cc:Work>
    </rdf:RDF>
  </metadata>
  <g
     inkscape:label="Layer 1"
     inkscape:groupmode="layer"
     id="layer1"
     transform="translate(401.88616,353.52733)">
    <path
       id="path1614-1"
       style="color:#000000;font-style:normal;font-variant:normal;font-weight:normal;font-stretch:normal;font-size:medium;line-height:normal;font-family:sans-serif;font-variant-ligatures:normal;font-variant-position:normal;font-variant-caps:normal;font-variant-numeric:normal;font-variant-alternates:normal;font-variant-east-asian:normal;font-feature-settings:normal;font-variation-settings:normal;text-indent:0;text-align:start;text-decoration:none;text-decoration-line:none;text-decoration-style:solid;text-decoration-color:#000000;letter-spacing:normal;word-spacing:normal;text-transform:none;writing-mode:lr-tb;direction:ltr;text-orientation:mixed;dominant-baseline:auto;baseline-shift:baseline;text-anchor:start;white-space:normal;shape-padding:0;shape-margin:0;inline-size:0;clip-rule:nonzero;display:inline;overflow:visible;visibility:visible;isolation:auto;mix-blend-mode:normal;color-interpolation:sRGB;color-interpolation-filters:linearRGB;solid-color:#000000;solid-opacity:1;vector-effect:none;fill:#000000;fill-opacity:1;fill-rule:nonzero;stroke:none;stroke-width:0.264999;stroke-linecap:butt;stroke-linejoin:miter;stroke-miterlimit:4;stroke-dasharray:none;stroke-dashoffset:0;stroke-opacity:1;color-rendering:auto;image-rendering:auto;shape-rendering:auto;text-rendering:auto;enable-background:accumulate;stop-color:#000000"
       d="m -344.25298,-353.52655 v 5.2e-4 c -4.41841,-0.006 -14.60201,0.009 -26.31932,0.0398 l -28.39775,0.0765 -0.36277,0.13332 c -0.84667,0.31236 -1.83331,1.23811 -2.33681,2.19987 l -0.21653,0.41496 0.16434,41.17991 0.16433,41.18043 0.31109,0.62425 c 0.57872,1.16418 1.79999,2.10452 2.91042,2.24896 0.008,10e-4 0.0801,0.005 0.19171,0.007 0.11161,0.002 0.26895,0.004 0.46974,0.006 0.40159,0.004 0.97632,0.006 1.70533,0.009 1.45796,0.005 3.5324,0.008 6.06991,0.008 5.07503,2.7e-4 12.00306,-0.009 19.5585,-0.0269 7.55544,-0.0182 14.42524,-0.033 19.40812,-0.0424 2.49142,-0.005 4.51095,-0.008 5.90816,-0.01 0.69861,-7.9e-4 1.24154,-0.001 1.61024,-0.001 0.18434,0 0.32525,2.4e-4 0.42013,5.2e-4 0.0474,1.3e-4 0.0837,-1.9e-4 0.108,0 0.0119,0 0.0219,5.1e-4 0.0279,5.1e-4 0.003,6e-5 0.005,-7e-5 0.008,0 0,0 4.3e-4,5.2e-4 0.004,5.2e-4 0.003,1.1e-4 0.0264,0.0108 0.0264,0.0108 0,0 -0.008,-0.005 -0.007,-0.005 0,0 -0.004,-0.002 -0.004,-0.003 -0.003,-0.001 -0.005,-0.001 -0.005,-0.002 0.001,10e-5 0.002,-1.4e-4 0.004,0 0.008,5.3e-4 0.0204,10e-4 0.0367,0.002 0.0326,2.6e-4 0.0802,-7.6e-4 0.13746,-0.002 0.1147,-0.003 0.27066,-0.008 0.44029,-0.0165 0.39928,-0.0196 0.81105,-0.10715 1.18959,-0.25218 l 0.57722,-0.22117 0.63769,-0.61443 c 0.7914,-0.76298 1.07134,-1.28566 1.17564,-2.19057 0.003,-0.017 0.004,-0.10749 0.007,-0.2527 0.003,-0.14522 0.005,-0.34999 0.005,-0.61236 0.003,-0.52474 0.003,-1.28036 0.003,-2.25361 -0.003,-1.9465 -0.009,-4.76389 -0.0227,-8.34781 -0.0273,-7.16783 -0.0783,-17.40219 -0.14986,-29.8695 l -0.23358,-40.674 -0.12558,-0.37414 c -0.25688,-0.76525 -1.06566,-1.58852 -2.05362,-2.07946 -0.2564,-0.1274 -0.58636,-0.25485 -0.71365,-0.27905 0.005,0.002 -0.003,-2.5e-4 -0.01,-5.2e-4 -0.008,-10e-4 -0.0188,-10e-4 -0.0331,-0.002 -0.0286,-10e-4 -0.0696,-10e-4 -0.12247,-0.002 -0.10576,-10e-4 -0.25906,-0.002 -0.45734,-0.003 -0.39638,-0.002 -0.97284,-0.004 -1.70894,-0.005 z m -45.18949,0.57981 c 4.23776,-0.006 9.47867,-0.006 14.81357,0.002 2.11976,0.003 8.02321,0.007 13.12271,0.008 5.09925,10e-4 11.67261,0.003 14.60583,0.006 l 5.19141,0.004 0.42582,0.22479 c 0.57552,0.30258 1.36294,1.09105 1.59525,1.55287 l 0.18965,0.37879 0.045,4.60541 c 0.0366,3.78221 0.0897,12.61606 0.13074,20.70519 0.041,8.08913 0.0689,15.49351 0.0568,16.23621 -0.0143,0.88442 0.0177,7.87707 0.0682,15.6776 0.0526,8.127 0.0837,14.33263 0.0935,18.55081 0.005,2.10909 0.004,3.72219 -0.002,4.82813 -0.003,0.55296 -0.006,0.9791 -0.0119,1.27537 -0.003,0.14813 -0.007,0.26458 -0.01,0.34416 -0.003,0.0796 -0.0161,0.15875 -0.002,0.0816 -0.0629,0.34561 -0.41193,0.95696 -0.90227,1.40819 -0.68704,0.63224 -1.18693,0.88993 -1.79886,0.98443 -0.22423,0.0346 -0.72649,0.0718 -1.15031,0.0879 -0.21191,0.008 -0.40814,0.0119 -0.54467,0.01 -0.06,-9.3e-4 -0.10166,-0.004 -0.12713,-0.006 -0.005,-0.002 -0.0154,-0.004 -0.0155,-0.004 -5.2e-4,-1.3e-4 -0.048,-0.01 -0.0605,-0.0114 -0.025,-0.004 -0.0347,-0.005 -0.045,-0.006 -0.0206,-0.002 -0.0352,-0.001 -0.0512,-0.002 -0.0319,-0.001 -0.0691,-0.003 -0.11679,-0.004 -0.0954,-0.002 -0.23058,-0.004 -0.40256,-0.006 -0.34397,-0.003 -0.83507,-0.006 -1.44125,-0.008 -1.21237,-0.004 -2.87866,-0.004 -4.70721,-0.002 -3.65506,0.005 -8.32518,0.006 -10.37301,0.004 -5.82652,-0.006 -12.05674,-0.005 -19.00763,0.006 -3.51563,0.005 -9.19494,0.0117 -12.61732,0.0134 l -6.09161,0.004 -0.47698,-0.22479 c -0.54721,-0.25805 -1.27583,-0.93018 -1.67173,-1.58388 l -0.21859,-0.35967 -0.15038,-17.41186 c -0.14371,-16.53655 -0.28767,-44.22916 -0.30282,-58.63672 l -0.006,-6.30453 0.26354,-0.53123 c 0.45153,-0.91114 1.62056,-1.77413 2.31046,-1.85208 -0.0397,0.004 0.0454,-0.002 0.14831,-0.004 0.10694,-0.002 0.2578,-0.003 0.44752,-0.006 1.32342,-0.0166 4.55808,-0.0295 8.79584,-0.0357 z m -0.24701,3.44526 -4.06281,0.0191 -4.06331,0.0186 -0.009,3.30264 c -0.003,0.91954 1.3e-4,1.77666 0.008,2.41691 0.003,0.32012 0.008,0.58611 0.0134,0.77824 0.003,0.0961 0.005,0.17398 0.008,0.23048 0.003,0.0565 0.007,0.0971 0.007,0.0982 l 0.0388,0.15814 1.01492,-0.004 1.02474,-0.005 0.25684,-0.40463 c 0.36351,-0.5722 0.81917,-0.95476 1.32085,-1.12654 0.50167,-0.17179 1.04764,-0.13146 1.58543,0.13436 0.87368,0.4318 1.40313,1.43387 1.54151,2.54713 0.1384,1.11326 -0.11307,2.34236 -0.81546,3.23753 -0.54453,0.69403 -1.64953,0.96896 -2.44688,0.60823 -0.23809,-0.10772 -0.51783,-0.34111 -0.77308,-0.6196 -0.25532,-0.27849 -0.48472,-0.60149 -0.61494,-0.89245 -0.0576,-0.12877 -0.11003,-0.25941 -0.14832,-0.36691 -0.0193,-0.0538 -0.0349,-0.10199 -0.046,-0.14159 -0.0109,-0.0396 -0.017,-0.0685 -0.017,-0.0951 -2.1e-4,-0.043 -0.0135,-0.0741 -0.047,-0.10491 -0.0336,-0.0307 -0.0904,-0.0592 -0.17363,-0.0816 -0.16637,-0.0449 -0.43578,-0.0657 -0.82321,-0.0636 -0.27876,0.002 -0.47322,0.0106 -0.60461,0.03 -0.13139,0.0193 -0.19525,0.0502 -0.22117,0.0817 l -0.0884,0.10646 0.13746,0.46353 c 0.30995,1.04825 1.07045,2.23818 1.79782,2.81792 0.46969,0.37427 0.74591,0.52862 1.32498,0.74104 l 0.416,0.15244 0.83871,-0.0274 0.83767,-0.0284 0.62529,-0.30437 c 0.79684,-0.3879 1.19839,-0.74079 1.72547,-1.5198 0.7121,-1.05227 1.02512,-2.1076 1.02009,-3.43752 -0.009,-2.33551 -1.22733,-4.2998 -3.08405,-4.98781 l -0.58652,-0.21756 -0.66921,10e-4 c -0.78364,0.001 -1.4244,0.2115 -1.99833,0.6537 -0.10292,0.0793 -0.20189,0.14576 -0.2806,0.18966 -0.0394,0.022 -0.0733,0.0381 -0.10232,0.0481 -0.0145,0.005 -0.0276,0.008 -0.0419,0.009 -0.0143,0.001 -0.0337,1.2e-4 -0.0506,-0.0165 -0.0109,-0.0114 -0.0136,-0.0199 -0.0165,-0.0289 -0.004,-0.009 -0.005,-0.0188 -0.008,-0.03 -0.005,-0.0225 -0.009,-0.0511 -0.0119,-0.0853 -0.007,-0.0684 -0.0126,-0.16061 -0.0165,-0.26924 -0.008,-0.21726 -0.0119,-0.49993 -0.0119,-0.78445 0,-0.28452 0.007,-0.57074 0.0176,-0.79375 0.005,-0.1115 0.0107,-0.20697 0.0176,-0.27957 0.003,-0.0363 0.009,-0.0666 0.0129,-0.091 0.004,-0.0245 0.006,-0.0414 0.0181,-0.061 0.019,-0.0299 0.0447,-0.0365 0.0785,-0.0465 0.0338,-0.01 0.0782,-0.0168 0.13694,-0.0248 0.1174,-0.0152 0.29124,-0.0277 0.5364,-0.0387 0.49038,-0.022 1.26566,-0.0373 2.43551,-0.0512 l 3.04374,-0.0357 -0.004,-0.88987 z m 35.65777,12.4964 -16.38091,0.0749 -16.38298,0.0744 0.12764,27.38798 0.1266,27.38903 3.13315,0.008 v -5.2e-4 h 0.0181 c 1.75616,0.004 9.15689,-0.0196 16.44447,-0.0527 l 13.20798,-0.0599 -0.0501,-9.31312 c -0.0274,-5.14554 -0.0934,-17.4991 -0.14676,-27.45259 z m -0.51056,0.31781 h 5.1e-4 0.2589 l 0.0341,5.05809 c 0.0495,7.20991 0.11015,19.48558 0.15296,29.96664 0.0214,5.24053 0.0385,10.03212 0.0475,13.51804 0.005,1.74295 0.007,3.15959 0.008,4.14238 0,0.49139 -0.003,0.87461 -0.003,1.13585 0,0.13062 -0.003,0.23049 -0.003,0.29869 v 0.0786 0.0217 0.008 c 0,0.003 -0.007,0.0194 -0.007,0.0196 -1.1e-4,2e-4 -0.0238,0.0189 -0.0279,0.0196 -0.003,10e-4 -0.005,0.002 -0.008,0.002 -0.006,10e-4 -0.0122,0.002 -0.0202,0.002 -0.0161,0.002 -0.0388,0.003 -0.0687,0.004 -0.0597,0.003 -0.14733,0.005 -0.26097,0.007 -0.2273,0.005 -0.55914,0.0105 -0.98133,0.0155 -0.84437,0.0106 -2.04937,0.022 -3.49746,0.0336 -2.89619,0.0233 -6.7646,0.0476 -10.66395,0.0677 -3.8993,0.0201 -7.82957,0.0364 -10.84947,0.0434 -1.50995,0.004 -2.79233,0.005 -3.72949,0.004 -0.93715,-10e-4 -1.52471,-0.005 -1.66036,-0.0134 l -0.44235,-0.0258 -0.10232,-27.15028 -0.10232,-27.15183 15.87604,-0.0527 c 4.35398,-0.0146 8.33662,-0.0282 11.24582,-0.0372 1.4546,-0.005 2.64051,-0.008 3.47059,-0.0109 0.82975,-0.003 1.30045,-0.004 1.33377,-0.004 z m -3.78788,3.05458 c -0.0916,0.003 -0.18528,0.0141 -0.27854,0.032 -0.43469,0.0834 -0.70601,0.27385 -1.03973,0.73433 -0.0699,0.0965 -0.13836,0.1847 -0.19275,0.24959 -0.0272,0.0324 -0.0515,0.0589 -0.0708,0.0786 -0.01,0.01 -0.0183,0.0173 -0.0264,0.0243 -0.009,0.007 -0.0116,0.0155 -0.0377,0.0165 -0.0289,10e-4 -0.0349,-0.0101 -0.0429,-0.017 -0.009,-0.007 -0.0168,-0.0156 -0.0258,-0.0258 -0.0183,-0.0205 -0.0402,-0.048 -0.0651,-0.0822 -0.05,-0.0684 -0.1119,-0.16186 -0.17518,-0.26509 -0.3157,-0.51511 -0.86905,-0.75631 -1.42472,-0.73381 -0.55566,0.0228 -1.11035,0.30993 -1.42576,0.85214 l -0.22737,0.39119 0.007,0.66507 c 0.008,0.76 0.16338,1.2759 0.77102,2.54972 0.41005,0.8595 1.78148,3.2736 2.22622,3.92018 0.0782,0.11368 0.14903,0.22541 0.20102,0.31471 0.0259,0.0446 0.0474,0.0837 0.0625,0.11523 0.007,0.0158 0.0131,0.0295 0.0181,0.0419 0.004,0.0124 0.008,0.0222 0.008,0.0382 0,-0.002 0.003,0.005 0.0207,0.015 0.0193,0.01 0.051,0.0177 0.0858,0.0176 0.0251,-9e-5 0.0606,-0.0146 0.12144,-0.0775 0.0608,-0.0629 0.14273,-0.17143 0.25528,-0.34261 0.22497,-0.34236 0.57485,-0.93653 1.15031,-1.93683 1.36491,-2.37263 1.85089,-3.61389 1.84589,-4.68603 l -0.004,-0.66611 -0.185,-0.34519 c -0.30694,-0.57244 -0.90062,-0.90109 -1.54874,-0.87799 z m -20.91191,0.0806 c -0.0646,8.1e-4 -0.12763,0.006 -0.18862,0.016 -0.28037,0.0433 -0.49458,0.12873 -0.69556,0.29507 -0.20087,0.16627 -0.38931,0.41593 -0.6072,0.78807 v 5.1e-4 l -0.12919,0.2217 -0.23358,-0.47543 c -0.32279,-0.65912 -1.02389,-0.96127 -1.82211,-0.77928 l -0.4532,0.10439 -0.34107,0.34313 c -0.41854,0.42175 -0.55595,0.87066 -0.49454,1.62884 0.0874,1.07958 0.78839,2.62933 2.44481,5.37176 0.30668,0.50786 0.53806,0.87067 0.70229,1.10278 0.0821,0.11605 0.14747,0.19974 0.19637,0.25115 0.0243,0.0257 0.0444,0.0437 0.0584,0.0527 0.0135,0.009 0.0198,0.007 0.0139,0.008 0.0222,-0.004 0.0451,-0.015 0.0925,-0.0687 0.0474,-0.0537 0.11468,-0.14813 0.21498,-0.30644 0.20066,-0.31664 0.53553,-0.88967 1.13275,-1.92185 0.99761,-1.72418 1.58906,-3.01512 1.80454,-3.99821 0.2155,-0.9831 0.0594,-1.65269 -0.43719,-2.1611 -0.28217,-0.28897 -0.80485,-0.48136 -1.25832,-0.47336 z m -11.77602,1.04336 c -0.82765,-0.0535 -1.66574,0.35338 -2.08722,1.25625 l -0.28938,0.6165 -0.22428,-0.50333 c -0.21968,-0.49129 -0.59619,-0.89994 -1.05162,-1.14153 l -0.32969,-0.17518 -0.66766,0.002 -0.66508,0.002 -0.38034,0.22583 c -0.51966,0.30869 -0.84785,0.70703 -1.06608,1.2919 l -0.1819,0.48576 0.0429,0.66818 c 0.098,1.51402 0.86831,3.18333 3.57963,7.74164 l 0.0212,0.0367 c 0.25249,0.42429 0.49304,0.80633 0.67644,1.07952 0.0917,0.1366 0.16925,0.24627 0.22634,0.31936 0.0285,0.0366 0.0521,0.0638 0.0682,0.0801 0.003,0.002 0.003,0.002 0.003,0.003 0.009,-0.0102 0.0201,-0.0238 0.0346,-0.0434 0.0316,-0.0428 0.0759,-0.10682 0.13126,-0.19172 0.11073,-0.1697 0.26777,-0.42298 0.47284,-0.76119 0.41005,-0.67643 1.01032,-1.69289 1.81126,-3.06596 0.5537,-0.94914 1.44585,-2.85095 1.68879,-3.59771 0.19248,-0.59175 0.27156,-1.01396 0.30127,-1.62058 l 0.0393,-0.81752 -0.14211,-0.36483 c -0.36976,-0.95526 -1.18278,-1.47139 -2.01021,-1.52549 z m 22.48493,18.44279 v 5.2e-4 c -0.59465,-0.0194 -1.18931,0.27028 -1.49913,0.81856 -0.0535,0.0946 -0.10831,0.18092 -0.154,0.24442 -0.023,0.0318 -0.0427,0.0574 -0.061,0.077 -0.009,0.01 -0.018,0.0183 -0.0269,0.0253 -0.009,0.006 -0.0177,0.0152 -0.0398,0.0155 -0.0341,5.3e-4 -0.0454,-0.0166 -0.0599,-0.032 -0.0145,-0.0154 -0.0288,-0.0345 -0.0439,-0.0579 -0.0301,-0.0467 -0.0627,-0.10906 -0.0915,-0.17776 -0.0647,-0.15414 -0.20604,-0.33309 -0.37413,-0.48525 -0.16809,-0.15216 -0.36334,-0.27831 -0.53072,-0.33331 -0.17849,-0.0587 -0.3571,-0.0879 -0.53175,-0.0899 -0.75705,-0.01 -1.44276,0.48697 -1.70946,1.30793 -0.15986,0.49184 -0.0343,1.28749 0.38034,2.34663 0.4146,1.05915 1.11507,2.38197 2.0898,3.93826 0.26169,0.41792 0.56628,0.90434 0.67696,1.08159 0.0536,0.0859 0.11332,0.16081 0.16433,0.20981 0.0254,0.0245 0.0489,0.0422 0.0661,0.0522 0.0172,0.009 0.0252,0.007 0.0191,0.009 -0.0108,0.004 0.009,-0.007 0.0279,-0.0279 0.0191,-0.0213 0.0442,-0.0526 0.0739,-0.0925 0.0593,-0.0798 0.1369,-0.19349 0.22789,-0.33228 0.18193,-0.27759 0.41662,-0.65588 0.66456,-1.06971 0.49591,-0.82764 1.04591,-1.79817 1.33893,-2.39106 0.74825,-1.51392 1.05358,-2.45931 1.05059,-3.2365 -0.003,-0.4596 -0.31494,-1.13952 -0.65268,-1.4211 -0.29364,-0.24482 -0.64912,-0.36751 -1.00562,-0.37931 z m 21.34805,15.59905 c 4.1e-4,2e-4 0.002,4.6e-4 -0.005,0.005 -0.0103,0.007 -0.0249,0.0201 -0.0419,0.0377 -0.0341,0.0353 -0.0783,0.0896 -0.13074,0.15968 -0.10491,0.14018 -0.24215,0.34399 -0.40101,0.59376 -0.31768,0.49953 -0.72301,1.18355 -1.1405,1.91875 -0.83497,1.47041 -1.7192,3.14839 -2.04638,3.96306 -0.54492,1.35681 -0.69402,1.9411 -0.69402,2.73937 v 0.71003 l 0.19017,0.41393 c 0.24942,0.54293 0.62498,0.92745 1.14205,1.16944 0.494,0.23118 1.16025,0.25434 1.72548,0.0589 0.21849,-0.0755 0.48647,-0.26835 0.71727,-0.50023 0.23082,-0.23188 0.42571,-0.50365 0.50591,-0.72864 0.0314,-0.0879 0.0669,-0.16736 0.10025,-0.22686 0.0167,-0.0297 0.0324,-0.0542 0.0486,-0.0734 0.0161,-0.0192 0.029,-0.0396 0.0661,-0.0398 0.0206,-7e-5 0.0318,0.008 0.0419,0.016 0.01,0.008 0.0185,0.0164 0.0274,0.0269 0.0183,0.021 0.0377,0.0485 0.0589,0.0822 0.0422,0.0673 0.0903,0.15808 0.13539,0.25839 0.38587,0.85786 1.07621,1.30211 2.01693,1.29811 1.20275,-0.006 2.09765,-0.83077 2.27842,-2.10478 0.1235,-0.87058 -0.29146,-2.29137 -1.25161,-4.23023 -0.40547,-0.81883 -1.20435,-2.21204 -1.92391,-3.39928 -0.35981,-0.59361 -0.69963,-1.13589 -0.96067,-1.52911 -0.13052,-0.1966 -0.24142,-0.35634 -0.32452,-0.4656 -0.0415,-0.0546 -0.0767,-0.0969 -0.10232,-0.12402 -0.0127,-0.0135 -0.0231,-0.0234 -0.03,-0.0284 l -0.002,-5.2e-4 z m -12.56564,4.00027 c 0,10e-4 0.003,4e-5 0,0.002 -0.0114,0.0102 -0.0275,0.0272 -0.0465,0.0496 -0.0382,0.0448 -0.0888,0.11137 -0.14676,0.19327 -0.11602,0.16386 -0.26286,0.39001 -0.41238,0.63872 -1.41367,2.35149 -2.25221,3.99359 -2.5895,5.17901 -0.1686,0.59271 -0.21191,1.07057 -0.14211,1.46606 0.0698,0.39549 0.25151,0.70985 0.54001,0.98134 0.13267,0.12485 0.39469,0.28685 0.56638,0.34985 0.43074,0.158 1.09759,0.0874 1.45986,-0.15193 0.15605,-0.10306 0.39785,-0.35945 0.52141,-0.55655 l 0.26769,-0.42685 0.16691,0.25321 c 0.49612,0.75064 1.0376,1.03993 1.76578,0.95033 0.57018,-0.0702 1.02077,-0.39227 1.29192,-0.92656 l 0.20877,-0.41341 -0.0109,-0.58291 c -0.013,-0.71169 -0.28657,-1.55643 -0.91829,-2.81533 -0.30105,-0.59982 -0.90926,-1.65525 -1.45676,-2.55902 -0.27374,-0.45189 -0.53187,-0.86613 -0.72967,-1.16685 -0.0989,-0.15036 -0.18275,-0.27255 -0.24495,-0.35605 -0.0312,-0.0418 -0.0571,-0.0742 -0.076,-0.0946 -0.006,-0.006 -0.0102,-0.009 -0.0145,-0.0134 z m -20.87831,0.0992 c -0.0404,0.006 -0.0907,0.0379 -0.14986,0.10542 -0.0598,0.0682 -0.12677,0.17037 -0.19947,0.30593 -0.13264,0.24715 -0.49148,0.86674 -0.79892,1.38079 -1.31575,2.19982 -2.09148,3.94734 -2.21382,4.96404 -0.11536,0.95854 0.42677,1.91865 1.17512,2.11305 0.44699,0.11548 0.7007,0.11644 1.03198,0.004 0.31409,-0.10637 0.77865,-0.51774 0.94568,-0.84026 0.0395,-0.0763 0.0742,-0.13429 0.11007,-0.1757 0.036,-0.0414 0.077,-0.0697 0.12454,-0.0677 0.0476,0.002 0.0858,0.0348 0.11834,0.0796 0.0325,0.0448 0.063,0.10646 0.0966,0.18656 0.23588,0.5623 1.01798,0.96491 1.68724,0.86041 0.58896,-0.092 1.02725,-0.42092 1.27641,-0.90072 0.24916,-0.47981 0.30776,-1.11253 0.1235,-1.80919 -0.21838,-0.82556 -1.11,-2.6578 -2.09703,-4.29793 -0.24466,-0.40654 -0.48139,-0.80202 -0.66456,-1.11208 -0.18317,-0.31007 -0.31186,-0.53216 -0.34726,-0.59996 -0.066,-0.12637 -0.13026,-0.18585 -0.18293,-0.19586 -0.0103,-0.003 -0.0212,-0.003 -0.0336,-5.1e-4 z m 34.45319,10.79573 -0.87746,0.005 -0.8816,0.004 -0.50488,0.19482 c -1.36081,0.52376 -2.47621,1.98164 -2.83652,3.72018 -0.16865,0.81333 -0.14123,2.12479 0.0594,2.8944 0.4953,1.90072 1.83862,3.3155 3.46284,3.65611 0.9816,0.20585 2.15783,-0.0808 2.76986,-0.66818 0.081,-0.0778 0.1484,-0.12976 0.20981,-0.15606 0.0307,-0.0136 0.0598,-0.0206 0.0894,-0.0176 0.0297,0.003 0.0592,0.0164 0.0801,0.0372 0.0175,0.0176 0.0219,0.0351 0.0289,0.0579 0.006,0.0227 0.0115,0.0507 0.0165,0.0842 0.0103,0.0669 0.0182,0.1562 0.0243,0.26665 0.0132,0.22092 0.0164,0.52469 0.0103,0.88676 l -0.0186,1.22009 -3.17345,0.0568 -3.09232,0.0563 -0.0196,0.75706 c -0.007,0.21878 -0.007,0.43062 -0.003,0.59479 0.003,0.0821 0.004,0.15236 0.008,0.20516 0.004,0.0529 0.0129,0.0925 0.0129,0.0946 l 0.0331,0.0853 4.05815,-0.0403 4.04472,-0.0398 0.009,-3.30265 c 0.003,-0.91955 -0.002,-1.77704 -0.008,-2.41742 -0.003,-0.32018 -0.008,-0.58608 -0.0134,-0.77825 -0.003,-0.0961 -0.005,-0.17397 -0.008,-0.23047 -0.003,-0.0565 -0.008,-0.0971 -0.008,-0.0982 l -0.0393,-0.15761 -1.02268,0.004 -1.03198,0.005 -0.20877,0.34054 c -0.3593,0.58656 -0.8045,0.99558 -1.28726,1.202 -0.48276,0.20641 -1.00327,0.20833 -1.50379,-0.015 -1.13702,-0.50741 -1.79598,-1.85351 -1.70687,-3.45612 0.053,-0.95267 0.2892,-1.72758 0.6811,-2.27945 0.39187,-0.55188 0.94161,-0.87887 1.6092,-0.93017 l 0.51212,-0.0398 0.47542,0.23047 c 0.55398,0.26791 0.96016,0.70788 1.28933,1.39217 0.12909,0.26836 0.28157,0.58346 0.33848,0.69918 l 0.0925,0.1881 0.8263,0.0191 c 0.25924,0.006 0.45662,0.008 0.60203,-0.002 0.14542,-0.01 0.23737,-0.0333 0.28629,-0.0677 0.049,-0.0344 0.0665,-0.078 0.0636,-0.16278 -0.003,-0.0848 -0.0299,-0.20465 -0.0723,-0.36277 -0.40749,-1.51672 -1.49233,-2.84801 -2.83342,-3.47989 z" />
    <path
       style="fill:#000000;stroke-width:0.0846667"
       id="path389"
       d="" />
  </g>
</svg>
