<?xml version="1.0" encoding="UTF-8" standalone="no"?>
<svg
   sodipodi:docname="5S.svg"
   id="svg8"
   version="1.1"
   viewBox="0 0 63.103058 88.347878"
   height="88.347878mm"
   width="63.103058mm"
   inkscape:version="1.1.1 (1:1.1+202109281949+c3084ef5ed)"
   inkscape:export-filename="/home/doug/k40/52Cards/5S.png"
   inkscape:export-xdpi="96"
   inkscape:export-ydpi="96"
   xmlns:inkscape="http://www.inkscape.org/namespaces/inkscape"
   xmlns:sodipodi="http://sodipodi.sourceforge.net/DTD/sodipodi-0.dtd"
   xmlns="http://www.w3.org/2000/svg"
   xmlns:svg="http://www.w3.org/2000/svg"
   xmlns:rdf="http://www.w3.org/1999/02/22-rdf-syntax-ns#"
   xmlns:cc="http://creativecommons.org/ns#"
   xmlns:dc="http://purl.org/dc/elements/1.1/">
  <defs
     id="defs2">
    <marker
       style="overflow:visible"
       id="marker2995"
       refX="0"
       refY="0"
       orient="auto"
       inkscape:stockid="Arrow1Lstart"
       inkscape:isstock="true">
      <path
         transform="matrix(0.8,0,0,0.8,10,0)"
         style="fill:#000000;fill-opacity:1;fill-rule:evenodd;stroke:#000000;stroke-width:1pt;stroke-opacity:1"
         d="M 0,0 5,-5 -12.5,0 5,5 Z"
         id="path2993" />
    </marker>
    <marker
       style="overflow:visible"
       id="marker2985"
       refX="0"
       refY="0"
       orient="auto"
       inkscape:stockid="Arrow1Lstart"
       inkscape:isstock="true">
      <path
         transform="matrix(0.8,0,0,0.8,10,0)"
         style="fill:#000000;fill-opacity:1;fill-rule:evenodd;stroke:#000000;stroke-width:1pt;stroke-opacity:1"
         d="M 0,0 5,-5 -12.5,0 5,5 Z"
         id="path2983" />
    </marker>
    <marker
       style="overflow:visible"
       id="marker2791"
       refX="0"
       refY="0"
       orient="auto"
       inkscape:stockid="Arrow1Lstart"
       inkscape:isstock="true">
      <path
         transform="matrix(0.8,0,0,0.8,10,0)"
         style="fill:#000000;fill-opacity:1;fill-rule:evenodd;stroke:#000000;stroke-width:1pt;stroke-opacity:1"
         d="M 0,0 5,-5 -12.5,0 5,5 Z"
         id="path2789" />
    </marker>
    <marker
       style="overflow:visible"
       id="marker2781"
       refX="0"
       refY="0"
       orient="auto"
       inkscape:stockid="Arrow1Lstart"
       inkscape:isstock="true">
      <path
         transform="matrix(0.8,0,0,0.8,10,0)"
         style="fill:#000000;fill-opacity:1;fill-rule:evenodd;stroke:#000000;stroke-width:1pt;stroke-opacity:1"
         d="M 0,0 5,-5 -12.5,0 5,5 Z"
         id="path2779" />
    </marker>
    <marker
       style="overflow:visible"
       id="marker2417"
       refX="0"
       refY="0"
       orient="auto"
       inkscape:stockid="Arrow1Lstart"
       inkscape:isstock="true">
      <path
         transform="matrix(0.8,0,0,0.8,10,0)"
         style="fill:#000000;fill-opacity:1;fill-rule:evenodd;stroke:#000000;stroke-width:1pt;stroke-opacity:1"
         d="M 0,0 5,-5 -12.5,0 5,5 Z"
         id="path2415" />
    </marker>
    <marker
       style="overflow:visible"
       id="marker2383"
       refX="0"
       refY="0"
       orient="auto"
       inkscape:stockid="Arrow1Lstart"
       inkscape:isstock="true">
      <path
         transform="matrix(0.8,0,0,0.8,10,0)"
         style="fill:#000000;fill-opacity:1;fill-rule:evenodd;stroke:#000000;stroke-width:1pt;stroke-opacity:1"
         d="M 0,0 5,-5 -12.5,0 5,5 Z"
         id="path2381" />
    </marker>
    <marker
       style="overflow:visible"
       id="marker2355"
       refX="0"
       refY="0"
       orient="auto"
       inkscape:stockid="Arrow1Lstart"
       inkscape:isstock="true">
      <path
         transform="matrix(0.8,0,0,0.8,10,0)"
         style="fill:#000000;fill-opacity:1;fill-rule:evenodd;stroke:#000000;stroke-width:1pt;stroke-opacity:1"
         d="M 0,0 5,-5 -12.5,0 5,5 Z"
         id="path2353" />
    </marker>
    <marker
       style="overflow:visible"
       id="Arrow1Lstart"
       refX="0"
       refY="0"
       orient="auto"
       inkscape:stockid="Arrow1Lstart"
       inkscape:isstock="true">
      <path
         transform="matrix(0.8,0,0,0.8,10,0)"
         style="fill:#000000;fill-opacity:1;fill-rule:evenodd;stroke:#000000;stroke-width:1pt;stroke-opacity:1"
         d="M 0,0 5,-5 -12.5,0 5,5 Z"
         id="path2071" />
    </marker>
  </defs>
  <sodipodi:namedview
     id="base"
     pagecolor="#ffffff"
     bordercolor="#666666"
     borderopacity="1.0"
     inkscape:pageopacity="0.0"
     inkscape:pageshadow="2"
     inkscape:zoom="1.5033846"
     inkscape:cx="86.138969"
     inkscape:cy="166.62403"
     inkscape:document-units="mm"
     inkscape:current-layer="layer1"
     inkscape:document-rotation="0"
     showgrid="false"
     inkscape:snap-smooth-nodes="false"
     inkscape:object-nodes="false"
     inkscape:window-width="1366"
     inkscape:window-height="712"
     inkscape:window-x="0"
     inkscape:window-y="0"
     inkscape:window-maximized="1"
     inkscape:object-paths="false"
     inkscape:snap-intersection-paths="false"
     inkscape:snap-midpoints="false"
     inkscape:snap-others="false"
     inkscape:pagecheckerboard="0"
     showguides="true"
     inkscape:guide-bbox="true"
     inkscape:snap-bbox="true"
     showborder="false"
     fit-margin-top="0"
     fit-margin-left="0"
     fit-margin-right="0"
     fit-margin-bottom="0" />
  <metadata
     id="metadata5">
    <rdf:RDF>
      <cc:Work
         rdf:about="">
        <dc:format>image/svg+xml</dc:format>
        <dc:type
           rdf:resource="http://purl.org/dc/dcmitype/StillImage" />
      </cc:Work>
    </rdf:RDF>
  </metadata>
  <g
     inkscape:label="Layer 1"
     inkscape:groupmode="layer"
     id="layer1"
     transform="translate(401.80574,231.84593)">
    <path
       style="fill:#000000;stroke-width:0.0846667"
       id="path389"
       d="" />
    <path
       id="path6742-7-6-7"
       style="fill:#000000;fill-opacity:1;stroke:none;stroke-width:0.264999;stroke-miterlimit:4;stroke-dasharray:none;stroke-opacity:1"
       d="m -393.89518,-231.84593 v 5.2e-4 c -1.12038,9.9e-4 -2.1358,0.005 -2.77606,0.0124 l -2.32855,0.0258 -0.57772,0.29611 c -0.74226,0.37984 -1.6891,1.33261 -1.98284,1.99523 l -0.20772,0.46922 -0.009,4.57285 c -0.005,2.5151 -0.0136,5.35427 -0.0207,6.30917 -0.007,0.95489 -0.0104,3.88913 -0.006,6.52053 0.003,2.63138 0.005,5.88919 0.004,7.23987 -10e-4,1.35067 0.002,6.68595 0.008,11.85561 0.006,5.16967 0.009,10.48583 0.007,11.81323 -0.002,1.32741 0.003,4.87108 0.0129,7.87497 0.0185,5.89954 0.0194,6.55409 0.032,17.75189 0.005,4.10521 0.012,7.74899 0.0139,8.09666 l 0.001,0.632 0.19378,0.36794 c 0.32676,0.62015 0.79769,1.1557 1.38184,1.572 0.99348,0.70772 1.03338,0.71372 4.92477,0.71468 1.32733,3e-4 3.09975,0.007 3.93824,0.014 2.48912,0.0218 5.15819,0.0307 9.82319,0.031 2.42186,2e-4 4.97522,0.0105 5.67407,0.0233 0.69887,0.0129 3.15674,0.0254 5.46219,0.0284 2.3055,0.003 5.69761,0.0146 7.53753,0.0264 1.83991,0.0117 5.95608,0.0336 9.14672,0.0491 3.19064,0.0154 7.01998,0.0369 8.51059,0.0481 3.0744,0.023 3.48239,-9.9e-4 3.99047,-0.23719 h 0.004 c 1.01216,-0.47016 2.15492,-1.68205 2.34558,-2.4877 0.0404,-0.17101 0.0777,-2.38741 0.0817,-4.9258 0.0142,-8.09742 0.008,-17.79326 -0.014,-21.67878 -0.0116,-2.07234 -0.0228,-5.92052 -0.0258,-8.55193 -0.002,-2.63141 -0.008,-7.01389 -0.0124,-9.73843 -0.02,-13.76802 -0.0233,-26.62157 -0.01,-33.09772 l 0.01,-4.60282 -0.29353,-0.55759 c -0.52456,-0.99563 -1.77517,-2.04705 -2.61017,-2.19469 -0.44011,-0.0778 -2.1663,-0.0939 -12.87362,-0.11834 -1.25756,-0.003 -2.80088,-0.0116 -3.42976,-0.0186 -0.62889,-0.007 -2.38223,-0.0131 -3.89589,-0.0129 -2.81826,4e-4 -12.30344,-0.0289 -15.79388,-0.0486 -1.07132,-0.006 -3.52917,-0.0179 -5.46219,-0.0269 -1.93299,-0.009 -5.24867,-0.026 -7.36803,-0.0367 -1.05969,-0.005 -2.28513,-0.007 -3.40548,-0.006 z m -4.04987,0.5085 5e-4,5.2e-4 c 2.64702,-0.0141 12.9395,0.0446 23.6089,0.13849 2.11968,0.0184 8.02333,0.0648 13.12273,0.10284 5.09907,0.038 11.67167,0.0878 14.60478,0.11213 l 5.19142,0.0419 0.42426,0.22738 c 0.5733,0.30675 1.35493,1.10075 1.58387,1.56424 l 0.18707,0.38034 0.0114,4.60592 c 0.009,3.78238 -0.002,12.61599 -0.0196,20.7052 -0.0178,8.08922 -0.044,15.49412 -0.0615,16.23673 -0.0207,0.88428 -0.0393,7.87691 -0.0455,15.6776 -0.006,8.12717 -0.02,14.33267 -0.0408,18.55081 -0.0104,2.10906 -0.0233,3.72225 -0.0372,4.82812 -0.007,0.55293 -0.013,0.97916 -0.0207,1.27538 -0.004,0.14811 -0.009,0.26408 -0.0124,0.34365 -0.004,0.0796 -0.0173,0.15911 -0.003,0.0822 -0.0654,0.34514 -0.41902,0.9538 -0.91262,1.40147 -0.69162,0.62723 -1.19346,0.88094 -1.80607,0.971 -0.22448,0.033 -0.72695,0.0666 -1.15084,0.0796 -0.21198,0.007 -0.4087,0.009 -0.5452,0.006 -0.06,-0.001 -0.10112,-0.005 -0.1266,-0.007 -0.005,-0.002 -0.0155,-0.004 -0.0155,-0.004 -5.3e-4,-1.4e-4 -0.048,-0.0105 -0.0605,-0.0124 -0.0249,-0.004 -0.0347,-0.005 -0.0449,-0.006 -0.0206,-0.002 -0.0348,-5.5e-4 -0.0507,-0.002 -0.0319,-0.002 -0.0696,-0.004 -0.11729,-0.005 -0.0954,-0.003 -0.23061,-0.006 -0.40257,-0.009 -0.34395,-0.006 -0.8351,-0.0117 -1.44126,-0.0181 -1.21227,-0.0127 -2.87814,-0.0255 -4.70667,-0.0362 -3.65498,-0.0216 -8.32528,-0.0541 -10.37302,-0.0713 -5.82634,-0.0488 -12.05632,-0.0927 -19.00711,-0.13229 -3.5156,-0.02 -9.19501,-0.0549 -12.61732,-0.078 l -6.09161,-0.0403 -0.47492,-0.22737 c -0.54531,-0.26202 -1.26921,-0.93972 -1.66034,-1.59629 l -0.21601,-0.36122 -0.0238,-17.41237 c -0.0236,-16.53716 0.034,-44.23046 0.1235,-58.63776 l 0.0398,-6.30453 0.26768,-0.52968 c 0.45812,-0.90783 1.63343,-1.76158 2.32388,-1.83452 -0.0397,0.004 0.0454,-0.002 0.14833,-0.003 0.10697,-9.9e-4 0.25778,-0.002 0.44752,-0.003 z m 2.76674,3.53777 c -1.39858,-0.004 -2.64131,-0.003 -2.76211,5.2e-4 l -0.21911,0.009 0.01,1.37718 c 0,0.75736 0.01,2.32061 0,3.47421 0,1.15362 0.0111,2.11203 0.032,2.1301 0.02,0.0181 0.48252,0.0392 1.02682,0.0475 l 0.9896,0.015 0.19328,-0.3359 c 0.26461,-0.46035 0.52617,-0.75354 0.94567,-1.05937 0.31369,-0.22832 0.43222,-0.26249 1.00253,-0.28835 0.55629,-0.0252 0.69427,-3e-5 0.98856,0.17725 1.0005,0.6025 1.54917,1.61464 1.61126,2.98483 0.053,1.13398 -0.1648,1.9702 -0.7281,2.79156 -0.4386,0.63951 -0.84572,0.86132 -1.64643,0.89762 -0.73667,0.0334 -1.17017,-0.12683 -1.62417,-0.59893 -0.3203,-0.33316 -0.71649,-0.99699 -0.8873,-1.48725 -0.11078,-0.31803 -0.13637,-0.33544 -0.53277,-0.37052 -0.22892,-0.0197 -0.63529,-0.0343 -0.90278,-0.0222 l -0.001,5.2e-4 c -0.54491,0.0164 -0.55727,0.0373 -0.36846,0.6444 0.48818,1.57021 1.58392,2.8875 2.84014,3.41426 0.55168,0.23134 0.6381,0.24217 1.55699,0.20051 0.92861,-0.0421 0.99735,-0.0577 1.53014,-0.34882 1.48262,-0.81026 2.43478,-2.47675 2.58228,-4.51962 0.096,-1.33224 -0.28517,-2.73551 -1.02835,-3.78581 -0.34301,-0.48476 -1.21465,-1.24204 -1.66553,-1.44694 -1.34411,-0.61067 -2.88359,-0.40683 -3.78738,0.50126 -0.14761,0.14841 -0.28596,0.27034 -0.30697,0.2713 -0.038,0.002 -0.0393,-1.03951 -10e-4,-2.2748 l 0.0191,-0.62321 0.81907,0.0119 c 0.4504,0.007 1.75302,0.0102 2.89491,0.006 1.14192,-0.003 2.18197,0.006 2.31098,0.0207 0.21608,0.0254 0.23286,0.006 0.22116,-0.25373 -0.01,-0.15465 -7e-5,-0.56746 0.0129,-0.91726 l 0.0248,-0.63562 -1.30328,-5.1e-4 c -0.71721,2e-4 -2.44861,-0.003 -3.84731,-0.007 z m 9.76323,12.69793 c -0.86381,0.004 -1.3708,0.0153 -1.38699,0.0331 -0.0419,0.0532 -0.0628,3.81009 -0.0419,7.44555 0.01,1.28156 0.01,2.67312 0.01,3.09283 v 4.5775 c 0.017,11.69381 0.0195,14.97054 0.0134,19.9161 0,2.4707 -3e-5,6.43655 0.015,8.81341 0.011,2.37683 0.0191,5.8094 0.0171,7.62744 v 5.2e-4 c 0,1.81803 -3.7e-4,3.33509 -0.0114,3.37188 -0.014,0.11643 0.16179,0.12539 2.36731,0.11989 1.18858,-0.003 2.86689,-1.6e-4 3.72948,0.006 0.8626,0.006 2.50283,0.008 3.64474,0.004 1.14189,-0.004 2.83885,-0.005 3.77135,-0.002 0.93228,0.003 2.97362,0.005 4.53512,0.005 1.56159,-2e-5 4.07847,5.5e-4 5.59345,0.002 1.51511,0.001 3.21206,0.001 3.77134,0 0.5593,-0.002 1.28458,0.002 1.61129,0.009 0.58769,0.0124 3.11552,0.0104 3.68453,-0.004 l 0.29506,-0.007 -5.2e-4,-5.00072 c -4e-4,-2.75027 -0.01,-6.50641 -0.015,-8.3473 -0.01,-1.84091 -0.0171,-3.78569 -0.0181,-4.3217 0,-0.82848 -0.01,-9.5849 -0.0119,-16.10237 -3.9e-4,-1.0488 -0.01,-2.84142 -0.0109,-3.98322 -0.01,-1.14181 -0.0103,-2.4953 -0.0103,-3.00809 0.01,-4.30011 -0.011,-9.85855 -0.046,-13.58935 l -0.01,-0.62373 -0.71985,-5.2e-4 c -0.3963,-2.5e-4 -3.23774,-6.4e-4 -6.31434,-0.001 -3.0766,-7.7e-4 -5.93704,-0.004 -6.35672,-0.008 -0.41971,-0.004 -1.62142,-0.006 -2.67012,-0.006 -1.04891,3e-4 -2.28867,5.3e-4 -2.75487,-10e-4 -0.46619,-0.002 -1.30468,-0.002 -1.86396,10e-4 -0.5593,0.002 -1.79919,9.3e-4 -2.7549,-0.002 -0.9557,-0.003 -2.19556,-0.005 -2.75486,-0.004 -0.55931,0.001 -1.36065,-2.1e-4 -1.78025,-0.003 -1.4424,-0.0109 -2.66261,-0.0139 -3.5264,-0.01 z m 0.23824,0.37672 c 0.6528,0.005 1.74005,0.007 2.41585,0.005 0.6758,-0.002 1.97229,-4.3e-4 2.8815,0.002 2.64948,0.009 5.20925,0.0101 6.44147,0.003 0.6292,-0.004 1.4493,-0.002 1.82261,0.005 0.37322,0.007 1.95622,0.0106 3.51763,0.008 1.56149,-0.002 3.23937,-0.002 3.72896,0.001 0.48961,0.003 2.94912,0.009 5.46581,0.0134 2.51662,0.004 4.58457,0.0152 4.59508,0.0248 0.023,0.0213 0.055,8.65444 0.047,12.63903 -7.9e-4,0.46619 0,1.24734 0,1.73684 1.1e-4,0.48944 0,1.30979 0,1.82263 0,0.51282 -1.6e-4,2.24811 0.01,3.85609 0,1.60799 0.01,3.32423 0.01,3.81372 0,0.4895 5.8e-4,1.80523 0,2.92386 0.01,3.4673 0.016,7.75299 0.015,8.72918 0,2.0696 7.4e-4,2.97394 0.0134,4.9997 0.01,1.16503 0.01,2.48082 0,2.92385 -0.011,0.86561 -4.8e-4,10.34834 0.0165,10.62209 0.01,0.15549 -0.0377,0.16362 -0.8196,0.14779 -0.455,-0.009 -1.77993,-0.0115 -2.94502,-0.005 -1.16512,0.007 -2.46229,0.008 -2.882,0.002 -0.41982,-0.006 -1.62131,-0.01 -2.67012,-0.009 -1.04871,8.5e-4 -2.68862,-1e-5 -3.64421,-0.002 -0.95581,-0.002 -2.2524,-8.1e-4 -2.8815,0.002 -0.62921,0.003 -1.41126,8.6e-4 -1.73787,-0.004 -0.32649,-0.005 -1.12765,-0.008 -1.78024,-0.005 -1.38782,0.005 -4.21148,2.9e-4 -5.42396,-0.009 -0.46641,-0.004 -1.70619,-0.004 -2.7549,-0.002 -1.61419,0.004 -2.34757,0.004 -4.40748,-0.001 -0.1987,-4.8e-4 -0.21532,-0.0322 -0.25993,-0.51005 -0.026,-0.28046 -0.033,-0.52811 -0.015,-0.55035 0.018,-0.0222 0.0283,-0.68828 0.0233,-1.48053 -0.01,-0.79219 -0.0104,-2.62285 -0.0104,-4.06797 0.01,-4.70274 0.0102,-5.89102 -0.01,-10.42417 v -2.88199 c 8e-4,-0.46618 9.3e-4,-1.32423 5.3e-4,-1.90686 -5e-4,-0.58269 -2e-5,-2.2988 0,-3.81372 -9.2e-4,-2.4697 -0.0103,-7.0426 -0.0253,-12.71189 0,-1.09531 3.1e-4,-3.1927 5.3e-4,-4.66121 0.01,-2.89283 -3.5e-4,-7.60611 -0.0103,-9.81336 0,-0.75493 0.0161,-1.38323 0.0419,-1.40405 0.0332,-0.014 0.58219,-0.022 1.23095,-0.0176 z m 3.96099,3.00137 -0.16383,0.24908 c -0.38557,0.58948 -1.13503,1.64431 -1.80453,2.53886 -0.86509,1.15624 -1.23775,1.76289 -1.47175,2.39779 -0.2526,0.68635 -0.17473,1.53993 0.18346,2.0097 0.33071,0.43386 0.89353,0.67254 1.53273,0.64957 0.54449,-0.0195 0.93967,-0.2371 1.27228,-0.70073 0.19849,-0.27651 0.19719,-0.27713 0.20669,-0.0672 0.022,0.60922 -0.38666,2.04811 -0.73535,2.5895 -0.082,0.12745 -0.14838,0.25063 -0.14727,0.27389 9.8e-4,0.0231 0.29715,0.008 0.65836,-0.0331 0.36539,-0.0418 0.86006,-0.0408 1.11464,0.002 0.25162,0.0421 0.46876,0.0646 0.48215,0.0496 0.014,-0.0151 -0.0791,-0.22182 -0.20619,-0.4594 -0.28131,-0.52535 -0.56796,-1.45235 -0.67644,-2.19005 l -0.0811,-0.54725 0.27286,0.38757 c 0.38529,0.54797 0.82542,0.73344 1.56062,0.65836 0.93141,-0.0951 1.46426,-0.62035 1.57665,-1.55495 0.053,-0.44182 -0.1633,-1.1871 -0.5457,-1.8774 -0.2731,-0.49315 -1.77832,-2.58645 -2.08772,-2.9037 -0.087,-0.0893 -0.33444,-0.45725 -0.54983,-0.81752 z m 21.83898,0.10749 c -0.007,-4.8e-4 -0.0129,0.002 -0.017,0.007 -0.033,0.0411 -0.21514,0.31067 -0.40413,0.59892 -0.18899,0.28827 -0.77846,1.1159 -1.30897,1.83917 -1.05188,1.4337 -1.48371,2.15949 -1.6986,2.85357 -0.29639,0.9577 2.1e-4,1.81961 0.77049,2.24948 0.7729,0.43052 1.54509,0.29133 2.14458,-0.38654 l 0.39172,-0.44235 -0.0419,0.37052 c -0.077,0.67972 -0.25754,1.30681 -0.57774,2.00608 -0.17442,0.38082 -0.32848,0.71724 -0.34108,0.74775 -0.013,0.0306 0.29247,0.024 0.6775,-0.015 0.4572,-0.0462 0.85505,-0.0364 1.14876,0.0289 0.2471,0.0549 0.44839,0.0749 0.44699,0.0439 0,-0.031 -0.10186,-0.24122 -0.22376,-0.46715 -0.33869,-0.62787 -0.53337,-1.25609 -0.61907,-1.99833 l -0.0781,-0.67386 0.1814,0.25683 c 0.63299,0.89607 1.84999,1.02754 2.6417,0.28525 0.4494,-0.42139 0.60561,-0.92164 0.50641,-1.62987 -0.10509,-0.75455 -0.43833,-1.34694 -1.85724,-3.30161 -0.65529,-0.90258 -1.30548,-1.82148 -1.44489,-2.04122 -0.12197,-0.19229 -0.24593,-0.32787 -0.29712,-0.33124 z m -34.46817,0.93792 c -0.0495,-0.0122 -0.0897,0.0498 -0.14211,0.18087 -0.10441,0.25966 -0.91266,1.42468 -2.29135,3.30213 -1.56003,2.12436 -2.18921,3.18943 -2.4412,4.13308 -0.13393,0.48782 -0.0871,1.4817 0.0868,1.91047 0.3051,0.75405 0.93033,1.24894 1.77353,1.40509 1.0826,0.20047 1.94757,-0.21976 2.61639,-1.27176 0.1365,-0.21378 0.13753,-0.21132 0.10644,0.25115 -0.078,1.18409 -0.5338,2.7287 -1.04799,3.55379 -0.1343,0.2155 -0.24368,0.40571 -0.24289,0.42271 8e-4,0.0172 0.46702,-0.005 1.03611,-0.0491 0.73099,-0.0566 1.19727,-0.0498 1.58957,0.0232 0.30519,0.0569 0.57049,0.0875 0.58859,0.0672 0.018,-0.0203 -0.073,-0.21367 -0.20307,-0.42943 -0.2894,-0.47914 -0.56835,-1.135 -0.77824,-1.82883 -0.15452,-0.51048 -0.41773,-2.12852 -0.35761,-2.1947 0.017,-0.0184 0.13308,0.14705 0.25839,0.36742 0.44817,0.78826 1.13167,1.16001 2.06187,1.12086 0.78631,-0.033 1.29664,-0.25664 1.75236,-0.76894 0.66008,-0.74255 0.82743,-1.67689 0.49453,-2.76676 -0.2523,-0.82522 -0.92839,-1.93894 -2.3673,-3.8995 -1.7077,-2.32683 -2.07587,-2.84937 -2.28357,-3.23908 -0.0958,-0.1798 -0.15764,-0.27378 -0.20878,-0.28991 z m 23.5944,18.10794 c -0.0632,0.0164 -0.1982,0.16547 -0.32245,0.36174 -0.14189,0.2243 -0.78668,1.14148 -1.43298,2.03863 -1.1575,1.60636 -1.57816,2.32562 -1.75908,3.01067 -0.1247,0.47299 -0.10565,0.80942 0.0693,1.24075 0.28218,0.69749 0.94377,1.13361 1.66966,1.10071 0.63071,-0.0286 1.14718,-0.34106 1.44229,-0.87126 0.1778,-0.3191 0.18526,-0.22711 0.0512,0.61598 -0.10369,0.65126 -0.44908,1.59373 -0.79219,2.16111 l -0.17777,0.29352 0.2868,-0.078 c 0.3751,-0.1024 1.40293,-0.1232 1.77044,-0.0357 0.1593,0.0384 0.30726,0.0506 0.32816,0.0274 0.021,-0.0232 -0.0668,-0.21933 -0.1969,-0.43512 -0.31049,-0.5164 -0.52936,-1.1795 -0.65837,-1.99367 -0.058,-0.36445 -0.0973,-0.67218 -0.0863,-0.68368 0.011,-0.0115 0.14282,0.13915 0.29403,0.33434 0.3886,0.50129 0.92946,0.72037 1.58594,0.64286 1.24421,-0.14688 1.85354,-1.39179 1.32345,-2.70475 -0.2431,-0.60225 -0.66014,-1.24804 -1.97406,-3.05459 -0.5579,-0.76715 -1.08111,-1.51344 -1.16271,-1.6583 -0.082,-0.14482 -0.18793,-0.28511 -0.23513,-0.3116 l -0.001,5.1e-4 c -0.006,-0.003 -0.0132,-0.004 -0.0222,-0.002 z m 21.90514,13.96866 c -0.035,0.001 0.06,0.19976 0.21135,0.44183 0.36079,0.57668 0.71705,1.49762 0.90485,2.33939 0.18262,0.81912 0.31012,1.64435 0.25321,1.64693 -0.023,0.001 -0.12319,-0.14048 -0.2222,-0.31522 -0.4032,-0.70905 -1.22327,-1.13959 -2.10116,-1.10278 -0.99221,0.0417 -1.73432,0.46737 -2.09082,1.19941 -0.12361,0.25369 -0.24744,0.57899 -0.27493,0.72295 -0.14999,0.78205 0.10279,1.7503 0.76118,2.91456 0.26393,0.46652 1.1629,1.78189 1.99732,2.92333 0.8346,1.1414 1.66896,2.33306 1.85465,2.6479 0.1855,0.31487 0.35692,0.56994 0.37983,0.56689 0.023,-0.003 0.2132,-0.2954 0.4227,-0.64905 0.2095,-0.35368 1.00949,-1.50311 1.77819,-2.55437 1.886,-2.57927 2.35204,-3.35232 2.65824,-4.4142 0.172,-0.59678 0.12237,-1.44019 -0.11782,-2.00194 -0.7271,-1.70021 -3.34166,-1.85582 -4.25866,-0.25374 -0.12901,0.22541 -0.23529,0.37314 -0.23719,0.32918 -0.013,-0.30184 0.22378,-1.72508 0.37518,-2.25774 0.17978,-0.63265 0.72681,-1.84638 0.87902,-1.95027 0.18828,-0.12854 0.0543,-0.22739 -0.22016,-0.16278 -0.55801,0.13114 -2.01689,0.15458 -2.4598,0.0393 -0.2358,-0.0614 -0.458,-0.11029 -0.49298,-0.10955 z m -31.7314,4.94595 c -0.011,-0.009 -0.22574,0.0269 -0.47852,0.0791 -0.2527,0.052 -0.55703,0.0843 -0.67543,0.0713 -0.11837,-0.0131 -0.41823,-0.041 -0.66712,-0.0615 l -0.45217,-0.0367 0.23407,0.41341 c 0.27361,0.48428 0.59553,1.51317 0.69713,2.23088 0.06,0.42229 0.0531,0.48053 -0.0419,0.3514 -0.60791,-0.83153 -1.32998,-1.09176 -2.22157,-0.79995 -0.37129,0.12149 -0.87429,0.67776 -1.0082,1.11517 h -5.3e-4 c -0.29548,0.9655 0.20688,2.12303 1.87328,4.31292 0.44569,0.58568 0.99814,1.35616 1.22783,1.71307 0.41521,0.64541 0.41828,0.64826 0.53898,0.44442 0.23791,-0.40219 1.14326,-1.70409 1.51516,-2.1792 0.67019,-0.85626 1.4391,-2.0309 1.68259,-2.57038 0.3347,-0.7414 0.34883,-1.5584 0.0351,-2.08411 -0.30419,-0.51012 -0.79523,-0.80824 -1.38803,-0.84233 -0.61971,-0.0357 -1.02087,0.12536 -1.41076,0.56534 -0.20521,0.2316 -0.31538,0.30679 -0.31938,0.21859 -0.019,-0.41968 0.26485,-1.54926 0.54986,-2.18798 0.18097,-0.40522 0.31993,-0.74491 0.30953,-0.75344 z m 21.92476,0.007 c -0.0272,1.3e-4 -0.0673,0.0108 -0.12092,0.0305 -0.283,0.10416 -1.49635,0.1294 -1.82314,0.0377 -0.16862,-0.0473 -0.31969,-0.0716 -0.33591,-0.0537 l 0.002,5.1e-4 c -0.016,0.0178 0.11131,0.29209 0.28421,0.60978 0.32819,0.60332 0.62185,1.61204 0.64905,2.23243 l 0.0171,0.36328 -0.16899,-0.2465 c -0.8132,-1.18578 -2.52357,-1.061 -3.06647,0.22376 -0.11761,0.27296 -0.13277,0.48335 -0.0847,0.99942 0.08,0.84677 0.42007,1.47034 1.93217,3.53726 0.61119,0.83538 1.21438,1.69498 1.34048,1.90996 0.12621,0.21499 0.24892,0.38749 0.27181,0.38447 0.023,-0.003 0.16558,-0.22266 0.31679,-0.48782 0.1511,-0.26517 0.59303,-0.90296 0.98134,-1.41749 1.7949,-2.37793 2.22308,-3.17487 2.22829,-4.14238 0,-0.49034 -0.0339,-0.67264 -0.18965,-0.9462 -0.62252,-1.09471 -2.36697,-1.16138 -2.97297,-0.11369 -0.20248,0.35016 -0.21873,0.20051 -0.0692,-0.63975 0.11631,-0.65329 0.43349,-1.53303 0.70228,-1.94924 0.15225,-0.23714 0.18865,-0.33267 0.10698,-0.33227 z m 11.5471,12.10262 c -0.0891,-0.003 -0.17833,-0.002 -0.26718,0.002 l 0.003,5.1e-4 c -0.7107,0.029 -1.40981,0.25559 -2.00451,0.67645 -0.57481,0.40668 -1.21457,1.19619 -1.54048,1.90014 -0.33542,0.7247 -0.42974,1.05963 -0.54055,1.91203 v 5.2e-4 c -0.10308,0.79244 -0.0129,1.72088 0.24908,2.58226 0.72001,2.3639 2.92854,3.84321 4.87722,3.26751 0.5624,-0.16614 1.0219,-0.44154 1.45161,-0.86972 l 0.23408,-0.23306 -0.0119,0.92501 c -0.01,0.50865 -8.7e-4,1.17117 0.0129,1.47278 l 0.0253,0.5488 -1.58853,0.0129 c -0.87378,0.007 -2.21789,0.006 -2.98741,-0.002 -0.76959,-0.009 -1.47971,-0.0125 -1.57871,-0.009 -0.16849,0.007 -0.17884,0.0608 -0.18294,0.87591 6.1e-4,0.47778 0.0101,0.87989 0.0191,0.89349 0.023,0.024 1.65934,0.0397 4.19664,0.0403 0.6759,1.8e-4 1.8007,0.003 2.5001,0.007 0.6994,0.004 1.29577,-0.0171 1.32448,-0.0465 0.029,-0.0295 0.0517,-1.04517 0.0527,-2.25722 6.1e-4,-1.21198 0,-2.75047 0,-3.41892 6.9e-4,-0.66842 -0.0189,-1.24562 -0.0439,-1.28209 -0.025,-0.0365 -0.4913,-0.0594 -1.03611,-0.0512 l -0.99115,0.0145 -0.24652,0.41238 c -1.03827,1.73253 -3.05345,1.68716 -3.99663,-0.0899 -1.1938,-2.24898 -0.136,-5.42078 1.83761,-5.51026 0.54149,-0.0246 1.10902,0.18848 1.54202,0.57826 0.44021,0.3964 0.69355,0.7793 0.97255,1.46916 0.1646,0.40697 0.1778,0.41706 0.57981,0.45372 0.22619,0.0206 0.63357,0.031 0.90538,0.0227 l 0.4935,-0.016 -0.076,-0.35191 c -0.288,-1.33376 -1.31115,-2.8072 -2.37453,-3.41892 -0.56333,-0.32401 -1.1869,-0.49367 -1.81023,-0.51159 z" />
  </g>
</svg>
