<?xml version="1.0" encoding="UTF-8" standalone="no"?>
<svg
   sodipodi:docname="6D.svg"
   id="svg8"
   version="1.1"
   viewBox="0 0 63.102375 88.347847"
   height="88.347847mm"
   width="63.102375mm"
   inkscape:version="1.1.1 (1:1.1+202109281949+c3084ef5ed)"
   inkscape:export-filename="/home/doug/k40/52Cards/6D.png"
   inkscape:export-xdpi="96"
   inkscape:export-ydpi="96"
   xmlns:inkscape="http://www.inkscape.org/namespaces/inkscape"
   xmlns:sodipodi="http://sodipodi.sourceforge.net/DTD/sodipodi-0.dtd"
   xmlns="http://www.w3.org/2000/svg"
   xmlns:svg="http://www.w3.org/2000/svg"
   xmlns:rdf="http://www.w3.org/1999/02/22-rdf-syntax-ns#"
   xmlns:cc="http://creativecommons.org/ns#"
   xmlns:dc="http://purl.org/dc/elements/1.1/">
  <defs
     id="defs2">
    <marker
       style="overflow:visible"
       id="marker2995"
       refX="0"
       refY="0"
       orient="auto"
       inkscape:stockid="Arrow1Lstart"
       inkscape:isstock="true">
      <path
         transform="matrix(0.8,0,0,0.8,10,0)"
         style="fill:#000000;fill-opacity:1;fill-rule:evenodd;stroke:#000000;stroke-width:1pt;stroke-opacity:1"
         d="M 0,0 5,-5 -12.5,0 5,5 Z"
         id="path2993" />
    </marker>
    <marker
       style="overflow:visible"
       id="marker2985"
       refX="0"
       refY="0"
       orient="auto"
       inkscape:stockid="Arrow1Lstart"
       inkscape:isstock="true">
      <path
         transform="matrix(0.8,0,0,0.8,10,0)"
         style="fill:#000000;fill-opacity:1;fill-rule:evenodd;stroke:#000000;stroke-width:1pt;stroke-opacity:1"
         d="M 0,0 5,-5 -12.5,0 5,5 Z"
         id="path2983" />
    </marker>
    <marker
       style="overflow:visible"
       id="marker2791"
       refX="0"
       refY="0"
       orient="auto"
       inkscape:stockid="Arrow1Lstart"
       inkscape:isstock="true">
      <path
         transform="matrix(0.8,0,0,0.8,10,0)"
         style="fill:#000000;fill-opacity:1;fill-rule:evenodd;stroke:#000000;stroke-width:1pt;stroke-opacity:1"
         d="M 0,0 5,-5 -12.5,0 5,5 Z"
         id="path2789" />
    </marker>
    <marker
       style="overflow:visible"
       id="marker2781"
       refX="0"
       refY="0"
       orient="auto"
       inkscape:stockid="Arrow1Lstart"
       inkscape:isstock="true">
      <path
         transform="matrix(0.8,0,0,0.8,10,0)"
         style="fill:#000000;fill-opacity:1;fill-rule:evenodd;stroke:#000000;stroke-width:1pt;stroke-opacity:1"
         d="M 0,0 5,-5 -12.5,0 5,5 Z"
         id="path2779" />
    </marker>
    <marker
       style="overflow:visible"
       id="marker2417"
       refX="0"
       refY="0"
       orient="auto"
       inkscape:stockid="Arrow1Lstart"
       inkscape:isstock="true">
      <path
         transform="matrix(0.8,0,0,0.8,10,0)"
         style="fill:#000000;fill-opacity:1;fill-rule:evenodd;stroke:#000000;stroke-width:1pt;stroke-opacity:1"
         d="M 0,0 5,-5 -12.5,0 5,5 Z"
         id="path2415" />
    </marker>
    <marker
       style="overflow:visible"
       id="marker2383"
       refX="0"
       refY="0"
       orient="auto"
       inkscape:stockid="Arrow1Lstart"
       inkscape:isstock="true">
      <path
         transform="matrix(0.8,0,0,0.8,10,0)"
         style="fill:#000000;fill-opacity:1;fill-rule:evenodd;stroke:#000000;stroke-width:1pt;stroke-opacity:1"
         d="M 0,0 5,-5 -12.5,0 5,5 Z"
         id="path2381" />
    </marker>
    <marker
       style="overflow:visible"
       id="marker2355"
       refX="0"
       refY="0"
       orient="auto"
       inkscape:stockid="Arrow1Lstart"
       inkscape:isstock="true">
      <path
         transform="matrix(0.8,0,0,0.8,10,0)"
         style="fill:#000000;fill-opacity:1;fill-rule:evenodd;stroke:#000000;stroke-width:1pt;stroke-opacity:1"
         d="M 0,0 5,-5 -12.5,0 5,5 Z"
         id="path2353" />
    </marker>
    <marker
       style="overflow:visible"
       id="Arrow1Lstart"
       refX="0"
       refY="0"
       orient="auto"
       inkscape:stockid="Arrow1Lstart"
       inkscape:isstock="true">
      <path
         transform="matrix(0.8,0,0,0.8,10,0)"
         style="fill:#000000;fill-opacity:1;fill-rule:evenodd;stroke:#000000;stroke-width:1pt;stroke-opacity:1"
         d="M 0,0 5,-5 -12.5,0 5,5 Z"
         id="path2071" />
    </marker>
  </defs>
  <sodipodi:namedview
     id="base"
     pagecolor="#ffffff"
     bordercolor="#666666"
     borderopacity="1.0"
     inkscape:pageopacity="0.0"
     inkscape:pageshadow="2"
     inkscape:zoom="1.5033851"
     inkscape:cx="86.138941"
     inkscape:cy="167.28914"
     inkscape:document-units="mm"
     inkscape:current-layer="layer1"
     inkscape:document-rotation="0"
     showgrid="false"
     inkscape:snap-smooth-nodes="false"
     inkscape:object-nodes="false"
     inkscape:window-width="1366"
     inkscape:window-height="712"
     inkscape:window-x="0"
     inkscape:window-y="0"
     inkscape:window-maximized="1"
     inkscape:object-paths="false"
     inkscape:snap-intersection-paths="false"
     inkscape:snap-midpoints="false"
     inkscape:snap-others="false"
     inkscape:pagecheckerboard="0"
     showguides="true"
     inkscape:guide-bbox="true"
     inkscape:snap-bbox="true"
     showborder="false"
     fit-margin-top="0"
     fit-margin-left="0"
     fit-margin-right="0"
     fit-margin-bottom="0" />
  <metadata
     id="metadata5">
    <rdf:RDF>
      <cc:Work
         rdf:about="">
        <dc:format>image/svg+xml</dc:format>
        <dc:type
           rdf:resource="http://purl.org/dc/dcmitype/StillImage" />
      </cc:Work>
    </rdf:RDF>
  </metadata>
  <g
     inkscape:label="Layer 1"
     inkscape:groupmode="layer"
     id="layer1"
     transform="translate(315.71398,596.89996)">
    <path
       style="fill:#000000;stroke-width:0.0846667"
       id="path389"
       d="" />
    <path
       id="path6742-7-6-6"
       style="fill:#000000;fill-opacity:1;stroke:none;stroke-width:0.264999;stroke-miterlimit:4;stroke-dasharray:none;stroke-opacity:1"
       d="m -307.80379,-596.89967 0.004,5e-4 c -1.1203,10e-4 -2.13585,0.005 -2.77604,0.0124 l -2.32854,0.0258 -0.57774,0.2961 c -0.74232,0.37983 -1.68913,1.3326 -1.98285,1.99522 l -0.20772,0.46924 -0.0103,4.57285 c -0.01,2.5151 -0.0137,5.35426 -0.0207,6.30917 -0.01,0.95488 -0.0103,3.88914 -0.0103,6.52052 0,2.63139 0.01,5.88921 0,7.23988 0,1.35067 3.4e-4,6.68594 0.0103,11.85561 0.01,5.16966 0.01,10.48583 0.01,11.81322 0,1.32741 -8e-5,4.87108 0.0129,7.87498 0.018,5.89954 0.0191,6.55407 0.032,17.75187 0,4.10522 0.012,7.74901 0.014,8.09668 l 10e-4,0.63201 0.19378,0.36793 c 0.32679,0.62015 0.79772,1.1557 1.38182,1.57199 0.99351,0.70773 1.03338,0.71371 4.92476,0.71469 1.32742,2.9e-4 3.09978,0.007 3.93827,0.014 2.4891,0.0218 5.15819,0.0307 9.82316,0.031 2.42192,2.1e-4 4.97528,0.0104 5.6741,0.0232 0.6989,0.0129 3.15669,0.0254 5.46219,0.0284 2.3055,0.003 5.69762,0.0147 7.53753,0.0263 1.83994,0.0117 5.95609,0.0336 9.14672,0.0491 3.19064,0.0154 7.01998,0.0368 8.51059,0.048 3.07438,0.023 3.48237,-10e-4 3.99045,-0.2372 h 0.004 c 1.01216,-0.47017 2.15492,-1.68204 2.34558,-2.48769 0.0404,-0.17103 0.0777,-2.38742 0.0816,-4.92581 0.0142,-8.09741 0.008,-17.79325 -0.0139,-21.67879 -0.0116,-2.07232 -0.0228,-5.9205 -0.0258,-8.55191 -0.002,-2.63142 -0.008,-7.0139 -0.0124,-9.73844 -0.02,-13.76802 -0.0233,-26.62156 -0.01,-33.09771 l 0.01,-4.60283 -0.29353,-0.55758 c -0.52456,-0.99563 -1.77517,-2.04705 -2.61017,-2.19469 -0.44011,-0.0778 -2.16631,-0.0939 -12.87362,-0.11835 -1.25757,-0.003 -2.80088,-0.0116 -3.42977,-0.0186 -0.62889,-0.007 -2.3822,-0.0131 -3.89588,-0.0129 -2.81827,4e-4 -12.30347,-0.0289 -15.79388,-0.0486 -1.0713,-0.006 -3.5292,-0.0179 -5.46219,-0.0269 -1.93302,-0.009 -5.24873,-0.026 -7.36804,-0.0367 -1.05971,-0.005 -2.28518,-0.007 -3.40548,-0.006 z m -4.04987,0.50798 5e-4,5.2e-4 c 2.647,-0.0141 12.9395,0.0446 23.60891,0.13849 2.11971,0.0184 8.02338,0.0648 13.12272,0.10284 5.09908,0.038 11.67167,0.0878 14.60479,0.11213 l 5.19141,0.0419 0.42426,0.22738 c 0.5733,0.30673 1.35493,1.10075 1.58388,1.56424 l 0.18707,0.38034 0.0114,4.60592 c 0.009,3.78238 -0.002,12.616 -0.0191,20.70521 -0.0178,8.08921 -0.044,15.4941 -0.0615,16.23671 -0.0207,0.88429 -0.0393,7.87691 -0.0455,15.67759 -0.006,8.12718 -0.02,14.33267 -0.0408,18.55082 -0.0104,2.10907 -0.0233,3.72226 -0.0372,4.82814 -0.007,0.55292 -0.013,0.97914 -0.0207,1.27537 -0.004,0.14811 -0.009,0.26408 -0.0124,0.34364 -0.004,0.0796 -0.0173,0.15912 -0.003,0.0822 -0.0654,0.34512 -0.41899,0.9538 -0.9126,1.40144 -0.69162,0.62725 -1.19348,0.88096 -1.8061,0.97103 -0.22447,0.033 -0.72691,0.0666 -1.15083,0.0796 -0.21196,0.007 -0.40867,0.009 -0.54517,0.006 -0.06,-10e-4 -0.10115,-0.005 -0.12663,-0.007 -0.005,-0.002 -0.0155,-0.004 -0.0155,-0.004 -5.6e-4,-1.6e-4 -0.048,-0.0105 -0.0605,-0.0124 -0.0249,-0.004 -0.0347,-0.005 -0.045,-0.006 -0.0206,-0.002 -0.0347,-10e-4 -0.0506,-0.002 -0.0319,-0.002 -0.0696,-0.004 -0.11731,-0.005 -0.0954,-0.003 -0.23059,-0.006 -0.40254,-0.009 -0.34396,-0.006 -0.83511,-0.0117 -1.44127,-0.0181 -1.21229,-0.0127 -2.87813,-0.0254 -4.7067,-0.0362 -3.65498,-0.0216 -8.32527,-0.0541 -10.37299,-0.0713 -5.82638,-0.0488 -12.05632,-0.0927 -19.00711,-0.13229 -3.51559,-0.02 -9.19493,-0.0549 -12.61731,-0.078 l -6.09164,-0.0403 -0.4749,-0.22789 c -0.5453,-0.26201 -1.26915,-0.93972 -1.66036,-1.59628 l -0.21601,-0.36121 -0.0243,-17.41239 c -0.024,-16.53714 0.034,-44.23044 0.12351,-58.63775 l 0.0398,-6.30454 0.26821,-0.52917 c 0.4581,-0.90781 1.63348,-1.76157 2.32389,-1.83451 -0.04,0.004 0.045,-0.002 0.1483,-0.003 0.10699,-9.8e-4 0.2573,-0.002 0.44701,-0.003 z m 4.1093,3.65611 c -2.37765,0.0173 -4.00148,1.47532 -4.68448,4.20646 -0.10575,0.42301 -0.22145,1.09397 -0.25683,1.49034 -0.36928,4.14565 1.06439,7.3206 3.64683,8.07651 0.65932,0.19299 1.94064,0.21273 2.59983,0.0398 1.99773,-0.52414 3.47334,-2.38207 3.44836,-4.33978 -0.016,-1.24198 -0.44309,-2.22448 -1.34927,-3.10266 -0.68595,-0.66477 -1.42525,-1.05315 -2.35074,-1.23508 -0.69048,-0.13573 -0.97562,-0.13075 -1.8061,0.03 -0.81296,0.15737 -1.59004,0.53483 -2.05674,0.99891 -0.19515,0.19407 -0.37938,0.3525 -0.40925,0.35295 -0.0929,10e-4 0.028,-1.11818 0.19637,-1.81954 0.33292,-1.387 0.92427,-2.24594 1.86603,-2.71095 0.43021,-0.2124 0.60409,-0.24862 1.18184,-0.25217 0.40124,-0.002 0.84225,0.0516 1.08209,0.13229 0.56158,0.18876 1.15583,0.71462 1.55443,1.37512 0.18534,0.30708 0.36417,0.55806 0.39687,0.55758 0.0327,-5e-4 0.3316,-0.138 0.66405,-0.30593 0.33245,-0.16791 0.66056,-0.30644 0.72917,-0.30748 0.0687,-9.7e-4 0.12377,-0.046 0.12298,-0.0997 -0.003,-0.23365 -0.67091,-1.22261 -1.17512,-1.74148 -0.92406,-0.951 -1.94707,-1.35576 -3.40032,-1.34515 z m 0.093,6.77477 c 0.5674,-0.007 0.77539,0.0306 1.21698,0.22222 1.9448,0.8437 2.22163,3.42424 0.49766,4.6359 -0.56023,0.39375 -1.08564,0.53226 -1.8645,0.49297 -1.24597,-0.0629 -2.26964,-0.92131 -2.53886,-2.12905 -0.10737,-0.48191 -0.10766,-0.48342 -0.0289,-0.99013 0.12229,-0.78774 0.72522,-1.55852 1.54358,-1.97405 0.41709,-0.2118 0.59203,-0.25022 1.17408,-0.25786 z m 32.01509,5.70457 c -2.46824,0.005 -6.73642,0.007 -9.48417,0.005 -2.74776,-0.002 -7.1868,0.005 -9.86452,0.0176 -2.67769,0.0119 -5.06595,0.011 -5.30717,-0.002 l -5e-4,5.3e-4 c -0.28596,-0.0155 -0.45067,0.012 -0.4749,0.078 -0.0204,0.0558 -0.0277,1.18652 -0.016,2.51251 0.0118,1.32596 0.0159,3.07716 0.01,3.89226 -0.007,0.8151 0.007,4.39682 0.031,7.95919 0.0235,3.56241 0.0351,6.87734 0.0258,7.36648 -0.009,0.48916 -4e-4,3.5755 0.0196,6.8585 0.02,3.28303 0.0311,6.75069 0.0253,7.70549 -0.006,0.9548 0.008,4.66913 0.0315,8.25479 0.0227,3.58571 0.0332,6.52925 0.0243,6.54068 -0.009,0.0115 -0.002,0.86855 0.0171,1.90479 l 0.0351,1.88465 2.87941,0.01 c 1.58353,0.006 4.78425,0.006 7.11274,5e-4 3.95026,-0.009 5.68,-0.009 12.32019,-0.003 1.42045,10e-4 4.40169,10e-4 6.62543,-5.3e-4 l 4.04368,-0.004 -0.016,-1.55855 c -0.009,-0.85694 -0.0101,-1.91958 -0.002,-2.36212 0.008,-0.44257 -0.005,-3.75754 -0.0289,-7.36648 -0.0236,-3.60897 -0.0318,-6.96203 -0.0186,-7.45122 0.0132,-0.48922 0.007,-3.46149 -0.015,-6.60477 -0.0211,-3.1433 -0.0319,-6.51497 -0.0243,-7.49311 0.0134,-1.72876 0.002,-5.0587 -0.0537,-15.28381 -0.0147,-2.72423 -0.0171,-5.38147 -0.005,-5.90558 l 0.0222,-0.95343 -1.37356,0.009 c -0.75549,0.005 -1.52614,0.003 -1.71254,-0.005 -0.18643,-0.008 -2.35786,-0.0111 -4.82608,-0.006 z m 7.52152,0.34727 -0.004,3.36618 c -0.002,1.85129 0.004,5.2138 0.014,7.47242 0.01,2.25859 0.016,5.23034 0.0134,6.60426 -0.003,1.37388 7.7e-4,4.21251 0.009,6.30815 0.007,2.0956 0.0165,5.2774 0.0201,7.07035 0.004,1.79298 0.0159,5.35556 0.0269,7.91684 0.011,2.56127 0.0176,5.43811 0.0145,6.39289 -0.003,0.95475 0.009,3.10737 0.0269,4.78369 0.018,1.67629 0.0159,3.34603 -0.004,3.71089 l -0.0362,0.66352 -1.74561,-0.0222 c -0.96018,-0.0123 -3.53703,-0.0154 -5.72577,-0.007 -3.71184,0.0145 -5.44349,0.0148 -11.51557,0.001 -1.30405,-0.003 -4.54303,0.002 -7.19748,0.0109 -2.65446,0.009 -5.07421,0.0155 -5.37695,0.015 l -0.55036,-10e-4 -0.0641,-3.05668 c -0.0351,-1.68132 -0.0506,-3.07199 -0.0351,-3.09025 0.0155,-0.0182 0.006,-3.1769 -0.0201,-7.01868 -0.0267,-3.84178 -0.0406,-7.63294 -0.0305,-8.42481 0.0101,-0.79187 10e-4,-3.99222 -0.0196,-7.11224 -0.0212,-3.11996 -0.0325,-6.45401 -0.0253,-7.40883 0.007,-0.95483 0.003,-3.77436 -0.0103,-6.26579 -0.0126,-2.49139 -0.0227,-6.18363 -0.0227,-8.20465 v -3.67419 l 4.07262,-0.005 c 2.24031,-0.003 5.08373,-0.002 6.31796,0.003 2.78424,0.0107 7.08033,0.006 12.87002,-0.016 2.44489,-0.009 4.6168,-0.005 4.82656,0.009 0.20979,0.014 1.23447,0.0145 2.27687,0.002 z m -26.41441,3.17293 -0.49403,0.92189 c -0.27178,0.50718 -0.60825,1.09638 -0.74827,1.30897 -0.41846,0.63543 -1.4278,1.8991 -1.87947,2.35334 l -0.42219,0.42479 0.54208,0.50488 c 0.87648,0.8155 1.81335,2.12711 2.60657,3.6499 0.2165,0.41563 0.40875,0.75581 0.42735,0.75551 0.0186,-2.9e-4 0.19137,-0.29821 0.38344,-0.66196 0.76372,-1.44634 1.78591,-2.88946 2.64014,-3.72795 0.28041,-0.27525 0.50953,-0.52866 0.50901,-0.56274 -4.8e-4,-0.0341 -0.14047,-0.19135 -0.31057,-0.34936 -0.83397,-0.77449 -1.86066,-2.16096 -2.71455,-3.66591 z m 20.64112,0.0367 c -0.0783,0.0114 -0.26976,0.29912 -0.57361,0.86249 -0.76523,1.41894 -1.65918,2.66666 -2.5735,3.59151 l -0.46199,0.46768 0.53486,0.54933 c 0.29451,0.30183 0.66,0.69844 0.81185,0.88159 0.46656,0.5629 1.45886,2.09706 1.81385,2.80397 0.18523,0.36896 0.36488,0.6713 0.39894,0.67281 0.034,10e-4 0.13686,-0.15071 0.22891,-0.33795 0.33555,-0.68244 1.19476,-2.10524 1.59938,-2.64893 0.22821,-0.30663 0.70864,-0.8677 1.06815,-1.24696 l 0.65424,-0.68987 -0.4403,-0.41394 c -0.55308,-0.52067 -1.56347,-1.80819 -2.00141,-2.55074 -0.47665,-0.80828 -1.01759,-1.79647 -1.01854,-1.86037 -8.7e-4,-0.0578 -0.0147,-0.0844 -0.0408,-0.0806 z m -33.96435,0.89713 -0.22685,0.46662 c -1.02817,2.12148 -3.03376,4.97911 -4.29226,6.11592 -0.20965,0.18939 -0.38425,0.38364 -0.38756,0.43098 -0.004,0.0474 0.22548,0.30726 0.50954,0.57774 1.22713,1.16859 2.87382,3.47755 3.8685,5.42446 0.27564,0.53952 0.52975,0.98354 0.5643,0.98703 0.0345,0.003 0.23397,-0.34951 0.44339,-0.7834 0.82545,-1.71053 2.36741,-3.94065 3.65146,-5.28135 0.47427,-0.49522 0.8622,-0.91377 0.86196,-0.93017 -2.4e-4,-0.0164 -0.308,-0.33634 -0.68368,-0.71107 -1.40629,-1.40258 -2.81086,-3.37492 -3.85765,-5.41673 z m 33.92094,18.06297 -0.31936,0.65474 c -0.64936,1.33244 -2.11071,3.36777 -2.87993,4.0106 l -0.3266,0.27287 0.31369,0.32866 c 0.50265,0.5265 0.51906,0.54523 1.00303,1.13377 0.52726,0.64114 1.48032,2.10502 1.92029,2.95021 0.27493,0.52811 0.46313,0.71956 0.4594,0.46768 -0.003,-0.17275 1.14409,-2.09669 1.71516,-2.87788 0.29589,-0.40473 0.80529,-1.01846 1.13223,-1.36424 l 0.59426,-0.62839 -0.39169,-0.34829 c -0.86993,-0.77251 -1.77842,-2.02467 -2.82774,-3.89848 z m -20.56567,0.0677 c -0.0319,2.1e-4 -0.0802,0.075 -0.1075,0.16586 -0.0887,0.29462 -0.8944,1.68804 -1.44589,2.50114 -0.29589,0.43621 -0.84162,1.10249 -1.21285,1.48052 -0.37121,0.37809 -0.68049,0.72488 -0.68781,0.7705 -0.007,0.0456 0.25333,0.34589 0.5793,0.66818 0.68993,0.68212 1.90275,2.39702 2.47735,3.50366 0.22029,0.42418 0.4115,0.78243 0.42531,0.79581 0.0138,0.0134 0.30486,-0.46609 0.64596,-1.06608 0.78303,-1.37742 1.48256,-2.35556 2.32182,-3.24474 l 0.65887,-0.69869 -0.26665,-0.18396 c -0.59843,-0.41291 -2.0529,-2.36302 -2.85824,-3.83181 -0.25948,-0.47326 -0.49787,-0.86087 -0.52967,-0.86039 z m 33.97983,13.96968 c -0.0543,-0.0159 -0.17992,0.16547 -0.33539,0.49815 -0.8332,1.78322 -2.5781,4.34306 -3.86384,5.66735 l -0.79219,0.81598 0.98909,1.04748 c 1.35422,1.43357 2.53344,3.15733 3.71708,5.43325 l 0.2775,0.53382 0.49712,-0.92604 c 1.27011,-2.37059 2.14024,-3.61767 3.60651,-5.16557 l 0.85577,-0.90331 -0.71779,-0.72501 c -0.75806,-0.76637 -1.59422,-1.81356 -2.39106,-2.99516 -0.48977,-0.72621 -1.81126,-3.05642 -1.81333,-3.19723 -7.6e-4,-0.051 -0.0114,-0.0784 -0.0295,-0.0837 z m -13.32529,5.03071 c -0.0181,2.6e-4 -0.12607,0.19137 -0.24029,0.42529 -0.65236,1.33609 -1.85767,3.05839 -2.81274,4.01989 -0.25662,0.25837 -0.4664,0.48538 -0.46611,0.50488 2.9e-4,0.0195 0.26432,0.3053 0.58652,0.6346 0.89157,0.9112 2.25825,2.89587 2.79104,4.05297 0.0682,0.14824 0.14393,0.26908 0.16743,0.26874 0.0235,-4.8e-4 0.15012,-0.21334 0.28112,-0.47337 0.67059,-1.33096 1.79308,-2.94786 2.77037,-3.98994 l 0.45733,-0.48834 -0.53898,-0.56896 c -0.29652,-0.31317 -0.70382,-0.77672 -0.90538,-1.0299 -0.4876,-0.61248 -1.48275,-2.17667 -1.80144,-2.83135 -0.14068,-0.28901 -0.27077,-0.52481 -0.28887,-0.52451 z m -20.58477,0.0785 c -0.0378,-0.009 -0.19799,0.2557 -0.35605,0.5886 -0.54009,1.13752 -1.55913,2.62212 -2.36368,3.4427 -0.41881,0.42712 -0.76843,0.79026 -0.77618,0.80717 -0.008,0.0169 0.27318,0.32705 0.62476,0.6899 0.75734,0.78152 1.81578,2.28647 2.46031,3.49744 l 0.46251,0.86921 0.5488,-0.99065 c 0.76663,-1.38356 1.5112,-2.44615 2.30839,-3.29488 l 0.68212,-0.72605 -0.78237,-0.84079 c -0.85371,-0.91763 -1.61946,-1.99234 -2.30116,-3.22977 -0.24125,-0.43796 -0.46964,-0.80343 -0.50745,-0.81288 z m 4.10776,1.35703 c -0.0893,-0.002 -0.13911,0.0183 -0.11059,0.046 0.0285,0.0281 0.10202,0.0305 0.16277,0.005 0.0671,-0.0281 0.0464,-0.0482 -0.0522,-0.0507 z m 29.64056,10.56266 c -1.74347,0.0258 -3.08168,0.7121 -3.9207,2.0097 -0.42233,0.6532 -0.66932,1.34176 -0.7312,2.03914 -0.0556,0.62688 0.0349,1.38256 0.2346,1.95856 0.1705,0.4918 0.87614,1.47555 1.30432,1.81797 0.49636,0.39696 1.39525,0.81966 2.04327,0.96118 1.35639,0.2962 3.0571,-0.14615 3.99563,-1.0387 0.18643,-0.17727 0.35626,-0.29615 0.37671,-0.26405 0.0472,0.0739 -0.1384,1.45589 -0.25942,1.93217 -0.29646,1.1666 -0.93308,2.06851 -1.76371,2.49907 -0.44929,0.23283 -0.60426,0.26852 -1.21076,0.27749 -0.76327,0.0113 -1.19306,-0.10006 -1.73945,-0.45008 -0.3628,-0.23244 -0.90588,-0.93075 -1.11826,-1.43764 -0.0638,-0.15219 -0.14412,-0.26509 -0.17881,-0.25114 -0.4722,0.1896 -1.50484,0.7443 -1.50688,0.80925 -0.001,0.047 0.10179,0.27424 0.22841,0.50488 0.98955,1.8024 2.75228,2.75847 4.7284,2.56418 1.66037,-0.16327 2.96751,-1.08235 3.70313,-2.6045 1.47265,-3.04723 1.0586,-7.85884 -0.85111,-9.88724 -0.92596,-0.98354 -2.02771,-1.45958 -3.33417,-1.44024 z m -0.1664,1.8247 c 0.64601,-0.0109 0.83339,0.0196 1.23092,0.2 0.56677,0.25712 1.08234,0.74303 1.37459,1.29501 0.18056,0.34086 0.21903,0.52951 0.22792,1.12913 0.0125,0.84095 -0.1678,1.30625 -0.72967,1.88413 -1.3367,1.37464 -3.69882,1.02028 -4.55478,-0.68319 -0.27987,-0.55684 -0.3275,-1.5191 -0.10438,-2.10735 0.22916,-0.60412 0.73785,-1.1707 1.31311,-1.46193 0.41576,-0.21053 0.58266,-0.24505 1.24229,-0.2558 z" />
  </g>
</svg>
