<?xml version="1.0" encoding="UTF-8" standalone="no"?>
<svg
   sodipodi:docname="7H.svg"
   id="svg8"
   version="1.1"
   viewBox="0 0 63.475391 88.142967"
   height="88.142967mm"
   width="63.475391mm"
   inkscape:version="1.1.1 (1:1.1+202109281949+c3084ef5ed)"
   inkscape:export-filename="/home/doug/k40/52Cards/7H.png"
   inkscape:export-xdpi="96"
   inkscape:export-ydpi="96"
   xmlns:inkscape="http://www.inkscape.org/namespaces/inkscape"
   xmlns:sodipodi="http://sodipodi.sourceforge.net/DTD/sodipodi-0.dtd"
   xmlns="http://www.w3.org/2000/svg"
   xmlns:svg="http://www.w3.org/2000/svg"
   xmlns:rdf="http://www.w3.org/1999/02/22-rdf-syntax-ns#"
   xmlns:cc="http://creativecommons.org/ns#"
   xmlns:dc="http://purl.org/dc/elements/1.1/">
  <defs
     id="defs2">
    <marker
       style="overflow:visible"
       id="marker2995"
       refX="0"
       refY="0"
       orient="auto"
       inkscape:stockid="Arrow1Lstart"
       inkscape:isstock="true">
      <path
         transform="matrix(0.8,0,0,0.8,10,0)"
         style="fill:#000000;fill-opacity:1;fill-rule:evenodd;stroke:#000000;stroke-width:1pt;stroke-opacity:1"
         d="M 0,0 5,-5 -12.5,0 5,5 Z"
         id="path2993" />
    </marker>
    <marker
       style="overflow:visible"
       id="marker2985"
       refX="0"
       refY="0"
       orient="auto"
       inkscape:stockid="Arrow1Lstart"
       inkscape:isstock="true">
      <path
         transform="matrix(0.8,0,0,0.8,10,0)"
         style="fill:#000000;fill-opacity:1;fill-rule:evenodd;stroke:#000000;stroke-width:1pt;stroke-opacity:1"
         d="M 0,0 5,-5 -12.5,0 5,5 Z"
         id="path2983" />
    </marker>
    <marker
       style="overflow:visible"
       id="marker2791"
       refX="0"
       refY="0"
       orient="auto"
       inkscape:stockid="Arrow1Lstart"
       inkscape:isstock="true">
      <path
         transform="matrix(0.8,0,0,0.8,10,0)"
         style="fill:#000000;fill-opacity:1;fill-rule:evenodd;stroke:#000000;stroke-width:1pt;stroke-opacity:1"
         d="M 0,0 5,-5 -12.5,0 5,5 Z"
         id="path2789" />
    </marker>
    <marker
       style="overflow:visible"
       id="marker2781"
       refX="0"
       refY="0"
       orient="auto"
       inkscape:stockid="Arrow1Lstart"
       inkscape:isstock="true">
      <path
         transform="matrix(0.8,0,0,0.8,10,0)"
         style="fill:#000000;fill-opacity:1;fill-rule:evenodd;stroke:#000000;stroke-width:1pt;stroke-opacity:1"
         d="M 0,0 5,-5 -12.5,0 5,5 Z"
         id="path2779" />
    </marker>
    <marker
       style="overflow:visible"
       id="marker2417"
       refX="0"
       refY="0"
       orient="auto"
       inkscape:stockid="Arrow1Lstart"
       inkscape:isstock="true">
      <path
         transform="matrix(0.8,0,0,0.8,10,0)"
         style="fill:#000000;fill-opacity:1;fill-rule:evenodd;stroke:#000000;stroke-width:1pt;stroke-opacity:1"
         d="M 0,0 5,-5 -12.5,0 5,5 Z"
         id="path2415" />
    </marker>
    <marker
       style="overflow:visible"
       id="marker2383"
       refX="0"
       refY="0"
       orient="auto"
       inkscape:stockid="Arrow1Lstart"
       inkscape:isstock="true">
      <path
         transform="matrix(0.8,0,0,0.8,10,0)"
         style="fill:#000000;fill-opacity:1;fill-rule:evenodd;stroke:#000000;stroke-width:1pt;stroke-opacity:1"
         d="M 0,0 5,-5 -12.5,0 5,5 Z"
         id="path2381" />
    </marker>
    <marker
       style="overflow:visible"
       id="marker2355"
       refX="0"
       refY="0"
       orient="auto"
       inkscape:stockid="Arrow1Lstart"
       inkscape:isstock="true">
      <path
         transform="matrix(0.8,0,0,0.8,10,0)"
         style="fill:#000000;fill-opacity:1;fill-rule:evenodd;stroke:#000000;stroke-width:1pt;stroke-opacity:1"
         d="M 0,0 5,-5 -12.5,0 5,5 Z"
         id="path2353" />
    </marker>
    <marker
       style="overflow:visible"
       id="Arrow1Lstart"
       refX="0"
       refY="0"
       orient="auto"
       inkscape:stockid="Arrow1Lstart"
       inkscape:isstock="true">
      <path
         transform="matrix(0.8,0,0,0.8,10,0)"
         style="fill:#000000;fill-opacity:1;fill-rule:evenodd;stroke:#000000;stroke-width:1pt;stroke-opacity:1"
         d="M 0,0 5,-5 -12.5,0 5,5 Z"
         id="path2071" />
    </marker>
  </defs>
  <sodipodi:namedview
     id="base"
     pagecolor="#ffffff"
     bordercolor="#666666"
     borderopacity="1.0"
     inkscape:pageopacity="0.0"
     inkscape:pageshadow="2"
     inkscape:zoom="1.5068795"
     inkscape:cx="86.602811"
     inkscape:cy="166.9012"
     inkscape:document-units="mm"
     inkscape:current-layer="layer1"
     inkscape:document-rotation="0"
     showgrid="false"
     inkscape:snap-smooth-nodes="false"
     inkscape:object-nodes="false"
     inkscape:window-width="1366"
     inkscape:window-height="712"
     inkscape:window-x="0"
     inkscape:window-y="0"
     inkscape:window-maximized="1"
     inkscape:object-paths="false"
     inkscape:snap-intersection-paths="false"
     inkscape:snap-midpoints="false"
     inkscape:snap-others="false"
     inkscape:pagecheckerboard="0"
     showguides="true"
     inkscape:guide-bbox="true"
     inkscape:snap-bbox="true"
     showborder="false"
     fit-margin-top="0"
     fit-margin-left="0"
     fit-margin-right="0"
     fit-margin-bottom="0" />
  <metadata
     id="metadata5">
    <rdf:RDF>
      <cc:Work
         rdf:about="">
        <dc:format>image/svg+xml</dc:format>
        <dc:type
           rdf:resource="http://purl.org/dc/dcmitype/StillImage" />
      </cc:Work>
    </rdf:RDF>
  </metadata>
  <g
     inkscape:label="Layer 1"
     inkscape:groupmode="layer"
     id="layer1"
     transform="translate(229.80937,353.53416)">
    <path
       id="path1784-2"
       style="fill:#000000;stroke:none;stroke-width:0.265;stroke-miterlimit:4;stroke-dasharray:none"
       d="m -217.25819,-353.52955 c -4.23736,0.006 -7.4743,0.0184 -8.80618,0.0351 -0.37995,0.005 -0.60484,0.01 -0.65321,0.015 -1.0024,0.11326 -2.22231,1.06973 -2.76778,2.17041 l -0.32401,0.65422 0.006,6.44302 c 0.0152,14.41067 0.15756,42.10358 0.30129,58.64241 l 0.15245,17.57051 0.30128,0.49764 c 0.45987,0.75935 1.22626,1.48041 1.92236,1.80868 l 0.59581,0.28112 6.2229,-0.004 c 3.42278,-0.002 9.09986,-0.008 12.61575,-0.0134 6.95042,-0.0109 13.18271,-0.0127 19.00867,-0.006 2.04904,0.002 6.71635,3.4e-4 10.37196,-0.005 3.65562,-0.005 6.66269,0.004 6.68229,0.0212 0.0733,0.0631 1.51072,0.009 2.07119,-0.077 0.73509,-0.11353 1.36429,-0.45216 2.10219,-1.1312 0.56756,-0.52229 0.98332,-1.18769 1.08262,-1.73323 0.0667,-0.36619 0.0469,-8.9338 -0.0584,-25.18864 -0.0505,-7.79981 -0.0809,-14.84805 -0.0677,-15.66313 0.0263,-1.62671 -0.11544,-29.38645 -0.18862,-36.95743 l -0.0455,-4.74132 -0.25167,-0.49919 c -0.32187,-0.63985 -1.13096,-1.43307 -1.84536,-1.80868 l -0.55293,-0.29042 -5.33456,-0.004 c -2.93385,-0.003 -9.50602,-0.006 -14.60531,-0.007 -5.09932,-10e-4 -11.00535,-0.005 -13.12426,-0.008 -5.33548,-0.008 -10.57381,-0.008 -14.81151,-0.002 z m -0.002,0.58446 c 4.23777,-0.006 9.47867,-0.006 14.81357,0.002 2.11976,0.003 8.02322,0.007 13.12272,0.008 5.09924,10e-4 11.6726,0.003 14.60582,0.006 l 5.19089,0.004 0.42582,0.2248 c 0.57552,0.30258 1.36345,1.09105 1.59578,1.55287 l 0.18965,0.37879 0.045,4.6054 c 0.0366,3.78221 0.0897,12.61607 0.13073,20.7052 0.041,8.08913 0.0689,15.4935 0.0569,16.23621 -0.0143,0.88441 0.0177,7.87707 0.0682,15.6776 0.0526,8.127 0.0837,14.33263 0.0935,18.5508 0.005,2.10909 0.004,3.7222 -0.002,4.82813 -0.003,0.55297 -0.006,0.97911 -0.0119,1.27538 -0.003,0.14813 -0.007,0.26406 -0.01,0.34365 -0.003,0.0796 -0.0161,0.15926 -0.002,0.0822 -0.0629,0.3456 -0.41193,0.95695 -0.90228,1.40818 -0.68701,0.63224 -1.18692,0.88993 -1.79885,0.98444 -0.22423,0.0346 -0.72649,0.0718 -1.1503,0.0878 -0.21193,0.008 -0.40815,0.0119 -0.54467,0.01 -0.06,-9.4e-4 -0.10165,-0.004 -0.12713,-0.006 -0.005,-0.002 -0.0155,-0.004 -0.0155,-0.004 -5.3e-4,-1.3e-4 -0.0485,-0.01 -0.061,-0.0119 -0.025,-0.004 -0.0341,-0.005 -0.0444,-0.006 -0.0206,-0.002 -0.0352,-0.001 -0.0512,-0.002 -0.0319,-0.001 -0.0696,-0.003 -0.11732,-0.004 -0.0954,-0.002 -0.23005,-0.005 -0.40203,-0.006 -0.34396,-0.003 -0.83508,-0.006 -1.44127,-0.008 -1.21232,-0.004 -2.87864,-0.005 -4.7072,-0.002 -3.65506,0.005 -8.32517,0.006 -10.37299,0.004 -5.82652,-0.006 -12.05674,-0.005 -19.00764,0.006 -3.51562,0.005 -9.19493,0.0123 -12.61732,0.0139 l -6.09213,0.004 -0.47647,-0.22428 c -0.54721,-0.25805 -1.27582,-0.93017 -1.67171,-1.58388 l -0.2186,-0.35967 -0.15036,-17.41186 c -0.14373,-16.53655 -0.28769,-44.22916 -0.30285,-58.63672 l -0.006,-6.30505 0.26406,-0.53123 c 0.45154,-0.91114 1.6206,-1.77362 2.31044,-1.85156 -0.0397,0.004 0.0454,-0.002 0.14833,-0.004 0.10694,-0.002 0.25781,-0.004 0.44752,-0.006 1.32342,-0.0166 4.55808,-0.0289 8.79583,-0.0351 z m -8.33901,3.38635 -0.0481,0.20206 c -0.0265,0.11114 -0.0291,0.94523 -0.007,1.85311 l 0.0398,1.65055 0.9307,-0.009 0.93173,-0.009 0.0341,-0.84749 0.0341,-0.84646 2.06809,-0.0429 c 1.1375,-0.0235 2.10119,-0.0106 2.14095,0.0284 0.0398,0.0391 -0.004,0.16946 -0.0966,0.2899 -0.27985,0.36289 -1.3114,2.14746 -1.70016,2.94091 -0.98512,2.01075 -1.78101,4.46188 -2.25877,6.95616 -0.35589,1.85805 -0.35759,1.8731 -0.21291,1.95131 h 5e-4 c 0.14335,0.0775 1.70154,0.0793 1.77819,0.002 0.0276,-0.0279 0.14152,-0.50533 0.2527,-1.06092 0.86831,-4.33855 2.24793,-7.73335 4.21164,-10.36475 l 0.63148,-0.84646 -0.008,-0.86506 c -0.005,-0.53227 -0.0443,-0.88632 -0.10128,-0.92087 -0.051,-0.0309 -2.01113,-0.0569 -4.35634,-0.0584 z m 34.73638,12.64316 c -2.20007,0.002 -4.68916,0.008 -6.93603,0.0165 -4.49376,0.0166 -8.45626,0.0196 -8.80565,0.006 -0.34941,-0.0133 -2.29245,-0.0131 -4.31808,5.1e-4 l -3.683,0.0243 -0.008,0.23823 c -0.004,0.13104 0.0123,4.90524 0.0367,10.60968 0.0244,5.70444 0.0449,12.18195 0.046,14.39396 0.001,2.21201 0.0142,7.37425 0.029,11.47216 0.0146,4.09793 0.0255,9.83667 0.0243,12.7522 -0.001,3.43223 0.0275,5.31893 0.0816,5.35161 0.0991,0.0599 8.89625,0.0714 25.38347,0.0336 3.91168,-0.009 7.12925,-6e-4 7.15047,0.0186 0.0212,0.0188 0.098,0.0228 0.16999,0.008 0.16248,-0.0329 0.14867,0.91991 0.12145,-8.61808 -0.0128,-4.4472 -0.0272,-10.41022 -0.0325,-13.25087 -0.0221,-11.90927 -0.0347,-16.94705 -0.0615,-24.77472 l -0.0279,-8.26357 -3.96772,-0.016 c -1.09107,-0.005 -3.0022,-0.005 -5.20227,-0.003 z m 5.74537,0.2868 c 1.50884,0.002 2.50759,0.009 2.63136,0.0207 l 0.45011,0.0413 0.0196,7.04194 c 0.0109,3.87304 0.0238,9.32765 0.0284,12.12174 0.005,2.79407 0.018,8.12867 0.03,11.85405 0.0119,3.7254 0.0226,8.81178 0.0238,11.30319 9.8e-4,2.49143 0.0137,6.14916 0.0289,8.12819 0.0172,2.32907 -0.004,3.63564 -0.0594,3.70468 -0.0608,0.0755 -0.36237,0.10505 -1.02835,0.10129 -2.64771,-0.0148 -24.67777,0.009 -29.17704,0.0315 -0.95297,0.005 -1.784,-0.0104 -1.84742,-0.0341 l -0.11523,-0.0434 0.008,-3.94705 c 0.005,-2.17086 -0.008,-7.92834 -0.029,-12.79457 -0.0208,-4.86626 -0.0398,-10.71476 -0.0419,-12.99662 -0.002,-2.28185 -0.0224,-8.68246 -0.045,-14.22394 -0.0239,-5.82944 -0.0103,-10.11712 0.0341,-10.17405 0.0418,-0.0544 0.52441,-0.0828 1.71101,-0.093 v 5.2e-4 c 0.39553,-0.003 0.86961,-0.005 1.43142,-0.005 10.20345,0.003 13.15181,-10e-4 20.25354,-0.0284 2.16538,-0.008 4.18436,-0.0114 5.6932,-0.009 z m -0.86558,3.05615 c -0.24442,-0.003 -0.49459,0.0483 -0.73586,0.16071 -0.32409,0.151 -0.59425,0.41457 -0.88315,0.86196 l -0.13023,0.20206 -0.17312,-0.32505 c -0.0951,-0.17894 -0.31684,-0.43954 -0.493,-0.57929 l -0.32038,-0.25425 -0.60719,-0.0227 -0.60825,-0.0227 -0.38704,0.25425 c -0.51326,0.3366 -0.82915,0.962 -0.82269,1.63089 0.0115,1.19456 0.64984,2.64098 2.66909,6.05029 0.43275,0.73068 0.70395,1.10715 0.78703,1.09244 0.17103,-0.0303 1.87328,-2.90397 2.5342,-4.27829 0.8326,-1.73113 1.06093,-2.69117 0.8263,-3.47008 -0.2399,-0.7964 -0.92239,-1.29191 -1.65571,-1.30017 z m -20.8225,0.0326 c -0.56875,-0.0301 -1.14482,0.22789 -1.49447,0.78704 -0.13758,0.22 -0.27358,0.40185 -0.30284,0.40514 -0.0293,0.003 -0.10165,-0.10839 -0.16071,-0.24701 -0.15383,-0.36149 -0.7084,-0.82148 -1.06712,-0.88522 -0.11287,-0.02 -0.22328,-0.0318 -0.33123,-0.0362 h -5.3e-4 c -0.75583,-0.0305 -1.37877,0.31764 -1.70016,0.96739 l -0.21857,0.44131 0.0491,0.68162 c 0.027,0.37489 0.13507,0.92873 0.24029,1.23041 0.27221,0.78036 1.11192,2.40798 2.16059,4.18786 h -5e-4 c 0.52837,0.8968 0.95591,1.53403 1.03042,1.5353 0.0775,0.001 0.5407,-0.70689 1.18134,-1.80712 1.76956,-3.0395 2.2447,-4.15815 2.2479,-5.29219 l 0.003,-0.67747 -0.18709,-0.34779 c -0.3194,-0.59461 -0.88077,-0.91295 -1.44952,-0.94309 z m -16.67391,1.01183 c -0.37309,0.006 -0.75636,0.10599 -1.12191,0.30954 -0.8664,0.4825 -1.31321,1.43506 -1.2061,2.5709 0.10636,1.12841 1.07328,3.44866 2.27168,5.45031 0.22175,0.37042 0.64284,1.07139 0.93586,1.55753 0.29303,0.48614 0.70414,1.17699 0.91363,1.53531 0.20953,0.3583 0.42709,0.65158 0.48319,0.65163 0.0562,3e-5 0.22574,-0.20965 0.37671,-0.4656 0.15094,-0.25594 0.55118,-0.93616 0.88937,-1.51153 0.33816,-0.57539 0.79655,-1.33984 1.01904,-1.69913 0.58452,-0.94396 1.62047,-3.10891 1.90066,-3.97287 0.13251,-0.40857 0.28488,-1.01484 0.33849,-1.34669 l 0.0972,-0.60307 -0.10388,-0.52813 c -0.13473,-0.68754 -0.56957,-1.33699 -1.09863,-1.64021 l -0.39534,-0.22634 -0.61442,-0.0331 c -0.37332,-0.0204 -0.74096,0.009 -0.93585,0.0755 -0.4308,0.14681 -1.01635,0.7125 -1.27125,1.22783 l -0.20775,0.42065 -0.26768,-0.52762 c -0.41227,-0.81196 -1.18218,-1.25738 -2.00297,-1.24488 z m 27.06759,8.70799 v 10e-4 c -0.23828,-3.4e-4 -0.48008,0.0524 -0.71363,0.16123 -0.31499,0.14675 -0.42831,0.25903 -0.86818,0.86041 l -0.15348,0.20981 -0.18241,-0.34985 c -0.10038,-0.19215 -0.32393,-0.45434 -0.49662,-0.58343 l -0.31366,-0.23461 -0.65577,0.006 -0.65527,0.006 -0.35811,0.25683 c -0.19699,0.14161 -0.44556,0.42676 -0.55193,0.63304 l -0.19325,0.37517 0.006,0.6165 c 0.0114,1.17686 0.73211,2.83883 2.42827,5.59863 0.27027,0.43978 0.57465,0.96062 0.67646,1.15755 0.11242,0.21758 0.24225,0.35684 0.33123,0.35398 0.17174,-0.005 1.78938,-2.70691 2.5399,-4.2416 1.09201,-2.23291 1.17213,-3.5634 0.26408,-4.3863 -0.31988,-0.28992 -0.70663,-0.43972 -1.10382,-0.44028 z m -14.11748,9.76323 -0.45939,0.22996 c -0.83918,0.42067 -1.17745,1.23963 -0.96481,2.33422 0.22053,1.13509 1.30506,3.37238 2.60242,5.36815 0.28149,0.433 0.51181,0.81459 0.51213,0.84749 3.1e-4,0.0329 0.0621,0.12603 0.13692,0.20723 0.17907,0.19403 0.29477,0.13799 0.50594,-0.24753 0.0957,-0.17472 0.56083,-0.96954 1.03404,-1.76579 1.54408,-2.59825 2.12675,-4.08625 2.05052,-5.23689 l -0.0383,-0.57516 -0.25786,-0.36018 c -0.14214,-0.19816 -0.41048,-0.44621 -0.59582,-0.55139 l -0.33694,-0.1912 -0.60048,0.031 -0.59997,0.0315 -0.3085,0.23926 c -0.16944,0.13187 -0.38306,0.39069 -0.4749,0.57516 -0.19225,0.38598 -0.29274,0.42204 -0.36846,0.13229 -0.0702,-0.26878 -0.44273,-0.69741 -0.73379,-0.84439 -0.12751,-0.0644 -0.4276,-0.14115 -0.66715,-0.17053 z m 21.72735,0.0227 -0.51366,0.005 -0.51417,0.005 -0.3979,0.23926 c -0.51343,0.3081 -0.82064,0.83127 -0.87387,1.4888 -0.0459,0.56716 0.16769,1.39575 0.64545,2.50682 0.30475,0.70864 1.5667,2.98539 2.0257,3.65404 0.13756,0.20041 0.33227,0.52207 0.43254,0.7152 0.10028,0.19313 0.22474,0.37944 0.277,0.41393 0.11202,0.0739 0.16578,0.006 0.79631,-1.00304 2.14985,-3.4416 2.98683,-5.56538 2.65721,-6.74067 -0.11123,-0.39656 -0.58359,-0.96666 -0.95755,-1.15549 -0.29797,-0.15031 -1.09638,-0.14651 -1.45418,0.007 -0.24926,0.10699 -0.60788,0.46489 -0.87849,0.87592 -0.0587,0.0893 -0.12579,0.12443 -0.14833,0.078 -0.17566,-0.36187 -0.43111,-0.65951 -0.73639,-0.85732 z m 13.77953,15.57476 c -0.16741,0.004 -2.60935,4.22655 -3.42149,5.91592 -1.387,2.88506 -1.4772,4.56447 -0.30128,5.60637 0.46029,0.40783 0.80581,0.52763 1.50172,0.5209 0.94147,-0.009 1.48974,-0.33942 1.95077,-1.17512 0.13804,-0.25022 0.27782,-0.45496 0.3106,-0.45527 0.0328,-3.2e-4 0.11057,0.13665 0.17311,0.30437 0.20701,0.55561 0.81106,1.09288 1.45934,1.29863 0.11708,0.0371 0.46075,0.0532 0.76324,0.0351 0.62281,-0.0371 1.07429,-0.23827 1.50276,-0.66921 1.06042,-1.06655 0.92715,-2.67969 -0.45577,-5.50923 -0.86297,-1.76562 -3.30163,-5.87727 -3.483,-5.87251 z m -12.60698,4.00078 -0.16536,0.24185 c -0.41566,0.60689 -1.68423,2.81537 -2.19213,3.81682 -0.60404,1.19106 -0.97107,2.19438 -1.0418,2.84479 -0.13218,1.21681 0.67874,2.19279 1.81436,2.18281 0.55795,-0.005 1.02015,-0.27548 1.36427,-0.79892 l 0.26768,-0.40669 0.17571,0.33538 c 0.22516,0.43098 0.65566,0.75135 1.12448,0.83613 1.17271,0.21209 2.1835,-0.68912 2.17143,-1.93684 -0.007,-0.68931 -0.63714,-2.31316 -1.49034,-3.83956 -0.74348,-1.33016 -1.76266,-3.01403 -1.91461,-3.16363 z m -20.88142,0.0506 c -0.085,0.004 -0.35279,0.4296 -1.52291,2.42415 -0.60428,1.03011 -1.35459,2.57324 -1.61385,3.31814 l -0.26612,0.76429 -0.001,0.63511 -5.3e-4,0.6351 0.18449,0.33693 c 0.22617,0.41397 0.49335,0.66567 0.88212,0.82993 h 5.1e-4 c 0.70045,0.29547 1.58144,0.0502 2.01538,-0.56121 0.13782,-0.1942 0.26834,-0.39779 0.29043,-0.4532 0.0429,-0.10766 0.0505,-0.10006 0.39997,0.45733 0.58717,0.93645 2.1203,0.87628 2.81999,-0.1111 l 0.26302,-0.37104 -0.0124,-0.81649 -0.014,-0.817 -0.32298,-0.79737 c -0.54353,-1.34112 -2.89118,-5.4836 -3.10213,-5.47357 z m 35.52032,10.89701 c -0.55904,0.007 -1.22669,0.0476 -1.2635,0.0884 -0.0341,0.0378 -0.14081,0.46921 -0.23719,0.95912 -0.87906,4.46818 -2.42592,8.25887 -4.35891,10.67945 -0.44003,0.55112 -0.53123,0.81392 -0.52245,1.51774 0.008,0.63666 0.0708,0.86921 0.24908,0.91519 v 5.1e-4 c 0.0769,0.02 2.0447,0.0114 4.37288,-0.0171 l 4.23333,-0.0522 0.005,-1.79937 0.006,-1.79989 -0.1075,-0.001 c -0.0592,-10e-4 -0.46032,-0.0109 -0.89141,-0.0212 -0.51773,-0.0124 -0.81126,0.0142 -0.86402,0.0791 -0.0439,0.054 -0.0873,0.45427 -0.0966,0.88884 l -0.017,0.79013 -2.11513,0.004 c -1.16319,0.002 -2.12868,-0.0102 -2.14612,-0.0274 -0.0175,-0.0171 0.21146,-0.40706 0.50901,-0.86713 1.70479,-2.636 2.93724,-5.89985 3.6463,-9.65781 0.2286,-1.21169 0.25419,-1.66431 0.0941,-1.67276 -0.13499,-0.007 -0.30927,-0.008 -0.49559,-0.006 z" />
    <path
       style="fill:#000000;stroke-width:0.0846667"
       id="path389"
       d="" />
  </g>
</svg>
