<?xml version="1.0" encoding="UTF-8" standalone="no"?>
<svg
   sodipodi:docname="7S.svg"
   id="svg8"
   version="1.1"
   viewBox="0 0 63.102497 88.347847"
   height="88.347847mm"
   width="63.102497mm"
   inkscape:version="1.1.1 (1:1.1+202109281949+c3084ef5ed)"
   inkscape:export-filename="/home/doug/k40/52Cards/7S.png"
   inkscape:export-xdpi="96"
   inkscape:export-ydpi="96"
   xmlns:inkscape="http://www.inkscape.org/namespaces/inkscape"
   xmlns:sodipodi="http://sodipodi.sourceforge.net/DTD/sodipodi-0.dtd"
   xmlns="http://www.w3.org/2000/svg"
   xmlns:svg="http://www.w3.org/2000/svg"
   xmlns:rdf="http://www.w3.org/1999/02/22-rdf-syntax-ns#"
   xmlns:cc="http://creativecommons.org/ns#"
   xmlns:dc="http://purl.org/dc/elements/1.1/">
  <defs
     id="defs2">
    <marker
       style="overflow:visible"
       id="marker2995"
       refX="0"
       refY="0"
       orient="auto"
       inkscape:stockid="Arrow1Lstart"
       inkscape:isstock="true">
      <path
         transform="matrix(0.8,0,0,0.8,10,0)"
         style="fill:#000000;fill-opacity:1;fill-rule:evenodd;stroke:#000000;stroke-width:1pt;stroke-opacity:1"
         d="M 0,0 5,-5 -12.5,0 5,5 Z"
         id="path2993" />
    </marker>
    <marker
       style="overflow:visible"
       id="marker2985"
       refX="0"
       refY="0"
       orient="auto"
       inkscape:stockid="Arrow1Lstart"
       inkscape:isstock="true">
      <path
         transform="matrix(0.8,0,0,0.8,10,0)"
         style="fill:#000000;fill-opacity:1;fill-rule:evenodd;stroke:#000000;stroke-width:1pt;stroke-opacity:1"
         d="M 0,0 5,-5 -12.5,0 5,5 Z"
         id="path2983" />
    </marker>
    <marker
       style="overflow:visible"
       id="marker2791"
       refX="0"
       refY="0"
       orient="auto"
       inkscape:stockid="Arrow1Lstart"
       inkscape:isstock="true">
      <path
         transform="matrix(0.8,0,0,0.8,10,0)"
         style="fill:#000000;fill-opacity:1;fill-rule:evenodd;stroke:#000000;stroke-width:1pt;stroke-opacity:1"
         d="M 0,0 5,-5 -12.5,0 5,5 Z"
         id="path2789" />
    </marker>
    <marker
       style="overflow:visible"
       id="marker2781"
       refX="0"
       refY="0"
       orient="auto"
       inkscape:stockid="Arrow1Lstart"
       inkscape:isstock="true">
      <path
         transform="matrix(0.8,0,0,0.8,10,0)"
         style="fill:#000000;fill-opacity:1;fill-rule:evenodd;stroke:#000000;stroke-width:1pt;stroke-opacity:1"
         d="M 0,0 5,-5 -12.5,0 5,5 Z"
         id="path2779" />
    </marker>
    <marker
       style="overflow:visible"
       id="marker2417"
       refX="0"
       refY="0"
       orient="auto"
       inkscape:stockid="Arrow1Lstart"
       inkscape:isstock="true">
      <path
         transform="matrix(0.8,0,0,0.8,10,0)"
         style="fill:#000000;fill-opacity:1;fill-rule:evenodd;stroke:#000000;stroke-width:1pt;stroke-opacity:1"
         d="M 0,0 5,-5 -12.5,0 5,5 Z"
         id="path2415" />
    </marker>
    <marker
       style="overflow:visible"
       id="marker2383"
       refX="0"
       refY="0"
       orient="auto"
       inkscape:stockid="Arrow1Lstart"
       inkscape:isstock="true">
      <path
         transform="matrix(0.8,0,0,0.8,10,0)"
         style="fill:#000000;fill-opacity:1;fill-rule:evenodd;stroke:#000000;stroke-width:1pt;stroke-opacity:1"
         d="M 0,0 5,-5 -12.5,0 5,5 Z"
         id="path2381" />
    </marker>
    <marker
       style="overflow:visible"
       id="marker2355"
       refX="0"
       refY="0"
       orient="auto"
       inkscape:stockid="Arrow1Lstart"
       inkscape:isstock="true">
      <path
         transform="matrix(0.8,0,0,0.8,10,0)"
         style="fill:#000000;fill-opacity:1;fill-rule:evenodd;stroke:#000000;stroke-width:1pt;stroke-opacity:1"
         d="M 0,0 5,-5 -12.5,0 5,5 Z"
         id="path2353" />
    </marker>
    <marker
       style="overflow:visible"
       id="Arrow1Lstart"
       refX="0"
       refY="0"
       orient="auto"
       inkscape:stockid="Arrow1Lstart"
       inkscape:isstock="true">
      <path
         transform="matrix(0.8,0,0,0.8,10,0)"
         style="fill:#000000;fill-opacity:1;fill-rule:evenodd;stroke:#000000;stroke-width:1pt;stroke-opacity:1"
         d="M 0,0 5,-5 -12.5,0 5,5 Z"
         id="path2071" />
    </marker>
  </defs>
  <sodipodi:namedview
     id="base"
     pagecolor="#ffffff"
     bordercolor="#666666"
     borderopacity="1.0"
     inkscape:pageopacity="0.0"
     inkscape:pageshadow="2"
     inkscape:zoom="1.5033851"
     inkscape:cx="86.138941"
     inkscape:cy="167.28914"
     inkscape:document-units="mm"
     inkscape:current-layer="layer1"
     inkscape:document-rotation="0"
     showgrid="false"
     inkscape:snap-smooth-nodes="false"
     inkscape:object-nodes="false"
     inkscape:window-width="1366"
     inkscape:window-height="712"
     inkscape:window-x="0"
     inkscape:window-y="0"
     inkscape:window-maximized="1"
     inkscape:object-paths="false"
     inkscape:snap-intersection-paths="false"
     inkscape:snap-midpoints="false"
     inkscape:snap-others="false"
     inkscape:pagecheckerboard="0"
     showguides="true"
     inkscape:guide-bbox="true"
     inkscape:snap-bbox="true"
     showborder="false"
     fit-margin-top="0"
     fit-margin-left="0"
     fit-margin-right="0"
     fit-margin-bottom="0" />
  <metadata
     id="metadata5">
    <rdf:RDF>
      <cc:Work
         rdf:about="">
        <dc:format>image/svg+xml</dc:format>
        <dc:type
           rdf:resource="http://purl.org/dc/dcmitype/StillImage" />
      </cc:Work>
    </rdf:RDF>
  </metadata>
  <g
     inkscape:label="Layer 1"
     inkscape:groupmode="layer"
     id="layer1"
     transform="translate(229.62292,231.84592)">
    <path
       style="fill:#000000;stroke-width:0.0846667"
       id="path389"
       d="" />
    <path
       id="path6748-9"
       style="fill:#000000;fill-opacity:1;stroke:none;stroke-width:0.264999;stroke-miterlimit:4;stroke-dasharray:none;stroke-opacity:1"
       d="m -221.71183,-231.84535 -5.2e-4,5.2e-4 c -1.12038,9.9e-4 -2.13579,0.005 -2.77605,0.0124 l -2.32854,0.0258 -0.57774,0.29611 c -0.74225,0.37984 -1.68909,1.3326 -1.98283,1.99522 l -0.20774,0.46922 -0.009,4.57285 c -0.005,2.5151 -0.0137,5.35428 -0.0207,6.30918 -0.007,0.95489 -0.0104,3.88913 -0.006,6.52053 0.003,2.63138 0.005,5.88919 0.004,7.23987 -0.001,1.35067 0.002,6.68594 0.008,11.85561 0.006,5.16967 0.009,10.48583 0.007,11.81323 -0.002,1.32741 0.003,4.87108 0.0129,7.87497 0.0185,5.89954 0.0194,6.55409 0.032,17.75189 0.005,4.10521 0.012,7.74899 0.0139,8.09666 l 0.001,0.632 0.19378,0.36794 c 0.32675,0.62015 0.79769,1.1557 1.38183,1.572 0.99349,0.70772 1.03339,0.71372 4.92477,0.71468 1.32734,3e-4 3.09977,0.007 3.93826,0.014 2.48912,0.0218 5.15817,0.0307 9.82317,0.031 2.42187,2e-4 4.97523,0.01 5.67407,0.0227 0.69887,0.0129 3.15673,0.0254 5.4622,0.0284 2.3055,0.003 5.69761,0.0146 7.53752,0.0264 1.83991,0.0117 5.9561,0.0336 9.14673,0.0491 3.19063,0.0154 7.01999,0.0369 8.51059,0.0481 3.07439,0.023 3.48238,-0.001 3.99046,-0.2372 h 0.004 c 1.01217,-0.47016 2.15494,-1.68205 2.3456,-2.4877 0.0404,-0.17101 0.0771,-2.38741 0.0811,-4.9258 0.0142,-8.09742 0.008,-17.79326 -0.0134,-21.67878 -0.0116,-2.07234 -0.0228,-5.92052 -0.0258,-8.55193 -0.002,-2.63141 -0.008,-7.01388 -0.0124,-9.73843 -0.02,-13.76802 -0.0238,-26.62157 -0.0103,-33.09772 l 0.0103,-4.60282 -0.29352,-0.55758 c -0.52456,-0.99564 -1.77519,-2.04706 -2.61018,-2.1947 -0.44011,-0.0778 -2.16629,-0.0939 -12.87363,-0.11834 -1.25756,-0.003 -2.80087,-0.0116 -3.42976,-0.0186 -0.62889,-0.007 -2.38221,-0.0131 -3.89589,-0.0129 -2.81824,4e-4 -12.30344,-0.0289 -15.79387,-0.0486 -1.07133,-0.006 -3.52918,-0.0179 -5.4622,-0.0269 -1.93299,-0.009 -5.24866,-0.026 -7.36802,-0.0367 -1.05968,-0.005 -2.28513,-0.007 -3.40548,-0.006 z m -4.02766,0.52297 5.2e-4,5.1e-4 c 2.64702,-0.0141 12.93949,0.0446 23.60889,0.1385 2.11969,0.0184 8.02334,0.0648 13.12271,0.10283 5.0991,0.038 11.67168,0.0878 14.6048,0.11214 l 5.19141,0.0419 0.42426,0.22738 c 0.5733,0.30675 1.35494,1.10075 1.58389,1.56424 l 0.18707,0.38034 0.0114,4.60592 c 0.009,3.78238 -0.002,12.61599 -0.0196,20.7052 -0.0178,8.08922 -0.044,15.49412 -0.0615,16.23673 -0.0207,0.88428 -0.0393,7.87691 -0.0455,15.6776 -0.006,8.12717 -0.02,14.33266 -0.0408,18.5508 -0.0104,2.10907 -0.0233,3.72226 -0.0372,4.82813 -0.007,0.55293 -0.013,0.97916 -0.0207,1.27538 -0.004,0.14811 -0.009,0.26407 -0.0124,0.34364 -0.004,0.0796 -0.0168,0.15912 -0.003,0.0822 -0.0654,0.34514 -0.41901,0.95379 -0.91261,1.40146 -0.69162,0.62724 -1.19347,0.88094 -1.80609,0.971 -0.22447,0.033 -0.72692,0.0666 -1.15083,0.0796 -0.21196,0.007 -0.40869,0.009 -0.54519,0.006 -0.06,-0.001 -0.10112,-0.005 -0.12661,-0.007 -0.005,-0.002 -0.0155,-0.004 -0.0155,-0.004 -5.3e-4,-1.4e-4 -0.048,-0.0105 -0.0605,-0.0124 -0.0249,-0.004 -0.0352,-0.005 -0.0455,-0.006 -0.0206,-0.002 -0.0342,-10e-4 -0.0501,-0.002 -0.0319,-0.002 -0.0701,-0.004 -0.11782,-0.005 -0.0954,-0.003 -0.23009,-0.006 -0.40205,-0.009 -0.34395,-0.006 -0.83509,-0.0117 -1.44125,-0.0181 -1.21229,-0.0127 -2.87815,-0.0255 -4.70669,-0.0362 -3.65498,-0.0216 -8.32527,-0.0541 -10.37301,-0.0713 -5.82634,-0.0488 -12.05632,-0.0927 -19.00711,-0.13229 -3.5156,-0.02 -9.19501,-0.0549 -12.61732,-0.078 l -6.09161,-0.0403 -0.47491,-0.22789 c -0.54531,-0.26203 -1.26922,-0.93972 -1.66036,-1.59629 l -0.21601,-0.36122 -0.0243,-17.41237 c -0.0236,-16.53716 0.034,-44.23047 0.12351,-58.63777 l 0.0398,-6.30452 0.26768,-0.52917 c 0.45812,-0.90783 1.63344,-1.76157 2.32389,-1.83451 -0.0397,0.004 0.0454,-0.002 0.14831,-0.003 0.10697,-9.9e-4 0.25779,-0.002 0.44752,-0.003 z m -0.0537,3.51348 c -0.0121,-7e-5 -0.0231,0.003 -0.0331,0.008 l 0.001,-0.005 c -0.059,0.0187 -0.0822,0.10907 -0.0971,0.3297 h -5.2e-4 c -0.013,0.20053 -0.0168,1.02134 -0.01,1.82469 l 0.0129,1.46089 0.88883,-0.017 0.88884,-0.0176 -0.0103,-0.44442 c -0.01,-0.24454 0.0132,-0.64241 0.0362,-0.8847 l 0.0439,-0.4408 2.21175,0.002 c 1.2164,0.006 2.22061,0.0111 2.23191,0.0217 0.011,0.0101 -0.29668,0.51389 -0.68368,1.12396 -1.2377,1.95154 -2.38293,4.64462 -3.06493,7.20938 -0.32,1.20314 -0.82533,3.79427 -0.75292,3.86385 0.026,0.0241 0.43251,0.037 0.90381,0.0284 l 0.85732,-0.0165 0.25579,-1.25419 c 0.86081,-4.21915 2.31702,-7.75005 4.20492,-10.19679 l 0.57722,-0.74828 0.0429,-0.894 0.0429,-0.894 -0.2868,-0.001 c -0.1578,-9.3e-4 -0.34363,-0.0113 -0.41393,-0.0227 -0.07,-0.0114 -1.82338,-0.0198 -3.89588,-0.007 -2.0725,0.008 -3.83199,-0.003 -3.91139,-0.0207 -0.0145,-0.005 -0.0277,-0.008 -0.0398,-0.008 z m 16.93901,12.74599 v 5.2e-4 c -1.42058,-0.003 -3.2478,0.006 -4.06073,0.0212 l -1.47691,0.0274 -0.0134,0.46561 c -0.007,0.25629 -0.005,3.05701 0.004,6.22391 0.009,3.16689 0.0129,6.50156 0.006,7.40988 -0.006,0.90831 -0.003,3.13746 0.007,4.9537 0.0104,1.81621 0.013,4.04485 0.005,4.95319 -0.007,0.90833 -0.011,3.82396 -0.009,6.47867 0.002,2.65472 0.003,6.78949 0.003,9.18807 -6.9e-4,10.2183 0.003,11.73243 0.0346,13.42141 l 0.0326,1.77715 0.88883,0.001 c 0.48905,0.001 2.75674,0.006 5.03898,0.0119 2.28226,0.006 5.35011,0.009 6.81715,0.006 1.46706,-0.003 3.29623,0.002 4.06487,0.0103 0.76864,0.008 2.61692,0.0128 4.10724,0.009 1.49035,-0.004 3.49083,-0.002 4.44572,0.003 0.95485,0.005 2.95584,0.0107 4.44624,0.0124 1.48997,0.002 2.72461,0.0171 2.74506,0.0346 h 5.1e-4 c 0.0802,0.0702 0.26832,0.0205 0.29766,-0.0791 0.0172,-0.0585 0.0255,-2.65963 0.0186,-5.78001 -0.007,-3.12036 -0.0103,-6.62581 -0.009,-7.79022 0.004,-2.15307 -5e-5,-9.14605 -0.006,-14.05702 -0.002,-1.49035 -0.003,-5.64367 -0.002,-9.22993 0.003,-11.1019 -0.004,-14.15948 -0.0403,-16.11736 l -0.0346,-1.89033 -0.80512,-0.0145 c -0.44259,-0.008 -2.40502,-0.007 -4.36097,0.002 -1.95596,0.009 -3.93736,0.004 -4.40335,-0.009 -0.46598,-0.0134 -2.21928,-0.0218 -3.89589,-0.0181 -1.67661,0.004 -3.54355,0.002 -4.1491,-0.004 -0.60558,-0.006 -2.45381,-0.0115 -4.10724,-0.0129 -1.65341,-0.001 -4.16873,-0.005 -5.58933,-0.009 z m 0.80822,0.31264 v 5.2e-4 c 2.26367,-0.002 4.56783,0.005 5.63532,0.0233 0.62896,0.0108 2.64807,0.0115 4.48758,0.002 1.83952,-0.01 3.72601,-0.006 4.19199,0.007 0.46601,0.0135 2.33328,0.0216 4.14962,0.0181 1.81637,-0.003 4.29352,-1.2e-4 5.50457,0.006 l 2.20193,0.0124 0.0191,1.86242 c 0.0207,2.01284 0.0411,11.50666 0.031,14.60686 -0.003,1.04799 -0.004,3.12489 -0.001,4.61522 0.003,1.49033 0.003,3.5858 -5.2e-4,4.65708 -0.007,2.30393 -0.005,4.96624 0.0114,11.89798 0.006,2.81763 0.007,5.96141 0.002,6.98614 -0.005,1.02474 -0.006,3.13979 -0.003,4.69997 0.007,3.15705 -0.0224,4.81917 -0.0863,4.92683 -0.0234,0.0393 -0.12625,0.0663 -0.22841,0.0605 -0.36581,-0.0211 -4.90227,-0.0424 -8.06153,-0.0382 -1.76977,0.002 -3.73254,-0.005 -4.36149,-0.0155 -0.62894,-0.0108 -2.24807,-0.0191 -3.59874,-0.0191 -10.26306,7.6e-4 -15.75947,-0.0252 -15.80937,-0.0739 -0.0316,-0.0315 -0.0542,-1.65752 -0.0491,-3.61373 0.005,-1.95624 6.3e-4,-6.20507 -0.0103,-9.4418 -0.0109,-3.23674 -0.0115,-6.39957 -0.001,-7.02851 0.0104,-0.62895 0.009,-2.87768 -0.004,-4.9966 -0.0127,-2.11892 -0.014,-4.23352 -0.003,-4.69945 0.0111,-0.46596 0.0148,-2.33334 0.008,-4.14962 -0.007,-1.81628 -0.01,-5.13135 -0.007,-7.36699 0.003,-2.23563 0.005,-5.16987 0.005,-6.52053 -7.1e-4,-1.35063 0.006,-3.32586 0.016,-4.3894 l 0.0176,-1.93322 0.12299,-0.0501 c 0.0146,-0.006 0.16659,-0.0118 0.42581,-0.0165 l 5.2e-4,5.2e-4 c 0.90718,-0.0172 3.13086,-0.0277 5.3945,-0.0295 z m -0.96996,3.02307 -0.39636,0.61754 c -0.2178,0.33966 -0.86044,1.25126 -1.42834,2.0252 -1.0007,1.36377 -1.58014,2.34644 -1.69654,2.87734 v 5.2e-4 c -0.2618,1.19354 0.35256,2.17903 1.45986,2.34094 0.554,0.0809 1.02832,-0.1021 1.48002,-0.57154 0.217,-0.22506 0.39567,-0.35647 0.39687,-0.29146 0.01,0.24145 -0.24348,1.42552 -0.36948,1.76217 -0.072,0.19152 -0.23327,0.53329 -0.35967,0.75913 -0.1264,0.22574 -0.22965,0.42214 -0.22945,0.43615 4.1e-4,0.014 0.37126,0.002 0.82476,-0.03 0.4691,-0.0316 0.96965,-0.0185 1.16065,0.0305 0.1845,0.048 0.34422,0.0765 0.35502,0.0656 0.011,-0.0109 -0.11627,-0.2847 -0.28267,-0.60668 -0.3454,-0.66822 -0.68901,-1.84028 -0.65681,-2.24431 l 0.0227,-0.27285 0.21601,0.30438 c 0.5919,0.83301 1.85745,0.90304 2.58795,0.14366 0.4397,-0.4567 0.56845,-0.85539 0.49455,-1.52549 -0.079,-0.71852 -0.58524,-1.63056 -1.86604,-3.3631 -0.5771,-0.78054 -1.19829,-1.65293 -1.38079,-1.93839 z m 21.88342,0.0822 c -0.0318,0.001 -0.24169,0.3005 -0.46664,0.65836 -0.2255,0.35882 -0.79993,1.17836 -1.27693,1.82108 -1.0349,1.39409 -1.35847,1.9076 -1.61127,2.55798 h -5.2e-4 c -0.3626,0.93231 -0.17126,1.95705 0.44804,2.4014 0.8758,0.62849 1.99883,0.43376 2.53473,-0.43925 l 0.16484,-0.26872 -0.0387,0.53331 c -0.048,0.65896 -0.36773,1.71391 -0.68213,2.24947 l -0.23616,0.40256 0.69246,-0.0625 c 0.4035,-0.0359 0.8837,-0.0255 1.1498,0.0269 0.2513,0.0433 0.47398,0.0705 0.49558,0.0486 0.021,-0.0219 -0.045,-0.15205 -0.14728,-0.28939 -0.3127,-0.42164 -0.63286,-1.45987 -0.76946,-2.4939 -0.048,-0.35976 -0.0393,-0.3979 0.0527,-0.25632 0.4842,0.73925 1.15676,1.04095 1.93167,0.8661 1.171,-0.26427 1.62881,-1.35849 1.13791,-2.72438 -0.178,-0.49524 -1.06786,-1.85281 -2.26136,-3.44889 -0.2919,-0.39023 -0.65022,-0.90751 -0.79582,-1.14928 -0.1456,-0.24157 -0.28942,-0.43368 -0.32142,-0.43305 z m -34.52193,0.99529 c -0.024,-4.3e-4 -0.043,0.0177 -0.061,0.0496 -0.516,0.90191 -0.76472,1.25878 -3.11402,4.45761 -0.7925,1.07917 -1.33373,2.02339 -1.58853,2.77347 l 5.1e-4,5.2e-4 c -0.2539,0.74858 -0.21523,1.89589 0.0822,2.44326 0.2588,0.47576 0.88406,0.98372 1.37356,1.11569 1.1795,0.31808 2.17455,-0.0435 2.82515,-1.02836 l 0.23358,-0.35346 -0.0424,0.59427 c -0.077,1.11201 -0.54613,2.61256 -1.07693,3.44579 -0.1335,0.21011 -0.23228,0.39405 -0.21808,0.40772 0.014,0.0141 0.22704,-0.0181 0.47284,-0.0698 0.6139,-0.12908 1.62965,-0.13501 2.26705,-0.014 0.5721,0.1083 0.62192,0.0702 0.36432,-0.27802 -0.45301,-0.61218 -1.0289,-2.33104 -1.1343,-3.3848 l -0.0713,-0.71211 0.30696,0.46044 c 0.3655,0.54813 0.66222,0.77377 1.25522,0.95498 1.299,0.39721 2.70635,-0.36202 3.06235,-1.65158 0.4091,-1.48197 -0.12131,-2.62212 -3.03341,-6.52673 -0.5307,-0.71149 -1.17073,-1.62943 -1.42213,-2.03915 -0.2909,-0.47394 -0.40973,-0.64313 -0.48163,-0.64441 z m 23.59804,8.52558 c -0.038,7e-4 -0.16347,0.17139 -0.27957,0.37878 -0.11619,0.2074 -0.70914,1.04302 -1.31774,1.85674 -1.2127,1.62147 -1.70919,2.4519 -1.89239,3.16725 -0.2906,1.1341 0.25732,2.13063 1.28622,2.34042 0.7886,0.16074 1.63532,-0.24427 1.92391,-0.92087 0.13201,-0.30921 -1.8e-4,0.81359 -0.16898,1.39733 -0.087,0.30595 -0.28285,0.79891 -0.43615,1.09451 -0.1534,0.2957 -0.27873,0.5461 -0.27853,0.5581 2e-4,0.012 0.37275,0.002 0.82785,-0.0274 0.455,-0.0266 0.96941,-0.0129 1.1436,0.032 0.3747,0.096 0.40016,0.0207 0.13436,-0.39687 -0.2686,-0.42191 -0.60628,-1.46688 -0.68057,-2.10168 l -0.0661,-0.56534 0.32246,0.35605 c 0.4283,0.47285 0.73425,0.60923 1.31775,0.59789 0.5723,-0.014 0.80984,-0.0993 1.18184,-0.42478 0.5448,-0.47675 0.7133,-1.32652 0.4346,-2.1916 -0.1548,-0.48031 -0.69147,-1.35955 -1.40147,-2.29598 -1.17,-1.54315 -1.78879,-2.40534 -1.88309,-2.62464 -0.054,-0.12698 -0.12953,-0.23066 -0.16743,-0.22996 z m -10.92129,9.42939 -0.32918,0.49041 c -0.1812,0.26965 -0.55743,0.80396 -0.83613,1.18701 -1.8319,2.51823 -2.04981,2.85606 -2.29391,3.56309 -0.4786,1.38741 0.25557,2.62197 1.56218,2.62671 0.624,0.003 1.0617,-0.22249 1.4428,-0.74 l 0.27905,-0.37879 -0.0522,0.38189 c -0.1104,0.80783 -0.30478,1.51193 -0.58808,2.12855 -0.1619,0.35246 -0.30784,0.67444 -0.32504,0.71675 -0.017,0.0419 0.0768,0.0467 0.21187,0.0114 0.334,-0.0913 1.45296,-0.0942 1.78956,-0.004 0.1521,0.0408 0.27561,0.0455 0.27492,0.0114 -7e-4,-0.035 -0.11635,-0.2688 -0.25735,-0.51883 -0.2961,-0.52527 -0.53591,-1.31509 -0.63511,-2.09342 -0.052,-0.40707 -0.0462,-0.50336 0.0238,-0.38189 0.2195,0.37985 0.73685,0.77081 1.11725,0.8444 1.0437,0.20167 1.92854,-0.37736 2.13424,-1.3963 0.1829,-0.90595 -0.21384,-1.74431 -1.97094,-4.16615 -0.6875,-0.94752 -1.31637,-1.84871 -1.39837,-2.00195 z m 21.84776,0.0982 c -0.031,2.4e-4 -0.14807,0.16421 -0.26097,0.36432 -0.1131,0.20011 -0.74731,1.09904 -1.40921,1.99678 -1.1732,1.59108 -1.68858,2.47719 -1.84279,3.16879 h 5.2e-4 c -0.1846,0.82824 0.21199,1.7682 0.88729,2.10323 0.1219,0.0606 0.41407,0.1316 0.64957,0.15814 0.6873,0.0776 1.27717,-0.2074 1.63297,-0.79065 l 0.16124,-0.26459 -0.0481,0.50901 c -0.066,0.69858 -0.37292,1.70331 -0.67232,2.19625 -0.13699,0.22548 -0.24886,0.42109 -0.24856,0.43409 3e-4,0.018 0.39045,0.0123 0.86765,0.005 0.4771,-0.0135 1.01162,0.004 1.18752,0.0382 l 0.31988,0.0615 -0.26458,-0.46767 c -0.3066,-0.54131 -0.58958,-1.43338 -0.68678,-2.1668 l -0.0677,-0.51211 0.42272,0.42013 c 0.66019,0.65567 1.41375,0.74616 2.21175,0.26613 0.5536,-0.3328 0.73461,-0.72033 0.71882,-1.53892 -0.013,-0.64888 -0.0348,-0.72651 -0.43047,-1.4733 -0.2293,-0.43361 -0.85091,-1.37098 -1.38131,-2.08255 -0.5302,-0.71169 -1.12757,-1.54772 -1.32757,-1.85777 -0.2001,-0.31026 -0.38909,-0.56393 -0.41909,-0.56379 z m 14.18673,13.97176 c -0.0686,0.002 -0.20882,0.0274 -0.36122,0.0656 -0.5262,0.13264 -1.80737,0.14235 -2.38176,0.0191 -0.269,-0.0564 -0.48937,-0.0855 -0.48886,-0.0625 l -0.003,-5.2e-4 c 5e-4,0.023 0.11537,0.23546 0.25477,0.47129 0.5312,0.8991 1.07152,2.69258 1.08882,3.58789 l 0.01,0.46561 -0.20981,-0.38447 c -0.2419,-0.44318 -0.71918,-0.87543 -1.15858,-1.04903 -0.4596,-0.18192 -1.42941,-0.13233 -1.92391,0.0977 -0.67435,0.3135 -1.19387,0.95662 -1.35599,1.67949 -0.14941,0.66708 0.0236,1.59058 0.47387,2.53473 0.2735,0.57364 1.31526,2.10333 2.77606,4.07572 0.4697,0.63417 1.05573,1.47403 1.30172,1.86603 l 0.44701,0.71262 0.13952,-0.28525 c 0.2291,-0.46791 0.75406,-1.24979 1.59215,-2.37402 2.71242,-3.63874 3.2673,-4.70683 3.17707,-6.11332 -0.0956,-1.48802 -1.00145,-2.32464 -2.47995,-2.29598 -0.8691,0.0185 -1.59024,0.46104 -2.07274,1.27382 -0.088,0.14824 -0.10321,0.13709 -0.10801,-0.11214 -0.016,-0.42858 0.28716,-1.86154 0.54416,-2.5709 0.1275,-0.35184 0.36339,-0.84726 0.524,-1.10123 0.1605,-0.25385 0.27675,-0.47594 0.25734,-0.49454 -0.005,-0.005 -0.0195,-0.006 -0.0424,-0.006 z m -37.17293,4.98832 c -0.0513,-0.004 -0.0786,0.001 -0.0739,0.0155 0.015,0.0321 0.15489,0.30335 0.31109,0.60307 0.3221,0.61829 0.5366,1.32192 0.6289,2.06241 l 0.062,0.50694 -0.29818,-0.37517 c -0.3853,-0.48553 -0.76103,-0.66245 -1.38183,-0.65061 -0.7829,0.0149 -1.37405,0.41851 -1.61385,1.10226 h -5.2e-4 c -0.1525,0.43521 -0.0791,1.20945 0.17363,1.83968 0.1941,0.48373 0.83331,1.43585 2.05621,3.06338 0.3297,0.43893 0.73739,1.02993 0.90589,1.31362 0.1685,0.28359 0.33173,0.51682 0.36173,0.51728 0.031,7.6e-4 0.15627,-0.17888 0.27957,-0.39894 0.1233,-0.22006 0.6808,-1.02638 1.2392,-1.79266 1.7192,-2.35943 2.03978,-2.98475 2.02158,-3.91966 -0.021,-0.96612 -0.56778,-1.6006 -1.50378,-1.74511 -0.6005,-0.0931 -1.35169,0.25637 -1.63659,0.76068 -0.076,0.1345 -0.15743,0.22719 -0.17983,0.20567 -0.022,-0.0221 0.0147,-0.37761 0.0837,-0.79065 0.1311,-0.78472 0.5226,-1.90243 0.7276,-2.07946 0.065,-0.0567 0.11884,-0.12916 0.11834,-0.15916 -7e-4,-0.033 -0.39266,-0.0333 -0.87126,-0.005 -0.4786,0.0275 -1.01486,0.0129 -1.19166,-0.0331 -0.0883,-0.0224 -0.16495,-0.0364 -0.21808,-0.0408 z m 24.20163,0.032 c -0.017,-0.0151 -0.27534,0.0185 -0.57464,0.0729 -0.3984,0.0729 -0.7022,0.0755 -1.1343,0.0103 -0.3245,-0.0487 -0.604,-0.0754 -0.6196,-0.0594 l 5.2e-4,0.001 c -0.016,0.0169 0.0869,0.23395 0.22789,0.48369 0.297,0.52407 0.59496,1.4934 0.68316,2.22467 0.05,0.41377 0.0431,0.47564 -0.0429,0.339 -0.3704,-0.59795 -0.98344,-0.95434 -1.61954,-0.94207 -0.7039,0.0133 -1.20678,0.33983 -1.54668,1.00356 v 5.2e-4 c -0.096,0.1867 -0.12075,0.4309 -0.094,0.89865 0.033,0.56998 0.0836,0.73139 0.4501,1.43092 0.22711,0.43369 0.69632,1.16414 1.04232,1.62316 0.874,1.15959 1.68008,2.29783 1.85208,2.61534 0.1685,0.31059 0.27682,0.33698 0.35192,0.0842 0.029,-0.0988 0.44811,-0.72203 0.93121,-1.38441 2.1755,-2.98304 2.42433,-3.42873 2.45463,-4.39249 0.015,-0.48014 -0.0166,-0.67139 -0.1571,-0.93173 -0.3395,-0.63178 -0.89714,-0.94828 -1.64434,-0.93379 -0.6535,0.0126 -1.07615,0.27725 -1.48105,0.92914 -0.085,0.13636 -0.0929,0.11657 -0.0589,-0.13746 0.1502,-1.13863 0.44826,-2.08589 0.83406,-2.65048 0.098,-0.1421 0.16241,-0.27057 0.14521,-0.28526 z m 13.70872,11.96155 c -0.16447,0.002 -0.39087,0.009 -0.64027,0.0202 l -0.0129,0.016 -0.90692,0.0408 -0.21601,1.06299 c -0.9216,4.52323 -2.35515,8.01999 -4.31705,10.52855 l -0.52761,0.67696 0.0171,0.88109 0.017,0.8816 1.16428,-0.0233 c 0.64019,-0.0117 1.48802,-0.0101 1.88412,0 0.3961,0.0131 1.81056,0.0235 3.14296,0.0165 l 2.42259,-0.003 0.009,-1.75597 c 0.004,-0.96609 0.009,-1.75955 -5.1e-4,-1.7694 -0.01,-0.0101 -0.41246,-0.0183 -0.90176,-0.0248 l -0.88935,-0.015 v 0.8816 0.8816 l -2.20658,-0.0119 c -1.2138,-0.006 -2.22539,-0.0249 -2.24689,-0.045 -0.022,-0.0211 0.23832,-0.47771 0.57722,-1.01544 1.7705,-2.80956 2.95806,-6.02029 3.67006,-9.92291 0.1261,-0.69165 0.22923,-1.27133 0.22893,-1.28933 -2e-4,-0.01 -0.10269,-0.0135 -0.26717,-0.0119 z" />
  </g>
</svg>
