<?xml version="1.0" encoding="UTF-8" standalone="no"?>
<svg
   sodipodi:docname="8S.svg"
   id="svg8"
   version="1.1"
   viewBox="0 0 63.101994 88.347847"
   height="88.347847mm"
   width="63.101994mm"
   inkscape:version="1.1.1 (1:1.1+202109281949+c3084ef5ed)"
   inkscape:export-filename="/home/doug/k40/52Cards/8S.png"
   inkscape:export-xdpi="96"
   inkscape:export-ydpi="96"
   xmlns:inkscape="http://www.inkscape.org/namespaces/inkscape"
   xmlns:sodipodi="http://sodipodi.sourceforge.net/DTD/sodipodi-0.dtd"
   xmlns="http://www.w3.org/2000/svg"
   xmlns:svg="http://www.w3.org/2000/svg"
   xmlns:rdf="http://www.w3.org/1999/02/22-rdf-syntax-ns#"
   xmlns:cc="http://creativecommons.org/ns#"
   xmlns:dc="http://purl.org/dc/elements/1.1/">
  <defs
     id="defs2">
    <marker
       style="overflow:visible"
       id="marker2995"
       refX="0"
       refY="0"
       orient="auto"
       inkscape:stockid="Arrow1Lstart"
       inkscape:isstock="true">
      <path
         transform="matrix(0.8,0,0,0.8,10,0)"
         style="fill:#000000;fill-opacity:1;fill-rule:evenodd;stroke:#000000;stroke-width:1pt;stroke-opacity:1"
         d="M 0,0 5,-5 -12.5,0 5,5 Z"
         id="path2993" />
    </marker>
    <marker
       style="overflow:visible"
       id="marker2985"
       refX="0"
       refY="0"
       orient="auto"
       inkscape:stockid="Arrow1Lstart"
       inkscape:isstock="true">
      <path
         transform="matrix(0.8,0,0,0.8,10,0)"
         style="fill:#000000;fill-opacity:1;fill-rule:evenodd;stroke:#000000;stroke-width:1pt;stroke-opacity:1"
         d="M 0,0 5,-5 -12.5,0 5,5 Z"
         id="path2983" />
    </marker>
    <marker
       style="overflow:visible"
       id="marker2791"
       refX="0"
       refY="0"
       orient="auto"
       inkscape:stockid="Arrow1Lstart"
       inkscape:isstock="true">
      <path
         transform="matrix(0.8,0,0,0.8,10,0)"
         style="fill:#000000;fill-opacity:1;fill-rule:evenodd;stroke:#000000;stroke-width:1pt;stroke-opacity:1"
         d="M 0,0 5,-5 -12.5,0 5,5 Z"
         id="path2789" />
    </marker>
    <marker
       style="overflow:visible"
       id="marker2781"
       refX="0"
       refY="0"
       orient="auto"
       inkscape:stockid="Arrow1Lstart"
       inkscape:isstock="true">
      <path
         transform="matrix(0.8,0,0,0.8,10,0)"
         style="fill:#000000;fill-opacity:1;fill-rule:evenodd;stroke:#000000;stroke-width:1pt;stroke-opacity:1"
         d="M 0,0 5,-5 -12.5,0 5,5 Z"
         id="path2779" />
    </marker>
    <marker
       style="overflow:visible"
       id="marker2417"
       refX="0"
       refY="0"
       orient="auto"
       inkscape:stockid="Arrow1Lstart"
       inkscape:isstock="true">
      <path
         transform="matrix(0.8,0,0,0.8,10,0)"
         style="fill:#000000;fill-opacity:1;fill-rule:evenodd;stroke:#000000;stroke-width:1pt;stroke-opacity:1"
         d="M 0,0 5,-5 -12.5,0 5,5 Z"
         id="path2415" />
    </marker>
    <marker
       style="overflow:visible"
       id="marker2383"
       refX="0"
       refY="0"
       orient="auto"
       inkscape:stockid="Arrow1Lstart"
       inkscape:isstock="true">
      <path
         transform="matrix(0.8,0,0,0.8,10,0)"
         style="fill:#000000;fill-opacity:1;fill-rule:evenodd;stroke:#000000;stroke-width:1pt;stroke-opacity:1"
         d="M 0,0 5,-5 -12.5,0 5,5 Z"
         id="path2381" />
    </marker>
    <marker
       style="overflow:visible"
       id="marker2355"
       refX="0"
       refY="0"
       orient="auto"
       inkscape:stockid="Arrow1Lstart"
       inkscape:isstock="true">
      <path
         transform="matrix(0.8,0,0,0.8,10,0)"
         style="fill:#000000;fill-opacity:1;fill-rule:evenodd;stroke:#000000;stroke-width:1pt;stroke-opacity:1"
         d="M 0,0 5,-5 -12.5,0 5,5 Z"
         id="path2353" />
    </marker>
    <marker
       style="overflow:visible"
       id="Arrow1Lstart"
       refX="0"
       refY="0"
       orient="auto"
       inkscape:stockid="Arrow1Lstart"
       inkscape:isstock="true">
      <path
         transform="matrix(0.8,0,0,0.8,10,0)"
         style="fill:#000000;fill-opacity:1;fill-rule:evenodd;stroke:#000000;stroke-width:1pt;stroke-opacity:1"
         d="M 0,0 5,-5 -12.5,0 5,5 Z"
         id="path2071" />
    </marker>
  </defs>
  <sodipodi:namedview
     id="base"
     pagecolor="#ffffff"
     bordercolor="#666666"
     borderopacity="1.0"
     inkscape:pageopacity="0.0"
     inkscape:pageshadow="2"
     inkscape:zoom="1.5033851"
     inkscape:cx="86.138941"
     inkscape:cy="167.28914"
     inkscape:document-units="mm"
     inkscape:current-layer="layer1"
     inkscape:document-rotation="0"
     showgrid="false"
     inkscape:snap-smooth-nodes="false"
     inkscape:object-nodes="false"
     inkscape:window-width="1366"
     inkscape:window-height="712"
     inkscape:window-x="0"
     inkscape:window-y="0"
     inkscape:window-maximized="1"
     inkscape:object-paths="false"
     inkscape:snap-intersection-paths="false"
     inkscape:snap-midpoints="false"
     inkscape:snap-others="false"
     inkscape:pagecheckerboard="0"
     showguides="true"
     inkscape:guide-bbox="true"
     inkscape:snap-bbox="true"
     showborder="false"
     fit-margin-top="0"
     fit-margin-left="0"
     fit-margin-right="0"
     fit-margin-bottom="0" />
  <metadata
     id="metadata5">
    <rdf:RDF>
      <cc:Work
         rdf:about="">
        <dc:format>image/svg+xml</dc:format>
        <dc:type
           rdf:resource="http://purl.org/dc/dcmitype/StillImage" />
      </cc:Work>
    </rdf:RDF>
  </metadata>
  <g
     inkscape:label="Layer 1"
     inkscape:groupmode="layer"
     id="layer1"
     transform="translate(143.58526,231.84592)">
    <path
       style="fill:#000000;stroke-width:0.0846667"
       id="path389"
       d="" />
    <path
       id="path6742-7-6-76"
       style="fill:#000000;fill-opacity:1;stroke:none;stroke-width:0.264999;stroke-miterlimit:4;stroke-dasharray:none;stroke-opacity:1"
       d="m -135.67516,-231.84535 0.004,5.2e-4 c -1.1203,9.9e-4 -2.13586,0.005 -2.77605,0.0124 l -2.32854,0.0258 -0.57775,0.29611 c -0.7423,0.37984 -1.68912,1.3326 -1.98282,1.99522 l -0.20774,0.46922 -0.01,4.57285 c -0.01,2.5151 -0.0142,5.35428 -0.0212,6.30918 -0.01,0.95489 -0.01,3.88913 -0.01,6.52053 0,2.63138 0.01,5.88919 0,7.23987 0,1.35067 -1.8e-4,6.68594 0.01,11.85561 0.01,5.16967 0.01,10.48583 0.01,11.81323 0,1.32741 -8e-5,4.87108 0.0129,7.87497 0.018,5.89954 0.019,6.55409 0.032,17.75189 0,4.10521 0.0119,7.74899 0.0139,8.09666 l 0.001,0.632 0.19378,0.36794 c 0.3268,0.62015 0.79773,1.15569 1.38183,1.572 0.9935,0.70772 1.03336,0.71372 4.92476,0.71468 1.3274,3e-4 3.10028,0.007 3.93878,0.014 2.4891,0.0218 5.15766,0.0307 9.82266,0.031 2.4219,2e-4 4.97527,0.01 5.67407,0.0227 0.6989,0.0129 3.1567,0.0254 5.4622,0.0284 2.3055,0.003 5.69762,0.0146 7.53752,0.0264 1.83994,0.0117 5.95609,0.0336 9.14673,0.0491 3.19063,0.0154 7.01998,0.0369 8.51059,0.0481 3.07438,0.023 3.48238,-0.001 3.99046,-0.2372 h 0.004 c 1.01217,-0.47016 2.15493,-1.68205 2.34559,-2.4877 0.0404,-0.17101 0.0776,-2.38741 0.0816,-4.9258 0.0142,-8.09742 0.008,-17.79326 -0.0139,-21.67878 -0.0116,-2.07234 -0.0228,-5.92052 -0.0258,-8.55193 -0.002,-2.63141 -0.008,-7.01389 -0.0124,-9.73843 -0.02,-13.76802 -0.0233,-26.62157 -0.01,-33.09772 l 0.01,-4.60282 -0.29352,-0.55758 c -0.52456,-0.99563 -1.77519,-2.04706 -2.61018,-2.1947 -0.44011,-0.0778 -2.16629,-0.0939 -12.87363,-0.11834 -1.25756,-0.003 -2.80088,-0.0116 -3.42977,-0.0186 -0.62889,-0.007 -2.3822,-0.0131 -3.89588,-0.0129 -2.81824,3.9e-4 -12.30347,-0.0289 -15.79387,-0.0486 -1.0713,-0.006 -3.5292,-0.0179 -5.4622,-0.0269 -1.933,-0.009 -5.24872,-0.026 -7.36803,-0.0367 -1.05969,-0.005 -2.28517,-0.007 -3.40547,-0.006 z m -4.04937,0.50798 5.2e-4,5.2e-4 c 2.647,-0.0141 12.93949,0.0446 23.60889,0.13849 2.1197,0.0184 8.0234,0.0648 13.12272,0.10284 5.0991,0.038 11.67167,0.0878 14.60479,0.11214 l 5.19141,0.0419 0.42427,0.22738 c 0.5733,0.30675 1.35493,1.10075 1.58388,1.56425 l 0.18707,0.38033 0.0114,4.60592 c 0.009,3.78238 -0.002,12.61599 -0.0196,20.7052 -0.0178,8.08922 -0.044,15.49412 -0.0615,16.23674 -0.0207,0.88428 -0.0393,7.8769 -0.0455,15.67759 -0.006,8.12717 -0.02,14.33267 -0.0408,18.55081 -0.0104,2.10907 -0.0233,3.72225 -0.0372,4.82812 -0.007,0.55293 -0.013,0.97916 -0.0207,1.27538 -0.004,0.14811 -0.009,0.26408 -0.0124,0.34365 -0.004,0.0796 -0.0173,0.15911 -0.003,0.0822 -0.0654,0.34514 -0.41901,0.9538 -0.91261,1.40147 -0.69162,0.62723 -1.19347,0.88094 -1.80609,0.971 -0.22447,0.033 -0.72692,0.0666 -1.15083,0.0796 -0.21197,0.007 -0.40869,0.009 -0.54519,0.006 -0.06,-0.001 -0.10113,-0.005 -0.12661,-0.007 -0.005,-0.002 -0.0155,-0.004 -0.0155,-0.004 -5.3e-4,-1.4e-4 -0.048,-0.0105 -0.0605,-0.0124 -0.0249,-0.004 -0.0347,-0.005 -0.045,-0.006 -0.0206,-0.002 -0.0348,-0.001 -0.0506,-0.002 -0.0319,-0.002 -0.0696,-0.004 -0.11731,-0.005 -0.0954,-0.003 -0.2306,-0.006 -0.40256,-0.009 -0.34395,-0.006 -0.83509,-0.0117 -1.44126,-0.0181 -1.21228,-0.0127 -2.87814,-0.0255 -4.70668,-0.0362 -3.65498,-0.0216 -8.32527,-0.0541 -10.37301,-0.0713 -5.82638,-0.0488 -12.05631,-0.0927 -19.00711,-0.13229 -3.5156,-0.02 -9.19492,-0.0549 -12.61732,-0.078 l -6.09162,-0.0403 -0.4749,-0.22789 c -0.54531,-0.26202 -1.26917,-0.93972 -1.66037,-1.59629 l -0.21601,-0.36121 -0.0243,-17.41238 c -0.024,-16.53716 0.034,-44.23046 0.1235,-58.63776 l 0.0403,-6.30453 0.26769,-0.52916 c 0.4581,-0.90783 1.63348,-1.76158 2.32388,-1.83452 -0.04,0.004 0.045,-0.002 0.14832,-0.003 0.107,-9.9e-4 0.25781,-0.002 0.44751,-0.003 z m 4.18114,3.53519 c -1.7826,-0.0106 -3.44142,1.18636 -3.73672,3.0117 -0.1417,0.87535 0.18717,1.96436 0.79737,2.64015 0.149,0.16494 0.2715,0.33269 0.2713,0.3731 -1e-4,0.0404 -0.24452,0.28214 -0.54312,0.53692 -0.2986,0.25478 -0.54269,0.5003 -0.54209,0.5457 6e-4,0.0454 -0.0987,0.2038 -0.21962,0.35192 -0.2594,0.31653 -0.42932,0.70327 -0.56792,1.29036 -0.2238,0.94836 -0.066,2.08672 0.40824,2.95124 0.3661,0.667 1.27191,1.49008 2.00711,1.82418 0.8177,0.37155 1.29868,0.47332 2.18488,0.46095 1.3201,-0.0181 2.37606,-0.46308 3.31866,-1.39888 1.3081,-1.29864 1.61535,-3.11364 0.79995,-4.72116 -0.2963,-0.58414 -0.88818,-1.27505 -1.38028,-1.60972 l -0.25631,-0.17415 0.30386,-0.31264 c 0.6924,-0.71204 1.06553,-1.86224 0.89503,-2.75694 -0.226,-1.18579 -0.85687,-2.01476 -1.96267,-2.57814 -0.5757,-0.29337 -1.18337,-0.43105 -1.77767,-0.43459 z m -0.0822,1.77146 c 0.3161,-0.009 0.64113,0.032 0.87953,0.12765 1.2535,0.5032 1.55145,2.12193 0.54725,2.97346 -0.9425,0.7992 -2.62584,0.50713 -3.12694,-0.54209 v -5.2e-4 c -0.4373,-0.91705 -0.089,-1.86755 0.8723,-2.37969 0.2046,-0.10902 0.51176,-0.16931 0.82786,-0.17881 z m -0.0956,5.22811 c 2.09,-0.0999 3.68361,1.83138 2.81791,3.62613 -0.2808,0.58215 -0.72853,1.0115 -1.37873,1.3224 -0.3427,0.16392 -0.55918,0.20002 -1.26038,0.20981 -0.7487,0.0104 -0.9011,-0.0136 -1.3162,-0.21032 -0.5872,-0.27824 -1.16847,-0.82562 -1.39526,-1.3131 -0.22611,-0.48592 -0.28358,-1.28618 -0.12868,-1.79317 0.2573,-0.84182 1.22019,-1.61347 2.23759,-1.79369 0.1432,-0.0253 0.28435,-0.0414 0.42375,-0.0481 z m 7.25278,5.52266 v 1.37718 1.6738 c 0,0.16308 2e-5,2.43055 5.2e-4,5.03845 0,2.60793 -3.8e-4,5.35148 -0.0119,6.09678 -0.011,0.74528 -0.0138,3.26035 -0.01,5.58881 0.01,2.32845 -3.4e-4,4.74754 -0.0103,5.37642 -0.012,0.62888 -0.013,3.5629 0,6.52001 0.011,2.95712 0.01,5.47171 0,5.58829 -0.011,0.11659 -0.01,2.95623 0,6.30917 0.014,3.35293 0.0203,6.10373 0.0103,6.11384 l -5.2e-4,-5.1e-4 c -0.01,0.01 -0.01,1.22002 0,2.68872 l 0.0119,2.67012 1.50999,-0.0124 c 0.8306,-0.007 1.66248,-0.004 1.84898,0.005 0.1864,0.009 2.52964,0.0122 5.20744,0.006 2.6778,-0.006 4.96412,0.004 5.08082,0.0207 0.1166,0.0169 2.32663,0.0239 4.91133,0.0155 2.5845,-0.008 4.8901,-8.8e-4 5.1232,0.016 0.233,0.0172 2.38591,0.0275 4.78421,0.0233 2.3983,-0.004 4.38493,0.006 4.41523,0.0243 0.077,0.0451 0.0986,-3.10435 0.0806,-11.52436 -0.01,-4.00499 -0.0108,-8.3109 -0.01,-9.5684 0.01,-1.2575 0.01,-3.8866 0,-5.84254 v -8.76381 c 0,-2.86419 -2e-4,-6.92188 0,-9.01753 v -7.0497 l 0.0103,-3.23908 -0.96428,0.009 c -0.5303,0.005 -1.38371,7.3e-4 -1.89601,-0.008 -0.5125,-0.01 -2.74108,-0.0168 -4.95318,-0.016 -2.2122,8.7e-4 -4.51812,-0.006 -5.12372,-0.015 -0.6055,-0.009 -2.79604,-0.0147 -4.86844,-0.0134 -2.0724,0.001 -4.18757,-0.009 -4.69997,-0.0227 -0.5124,-0.0139 -2.98936,-0.0189 -5.50406,-0.0108 -2.5147,0.008 -4.65801,-0.002 -4.76301,-0.0217 z m 0.34572,0.39997 3.23908,0.009 c 1.7814,0.005 3.92462,0.0174 4.76301,0.0274 0.8384,0.01 3.18226,0.0154 5.20796,0.0119 2.02589,-0.003 4.29315,0.003 5.03845,0.0139 0.7453,0.0113 3.08895,0.0207 5.20795,0.0202 2.119,-4.9e-4 4.21448,0.003 4.65708,0.009 0.4424,0.005 1.54261,0.005 2.44481,-0.001 l 1.64021,-0.0103 v 3.74706 c -3e-4,2.06078 1.8e-4,4.85163 -0.01,6.20221 v 5.96966 8.84855 c 0,2.93402 -1.8e-4,7.22085 0.01,9.52604 0.01,2.30518 1.8e-4,4.85843 -0.01,5.67355 -0.011,0.81517 1.6e-4,4.24409 0.0202,7.62021 0.021,3.37612 0.02,6.26445 0,6.41873 l -0.0403,0.2806 -1.41387,-0.0258 c -0.7777,-0.0142 -2.90021,-0.0247 -4.71651,-0.0238 -3.7698,0.002 -7.57889,-0.005 -10.71149,-0.0207 -1.1877,-0.006 -3.49268,-0.0121 -5.12268,-0.0139 -1.6301,-0.002 -3.72652,-0.0113 -4.65812,-0.0207 -0.9313,-0.009 -2.54042,-0.0103 -3.57652,-0.003 h -5.2e-4 l -1.8836,0.0139 -0.0393,-2.76727 c -0.021,-1.52224 -0.0248,-2.78434 -0.01,-2.80397 0.018,-0.0197 0.0208,-2.70076 0.01,-5.95829 -0.013,-3.25754 -0.0109,-6.07703 0.001,-6.26576 0.013,-0.18876 0.011,-2.83882 0,-5.88905 -0.015,-3.05019 -0.0188,-6.34599 -0.01,-7.3241 0.01,-0.97813 0.015,-3.32182 0.015,-5.20795 0,-10.13517 -0.0114,-15.59059 -0.0274,-16.75454 z m 5.12423,3.17139 c -0.015,0.002 -0.0301,0.0223 -0.048,0.062 -0.1231,0.27479 -0.99552,1.50622 -2.19522,3.09852 -0.5626,0.74656 -0.97194,1.44553 -1.16324,1.98541 -0.2352,0.66435 -0.17108,1.4569 0.15451,1.91306 0.13611,0.19055 0.37589,0.42325 0.53279,0.51728 0.3595,0.21524 1.09682,0.28675 1.50482,0.14573 0.3035,-0.10486 0.74753,-0.48789 0.95343,-0.82218 0.09,-0.14695 0.0979,-0.11835 0.0599,0.21136 -0.078,0.67365 -0.34786,1.60769 -0.62167,2.15129 -0.1465,0.29081 -0.27733,0.5525 -0.29093,0.58188 -0.014,0.0293 0.31023,0.0311 0.71933,0.003 0.4091,-0.0276 0.91455,-0.0134 1.12345,0.032 0.209,0.0454 0.39131,0.0719 0.40411,0.0584 0.013,-0.0135 -0.094,-0.2483 -0.23823,-0.52141 -0.2864,-0.54229 -0.55832,-1.47875 -0.65732,-2.26085 l -0.0631,-0.49919 0.28319,0.40824 c 0.3951,0.5694 0.74542,0.7483 1.43092,0.73071 0.5876,-0.0147 0.93425,-0.15255 1.23145,-0.48989 0.8475,-0.96185 0.55303,-2.27928 -0.94517,-4.22817 -0.5941,-0.77273 -2.00446,-2.78066 -2.12596,-3.02669 -0.018,-0.0358 -0.0336,-0.0522 -0.0486,-0.0506 z m 21.88549,0.0475 c -0.014,0.0145 -0.21315,0.32227 -0.44235,0.6842 -0.229,0.36193 -0.74877,1.0938 -1.15497,1.62625 -1.2333,1.61643 -1.74801,2.47475 -1.91461,3.19206 v 5.1e-4 c -0.2845,1.22456 0.51919,2.31089 1.69809,2.29444 0.5974,-0.008 0.9366,-0.16783 1.31929,-0.62115 l 0.31678,-0.37569 -0.0512,0.48834 c -0.077,0.7329 -0.3196,1.54074 -0.6475,2.15749 l -0.29301,0.55139 0.31729,-0.0718 c 0.3941,-0.0897 1.1223,-0.10279 1.6428,-0.03 l 0.39481,0.0553 -0.24753,-0.48059 c -0.3052,-0.59291 -0.58845,-1.54758 -0.66405,-2.23914 l -0.0568,-0.5209 0.14469,0.25167 c 0.3722,0.64765 0.92394,0.92272 1.69964,0.84749 0.852,-0.0826 1.45096,-0.71675 1.52446,-1.61541 0.075,-0.91053 -0.39349,-1.81385 -2.12339,-4.09535 -0.4803,-0.63351 -1.00058,-1.37092 -1.15548,-1.63866 -0.1549,-0.26774 -0.29316,-0.47495 -0.30696,-0.46044 z m -34.48472,0.971 c -0.041,5.7e-4 -0.19393,0.21694 -0.34003,0.48059 -0.2623,0.47366 -0.71521,1.10941 -2.27841,3.19722 -1.2972,1.73258 -2.09465,3.10017 -2.26395,3.884 h 5.2e-4 c -0.1171,0.53975 -0.087,1.41914 0.062,1.8371 0.6379,1.7898 3.22568,2.05883 4.28398,0.44545 l 0.262,-0.39894 -0.046,0.64492 c -0.083,1.16831 -0.47411,2.41009 -1.05781,3.35122 l -0.30644,0.49299 0.32349,-0.0594 c 1.0245,-0.18859 2.05561,-0.17336 2.88872,0.0429 0.1817,0.0472 0.1725,0.0129 -0.1509,-0.56947 -0.1893,-0.34075 -0.44512,-0.90687 -0.56792,-1.25832 -0.2227,-0.63717 -0.50115,-2.00159 -0.50695,-2.48357 0,-0.24174 0.0102,-0.23341 0.25115,0.17518 0.5499,0.92846 1.40647,1.30321 2.51767,1.10123 1.1124,-0.20223 1.88107,-1.10027 1.93787,-2.26188 0.066,-1.35373 -0.57873,-2.63983 -2.69493,-5.37538 -0.809,-1.0459 -1.61248,-2.1872 -2.00297,-2.84737 -0.1298,-0.2194 -0.26958,-0.399 -0.31058,-0.39843 z m 23.50503,8.49095 c -0.024,0.008 -0.0447,0.0596 -0.0827,0.16072 -0.045,0.11861 -0.63915,0.98403 -1.32085,1.9234 -1.4112,1.94456 -1.812,2.59453 -2.019,3.27421 -0.2707,0.88887 -0.14681,1.4783 0.4222,2.01125 0.802,0.75107 1.97607,0.65876 2.58227,-0.20309 l 0.24184,-0.34365 v 0.2403 c 0.01,0.55835 -0.4769,2.00824 -0.9524,2.84995 -0.014,0.0252 0.34736,0.0252 0.80306,5.2e-4 0.4557,-0.0247 0.97827,-0.006 1.16117,0.0424 0.1829,0.0477 0.34496,0.074 0.35966,0.0584 0.015,-0.0156 -0.0706,-0.19445 -0.19172,-0.39739 -0.3074,-0.51696 -0.62985,-1.52538 -0.71055,-2.22467 l -0.0692,-0.5917 0.20567,0.28991 c 0.113,0.1597 0.37154,0.404 0.57464,0.5426 0.3248,0.22152 0.43439,0.2502 0.90899,0.23358 0.7606,-0.0267 1.21174,-0.30826 1.51154,-0.94361 0.1944,-0.41142 0.21663,-0.54494 0.17363,-1.0449 -0.04,-0.47082 -0.121,-0.70685 -0.4532,-1.32447 -0.2224,-0.41344 -0.67331,-1.11038 -1.00201,-1.54822 -0.5183,-0.69028 -1.75266,-2.44064 -2.04845,-2.90474 -0.0454,-0.0707 -0.0712,-0.10561 -0.0946,-0.10077 z m -11.90005,9.52707 c -0.058,-0.003 -0.093,0.005 -0.093,0.0238 5e-4,0.0376 0.1168,0.30874 0.2589,0.60307 0.2915,0.60418 0.48556,1.25767 0.58446,1.96629 l 0.0672,0.48213 -0.42633,-0.41392 c -0.3241,-0.31523 -0.52,-0.43287 -0.82011,-0.49248 -0.9012,-0.1791 -1.84812,0.30728 -2.07532,1.0666 h 5.2e-4 c -0.12061,0.40333 -0.024,1.22745 0.20825,1.78026 0.232,0.55202 0.94448,1.64551 1.72238,2.64324 0.5837,0.74866 1.46178,2.05415 1.46347,2.17558 0,0.20794 0.17447,0.0396 0.54467,-0.53588 0.2191,-0.3407 0.86603,-1.24992 1.43712,-2.02055 1.45591,-1.9644 1.8681,-2.91249 1.6552,-3.8039 -0.181,-0.75793 -0.751,-1.24118 -1.5844,-1.34359 -0.5282,-0.0649 -1.0601,0.15948 -1.4304,0.60462 -0.338,0.40631 -0.35237,0.35875 -0.17467,-0.59428 0.07,-0.37354 0.27114,-0.96864 0.46974,-1.38648 l 0.34778,-0.73174 -0.80563,0.0496 c -0.4434,0.0274 -0.94918,0.0128 -1.12448,-0.0331 -0.088,-0.023 -0.16719,-0.0366 -0.22479,-0.0393 z m 21.66018,0.0413 0.30747,0.54157 c 0.3126,0.55039 0.5959,1.45155 0.6966,2.2164 0.046,0.34788 0.0364,0.39552 -0.0486,0.26717 -0.5927,-0.89073 -1.50517,-1.12747 -2.44378,-0.63407 -0.5026,0.26426 -0.71548,0.56297 -0.81648,1.14619 h 5.1e-4 c -0.1803,1.04149 0.2026,1.78837 2.5151,4.90512 0.23949,0.32266 0.55439,0.78486 0.69969,1.02733 0.1452,0.24247 0.29046,0.44125 0.32247,0.4408 0.032,-4.5e-4 0.26314,-0.3169 0.51314,-0.7028 0.2501,-0.3859 0.77946,-1.12396 1.17616,-1.63969 0.3965,-0.5157 0.77014,-1.03522 0.83044,-1.15497 0.06,-0.11976 0.17159,-0.28227 0.24649,-0.36122 0.075,-0.0789 0.27867,-0.44093 0.45217,-0.8046 0.7602,-1.59395 0.23893,-2.95494 -1.17047,-3.05408 -0.7392,-0.052 -1.01791,0.0475 -1.47071,0.52555 l -0.40824,0.43098 0.0512,-0.36845 c 0.1084,-0.78253 0.35778,-1.6391 0.63458,-2.17816 0.1586,-0.30914 0.27459,-0.5751 0.25839,-0.59118 -0.017,-0.0161 -0.21524,0.0149 -0.44184,0.0692 -0.379,0.0907 -0.9157,0.0784 -1.62471,-0.0362 z m -28.5719,8.97103 c -0.047,6.6e-4 -0.0842,0.0397 -0.0832,0.0863 6e-4,0.0466 0.0388,0.0838 0.0858,0.0832 0.047,-6.6e-4 0.0852,-0.0392 0.0842,-0.0858 -7e-4,-0.0466 -0.0398,-0.0839 -0.0868,-0.0832 z m 19.90007,0.53795 c -0.1005,-2.1e-4 -0.25851,0.0206 -0.48317,0.0605 -0.3733,0.0661 -0.69828,0.0682 -1.09657,0.008 -0.31141,-0.0472 -0.5779,-0.0737 -0.5917,-0.0594 l 5.2e-4,5.2e-4 c -0.014,0.0144 0.0919,0.24934 0.23616,0.52244 0.2665,0.50507 0.54799,1.43572 0.65319,2.16576 l 0.0579,0.40411 -0.44907,-0.447 c -0.2981,-0.29657 -0.54629,-0.46568 -0.73639,-0.50074 -0.7649,-0.14134 -1.3869,0.0576 -1.8402,0.58859 -0.2433,0.28502 -0.3074,0.47084 -0.37,1.07901 h -5.2e-4 c -0.033,0.31973 0.0949,0.89444 0.29714,1.33531 0.1771,0.38561 0.95024,1.5304 1.99264,2.95124 0.2874,0.39187 0.68043,0.96784 0.87333,1.27951 0.1928,0.31166 0.37411,0.56525 0.40411,0.56483 0.03,-7.5e-4 0.13908,-0.15507 0.24288,-0.34313 0.104,-0.18809 0.58941,-0.88344 1.07901,-1.54513 2.0109,-2.71769 2.2189,-3.11037 2.204,-4.17391 -0.01,-0.66645 -0.0311,-0.75776 -0.24702,-1.03301 -0.4033,-0.51356 -0.72207,-0.68028 -1.34927,-0.70693 -0.7899,-0.0336 -1.23929,0.21534 -1.64279,0.91002 -0.124,0.21341 -0.01,-0.77111 0.16795,-1.40818 0.1382,-0.50469 0.47122,-1.23997 0.66352,-1.46503 0.10938,-0.12787 0.10188,-0.18671 -0.0656,-0.18707 z m 24.20989,4.50412 -0.27801,0.0651 c -0.8235,0.19386 -1.88302,0.20744 -2.81172,0.0357 l -0.32866,-0.062 0.19844,0.31161 c 0.6497,1.01907 1.22846,2.84203 1.24437,3.91707 v 0.28732 l -0.308,-0.45475 c -0.4914,-0.72402 -1.13426,-1.06247 -2.00556,-1.0573 -0.2595,0.002 -0.65825,0.0691 -0.88625,0.15038 -0.5648,0.20126 -1.23603,0.89617 -1.40663,1.45417 -0.086,0.28241 -0.1137,0.63319 -0.0863,1.09606 0.07,1.15434 0.59124,2.12457 2.61534,4.86792 1.185,1.60599 1.82052,2.51769 2.12132,3.04271 0.1125,0.19636 0.22618,0.35589 0.25218,0.35553 0.026,-7.1e-4 0.13666,-0.16417 0.24546,-0.36328 0.2624,-0.48027 1.27291,-1.92799 2.17661,-3.11919 2.06841,-2.72667 2.62172,-3.87297 2.52492,-5.22552 -0.036,-0.50185 -0.0981,-0.73617 -0.27079,-1.02113 -0.5345,-0.88382 -1.1179,-1.19903 -2.1978,-1.18494 -0.631,0.008 -0.76782,0.0383 -1.10742,0.24443 -0.3557,0.2158 -0.70462,0.56572 -0.97462,0.9772 -0.091,0.13765 -0.10191,0.0712 -0.0713,-0.43357 0.069,-1.14072 0.47846,-2.44294 1.07746,-3.42769 z m -37.30935,4.97334 c -0.0209,-2.6e-4 -0.0344,0.002 -0.0393,0.007 -0.019,0.0196 0.0428,0.14135 0.13643,0.27078 0.3483,0.47861 0.91357,2.38573 0.80667,2.7218 -0.019,0.0608 -0.1362,-0.0415 -0.2682,-0.23513 -0.32211,-0.47228 -0.64635,-0.61509 -1.38545,-0.60978 -0.4872,0.004 -0.66959,0.0439 -0.91209,0.19844 -0.3583,0.2285 -0.63954,0.61031 -0.72243,0.9803 h -10e-4 c -0.1035,0.46326 -0.0732,0.86707 0.10594,1.41904 0.2088,0.64281 0.60436,1.27446 1.91306,3.05304 0.5431,0.73825 1.08518,1.52163 1.20458,1.74046 0.1194,0.21886 0.24071,0.39675 0.26871,0.39636 0.028,-3.9e-4 0.23071,-0.27892 0.45011,-0.6196 0.2192,-0.3407 0.80978,-1.17805 1.31258,-1.86035 0.5029,-0.6823 1.04377,-1.44776 1.20147,-1.70171 1.1724,-1.88662 0.56972,-3.65753 -1.23558,-3.63233 -0.5618,0.008 -1.01693,0.26255 -1.28002,0.71571 -0.25811,0.44555 -0.27902,0.29459 -0.093,-0.67902 0.1343,-0.70183 0.35692,-1.31704 0.65732,-1.81798 l 0.18655,-0.31161 -0.8201,0.0558 c -0.4828,0.033 -0.9588,0.0203 -1.156,-0.0315 -0.13823,-0.0361 -0.26676,-0.0586 -0.33022,-0.0594 z m 21.78369,0.0801 0.15296,0.23358 c 0.084,0.12837 0.17362,0.25195 0.19792,0.27491 0.1999,0.18577 0.80206,2.46999 0.68316,2.5921 -0.021,0.022 -0.0992,-0.0723 -0.1726,-0.20981 -0.073,-0.13747 -0.2528,-0.34738 -0.3979,-0.46612 -0.9452,-0.77301 -2.5093,-0.19361 -2.7833,1.03094 -0.09,0.40277 -0.0844,0.48597 0.0646,1.03043 0.1979,0.71944 0.65695,1.48154 1.94975,3.23701 0.625,0.84863 1.21288,1.68707 1.30638,1.86345 0.093,0.17639 0.20098,0.30826 0.23978,0.29301 0.039,-0.0152 0.2482,-0.29677 0.4656,-0.6258 0.2174,-0.32904 0.6042,-0.88215 0.8599,-1.22887 1.2135,-1.64526 1.61311,-2.2404 1.89601,-2.82566 0.7619,-1.57597 0.18521,-2.98524 -1.26659,-3.09646 -0.6306,-0.0483 -0.99738,0.11311 -1.44488,0.63614 l -0.31625,0.37 0.063,-0.52555 c 0.092,-0.7579 0.27788,-1.38261 0.59738,-2.00866 0.154,-0.30179 0.26845,-0.55958 0.25425,-0.57309 -0.014,-0.0135 -0.2424,0.0138 -0.5085,0.061 -0.2661,0.0471 -0.53074,0.0718 -0.58704,0.0553 -0.057,-0.0165 -0.36223,-0.0497 -0.67903,-0.0739 z m 13.70097,12.0189 c -1.98336,0.0538 -3.88929,1.45056 -4.36873,3.26699 h -5.1e-4 c -0.1757,0.66583 -0.0987,1.9211 0.15709,2.56315 0.222,0.55782 1.07425,1.64803 1.46245,1.87017 0.1438,0.0823 0.26211,0.17218 0.26251,0.19999 4e-4,0.0278 -0.11339,0.16294 -0.25269,0.30024 -0.615,0.60588 -0.94532,1.55304 -0.87592,2.51509 0.1831,2.54669 3.08229,4.06577 5.48959,2.87631 1.6275,-0.80413 2.37298,-2.47223 1.83968,-4.11706 -0.1582,-0.48764 -0.67765,-1.30765 -0.87695,-1.38338 -0.1303,-0.0498 -0.0769,-0.25454 0.0811,-0.30696 0.085,-0.0284 0.34913,-0.25369 0.58653,-0.50074 0.9834,-1.02257 1.30311,-1.87179 1.21801,-3.24115 -0.042,-0.68332 -0.1003,-0.95864 -0.2806,-1.34565 -0.7163,-1.53577 -2.27768,-2.5744 -4.04368,-2.68925 h -5.2e-4 c -0.13251,-0.009 -0.26517,-0.0113 -0.39739,-0.008 z m 0.0842,1.80971 c 0.0785,-0.003 0.1567,-0.003 0.23513,5.2e-4 0.753,0.03 1.49453,0.32361 2.03243,0.91777 0.461,0.50924 0.63365,0.90198 0.68265,1.55081 0.052,0.69548 -0.18515,1.30897 -0.71985,1.8588 -1.3794,1.41834 -4.05868,1.02737 -4.83278,-0.70486 -0.2723,-0.60954 -0.31524,-1.1966 -0.12764,-1.74667 0.39759,-1.16563 1.55321,-1.83806 2.73006,-1.87637 z m 0.0336,6.82801 c 0.204,-0.005 0.40571,0.0158 0.59531,0.0661 0.54331,0.144 1.17292,0.73688 1.31362,1.23662 0.3232,1.1491 -0.58249,2.22085 -1.89239,2.23914 -0.7951,0.0111 -1.5283,-0.40066 -1.82159,-1.02319 -0.27001,-0.57329 -0.17642,-1.41261 0.20618,-1.84743 0.3574,-0.4062 0.98667,-0.65633 1.59887,-0.67128 z" />
  </g>
</svg>
