<?xml version="1.0" encoding="UTF-8" standalone="no"?>
<svg
   sodipodi:docname="9C.svg"
   id="svg8"
   version="1.1"
   viewBox="0 0 63.101871 88.347733"
   height="88.347733mm"
   width="63.101871mm"
   inkscape:version="1.1.1 (1:1.1+202109281949+c3084ef5ed)"
   inkscape:export-filename="/home/doug/k40/52Cards/9C.png"
   inkscape:export-xdpi="96"
   inkscape:export-ydpi="96"
   xmlns:inkscape="http://www.inkscape.org/namespaces/inkscape"
   xmlns:sodipodi="http://sodipodi.sourceforge.net/DTD/sodipodi-0.dtd"
   xmlns="http://www.w3.org/2000/svg"
   xmlns:svg="http://www.w3.org/2000/svg"
   xmlns:rdf="http://www.w3.org/1999/02/22-rdf-syntax-ns#"
   xmlns:cc="http://creativecommons.org/ns#"
   xmlns:dc="http://purl.org/dc/elements/1.1/">
  <defs
     id="defs2">
    <marker
       style="overflow:visible"
       id="marker2995"
       refX="0"
       refY="0"
       orient="auto"
       inkscape:stockid="Arrow1Lstart"
       inkscape:isstock="true">
      <path
         transform="matrix(0.8,0,0,0.8,10,0)"
         style="fill:#000000;fill-opacity:1;fill-rule:evenodd;stroke:#000000;stroke-width:1pt;stroke-opacity:1"
         d="M 0,0 5,-5 -12.5,0 5,5 Z"
         id="path2993" />
    </marker>
    <marker
       style="overflow:visible"
       id="marker2985"
       refX="0"
       refY="0"
       orient="auto"
       inkscape:stockid="Arrow1Lstart"
       inkscape:isstock="true">
      <path
         transform="matrix(0.8,0,0,0.8,10,0)"
         style="fill:#000000;fill-opacity:1;fill-rule:evenodd;stroke:#000000;stroke-width:1pt;stroke-opacity:1"
         d="M 0,0 5,-5 -12.5,0 5,5 Z"
         id="path2983" />
    </marker>
    <marker
       style="overflow:visible"
       id="marker2791"
       refX="0"
       refY="0"
       orient="auto"
       inkscape:stockid="Arrow1Lstart"
       inkscape:isstock="true">
      <path
         transform="matrix(0.8,0,0,0.8,10,0)"
         style="fill:#000000;fill-opacity:1;fill-rule:evenodd;stroke:#000000;stroke-width:1pt;stroke-opacity:1"
         d="M 0,0 5,-5 -12.5,0 5,5 Z"
         id="path2789" />
    </marker>
    <marker
       style="overflow:visible"
       id="marker2781"
       refX="0"
       refY="0"
       orient="auto"
       inkscape:stockid="Arrow1Lstart"
       inkscape:isstock="true">
      <path
         transform="matrix(0.8,0,0,0.8,10,0)"
         style="fill:#000000;fill-opacity:1;fill-rule:evenodd;stroke:#000000;stroke-width:1pt;stroke-opacity:1"
         d="M 0,0 5,-5 -12.5,0 5,5 Z"
         id="path2779" />
    </marker>
    <marker
       style="overflow:visible"
       id="marker2417"
       refX="0"
       refY="0"
       orient="auto"
       inkscape:stockid="Arrow1Lstart"
       inkscape:isstock="true">
      <path
         transform="matrix(0.8,0,0,0.8,10,0)"
         style="fill:#000000;fill-opacity:1;fill-rule:evenodd;stroke:#000000;stroke-width:1pt;stroke-opacity:1"
         d="M 0,0 5,-5 -12.5,0 5,5 Z"
         id="path2415" />
    </marker>
    <marker
       style="overflow:visible"
       id="marker2383"
       refX="0"
       refY="0"
       orient="auto"
       inkscape:stockid="Arrow1Lstart"
       inkscape:isstock="true">
      <path
         transform="matrix(0.8,0,0,0.8,10,0)"
         style="fill:#000000;fill-opacity:1;fill-rule:evenodd;stroke:#000000;stroke-width:1pt;stroke-opacity:1"
         d="M 0,0 5,-5 -12.5,0 5,5 Z"
         id="path2381" />
    </marker>
    <marker
       style="overflow:visible"
       id="marker2355"
       refX="0"
       refY="0"
       orient="auto"
       inkscape:stockid="Arrow1Lstart"
       inkscape:isstock="true">
      <path
         transform="matrix(0.8,0,0,0.8,10,0)"
         style="fill:#000000;fill-opacity:1;fill-rule:evenodd;stroke:#000000;stroke-width:1pt;stroke-opacity:1"
         d="M 0,0 5,-5 -12.5,0 5,5 Z"
         id="path2353" />
    </marker>
    <marker
       style="overflow:visible"
       id="Arrow1Lstart"
       refX="0"
       refY="0"
       orient="auto"
       inkscape:stockid="Arrow1Lstart"
       inkscape:isstock="true">
      <path
         transform="matrix(0.8,0,0,0.8,10,0)"
         style="fill:#000000;fill-opacity:1;fill-rule:evenodd;stroke:#000000;stroke-width:1pt;stroke-opacity:1"
         d="M 0,0 5,-5 -12.5,0 5,5 Z"
         id="path2071" />
    </marker>
  </defs>
  <sodipodi:namedview
     id="base"
     pagecolor="#ffffff"
     bordercolor="#666666"
     borderopacity="1.0"
     inkscape:pageopacity="0.0"
     inkscape:pageshadow="2"
     inkscape:zoom="1.503387"
     inkscape:cx="86.138832"
     inkscape:cy="166.62376"
     inkscape:document-units="mm"
     inkscape:current-layer="layer1"
     inkscape:document-rotation="0"
     showgrid="false"
     inkscape:snap-smooth-nodes="false"
     inkscape:object-nodes="false"
     inkscape:window-width="1366"
     inkscape:window-height="712"
     inkscape:window-x="0"
     inkscape:window-y="0"
     inkscape:window-maximized="1"
     inkscape:object-paths="false"
     inkscape:snap-intersection-paths="false"
     inkscape:snap-midpoints="false"
     inkscape:snap-others="false"
     inkscape:pagecheckerboard="0"
     showguides="true"
     inkscape:guide-bbox="true"
     inkscape:snap-bbox="true"
     showborder="false"
     fit-margin-top="0"
     fit-margin-left="0"
     fit-margin-right="0"
     fit-margin-bottom="0" />
  <metadata
     id="metadata5">
    <rdf:RDF>
      <cc:Work
         rdf:about="">
        <dc:format>image/svg+xml</dc:format>
        <dc:type
           rdf:resource="http://purl.org/dc/dcmitype/StillImage" />
      </cc:Work>
    </rdf:RDF>
  </metadata>
  <g
     inkscape:label="Layer 1"
     inkscape:groupmode="layer"
     id="layer1"
     transform="translate(57.547714,475.26816)">
    <path
       style="fill:#000000;stroke-width:0.0846667"
       id="path389"
       d="" />
    <path
       id="path6742-7-6-20"
       style="fill:#000000;fill-opacity:1;stroke:none;stroke-width:0.264999;stroke-miterlimit:4;stroke-dasharray:none;stroke-opacity:1"
       d="m -49.638119,-475.26798 0.0041,5e-4 c -1.120301,10e-4 -2.13586,0.005 -2.776059,0.0124 l -2.328539,0.0258 -0.577742,0.2961 c -0.742302,0.37983 -1.689126,1.3326 -1.982827,1.99522 l -0.207738,0.46924 -0.0098,4.57284 c -0.01,2.51511 -0.01419,5.35427 -0.02119,6.30918 -0.01,0.95488 -0.0098,3.88914 -0.0098,6.52052 0,2.63139 0.01,5.88918 0,7.23988 0,1.35067 -1.8e-4,6.68594 0.0098,11.8556 0.01,5.16967 0.0098,10.48584 0.0098,11.81323 0,1.32741 -8.2e-5,4.87108 0.01292,7.87498 0.018,5.89954 0.01904,6.55407 0.03204,17.75187 0,4.10522 0.01195,7.74901 0.01395,8.09667 l 10e-4,0.63201 0.193788,0.36793 c 0.326798,0.62016 0.797727,1.1557 1.381826,1.572 0.9935,0.70771 1.033365,0.71371 4.924764,0.71469 1.327401,2.9e-4 3.09976,0.007 3.938262,0.0139 2.489099,0.0218 5.158174,0.0307 9.823172,0.031 2.421901,1.9e-4 4.975273,0.0105 5.674073,0.0233 0.6989,0.0129 3.156698,0.0254 5.462198,0.0284 2.3055,0.003 5.697625,0.0147 7.537525,0.0263 1.83994,0.0117 5.956088,0.0336 9.146728,0.0491 3.1906299,0.0154 7.0199815,0.0369 8.51059135,0.048 3.07437995,0.023 3.48237405,-10e-4 3.99045425,-0.23719 h 0.00413 c 1.0121699,-0.47017 2.154933,-1.68204 2.3455931,-2.4877 0.0404,-0.17102 0.077649,-2.38741 0.081649,-4.9258 0.0142,-8.09741 0.00795,-17.79325 -0.013953,-21.67879 -0.0116,-2.07232 -0.022838,-5.9205 -0.025838,-8.55192 -0.002,-2.63141 -0.008,-7.01389 -0.012402,-9.73844 -0.02,-13.76801 -0.023318,-26.62155 -0.00982,-33.0977 l 0.00982,-4.60283 -0.2935221,-0.55758 c -0.52456,-0.99563 -1.7751864,-2.04705 -2.6101765,-2.19469 -0.44011,-0.0778 -2.16629286,-0.0939 -12.8736331,-0.11835 -1.25756,-0.003 -2.800874,-0.0116 -3.429764,-0.0186 -0.62889,-0.007 -2.382207,-0.0131 -3.895887,-0.0129 -2.81824,4.2e-4 -12.303468,-0.0289 -15.793869,-0.0485 -1.071297,-0.006 -3.529197,-0.0179 -5.462198,-0.0269 -1.932998,-0.009 -5.248725,-0.026 -7.368024,-0.0367 -1.059701,-0.005 -2.285177,-0.007 -3.405479,-0.006 z m -4.049363,0.5085 5.16e-4,5.1e-4 c 2.647,-0.0141 12.939496,0.0446 23.608895,0.13848 2.119699,0.0184 8.023392,0.0648 13.122713,0.10284 5.0991,0.038 11.6716723,0.0873 14.6047922,0.11163 l 5.1914143,0.0424 0.4242636,0.22735 c 0.5732997,0.30676 1.3549326,1.10077 1.5838826,1.56425 l 0.1865519,0.38033 0.011886,4.60592 c 0.009,3.78241 -0.00204,12.616 -0.019637,20.70521 -0.0178,8.08921 -0.043995,15.49413 -0.061495,16.23674 -0.0207,0.88426 -0.039275,7.87691 -0.045475,15.67759 -0.006,8.12718 -0.020024,14.33267 -0.040824,18.55081 -0.0104,2.10908 -0.023307,3.72227 -0.037207,4.82812 -0.007,0.55293 -0.01297,0.97917 -0.02067,1.27537 -0.004,0.14811 -0.009,0.26408 -0.012403,0.34367 -0.004,0.0796 -0.017301,0.15909 -0.0031,0.0822 -0.0654,0.34515 -0.4190058,0.9538 -0.9126058,1.40147 -0.6916195,0.62722 -1.1934714,0.88093 -1.8060913,0.971 -0.2244699,0.033 -0.7269242,0.0666 -1.15083402,0.0796 -0.21196009,0.007 -0.40868653,0.009 -0.54518639,0.006 -0.0600001,-10e-4 -0.10112719,-0.005 -0.12660736,-0.007 -0.005,-0.002 -0.0155027,-0.004 -0.0155027,-0.004 -5.3022e-4,-1.6e-4 -0.0479615,-0.0105 -0.0604615,-0.0124 -0.0248999,-0.004 -0.0346586,-0.005 -0.0449585,-0.006 -0.0205999,-0.002 -0.034743,-5.3e-4 -0.05064284,-0.002 -0.03190002,-0.002 -0.06958568,-0.004 -0.11730566,-0.005 -0.09540002,-0.003 -0.23059919,-0.006 -0.40255931,-0.009 -0.34395012,-0.006 -0.83509562,-0.0117 -1.44125582,-0.0181 -1.2122898,-0.0127 -2.8781493,-0.0255 -4.7066893,-0.0362 -3.6549791,-0.0216 -8.3252691,-0.0541 -10.3730091,-0.0713 -5.82637,-0.0488 -12.056309,-0.0927 -19.007109,-0.13229 -3.515599,-0.02 -9.194917,-0.0549 -12.617318,-0.078 l -6.091616,-0.0403 -0.474908,-0.22789 c -0.545299,-0.26201 -1.269164,-0.93972 -1.660364,-1.59628 l -0.216006,-0.36121 -0.02429,-17.41239 c -0.024,-16.53714 0.03401,-44.23047 0.123507,-58.63775 l 0.04031,-6.30454 0.267684,-0.52917 c 0.458099,-0.90781 1.63349,-1.76157 2.323888,-1.83452 -0.04,0.004 0.04501,-0.002 0.148312,-0.003 0.107001,-0.001 0.257818,-0.002 0.447519,-0.003 z m 3.819922,3.49435 c -1.25921,0.005 -2.179095,0.30359 -3.091802,1.0051 -0.529523,0.40707 -1.252474,1.47278 -1.468643,2.16422 -0.189294,0.60438 -0.220832,1.5196 -0.07597,2.19884 0.316288,1.48307 1.648161,2.85356 3.214275,3.30729 0.523398,0.15161 1.697267,0.1723 2.386417,0.0419 0.674619,-0.12769 1.61785,-0.62584 1.982306,-1.04698 l 0.310576,-0.35812 -0.04961,0.71935 c -0.137456,1.99195 -0.985271,3.51965 -2.21485,3.98839 -0.662779,0.2527 -1.726724,0.21568 -2.353863,-0.0817 -0.663866,-0.31473 -1.28741,-1.05011 -1.624706,-1.9167 -0.01657,-0.0423 -1.639369,0.76102 -1.639176,0.81132 -0.0015,0.14414 0.858679,1.3912 1.219563,1.77199 0.852093,0.89935 1.725202,1.27577 3.110404,1.34205 2.576192,0.12314 4.267036,-1.32017 5.039487,-4.30207 0.174191,-0.67398 0.21716,-1.07514 0.247528,-2.31408 0.04245,-1.73378 -0.05211,-2.55296 -0.42478,-3.66024 -0.482209,-1.43222 -1.132033,-2.34162 -2.141472,-2.99876 -0.751215,-0.48903 -1.424003,-0.67554 -2.425689,-0.67181 z m -0.15658,1.80714 c 0.441706,-0.008 0.88157,0.0552 1.186489,0.19378 0.560464,0.25474 1.130427,0.80817 1.406634,1.36527 0.196813,0.39722 0.231084,0.58261 0.233061,1.11157 -0.0076,0.75856 -0.231069,1.27894 -0.806154,1.84073 -0.573868,0.56047 -1.065816,0.74716 -1.973006,0.75137 -0.663665,0.003 -0.824659,-0.0271 -1.245918,-0.23204 -0.600191,-0.29192 -1.199459,-0.93597 -1.373042,-1.47484 -0.262514,-0.81466 -0.222228,-1.51244 0.12609,-2.17816 0.216067,-0.41304 0.748305,-0.899 1.246437,-1.13792 0.313629,-0.15044 0.757599,-0.23127 1.199409,-0.23976 z m 7.667749,10.75645 -0.04238,0.62632 c -0.02347,0.34441 -0.0395,2.91203 -0.03462,5.70611 0.0059,2.794 -0.0023,7.21331 -0.0155,9.82109 -0.05124,9.86033 -0.06798,15.38912 -0.08268,25.78137 -0.0083,5.89071 -0.02298,10.72129 -0.03411,10.73423 -0.01113,0.013 -0.0057,0.5462 -0.0021,1.18493 l 0.01447,1.16171 0.675926,0.007 c 0.371877,0.004 3.915415,0.0212 7.874455,0.0372 3.958941,0.0158 8.207706,0.0423 9.441801,0.0589 1.234097,0.0164 5.110763,0.0444 8.614978,0.0605 l 6.3717039,0.03 0.00207,-2.02001 c 0.00118,-1.11131 0.010868,-2.36363 0.018087,-2.78278 0.014219,-0.4191 0.022882,-6.24859 0.029972,-12.95427 0.00649,-6.70565 0.026015,-12.6682 0.042375,-13.25033 0.01686,-0.58217 0.037152,-5.87857 0.044441,-11.76933 0.00729,-5.89074 0.024138,-11.03823 0.036174,-11.43908 l 0.022221,-0.72863 -0.9849529,-0.0501 c -0.541851,-0.0274 -2.993739,-0.0438 -5.448246,-0.0357 -2.454504,0.008 -4.511599,-5.2e-4 -4.571814,-0.0191 -0.05982,-0.0186 -3.309596,-0.0444 -7.221264,-0.0574 -3.911667,-0.013 -8.830511,-0.0419 -10.930599,-0.0636 z m 3.891235,0.42013 c 1.911495,2.4e-4 4.14247,0.0116 5.441011,0.0341 1.071065,0.0188 4.51873,0.0435 7.662065,0.0558 9.355005,0.0367 15.4477578,0.0896 15.524116,0.13386 0.039772,0.0229 0.054952,1.57064 0.03514,3.43958 -0.019811,1.86891 -0.039136,7.89337 -0.044442,13.38831 -0.00431,5.49492 -0.021428,11.15306 -0.037724,12.5734 -0.014296,1.42036 -0.035211,7.55473 -0.042375,13.63173 -0.00716,6.07703 -0.03033,11.07956 -0.05271,11.11716 -0.022379,0.0376 -1.131954,0.0514 -2.466516,0.031 -1.334562,-0.0204 -7.208192,-0.0579 -13.052433,-0.0832 -5.844242,-0.0252 -11.692627,-0.0599 -12.996624,-0.077 -1.303993,-0.0171 -2.670894,-0.0318 -3.037022,-0.031 l 5.16e-4,-5.3e-4 -0.665591,5.3e-4 0.01499,-4.3248 c 0.0079,-2.37879 0.0142,-4.33176 0.02429,-4.33977 0.01008,-0.008 0.01851,-4.92914 0.02997,-10.93629 0.01046,-6.00721 0.02901,-11.72258 0.04186,-12.70053 0.0098,-0.97798 0.03135,-6.29243 0.04289,-11.81066 0.01154,-5.51823 0.03555,-10.04967 0.05374,-10.06914 0.02123,-0.0223 1.613255,-0.0329 3.524851,-0.0325 z m 2.657202,3.06956 c -0.136342,-0.006 -0.275169,0.003 -0.414446,0.03 -0.887955,0.16997 -1.550958,1.06402 -1.454692,1.96215 0.05575,0.52178 0.36599,1.1099 0.719336,1.3653 0.330811,0.23905 0.18865,0.31298 -0.269232,0.14004 -0.284734,-0.10742 -0.524857,-0.13287 -0.907439,-0.0967 -0.68829,0.065 -1.130033,0.36814 -1.443323,0.99169 -0.367787,0.73205 -0.299675,1.32929 0.218075,1.91307 0.454662,0.51265 0.761291,0.65804 1.379244,0.65577 0.830773,-0.003 1.456758,-0.42799 1.693436,-1.1498 0.07428,-0.22561 0.156416,-0.41024 0.182417,-0.41032 0.026,-10e-5 0.02686,0.25757 0.0047,0.57206 -0.05486,0.68154 -0.396594,1.81639 -0.736388,2.44999 -0.134736,0.25119 -0.245039,0.46585 -0.244946,0.47643 -3e-6,0.0103 0.55267,0.0172 1.227831,0.0145 0.675256,-0.002 1.217678,-0.0237 1.205611,-0.047 -0.01177,-0.0232 -0.126685,-0.23929 -0.254765,-0.48059 -0.439393,-0.82765 -0.938218,-2.98651 -0.690396,-2.98741 0.047,-1.9e-4 0.10785,0.13491 0.135393,0.29972 0.08112,0.4849 0.364733,0.85124 0.843875,1.08778 0.965949,0.47688 2.103388,0.0945 2.528011,-0.84955 0.638315,-1.41912 -0.809651,-2.93577 -2.344559,-2.45568 -0.230339,0.0721 -0.437883,0.11258 -0.460955,0.0899 -0.02277,-0.0227 0.101095,-0.1806 0.274918,-0.35089 0.406223,-0.39751 0.575051,-0.8006 0.582912,-1.38287 0.0099,-0.98356 -0.817465,-1.79348 -1.771468,-1.83761 z m 19.757967,0.13901 c -0.481505,0.0179 -0.953257,0.23643 -1.314649,0.65112 -0.34227,0.39274 -0.474739,0.8269 -0.416512,1.37099 0.05668,0.52922 0.241331,0.91024 0.597897,1.23351 0.14439,0.13089 0.240173,0.26032 0.21239,0.28834 -0.02828,0.0279 -0.226984,-0.008 -0.442867,-0.0806 -0.543592,-0.18232 -0.949571,-0.16182 -1.444357,0.0728 -0.478609,0.22701 -0.648147,0.39428 -0.882633,0.86868 h -5.17e-4 c -0.10249,0.20717 -0.164983,0.51083 -0.165881,0.80875 -0.0066,0.65527 0.359804,1.20264 1.012341,1.53014 1.021691,0.51274 2.104349,0.0896 2.461348,-0.96171 l 0.158647,-0.46611 0.0052,0.47077 c 0.0064,0.65828 -0.272044,1.69929 -0.659392,2.46703 -0.180509,0.35774 -0.309159,0.66873 -0.286287,0.69143 0.02277,0.0227 0.162203,0.007 0.309542,-0.0362 0.352952,-0.10272 1.275535,-0.10002 1.741496,0.006 0.204243,0.0464 0.385295,0.0695 0.403076,0.0517 0.01818,-0.0179 -0.06209,-0.19955 -0.176734,-0.40413 -0.355163,-0.63137 -0.730098,-1.8697 -0.782898,-2.58535 l -0.04961,-0.66302 0.163814,0.44699 c 0.288292,0.78716 0.884688,1.20139 1.719792,1.19528 0.85381,-0.007 1.54968,-0.52702 1.769401,-1.32291 0.244117,-0.88477 -0.304498,-1.84518 -1.224731,-2.14456 -0.327345,-0.10649 -1.159085,-0.08 -1.578715,0.0501 -0.18599,0.0576 -0.167492,0.0168 0.153479,-0.33641 0.45112,-0.49652 0.604058,-0.85453 0.60203,-1.40817 -0.0046,-0.53263 -0.150711,-0.89355 -0.512113,-1.24283 -0.399831,-0.38647 -0.891022,-0.56872 -1.372526,-0.55086 z m -33.793803,0.8041 c -0.675335,0.02 -1.35533,0.30183 -1.823662,0.8392 -0.399941,0.45906 -0.532653,0.85077 -0.540017,1.56271 -0.0054,0.53274 0.03282,0.71382 0.233058,1.11829 0.132311,0.26786 0.4059,0.6287 0.615469,0.81182 0.207584,0.1814 0.378,0.37238 0.378269,0.42479 -0.0012,0.12031 0.03855,0.12623 -0.553452,-0.0853 -0.941666,-0.33615 -1.877354,-0.19822 -2.65152,0.39069 -0.366101,0.27852 -0.523687,0.51043 -0.70228,1.03248 -0.292286,0.85461 -0.10804,1.73011 0.506944,2.40864 0.509466,0.56255 1.018725,0.78949 1.765784,0.78755 1.2441,-0.004 2.149793,-0.74959 2.370915,-1.95286 0.03916,-0.21452 0.08101,-0.27466 0.146762,-0.20979 0.144561,0.14349 -0.06913,1.59801 -0.368453,2.51354 -0.143312,0.43763 -0.422413,1.12975 -0.620636,1.5384 -0.198324,0.40867 -0.349957,0.75448 -0.335897,0.76843 0.01386,0.0139 0.285364,-0.0206 0.602549,-0.077 0.617337,-0.10985 2.062562,-0.0623 2.442745,0.0806 0.279569,0.10375 0.280199,0.0282 0.0052,-0.50384 -0.593156,-1.15983 -1.00584,-2.5232 -1.121378,-3.70211 -0.04355,-0.44249 -0.03276,-0.61364 0.03824,-0.61391 0.054,-2.1e-4 0.110392,0.0473 0.126606,0.10541 0.242001,0.87561 0.348766,1.11215 0.623736,1.38494 0.961835,0.95514 2.501911,0.94588 3.461288,-0.0207 1.04636,-1.0541 0.908116,-2.79085 -0.284737,-3.57653 -0.919652,-0.60566 -1.781831,-0.67397 -2.84789,-0.22635 -0.266539,0.11192 -0.159126,-0.10737 0.26045,-0.5302 0.988272,-0.99576 1.017728,-2.46563 0.06976,-3.53671 -0.451287,-0.5102 -1.122588,-0.75226 -1.797823,-0.73226 z m 13.945918,12.0804 c -0.455801,1.8e-4 -0.924989,0.17544 -1.311029,0.56377 -0.731946,0.73597 -0.691089,1.91535 0.09147,2.66909 0.186997,0.18023 0.323244,0.34414 0.30334,0.36433 -0.0202,0.0202 -0.187315,-0.0166 -0.372071,-0.0817 -0.50374,-0.17738 -1.192159,-0.15372 -1.621088,0.0558 -0.412451,0.20161 -0.839682,0.67622 -0.949296,1.05474 h 5.16e-4 c -0.315381,1.0896 0.397848,2.21049 1.509469,2.37297 0.835514,0.1221 1.790819,-0.47205 1.923915,-1.19632 0.06985,-0.38256 0.205033,-0.47667 0.206187,-0.14417 0.0024,0.75237 -0.403543,2.15524 -0.841809,2.90473 -0.127712,0.21926 -0.21545,0.41629 -0.19327,0.43823 0.02178,0.0219 0.181351,0.007 0.353467,-0.0336 0.411202,-0.0973 1.326515,-0.0978 1.749764,-0.001 0.185187,0.0421 0.349906,0.0631 0.365868,0.047 0.01616,-0.0161 -0.07441,-0.23246 -0.201019,-0.48006 -0.430552,-0.84172 -0.807316,-2.16461 -0.809771,-2.8448 -0.0062,-0.37534 0.102052,-0.27927 0.250113,0.23204 0.350235,1.21052 2.142498,1.48987 3.029791,0.47181 0.669062,-0.7678 0.56557,-1.85299 -0.242363,-2.5394 -0.564401,-0.47947 -1.173409,-0.59221 -1.862418,-0.34623 -0.199125,0.071 -0.382156,0.10927 -0.407212,0.0847 -0.02475,-0.0245 0.09075,-0.18783 0.256318,-0.36224 0.435631,-0.45813 0.589647,-0.81762 0.58756,-1.37512 -0.0035,-1.04487 -0.765334,-1.75065 -1.62264,-1.84381 -0.06431,-0.007 -0.128672,-0.0109 -0.193788,-0.0108 z m 19.896977,0.13022 c -0.311854,-0.006 -0.625718,0.0623 -0.896069,0.20516 -1.050741,0.55507 -1.253821,2.04343 -0.403593,2.95897 0.184708,0.19891 0.317288,0.37968 0.294556,0.40256 -0.02323,0.0229 -0.204499,-0.0152 -0.40411,-0.0847 -0.947423,-0.33033 -1.937262,0.0539 -2.360063,0.91622 -0.471092,0.96068 0.07644,2.23819 1.076937,2.51201 1.036896,0.28379 1.927723,-0.16092 2.243791,-1.11985 l 0.148311,-0.45061 -0.03721,0.63511 c -0.05062,0.85642 -0.230565,1.52013 -0.631486,2.32492 -0.184233,0.37004 -0.326236,0.67987 -0.315226,0.68884 0.01091,0.009 0.273839,-0.0244 0.583943,-0.0729 0.383224,-0.0601 0.763211,-0.0615 1.185458,-0.004 0.341749,0.0465 0.636275,0.0706 0.65474,0.0543 0.01816,-0.0163 -0.106774,-0.33417 -0.278536,-0.70641 -0.364473,-0.78946 -0.653437,-1.895 -0.652673,-2.49754 l 0.0041,-0.42322 0.15658,0.44701 c 0.182456,0.52192 0.43075,0.81164 0.901753,1.05212 0.431106,0.22016 1.155878,0.22918 1.566313,0.0191 1.594588,-0.81548 1.327781,-2.97768 -0.423747,-3.4308 -0.371851,-0.0962 -0.936235,-0.0488 -1.223181,0.10334 -0.312584,0.16576 -0.332876,0.009 -0.03411,-0.26458 0.479448,-0.43958 0.674816,-0.92438 0.631486,-1.56734 -0.04526,-0.66995 -0.324885,-1.12437 -0.898653,-1.4583 -0.263172,-0.15322 -0.573879,-0.23273 -0.885734,-0.23876 z m -9.982336,6.44147 c -0.66798,-0.001 -1.313415,0.37108 -1.625224,1.04746 -0.351079,0.76121 -0.217048,1.50217 0.397392,2.19678 0.15267,0.17259 0.258905,0.33211 0.236678,0.35449 -0.02223,0.0225 -0.178361,-0.0164 -0.347266,-0.0863 -0.941728,-0.38939 -2.145855,0.11539 -2.470133,1.03558 -0.431756,1.22547 0.415817,2.42977 1.705839,2.42414 0.85128,-0.004 1.477887,-0.45416 1.727026,-1.24177 0.151015,-0.47765 0.202355,-0.3846 0.139527,0.25373 -0.0613,0.62561 -0.425209,1.81118 -0.758611,2.47529 -0.116645,0.23235 -0.2119,0.43653 -0.211873,0.45373 1.28e-4,0.0171 0.390925,0.0126 0.868164,-0.008 0.477242,-0.0217 1.029261,-0.002 1.227315,0.0429 0.198055,0.0452 0.360266,0.0723 0.360185,0.0605 -8.1e-5,-0.0118 -0.154964,-0.35412 -0.344682,-0.76068 -0.397739,-0.85257 -0.683505,-1.92987 -0.67386,-2.5404 l 0.0041,-0.42322 0.130224,0.42269 c 0.182243,0.59296 0.384114,0.83995 0.891419,1.09038 0.954804,0.47141 2.062637,0.10401 2.511991,-0.83302 0.431888,-0.90082 0.0096,-1.94172 -0.971517,-2.39416 -0.483481,-0.22294 -0.949517,-0.24506 -1.440222,-0.0682 -0.184277,0.0663 -0.352573,0.1026 -0.374654,0.0806 -0.02178,-0.0219 0.09768,-0.18219 0.26665,-0.35655 0.777617,-0.80264 0.735693,-2.12772 -0.08837,-2.80191 -0.349143,-0.28562 -0.757518,-0.42193 -1.158069,-0.42373 z m -8.691459,6.50243 -1.244367,0.005 -1.245405,0.004 0.280604,0.55346 c 0.363694,0.71794 0.625237,1.65303 0.685229,2.44895 l 0.04754,0.63458 -0.164331,-0.44958 c -0.293645,-0.8019 -0.980273,-1.28161 -1.829345,-1.27847 -0.672457,0.002 -1.387255,0.53319 -1.630391,1.21129 l 5.16e-4,5.3e-4 c -0.240565,0.67096 -0.06382,1.38642 0.469222,1.90169 0.520661,0.5034 1.212583,0.6536 1.995745,0.43305 0.178718,-0.0506 0.341595,-0.0758 0.360701,-0.0563 0.01981,0.0194 -0.09906,0.17899 -0.263033,0.35449 -0.530021,0.56573 -0.70109,1.21589 -0.498163,1.88981 0.25305,0.841 0.860769,1.28347 1.763718,1.28312 1.642483,1.4e-4 2.43165,-1.88521 1.299662,-3.10419 -0.190346,-0.20495 -0.329517,-0.3891 -0.308509,-0.40979 0.02021,-0.0207 0.222234,0.0169 0.449069,0.0842 0.519176,0.1539 0.672809,0.1525 1.220597,-0.0124 1.002588,-0.30178 1.543805,-1.43727 1.141016,-2.39418 -0.342139,-0.81262 -1.208284,-1.28564 -2.033985,-1.11104 -0.767371,0.16229 -1.235083,0.5946 -1.357024,1.25367 -0.02753,0.15145 -0.0858,0.27527 -0.126605,0.27543 -0.277726,0.001 0.246771,-2.13164 0.760677,-3.09335 z m 19.819462,0.091 c -0.01684,-0.0164 -0.299581,0.0113 -0.628902,0.0615 -0.420569,0.0643 -0.771126,0.0648 -1.178223,0.003 -0.318733,-0.048 -0.593327,-0.0734 -0.610299,-0.0563 h -5.17e-4 c -0.01717,0.0171 0.06759,0.22434 0.188619,0.46043 0.12083,0.23609 0.298215,0.62646 0.394292,0.86765 0.212837,0.53395 0.466106,2.09674 0.3576,2.20607 -0.04547,0.0461 -0.09851,-0.0552 -0.130224,-0.25218 -0.178629,-1.09093 -1.601127,-1.68769 -2.606559,-1.09347 -0.347284,0.20532 -0.745103,0.66707 -0.86248,1.00201 -0.09266,0.26389 -0.04941,0.94853 0.07855,1.25108 0.374586,0.8876 1.389301,1.3399 2.356962,1.05058 0.225589,-0.0673 0.428461,-0.10411 0.451135,-0.0817 0.02277,0.0225 -0.112111,0.19545 -0.299723,0.38447 -1.175276,1.18401 -0.375688,3.17801 1.271757,3.1719 0.79067,-0.003 1.49584,-0.51006 1.738395,-1.24952 0.228524,-0.6967 0.03989,-1.37713 -0.543119,-1.95546 -0.168227,-0.16703 -0.286585,-0.32242 -0.26355,-0.3457 0.02323,-0.0232 0.224127,0.0192 0.446484,0.0941 0.741925,0.24974 1.614952,0.003 2.145606,-0.60619 0.976123,-1.12014 0.09757,-2.9269 -1.420068,-2.92126 -0.779669,0.003 -1.543029,0.50329 -1.666565,1.09244 -0.119646,0.5703 -0.205973,0.54975 -0.170532,-0.0403 0.0385,-0.64527 0.392102,-1.8405 0.76326,-2.57969 0.119707,-0.23852 0.20444,-0.4468 0.188103,-0.46302 z m 11.0127638,9.08264 c -0.013134,0.0133 0.1639906,0.40439 0.3922239,0.86921 0.2282333,0.46482 0.51211,1.18076 0.6314861,1.5911 0.2694836,0.927 0.4468706,2.23787 0.3198772,2.36575 -0.062636,0.0629 -0.099452,0.0535 -0.1235067,-0.0305 -0.3693787,-1.27574 -0.5537687,-1.54184 -1.317749,-1.90532 -1.2787417,-0.60836 -2.8832803,0.007 -3.3496663,1.28521 -0.1980731,0.5428 -0.1246427,1.51157 0.1565795,2.05724 0.5148705,0.99907 1.7192519,1.44063 3.0173869,1.10586 0.3449136,-0.089 0.6464362,-0.14351 0.6692097,-0.12092 0.022773,0.0226 -0.1307476,0.20479 -0.3410643,0.40413 -0.6236804,0.59102 -0.7812834,0.98099 -0.7777304,1.92958 0.00276,0.71924 0.026754,0.84502 0.2294434,1.18493 0.83377,1.39819 2.6035409,1.68704 3.78426521,0.61754 1.0868644,-0.98457 1.06060319,-2.56381 -0.0625287,-3.69898 -0.2169033,-0.21934 -0.37696272,-0.41569 -0.35605058,-0.43667 0.0212122,-0.021 0.2663309,0.0387 0.54570312,0.13229 0.62631928,0.2099 1.50327565,0.17545 2.07739265,-0.0816 0.462508,-0.20714 0.9424281,-0.69583 1.1952758,-1.21594 0.2310995,-0.4757 0.2438392,-1.40023 0.029455,-1.88982 -0.1933479,-0.43338 -0.7743988,-1.04534 -1.1926919,-1.25677 -0.4116271,-0.20804 -1.23699683,-0.28368 -1.70170491,-0.15607 -0.84548026,0.23225 -1.47074949,0.86881 -1.66346429,1.69396 -0.2281383,0.97634 -0.315899,0.26006 -0.1131715,-0.92397 0.1601268,-0.93581 0.3930737,-1.63815 0.86816406,-2.61845 0.21487156,-0.44318 0.40210369,-0.83037 0.4165121,-0.86093 0.0143079,-0.0306 -0.13778177,-0.0174 -0.33796393,0.0295 -0.50070573,0.11729 -2.05264753,0.11845 -2.55539953,0.002 -0.2275803,-0.0528 -0.4245494,-0.085 -0.4371827,-0.0718 z m -30.9298948,3.8499 c -0.106277,2.7e-4 -0.331803,0.0243 -0.580842,0.0641 -0.441531,0.0703 -0.766665,0.0711 -1.208712,0.005 -0.33261,-0.0503 -0.617717,-0.0778 -0.634587,-0.061 l -5.16e-4,-5.3e-4 c -0.01717,0.0168 0.08575,0.24222 0.226859,0.50075 0.462211,0.84584 0.830358,2.22091 0.754475,2.81482 -0.03146,0.2441 -0.03747,0.23913 -0.145211,-0.12507 -0.162671,-0.55007 -0.69455,-1.04619 -1.265039,-1.17925 -0.90143,-0.21026 -1.702213,0.14669 -2.101681,0.93639 -0.358246,0.70837 -0.216236,1.44886 0.389126,2.03192 0.593574,0.57174 1.336288,0.73305 2.047419,0.44543 0.188879,-0.0764 0.360241,-0.1215 0.380339,-0.10129 0.0198,0.0202 -0.127156,0.21096 -0.327112,0.42426 -0.429329,0.45784 -0.596488,0.9651 -0.538986,1.63092 0.08418,0.97573 0.899655,1.62809 1.9358,1.54927 1.579388,-0.12015 2.253893,-2.04362 1.113626,-3.17553 -0.341304,-0.33901 -0.310181,-0.44349 0.0894,-0.30075 0.501222,0.17912 1.171755,0.12303 1.671734,-0.14055 0.364652,-0.19219 0.495319,-0.32388 0.684712,-0.6899 0.370113,-0.7148 0.279952,-1.45918 -0.245463,-2.03655 -0.394657,-0.43349 -0.7632,-0.59283 -1.361675,-0.58859 -0.873709,0.007 -1.441526,0.39812 -1.648478,1.13739 -0.164428,0.58809 -0.264435,0.5724 -0.207738,-0.0331 0.0819,-0.88403 0.533699,-2.29312 0.902269,-2.81483 0.09536,-0.13488 0.155308,-0.26334 0.133326,-0.28524 -0.0054,-0.005 -0.02762,-0.008 -0.06305,-0.008 z m 19.845817,0.0972 c -0.04968,-9.8e-4 -0.146783,0.0159 -0.24908,0.0449 -0.369572,0.10467 -1.206817,0.1184 -1.687236,0.0284 -0.232973,-0.0436 -0.436182,-0.0669 -0.451135,-0.0517 -0.01515,0.0152 0.129178,0.35251 0.320394,0.7493 0.191216,0.39683 0.402155,0.96126 0.468705,1.25471 0.13722,0.60479 0.223268,1.50659 0.143661,1.50688 -0.029,1.1e-4 -0.101182,-0.17692 -0.160197,-0.39428 -0.141751,-0.52226 -0.564081,-0.91472 -1.173055,-1.08934 -0.549043,-0.1574 -0.935618,-0.10848 -1.432471,0.18243 -0.308835,0.18071 -0.692558,0.63418 -0.826306,0.97615 -0.02671,0.0699 -0.03506,0.3696 -0.01705,0.66612 0.02672,0.42486 0.08616,0.61216 0.278536,0.88418 0.477047,0.67339 1.511031,0.99436 2.288232,0.71004 0.381624,-0.13957 0.442051,-0.0369 0.132292,0.22582 -0.434832,0.36862 -0.631002,0.8899 -0.590145,1.56993 0.02914,0.48273 0.08056,0.64876 0.291972,0.94724 0.3674,0.51853 0.803538,0.73887 1.460376,0.73845 1.129469,-0.001 1.960411,-0.86604 1.847432,-1.92186 -0.05482,-0.51543 -0.217332,-0.85164 -0.628902,-1.30378 -0.339662,-0.37315 -0.326626,-0.38288 0.267684,-0.20207 1.31474,0.40005 2.650799,-0.67318 2.45153,-1.96887 -0.06849,-0.44839 -0.479583,-1.07291 -0.858863,-1.30534 -0.355922,-0.2181 -1.065324,-0.29758 -1.526521,-0.17106 -0.481253,0.13198 -0.939206,0.56677 -1.131714,1.07334 l -0.161231,0.42373 -0.0057,-0.386 c -0.0074,-0.55933 0.287092,-1.62499 0.675411,-2.43965 0.185527,-0.38923 0.322594,-0.72249 0.304374,-0.74054 l 0.0015,-5e-4 c -0.0045,-0.005 -0.016,-0.006 -0.03256,-0.007 z m 12.8756996,11.07942 c -2.006501,-0.011 -3.3716337,0.89932 -4.3046467,2.87113 -0.281911,0.59582 -0.6064086,1.7811 -0.6960816,2.54302 -0.084174,0.71233 -0.028958,2.91565 0.084233,3.66231 0.1672799,1.06595 0.3038988,1.4919 0.7482747,2.33111 1.2546171,2.36932 3.9025259,3.23728 6.29625655,2.06396 0.8206904,-0.40227 1.35511715,-0.85675 1.80040675,-1.52911 0.4891574,-0.73848 0.7200751,-1.49754 0.7208863,-2.37299 0.00143,-1.23486 -0.4113987,-2.24216 -1.2671062,-3.09023 -0.95828928,-0.94977 -2.3884273,-1.46611 -3.6964151,-1.33482 -1.1531232,0.11573 -1.989783,0.4659 -2.6473836,1.10847 l -0.4035929,0.39481 0.053744,-0.57827 c 0.075089,-0.8033 0.3915164,-2.03475 0.6676595,-2.60398 0.3409933,-0.70305 0.7278188,-1.11072 1.3451375,-1.41748 0.4814324,-0.23926 0.6279346,-0.27101 1.2443685,-0.2713 1.26767061,-6.4e-4 2.15183269,0.53073 2.74091795,1.64796 0.13856202,0.26281 0.27483805,0.47812 0.30334055,0.47802 0.1529125,-4.8e-4 1.5118384,-0.70522 1.5115357,-0.78446 0.00258,-0.25623 -0.6937277,-1.27609 -1.2273153,-1.80661 -0.93814021,-0.93263 -1.86401201,-1.3036 -3.273702,-1.31154 z m -0.1219563,6.88227 c 0.1054868,-0.004 0.2120932,-0.004 0.3183266,5.3e-4 0.4249335,0.0187 0.8427082,0.10779 1.14566676,0.26249 0.96588288,0.49342 1.51487715,1.35808 1.51877023,2.39212 0.00257,0.73782 -0.22069372,1.26566 -0.76067707,1.79782 -0.45604642,0.44942 -0.85354821,0.65738 -1.50740162,0.78857 -1.2186219,0.24444 -2.5134128,-0.38016 -3.0530435,-1.47278 -0.6888958,-1.39486 -0.019502,-3.04131 1.4665772,-3.60804 0.2495203,-0.0952 0.555321,-0.14807 0.8717814,-0.16071 z" />
  </g>
</svg>
