<?xml version="1.0" encoding="UTF-8" standalone="no"?>
<svg
   sodipodi:docname="9H.svg"
   id="svg8"
   version="1.1"
   viewBox="0 0 63.102592 88.348335"
   height="88.348335mm"
   width="63.102592mm"
   inkscape:version="1.1.1 (1:1.1+202109281949+c3084ef5ed)"
   inkscape:export-filename="/home/doug/k40/52Cards/9H.png"
   inkscape:export-xdpi="96"
   inkscape:export-ydpi="96"
   xmlns:inkscape="http://www.inkscape.org/namespaces/inkscape"
   xmlns:sodipodi="http://sodipodi.sourceforge.net/DTD/sodipodi-0.dtd"
   xmlns="http://www.w3.org/2000/svg"
   xmlns:svg="http://www.w3.org/2000/svg"
   xmlns:rdf="http://www.w3.org/1999/02/22-rdf-syntax-ns#"
   xmlns:cc="http://creativecommons.org/ns#"
   xmlns:dc="http://purl.org/dc/elements/1.1/">
  <defs
     id="defs2">
    <marker
       style="overflow:visible"
       id="marker2995"
       refX="0"
       refY="0"
       orient="auto"
       inkscape:stockid="Arrow1Lstart"
       inkscape:isstock="true">
      <path
         transform="matrix(0.8,0,0,0.8,10,0)"
         style="fill:#000000;fill-opacity:1;fill-rule:evenodd;stroke:#000000;stroke-width:1pt;stroke-opacity:1"
         d="M 0,0 5,-5 -12.5,0 5,5 Z"
         id="path2993" />
    </marker>
    <marker
       style="overflow:visible"
       id="marker2985"
       refX="0"
       refY="0"
       orient="auto"
       inkscape:stockid="Arrow1Lstart"
       inkscape:isstock="true">
      <path
         transform="matrix(0.8,0,0,0.8,10,0)"
         style="fill:#000000;fill-opacity:1;fill-rule:evenodd;stroke:#000000;stroke-width:1pt;stroke-opacity:1"
         d="M 0,0 5,-5 -12.5,0 5,5 Z"
         id="path2983" />
    </marker>
    <marker
       style="overflow:visible"
       id="marker2791"
       refX="0"
       refY="0"
       orient="auto"
       inkscape:stockid="Arrow1Lstart"
       inkscape:isstock="true">
      <path
         transform="matrix(0.8,0,0,0.8,10,0)"
         style="fill:#000000;fill-opacity:1;fill-rule:evenodd;stroke:#000000;stroke-width:1pt;stroke-opacity:1"
         d="M 0,0 5,-5 -12.5,0 5,5 Z"
         id="path2789" />
    </marker>
    <marker
       style="overflow:visible"
       id="marker2781"
       refX="0"
       refY="0"
       orient="auto"
       inkscape:stockid="Arrow1Lstart"
       inkscape:isstock="true">
      <path
         transform="matrix(0.8,0,0,0.8,10,0)"
         style="fill:#000000;fill-opacity:1;fill-rule:evenodd;stroke:#000000;stroke-width:1pt;stroke-opacity:1"
         d="M 0,0 5,-5 -12.5,0 5,5 Z"
         id="path2779" />
    </marker>
    <marker
       style="overflow:visible"
       id="marker2417"
       refX="0"
       refY="0"
       orient="auto"
       inkscape:stockid="Arrow1Lstart"
       inkscape:isstock="true">
      <path
         transform="matrix(0.8,0,0,0.8,10,0)"
         style="fill:#000000;fill-opacity:1;fill-rule:evenodd;stroke:#000000;stroke-width:1pt;stroke-opacity:1"
         d="M 0,0 5,-5 -12.5,0 5,5 Z"
         id="path2415" />
    </marker>
    <marker
       style="overflow:visible"
       id="marker2383"
       refX="0"
       refY="0"
       orient="auto"
       inkscape:stockid="Arrow1Lstart"
       inkscape:isstock="true">
      <path
         transform="matrix(0.8,0,0,0.8,10,0)"
         style="fill:#000000;fill-opacity:1;fill-rule:evenodd;stroke:#000000;stroke-width:1pt;stroke-opacity:1"
         d="M 0,0 5,-5 -12.5,0 5,5 Z"
         id="path2381" />
    </marker>
    <marker
       style="overflow:visible"
       id="marker2355"
       refX="0"
       refY="0"
       orient="auto"
       inkscape:stockid="Arrow1Lstart"
       inkscape:isstock="true">
      <path
         transform="matrix(0.8,0,0,0.8,10,0)"
         style="fill:#000000;fill-opacity:1;fill-rule:evenodd;stroke:#000000;stroke-width:1pt;stroke-opacity:1"
         d="M 0,0 5,-5 -12.5,0 5,5 Z"
         id="path2353" />
    </marker>
    <marker
       style="overflow:visible"
       id="Arrow1Lstart"
       refX="0"
       refY="0"
       orient="auto"
       inkscape:stockid="Arrow1Lstart"
       inkscape:isstock="true">
      <path
         transform="matrix(0.8,0,0,0.8,10,0)"
         style="fill:#000000;fill-opacity:1;fill-rule:evenodd;stroke:#000000;stroke-width:1pt;stroke-opacity:1"
         d="M 0,0 5,-5 -12.5,0 5,5 Z"
         id="path2071" />
    </marker>
  </defs>
  <sodipodi:namedview
     id="base"
     pagecolor="#ffffff"
     bordercolor="#666666"
     borderopacity="1.0"
     inkscape:pageopacity="0.0"
     inkscape:pageshadow="2"
     inkscape:zoom="1.5033768"
     inkscape:cx="85.474247"
     inkscape:cy="166.62489"
     inkscape:document-units="mm"
     inkscape:current-layer="layer1"
     inkscape:document-rotation="0"
     showgrid="false"
     inkscape:snap-smooth-nodes="false"
     inkscape:object-nodes="false"
     inkscape:window-width="1366"
     inkscape:window-height="712"
     inkscape:window-x="0"
     inkscape:window-y="0"
     inkscape:window-maximized="1"
     inkscape:object-paths="false"
     inkscape:snap-intersection-paths="false"
     inkscape:snap-midpoints="false"
     inkscape:snap-others="false"
     inkscape:pagecheckerboard="0"
     showguides="true"
     inkscape:guide-bbox="true"
     inkscape:snap-bbox="true"
     showborder="false"
     fit-margin-top="0"
     fit-margin-left="0"
     fit-margin-right="0"
     fit-margin-bottom="0" />
  <metadata
     id="metadata5">
    <rdf:RDF>
      <cc:Work
         rdf:about="">
        <dc:format>image/svg+xml</dc:format>
        <dc:type
           rdf:resource="http://purl.org/dc/dcmitype/StillImage" />
      </cc:Work>
    </rdf:RDF>
  </metadata>
  <g
     inkscape:label="Layer 1"
     inkscape:groupmode="layer"
     id="layer1"
     transform="translate(57.794062,353.44936)">
    <path
       id="path3038-1-4"
       style="fill:#000000;fill-opacity:1;stroke:none;stroke-width:0.265;stroke-miterlimit:4;stroke-dasharray:none;stroke-opacity:1"
       d="m -16.636862,-295.96296 0.37618,-0.20515 c 0.21945,-0.1195 0.4962,-0.37638 0.66355,-0.6165 l 0.28678,-0.41186 0.0879,0.13797 c 0.4768,0.75048 0.79338,0.9898 1.40094,1.05834 0.0931,0.0105 0.18574,0.0134 0.27646,0.009 v -5.2e-4 c 0.63516,-0.0307 1.20124,-0.4188 1.52498,-1.06298 0.2272,-0.45214 0.20376,-1.22294 -0.0641,-2.11564 -0.22889,-0.763 -1.34165,-2.94154 -2.40504,-4.70875 -0.39383,-0.65475 -0.76959,-1.18953 -0.83454,-1.18804 -0.065,0.001 -0.16084,0.0898 -0.21344,0.19585 -0.0527,0.106 -0.51888,0.90594 -1.03611,1.77767 -1.55199,2.61576 -2.20573,4.18297 -2.18178,5.23069 0.0246,1.07627 0.6681,1.7743 1.72082,1.86552 z m 2.642639,-21.72529 -0.37618,0.20515 c -0.21945,0.1195 -0.4962,0.37638 -0.66355,0.6165 l -0.28678,0.41186 -0.0879,-0.13797 c -0.4768,-0.75048 -0.79338,-0.9898 -1.40094,-1.05834 -0.0931,-0.0105 -0.18574,-0.0134 -0.27646,-0.009 v 5.2e-4 c -0.63516,0.0307 -1.20124,0.4188 -1.52498,1.06298 -0.2272,0.45214 -0.20376,1.22294 0.0641,2.11564 0.22889,0.763 1.34165,2.94154 2.40504,4.70875 0.39383,0.65475 0.76959,1.18953 0.83454,1.18804 0.065,-0.001 0.16084,-0.0898 0.21344,-0.19585 0.0527,-0.106 0.51888,-0.90594 1.03611,-1.77767 1.55199,-2.61576 2.20573,-4.18297 2.18178,-5.23069 -0.0246,-1.07627 -0.6681,-1.7743 -1.72082,-1.86552 z m -2.601204,34.46434 0.37618,-0.20515 c 0.21945,-0.1195 0.4962,-0.37638 0.66355,-0.6165 l 0.28678,-0.41186 0.0879,0.13797 c 0.4768,0.75048 0.79338,0.9898 1.40094,1.05834 0.0931,0.0105 0.18574,0.0134 0.27646,0.009 v -5.2e-4 c 0.63516,-0.0307 1.20124,-0.4188 1.52498,-1.06298 0.2272,-0.45214 0.20376,-1.22294 -0.0641,-2.11564 -0.22889,-0.763 -1.34165,-2.94154 -2.40504,-4.70875 -0.39383,-0.65475 -0.76959,-1.18953 -0.83454,-1.18804 -0.065,10e-4 -0.16084,0.0898 -0.21344,0.19585 -0.0527,0.106 -0.51888,0.90594 -1.03611,1.77767 -1.55199,2.61576 -2.20573,4.18297 -2.18178,5.23069 0.0246,1.07627 0.6681,1.7743 1.72082,1.86552 z m 2.602227,-47.12615 -0.37618,0.20515 c -0.21945,0.1195 -0.4962,0.37638 -0.66355,0.6165 l -0.28678,0.41186 -0.0879,-0.13797 c -0.4768,-0.75048 -0.79338,-0.9898 -1.40094,-1.05834 -0.0931,-0.0105 -0.18574,-0.0134 -0.27646,-0.009 v 5.2e-4 c -0.63516,0.0307 -1.20124,0.4188 -1.52498,1.06298 -0.2272,0.45214 -0.20376,1.22294 0.0641,2.11564 0.22889,0.763 1.34165,2.94154 2.40504,4.70875 0.39383,0.65475 0.76959,1.18953 0.83454,1.18804 0.065,-0.001 0.16084,-0.0898 0.21344,-0.19585 0.0527,-0.106 0.51888,-0.90594 1.03611,-1.77767 1.55199,-2.61576 2.20573,-4.18297 2.18178,-5.23069 -0.0246,-1.07627 -0.6681,-1.7743 -1.72082,-1.86552 z m -10.917709,19.00663 -0.37618,0.20515 c -0.21945,0.1195 -0.4962,0.37638 -0.66355,0.6165 l -0.28678,0.41186 -0.0879,-0.13797 c -0.4768,-0.75048 -0.79338,-0.9898 -1.40094,-1.05834 -0.0931,-0.0105 -0.18574,-0.0134 -0.27646,-0.009 v 5.2e-4 c -0.63516,0.0307 -1.20124,0.4188 -1.52498,1.06298 -0.2272,0.45214 -0.20376,1.22294 0.0641,2.11564 0.22889,0.763 1.34165,2.94154 2.40504,4.70875 0.39383,0.65475 0.76959,1.18953 0.83454,1.18804 0.065,-10e-4 0.16084,-0.0898 0.21344,-0.19585 0.0527,-0.106 0.51888,-0.90594 1.03611,-1.77767 1.55199,-2.61576 2.20573,-4.18297 2.18178,-5.23069 -0.0246,-1.07627 -0.6681,-1.7743 -1.72082,-1.86552 z m -13.549654,28.1771 0.37618,-0.20515 c 0.21945,-0.1195 0.4962,-0.37638 0.66355,-0.6165 l 0.28678,-0.41186 0.0879,0.13797 c 0.4768,0.75048 0.79338,0.9898 1.40094,1.05834 0.0931,0.0105 0.18574,0.0134 0.27646,0.009 v -5.2e-4 c 0.63516,-0.0307 1.20124,-0.4188 1.52498,-1.06298 0.2272,-0.45214 0.20376,-1.22294 -0.0641,-2.11564 -0.22889,-0.763 -1.34165,-2.94154 -2.40504,-4.70875 -0.39383,-0.65475 -0.76959,-1.18953 -0.83454,-1.18804 -0.065,0.001 -0.16084,0.0898 -0.21344,0.19585 -0.0527,0.106 -0.51888,0.90594 -1.03611,1.77767 -1.55199,2.61576 -2.20573,4.18297 -2.18178,5.23069 0.0246,1.07627 0.6681,1.7743 1.72082,1.86552 z m -0.01554,-12.78038 0.37618,-0.20515 c 0.21945,-0.1195 0.4962,-0.37638 0.66355,-0.6165 l 0.28678,-0.41186 0.0879,0.13797 c 0.4768,0.75048 0.79338,0.9898 1.40094,1.05834 0.0931,0.0105 0.18574,0.0134 0.27646,0.009 v -5.2e-4 c 0.63516,-0.0307 1.20124,-0.4188 1.52498,-1.06298 0.2272,-0.45214 0.20376,-1.22294 -0.0641,-2.11564 -0.22889,-0.763 -1.34165,-2.94154 -2.40504,-4.70875 -0.39383,-0.65475 -0.76959,-1.18953 -0.83454,-1.18804 -0.065,10e-4 -0.16084,0.0898 -0.21344,0.19585 -0.0527,0.106 -0.51888,0.90594 -1.03611,1.77767 -1.55199,2.61576 -2.20573,4.18297 -2.18178,5.23069 0.0246,1.07627 0.6681,1.7743 1.72082,1.86552 z m 2.608882,-21.76704 -0.37618,0.20515 c -0.21945,0.1195 -0.4962,0.37638 -0.66355,0.6165 l -0.28678,0.41186 -0.0879,-0.13797 c -0.4768,-0.75048 -0.79338,-0.9898 -1.40094,-1.05834 -0.0931,-0.0105 -0.18574,-0.0134 -0.27646,-0.009 v 5.2e-4 c -0.63516,0.0307 -1.20124,0.4188 -1.52498,1.06298 -0.2272,0.45214 -0.20376,1.22294 0.0641,2.11564 0.22889,0.763 1.34165,2.94154 2.40504,4.70875 0.39383,0.65475 0.76959,1.18953 0.83454,1.18804 0.065,-10e-4 0.16084,-0.0898 0.21344,-0.19585 0.0527,-0.106 0.51888,-0.90594 1.03611,-1.77767 1.55199,-2.61576 2.20573,-4.18297 2.18178,-5.23069 -0.0246,-1.07627 -0.6681,-1.7743 -1.72082,-1.86552 z m -0.0075,-12.65569 -0.37618,0.20515 c -0.21945,0.1195 -0.4962,0.37638 -0.66355,0.6165 l -0.28678,0.41186 -0.0879,-0.13797 c -0.4768,-0.75048 -0.79338,-0.9898 -1.40094,-1.05834 -0.0931,-0.0105 -0.18574,-0.0134 -0.27646,-0.009 v 5.2e-4 c -0.63516,0.0307 -1.20124,0.4188 -1.52498,1.06298 -0.2272,0.45214 -0.20376,1.22294 0.0641,2.11564 0.22889,0.763 1.34165,2.94154 2.40504,4.70875 0.39383,0.65475 0.76959,1.18953 0.83454,1.18804 0.065,-10e-4 0.16084,-0.0898 0.21344,-0.19585 0.0527,-0.106 0.51888,-0.90594 1.03611,-1.77767 1.55199,-2.61576 2.20573,-4.18297 2.18178,-5.23069 -0.0246,-1.07627 -0.6681,-1.7743 -1.72082,-1.86552 z m 35.5077224,45.64245 0.57568,-0.0165 0.45267,-0.23461 c 1.12332,-0.58175 1.52702,-1.90228 1.07746,-3.5233 -0.33263,-1.1994 -1.01044,-2.65399 -2.17662,-4.67 -0.56226,-0.97205 -1.85176,-3.13109 -2.05671,-3.44372 -0.0667,-0.10161 -0.16835,-0.16472 -0.22582,-0.14004 -0.1724,0.074 -2.53489,4.08215 -3.28197,5.56813 -0.67355,1.33967 -1.12144,2.6256 -1.22785,3.52434 -0.20193,1.70575 0.81251,2.96702 2.35955,2.93367 l 0.55915,-0.0119 0.44907,-0.25321 c 0.30941,-0.17452 0.53189,-0.38409 0.71417,-0.67283 0.14552,-0.23059 0.31623,-0.49627 0.3793,-0.59014 l 0.11473,-0.17053 0.19531,0.42684 c 0.39457,0.8624 1.11406,1.30117 2.09188,1.27383 z m -51.7582004,-44.14868 -0.57568,0.0165 -0.45267,0.23461 c -1.12332,0.58175 -1.52702,1.90228 -1.07746,3.5233 0.33263,1.1994 1.01044,2.65399 2.17662,4.67 0.56226,0.97205 1.85176,3.13109 2.05671,3.44372 0.0667,0.10161 0.16835,0.16472 0.22582,0.14004 0.1724,-0.074 2.53489,-4.08215 3.28197,-5.56813 0.67355,-1.33967 1.12144,-2.6256 1.22785,-3.52434 0.20193,-1.70575 -0.81251,-2.96702 -2.35955,-2.93367 l -0.55915,0.0119 -0.44907,0.25321 c -0.30941,0.17452 -0.53189,0.38409 -0.71417,0.67283 -0.14552,0.23059 -0.31623,0.49627 -0.3793,0.59014 l -0.11473,0.17053 -0.19531,-0.42684 c -0.39457,-0.8624 -1.11406,-1.30117 -2.09188,-1.27383 z m 2.241705,-24.57311 v 5e-4 c -1.12038,0.001 -2.1358,0.005 -2.77606,0.0124 l -2.32854,0.0258 -0.57774,0.29612 c -0.742239,0.37984 -1.689079,1.3326 -1.982819,1.99523 l -0.20774,0.46921 -0.009,4.57285 c -0.005,2.5151 -0.0137,5.35429 -0.0207,6.30917 -0.007,0.95491 -0.0104,3.88914 -0.006,6.52055 0.003,2.63139 0.005,5.88918 0.004,7.23987 -10e-4,1.35067 0.002,6.68594 0.008,11.85561 0.006,5.16967 0.009,10.48581 0.007,11.81322 -0.002,1.32742 0.003,4.87109 0.0129,7.87498 0.0185,5.89952 0.0194,6.55408 0.032,17.75188 0.005,4.10522 0.0121,7.74898 0.0139,8.09667 l 10e-4,0.63198 0.19379,0.36796 c 0.32674,0.62013 0.79769,1.1557 1.38183,1.572 0.993489,0.7077 1.033379,0.71371 4.924759,0.71466 1.32734,3.2e-4 3.09977,0.007 3.93826,0.014 2.48913,0.0218 5.15818,0.0307 9.82318,0.031 2.421868,1.9e-4 4.975229,0.0104 5.674068,0.0233 0.69887,0.0129 3.156731,0.0254 5.462201,0.0284 2.3055,0.003 5.697614,0.0141 7.537524,0.0258 1.83991,0.0117 5.956088,0.0336 9.1467274,0.0491 3.190629,0.0154 7.01998,0.0374 8.510593,0.0486 3.074379,0.023 3.482371,-0.001 3.990453,-0.2372 h 0.0036 c 1.012169,-0.47016 2.154934,-1.68206 2.345592,-2.48769 0.0404,-0.17103 0.07765,-2.38741 0.08165,-4.9258 0.0142,-8.09744 0.0079,-17.79328 -0.01395,-21.67879 -0.0116,-2.07233 -0.02284,-5.92053 -0.02584,-8.55192 -0.002,-2.63141 -0.008,-7.01389 -0.0124,-9.73844 -0.02,-13.76801 -0.02332,-26.62158 -0.0098,-33.09771 l 0.0098,-4.60282 -0.29352,-0.55758 c -0.524561,-0.99566 -1.775188,-2.04708 -2.610179,-2.19472 -0.44011,-0.0778 -2.166291,-0.0939 -12.8736314,-0.11832 -1.257559,-0.003 -2.800874,-0.0116 -3.429765,-0.0186 -0.628891,-0.007 -2.382205,-0.0131 -3.895886,-0.0129 -2.818239,4e-4 -12.303437,-0.0289 -15.793868,-0.0486 -1.07133,-0.006 -3.529179,-0.0184 -5.462199,-0.0274 -1.93299,-0.009 -5.24866,-0.026 -7.36802,-0.0367 -1.05968,-0.005 -2.28513,-0.007 -3.40548,-0.006 z m -4.02714,0.52295 5.1e-4,5.3e-4 c 2.64702,-0.0141 12.9395,0.0446 23.608898,0.13848 2.119691,0.0184 8.023344,0.0648 13.122714,0.10284 5.099101,0.038 11.6716724,0.0878 14.6047904,0.11213 l 5.191416,0.0419 0.424262,0.22738 c 0.573302,0.30676 1.354934,1.10075 1.583883,1.56425 l 0.187069,0.38033 0.01137,4.60592 c 0.009,3.78238 -0.002,12.616 -0.01964,20.70521 -0.0178,8.08921 -0.044,15.49411 -0.06149,16.23674 -0.0207,0.88426 -0.03927,7.87688 -0.04547,15.67759 -0.006,8.12716 -0.02003,14.33267 -0.04082,18.55079 -0.0104,2.10907 -0.02331,3.72226 -0.03721,4.82814 -0.007,0.55293 -0.01297,0.97914 -0.02067,1.27537 -0.004,0.14811 -0.009,0.26408 -0.0124,0.34364 -0.004,0.0796 -0.0173,0.15912 -0.0031,0.0822 -0.0654,0.34512 -0.419007,0.9538 -0.912606,1.40145 -0.691621,0.62724 -1.193472,0.88095 -1.806091,0.97102 -0.22447,0.033 -0.726924,0.0666 -1.150834,0.0796 -0.21196,0.007 -0.408689,0.009 -0.545187,0.006 -0.06,-0.001 -0.101127,-0.005 -0.126609,-0.007 -0.005,-0.002 -0.0155,-0.004 -0.0155,-0.004 -5.29e-4,-1.4e-4 -0.04796,-0.0105 -0.06046,-0.0124 -0.0249,-0.004 -0.03466,-0.005 -0.04496,-0.006 -0.0206,-0.002 -0.03474,-0.001 -0.05064,-0.002 -0.0319,-0.002 -0.06959,-0.004 -0.117306,-0.005 -0.0954,-0.003 -0.2306,-0.006 -0.402561,-0.009 -0.34395,-0.006 -0.835094,-0.0117 -1.441254,-0.0181 -1.212292,-0.0127 -2.878151,-0.0255 -4.706691,-0.0362 -3.6549774,-0.0216 -8.3252674,-0.0541 -10.3730074,-0.0713 -5.826342,-0.0488 -12.056319,-0.0927 -19.007116,-0.13229 -3.5156,-0.02 -9.19501,-0.0549 -12.61732,-0.078 l -6.09161,-0.0403 -0.47491,-0.22788 c -0.545309,-0.26202 -1.269219,-0.93972 -1.660359,-1.59629 l -0.21601,-0.36121 -0.0238,-17.41239 c -0.0236,-16.53714 0.034,-44.23044 0.1235,-58.63775 l 0.0398,-6.30451 0.26769,-0.52917 c 0.45812,-0.90784 1.633439,-1.7616 2.323889,-1.83452 -0.0397,0.004 0.0454,-0.002 0.14831,-0.003 0.10697,-9.8e-4 0.25779,-0.002 0.44752,-0.003 z m 3.81165,6.05649 c -0.11779,0.001 -0.23614,0.006 -0.35398,0.0155 -0.56624,0.0435 -1.12761,0.17762 -1.63298,0.4036 -1.60272,0.71667 -2.61051,2.24552 -2.61638,3.96875 -0.001,1.25529 0.40644,2.26644 1.26504,3.1161 0.98887,0.97856 2.07572,1.3875 3.47731,1.31567 1.34659,-0.0715 2.061,-0.34806 2.80086,-1.08519 l 0.41393,-0.41238 -0.0289,0.57102 c -0.0388,0.76399 -0.32841,1.96686 -0.61443,2.55487 -0.32687,0.67223 -0.99128,1.35607 -1.51722,1.56115 -0.58183,0.22709 -1.52953,0.26316 -2.09703,0.0801 -0.81111,-0.26154 -1.44804,-0.87038 -1.81022,-1.73117 -0.14898,-0.35404 -0.0868,-0.35968 -1.06712,0.0977 l -5.2e-4,-5.1e-4 c -0.42327,0.19743 -0.67903,0.36597 -0.67593,0.44493 0.008,0.23008 0.9228,1.5127 1.37356,1.92598 0.94327,0.86474 1.97335,1.21422 3.40186,1.14101 1.91569,-0.0926 3.20256,-1.01362 4.02766,-2.8825 0.42178,-0.95544 0.56065,-1.46928 0.69143,-2.56162 0.43925,-3.67077 -0.62332,-6.74624 -2.7559,-7.97729 -0.64188,-0.37055 -1.45526,-0.55409 -2.281,-0.54568 z m -0.10283,1.7916 c 0.039,1.4e-4 0.0784,0.001 0.11782,0.003 0.21053,0.01 0.42794,0.0438 0.65474,0.10178 0.81728,0.20915 1.29246,0.56703 1.74873,1.31723 0.21607,0.35473 0.25458,0.51009 0.28628,1.13017 0.0316,0.61428 0.008,0.78282 -0.16536,1.15858 -0.24787,0.5374 -0.73769,1.04137 -1.30276,1.34049 -0.56578,0.30017 -1.51509,0.36102 -2.20607,0.1421 -0.58349,-0.18486 -1.2949,-0.78245 -1.56321,-1.3136 v -5.3e-4 c -0.10447,-0.2068 -0.21933,-0.63058 -0.25528,-0.94205 -0.11552,-0.99039 0.21597,-1.74172 1.03973,-2.3549 0.52832,-0.39338 1.06058,-0.58441 1.64538,-0.5824 z m 13.17593,8.41137 5.2e-4,5.3e-4 c -1.42058,-0.003 -3.2478,0.006 -4.06073,0.0212 l -1.47692,0.0274 -0.0134,0.46561 c -0.007,0.25628 -0.005,3.057 0.004,6.2239 0.009,3.16688 0.0129,6.50156 0.006,7.4099 -0.006,0.90828 -0.003,3.13745 0.007,4.95368 0.0104,1.81621 0.013,4.04485 0.005,4.95319 -0.007,0.90834 -0.0115,3.82397 -0.009,6.47867 0.002,2.65472 0.003,6.7895 0.003,9.18808 -6.9e-4,10.21831 0.003,11.73241 0.0346,13.42141 l 0.0326,1.77715 0.88883,0.001 c 0.48905,10e-4 2.75673,0.006 5.03897,0.0119 2.282271,0.006 5.350117,0.009 6.817155,0.006 1.467062,-0.003 3.29623,0.002 4.064871,0.01 0.768638,0.008 2.616922,0.0128 4.10724,0.009 1.490351,-0.004 3.490833,-0.002 4.445725,0.003 0.95485,0.005 2.955841,0.0107 4.446238,0.0124 1.489972,0.002 2.7246024,0.0177 2.7450514,0.0351 h 5.19e-4 c 0.0802,0.0702 0.268317,0.0205 0.297656,-0.079 0.0172,-0.0585 0.0255,-2.66015 0.0186,-5.78054 -0.007,-3.12036 -0.01028,-6.6258 -0.0088,-7.79021 0.004,-2.15307 -5.3e-5,-9.14606 -0.0062,-14.05702 -0.002,-1.49037 -0.0031,-5.64367 -0.0021,-9.22993 0.003,-11.10189 -0.004,-14.15897 -0.04082,-16.11686 l -0.03462,-1.89031 -0.8051184,-0.015 c -0.44259,-0.008 -2.405023,-0.007 -4.360974,0.002 -1.955958,0.009 -3.937359,0.004 -4.403349,-0.009 -0.465979,-0.0134 -2.219274,-0.0218 -3.895886,-0.0181 -1.676609,0.004 -3.543551,0.002 -4.149101,-0.004 -0.605578,-0.006 -2.453812,-0.0115 -4.107243,-0.0129 -1.653408,-10e-4 -4.168724,-0.005 -5.589324,-0.009 z m 0.80874,0.31266 v 5e-4 c 2.263671,-0.002 4.567827,0.005 5.635314,0.0233 0.62896,0.0108 2.648072,0.0115 4.487582,0.002 1.839521,-0.01 3.726014,-0.006 4.191993,0.007 0.46601,0.0135 2.333278,0.0216 4.149616,0.0181 1.81637,-0.003 4.293526,-1.3e-4 5.504574,0.006 l 2.201933,0.0124 0.01912,1.86243 c 0.0207,2.01284 0.04111,11.50665 0.03101,14.60685 -0.003,1.04799 -0.004,3.12489 -10e-4,4.61523 0.003,1.49032 0.003,3.5858 -5.16e-4,4.65707 -0.007,2.30394 -0.005,4.96625 0.01085,11.89799 0.006,2.81763 0.0071,5.96141 0.0021,6.98614 -0.005,1.02473 -0.0061,3.13978 -0.0031,4.69995 0.007,3.15706 -0.0224,4.81918 -0.0863,4.92684 -0.0234,0.0393 -0.126251,0.0663 -0.228408,0.0605 -0.36581,-0.0211 -4.902263,-0.0425 -8.061523,-0.0383 -1.769772,0.002 -3.732541,-0.005 -4.361492,-0.0155 -0.628939,-0.0108 -2.248078,-0.0191 -3.598747,-0.0191 -10.263056,7.4e-4 -15.759466,-0.0252 -15.809366,-0.0739 -0.0316,-0.0315 -0.0542,-1.65754 -0.0491,-3.61374 0.005,-1.95625 10e-4,-6.20508 -0.01,-9.44181 -0.0109,-3.23673 -0.0115,-6.39956 -10e-4,-7.0285 0.0104,-0.62897 0.009,-2.87769 -0.004,-4.9966 -0.0127,-2.11892 -0.014,-4.23352 -0.003,-4.69945 0.0111,-0.46596 0.0154,-2.33334 0.008,-4.14962 -0.007,-1.81629 -0.0104,-5.13136 -0.007,-7.36701 0.003,-2.23562 0.005,-5.16985 0.005,-6.52052 -7.1e-4,-1.35062 0.006,-3.32587 0.016,-4.38938 l 0.0176,-1.93324 0.12299,-0.0501 c 0.0146,-0.006 0.16659,-0.0119 0.42581,-0.0165 l 5.2e-4,5e-4 c 0.90718,-0.0172 3.13086,-0.0276 5.3945,-0.0294 z m 33.8082714,55.62401 c -0.104283,1.8e-4 -0.210228,0.003 -0.31781,0.008 -1.2558,0.0622 -2.140098,0.44611 -2.954343,1.28259 -1.05393,1.08257 -1.719291,2.99501 -1.798854,5.16869 -0.03569,0.98071 0.100256,2.43536 0.310057,3.30523 0.497446,2.06219 1.761342,3.54449 3.443719,4.04006 0.690822,0.20349 1.940481,0.19793 2.66237,-0.0119 2.078633,-0.60407 3.414559,-2.4242 3.308323,-4.49742 -0.06683,-1.26042 -0.561644,-2.25388 -1.532723,-3.07319 -0.941996,-0.79473 -2.008584,-1.14308 -3.299023,-1.07693 -1.187186,0.0609 -2.177611,0.45876 -2.744534,1.10225 -0.170521,0.19344 -0.333756,0.35301 -0.36277,0.35449 -0.09305,0.005 0.03281,-1.08868 0.213423,-1.85774 0.235591,-1.00227 0.564669,-1.66974 1.079006,-2.19057 0.577,-0.58436 1.054756,-0.76602 2.012796,-0.76636 0.570521,5e-5 0.828011,0.043 1.167371,0.19584 0.562578,0.25331 1.231085,0.90154 1.52032,1.47434 0.125603,0.2486 0.240307,0.45143 0.256315,0.45061 0.06503,-0.003 1.427546,-0.69112 1.484664,-0.7493 0.09183,-0.0936 -0.289629,-0.80827 -0.730186,-1.36789 -0.956768,-1.21553 -2.153852,-1.7938 -3.718121,-1.7911 z m -7.46311,0.96687 c -0.0015,2e-5 -0.0031,4.2e-4 -0.0047,5.2e-4 -0.04902,0.002 -0.08537,0.0424 -0.08578,0.0889 0.0016,0.0467 0.02133,0.084 0.04134,0.0832 0.02101,-10e-4 0.05935,-0.0413 0.08578,-0.0894 0.0256,-0.0466 0.009,-0.0837 -0.03669,-0.0832 z m 7.82226,5.92367 c 0.371624,-0.002 0.54718,0.0372 0.800468,0.14677 0.587074,0.25408 1.053074,0.6445 1.364258,1.14411 0.243644,0.39126 0.277834,0.51988 0.310576,1.15858 0.03076,0.59153 0.0038,0.79563 -0.148828,1.15033 -0.229743,0.53443 -0.698537,1.02923 -1.288294,1.36012 -0.561914,0.3152 -1.469016,0.39362 -2.177126,0.18862 -0.565473,-0.16365 -1.304031,-0.75793 -1.606106,-1.29244 -0.281596,-0.49829 -0.38877,-1.40647 -0.234092,-1.99006 0.135231,-0.51088 0.755679,-1.2718 1.285708,-1.57768 0.348094,-0.2009 0.510963,-0.23654 1.24592,-0.27337 0.177586,-0.009 0.323644,-0.0142 0.447516,-0.015 z" />
    <path
       style="fill:#000000;stroke-width:0.0846667"
       id="path389"
       d="" />
  </g>
</svg>
