<?xml version="1.0" encoding="UTF-8" standalone="no"?>
<svg
   sodipodi:docname="JH.svg"
   id="svg8"
   version="1.1"
   viewBox="0 0 63.146049 88.30793"
   height="88.30793mm"
   width="63.146049mm"
   inkscape:version="1.1.1 (1:1.1+202109281949+c3084ef5ed)"
   inkscape:export-filename="/home/doug/k40/52Cards/JH.png"
   inkscape:export-xdpi="96"
   inkscape:export-ydpi="96"
   xmlns:inkscape="http://www.inkscape.org/namespaces/inkscape"
   xmlns:sodipodi="http://sodipodi.sourceforge.net/DTD/sodipodi-0.dtd"
   xmlns="http://www.w3.org/2000/svg"
   xmlns:svg="http://www.w3.org/2000/svg"
   xmlns:rdf="http://www.w3.org/1999/02/22-rdf-syntax-ns#"
   xmlns:cc="http://creativecommons.org/ns#"
   xmlns:dc="http://purl.org/dc/elements/1.1/">
  <defs
     id="defs2">
    <marker
       style="overflow:visible"
       id="marker2995"
       refX="0"
       refY="0"
       orient="auto"
       inkscape:stockid="Arrow1Lstart"
       inkscape:isstock="true">
      <path
         transform="matrix(0.8,0,0,0.8,10,0)"
         style="fill:#000000;fill-opacity:1;fill-rule:evenodd;stroke:#000000;stroke-width:1pt;stroke-opacity:1"
         d="M 0,0 5,-5 -12.5,0 5,5 Z"
         id="path2993" />
    </marker>
    <marker
       style="overflow:visible"
       id="marker2985"
       refX="0"
       refY="0"
       orient="auto"
       inkscape:stockid="Arrow1Lstart"
       inkscape:isstock="true">
      <path
         transform="matrix(0.8,0,0,0.8,10,0)"
         style="fill:#000000;fill-opacity:1;fill-rule:evenodd;stroke:#000000;stroke-width:1pt;stroke-opacity:1"
         d="M 0,0 5,-5 -12.5,0 5,5 Z"
         id="path2983" />
    </marker>
    <marker
       style="overflow:visible"
       id="marker2791"
       refX="0"
       refY="0"
       orient="auto"
       inkscape:stockid="Arrow1Lstart"
       inkscape:isstock="true">
      <path
         transform="matrix(0.8,0,0,0.8,10,0)"
         style="fill:#000000;fill-opacity:1;fill-rule:evenodd;stroke:#000000;stroke-width:1pt;stroke-opacity:1"
         d="M 0,0 5,-5 -12.5,0 5,5 Z"
         id="path2789" />
    </marker>
    <marker
       style="overflow:visible"
       id="marker2781"
       refX="0"
       refY="0"
       orient="auto"
       inkscape:stockid="Arrow1Lstart"
       inkscape:isstock="true">
      <path
         transform="matrix(0.8,0,0,0.8,10,0)"
         style="fill:#000000;fill-opacity:1;fill-rule:evenodd;stroke:#000000;stroke-width:1pt;stroke-opacity:1"
         d="M 0,0 5,-5 -12.5,0 5,5 Z"
         id="path2779" />
    </marker>
    <marker
       style="overflow:visible"
       id="marker2417"
       refX="0"
       refY="0"
       orient="auto"
       inkscape:stockid="Arrow1Lstart"
       inkscape:isstock="true">
      <path
         transform="matrix(0.8,0,0,0.8,10,0)"
         style="fill:#000000;fill-opacity:1;fill-rule:evenodd;stroke:#000000;stroke-width:1pt;stroke-opacity:1"
         d="M 0,0 5,-5 -12.5,0 5,5 Z"
         id="path2415" />
    </marker>
    <marker
       style="overflow:visible"
       id="marker2383"
       refX="0"
       refY="0"
       orient="auto"
       inkscape:stockid="Arrow1Lstart"
       inkscape:isstock="true">
      <path
         transform="matrix(0.8,0,0,0.8,10,0)"
         style="fill:#000000;fill-opacity:1;fill-rule:evenodd;stroke:#000000;stroke-width:1pt;stroke-opacity:1"
         d="M 0,0 5,-5 -12.5,0 5,5 Z"
         id="path2381" />
    </marker>
    <marker
       style="overflow:visible"
       id="marker2355"
       refX="0"
       refY="0"
       orient="auto"
       inkscape:stockid="Arrow1Lstart"
       inkscape:isstock="true">
      <path
         transform="matrix(0.8,0,0,0.8,10,0)"
         style="fill:#000000;fill-opacity:1;fill-rule:evenodd;stroke:#000000;stroke-width:1pt;stroke-opacity:1"
         d="M 0,0 5,-5 -12.5,0 5,5 Z"
         id="path2353" />
    </marker>
    <marker
       style="overflow:visible"
       id="Arrow1Lstart"
       refX="0"
       refY="0"
       orient="auto"
       inkscape:stockid="Arrow1Lstart"
       inkscape:isstock="true">
      <path
         transform="matrix(0.8,0,0,0.8,10,0)"
         style="fill:#000000;fill-opacity:1;fill-rule:evenodd;stroke:#000000;stroke-width:1pt;stroke-opacity:1"
         d="M 0,0 5,-5 -12.5,0 5,5 Z"
         id="path2071" />
    </marker>
  </defs>
  <sodipodi:namedview
     id="base"
     pagecolor="#ffffff"
     bordercolor="#666666"
     borderopacity="1.0"
     inkscape:pageopacity="0.0"
     inkscape:pageshadow="2"
     inkscape:zoom="1.5040647"
     inkscape:cx="117.34868"
     inkscape:cy="166.54869"
     inkscape:document-units="mm"
     inkscape:current-layer="layer1"
     inkscape:document-rotation="0"
     showgrid="false"
     inkscape:snap-smooth-nodes="false"
     inkscape:object-nodes="false"
     inkscape:window-width="1366"
     inkscape:window-height="712"
     inkscape:window-x="0"
     inkscape:window-y="0"
     inkscape:window-maximized="1"
     inkscape:object-paths="false"
     inkscape:snap-intersection-paths="false"
     inkscape:snap-midpoints="false"
     inkscape:snap-others="false"
     inkscape:pagecheckerboard="0"
     showguides="true"
     inkscape:guide-bbox="true"
     inkscape:snap-bbox="true"
     showborder="false"
     fit-margin-top="0"
     fit-margin-left="0"
     fit-margin-right="0"
     fit-margin-bottom="0" />
  <metadata
     id="metadata5">
    <rdf:RDF>
      <cc:Work
         rdf:about="">
        <dc:format>image/svg+xml</dc:format>
        <dc:type
           rdf:resource="http://purl.org/dc/dcmitype/StillImage" />
      </cc:Work>
    </rdf:RDF>
  </metadata>
  <g
     inkscape:label="Layer 1"
     inkscape:groupmode="layer"
     id="layer1"
     transform="translate(-115.95281,353.58186)">
    <path
       style="fill:#000000;stroke-width:0.0846667"
       id="path389"
       d="" />
    <path
       id="path10587"
       style="fill:#000000;fill-opacity:1;stroke:none;stroke-width:0.2;stroke-miterlimit:4;stroke-dasharray:none;stroke-opacity:1"
       d="m 165.61796,-270.97513 0.0637,1.69425 4.57165,0.0567 -0.11449,-1.69251 -1.30268,-0.10316 c 0.0305,-2.45514 0.0161,-4.91693 0.043,-7.36603 0.008,-0.74671 -0.27199,-2.03358 0.097,-2.70461 0.4444,-0.80896 2.66522,-0.39438 3.46111,-0.38418 0.35803,0.005 0.78244,-0.0387 1.02151,0.286 0.49946,0.67825 0.12879,2.54585 0.11858,3.36909 l 1.86358,-0.0616 c -0.15023,-1.30862 0.36313,-3.19334 -0.42377,-4.32349 -0.97543,-1.40091 -2.71403,-0.97649 -4.16698,-1.0211 -0.68134,-0.0209 -1.45491,-0.11745 -2.11777,0.0774 -0.54644,0.16036 -1.03112,0.52937 -1.32254,1.01865 -0.46088,0.77242 -0.32067,1.75628 -0.33139,2.62075 -0.0222,1.79327 -0.16015,3.62804 -0.0592,5.41835 0.0417,0.73802 0.059,1.46066 0.0498,2.20212 -0.003,0.26668 0.0543,0.67247 -0.20688,0.8418 -0.30218,0.19651 -0.89763,0.0759 -1.24389,0.0716 m 5.07909,-27.20184 -0.16932,-0.002 c -1.51952,2.77131 -3.78349,5.48682 -4.38685,8.66695 -0.34068,1.79888 0.99172,4.01251 3.05574,3.08222 0.87618,-0.39479 0.89823,-1.21687 1.46226,-1.84078 0.19192,2.54969 3.69481,2.68246 4.33475,0.30778 0.2835,-1.05194 -0.13265,-2.16006 -0.48511,-3.13893 -0.8977,-2.4934 -2.46245,-4.80848 -3.81147,-7.07514 m -2.17116,24.8669 -0.0836,-0.0858 0.0836,0.0858 m -4.37797,-63.47406 -33.01958,-0.24012 c -0.15896,12.81882 -0.27478,25.7076 -0.13987,38.52456 0.0386,3.72094 -0.007,7.45683 -0.0531,11.17621 -0.0201,1.62437 -0.41426,3.7718 0.0186,5.33464 l 3.7261,-0.0385 7.36543,0.0913 21.84444,0.10153 0.25803,-54.94969 m -12.20805,42.18523 c 2.79197,-0.77511 4.38534,-3.83237 7.00513,-4.99353 0.53547,1.47497 0.977,2.19508 2.50516,2.82528 -0.5481,0.36212 -1.11229,-0.16247 -1.60369,-0.41166 -0.95841,-0.48564 -2.17196,-0.47012 -2.78212,0.52662 -0.15817,0.25943 -0.23539,0.5467 -0.2831,0.84322 0.35765,-0.0947 0.65374,-0.14184 1.0165,-0.0346 1.22413,0.36217 4.11783,2.3767 4.49623,-0.21156 0.051,-0.35034 -0.0363,-0.69536 -0.0777,-1.04126 1.32833,0.0845 0.89815,-2.16691 0.71402,-2.95471 l -0.0878,0.25293 c -0.45405,-0.0522 -0.84933,-0.20062 -0.92287,-0.68882 l 0.92602,0.43484 c -0.26578,-0.41827 -1.03819,-1.15393 -1.08741,-1.62219 -0.0583,-0.55347 1.42883,-1.46626 1.88924,-1.58544 -0.0627,5.05709 -0.0405,10.09805 -0.10322,15.15522 -0.0172,1.38842 0.0504,2.76605 0.0333,4.1494 -0.005,0.43592 0.12922,1.18685 -0.0704,1.58099 -0.13539,0.2658 -0.55442,0.18931 -0.79824,0.18637 l -2.45515,-0.0304 -3.89437,-0.0483 c -0.50372,-0.006 -1.28696,0.13145 -1.75267,-0.0728 -0.31749,-0.13933 -0.54951,-0.54771 -0.76562,-0.80516 -0.53318,-0.63548 -1.43678,-1.37598 -1.76261,-2.13996 -0.21228,-0.4984 0.16388,-1.19744 0.11047,-1.7396 -0.037,-0.36667 -0.24407,-0.59726 -0.0693,-0.96816 0.26873,-0.57109 0.9202,-1.14429 1.03713,-1.76528 0.12415,-0.65705 -0.68882,-0.57889 -0.85503,-1.03794 -0.1449,-0.39976 -0.53566,-1.45938 -0.53072,-1.85813 0.005,-0.34947 0.33344,-0.59934 0.42384,-0.92615 0.10109,-0.36978 -0.11248,-0.69275 -0.25493,-1.01924 m 5.81245,-4.41566 c -0.83755,-3.67742 0.32682,-7.44194 2.68481,-10.29675 0.61723,-0.74764 1.40935,-1.3969 2.20867,-1.9438 0.1819,-0.12434 0.64166,-0.53328 0.88102,-0.37528 0.24021,0.15878 -0.0914,0.47507 -0.2154,0.57319 -0.6362,0.50269 -1.28676,0.93408 -1.87215,1.50421 -1.86073,1.8123 -3.06005,4.16209 -3.43484,6.73126 -0.12958,0.89051 -0.0497,1.81918 0.0214,2.70981 0.0367,0.45219 0.17088,0.83242 -0.27355,1.09736 m 5.78562,-9.07296 -0.16512,-0.34074 0.16512,0.34074 m -2.27885,6.23755 c 0.0225,-1.81884 0.75012,-4.09057 2.26625,-5.22163 0.0766,0.57749 -0.38374,0.96992 -0.66888,1.43115 -0.48733,0.78811 -0.89304,1.61728 -1.1016,2.52653 -0.10559,0.45813 -0.0363,1.01834 -0.49577,1.26395 m 0.51426,-0.50166 c 0.16008,-1.2334 0.67907,-3.27732 1.8272,-3.95698 -0.0136,1.02852 -0.76495,1.80346 -1.05819,2.7811 -0.15543,0.51745 -0.17601,1.01541 -0.76901,1.17588 m 1.36716,-0.99912 0.34913,-0.84241 c 0.15606,0.38966 -0.0119,0.63727 -0.34913,0.84241 m 0.53181,-15.57328 -4.95926,-2.94038 0.26028,-0.50481 c 1.27385,0.24357 2.60452,1.43618 3.69943,2.1119 0.61005,0.37657 1.00643,0.5731 0.99955,1.33329 m -0.43276,0.7567 c 0.0174,-0.31714 0.12627,-0.41833 0.42961,-0.50272 l -0.42961,0.50272 m 0.26306,6.09973 -0.0847,-10e-4 0.0889,-0.33759 -0.004,0.33864 m 0.0656,1.52488 -0.16932,-0.002 0.003,-0.25398 0.16932,0.002 -0.003,0.25398 m -0.005,0.42331 -0.58737,-0.43066 0.58737,0.43066 m -0.0315,2.5398 -0.50166,-0.51426 0.50166,0.51426 m -1.73054,-24.32267 0.0847,0.001 c 0.0151,-0.97371 1.03258,-1.80851 1.88983,-2.17806 -0.0241,0.9853 -1.20128,1.07307 -1.28899,1.93277 -0.16483,1.61632 -1.9e-4,3.29006 0.0161,4.90997 0.0222,2.17121 -0.0509,4.34768 -0.0778,6.51887 -0.83601,-0.18157 -0.57776,-1.20461 -0.56951,-1.86987 0.0247,-1.99332 -0.2322,-4.21782 0.0766,-6.18019 -1.11614,0.83153 -1.46475,2.04058 -1.48122,3.36856 -1.25146,-0.75141 -0.0932,-2.86319 0.30017,-3.7219 -0.81684,-0.15619 -1.67592,-0.80003 -0.74409,-1.44867 -0.33035,-0.46717 -0.22191,-1.15524 -0.14832,-1.6953 l 0.0847,0.001 0.16302,0.51006 0.0847,10e-4 c -0.29043,-0.95592 -0.3028,-1.86996 0.11934,-2.79273 l 0.0847,10e-4 c -0.0173,1.3957 0.40437,2.41955 1.48294,3.32064 l 0.007,-0.59263 -0.0847,-0.001 -0.003,0.25398 c -1.43419,-0.42311 -1.29602,-2.68911 -1.138,-3.8244 -3.23383,3.1547 -3.19492,7.52745 -0.0486,10.75289 0.0781,-1.17667 -0.21667,-3.08081 1.14677,-3.7114 l -0.005,7.19716 c -1.08359,-0.22351 -2.36945,-1.27432 -3.27865,-1.90347 l 0.001,-0.0847 c 0.75724,-0.56706 1.2229,-1.99854 0.0307,-2.47699 -0.5131,-0.20594 -0.97981,0.0798 -1.44264,0.25797 -0.51429,-1.8177 -0.38175,-3.83364 -0.86177,-5.68378 -0.14626,-0.56422 -0.70861,-1.57973 -0.425,-2.1221 0.45531,-0.86886 1.25191,-1.67388 1.87097,-2.43232 0.233,-0.28593 0.4655,-0.73512 0.82703,-0.87009 0.79112,-0.29536 2.11714,-0.0249 2.96035,-0.0144 0.43516,0.005 2.10763,-0.21382 2.31727,0.22501 0.0982,0.20673 0.0444,0.51384 0.0417,0.73566 -0.004,0.34625 0.0792,0.85016 -0.10159,1.16003 -0.5926,1.0139 -1.87311,1.1031 -1.89074,2.4562 m 1.36459,19.74593 -0.0847,-10e-4 c -0.0883,-0.38898 0.0397,-0.60331 0.34915,-0.8424 l -0.26448,0.84345 m 0.0228,4.99595 -0.50061,-0.59893 c 0.33407,0.0994 0.51012,0.2419 0.50061,0.59893 m -0.35507,-5.50816 0.17983,-0.8445 0.16932,0.002 c 0.0825,0.3818 -0.0532,0.60068 -0.34915,0.8424 m 0.15703,14.6505 -0.16932,-0.002 -0.84031,-0.51845 0.006,-0.50797 c 0.61085,0.0394 1.10134,0.36319 1.00333,1.02852 m -0.16999,-20.40845 c 0.0521,-0.30264 0.13302,-0.41688 0.42959,-0.50271 l -0.42959,0.50271 m 0.31621,8.64059 -0.50166,-0.51426 0.50166,0.51426 m -0.13437,10.83651 c -0.45587,-0.1104 -0.90277,-0.32957 -1.09114,-0.77559 0.55194,-0.1261 0.98859,0.23655 1.09114,0.77559 m -0.49986,-14.31597 0.26448,-0.84346 c 0.33355,0.34647 0.12393,0.65785 -0.26448,0.84346 m 0.42817,6.44047 c -0.32876,-0.11771 -0.49211,-0.26021 -0.58527,-0.59997 0.33913,0.10081 0.49298,0.25852 0.58527,0.59997 m -0.20437,9.65021 -0.33759,-0.0889 0.17562,-0.50586 0.16932,0.002 -0.007,0.59262 m -0.33089,-14.31376 c -0.58551,-1.05839 -1.07344,-2.1342 -1.73902,-3.15447 -0.47115,-0.72201 -0.99718,-1.38806 -1.54865,-2.05009 -0.55982,-0.6729 -1.21705,-1.27401 -1.87458,-1.85015 -0.17172,-0.15073 -0.59437,-0.41253 -0.45285,-0.69622 0.27531,-0.55534 1.4199,0.6889 1.63602,0.87777 1.40892,1.23203 2.51819,2.79835 3.45077,4.41109 0.32743,0.56645 1.46959,2.14335 0.52831,2.46207 m 0.39915,1.95243 c -0.33526,-0.004 -0.49148,-0.10651 -0.58737,-0.43065 l 0.58737,0.43065 m -0.39458,-9.1496 -0.0836,-0.0857 0.51321,-0.41701 -0.42961,0.50271 m 0.27209,12.19628 c -0.35198,-0.0887 -0.57305,-0.22006 -0.58527,-0.59997 0.32876,0.11771 0.49211,0.26029 0.58527,0.59997 m -0.17438,8.3931 c 0.1335,0.63788 -0.96117,1.17147 -1.46642,1.01491 -1.09739,-0.33985 -1.72945,-1.33125 -1.80651,-2.42314 -0.0339,-0.47755 1.09657,-1.71154 1.52826,-1.22236 0.60204,0.68197 -0.0658,1.76005 0.35886,2.40223 0.34328,0.51762 1.26751,-0.33695 1.38581,0.22836 m -0.32798,-15.68122 c -0.0351,-0.37901 0.0937,-0.588 0.43275,-0.7567 0.0841,0.38852 -0.0461,0.64244 -0.43275,0.7567 m 0.24416,7.62361 -0.0857,0.0836 -0.58633,-0.51531 c 0.363,-0.047 0.5211,0.10858 0.67204,0.4317 m -0.0469,-3.04878 -0.50271,-0.42959 0.50271,0.42959 m -0.44497,-5.0859 0.17877,-0.75985 0.16932,0.002 c 0.0843,0.3687 -0.009,0.58515 -0.34809,0.75775 m -4.88202,18.14429 c 0.66684,-2.63142 3.23848,0.0213 4.66366,-0.53488 -0.0979,0.44713 -0.32788,0.56197 -0.76824,0.49851 l -0.003,0.25398 -0.84136,-0.4338 -0.0878,0.25293 -0.50061,-0.59891 c -0.31388,0.18374 -0.47592,0.004 -0.67414,-0.26238 -0.29791,0.19384 -0.47959,0.0961 -0.76089,-0.0942 l 0.0805,0.3397 -0.33969,0.0805 -0.001,0.0847 0.33864,0.004 -0.0868,0.16826 0.67729,0.008 -0.17248,0.25188 0.76194,0.009 -0.17246,0.25188 1.09848,0.18298 -0.17353,0.33653 c 0.29344,-0.1055 0.8427,-0.42468 0.93127,0.0115 0.52626,-0.51328 0.85465,-0.84375 0.86654,-1.59804 0.72021,0.84914 -0.0817,1.94334 -1.04142,2.04397 -0.96737,0.10138 -1.85743,-0.63853 -2.69714,-1 -0.35711,-0.15371 -0.73317,-0.14431 -1.09756,-0.25722 m 4.85591,-22.88506 0.34494,-0.50376 c 0.0418,0.31169 -0.0441,0.41663 -0.34494,0.50376 m 0.25848,13.29689 c -0.38598,0.0578 -0.65235,-0.1068 -0.58632,-0.51531 l 0.58632,0.51531 m -0.0448,-3.21814 -0.0857,0.0837 -0.50166,-0.51426 0.58737,0.43064 m -0.52022,-5.84895 0.34809,-0.75774 c 0.13674,0.37545 0.0471,0.63919 -0.34809,0.75774 m 0.33579,13.89057 -0.24874,-0.42645 0.24874,0.42645 m -0.11683,-4.23511 c -0.34542,-0.14026 -0.56113,-0.294 -0.49956,-0.68358 0.32568,0.16187 0.56192,0.29799 0.49956,0.68358 m -0.0829,6.68816 -0.0847,-10e-4 -0.55587,-2.97046 c 0.96304,0.31651 0.74745,2.20205 0.64053,2.97151 m -3.44309,4.52961 -0.0847,-0.001 c -1.25762,1.99827 -3.28839,4.61794 -3.37893,7.07064 -0.0468,1.2514 1.19104,2.34692 2.41975,1.72347 0.507,-0.25738 0.74858,-0.75659 0.9504,-1.25831 0.20694,0.45159 0.38981,0.93099 0.83176,1.20784 1.43762,0.8986 2.6388,-0.57717 2.55648,-1.92789 -0.14293,-2.33494 -2.16929,-4.8509 -3.29481,-6.8147 m 3.19341,-25.36241 0.4296,-0.50271 c -0.0521,0.30264 -0.13302,0.41688 -0.4296,0.50271 m 0.28997,10.75708 c -0.34305,-0.0579 -0.49313,-0.17834 -0.58632,-0.51531 0.34305,0.0579 0.49313,0.17835 0.58632,0.51531 m -0.42503,-6.69444 c -0.11104,-0.3306 -0.0245,-0.48346 0.17878,-0.75985 0.28239,0.30663 0.11875,0.52908 -0.17878,0.75985 m 0.29313,10.5031 -0.67413,-0.26238 c 0.18347,-0.52422 0.61533,-0.11641 0.67413,0.26238 m -0.26028,0.50481 c -0.34542,-0.14026 -0.56112,-0.294 -0.49956,-0.68358 l 0.58842,0.346 -0.0889,0.33758 m -0.0714,5.7569 -0.0847,-10e-4 -0.3897,-2.71438 c 0.63886,0.64805 0.73373,1.87504 0.47437,2.71543 m 0.006,-20.99893 -0.25293,-0.0878 c 0.1069,-0.29029 0.19894,-0.40702 0.51321,-0.41701 l -0.26028,0.50481 m 0.0286,11.34653 c -0.28088,-0.15548 -0.42509,-0.27047 -0.41595,-0.59788 0.28088,0.15548 0.42509,0.27048 0.41595,0.59788 m -0.32881,-7.62467 c -0.1461,-0.85074 0.81696,-0.3991 0,0 m 0.18956,12.02594 c -0.33676,-0.15515 -0.56115,-0.29146 -0.49956,-0.68358 l 0.58842,0.346 -0.0889,0.33758 m -0.091,0.50691 c -0.37073,-0.0799 -0.56868,-0.23118 -0.66994,-0.60101 0.40243,0.0501 0.60984,0.18875 0.66994,0.60101 m -0.028,-4.5727 -0.58737,-0.43064 c 0.36828,-0.0639 0.53183,0.0621 0.58737,0.43064 m -0.064,5.16427 c -0.4045,-0.0871 -0.60967,-0.27115 -0.66887,-0.68567 0.37775,0.1272 0.56786,0.29696 0.66887,0.68567 m -0.21123,-17.1066 c -0.057,-0.32187 0.0183,-0.45116 0.34493,-0.50376 l -0.34493,0.50376 m 0.12523,3.55783 c -0.76406,-0.24851 0.42371,-0.98416 0,0 m -0.006,14.14035 -0.66993,-0.60102 0.0857,-0.0836 c 0.35047,0.14229 0.52882,0.30419 0.58421,0.68464 m -0.006,0.50791 c -0.38196,-0.0608 -0.60876,-0.20712 -0.66993,-0.60102 0.34936,0.0957 0.56679,0.24766 0.66993,0.60102 m -0.18821,1.52178 -0.0847,-10e-4 0.15568,1.10268 -0.071,-1.10163 m -0.40932,-7.9644 c 0.93157,0.4648 -0.28196,0.81918 0,0 m 0.25466,6.777 -0.33444,-0.34283 0.33444,0.34283 m -0.0209,-18.7977 -0.16933,-0.002 c -0.0418,-0.31169 0.0441,-0.41664 0.34495,-0.50376 l -0.17562,0.50586 m -0.042,3.38631 -0.16933,-0.002 0.0931,-0.67623 0.16932,0.002 -0.0931,0.67623 m 0.26421,-14.47584 -0.58421,-0.68462 -0.18298,1.09847 0.76719,-0.41385 m -0.38494,24.21176 -0.50166,-0.51426 c 0.38079,-0.0497 0.56055,0.13447 0.50166,0.51426 m 0.12987,-24.13024 -0.25083,-0.25713 0.25293,0.0878 -0.002,0.16933 m -0.0253,2.03188 -0.001,0.0847 -0.0857,0.0837 -0.16933,-0.002 c 0.0422,-0.19008 0.0761,-0.26307 0.25608,-0.16617 m -0.57141,11.93167 c 0.0462,-0.31331 0.12122,-0.48833 0.43065,-0.58737 -0.0404,0.32362 -0.11023,0.49058 -0.43065,0.58737 m 0.20742,10.58672 c -0.31254,-0.12979 -0.47193,-0.24937 -0.41596,-0.59788 l 0.50481,0.26028 -0.0889,0.3376 m 0.002,-13.80171 -0.16932,-0.002 -0.0836,-0.0857 0.42856,-0.41806 -0.17563,0.50586 m -0.28971,2.87516 -0.16932,-0.002 0.092,-0.59158 0.33759,0.0889 -0.26028,0.50481 m 0.11229,11.43217 c -0.33644,-0.1134 -0.52878,-0.2384 -0.58526,-0.59997 0.39384,0.0582 0.55808,0.19769 0.58526,0.59997 m 0.0148,-21.67615 -0.16932,-0.002 0.021,-1.6932 0.25398,0.003 -0.10569,1.69215 m 0.0595,2.03294 c -0.34459,-0.20698 -0.33184,-0.48378 -0.24348,-0.84975 l 0.24348,0.84975 m -0.2323,5.07751 -0.3376,-0.0889 0.25923,-0.42016 0.16932,0.002 0.0836,0.0857 -0.17456,0.4212 m -0.10109,14.98605 c -0.32451,-0.11851 -0.45068,-0.25529 -0.50061,-0.59892 0.34076,0.10702 0.56206,0.21874 0.50061,0.59892 m 0.17923,-28.10927 -0.0847,-0.001 c 0.004,-0.33755 -0.0427,-0.6498 0.26448,-0.84346 l -0.17981,0.84451 m -0.53601,15.91186 0.092,-0.59157 0.33759,0.0889 -0.4296,0.50272 m 0.0955,12.78682 c -0.29915,-0.18389 -0.47188,-0.32058 -0.4149,-0.68252 0.34518,0.15931 0.55099,0.29277 0.4149,0.68252 m -0.31164,-15.83775 0.17562,-0.50586 0.16932,0.002 0.0836,0.0857 -0.42855,0.41805 m 0.13607,16.34375 c -0.31032,-0.17158 -0.47106,-0.31963 -0.4149,-0.68252 0.33679,0.15252 0.50678,0.30585 0.4149,0.68252 m 0.0662,-25.82449 c -0.0346,-0.75936 -0.43698,-3.13545 0.29807,-3.55258 -0.0671,0.8371 -0.0211,1.69904 -0.0315,2.53981 -0.005,0.37191 0.0781,0.79545 -0.26658,1.01277 m 0.2057,3.89751 c -0.30714,-0.2226 -0.24679,-0.58323 -0.24243,-0.93441 0.0104,-0.83923 -0.0668,-1.70953 0.0315,-2.5398 0.60968,0.61229 0.22136,2.6337 0.21094,3.47421 m -0.52619,8.29145 c -0.008,-0.31424 0.0665,-0.4449 0.34598,-0.58842 l 0.0836,0.0857 -0.4296,0.50271 m 0.16336,14.14249 -0.58631,-0.51531 0.0857,-0.0837 c 0.3254,0.11683 0.48978,0.24367 0.50061,0.59893 m -0.17662,0.59057 -0.49956,-0.68359 c 0.35715,0.15049 0.58344,0.26956 0.49956,0.68359 m -0.006,0.50796 c -0.3562,-0.0904 -0.52974,-0.22985 -0.58528,-0.59997 0.35621,0.0904 0.52975,0.22986 0.58528,0.59997 m -0.005,0.4233 c -0.40125,0.06 -0.61156,-0.11926 -0.67098,-0.51636 l 0.67098,0.51636 m -0.0294,2.37049 c -0.39419,-0.0991 -0.60961,-0.27598 -0.66887,-0.68569 0.35389,0.13979 0.60769,0.29382 0.66887,0.68569 m -0.2476,-21.00203 0.17562,-0.50586 0.16932,0.002 c 0.0418,0.31169 -0.0441,0.41665 -0.34494,0.50376 m -0.0325,2.62457 c -0.0616,-0.35656 0.051,-0.56414 0.42959,-0.50271 l -0.42959,0.50271 m 0.13182,16.68225 c -0.31036,-0.16786 -0.51001,-0.31927 -0.49956,-0.68358 0.33676,0.15507 0.56115,0.29146 0.49956,0.68358 m 0.0784,0.50901 c -0.35959,-0.0906 -0.56774,-0.2382 -0.66993,-0.60101 0.37073,0.0799 0.56868,0.23118 0.66993,0.60101 m -0.007,0.59262 c -0.36258,-0.12125 -0.65031,-0.27114 -0.58422,-0.68462 0.33073,0.1643 0.52791,0.30891 0.58422,0.68462 m 0.15928,-26.50073 -0.0847,-10e-4 c -0.40186,-1.32418 -0.13196,-2.94614 -0.11577,-4.31977 0.006,-0.46503 -0.16368,-1.13969 0.27183,-1.43607 l -0.0714,5.75689 m -3.74041,-5.63486 c 0.55372,0.34438 0.71358,1.51984 0.84999,2.12737 0.29839,1.33806 0.48125,2.70569 0.59132,4.07165 0.0645,0.80333 0.0587,1.88843 0.60014,2.54264 0.77001,0.92969 1.8599,-0.58506 0.89677,-1.09886 -0.90342,-0.48156 -0.57331,1.78111 0.009,0.52237 l -0.25713,0.25083 c -0.16468,-0.17088 -0.32159,-0.62761 0.0974,-0.62232 0.60023,0.007 0.42953,1.00489 -0.10379,1.06279 -0.85889,0.093 -0.96811,-1.27329 -0.23237,-1.54147 1.33372,-0.48668 1.78666,1.83975 0.2265,2.08357 -0.95782,0.14959 -1.25421,-1.1451 -1.3776,-1.84653 -0.25705,-1.46236 -0.26226,-2.95445 -0.51338,-4.417 -0.18244,-1.06093 -0.65671,-2.07696 -0.78669,-3.13504 m 3.06033,33.14516 0.005,-0.42329 0.33759,0.0889 -0.34284,0.33444 m 0.014,-21.59149 -0.0836,-0.0858 0.51321,-0.417 -0.4296,0.50271 m 0.13884,2.4573 -0.33655,-0.17352 10e-4,-0.0847 0.59578,-0.24664 -0.26028,0.50482 m 0.0403,-10.0756 -0.0847,-10e-4 c -0.23287,-0.81744 -0.22475,-1.81386 0.0325,-2.62447 l 0.0521,2.62552 m -0.37461,9.73272 -0.25398,-0.003 0.346,-0.58842 -0.0921,0.59157 m -0.42009,-0.25938 -0.0847,-10e-4 0.007,-0.59262 0.33759,0.0889 -0.26028,0.50481 m -5.20667,17.03935 c -0.0808,-0.17687 -0.18353,-0.35841 -0.0719,-0.54991 0.19204,-0.32776 0.7163,-0.54353 1.01953,-0.75576 0.55945,-0.39078 1.065,-0.87248 1.52674,-1.37319 2.24696,-2.43587 2.88137,-6.14058 1.68657,-9.20846 -0.35944,-0.92138 -1.04963,-1.66372 -1.41619,-2.55767 -0.13562,-0.33022 0.0152,-0.50023 0.32059,-0.58882 0.86477,1.27625 1.66777,2.48128 2.05362,4.0051 1.13012,4.45945 -1.07642,8.96311 -5.11894,11.02871 m 3.2025,-19.26577 c 0.21621,-1.04853 1.28971,-0.83074 2.12699,-0.82035 -0.26561,1.07188 -1.24738,0.83125 -2.12699,0.82035 m 1.50078,1.88142 0.34494,-0.50376 -0.34494,0.50376 m -0.43493,21.41692 c -0.95401,-1.45399 -2.18507,-3.16838 -2.64928,-4.85922 l 0.42645,-0.24873 c 0.6352,1.28533 1.3109,2.51327 2.03644,3.75087 0.26039,0.44336 0.84241,1.03228 0.18639,1.35708 m 0.55003,-23.87101 c -0.436,-0.005 -0.99308,-0.14729 -1.18944,0.32393 0.44786,0.006 0.941,0.1143 1.18944,-0.32393 m -0.071,-1.10164 c -0.79033,-0.38389 -1.08592,-1.40151 -1.20536,-2.21644 -0.24434,-1.66856 -0.32011,-3.34247 -0.63651,-5.00362 -0.15899,-0.8349 -0.54971,-1.62458 -0.66292,-2.46374 0.64743,0.43554 0.80894,1.75015 0.97447,2.4676 0.51591,2.23263 -0.0349,5.40859 1.53032,7.2162 m -0.65914,12.18477 c 0.44359,0.89559 0.34673,1.46847 -0.19767,2.28372 0.45613,0.1579 0.25683,0.52495 -0.17457,0.4212 0.16436,0.94886 -0.11781,1.64518 -1.04112,2.01924 l 0.42015,0.25923 c -0.19748,0.35708 -0.37248,0.4721 -0.76614,0.3292 -0.085,0.84585 -0.58905,1.41173 -1.45706,1.42137 l 0.24873,0.42646 c -0.71063,0.22259 -1.40578,-1.07593 -1.67326,-1.62954 0.58523,-0.079 0.76638,0.67562 1.33077,0.7745 0.49933,0.0876 1.24604,-0.58684 1.11025,-1.10714 -0.11883,-0.45507 -0.66006,-0.78261 -0.98395,-1.08874 l 0.001,-0.0847 0.17247,-0.25188 c 0.42753,0.14196 0.87545,0.62067 1.34786,0.55701 0.64799,-0.0873 1.1597,-0.99839 0.74478,-1.54248 -0.29828,-0.39049 -0.81376,-0.47385 -1.22504,-0.69723 l 0.002,-0.16933 c 0.45277,-0.11842 0.90624,0.11734 1.3549,-0.0101 0.71036,-0.20169 0.9517,-1.22764 0.3503,-1.68735 -0.24325,-0.18582 -1.37408,-0.14997 -1.37079,-0.41555 0.004,-0.3107 0.60254,-0.24603 0.79612,-0.2886 0.70216,-0.15462 1.08713,-0.81318 0.69476,-1.46943 -0.55079,-0.9224 -1.79616,0.1563 -2.02363,-0.61908 0.42123,-0.16929 1.03332,-0.36644 1.30063,-0.75482 0.53974,-0.78162 -0.54195,-1.43143 -1.18867,-1.44529 l 0.43379,-0.84136 0.3376,0.0889 -0.17353,0.33654 c 0.7815,0.41265 1.00242,1.03393 0.99283,1.87512 0.37921,-0.0588 0.49447,0.0694 0.58737,0.43065 l -0.33969,0.0805 -0.002,0.16932 c 0.81094,0.42818 0.68193,1.40887 0.39706,2.12176 0.57395,-0.12616 0.54877,0.47064 -0.006,0.50796 m -1.83196,-9.33677 c 0.39054,-0.97162 1.33947,-0.74545 2.21062,-0.73465 -0.26696,0.97525 -1.37887,0.98712 -2.21062,0.73465 m 1.07426,22.62106 c -0.0563,-0.10756 -0.13855,-0.22933 -0.18116,-0.34442 -0.37423,-1.02631 1.48399,-0.38312 0.51934,0.24886 -0.10329,0.0678 -0.22105,0.0734 -0.33818,0.0955 m 0.346,-0.58841 -0.3376,-0.0889 -0.004,0.33864 0.3397,-0.0805 0.002,-0.16932 m 0.19446,-22.52063 c -0.44786,-0.006 -0.941,-0.1143 -1.18944,0.32394 0.42245,0.005 1.02433,0.15411 1.18944,-0.32394 m -0.049,-2.8795 c -0.77352,-0.51026 -0.90041,-1.88524 -0.98562,-2.72938 -0.22372,-2.23831 -0.39505,-4.39978 -1.18578,-6.52692 0.67465,0.22166 0.85578,1.5929 1.01149,2.21405 0.58081,2.32555 0.52659,4.71816 1.15991,7.04225 m -0.26338,13.79508 c -0.097,0.449 -0.73245,0.27567 -0.62626,-0.16247 0.0973,-0.40175 0.71422,-0.23923 0.62626,0.16247 m -0.12747,10.92465 c -1.46935,0.97761 -0.4852,-1.7055 0,0 m -0.01,-13.46443 c -0.10046,0.45548 -0.77317,0.28109 -0.65765,-0.15727 0.10128,-0.38485 0.74734,-0.24721 0.65765,0.15727 m -1.98217,-23.90115 c -0.24315,1.44498 1.64369,1.41867 1.69426,-0.0637 l 0.59261,0.007 c -0.0164,1.32248 -1.40498,2.61566 -2.53878,1.31957 -0.35733,-0.40858 -0.61552,-1.50576 0.25191,-1.26325 m -0.12947,17.27207 c 0.44115,-0.9565 1.31405,-0.74576 2.2106,-0.73464 -0.22036,1.0418 -1.36819,0.94619 -2.2106,0.73464 m 1.50491,22.03369 c -1.02633,-1.56293 -2.11205,-3.25385 -2.73185,-5.02959 0.59673,-0.32419 0.71726,0.19865 0.94149,0.68906 0.50121,1.09629 1.10221,2.13549 1.74918,3.1546 0.27573,0.43381 0.65114,0.88655 0.0412,1.18593 m 0.28127,-2.19801 -0.25293,-0.0879 -0.0857,0.0837 0.0815,0.25503 0.25713,-0.25083 m 0.13821,-24.80754 c -0.65755,-0.37123 -0.85775,-1.43305 -0.96513,-2.12879 -0.18737,-1.20891 -0.15943,-2.43811 -0.35699,-3.64537 -0.18027,-1.09918 -0.67101,-2.22134 -0.76672,-3.31177 0.64035,0.39177 0.79709,1.61411 0.95626,2.29804 0.51605,2.22187 0.17565,4.68114 1.13258,6.78789 m -0.0136,1.10059 c -1.45483,2.53816 -3.50931,4.81664 -5.18344,7.21761 -0.50259,0.72044 -1.26373,2.35357 -2.13551,2.59839 0.20972,-0.86546 1.02778,-1.62695 1.52534,-2.35193 1.24435,-1.81478 2.56848,-3.57794 3.84389,-5.37142 0.33866,-0.47564 1.28943,-2.31048 1.94972,-2.09265 m -0.37024,23.02651 c -1.58529,0.7673 -0.38444,-1.77341 0,0 m 0.15886,-19.6422 c -0.42849,-0.13241 -0.94254,-0.19399 -1.18838,0.23928 l 1.18629,-0.07 0.002,-0.16932 m -0.19866,11.7937 c 0.15395,0.35424 -0.33289,0.62482 -0.52335,0.27903 -0.19129,-0.34666 0.37023,-0.63139 0.52335,-0.27903 m 0.1655,-15.94309 c -1.24989,-0.94707 -1.31356,-2.91363 -1.39331,-4.33561 -0.0998,-1.78717 -0.4869,-3.47976 -1.02891,-5.17783 0.72752,0.25856 0.90168,1.71396 1.01954,2.3835 0.43736,2.49024 0.45068,4.76185 1.40268,7.12994 m -2.52867,5.89577 c 0.40917,-1.0398 1.28105,-0.74618 2.21062,-0.73465 -0.28207,1.03315 -1.35334,0.90912 -2.21062,0.73465 m 2.11625,2.91486 c 0.0479,0.36926 -0.52396,0.53346 -0.59784,0.14094 -0.0803,-0.42157 0.54136,-0.57101 0.59784,-0.14094 m -0.38637,14.63393 0.25083,0.25713 -0.25083,-0.25713 m -11.56899,-23.00521 12.02281,0.0644 c -0.16248,0.47088 -0.65091,1.34763 -1.13514,1.54365 -0.69952,0.28286 -1.94188,0.027 -2.69451,0.0177 -1.66698,-0.0207 -3.33175,-0.0123 -4.99547,-0.0208 -0.69851,-0.004 -1.60023,0.197 -2.27491,-0.0212 -0.5001,-0.16183 -0.8456,-1.11488 -0.92278,-1.58348 m 11.41751,21.56381 c 0.052,0.10716 0.12673,0.22739 0.16002,0.34322 0.30776,1.05943 -1.47877,0.43965 -0.49932,-0.22609 0.10845,-0.0732 0.21699,-0.0867 0.3393,-0.11713 m 0.27715,-22.35029 c -1.70789,-1.29406 -1.3038,-4.72425 -1.63332,-6.62476 -0.15413,-0.88598 -0.50331,-1.74779 -0.62273,-2.63258 0.69874,0.39468 0.80329,1.65906 0.95689,2.38271 0.50156,2.36674 0.38743,4.60518 1.29916,6.87463 m -3.53481,18.75362 c 0.31292,-0.92498 1.68707,-1.60023 2.20642,-2.51284 0.73143,-1.28575 1.07628,-2.94259 0.69462,-4.39438 -0.20453,-0.78128 -0.70852,-1.5175 -0.83941,-2.29659 0.69822,0.3681 0.96535,1.49562 1.14439,2.21569 0.5936,2.38702 -0.6264,6.19954 -3.20602,6.98812 m 3.08414,3.93321 -0.0847,-10e-4 -0.004,0.33864 0.0889,-0.33759 m 0.032,4.23401 -1.19364,0.66259 c -0.1374,-0.25463 -0.46391,-0.62243 -0.41185,-0.92864 0.0558,-0.32963 0.77625,-0.80316 1.08629,-0.60939 0.26383,0.16516 0.4185,0.5974 0.5192,0.87544 m 0.17777,-21.16609 c -0.4123,-0.005 -0.91971,-0.12334 -1.18839,0.23929 l 1.18524,0.0147 0.003,-0.25398 m -0.0216,-5.08064 c -3.02152,-0.0375 -6.04324,0.009 -9.05969,-0.0276 -0.70861,-0.009 -2.61707,0.32699 -2.78749,-0.5426 2.96734,0.0368 5.92557,-0.0112 8.89038,0.0255 0.82036,0.0102 2.55264,-0.32085 2.9568,0.5447 m -0.94708,21.74926 c -0.0449,-0.14002 -0.10656,-0.28345 -0.1395,-0.42687 -0.24203,-1.03534 1.44137,-0.29135 0.47853,0.33133 -0.10498,0.0674 -0.2219,0.0733 -0.33903,0.0955 m 0.7868,-15.65478 c -0.61037,0.87811 -1.22667,0.66285 -2.20957,0.64999 0.22132,-0.913 1.43559,-0.98617 2.20957,-0.64999 m -0.43983,14.9817 -0.25713,0.25083 0.25503,-0.0815 0.002,-0.16932 m -0.22591,4.56951 c -0.49809,0.15411 -0.66026,0.39434 -0.34914,0.8424 0.38294,-0.22268 0.53437,-0.41682 0.34914,-0.8424 m 0.28547,-24.79555 c -0.13798,-0.34403 -0.65312,-0.11308 -0.47666,0.20121 0.14662,0.26244 0.59741,0.0984 0.47666,-0.20121 m -0.16678,16.93342 c 0.0824,0.32379 -0.43846,0.53478 -0.56059,0.20947 -0.13933,-0.37293 0.45887,-0.61004 0.56059,-0.20947 m -9.81567,-15.88193 9.82164,0.0371 c -0.20533,0.64868 -1.49692,0.46941 -2.07355,0.47056 -1.93484,0.004 -3.87082,-0.0362 -5.80615,-0.0602 -0.59432,-0.007 -1.70308,0.22824 -1.94194,-0.44744 m 9.7681,4.35476 c -0.43284,-0.0549 -0.99306,-0.14889 -1.27305,0.23823 0.4403,0.1362 1.01855,0.21018 1.27305,-0.23823 m 0.0119,-7.78978 c -0.66194,-0.35775 -0.67947,-1.53906 -0.77104,-2.21107 -0.29011,-2.14354 -0.60964,-4.1667 -1.07116,-6.2791 0.67863,0.2411 0.78907,1.50892 0.90501,2.12806 0.39546,2.11428 0.48319,4.25768 0.93719,6.36211 m -1.93083,25.97072 c 0.1973,-0.13744 0.39049,-0.28559 0.59776,-0.40774 0.44611,-0.26322 1.10649,0.0836 0.94508,0.67302 -0.17563,0.64261 -1.05447,0.84255 -1.35612,0.24507 -0.0844,-0.16599 -0.13813,-0.33227 -0.18672,-0.51035 m 1.75413,-25.38021 -0.42539,0.16408 0.001,-0.0847 0.42434,-0.0795 m -2.396,8.86104 c 0.47775,-0.97155 1.35977,-0.7452 2.29527,-0.7336 -0.33551,0.97229 -1.41887,1.00441 -2.29527,0.7336 m 1.30522,3.99583 0.4275,-0.3334 -0.50796,-0.006 0.76614,-0.32919 c 0.0275,0.24454 0.13751,0.5868 0.0228,0.82009 -0.18415,0.37502 -0.61888,0.12984 -0.70853,-0.1512 m -0.10041,1.26855 0.51006,-0.16303 -0.42015,-0.25923 0.76509,-0.24453 c -0.007,0.5387 -0.27036,1.52271 -0.855,0.66679 m 0.59162,11.3549 c -10e-4,-0.44591 -0.68674,-0.27042 -0.73003,0.0803 -0.0602,0.48621 0.73173,0.32863 0.73003,-0.0803 m -1.91582,6.66407 -10e-4,0.0847 c 1.10304,0.0896 0.43468,0.59024 -0.34178,0.24978 l 0.0794,0.42436 1.1842,0.0994 c -0.004,1.22002 1.38366,1.0164 0.59814,2.2936 -0.2316,0.37697 -0.76614,0.94358 -0.79543,1.39368 -0.0407,0.61761 0.51752,1.42046 -0.10446,2.00394 -0.24332,0.22898 -0.811,0.19095 -1.12637,0.22243 -0.90375,0.0902 -1.80435,0.26899 -2.71324,0.29752 -0.29394,0.009 -0.78931,0.0805 -1.01682,-0.14504 -1.26471,-1.25386 -1.03998,-3.87713 -1.34115,-5.46933 -0.0953,-0.50558 -0.56346,-1.40257 -0.27914,-1.86593 0.94806,-1.54793 3.56526,-2.02139 5.21071,-2.04163 0.47848,-0.006 1.15999,0.0716 1.42538,0.51944 0.29857,0.50454 -0.21679,1.84658 -0.77841,1.93318 m 1.38815,-2.69235 -3.66548,-7.58137 -1.02788,-3.14566 c 0.78702,0.036 0.96144,1.40175 1.21084,2.04717 0.84337,2.18386 1.75746,4.33124 2.88269,6.38624 0.29641,0.5416 1.48587,1.99183 0.59983,2.29362 m 0.79078,-29.62581 -0.76719,0.41385 c 0.16368,-0.29408 0.4206,-0.5284 0.76719,-0.41385 m -0.4503,15.8283 c -0.34632,-0.0674 -0.56608,-0.16731 -0.67098,-0.51636 l 0.50796,0.006 -0.33234,-0.51216 c 0.7881,0.0168 0.79559,0.36879 0.49536,1.02222 m 0.28836,-16.42273 c -0.54237,-0.44041 -0.59203,-1.21621 -0.67704,-1.87119 -0.19176,-1.47062 -0.23609,-2.94863 -0.51518,-4.4094 -0.13045,-0.67816 -0.53424,-1.43794 -0.48171,-2.12281 0.56082,0.45488 0.7122,1.35794 0.83834,2.04255 0.26724,1.46072 0.37424,2.93671 0.53464,4.40964 0.0683,0.63353 0.35022,1.32381 0.30095,1.95121 m -0.0717,12.61542 -0.76404,0.15987 0.34598,-0.58842 -0.25398,-0.003 0.17563,-0.50586 0.16931,0.002 0.3271,0.93546 m 0.034,-22.68442 c 0.0429,0.30079 -0.43995,0.38058 -0.47581,0.0635 -0.0366,-0.31841 0.43218,-0.36856 0.47581,-0.0635 m -0.15927,19.12655 c -0.49357,-0.006 -0.92955,-0.0809 -1.27411,0.32289 0.46225,0.14282 1.10052,0.22398 1.27411,-0.32289 m -2.70577,33.83571 -0.50796,-0.006 c -0.11983,-0.92002 0.43744,-1.81784 1.46117,-1.75079 0.67937,0.0445 1.52987,0.76495 1.30885,1.51816 -0.0424,0.14393 -0.18707,0.26839 -0.31396,0.12236 -0.21203,-0.24514 -0.14834,-0.60183 -0.42305,-0.84512 -0.82581,-0.73149 -1.49712,0.14359 -1.52505,0.96168 m 2.4227,-17.83628 -1.10794,0.57897 -0.41175,-0.93651 1.19259,-0.57793 0.3271,0.93547 m 0.13512,-24.55355 -0.93756,0.49641 0.85605,-0.75144 0.0837,0.0857 -0.002,0.16932 m -0.71913,17.01043 0.17458,-0.4212 -0.24768,-0.51111 c 0.80018,-0.13902 0.45714,0.62159 0.0731,0.93231 m -1.78165,-6.54192 c 0.37682,-0.95748 1.39358,-1.01243 2.29528,-0.7336 -0.37682,0.95747 -1.39358,1.01243 -2.29528,0.7336 m 1.98979,23.90251 -0.76195,-0.009 -10e-4,0.0847 c 0.30931,0.11594 0.55683,0.2301 0.763,-0.0753 m 0.22373,-32.31838 c -0.151,-0.24997 -0.61277,-0.0897 -0.48088,0.20005 0.13268,0.29343 0.6684,0.10955 0.48088,-0.20005 m -0.3486,21.90156 -0.68148,0.33024 c 0.2299,0.64831 0.9105,0.25201 0.68148,-0.33024 m 0.0969,5.84365 c -2.99275,-0.0371 -5.97976,0.0106 -8.97504,-0.0266 -0.73484,-0.009 -2.63143,0.32486 -2.87214,-0.54366 2.98257,0.037 5.99999,0.20091 8.97493,0.0342 0.74904,-0.0419 2.58885,-0.30354 2.87225,0.53612 m 0.29429,-30.56337 c -0.65652,-0.38426 -0.63889,-1.53364 -0.74141,-2.2107 -0.30998,-2.04269 -0.46398,-3.96295 -1.10498,-5.94082 0.72219,-0.0624 0.86083,1.25283 0.98286,1.79032 0.46405,2.04638 0.62094,4.2793 0.86353,6.3612 m -2.82558,-11.12722 c 0.69816,0.0315 0.72336,0.8678 1.4289,0.85056 0.72757,-0.0177 0.65298,-0.96734 1.44851,-0.73021 -0.44777,1.62602 -2.80125,1.79539 -2.87741,-0.12038 m 2.64997,11.63308 -1.27935,0.74619 c 0.19946,-0.38049 0.84519,-1.03701 1.27935,-0.74619 m -0.43252,23.27188 c -0.0519,0.77226 -1.46796,0.93344 -1.35881,-0.0848 0.0746,-0.69408 1.42307,-0.86448 1.35881,0.0848 m -0.10109,6.1031 -12.0228,-0.0644 c 0.11409,-0.46115 0.64266,-1.43359 1.13543,-1.56778 0.53694,-0.14584 1.20895,0.015 1.76313,-0.0181 1.85656,-0.1111 3.72931,-0.0253 5.58845,-0.002 0.72808,0.009 2.02565,-0.22704 2.68564,0.0843 0.39986,0.18896 0.76208,1.15923 0.85015,1.56828 m 0.15362,-19.21913 c -0.49949,-0.006 -1.0651,-0.14352 -1.27515,0.40756 0.48425,0.006 1.13917,0.17924 1.27515,-0.40756 m -0.29395,23.70485 c -0.76348,0.11424 -1.71894,-0.60937 -2.20537,0.31135 l 2.20222,-0.0574 0.003,-0.25398 m 0.26126,-34.71277 c -0.62256,-0.39273 -0.672,-1.45887 -0.75855,-2.12624 -0.25976,-1.99566 -0.65457,-3.82086 -1.09102,-5.7713 0.69167,0.21468 0.82514,1.33317 0.95623,1.95934 0.41167,1.96834 0.36889,3.98438 0.89334,5.9382 m -0.24146,19.47184 -10e-4,0.0847 c -0.67365,0.45006 -1.4265,0.321 -2.20538,0.31134 l -4.233,-0.0525 c -0.51305,-0.006 -1.75718,0.22207 -1.94299,-0.36278 l 1.01861,-0.20414 1.86041,0.19319 0.59498,-0.18213 0.63924,0.20801 0.63115,-0.23197 1.77562,0.2033 1.86241,0.0331 m -0.65462,4.98759 0.0847,10e-4 0.51216,-0.33233 c -0.21417,-0.55058 -0.82843,-0.17895 -0.59683,0.33128 m 0.80402,-23.86781 c -0.35638,0.4701 -0.95008,0.89109 -1.5365,0.99702 0.2376,-0.38197 1.07125,-1.10177 1.5365,-0.99702 m -0.46928,37.84309 c -0.27116,-0.32502 -0.33899,-0.52172 -0.24243,-0.9344 -0.7742,-0.11409 -2.14036,-0.21926 -2.71543,0.47436 l 2.11021,0.53421 -0.001,0.0847 -1.09954,-0.0983 -10e-4,0.0847 c 0.75788,0.47332 1.21778,0.12339 1.94929,-0.14519 m -0.0106,0.84656 -1.35377,-0.0822 -1.68666,-0.54827 c 0.69645,1.05774 2.00326,0.96463 3.03833,0.79974 l 0.002,-0.16932 m 0.15308,-25.99277 -0.93353,0.17073 -1.86019,-0.21155 -1.86512,0.18594 -1.86028,-0.20411 -0.67948,0.16905 -1.09917,-0.12828 c 0.46927,-0.62813 1.54962,-0.48518 2.29213,-0.47952 2.00403,0.0149 4.00697,0.0496 6.01088,0.0745 l -0.005,0.42329 m -0.11887,9.56656 -1.19261,0.57791 -0.32709,-0.93545 c 0.78402,-0.40458 1.24974,-0.67942 1.5197,0.35754 m 0.10887,-22.43705 c -0.5502,0.46464 -1.238,1.03079 -1.96189,1.1611 0.31365,-0.37045 1.51401,-1.43701 1.96189,-1.1611 m -0.51267,36.77001 -0.0562,0.0276 0.0562,-0.0276 m 0.26715,-37.45043 c -0.88133,-0.96605 -0.69407,-2.61528 -0.82391,-3.82051 -0.14337,-1.34453 -0.6537,-2.52544 -0.94413,-3.822 0.63866,0.1179 0.7968,1.15761 0.92042,1.70487 0.28736,1.27298 0.31831,2.53186 0.48697,3.81633 0.0905,0.69325 0.43196,1.42406 0.36065,2.12131 m -1.04645,22.93344 c 0.14348,0.44717 0.50606,0.22838 0.84556,0.0952 -0.17314,-0.44567 -0.49228,-0.24658 -0.84556,-0.0952 m 0.69161,5.68169 -3.21814,0.0448 -6.68816,-0.0829 c 0.41185,-0.64137 1.36151,-0.40649 2.03709,-0.39811 l 5.67224,0.0703 c 0.67813,0.008 1.81695,-0.33047 2.19697,0.36594 m -0.10813,8.72 -0.0857,0.0836 0.0857,-0.0836 m -0.009,0.76194 -0.93442,0.24243 c 0.0903,-0.52369 0.48439,-0.55114 0.93652,-0.41176 l -0.002,0.16933 m -1.07473,-15.76254 c -0.0894,-0.16267 -0.19068,-0.3276 -0.23413,-0.51103 -0.31852,-1.35373 2.49119,-0.48494 0.82953,0.29445 -0.19418,0.0913 -0.38894,0.16029 -0.5954,0.21658 m 1.00756,7.17524 c -0.2008,-0.26328 -0.6813,0.0418 -0.44,0.31572 0.21293,0.24167 0.64996,-0.0404 0.44,-0.31572 m 0.36471,-29.08858 c -0.63937,0.62196 -1.46183,1.32649 -2.38834,1.40983 0.33582,-0.38237 1.98945,-1.67625 2.38834,-1.40983 m -0.45667,36.82717 -0.3376,-0.0889 -0.001,0.0847 0.33865,0.004 m 0.17387,-33.75904 c -0.0896,-0.28366 -0.62929,-0.19163 -0.54008,0.12471 0.0917,0.32248 0.64602,0.20937 0.54008,-0.12471 m -0.40915,17.97595 c -0.18657,-0.25091 -0.78487,0.13235 -0.58239,0.39591 0.19248,0.25115 0.78728,-0.12106 0.58239,-0.39591 m 0.28057,-21.98038 c -0.58424,-0.34255 -0.56686,-1.2663 -0.64319,-1.87079 -0.23286,-1.84284 -0.73003,-3.47049 -1.13116,-5.26376 0.57599,0.18792 0.76206,1.09292 0.93671,1.6204 0.57953,1.74705 0.51116,3.70935 0.83764,5.51415 m -0.46823,37.75843 -0.4233,-0.005 -0.001,0.0847 0.42436,-0.0795 m 0.37508,-37.0824 c -0.59786,0.82416 -1.80122,1.51948 -2.81479,1.65855 l 10e-4,-0.0847 c 0.66716,-0.26802 1.32697,-0.62571 1.87637,-1.09307 0.27811,-0.23634 0.54607,-0.60864 0.93737,-0.48083 m -1.065,38.08973 -0.0805,-0.33969 0.33969,-0.0805 -0.25923,0.42014 m 0.65119,-38.8569 c -0.55566,-0.32535 -0.60389,-1.28326 -0.66773,-1.8711 -0.19732,-1.84112 -0.79437,-3.40295 -1.19232,-5.17984 0.62771,0.11447 0.78245,1.08726 0.95196,1.62059 0.54856,1.7161 0.70073,3.64795 0.90809,5.43035 m -0.63224,42.92908 c 0.0285,0.29892 -0.41876,0.37906 -0.4538,0.0638 -0.035,-0.31153 0.42461,-0.37348 0.4538,-0.0638 m -2.7846,-40.51594 0.001,-0.0847 c 1.27526,-0.41662 2.15506,-1.17115 3.24123,-1.9073 0.13825,1.07394 -2.38967,1.92819 -3.24228,1.99195 m -3.35801,-2.3278 0.42435,-0.0794 0.001,-0.0847 -0.76194,-0.009 0.004,-0.33864 1.09953,0.0983 -0.0794,-0.42435 -1.2678,-0.18507 -0.15673,-1.01803 c -0.40759,0.0931 -0.83262,-0.11353 -0.65977,-0.60097 0.22724,-0.63942 0.99605,-1.25267 1.08887,-1.90977 0.0808,-0.56876 -0.58599,-1.63476 0.16252,-2.11236 0.45063,-0.28678 1.23991,-0.22865 1.75554,-0.29473 0.73359,-0.0942 2.35874,-0.52561 3.01637,-0.0937 0.3452,0.22681 0.50108,0.90334 0.62348,1.27546 0.38512,1.17107 0.63638,2.41854 0.70494,3.64969 0.0361,0.63652 0.67553,1.92479 0.33868,2.45939 -0.90867,1.44376 -3.16239,1.89963 -4.71378,1.98158 -0.56598,0.0299 -1.49874,0.13873 -1.88349,-0.38085 -0.478,-0.64614 0.28735,-1.25409 0.30339,-1.93246 m 5.88973,30.00228 c -0.18043,-0.26642 -0.57143,-0.009 -0.41483,0.26751 0.18063,0.31985 0.61773,0.0314 0.41483,-0.26751 m 0.23933,-38.89444 c 0.0429,0.30077 -0.43994,0.38056 -0.4758,0.0635 -0.0367,-0.3184 0.43217,-0.36855 0.4758,-0.0635 m -0.5813,53.15992 -1.42888,-0.85157 -1.36491,0.81693 c 0.0654,-1.79121 2.7332,-1.77066 2.79379,0.0346 m 0.32321,-40.33519 c -0.17124,-0.25656 -0.67181,-0.0393 -0.44346,0.25428 0.18837,0.24214 0.62637,0.018 0.44346,-0.25428 m -3.20674,-13.89136 c 0.68039,-0.17445 0.6712,0.70425 1.34545,0.75173 0.73348,0.0517 0.80647,-0.91861 1.533,-0.71603 -0.47231,1.5567 -2.52977,1.68605 -2.87845,-0.0357 m 2.09708,49.39047 -0.25503,0.0815 -0.001,0.0847 0.25608,-0.16618 m 0.008,-7.4511 -2.1299,1.05376 -1.2796,0.76676 c 0.4264,-0.79139 2.45621,-2.17206 3.4095,-1.82052 m -0.47472,-1.93534 c -0.095,-0.3342 -0.62912,-0.20543 -0.54021,0.13572 0.0914,0.34829 0.64082,0.21743 0.54021,-0.13572 m 0.0438,-25.99768 c -0.0465,-0.34494 -0.61211,-0.21123 -0.5155,0.12316 0.0812,0.28051 0.55431,0.16089 0.5155,-0.12316 m -0.66967,27.91937 -1.53533,0.90381 -1.19479,0.7558 c 0.33806,-0.69995 1.90176,-1.84414 2.73012,-1.65961 m 0.0616,-18.62734 c -0.772,0.11896 -0.97371,-1.29953 -1.16214,-1.87722 -0.73262,-2.23777 -1.82623,-4.38417 -2.90194,-6.47114 -0.28691,-0.55741 -1.54714,-1.96845 -0.71393,-2.37971 1.93028,3.23102 4.04535,6.99184 4.77801,10.72807 m -0.51681,28.02042 c -0.63956,-0.11386 -0.80117,-1.07945 -0.96719,-1.62079 -0.50449,-1.65162 -0.83883,-3.70985 -0.89286,-5.43015 0.54255,0.35854 0.54993,1.19665 0.65524,1.78626 0.17186,0.95792 0.15975,1.93423 0.40115,2.88386 0.20422,0.80668 0.66898,1.56553 0.80366,2.38082 m 0.40913,-46.64993 -2.27478,-0.91879 -1.2736,0.28209 c 0.39203,0.41078 0.85131,0.17728 1.35218,0.20931 0.72338,0.0463 1.47711,0.71814 2.1962,0.42739 m -7.89836,36.05751 c 0.34865,-1.00837 1.32115,-2.00104 1.95917,-2.8546 1.16066,-1.55367 2.28526,-3.13547 3.4325,-4.69913 0.49352,-0.6727 1.18291,-2.11892 2.01298,-2.34589 -0.24834,0.90767 -1.14127,1.7656 -1.68914,2.51925 -1.25425,1.72618 -2.43563,3.51625 -3.74103,5.20335 -0.45607,0.58892 -1.15107,2.21356 -1.97448,2.17702 m 7.0978,1.18877 c -0.638,0.44357 -1.64294,1.38876 -2.38938,1.49449 0.24503,-0.64006 1.66612,-1.75476 2.38938,-1.49449 m -0.20008,11.01418 c 0.0809,0.30617 -0.38398,0.44265 -0.46738,0.13536 -0.0843,-0.31163 0.38164,-0.45912 0.46738,-0.13536 m 0.56682,-47.4191 c -0.60693,-0.0145 -1.66797,-0.28064 -2.10811,-0.70353 l 1.09848,0.18297 c -0.61744,-0.73635 -1.3177,-0.32641 -2.03184,-0.0252 0.21325,0.3509 0.31761,0.53899 0.15777,0.93336 0.94224,0.15056 2.04101,0.17383 2.8837,-0.3876 m -0.5199,34.48153 c -0.18062,-0.31985 -0.61772,-0.0314 -0.41483,0.2675 0.18044,0.26642 0.57143,0.009 0.41483,-0.2675 m -0.0481,11.31962 c -0.61225,-0.19972 -0.79864,-1.14723 -0.9653,-1.70544 -0.51462,-1.72253 -0.60167,-3.64739 -0.80904,-5.42911 0.56597,0.38136 0.54733,1.33819 0.63028,1.9553 0.245,1.81937 0.68498,3.41565 1.14406,5.17925 m 0.0345,-37.33276 c -0.0504,-0.30874 -0.55574,-0.25016 -0.51052,0.0631 0.0445,0.30766 0.56245,0.25558 0.51052,-0.0631 m -0.0761,-12.78498 c 0.0691,0.30026 -0.37747,0.46406 -0.46069,0.14221 -0.0808,-0.31277 0.38437,-0.4738 0.46069,-0.14221 m -0.55108,50.11046 c -0.65471,-0.12098 -0.84761,-1.2265 -0.97356,-1.79021 -0.42199,-1.88599 -0.64548,-3.93836 -0.87914,-5.85335 1.15253,1.01343 0.76341,3.3732 0.99608,4.75405 0.17041,1.00702 0.63594,1.90787 0.85662,2.88951 m -0.0346,2.79379 c -0.82325,0.2234 -0.68286,-0.78704 -1.42916,-0.82915 -0.77168,-0.0435 -0.7351,0.96725 -1.53499,0.87706 0.3966,-1.802 2.51246,-1.86061 2.96415,-0.048 m -0.0181,-12.19311 -1.96293,1.24575 c 0.25785,-0.51348 1.3487,-1.42187 1.96293,-1.24575 m 0.0459,-19.74633 c -0.24888,0.60927 -1.60427,0.5917 -1.29164,-0.24311 0.26012,-0.69634 1.65232,-0.64224 1.29164,0.24311 m 0.14949,-16.49138 -0.42539,0.16407 c 0.0896,-0.25841 0.19371,-0.32664 0.42539,-0.16407 m -0.006,0.50796 -0.0857,0.0836 0.0857,-0.0836 m -0.11198,2.20012 -0.0847,-0.001 c -0.60707,0.61168 -1.87216,-0.40688 -2.1207,0.31239 0.66196,0.0142 1.90056,0.57446 2.20536,-0.31134 m -0.41881,13.28844 -0.68042,0.24558 c 0.13258,0.64347 0.85732,0.30623 0.68042,-0.24558 m -0.19706,29.5485 c -0.68758,0.002 -0.81189,-1.17136 -0.94159,-1.70514 -0.47849,-1.97272 -0.4809,-4.032 -0.91006,-6.02308 0.60602,0.36043 0.66065,1.48591 0.75686,2.12621 0.28935,1.93084 0.35887,3.76716 1.09479,5.60201 m -2.32797,-51.25614 0.50691,0.091 c -0.007,0.71744 0.76211,1.36245 1.41818,0.82757 0.28142,-0.22953 0.23474,-0.69834 0.4953,-0.88453 0.21527,-0.1533 0.41858,0.0441 0.43453,0.26042 0.0735,0.96729 -1.11781,1.58037 -1.94282,1.2632 -0.70114,-0.26966 -0.91888,-0.87345 -0.9121,-1.55761 m 2.6304,6.3831 -1.26781,-0.18508 -0.001,0.0847 c 0.42634,0.17023 0.84965,0.37862 1.26886,0.10045 m -1.37217,15.05479 c -0.16228,-0.5009 -0.0546,-1.73994 0.85138,-1.33067 1.03904,0.46979 -0.38726,1.25396 -0.85138,1.33067 m 0.36564,-15.82934 0.93441,-0.24244 c -0.11123,0.50276 -0.63775,0.76355 -0.93441,0.24244 m 0.41654,34.35012 c -0.18415,-0.2397 -0.57835,0.0706 -0.41541,0.31483 0.18369,0.2767 0.62124,-0.0475 0.41541,-0.31483 m 0.0644,1.98064 c -0.45608,0.38477 -1.01638,0.91202 -1.62115,0.99597 0.30918,-0.41852 1.05078,-1.15944 1.62115,-0.99597 m 0.0392,-9.99096 c -0.59906,0.85353 -1.40201,0.87371 -2.37887,0.64788 0.44656,-0.77853 1.54868,-1.23014 2.37887,-0.64788 m -0.0459,-18.01023 c -0.13455,-0.27939 -0.62282,-0.0985 -0.48,0.19676 0.13456,0.27939 0.62283,0.0985 0.48,-0.19676 m -0.0643,6.40871 c -1.32085,0.4052 0.20829,0.95668 0,0 m -0.29849,30.90201 c -0.80523,-0.13758 -0.9052,-1.29427 -1.04681,-1.96046 -0.43529,-2.04246 -0.26904,-4.18281 -0.88426,-6.19211 0.7175,0.38451 0.69182,1.49908 0.79815,2.2114 0.30647,2.05128 0.48861,3.95615 1.13292,5.94117 m -0.96824,-31.17174 c -0.50127,-0.8869 -0.17562,-1.20048 0.69724,-1.60014 0.5083,0.86591 0.28239,1.33041 -0.69724,1.60014 m 0.8679,11.94968 c -0.49187,-0.006 -1.06101,-0.13144 -1.27515,0.40755 0.48426,0.006 1.09803,0.15104 1.27515,-0.40755 m -0.29215,9.90315 -10e-4,0.0847 c -0.38703,0.27953 -0.77716,0.74015 -1.2783,0.66154 0.271,-0.34447 0.80766,-0.87778 1.27935,-0.74619 m 0.0305,-22.94607 c -1.21751,0.402 0.30079,0.93937 0,0 m 0.25266,-13.54458 -0.0836,-0.0858 0.0836,0.0858 m -0.65265,45.8001 c -0.64634,-0.38701 -0.77116,-1.51895 -0.8828,-2.21244 -0.32785,-2.03564 -0.48537,-4.08152 -0.87684,-6.10735 0.6755,0.35715 0.68251,1.36222 0.7723,2.04174 0.15638,1.1827 0.18887,2.38648 0.3953,3.56117 0.15738,0.89652 0.5134,1.82083 0.59204,2.71688 m -2.07166,-17.29902 c 0.27349,-1.09143 1.32358,-0.83032 2.21166,-0.81931 -0.27182,1.09476 -1.3185,0.83039 -2.21166,0.81931 m 2.31283,-15.80521 -1.10794,0.57898 -0.41175,-0.93651 c 0.76393,-0.49221 1.33818,-0.77883 1.51969,0.35753 m 0.0497,-10.83754 -0.16827,-0.0868 0.16827,0.0868 m -0.19947,16.08543 c -2.1436,1.20346 -3.35341,3.92069 -2.9191,6.31556 0.16883,0.92909 0.70249,1.66373 0.94635,2.55066 -0.61479,-0.20017 -0.87239,-1.14003 -1.0491,-1.70648 -0.61815,-1.97792 -0.10633,-3.92134 0.88645,-5.6621 -0.59737,0.10275 -0.98513,-0.58359 -1.60362,-0.41599 -0.6253,0.16946 -0.99335,1.03466 -0.56376,1.55641 0.2928,0.35545 0.81331,0.44218 1.21408,0.62589 l -0.0889,0.33759 c -0.40822,-0.0601 -0.85373,-0.25453 -1.26826,-0.14832 -0.7356,0.18824 -0.9553,1.10804 -0.42491,1.62781 0.21415,0.20969 1.47404,0.28255 1.42095,0.53489 -0.0503,0.23765 -0.59191,0.2085 -0.77194,0.25038 -0.68613,0.15932 -1.07094,0.66901 -0.75089,1.35266 0.51142,1.09379 1.77164,-0.0907 2.08016,0.70444 -0.45304,0.20743 -1.11531,0.35408 -1.36254,0.83111 -0.41121,0.79506 0.57747,1.43365 1.25163,1.28435 l -0.51951,0.92496 -0.16932,-0.002 0.091,-0.50691 c -0.7808,-0.19605 -1.16157,-1.03564 -0.99387,-1.79046 -0.3402,0.0525 -0.47308,-0.0199 -0.58843,-0.34599 l 0.34075,-0.16512 c -0.60763,-0.64157 -0.89706,-1.40416 -0.39602,-2.20641 -0.36875,-0.0334 -0.47745,-0.14436 -0.50166,-0.51426 l 0.50796,0.006 c -0.41905,-0.8261 -0.47403,-1.58105 0.19768,-2.28373 l -0.42121,-0.17456 0.17457,-0.42121 0.42225,0.0899 c -0.18698,-0.8311 0.0441,-1.70951 0.95541,-1.93563 -0.24918,-0.32223 -0.26912,-0.48928 -0.0742,-0.84766 l 0.50481,0.26028 c 0.0282,-0.83876 0.49327,-1.47227 1.37345,-1.50708 -0.0662,-0.19617 -0.12058,-0.65475 0.2468,-0.44131 0.45312,0.26337 1.18119,1.29745 1.09097,1.81267 l -0.16931,-0.002 c -0.23903,-0.32159 -0.52841,-0.74804 -0.92036,-0.89134 -0.55042,-0.20132 -1.22757,0.39468 -1.21329,0.94955 0.0172,0.66346 0.83647,0.82789 0.9295,1.45098 l 0.0847,10e-4 c 0.37881,-0.70843 1.25235,-1.57303 2.05389,-1.75267 l -0.003,0.25398 m 0.10621,-15.40902 -1.09848,-0.18296 -10e-4,0.0847 1.09953,0.0983 m -0.38282,9.76514 c -0.19868,-0.29747 -0.78572,0.13251 -0.5826,0.41386 0.18812,0.26075 0.77381,-0.12801 0.5826,-0.41386 m -0.10153,15.63084 c -0.46309,-0.006 -1.01527,-0.13316 -1.2741,0.3229 0.49817,0.0456 1.04598,0.25217 1.2741,-0.3229 m -0.10603,8.55069 c -0.26266,0.35601 -0.55942,0.66096 -1.02327,0.58001 0.24151,-0.28869 0.62313,-0.67727 1.02327,-0.58001 m -0.11338,9.1433 -0.0857,0.0836 c -0.63332,-0.412 -0.74574,-1.52092 -0.88619,-2.21249 -0.415,-2.04035 -0.61927,-4.20899 -0.87135,-6.27662 0.66267,0.36715 0.66835,1.61674 0.75646,2.29556 0.27061,2.0753 0.34935,4.12453 1.08679,6.10994 m -0.12478,-11.04264 c -0.16213,-0.24053 -0.61103,-0.0243 -0.47565,0.25609 0.15437,0.32036 0.66772,0.0287 0.47565,-0.25609 m 0.0965,-27.65332 c -0.97569,-0.0482 -1.66788,0.73605 -2.3872,1.31832 -1.39672,1.12991 -2.9671,2.87969 -4.61688,3.59055 -0.29425,-1.26189 -0.89868,-2.63821 -2.42154,-2.73957 0.39464,-0.68807 1.42452,0.24696 1.94202,0.43982 1.35444,0.50503 2.36348,-0.15595 2.72794,-1.48267 -0.35426,0.0945 -0.65478,0.15667 -1.01681,0.0583 -1.28608,-0.34964 -4.08308,-2.44697 -4.53433,0.21159 -0.0548,0.32286 0.0346,0.62337 0.11713,0.93286 -1.78825,0.33786 -0.77449,2.91543 -0.11428,3.89355 0.21617,0.32062 0.48808,0.58531 0.64711,0.93943 l -1.87933,1.33147 0.0228,-15.49491 0.0483,-3.89437 0.10545,-1.47175 1.09959,-0.11083 3.47121,0.0317 2.87845,0.0357 1.32937,0.0676 1.11046,1.19691 1.4252,1.83172 -0.13552,1.43776 0.18232,0.93366 -1.16342,2.18674 0.79183,0.80761 0.587,1.75765 -0.42097,1.17258 0.20414,1.01861 m -0.0139,4.06076 c 0.0602,0.74292 -1.41089,1.11104 -1.44121,0.0735 -0.0218,-0.76961 1.36047,-1.07481 1.44121,-0.0735 m -0.0756,9.9939 -0.58947,-0.26133 0.60207,-0.7546 -0.0126,1.01593 m -2.3093,8.69269 c 0.27275,-1.10066 1.32477,-0.85782 2.21062,-0.73465 -0.34692,1.00383 -1.34031,0.74544 -2.21062,0.73465 m 1.9081,17.72011 c -0.004,0.33432 -0.53402,0.31937 -0.52995,-0.009 0.004,-0.34075 0.53418,-0.33249 0.52995,0.009 m 0.22451,-25.82229 -0.50692,-0.091 0.33235,0.51216 c -0.94342,0.0811 -0.73864,-1.13761 0.26343,-0.75879 l -0.0889,0.33758 m -0.042,3.38642 -0.34283,0.33444 0.25398,0.003 -10e-4,0.0847 -0.17353,0.33654 -0.16931,-0.002 c -0.12428,-0.22076 -0.36395,-0.55802 -0.26833,-0.82643 0.14213,-0.39985 0.60409,-0.23468 0.70107,0.0697 m -0.3409,20.65609 c -0.73938,-0.5996 -0.88108,-2.07755 -1.00203,-2.976 -0.30322,-2.24649 -0.40201,-4.24931 -1.25297,-6.36602 1.77928,1.40995 1.33615,4.71085 1.69492,6.7102 0.14576,0.8101 0.62166,1.83047 0.56008,2.63182 m 0.11233,-9.05865 -0.68148,0.33025 c 0.15168,-0.2822 0.36766,-0.49222 0.68148,-0.33025 m -0.45119,-25.06885 c 1.49679,-0.45934 -0.46649,-1.23448 0,0 m -2.59515,18.08788 c -0.80703,-1.15353 -1.56173,-2.29318 -1.94945,-3.66513 -0.97175,-3.43758 0.036,-7.55104 2.795,-9.89598 0.66748,-0.5675 1.38124,-1.17921 2.21977,-1.47271 0.0783,0.17158 0.18609,0.35675 0.072,0.5422 -0.17802,0.28891 -0.66314,0.48924 -0.93399,0.68588 -0.56049,0.40626 -1.05152,0.87814 -1.54022,1.367 -2.13914,2.14051 -2.91285,5.74274 -2.03903,8.61138 0.36777,1.20607 1.24993,2.10455 1.69142,3.23847 0.12062,0.30996 -0.0617,0.46426 -0.31552,0.58889 m 2.54121,-6.91169 0.42015,0.25922 -0.003,0.25399 c -0.75345,-0.0123 -0.84243,-0.3472 -0.58003,-1.02328 l 0.67518,0.17772 c -0.0966,0.28 -0.22319,0.31366 -0.51216,0.33235 m 0.49522,1.02222 -0.51111,0.24768 -0.001,0.0847 0.50691,0.091 -0.59786,0.41596 -0.24139,-1.01907 c 0.34765,-0.0393 0.62316,-0.13359 0.8445,0.17982 m -0.0672,5.41823 c -0.47494,-0.006 -0.99166,-0.12568 -1.2741,0.32289 0.46309,0.006 1.01528,0.13317 1.2741,-0.32289 m -0.58137,-14.57093 c -0.45275,-1.38579 -1.28571,-2.70101 -2.06821,-3.92062 -0.2708,-0.42232 -0.80218,-1.06598 -0.0689,-1.27095 0.69814,1.26234 1.48078,2.47059 2.15242,3.75232 0.25064,0.47786 0.78256,1.2831 -0.0148,1.43926 m 0.12364,30.99192 c -0.77412,-0.39275 -0.90706,-1.68956 -1.0532,-2.46858 -0.45509,-2.42662 -0.43944,-4.6436 -1.37007,-6.96019 0.81151,0.4507 1.04647,1.71439 1.20455,2.55513 0.43694,2.31902 0.33204,4.63269 1.21872,6.87364 m -0.83527,-35.06506 c -0.50889,-0.88759 -0.46755,-1.48927 0.69828,-1.6848 0.48998,0.90953 0.33178,1.30892 -0.69828,1.6848 m -1.35359,20.38945 c 0.35711,-1.07541 1.27194,-0.83096 2.21166,-0.81931 -0.23295,1.10075 -1.33966,0.83013 -2.21166,0.81931 m 1.89394,17.9742 -0.42225,-0.0899 c 0.006,-1.569 -1.93116,-1.58904 -1.6932,-0.021 -0.90969,0.22961 -0.7233,-0.94055 -0.31728,-1.38581 1.12707,-1.23436 2.89407,0.005 2.43273,1.49671 m 0.0675,-12.2768 -0.34074,0.16513 0.34074,-0.16513 m 4.2e-4,-27.34943 c -1.48085,0.33396 0.47314,1.2443 0,0 m -3.5e-4,8.56291 c 0.0952,0.37772 -0.51533,0.52044 -0.60545,0.13999 -0.0933,-0.39387 0.51102,-0.51347 0.60545,-0.13999 m -0.17643,12.51851 -1.1863,0.07 -0.002,0.16932 c 0.41023,0.10309 1.01977,0.24888 1.1884,-0.23929 m -0.14212,4.28296 c -0.19903,-0.26962 -0.61951,0.044 -0.41882,0.31605 0.19902,0.26962 0.6195,-0.0441 0.41882,-0.31605 m -0.0459,10.87121 c -0.67924,-0.39673 -0.88965,-1.66088 -1.01955,-2.38348 -0.40306,-2.25197 -0.57024,-4.4752 -1.06929,-6.70244 0.91248,0.77532 0.99871,2.28805 1.06621,3.40015 0.12022,1.98123 0.60441,3.76825 1.02263,5.68577 m -0.0317,-31.58348 c 0.0753,0.13827 0.15836,0.27198 0.19369,0.42779 0.24261,1.05584 -1.29823,0.49304 -0.59445,-0.20203 0.1166,-0.11558 0.25353,-0.16476 0.40076,-0.22576 m -0.006,0.50796 -0.25398,-0.003 0.0815,0.25503 0.0847,0.001 0.0879,-0.25293 m -2.4206,17.66657 c 0.39167,-0.99395 1.31237,-0.74578 2.21061,-0.73464 -0.35832,1.03635 -1.31885,0.85857 -2.21061,0.73464 m 1.57818,-18.01581 c -0.0652,-0.13485 -0.15488,-0.27888 -0.18606,-0.42745 -0.19831,-0.94165 1.42017,-0.42659 0.52483,0.28415 -0.10176,0.0809 -0.21889,0.10406 -0.33877,0.1433 m 0.28884,31.33266 c -0.62038,-0.36324 -0.74182,-1.56304 -0.93275,-2.21307 -0.68649,-2.33771 -0.31849,-4.83811 -1.23759,-7.1279 0.68217,0.36545 0.87787,1.58598 0.97657,2.29829 0.20668,1.49646 0.26331,3.0068 0.53105,4.49427 0.15609,0.86475 0.52605,1.68881 0.66272,2.54841 m 0.0571,-31.92102 -0.0836,-0.0857 -0.17248,0.25188 0.25608,-0.16618 m -0.44958,2.11122 c -0.52157,-1.29867 -1.25423,-2.57742 -2.01359,-3.75059 -0.25507,-0.39368 -0.83946,-1.064 -0.12563,-1.27165 0.66965,1.23818 1.44234,2.4287 2.12046,3.66723 0.23264,0.42651 0.7054,1.15532 0.0188,1.35501 m 0.22383,16.09068 c -0.42849,-0.13241 -0.94255,-0.19399 -1.18839,0.23928 l 1.18629,-0.07 0.002,-0.16932 m -0.0915,-4.56247 c 0.0977,0.38267 -0.55264,0.52379 -0.61054,0.13985 -0.0532,-0.35206 0.5185,-0.5017 0.61054,-0.13985 m -0.24573,18.10601 c -0.66857,-0.36942 -0.83257,-1.68838 -0.99753,-2.38322 -0.54552,-2.30369 -0.16369,-4.89419 -1.25642,-7.04346 0.80012,0.61788 0.90751,1.78982 1.01788,2.72217 0.15187,1.27249 0.19187,2.55384 0.44294,3.81579 0.19609,0.98422 0.57999,1.91378 0.79313,2.88872 m 0.27253,-32.76599 c 0.0617,0.55393 -0.72698,0.65364 -0.8155,0.0763 -0.0854,-0.55736 0.74992,-0.66047 0.8155,-0.0763 m -2.58069,20.88312 c 0.48502,-0.94402 1.28443,-0.74613 2.21061,-0.73465 -0.24586,0.9801 -1.39073,0.98816 -2.21061,0.73465 m 2.22739,-13.42323 c 0.12729,0.38727 -0.4343,0.60876 -0.56829,0.21573 -0.12991,-0.38103 0.43607,-0.61499 0.56829,-0.21573 m -3.15258,-21.21958 -0.0847,-10e-4 c -0.53454,-1.9597 -3.29033,-1.84832 -3.35674,0.29707 -0.0777,2.5079 2.13708,5.05922 3.26436,7.15303 l 0.16933,0.002 c 1.23161,-1.95016 3.38785,-4.64948 3.35098,-7.07099 -0.0316,-2.16185 -2.74461,-2.36145 -3.34326,-0.38016 m 2.96341,13.66919 0.25083,0.25713 -0.25083,-0.25713 m -0.32054,32.67987 c -0.46478,-0.41584 -0.53986,-1.12116 -0.69184,-1.70204 -0.41472,-1.58463 -0.53676,-3.21484 -0.7275,-4.83539 -0.0857,-0.73095 -0.10805,-2.14383 -0.92778,-2.47779 -0.8273,-0.33701 -1.32888,1.1217 -0.51381,1.42215 1.16991,0.4311 0.16036,-1.86997 -0.002,-0.48638 l 0.0847,10e-4 0.17352,-0.33654 c 0.14155,0.19236 0.2427,0.70783 -0.1733,0.66033 -0.60287,-0.0688 -0.38303,-1.13615 0.26301,-1.06633 0.8828,0.0954 0.79707,1.40945 -0.0194,1.56308 -1.39274,0.26224 -1.53639,-2.15155 0.0266,-2.14715 0.90597,0.002 1.12741,1.26477 1.26384,1.93834 0.312,1.53824 0.3068,3.1186 0.56875,4.66408 0.15863,0.93202 0.64407,1.86665 0.67565,2.8026 m -1.6e-4,-34.12325 c 0.0681,0.10821 0.15811,0.22355 0.20402,0.34495 0.36823,0.96349 -1.28479,0.63825 -0.53578,-0.15296 0.0961,-0.10126 0.20999,-0.13618 0.33176,-0.19199 m 0.0678,21.84652 c -0.43516,-0.005 -0.93204,-0.0859 -1.18945,0.32394 0.42246,0.005 1.02433,0.1541 1.18945,-0.32394 m -0.0496,-7.95202 c 0.0943,0.38881 -0.52464,0.51923 -0.62497,0.14246 -0.10842,-0.40633 0.52584,-0.54783 0.62497,-0.14246 m -8.36194,23.93562 0.011,-2.10908 1.70045,-1.51945 0.2967,-1.25762 c 0.50847,0.37541 0.85734,0.92054 0.99703,1.53649 l 0.0847,10e-4 c -0.12261,-0.76417 -0.65017,-1.44311 -1.33252,-1.79467 0.1185,1.30129 -0.53715,2.21153 -1.81146,2.68709 l 1.23734,-1.93215 0.0172,-3.64072 0.0966,-7.78875 c 0.75224,0.38181 0.44272,1.23792 0.51852,1.95392 0.21461,2.01771 -0.002,4.15253 -0.0267,6.18081 1.07302,-0.90522 1.46534,-2.08824 1.48227,-3.45322 l 0.0847,0.001 c 0.6878,1.34536 0.31795,2.62924 -0.47054,3.80446 0.77146,0.13015 1.74451,0.79944 0.82876,1.44972 l -10e-4,0.0847 0.14937,1.61065 -0.0847,-0.001 c -0.19324,-0.53144 -0.31933,-1.08337 -0.0648,-1.6096 l -0.76614,0.3292 c 0.72729,1.09673 1.03193,2.20396 0.46492,3.47736 l -0.23718,-1.35772 -0.0847,-10e-4 -0.11304,2.28478 c 3.789,-2.65222 2.84377,-7.88786 0.0486,-10.75288 0.19512,1.12983 0.16101,3.12973 -1.06212,3.71244 l 0.005,-7.19717 3.19504,1.81776 c -0.19796,0.39551 -0.58957,0.63443 -0.67992,1.09232 -0.30645,1.56519 1.12777,1.71287 2.17441,1.29706 l 0.78046,5.34409 0.56787,2.20854 -1.34992,1.93075 -1.40964,1.62493 -1.60579,0.0312 -3.64039,-0.0451 m 8.23121,-26.47444 c 0.0445,0.43797 -0.65818,0.49929 -0.6528,0.0656 0.004,-0.35066 0.61426,-0.43979 0.6528,-0.0656 m 0.10677,-10.93244 -0.25398,-0.003 -0.003,0.25398 0.25398,0.003 0.003,-0.25398 m -2.57453,23.2532 c 0.51511,-1.04814 1.20426,-0.63113 2.12701,-0.82036 0.0504,1.05243 -1.41088,1.04176 -2.12701,0.82036 m 1.9987,-24.61511 c 0.0681,0.10812 0.15811,0.22354 0.20402,0.34503 0.40263,1.05799 -1.37579,0.53399 -0.53618,-0.18895 0.0975,-0.0836 0.21647,-0.11221 0.33216,-0.15608 m -0.006,14.14034 -0.0837,-0.0857 0.0837,0.0857 m 0.0854,-13.716 -0.3418,0.24978 0.3397,-0.0805 0.002,-0.16933 m -0.29385,23.70486 c -0.44325,-0.1041 -0.95461,-0.10984 -1.27306,0.23823 0.45128,0.13964 0.99581,0.20101 1.27306,-0.23823 m -0.73255,-2.37994 c -0.71412,-0.17878 -1.34148,-0.86726 -1.84573,-1.37799 -1.22591,-1.24143 -2.28955,-2.59535 -3.17092,-4.10329 -0.31838,-0.54527 -0.60597,-1.11631 -0.83916,-1.70388 -0.0788,-0.19902 -0.17543,-0.53349 0.11852,-0.61223 0.41628,-0.11177 1.06932,1.57836 1.26517,1.89949 1.21821,1.99909 2.70866,4.03085 4.64774,5.39204 l -0.17562,0.50586 m -0.13404,3.97799 -0.25188,-0.17248 0.25188,0.17248 m -0.55272,-3.22444 0.34494,-0.50376 -0.34494,0.50376 m -4.19724,-23.42185 c 0.0832,-0.49353 0.38603,-0.67555 0.8529,-0.49746 l 0.004,-0.33863 0.75669,0.43274 0.0879,-0.25293 0.50166,0.51426 0.17142,-0.16722 0.0847,0.001 0.58632,0.51531 c 0.0823,-0.35655 0.36239,-0.13581 0.59262,0.007 l 0.25818,-0.33549 0.001,-0.0847 -0.16617,-0.25608 -0.67834,0.0763 0.17248,-0.25188 -0.8466,-0.0105 0.17246,-0.25188 -1.01382,-0.18191 0.17353,-0.33655 -1.1863,0.07 c -0.32786,0.56044 -0.68159,0.81728 -0.69618,1.51548 -0.56459,-0.83434 0.028,-1.85103 0.95652,-2.02546 1.021,-0.19183 1.97932,0.64207 2.86633,1.01292 0.2485,0.10384 0.67586,0.0554 0.8761,0.22645 0.56387,0.48234 -0.72003,1.1173 -1.06256,1.15413 -1.28367,0.13801 -2.28328,-1.25828 -3.46497,-0.53527 m 3.86194,23.16407 0.092,-0.59157 0.33758,0.0889 -0.42959,0.50271 m -5.74073,-8.19981 c 0.0797,-0.8957 1.85617,-1.78628 2.48221,-2.42474 1.6414,-1.67413 2.93076,-4.11519 3.12436,-6.48109 0.0698,-0.84968 0.11434,-1.77715 0.004,-2.62483 -0.0603,-0.46374 -0.24535,-0.90447 0.22042,-1.18268 1.3939,3.39912 -0.50034,8.04985 -2.83443,10.54891 -0.77232,0.82716 -1.84932,1.91693 -2.99633,2.16443 m 5.32142,7.85593 0.17667,-0.59053 0.25293,0.0878 -0.4296,0.50272 m -0.0805,-0.33966 -0.3376,-0.0889 0.0889,-0.33759 -0.34074,0.16512 -0.0794,-0.42435 -0.33865,-0.004 0.34495,-0.50377 0.0836,0.0857 -0.0899,0.42225 0.50901,-0.0784 -0.0889,0.33759 0.3397,-0.0805 0.0836,0.0857 -0.17456,0.4212 m 0.14306,2.11854 -0.25818,0.33548 -0.16932,-0.002 -0.0836,-0.0857 c 0.10763,-0.28072 0.23575,-0.4384 0.51111,-0.24768 m -0.20862,9.9887 -0.0847,-0.001 -0.0532,-2.54085 c 0.46821,0.41275 0.30808,1.99102 0.13783,2.5419 m 0.18973,-28.95593 c -0.33853,-0.15008 -0.52874,-0.31043 -0.58422,-0.68462 l 0.50481,0.26028 -0.49851,-0.76824 c 0.6702,0.16953 0.58936,0.61212 0.57792,1.19258 m 0.022,-1.77786 c -0.38596,-0.0799 -0.60247,-0.23617 -0.75459,-0.60206 0.39555,0.0579 0.64433,0.20832 0.75459,0.60206 m -0.007,0.59263 c -0.36126,-0.0915 -0.549,-0.24694 -0.66992,-0.60103 0.3733,0.0772 0.60873,0.2095 0.66992,0.60103 m -0.10569,1.69215 c -0.32567,-0.16186 -0.56192,-0.29799 -0.49956,-0.68358 0.33429,0.15004 0.51866,0.30397 0.49956,0.68358 m 0.0367,-2.96311 -0.42226,-0.0899 0.002,-0.16932 0.34074,-0.16511 0.0794,0.42434 m -0.0429,3.47103 c -0.36734,-0.0799 -0.53067,-0.22377 -0.58528,-0.59997 0.3545,0.0909 0.51354,0.23914 0.58528,0.59997 m -0.17668,0.59052 c -0.34539,-0.1423 -0.51873,-0.29846 -0.49956,-0.68358 0.34543,0.14027 0.56112,0.29409 0.49956,0.68358 m -0.63956,17.43474 0.4296,-0.50271 0.0836,0.0857 -0.51321,0.417 m 0.11229,11.43232 c -0.43539,-1.6931 -0.036,-3.92488 -0.0143,-5.67328 0.37656,0.29273 0.3298,0.9222 0.31333,1.36196 -0.0376,0.9836 -0.0165,1.97429 -0.0287,2.95991 -0.006,0.47308 0.0616,0.97898 -0.27078,1.3514 m -4.56884,-13.94306 c 1.34464,0.40626 2.67173,1.54599 3.86664,2.28332 0.24453,0.15105 1.29277,0.63025 0.79597,1.02112 -0.33689,0.26467 -1.02766,-0.3632 -1.31002,-0.5363 -0.9521,-0.58419 -3.35356,-1.52955 -3.35259,-2.76814 m 5.00515,-14.41704 c -0.36059,-0.0783 -0.56127,-0.2139 -0.50061,-0.59893 0.32451,0.11851 0.45067,0.2553 0.50061,0.59893 m -0.17668,0.59052 -0.58631,-0.51531 c 0.38842,-0.0507 0.53335,0.14328 0.58631,0.51531 m -0.70743,16.07913 -0.0836,-0.0858 0.51216,-0.33234 -0.42855,0.41805 m 0.53177,-15.57322 c -0.34945,-0.0887 -0.5612,-0.21966 -0.50062,-0.59892 0.32453,0.1185 0.45068,0.25529 0.50062,0.59892 m -0.38495,24.21176 -0.0847,-10e-4 c -0.35791,-1.04481 -0.13982,-2.38139 -0.12628,-3.47317 0.6409,0.4154 0.4156,2.81139 0.21093,3.47422 m -0.21865,3.97688 0.12879,-3.55468 c 0.42886,0.58127 0.14539,1.99992 0.13572,2.71122 -0.005,0.33271 0.0276,0.6426 -0.26448,0.84346 m -0.0727,-28.28175 c 0.90051,0.37365 -0.12417,0.79532 0,0 m -0.0728,12.70007 0.004,-0.33864 -0.33759,-0.0889 0.17457,-0.42121 0.33759,0.0889 -0.17457,0.4212 0.4254,-0.16407 -0.4296,0.50271 m -0.97088,-17.28537 c -0.38651,-0.85507 -0.46718,-1.7244 -0.22143,-2.62761 -0.3672,-0.15934 -1.39707,0.0657 -1.5435,-0.1442 -0.37019,-0.53261 0.94283,-1.2634 1.3898,-1.11739 1.93035,0.63079 2.60335,3.16841 0.37513,3.8892 m 1.05292,35.74514 -0.0291,0.0278 c -0.013,-0.0419 0.0299,-0.0932 0.0291,-0.0278 m -0.20114,-15.66703 0.092,-0.59157 0.16933,0.002 0.0836,0.0857 -0.34493,0.50376 m 0.34787,-14.38998 -0.50166,-0.51426 c 0.39446,-0.0596 0.59889,0.11648 0.50166,0.51426 m -0.60042,27.9347 0.18086,-0.92916 c 0.25731,0.34942 0.13818,0.67029 -0.18086,0.92916 m 0.35476,-8.12422 -0.0847,-10e-4 -0.15882,-0.84871 0.24348,0.84976 m -0.12143,2.962 c -0.49258,-0.49476 -0.11817,-1.25903 -0.0616,-1.86358 0.27599,0.48217 0.22121,1.34838 0.0616,1.86358 m 0.19246,-22.35134 c -0.32453,-0.11841 -0.47113,-0.24564 -0.41596,-0.59787 0.28003,0.1558 0.40645,0.27227 0.41596,0.59787 m -0.59338,13.7097 -0.0836,-0.0857 0.17457,-0.4212 0.33759,0.0889 -0.42856,0.41805 m 0.20918,-3.21503 -0.33759,-0.0889 0.17457,-0.42119 0.33759,0.0889 -0.17457,0.42121 m 0.12493,-10.07458 -0.58947,-0.26133 0.17351,-0.33653 0.41596,0.59786 m -0.35345,21.67196 -0.25293,-0.0878 0.002,-0.16932 0.33865,0.004 -0.0879,0.25293 m 0.0586,2.11772 -0.25398,-0.003 0.003,-0.25398 0.25398,0.003 -0.003,0.25398 m -0.1644,-14.0578 c -0.33386,-0.11676 -0.2842,-0.29767 -0.16197,-0.59472 0.33386,0.11676 0.28419,0.29768 0.16197,0.59472 m -0.29493,3.2986 -0.0836,-0.0857 0.51321,-0.417 -0.42959,0.50271 m -0.0913,-13.12551 c 0.93452,0.15782 0.13485,0.93781 0,0 m 0.57935,-5.7506 -0.41805,-0.42855 c 0.29316,0.0525 0.37259,0.13383 0.41805,0.42855 m -0.006,0.50796 c -0.39419,-0.0991 -0.60962,-0.27597 -0.66888,-0.68568 0.34692,0.15562 0.60688,0.29085 0.66888,0.68568 m -0.007,0.59262 c -0.4062,-0.0872 -0.64425,-0.28199 -0.75354,-0.68672 0.40198,0.0853 0.68766,0.26399 0.75354,0.68672 m -0.092,0.59158 c -0.38546,-0.1207 -0.59092,-0.28142 -0.66888,-0.68569 0.39419,0.0991 0.60961,0.27598 0.66888,0.68569 m -0.17667,0.59051 -0.66993,-0.60101 c 0.43093,-0.0646 0.69145,0.16344 0.66993,0.60101 m -0.49822,12.86416 0.17773,-0.67519 c 0.27917,0.29296 0.16304,0.50795 -0.17773,0.67519 m 0.35792,-8.37821 -0.50167,-0.51426 0.0857,-0.0836 c 0.31252,0.12978 0.47192,0.24937 0.41595,0.59787 m -0.48556,11.84818 c 0.0511,-0.29801 0.1179,-0.42724 0.42854,-0.41805 l -0.42854,0.41805 m 0.536,-15.91191 -0.0857,0.0837 c -0.35048,-0.14228 -0.52882,-0.30419 -0.58422,-0.68463 l 0.66993,0.60102 m -0.18579,-5.50612 -0.0847,-10e-4 0.071,1.10164 0.0137,-1.10059 m -0.0756,6.09549 c -0.3608,-0.12928 -0.52971,-0.30131 -0.58422,-0.68463 0.35815,0.13755 0.60453,0.27558 0.58422,0.68463 m -0.31104,11.42702 -0.16932,-0.002 0.17771,-0.67518 c 0.22637,0.25023 0.15764,0.39806 -0.008,0.67728 m 0.35789,-15.23683 c -0.83896,-0.49016 -0.63353,-1.82858 -0.56007,-2.63181 l 0.16796,1.27218 0.39211,1.35963 m -0.0945,7.61941 -0.50167,-0.51426 0.50167,0.51426 m -0.12838,-3.30384 -0.66993,-0.60102 c 0.42924,-0.0641 0.71353,0.15779 0.66993,0.60102 m -0.51921,14.55735 0.42961,-0.50271 c -0.0521,0.30265 -0.13303,0.41689 -0.42961,0.50271 m 0.38941,-10.91794 c -0.32662,-0.0178 -0.4496,-0.13792 -0.58737,-0.43065 l 0.0857,-0.0836 0.50167,0.51426 m -0.5083,6.85218 0.17772,-0.67518 0.16933,0.002 c 0.0592,0.34383 -0.0369,0.51521 -0.34705,0.67308 m 0.51817,-14.47259 c -0.86501,-0.5064 -0.82756,-2.22954 -0.55483,-3.05511 l 0.17646,1.61098 0.37837,1.44413 m -0.0535,4.31767 -0.0858,0.0837 c -0.37617,-0.11797 -0.6461,-0.26882 -0.49956,-0.68359 l 0.58528,0.59997 m -2.38724,1.32512 c 0.0295,-0.66719 0.51262,-1.05273 0.83861,-1.59839 0.43927,-0.73663 0.74294,-1.53032 0.95727,-2.35898 0.11921,-0.46304 0.0217,-1.10201 0.55503,-1.26322 -0.10039,1.81382 -0.7803,4.13406 -2.35091,5.22059 m 1.62144,12.63641 0.26028,-0.50481 0.25293,0.0878 -0.51321,0.417 m 0.50662,-13.54139 c -0.4107,0.0707 -0.61166,-0.1113 -0.67099,-0.51636 l 0.67099,0.51636 m -0.53879,9.30737 0.17877,-0.75984 c 0.30604,0.31209 0.19436,0.57743 -0.17877,0.75984 m 0.32852,-6.00772 c -0.26629,-0.17121 -0.38268,-0.27697 -0.33129,-0.59682 0.27743,0.16051 0.3827,0.2746 0.33129,0.59682 m 0.0161,-8.12843 -0.3334,-0.4275 0.3334,0.4275 m -0.15189,5.4172 -0.67203,-0.43169 c 0.36109,-0.30391 0.66005,0.0323 0.67203,0.43169 m -0.27115,8.20994 -0.25398,-0.003 0.17772,-0.67518 0.16932,0.002 -0.0931,0.67623 m -0.30962,4.48379 0.34493,-0.50376 c 0.0418,0.31169 -0.0441,0.41663 -0.34493,0.50376 m -1.19184,-13.13912 c 0.0132,-0.99703 0.65515,-1.68983 0.96126,-2.61295 0.18823,-0.56616 0.18192,-1.15031 0.78233,-1.42974 -0.0743,1.34343 -0.62734,3.20235 -1.74359,4.04269 m 1.65121,3.4074 -0.50272,-0.4296 c 0.31307,0.018 0.41752,0.13024 0.50272,0.4296 m 0.0308,-9.31367 -0.0857,0.0836 c -0.42174,-0.13106 -0.71896,-0.33424 -0.83716,-0.77244 0.40576,0.12247 0.77138,0.27247 0.92287,0.68882 m -0.0763,-0.67828 c -0.56515,0.0985 -0.95201,-0.31866 -1.00543,-0.8592 0.4245,0.18223 0.84932,0.40612 1.00543,0.8592 m -0.0913,7.36544 -0.67098,-0.51636 0.0858,-0.0836 c 0.32876,0.11771 0.49211,0.26022 0.58527,0.59998 m -0.34641,7.44689 c -0.42114,-0.24756 -0.17652,-0.58296 0.17876,-0.75985 l -0.17876,0.75985 m 0.36143,-15.49071 c -0.53686,-0.0651 -1.23567,-0.52303 -0.83294,-1.11108 0.2433,0.31698 0.436,0.48288 0.84029,0.51846 l -0.007,0.59262 m -0.13577,10.92116 -0.0857,0.0836 -0.50166,-0.51426 0.58737,0.43065 m -0.36847,9.22485 -0.33758,-0.0889 0.51216,-0.33233 -0.17458,0.4212 m 0.23167,-11.85137 c -0.37124,0.0304 -0.59697,-0.13374 -0.58632,-0.51531 l 0.58632,0.51531 m -0.33691,6.68499 -0.25398,-0.003 0.17876,-0.75985 c 0.35222,0.20692 0.22152,0.43585 0.0752,0.763 m -0.13703,-16.25909 0.007,-0.59262 0.42225,0.0899 -0.4296,0.50272 m 0.18362,12.53394 -0.58738,-0.43064 0.0858,-0.0837 0.50481,0.26028 -0.003,0.25398 m -0.13907,-2.45719 -0.58633,-0.51531 c 0.38598,-0.0578 0.65236,0.1068 0.58633,0.51531 m -0.32432,5.66908 -0.0847,-0.001 c -0.14356,-0.37265 -7.5e-4,-0.58434 0.3481,-0.75775 l -0.26343,0.7588 m -0.15188,5.41715 0.34494,-0.50376 0.0836,0.0857 -0.42854,0.41805 m -0.26512,-5.93037 0.26343,-0.7588 0.16932,0.002 c 0.0504,0.36896 -0.10803,0.58605 -0.43275,0.7567 m 0.48416,-4.90494 -0.0857,0.0836 -0.50061,-0.59891 0.58633,0.51531 m -0.0305,2.45518 -0.50271,-0.42959 0.50271,0.42959 m -0.60874,8.12108 0.34493,-0.50376 0.0836,0.0857 -0.42854,0.41805 m 0.17956,-14.47688 -0.0847,-0.001 c 0.008,-0.37136 0.0189,-0.63345 0.34915,-0.8424 l -0.26448,0.84345 m 0.11787,4.1504 -0.0857,0.0837 -0.0847,-0.001 -0.0847,-10e-4 0.004,-0.33863 0.25293,0.0878 -0.002,0.16933 m -0.2854,2.53654 0.004,-0.33865 0.25293,0.0879 -0.25713,0.25083 m 0.23843,1.273 -0.25713,0.25083 0.25713,-0.25083 m -2.09328,-42.87054 -4.57165,-0.0567 -0.022,1.77787 1.43923,0.0179 c -0.0301,2.42712 0.0244,4.85961 -0.006,7.28183 -0.009,0.75635 0.23455,2.11736 -0.13449,2.78881 -0.4444,0.80897 -2.66532,0.39439 -3.46113,0.38418 -0.3725,-0.005 -0.78952,0.0298 -1.05401,-0.28639 -0.55232,-0.66265 -0.18101,-2.54236 -0.17075,-3.36975 l -1.6932,-0.021 c -0.47192,1.52606 -0.4066,4.38451 1.20592,5.17536 0.99479,0.48829 2.39769,0.29418 3.46875,0.23015 1.10834,-0.0663 2.11297,0.17472 2.95665,-0.73979 0.81362,-0.8805 0.63759,-2.18539 0.64963,-3.29293 0.0305,-2.70391 -0.0175,-5.41913 0.0161,-8.12843 l 1.2699,0.0157 0.10674,-1.77682 m -4.89321,19.07548 -0.0847,-10e-4 c -0.29199,-2.12731 -3.14783,-2.96144 -4.23605,-0.89927 -0.46564,0.88237 -0.25571,1.97979 0.0346,2.87932 0.63191,1.96023 1.7075,3.78499 2.76957,5.5381 0.40577,0.66853 0.87967,1.91885 1.56412,2.30557 1.19936,-3.17247 4.54871,-5.9464 4.43395,-9.59776 -0.0897,-2.86941 -4.02773,-3.01773 -4.48149,-0.22491 m -4.77109,-22.56976 c 2.64703,-0.0149 12.93948,0.0398 23.6089,0.13022 2.11969,0.0177 8.02334,0.0628 13.12274,0.0992 5.09909,0.0364 11.67163,0.0836 14.60477,0.10697 l 5.19141,0.0403 0.42426,0.22738 c 0.57341,0.30656 1.35581,1.1003 1.58491,1.56372 l 0.18656,0.38034 0.0129,4.60541 c 0.0103,3.78237 0.003,12.61649 -0.0124,20.70571 -0.0151,8.08922 -0.0392,15.49361 -0.0563,16.23622 -0.0205,0.88429 -0.0367,7.87741 -0.0403,15.67811 -0.004,8.12716 -0.0157,14.33266 -0.0351,18.5508 -0.01,2.10908 -0.0222,3.72226 -0.0357,4.82813 -0.007,0.55294 -0.0125,0.97915 -0.0201,1.27538 -0.004,0.14811 -0.009,0.26408 -0.0124,0.34364 -0.004,0.0796 -0.0172,0.15865 -0.003,0.0816 -0.0653,0.34517 -0.41862,0.95417 -0.91207,1.40199 -0.69143,0.62746 -1.193,0.88178 -1.80559,0.97203 -0.22445,0.0331 -0.72689,0.0665 -1.15083,0.0796 -0.21196,0.007 -0.40868,0.009 -0.54518,0.006 -0.06,-10e-4 -0.10115,-0.005 -0.1266,-0.007 -0.005,-0.002 -0.016,-0.004 -0.016,-0.004 -5e-4,-1.3e-4 -0.048,-0.01 -0.0605,-0.0119 -0.0249,-0.004 -0.0342,-0.005 -0.0444,-0.006 -0.0206,-0.002 -0.0352,-0.002 -0.0512,-0.003 -0.0319,-10e-4 -0.0691,-0.003 -0.11678,-0.005 -0.0954,-0.003 -0.23061,-0.006 -0.40257,-0.009 -0.34393,-0.006 -0.8351,-0.0114 -1.44126,-0.0176 -1.2123,-0.0123 -2.87816,-0.0245 -4.70666,-0.0346 -3.65501,-0.0204 -8.32524,-0.0517 -10.37301,-0.0682 -5.82634,-0.047 -12.05684,-0.0887 -19.00765,-0.12609 -3.51557,-0.0189 -9.19448,-0.0518 -12.61679,-0.0739 l -6.09161,-0.0382 -0.47492,-0.22789 c -0.54539,-0.26185 -1.26953,-0.93933 -1.66087,-1.59577 l -0.21654,-0.3607 -0.0294,-17.41289 c -0.0289,-16.53716 0.0195,-44.22993 0.10438,-58.63725 l 0.0377,-6.30452 0.26768,-0.52969 c 0.45784,-0.90798 1.63296,-1.76239 2.32339,-1.83555 -0.0397,0.004 0.0454,-0.001 0.1483,-0.003 0.10697,-10e-4 0.25778,-0.002 0.44751,-0.003 z m -0.54311,-0.51263 -0.40516,0.1111 c -1.01258,0.27946 -2.1504,1.24016 -2.61379,2.20659 l -0.25474,0.53123 -0.0217,3.85351 c -0.0463,8.24007 -0.0644,19.62764 -0.0486,30.91284 0.005,3.23712 0.007,7.4478 0.006,9.35757 -0.003,4.89627 0.001,10.04993 0.0196,21.29896 0.0181,10.92558 0.0189,13.03863 0.006,15.38717 -0.006,1.117 0.0246,1.72558 0.0972,1.94562 0.27593,0.83552 1.26785,1.80845 2.33008,2.28513 l 0.55089,0.24701 2.08049,0.0181 c 1.86233,0.0164 5.37435,0.0241 16.51993,0.0346 5.88227,0.006 7.15687,0.008 10.07845,0.0233 1.56054,0.008 3.82798,0.0118 5.03897,0.01 2.64539,-0.005 4.62786,0.004 7.79279,0.0367 1.30451,0.0128 4.31507,0.0227 6.69055,0.0207 2.37548,-0.002 5.19572,0.007 6.26731,0.0196 2.23091,0.0267 2.5949,-0.001 3.21066,-0.24804 0.87249,-0.34939 1.77935,-1.215 2.21742,-2.11719 0.21783,-0.44885 0.25686,-1.44718 0.22376,-5.72316 -0.014,-1.83957 -0.0178,-3.87867 -0.009,-4.53099 0.009,-0.65231 0.009,-3.18653 -5.1e-4,-5.6317 -0.01,-2.44517 -0.0187,-6.1036 -0.0207,-8.12974 -0.001,-2.02614 -0.003,-4.59857 -0.004,-5.71644 0,-1.11788 6e-5,-2.77568 0.002,-3.68401 0.002,-0.90833 9.2e-4,-2.64203 -0.002,-3.853 -0.003,-1.21097 -0.005,-3.80247 -0.003,-5.75882 0.002,-1.95631 -0.001,-6.2057 -0.005,-9.44283 -0.004,-3.23711 -0.005,-7.42869 -0.002,-9.3152 0.003,-1.88651 3.2e-4,-5.31676 -0.006,-7.62227 -0.0157,-5.84852 -0.007,-10.7462 0.0228,-12.19564 l 0.0243,-1.22886 -0.36433,-0.68472 c -0.46773,-0.87956 -1.19369,-1.5841 -2.03914,-1.97817 l -0.60926,-0.2837 -6.30453,-0.016 c -3.4679,-0.009 -7.04924,-0.0219 -7.95764,-0.0269 -0.90842,-0.005 -3.21393,-0.012 -5.12372,-0.0139 -9.56478,-0.0126 -12.59696,-0.0191 -15.20218,-0.0326 -0.76864,-0.004 -2.25509,-0.008 -3.30316,-0.0103 -1.04807,-10e-4 -3.9637,-0.0102 -6.4792,-0.0202 -2.51547,-0.01 -6.33478,-0.0208 -8.48733,-0.0258 z" />
  </g>
</svg>
