<?xml version="1.0" encoding="UTF-8" standalone="no"?>
<svg
   sodipodi:docname="QH.svg"
   id="svg8"
   version="1.1"
   viewBox="0 0 63.146049 88.30793"
   height="88.30793mm"
   width="63.146049mm"
   inkscape:version="1.1.1 (1:1.1+202109281949+c3084ef5ed)"
   inkscape:export-filename="/home/doug/k40/52Cards/QH.png"
   inkscape:export-xdpi="96"
   inkscape:export-ydpi="96"
   xmlns:inkscape="http://www.inkscape.org/namespaces/inkscape"
   xmlns:sodipodi="http://sodipodi.sourceforge.net/DTD/sodipodi-0.dtd"
   xmlns="http://www.w3.org/2000/svg"
   xmlns:svg="http://www.w3.org/2000/svg"
   xmlns:rdf="http://www.w3.org/1999/02/22-rdf-syntax-ns#"
   xmlns:cc="http://creativecommons.org/ns#"
   xmlns:dc="http://purl.org/dc/elements/1.1/">
  <defs
     id="defs2">
    <marker
       style="overflow:visible"
       id="marker2995"
       refX="0"
       refY="0"
       orient="auto"
       inkscape:stockid="Arrow1Lstart"
       inkscape:isstock="true">
      <path
         transform="matrix(0.8,0,0,0.8,10,0)"
         style="fill:#000000;fill-opacity:1;fill-rule:evenodd;stroke:#000000;stroke-width:1pt;stroke-opacity:1"
         d="M 0,0 5,-5 -12.5,0 5,5 Z"
         id="path2993" />
    </marker>
    <marker
       style="overflow:visible"
       id="marker2985"
       refX="0"
       refY="0"
       orient="auto"
       inkscape:stockid="Arrow1Lstart"
       inkscape:isstock="true">
      <path
         transform="matrix(0.8,0,0,0.8,10,0)"
         style="fill:#000000;fill-opacity:1;fill-rule:evenodd;stroke:#000000;stroke-width:1pt;stroke-opacity:1"
         d="M 0,0 5,-5 -12.5,0 5,5 Z"
         id="path2983" />
    </marker>
    <marker
       style="overflow:visible"
       id="marker2791"
       refX="0"
       refY="0"
       orient="auto"
       inkscape:stockid="Arrow1Lstart"
       inkscape:isstock="true">
      <path
         transform="matrix(0.8,0,0,0.8,10,0)"
         style="fill:#000000;fill-opacity:1;fill-rule:evenodd;stroke:#000000;stroke-width:1pt;stroke-opacity:1"
         d="M 0,0 5,-5 -12.5,0 5,5 Z"
         id="path2789" />
    </marker>
    <marker
       style="overflow:visible"
       id="marker2781"
       refX="0"
       refY="0"
       orient="auto"
       inkscape:stockid="Arrow1Lstart"
       inkscape:isstock="true">
      <path
         transform="matrix(0.8,0,0,0.8,10,0)"
         style="fill:#000000;fill-opacity:1;fill-rule:evenodd;stroke:#000000;stroke-width:1pt;stroke-opacity:1"
         d="M 0,0 5,-5 -12.5,0 5,5 Z"
         id="path2779" />
    </marker>
    <marker
       style="overflow:visible"
       id="marker2417"
       refX="0"
       refY="0"
       orient="auto"
       inkscape:stockid="Arrow1Lstart"
       inkscape:isstock="true">
      <path
         transform="matrix(0.8,0,0,0.8,10,0)"
         style="fill:#000000;fill-opacity:1;fill-rule:evenodd;stroke:#000000;stroke-width:1pt;stroke-opacity:1"
         d="M 0,0 5,-5 -12.5,0 5,5 Z"
         id="path2415" />
    </marker>
    <marker
       style="overflow:visible"
       id="marker2383"
       refX="0"
       refY="0"
       orient="auto"
       inkscape:stockid="Arrow1Lstart"
       inkscape:isstock="true">
      <path
         transform="matrix(0.8,0,0,0.8,10,0)"
         style="fill:#000000;fill-opacity:1;fill-rule:evenodd;stroke:#000000;stroke-width:1pt;stroke-opacity:1"
         d="M 0,0 5,-5 -12.5,0 5,5 Z"
         id="path2381" />
    </marker>
    <marker
       style="overflow:visible"
       id="marker2355"
       refX="0"
       refY="0"
       orient="auto"
       inkscape:stockid="Arrow1Lstart"
       inkscape:isstock="true">
      <path
         transform="matrix(0.8,0,0,0.8,10,0)"
         style="fill:#000000;fill-opacity:1;fill-rule:evenodd;stroke:#000000;stroke-width:1pt;stroke-opacity:1"
         d="M 0,0 5,-5 -12.5,0 5,5 Z"
         id="path2353" />
    </marker>
    <marker
       style="overflow:visible"
       id="Arrow1Lstart"
       refX="0"
       refY="0"
       orient="auto"
       inkscape:stockid="Arrow1Lstart"
       inkscape:isstock="true">
      <path
         transform="matrix(0.8,0,0,0.8,10,0)"
         style="fill:#000000;fill-opacity:1;fill-rule:evenodd;stroke:#000000;stroke-width:1pt;stroke-opacity:1"
         d="M 0,0 5,-5 -12.5,0 5,5 Z"
         id="path2071" />
    </marker>
  </defs>
  <sodipodi:namedview
     id="base"
     pagecolor="#ffffff"
     bordercolor="#666666"
     borderopacity="1.0"
     inkscape:pageopacity="0.0"
     inkscape:pageshadow="2"
     inkscape:zoom="1.5040647"
     inkscape:cx="17.951355"
     inkscape:cy="166.54869"
     inkscape:document-units="mm"
     inkscape:current-layer="layer1"
     inkscape:document-rotation="0"
     showgrid="false"
     inkscape:snap-smooth-nodes="false"
     inkscape:object-nodes="false"
     inkscape:window-width="1366"
     inkscape:window-height="712"
     inkscape:window-x="0"
     inkscape:window-y="0"
     inkscape:window-maximized="1"
     inkscape:object-paths="false"
     inkscape:snap-intersection-paths="false"
     inkscape:snap-midpoints="false"
     inkscape:snap-others="false"
     inkscape:pagecheckerboard="0"
     showguides="true"
     inkscape:guide-bbox="true"
     inkscape:snap-bbox="true"
     showborder="false"
     fit-margin-top="0"
     fit-margin-left="0"
     fit-margin-right="0"
     fit-margin-bottom="0" />
  <metadata
     id="metadata5">
    <rdf:RDF>
      <cc:Work
         rdf:about="">
        <dc:format>image/svg+xml</dc:format>
        <dc:type
           rdf:resource="http://purl.org/dc/dcmitype/StillImage" />
      </cc:Work>
    </rdf:RDF>
  </metadata>
  <g
     inkscape:label="Layer 1"
     inkscape:groupmode="layer"
     id="layer1"
     transform="translate(-201.78006,353.58186)">
    <path
       id="path3026"
       style="fill:#000000;fill-opacity:1;stroke:none;stroke-width:0.265;stroke-miterlimit:4;stroke-dasharray:none;stroke-opacity:1"
       d="m 205.67276,-353.06923 c 2.64703,-0.0149 12.93948,0.0398 23.6089,0.13022 2.11969,0.0177 8.02333,0.0628 13.12273,0.0992 5.09909,0.0364 11.67163,0.0836 14.60478,0.10697 l 5.19141,0.0403 0.42426,0.22738 c 0.57341,0.30656 1.35581,1.1003 1.58491,1.56372 l 0.18656,0.38034 0.0129,4.60541 c 0.0103,3.78237 0.003,12.61649 -0.0124,20.70571 -0.0151,8.08922 -0.0392,15.49361 -0.0563,16.23622 -0.0205,0.88429 -0.0367,7.87741 -0.0403,15.67811 -0.004,8.12716 -0.0157,14.33266 -0.0351,18.5508 -0.01,2.10908 -0.0222,3.72226 -0.0357,4.82813 -0.007,0.55294 -0.0125,0.97915 -0.0201,1.27538 -0.004,0.14811 -0.009,0.26408 -0.0124,0.34364 -0.004,0.0796 -0.0172,0.15865 -0.003,0.0816 -0.0653,0.34517 -0.41862,0.95417 -0.91207,1.40199 -0.69143,0.62746 -1.193,0.88178 -1.80559,0.97203 -0.22445,0.0331 -0.72689,0.0665 -1.15083,0.0796 -0.21196,0.007 -0.40868,0.009 -0.54518,0.006 -0.06,-10e-4 -0.10115,-0.005 -0.1266,-0.007 -0.005,-0.002 -0.016,-0.004 -0.016,-0.004 -5e-4,-1.3e-4 -0.048,-0.01 -0.0605,-0.0119 -0.0249,-0.004 -0.0342,-0.005 -0.0444,-0.006 -0.0206,-0.002 -0.0352,-0.002 -0.0512,-0.003 -0.0319,-10e-4 -0.0691,-0.003 -0.11678,-0.005 -0.0954,-0.003 -0.23061,-0.006 -0.40257,-0.009 -0.34393,-0.006 -0.8351,-0.0114 -1.44126,-0.0176 -1.2123,-0.0123 -2.87817,-0.0245 -4.70667,-0.0346 -3.65501,-0.0204 -8.32524,-0.0517 -10.37301,-0.0682 -5.82634,-0.047 -12.05683,-0.0887 -19.00764,-0.12609 -3.51557,-0.0189 -9.19448,-0.0518 -12.61679,-0.0739 l -6.09161,-0.0382 -0.47492,-0.22789 c -0.54539,-0.26185 -1.26953,-0.93933 -1.66087,-1.59577 l -0.21654,-0.3607 -0.0294,-17.41289 c -0.0289,-16.53716 0.0195,-44.22993 0.10438,-58.63725 l 0.0377,-6.30452 0.26768,-0.52969 c 0.45784,-0.90798 1.63296,-1.76239 2.32339,-1.83555 -0.0397,0.004 0.0454,-0.001 0.1483,-0.003 0.10697,-10e-4 0.25778,-0.002 0.44751,-0.003 z m -0.54311,-0.51263 -0.40516,0.1111 c -1.01258,0.27946 -2.1504,1.24016 -2.61379,2.20659 l -0.25474,0.53123 -0.0217,3.85351 c -0.0463,8.24007 -0.0644,19.62764 -0.0486,30.91284 0.005,3.23712 0.007,7.4478 0.006,9.35757 -0.003,4.89627 0.001,10.04993 0.0196,21.29896 0.0181,10.92558 0.0189,13.03863 0.006,15.38717 -0.006,1.117 0.0246,1.72558 0.0972,1.94562 0.27593,0.83552 1.26785,1.80845 2.33008,2.28513 l 0.55089,0.24701 2.08049,0.0181 c 1.86233,0.0164 5.37435,0.0241 16.51993,0.0346 5.88227,0.006 7.15687,0.008 10.07845,0.0233 1.56054,0.008 3.82797,0.0118 5.03896,0.01 2.64539,-0.005 4.62786,0.004 7.79279,0.0367 1.30451,0.0128 4.31507,0.0227 6.69055,0.0207 2.37548,-0.002 5.19573,0.007 6.26732,0.0196 2.23091,0.0267 2.5949,-0.001 3.21066,-0.24804 0.87249,-0.34939 1.77935,-1.215 2.21742,-2.11719 0.21783,-0.44885 0.25686,-1.44718 0.22376,-5.72316 -0.014,-1.83957 -0.0178,-3.87867 -0.009,-4.53099 0.009,-0.65231 0.009,-3.18653 -5.1e-4,-5.6317 -0.01,-2.44517 -0.0187,-6.1036 -0.0207,-8.12974 -0.001,-2.02614 -0.003,-4.59857 -0.004,-5.71644 0,-1.11788 6e-5,-2.77568 0.002,-3.68401 0.002,-0.90833 9.2e-4,-2.64203 -0.002,-3.853 -0.003,-1.21097 -0.005,-3.80247 -0.003,-5.75882 0.002,-1.95631 -0.001,-6.2057 -0.005,-9.44283 -0.004,-3.23711 -0.005,-7.42869 -0.002,-9.3152 0.003,-1.88651 3.2e-4,-5.31676 -0.006,-7.62227 -0.0157,-5.84852 -0.007,-10.7462 0.0228,-12.19564 l 0.0243,-1.22886 -0.36433,-0.68472 c -0.46773,-0.87956 -1.19369,-1.5841 -2.03914,-1.97817 l -0.60926,-0.2837 -6.30454,-0.016 c -3.4679,-0.009 -7.04924,-0.0219 -7.95764,-0.0269 -0.90842,-0.005 -3.21393,-0.012 -5.12372,-0.0139 -9.56477,-0.0126 -12.59695,-0.0191 -15.20217,-0.0326 -0.76864,-0.004 -2.25509,-0.008 -3.30316,-0.0103 -1.04807,-10e-4 -3.9637,-0.0102 -6.4792,-0.0202 -2.51547,-0.01 -6.33478,-0.0208 -8.48733,-0.0258 z m -0.33748,14.16392 1.60866,6.7e-4 c -2.7e-4,0.60943 -0.0643,1.25896 0.0246,1.86269 0.43348,2.94457 3.87269,1.47714 5.72334,1.97707 0.49116,0.13267 0.86267,0.84398 1.27696,1.14551 0.75648,0.55062 1.55274,0.60698 2.45503,0.60743 l 8.1e-4,-1.69332 c -0.56743,-0.002 -1.67745,-0.10675 -1.79087,-0.84766 -0.0752,-0.49135 0.40725,-1.21721 0.41481,-1.7777 0.032,-2.36692 0.0251,-4.74157 0.0262,-7.11199 5.7e-4,-1.18737 0.24441,-2.67095 -0.61872,-3.6331 -0.6662,-0.74226 -1.52238,-0.68426 -2.42713,-0.68895 -1.44398,-0.007 -3.3528,-0.5249 -4.472,0.6813 -0.7703,0.83019 -0.60933,2.00155 -0.60984,3.04405 l -0.002,4.65667 -1.60867,-6.7e-4 -8.5e-4,1.778 m 5.40935,18.79869 0.16934,-3.4e-4 c 1.30129,-3.01585 4.05002,-5.64711 4.39276,-9.05715 0.19255,-1.91659 -1.54056,-3.82652 -3.4544,-2.54459 -0.58297,0.39053 -0.74849,1.09115 -1.01811,1.6957 -0.16,-0.56472 -0.33057,-1.15705 -0.7769,-1.56942 -1.80909,-1.67147 -3.79294,0.42695 -3.70752,2.3292 0.15082,3.35719 3.12807,6.20618 4.39484,9.14618 m -1.93803,-18.79655 c 1.26149,0.24541 2.36814,0.83896 2.96233,2.03347 -0.70019,-3.8e-4 -2.17235,0.28019 -2.77457,-0.0883 -0.47348,-0.2898 -0.3204,-1.49724 -0.18776,-1.94506 m 4.40216,1.01813 c -0.95775,-0.83784 -1.52899,-1.88046 -2.79282,-2.36656 -0.37077,-0.14268 -1.54811,-0.21329 -1.66611,-0.61152 -0.38915,-1.31363 -0.0253,-3.27002 -0.0246,-4.64415 1.9e-4,-0.44587 -0.14046,-1.19549 0.1006,-1.58932 0.20455,-0.33408 0.66587,-0.2728 1.00098,-0.27281 l 2.37066,9.4e-4 c 0.32791,10e-4 0.73561,-0.0314 0.94965,0.27378 0.34554,0.49259 0.0714,1.7594 0.0895,2.3514 0.0699,2.28383 -0.0268,4.56801 -0.0279,6.858 m 4.12132,56.30572 18.54197,0.0939 14.47795,0.0919 0.13894,-36.23727 0.0513,-12.02263 0.006,-6.68868 -33.01991,-0.18569 -0.1017,34.28996 -0.004,8.55133 -0.007,2.032 0.0907,0.8467 -0.0865,3.13262 -0.0873,6.09596 m 0.85341,-13.54628 0.33875,-0.16917 c -0.45315,-0.83139 -0.67617,-2.35364 0.25547,-2.96321 l -0.25509,2.20121 0.0847,3.3e-4 0.33968,-2.03183 0.25362,0.76212 0.0847,3.4e-4 0.0849,-0.50796 c 1.21122,0.90028 1.40556,3.55526 -0.50976,3.55574 0.007,1.01746 -0.44311,1.11281 -0.84763,1.94693 0.78258,0.32964 0.84629,0.74396 0.8459,1.52442 0.86513,10e-4 1.16815,0.51882 1.52337,1.27076 0.76984,-0.58993 0.68593,-1.26959 1.77863,-1.26913 4.6e-4,-0.8763 0.19842,-1.271 1.01685,-1.69283 -0.73299,-0.62538 -1.01562,-0.77893 -1.01513,-1.77851 -1.20809,-0.002 -0.87201,-0.96555 -1.11319,-1.86321 -0.13615,-0.50654 -0.42261,-0.94518 -0.5785,-1.43963 0.93094,0.29459 1.45898,0.50009 2.45522,0.25522 l -0.76176,-0.50838 0.33842,0.50817 c -1.02693,0.18161 -1.90523,-0.22286 -2.45479,-1.10187 l 1.35433,0.67799 2e-5,-0.0847 -1.10028,-0.76254 1.10054,0.25455 3e-5,-0.0847 -0.16925,-0.16943 c 0.5949,-0.24533 1.01529,0.0586 1.52382,0.3754 0.94331,0.58797 1.74737,1.3243 2.62368,1.99733 l -4e-5,0.0847 c -0.71651,-0.2271 -1.31081,-0.85935 -2.03149,-1.04292 -0.33253,-0.0848 -1.48932,0.59226 -1.48672,0.9653 0.003,0.35772 0.44207,0.81624 0.63996,1.0922 0.75242,1.04922 1.45462,2.1432 2.17062,3.2184 0.18884,0.28363 0.77731,0.88786 0.71278,1.24707 -0.0457,0.25515 -0.48344,0.3473 -0.68541,0.41715 -0.74147,0.25651 -1.50268,0.36654 -2.28619,0.36666 0.78434,1.91496 0.92717,3.97064 0.63846,6.01164 -0.0665,0.47012 -0.12304,1.56662 -0.52078,1.88163 -0.2552,0.20215 -0.98956,0.11323 -1.30698,0.10942 -1.15755,-0.0141 -2.31307,-0.0453 -3.4713,-0.0465 l 0.006,-12.86934 0.002,-3.048 c 1.2e-4,-0.21783 -0.10541,-0.87457 0.1963,-0.94123 0.2492,-0.0551 0.4499,0.21486 0.43565,0.43693 -0.0294,0.46007 -0.38634,0.87508 -0.43434,1.35107 -0.0622,0.61709 0.21952,1.2409 0.22438,1.86278 m 3.05479,-13.88421 c -0.009,0.75937 -0.51898,1.15433 -0.99271,1.69284 -0.8352,0.94954 -1.44522,2.32507 -2.39635,3.13147 -0.11448,-0.64969 0.19044,-1.0777 0.53793,-1.6084 0.7086,-1.08227 1.64418,-2.65381 2.85113,-3.21591 m 0.42501,-3.38645 0.0847,0.0847 -0.35406,1.16094 -1.98201,2.13989 -1.56112,1.77723 c -0.17006,-1.59952 1.40939,-2.95315 2.45739,-3.97939 0.42727,-0.41837 0.81901,-0.9056 1.35517,-1.18338 m -3.81286,5.75548 c 0.46133,0.23526 0.36507,0.55611 -4.1e-4,0.84667 l 4.1e-4,-0.84667 m 0.002,-3.048 0.33842,0.50817 c -0.28113,-0.0933 -0.31629,-0.21944 -0.33842,-0.50817 m 5.1e-4,-1.016 0.84621,0.93176 -0.0847,0.0847 c -0.44372,-0.20731 -0.72432,-0.51978 -0.7615,-1.01637 m 5.4e-4,-1.10072 c 0.49332,0.25805 1.35448,0.92354 1.26925,1.52462 -0.56967,-0.26605 -1.22037,-0.87233 -1.26925,-1.52462 m 5.5e-4,-1.10066 c 0.58086,0.27121 1.87419,1.3473 1.77699,2.03288 -0.66565,-0.31082 -1.71979,-1.26917 -1.77699,-2.03288 m 6.3e-4,-1.27001 0.0847,3.3e-4 0.0845,0.50804 -0.16909,-0.50809 m 5.4e-4,-1.10094 c 0.29094,0.14136 0.40941,0.26605 0.42305,0.59288 -0.32863,-0.0999 -0.39772,-0.25828 -0.42305,-0.59288 m 2.1e-4,-0.42333 0.0847,0.0847 -0.0847,-0.0847 m 3.4e-4,-0.67734 0.16935,-3.4e-4 -2.5e-4,0.42334 -0.16934,3.4e-4 2.4e-4,-0.42334 m 5.5e-4,-1.10066 0.67696,0.76233 c -0.38576,-0.15022 -0.61206,-0.34422 -0.67696,-0.76233 m 0.009,-18.62667 c 2.37117,-0.33716 5.04622,0.002 7.45067,0.003 0.57455,1e-5 2.11781,-0.27302 2.57348,0.0883 0.4478,0.35496 0.0516,1.94269 0.0499,2.45298 0.4758,0.0657 0.42109,1.79352 0.37051,2.20151 -0.23614,1.90481 -0.78977,3.75696 -0.97842,5.67218 -0.0735,0.74495 0.0978,1.62346 -0.8362,1.77759 l 0.17063,-2.62458 -0.42713,2.85305 -2.19973,1.56644 -4.31942,2.86289 -1.86321,1.09526 0.009,-17.94933 m 1.76746,21.25288 -0.76242,0.84628 c 0.27464,-0.12271 0.47632,-0.45908 0.76066,-0.52896 0.33804,-0.0831 0.35871,0.40134 0.30289,0.61408 -0.12868,0.49142 -0.74084,0.86298 -1.23284,0.68459 -0.63133,-0.22891 -0.73564,-1.06631 -0.23463,-1.48838 0.32924,-0.27746 0.78125,-0.2195 1.16634,-0.12761 m 0.25434,-0.6772 -0.84645,-0.42376 0.59232,0.67763 c -0.78767,0.37857 -1.98883,-0.29622 -1.23386,-1.17469 0.74034,-0.86136 1.69893,0.004 1.48799,0.92082 m -1.70475,23.02848 c 0.29114,-0.284 0.5917,-0.60203 1.01633,-0.65752 0.85561,-0.11176 1.13387,0.65774 0.0844,0.65806 l -3e-5,0.0847 0.762,3.6e-4 c -0.27934,0.90343 -1.43456,0.43151 -1.86263,-0.0856 m 0.007,-14.73201 0.50779,0.4236 -0.0847,0.0847 -0.42308,-0.50822 m 0.25929,-10.6679 c 0.53564,0.10914 0.90134,0.5717 1.18483,1.01659 -0.56741,-0.043 -1.03278,-0.4738 -1.18483,-1.01659 m 0.0736,22.43671 c 0.62502,-0.36706 0.81762,-1.18179 0.84758,-1.86224 l -0.0847,-3.3e-4 -0.76292,1.86229 m 0.006,-12.27638 c 0.38052,-0.0543 0.56238,0.12778 0.50775,0.50825 l -0.50775,-0.50825 m 0.003,-5.33401 c 0.66707,0.0369 1.79508,0.88651 1.69253,1.60951 -0.66134,-0.30699 -1.27939,-1.01705 -1.69253,-1.60951 m 0.41729,12.19221 c -0.38502,-0.25818 -0.0776,-0.55799 0.25433,-0.67721 l 3e-5,-0.0847 c -0.67375,-0.22496 0.0515,-0.79727 0.50338,-0.74582 0.42085,0.0479 0.29522,0.37531 0.005,0.49208 l -3e-5,0.0847 c 0.59458,0.0995 0.3737,0.55374 -0.085,0.67728 l -2e-5,0.0847 c 1.08689,-0.0591 0.40423,0.6098 -0.25438,0.76187 l -3e-5,0.0847 c 0.65208,-0.12567 1.13843,-0.008 0.59233,0.67762 l 1.01621,-0.42283 -0.33875,0.16917 c -0.15881,-0.53941 0.008,-0.95614 0.25471,-1.4392 l -0.0845,-0.33872 -0.25396,-0.0848 0.25425,-0.50788 -0.254,2e-5 3e-5,-0.0847 0.0848,-0.25396 -0.4232,-0.25421 c 0.39983,-0.24204 1.10543,-0.72209 1.58526,-0.42019 0.46094,0.28988 0.36172,1.46916 0.36131,1.94515 -4.3e-4,0.55617 0.0659,1.60777 -0.25613,2.08318 -0.40712,0.6011 -1.61795,0.45876 -2.20037,0.28627 l 0.0849,-0.50796 c -0.65322,0.54704 -1.23589,0.1838 -0.76171,-0.59304 l -0.33867,-3.1e-4 0.25446,-0.93121 m -0.0208,-15.09888 0.0564,-0.0282 -0.0564,0.0282 m 0.10492,16.03025 0.25412,-0.25388 -0.25412,0.25388 m 0.004,-8.382 0.50779,0.42358 -0.0847,0.0847 -0.42308,-0.50821 m 0.005,-9.90604 c 0.60471,-0.22906 1.26965,0.69643 1.52341,1.18609 -0.61007,0.0859 -1.20149,-0.72855 -1.52341,-1.18609 m 0.15951,19.81208 c 1.22636,0.42581 1.77377,2.03846 1.7764,3.21822 -0.52497,-0.26511 -0.43238,-0.85535 -0.61232,-1.35497 -0.255,-0.70795 -0.75663,-1.24599 -1.16408,-1.86325 m 0.001,-2.45534 0.0847,-0.0847 -0.0847,0.0847 m 3.31375,-23.70501 c 0.51067,-0.42275 0.77738,-1.13602 1.12852,-1.69279 0.96418,-1.52918 2.54982,-3.75674 2.32166,-5.67151 -0.14114,-1.1843 -1.40118,-2.00018 -2.51326,-1.33661 -0.44116,0.26327 -0.6373,0.72247 -0.84852,1.1656 -0.19698,-0.41622 -0.35779,-0.88629 -0.76931,-1.14057 -1.39132,-0.85972 -2.71216,0.41318 -2.61007,1.81624 0.17861,2.45483 2.18577,4.75883 3.29098,6.85964 m -3.0593,22.85848 0.254,-10e-6 3e-5,-0.0847 -0.25404,0.0845 m 0.0883,-7.19642 c 0.32557,0.11454 0.47435,0.24002 0.42304,0.59288 l -0.42304,-0.59288 m 0.0868,-4.31796 c 0.59186,-0.0834 1.06092,0.60802 1.26945,1.10131 l -0.0847,0.0847 c -0.49112,-0.22937 -0.95588,-0.69456 -1.18475,-1.18593 m 0.0874,-5.50332 c 0.63271,-0.15115 1.5369,0.96918 1.69258,1.52484 l -1.69266,-1.35551 5e-5,-0.16933 m 0.41018,26.58553 c 0.38487,0.23658 0.33313,0.60113 0.33817,1.01617 l 0.0847,3.3e-4 4.4e-4,-0.93133 c 1.0173,0.29564 0.56345,1.9134 -0.17047,2.28591 -0.39071,-0.90791 -0.80616,-1.41916 -0.25282,-2.3708 m 0.50836,-0.67734 -0.0843,-0.84673 -0.0847,-3.3e-4 -0.0851,0.84663 c -0.59808,-0.34143 -0.95683,-2.3576 0.0728,-2.34134 1.13926,0.0181 0.73801,1.9273 0.18129,2.34148 m -0.84343,-6.51948 0.16941,-0.16925 -0.16933,3.5e-4 -6e-5,0.16933 m 0.25902,-10.16031 c 0.3143,0.12606 0.47503,0.24374 0.42303,0.59289 l -0.42303,-0.59289 m 1.18755,-4.48674 -0.59221,-0.93162 c 0.93817,-0.27674 1.88757,0.84464 0.84226,1.40106 -0.52321,0.27853 -1.24257,-0.009 -1.29374,-0.63887 -0.0228,-0.28126 0.15436,-0.5433 0.44528,-0.36757 0.2232,0.13491 0.38979,0.37747 0.59841,0.537 m 0.0859,-2.45528 c -0.17179,0.17153 -0.80745,0.99875 -1.06389,0.63514 -0.48641,-0.68951 0.63247,-1.40236 1.23009,-1.16482 0.17329,0.0688 0.3108,0.20174 0.39962,0.36434 0.72714,1.33048 -1.75697,1.63133 -0.9784,0.67355 0.13979,-0.17198 0.28481,-0.32676 0.41258,-0.50821 m -0.92995,-2.79446 c 0.67584,-0.0564 1.39343,0.89018 1.69262,1.44017 -0.63657,0.0896 -1.44397,-0.90624 -1.69262,-1.44017 m 0.24946,9.14412 0.42305,0.59287 c -0.33557,-0.0976 -0.47376,-0.2401 -0.42305,-0.59287 m 0.24519,17.78013 0.67738,-0.0844 3e-5,-0.0847 c -0.64652,-0.008 -0.7913,-0.49009 -0.0843,-0.64367 0.55132,-0.1197 1.12112,0.25142 1.35422,0.72898 -0.59685,0.40559 -1.48284,0.99055 -1.94738,0.0838 m 0.004,-8.89005 0.0847,-0.0847 -0.0847,0.0847 m 0.0841,1.27004 0.25413,-0.25387 -0.25413,0.25387 m 0.0945,-19.72729 c 0.63741,-0.0898 1.33926,0.83684 1.60799,1.35547 -0.66248,0.0933 -1.15327,-0.79237 -1.60807,-1.18613 l 5e-5,-0.16934 m 0.24442,19.47347 0.0847,-0.0847 -0.0847,0.0847 m 0.0837,1.94737 0.76179,0.4237 -0.76179,-0.4237 m 0.0857,-2.03196 0.0847,-0.0847 -0.0847,0.0847 m 4.24169,-16.84657 c 0.10228,0.6696 -0.41799,0.99362 -0.84409,1.43892 -0.59474,0.62167 -1.22098,1.38944 -1.52839,2.20057 l 0.84667,4e-4 3e-5,-0.0847 -0.50791,-0.16958 c 0.0961,-0.45994 0.33298,-0.49802 0.76221,-0.42295 l 3e-5,-0.0847 -0.42326,-0.16954 c 0.36467,-0.71356 1.01551,-1.56651 1.77892,-1.86179 -0.0464,0.60551 -0.58314,0.76425 -0.83197,1.26831 -0.21086,0.42704 0.23458,0.41786 0.49044,0.25189 0.14669,-0.0952 0.26687,-0.17692 0.42557,-0.25016 -0.004,1.19686 -0.49313,1.10534 -1.43975,0.84596 l -3e-5,0.0847 0.93112,0.4238 c -0.22721,0.61659 -0.70277,0.25465 -1.18541,0.16874 l -3e-5,0.0847 c 1.3512,0.32181 0.39546,1.57812 0.18585,2.5401 -0.065,0.29866 -0.0783,1.07582 -0.32355,1.26737 -0.23182,0.18125 -1.54495,0.0807 -1.67232,-0.20444 -0.14284,-0.3197 0.0629,-0.98727 0.13342,-1.31785 0.10429,-0.48942 0.29341,-0.95271 0.40618,-1.43915 l -0.0847,-3.2e-4 -0.67122,2.87833 0.24431,4.31812 0.0847,3.3e-4 -0.16769,-3.30208 1.778,9.5e-4 c -5.1e-4,0.96816 0.14544,1.9153 0.1679,2.87874 0.0115,0.4904 0.20959,0.96675 -0.42383,1.0158 l -3e-5,0.0847 0.50801,-3e-5 c 0.0737,0.6435 -0.16764,0.67682 -0.76234,0.67696 l -3e-5,0.0847 0.76083,0.1361 0.1697,0.96503 -8.9e-4,2.28599 -0.84657,-0.16974 -3e-5,0.0847 c 0.56418,0.0494 1.26952,0.28349 0.76154,0.93171 l -3e-5,0.0847 c 0.38734,0.51193 0.0756,1.59619 -0.001,2.20134 -1.00691,-0.24798 0.0729,-1.58789 -1.015,-2.0325 l -0.16997,1.26992 c -0.29495,-0.20317 -0.28097,-0.42272 -0.25362,-0.76212 l -0.16933,3.3e-4 -2.5e-4,0.42333 c -0.62356,-0.19173 -0.51663,-0.70942 -0.50526,-1.26897 0.0241,-1.19252 -0.049,-2.37399 -0.19381,-3.55737 -0.49473,-4.04553 -1.22426,-8.4047 1.52022,-11.85258 0.56584,-0.71084 1.22336,-1.56048 2.06676,-1.94631 m -4.06582,3.63846 0.33851,0.33884 -0.33851,-0.33884 m 0.088,-6.68862 c 0.56534,0.15902 1.27872,0.87261 1.43863,1.44005 -0.58438,-0.16429 -1.27483,-0.8556 -1.43863,-1.44005 m 0.0824,4.65671 c 0.47588,0.0737 0.80186,0.38639 0.93091,0.84714 l -0.93103,-0.59314 8e-5,-0.254 m 0.25337,1.35479 0.254,-2e-5 -0.0849,0.33862 -0.16916,-0.33874 m 0.0858,-2.28582 c 0.50802,0.14282 1.06252,0.62697 1.01542,1.18584 -0.47969,-0.22401 -0.93262,-0.64774 -1.01542,-1.18584 m 0.1659,6.94275 c 0.25341,-3e-5 0.50944,-0.01 0.76199,0.015 0.14164,0.0136 0.28209,0.0394 0.42322,0.0574 1.42646,0.18241 -1.36225,1.46085 -1.18521,-0.0722 m 0.0902,-11.09149 c 0.48417,0.25161 1.19388,0.8636 1.18462,1.43992 -0.44206,-0.31172 -1.19346,-0.86495 -1.18462,-1.43992 m 0.49734,21.50557 0.0847,3.4e-4 0.16985,-1.01592 3e-5,-0.0847 -0.16905,-0.59276 0.6773,0.085 3e-5,-0.0847 c -0.88052,-0.21286 -1.27279,-2.58348 -0.67575,-3.21767 -0.43863,-0.40442 -0.18534,-0.66033 0.33901,-0.67717 l 3e-5,-0.0847 c -0.47083,-0.007 -0.72335,-0.0871 -0.76171,-0.59305 l 0.0765,1.77804 0.25907,4.48745 m 0.0879,-6.26552 0.762,3.7e-4 -0.25266,-2.70947 -0.84667,-4e-4 0.33733,2.70949 m -0.33292,-11.59948 c 0.50825,0.022 0.89578,0.49286 1.1002,0.93187 l -0.0847,0.0847 -1.0155,-1.0165 m 0.0712,27.26266 0.33867,3.1e-4 c 0.1396,1.03453 0.81043,1.3544 1.77732,1.35556 l -0.67812,1.60833 1.60874,-0.16854 c -0.0866,0.37757 -0.32919,0.70282 -0.33218,1.1005 -0.007,1.07484 0.98543,1.37978 1.85501,1.27092 l -0.50872,1.43909 1.69334,8e-4 -0.47168,1.18274 -1.30694,0.0796 -3.97931,-0.0799 0.59156,-4.40237 -0.58769,-3.38696 m 0.0948,-20.40467 c 1.21144,0.0809 1.20472,-1.72433 1.52534,-2.70858 -1.3197,-0.69155 -1.51745,1.80366 -1.52534,2.70858 m 0.0859,-2.45529 0.0847,3.3e-4 0.33913,-0.93117 -0.0847,-3.3e-4 -0.33912,0.93117 m 0.16504,8.63608 0.42333,6.5e-4 3e-5,-0.0847 -0.42338,0.0845 m 0.93005,2.62468 c 0.0837,-0.28258 0.088,-0.55172 0.0847,-0.84663 -0.002,-0.20057 -0.0208,-0.39414 -0.0481,-0.59268 -0.0443,-0.32143 -0.36928,-1.0841 -0.79517,-0.54202 -0.4979,0.63374 0.0924,1.84908 0.75856,1.98133 m -0.76262,1.26962 1.18518,0.33925 2e-5,-0.0847 -1.18521,-0.25458 m 1.02424,-16.59417 -0.0847,0.0847 c -0.15864,-0.0674 -1.17679,-0.68333 -0.79153,-0.91809 0.3193,-0.19449 0.77855,0.62243 0.87623,0.83346 m -0.45811,33.60742 c 0.20942,0.59819 1.20238,0.29083 0.98153,-0.32819 -0.21255,-0.596 -1.20008,-0.296 -0.98153,0.32819 m 0.0249,-13.711 c 1.00156,0.41764 2.16267,1.13824 2.79299,2.03339 -0.82172,-0.45804 -2.44148,-1.13287 -2.79299,-2.03339 m 0.0953,-21.33596 c 0.35767,0.25224 0.76858,0.55394 0.7615,1.01638 -0.39479,-0.20644 -0.83693,-0.53517 -0.7615,-1.01638 m 0.13464,33.43418 c 0.23006,0.63952 1.23897,0.24598 0.98284,-0.40438 -0.24261,-0.61616 -1.19633,-0.18907 -0.98284,0.40438 m 1.8953,-29.2845 c -0.008,0.90644 -0.64934,1.75617 -0.91528,2.62421 -0.34905,1.13935 -0.39767,2.37233 -0.43915,3.55579 -0.12539,3.58116 1.10752,7.1807 0.24537,10.75279 l -0.16934,3.4e-4 c -0.29081,-1.23849 0.15242,-2.77082 0.08,-4.06363 -0.16683,-2.97909 -0.69848,-5.9989 -0.34065,-8.97518 0.12855,-1.06918 0.48875,-3.34882 1.53906,-3.8939 m -1.60644,-4.48855 0.0847,-0.0847 c 0.40824,0.1907 0.72314,0.49261 0.8462,0.93176 -0.43902,-0.12351 -0.74062,-0.43862 -0.93091,-0.84714 m 0.15808,22.69079 c 1.06193,0.26825 2.70869,1.30808 3.21621,2.28758 l -0.42326,-0.16953 1.18471,1.27059 -1.10033,-0.67789 c 0.66832,0.57894 1.52872,1.05757 1.9464,1.86363 l -0.67716,-0.339 1.1847,1.27059 -0.33862,-0.0849 0.67687,0.93166 c -0.88566,-0.58591 -2.80058,-1.59727 -3.13137,-2.62623 l 1.60817,1.01681 -2.36966,-2.03318 2.20066,1.35576 c -0.81467,-0.77824 -2.30185,-1.26344 -2.79283,-2.28739 l 1.10041,0.50855 4e-5,-0.0847 c -0.64452,-0.27845 -1.42842,-0.67439 -1.69266,-1.3555 l 2.2007,1.27109 c -0.77757,-0.71041 -2.3468,-1.16862 -2.79295,-2.11805 m 0.92853,5.67316 0.0847,0.0847 c -0.17899,0.3655 -0.43285,0.57485 -0.84691,0.50758 l 0.76229,-0.59229 m -0.41474,-17.35682 c 0.41474,0.26962 0.41929,0.81487 0.50737,1.27025 l 0.254,-10e-6 -0.084,-1.43937 0.16934,-3.4e-4 c 0.23444,0.3547 0.66287,0.83878 0.70989,1.27027 0.0642,0.58905 -0.83278,1.02728 -1.291,0.69827 -0.42123,-0.30246 -0.39718,-1.35451 -0.26564,-1.79963 m -0.079,-11.51414 c 0.53194,0.0295 0.69574,0.25399 0.76162,0.76237 l -0.76162,-0.76237 m 2.788,12.10872 c -0.78947,0.72918 -1.73786,-0.0203 -1.69284,-1.01684 l 1.18505,0.59324 -0.84621,-0.93175 0.42337,-0.0845 4e-5,-0.0847 -0.16912,-0.42342 1.35471,-0.0841 9e-5,-0.16934 c -0.43048,-0.10277 -1.09647,0.0591 -1.3545,-0.33933 0.43879,-0.10131 1.07881,-0.48309 1.51158,-0.22598 0.82618,0.4907 0.0499,1.56016 -0.66559,1.58107 l -4e-5,0.0847 c 0.46207,0.24896 0.4391,0.66035 0.25346,1.10079 1.21043,-1.10829 1.10434,-3.33846 0.13858,-4.57193 -0.38703,-0.49423 -0.8652,-0.88284 -1.40064,-1.19908 -0.14932,-0.0881 -0.38317,-0.24276 -0.23871,-0.44521 0.19462,-0.27278 0.63812,0.0268 0.82644,0.15061 0.58435,0.38425 1.26944,0.96397 1.6111,1.58627 1.22418,2.22963 0.35396,5.00118 -1.86896,6.202 -0.45885,0.24786 -1.09904,0.2941 -1.60886,0.39273 -0.0444,-0.19982 -0.0797,-0.36808 0.11209,-0.50911 0.84791,-0.62332 1.74555,-0.6372 2.42896,-1.60628 m -2.61708,-15.3259 0.93116,0.33913 c -0.34577,0.68419 -0.91124,0.28294 -0.93116,-0.33913 m 0.83042,32.8511 c -0.11416,0.38719 -0.35894,0.57317 -0.76225,0.50761 0.17067,-0.32791 0.40382,-0.44286 0.76225,-0.50761 m 1.02678,-21.75884 c 0.64273,-0.39566 1.46332,0.2968 1.06114,1.00433 -0.2455,0.43186 -1.04274,0.48446 -1.48523,0.51946 l 1.0165,-1.01551 -1.35487,0.42268 0.0849,-0.33863 -0.50795,-0.085 0.59321,-1.10036 -0.0847,-0.0847 -0.16989,3.3e-4 c -0.18547,0.44256 -0.38224,0.97823 -0.93179,0.93088 0.1009,-0.48654 0.20084,-1.22748 0.68273,-1.48489 0.87001,-0.46473 1.49589,0.50366 1.0954,1.23177 m -1.61883,28.52645 c 0.32302,0.64583 1.28839,0.14042 0.91235,-0.48325 -0.31775,-0.52703 -1.18673,-0.0655 -0.91235,0.48325 m 0.524,-40.29608 c -0.12384,0.2718 -0.20011,0.42866 -0.50821,0.42307 l 0.50821,-0.42307 m -0.34996,22.77516 c 0.27677,-0.32159 0.87372,-0.41697 0.9895,-0.84989 0.23301,-0.87104 -0.0133,-1.9896 -0.053,-2.87498 -0.0184,-0.41232 -0.12582,-0.84927 0.25125,-1.10054 0.26979,0.91461 0.0837,2.09571 0.0832,3.04803 -1.9e-4,0.37593 0.0941,0.90794 -0.0517,1.26084 -0.15487,0.37473 -0.85664,0.64211 -1.21912,0.51655 m 0.0788,11.85337 0.76225,-0.50763 0.0845,0.33871 c -0.28779,0.18679 -0.53656,0.38032 -0.84675,0.16892 m 0.42304,0.59288 0.76221,-0.42296 0.0847,0.0847 -9e-5,0.16934 c -0.29577,0.20796 -0.5376,0.43628 -0.84676,0.16892 m 0.004,-8.46664 0.50788,0.25426 -0.50788,-0.25426 m 1.11321,-25.23011 c -0.32283,1.02041 -1.22868,-0.1795 -0.8269,-0.26144 0.21635,-0.0442 0.57282,0.24218 0.8269,0.26144 m -0.85204,10.83692 0.67763,-0.59235 -0.67763,0.59235 m 0.76796,-12.0223 -0.16934,3.4e-4 -0.59254,-0.25428 c 0.14902,-0.68124 0.95103,-0.43861 0.76187,0.25437 m -0.42336,0.0841 0.25396,0.0848 c -0.068,0.32551 -0.16509,0.47464 -0.50821,0.42308 l 0.25425,-0.50787 m 0.65995,35.05236 c -0.0655,0.4034 -0.30143,0.55662 -0.67766,0.67698 -0.0652,-0.45308 0.26564,-0.62208 0.67766,-0.67698 m -0.74252,-39.28571 0.0847,3.3e-4 0.33984,-2.37051 -0.42451,2.37046 m 0.2375,33.27384 0.5925,0.33896 -0.5925,-0.33896 m 1.10218,-3.04745 -1.10088,0.42279 c 0.0375,-0.67292 0.62439,-0.96279 1.10088,-0.42279 m -1.03835,-11.79738 0.0564,-0.0283 -0.0564,0.0283 m 0.12322,-20.88443 0.0847,3.3e-4 0.16993,-1.18525 -0.25459,1.1852 m 0.0635,42.8411 c 0.11061,-0.0602 0.22656,-0.13748 0.34216,-0.1883 0.8797,-0.38674 -0.0454,1.15593 -0.34216,0.1883 m 0.0108,-21.844 0.4233,0.0849 4e-5,-0.0847 -0.42333,-6.5e-4 m 0.008,-15.83221 c 0.50366,-0.31014 0.85078,-0.61993 1.4395,-0.33795 -0.39446,0.51491 -0.82686,0.84533 -1.43959,0.50728 l 9e-5,-0.16933 m 0.32438,28.87149 c 0.24677,0.24905 0.21405,0.48238 -0.16954,0.42326 l 0.16954,-0.42326 m 0.34963,-22.09783 -0.5083,0.59243 0.5083,-0.59243 m -0.50145,-13.20825 0.0847,3.3e-4 1.6e-4,-0.33866 -0.0849,0.33862 m 0.0801,9.3131 c 0.29044,-0.0662 0.41184,-0.0355 0.50787,0.25425 l 0.59272,-0.0844 c -0.22084,0.7326 -0.94138,0.42693 -1.10059,-0.16987 m 0.59317,-1.01572 -0.59254,-0.25429 c 0.27121,-0.89192 1.33613,0.007 0.59254,0.25429 m -0.58834,-8.72097 0.0847,-0.0847 -0.0847,0.0847 m 0.0283,-0.22579 0.0283,-0.0564 -0.0283,0.0564 m 0.0566,-0.1975 0.0847,3.3e-4 0.085,-0.6773 -0.16967,0.67726 m 0.90883,45.38151 c 0.0691,0.46815 -0.34001,0.67149 -0.76229,0.59229 l 0.76229,-0.59229 m -0.40541,-36.15288 -3.3e-4,0.67734 c -0.41582,-0.13974 -0.26785,-0.44015 3.3e-4,-0.67734 m -0.33372,-9.99083 0.0847,3.3e-4 1.7e-4,-0.33867 -0.0849,0.33863 m 0.0669,35.8984 c 0.31923,0.10093 0.3868,0.26878 0.42303,0.59289 -0.31922,-0.10092 -0.38678,-0.26876 -0.42303,-0.59289 m 0.01,-20.06599 0.59288,-0.42304 c -0.12815,0.26588 -0.27812,0.48679 -0.59288,0.42304 m 0.008,-16.256 0.0847,3.3e-4 0.085,-0.59262 -0.16963,0.59259 m 0.14877,41.48645 c 0.95823,0.41408 2.29728,1.34573 2.79287,2.28739 l -0.59249,-0.33897 0.93082,1.01647 -0.93107,-0.50847 1.1847,1.27059 -0.84642,-0.50842 c 0.43466,0.37894 0.97935,0.67232 1.10004,1.27055 l -0.25396,-0.0848 0.50762,0.76225 c -0.57894,-0.19672 -0.97808,-0.6642 -1.26941,-1.18598 l 0.42325,0.16956 -1.10003,-1.27055 0.59249,0.33895 -1.26941,-1.18596 0.93113,0.42379 c -0.52996,-0.47735 -1.27948,-0.72206 -1.52329,-1.44008 l 1.18499,0.67792 c -0.58988,-0.50329 -1.66748,-0.89211 -1.86183,-1.69426 m 0.001,-3.04802 c 0.38186,-0.0144 0.51714,0.18017 0.67709,0.50834 l 0.0847,3.3e-4 c -0.19324,-0.43689 -0.34107,-0.77826 0.25442,-0.84654 l 0.33821,0.9315 c -0.70852,0.21327 -1.09213,0.19859 -1.35438,-0.59333 m 0.003,-6.68896 0.84676,-0.16891 c -0.13195,0.417 -0.45208,0.41956 -0.84688,0.42291 l 1.2e-4,-0.254 m 0.0162,-32.59666 0.0847,3.2e-4 1.7e-4,-0.33867 -0.0849,0.33864 m 0.0659,38.01508 0.508,-3e-5 0.33884,-0.3385 c 0.13229,0.59662 -0.54561,0.88475 -0.84684,0.33825 m 1.28427,-28.78575 c -0.32865,0.46464 -0.67867,0.80356 -1.27034,0.6767 0.23825,-0.49968 0.7175,-0.92522 1.27034,-0.6767 m -1.1965,22.52074 0.76205,-0.0843 c -0.11914,0.35935 -0.41489,0.378 -0.76221,0.42295 l 1.6e-4,-0.33866 m 0.92319,16.42577 c -0.32416,1.14216 -1.31367,0.14201 0,0 m -0.50233,-11.43025 c -1.18285,-0.39752 1.08536,-1.07016 0.66262,-0.39108 -0.13159,0.21134 -0.48977,0.1165 -0.66262,0.39108 m 0.51089,-5.84175 -0.84683,0.33825 c 0.12999,-0.3949 0.47595,-0.43191 0.84683,-0.33825 m -0.76158,-0.84705 0.76205,-0.0843 -0.67754,0.423 -0.0845,-0.33872 m 0.006,-12.44601 0.50821,-0.42308 c -0.0798,0.27538 -0.19912,0.4864 -0.50821,0.42308 m 0.079,11.59937 0.76204,-0.0843 c -0.11083,0.33455 -0.35274,0.35882 -0.67755,0.423 l -0.0845,-0.33871 m 2.9e-4,-0.59269 4e-5,-0.0847 0.84674,-0.16891 c -0.10686,0.36461 -0.53368,0.4047 -0.84678,0.25358 m 0.015,-30.226 0.8472,-1.10024 -0.25433,0.67722 0.76233,-0.67697 -0.76263,1.26963 1.18597,-1.26942 c 5e-4,0.54458 -0.45038,0.94034 -0.76267,1.35429 l 1.35533,-1.354 -0.16958,0.50793 0.0847,3.3e-4 c 0.44592,-0.8307 1.10086,-0.40256 1.69333,8.1e-4 l -0.33846,-0.42351 c 0.45478,-0.064 0.71233,0.29051 1.01571,0.59317 l -0.42304,-0.59287 c 0.5992,-0.0343 2.35291,1.31274 2.62375,1.86396 l -1.60825,-0.84746 -4e-5,0.0847 1.77741,1.18621 -1.69295,-0.76284 1.80254,1.20401 0.4822,1.33713 -1.60838,-0.59347 -4e-5,0.0847 0.6772,0.25433 -4e-5,0.0847 -2.15724,0.21178 -0.38322,0.71829 0.25396,0.0848 c 0.16162,-0.48395 0.48283,-0.11864 0.76196,0.0851 l -0.33841,-0.50817 c 0.52597,0.11761 0.69401,0.16223 1.18537,-0.0841 l -1.7e-4,0.33866 0.0847,3.3e-4 c 0.18064,-0.44449 0.40962,-0.51795 0.84683,-0.33824 l -0.67758,0.50767 -4e-5,0.0847 c 0.36778,-0.13902 0.92421,-0.66638 1.33588,-0.53206 0.45602,0.14881 0.71444,1.47262 0.8818,1.88782 0.2782,0.6906 0.97459,1.54058 1.01867,2.28651 0.0485,0.82248 -1.32906,1.97182 -2.05388,2.11565 l 0.16951,-0.33859 c -0.38652,0.37412 -0.80268,0.75805 -1.27051,1.02791 -2.65193,1.52988 -4.39216,-1.05467 -5.32219,-3.31717 -0.26909,-0.6547 -0.40634,-1.33335 -0.49524,-2.03225 -0.037,-0.29042 -0.10919,-0.71914 0.23246,-0.76189 l -0.25379,-0.42345 c 0.33508,0.0648 0.67039,0.33925 1.01576,0.29667 0.48365,-0.0596 0.48751,-0.49676 0.81993,-0.71182 0.45438,-0.29381 0.12923,0.46327 0.0269,0.5854 l 0.42329,0.085 0.0847,3.3e-4 c -0.0371,-1.78682 -1.0668,-2.21143 -2.62369,-1.94863 l 0.16962,-0.59258 -0.33842,-0.50816 0.1696,-0.50792 c -0.21216,-0.20629 -0.0333,-0.44149 0.085,-0.6773 l -0.3387,0.0844 m 2.5e-4,-0.5088 0.42362,-0.59246 -0.42362,0.59246 m 0.0698,29.97204 0.8468,-0.25358 c -0.18551,0.33595 -0.49719,0.40005 -0.8468,0.25358 m 0.01,-19.38867 4.23283,1.03478 3.13279,-0.26913 4e-5,-0.0847 -1.18537,0.0841 c 0.25385,-0.38232 0.76337,-0.38715 1.18556,-0.4578 1.08958,-0.18226 2.14017,-0.78719 3.21778,-0.89468 -0.36795,0.64759 -1.67415,0.92127 -2.37117,1.01482 l -4e-5,0.0847 2.62505,-0.7607 c -0.55743,0.64955 -1.65938,0.85203 -2.45588,1.07457 -2.58776,0.72313 -5.96965,0.62924 -8.38167,-0.6566 l 9e-5,-0.16934 m 1.01448,3.04853 c -0.14713,-0.0336 -0.28122,-0.0764 -0.42496,-0.12281 -0.94287,-0.30484 0.36589,-0.95502 0.42496,0.12281 m 0.93663,-10.66754 -0.16943,0.16926 0.67722,0.25433 c -0.1913,0.57529 -1.1172,0.20214 -1.6055,0.26446 -0.17443,0.0223 -0.46586,0.22329 -0.63168,0.12364 -0.61466,-0.36912 0.65538,-0.98866 0.96747,-0.97769 0.26669,0.009 0.50982,0.0861 0.76192,0.166 m -1.79823,40.80845 0.16929,0.0848 -0.16929,-0.0848 m 0.0212,-42.67199 0.0847,3.3e-4 0.25421,-0.42322 -0.33887,0.42318 m 0.90652,50.03816 c -0.5742,1.1726 -1.13485,-0.21282 0,0 m -0.84243,-8.55176 c 0.51173,-0.51222 1.43504,-0.71015 2.11712,-0.90564 2.03855,-0.58421 4.09954,-0.63516 6.18081,-0.26846 0.76336,0.13448 2.00143,0.34042 2.53954,0.92547 l -4.31751,-0.98511 -4.57232,0.64205 -4e-5,0.0847 2.79421,-0.42195 -4e-5,0.0847 -2.96372,0.76264 -1.60887,0.42042 4e-5,-0.0847 1.77834,-0.67644 4e-5,-0.0847 -1.9476,0.50703 m 0.0285,-0.56445 0.0283,-0.0564 -0.0283,0.0564 m 0.0701,-27.46016 1.01588,0.2545 c -0.21796,0.73268 -1.21912,0.50968 -1.01588,-0.2545 m -0.0836,-2.28605 c 0.0758,-0.16219 0.14375,-0.28907 0.26683,-0.42362 1.03587,-1.13292 1.11241,0.74019 -0.26683,0.42362 m 0.005,-10.75266 0.16943,-0.16925 -0.16943,0.16925 m 5.5e-4,-1.10067 0.0847,3.3e-4 0.1695,-0.33859 -0.0847,-3.2e-4 -0.16951,0.33857 m 0.0629,44.02671 0.84638,0.5931 -0.84638,-0.5931 m 0.6048,-24.46837 -0.59288,0.42305 c 0.0982,-0.32982 0.24736,-0.45607 0.59288,-0.42305 m -0.58793,-9.56763 c 0.65524,-0.17932 2.26056,0.25293 2.70895,0.76335 -0.83337,-0.007 -2.04813,-0.22945 -2.70895,-0.76335 m 0.004,-8.29732 0.0847,3.3e-4 0.16954,-0.42325 -0.0847,-3.3e-4 -0.16954,0.42325 m 0.0739,21.6747 c 3.38539,0.002 6.45639,1.44253 9.82062,1.44422 -0.11396,0.68082 -1.33846,0.44527 -1.86286,0.37363 -1.96261,-0.26819 -3.79493,-1.03592 -5.75668,-1.30876 -0.58687,-0.0817 -2.01276,0.11237 -2.20108,-0.50909 m 0.17428,-9.99057 0.16934,-3.5e-4 c 0.0834,0.34303 0.0241,0.5296 -0.33895,0.5925 l 0.16962,-0.59258 m -0.16312,-12.53033 0.50825,-0.50775 -0.50825,0.50775 m 0.40473,37.50754 -3.3e-4,0.67734 c -0.24652,-0.24186 -0.29602,-0.46277 3.3e-4,-0.67734 m -0.17581,13.29258 c 0.35838,-0.1529 0.69151,-0.41969 0.93133,5.4e-4 -0.34707,0.20557 -0.73176,0.49511 -0.93133,-5.4e-4 m 0.004,-8.89 c 1.05533,-0.43813 2.13837,-0.92061 3.30246,-0.92969 l -4e-5,0.0847 -2.20166,0.66023 -1.10076,0.1848 m 0.50922,-2.45508 c 0.0747,0.14041 0.14574,0.27626 0.20214,0.42546 0.47528,1.25644 -1.52214,10e-4 -0.20214,-0.42546 m -0.4228,-1.10088 1.01613,-0.25349 c -0.068,0.59424 -0.79956,0.96827 -1.01613,0.25349 m 0.009,-18.88067 0.59284,-0.33836 c -0.093,0.31228 -0.27754,0.52851 -0.59284,0.33836 m 0.008,-16.50999 1.18543,-0.16874 c -0.18473,0.64075 -0.78729,0.62182 -1.18543,0.16874 m 9.97833,24.89694 c -1.84939,0.54569 -4.2425,-0.46183 -6.01086,-0.94107 -1.291,-0.3499 -2.58461,-0.36273 -3.89442,-0.50315 0.25392,-0.68958 1.275,-0.36074 1.86283,-0.33445 1.96177,0.0877 3.82431,1.01187 5.75668,1.31705 0.63139,0.0998 1.92987,-0.11918 2.28577,0.46162 m -9.89655,-19.0549 c 0.47645,-0.0701 1.41232,0.18291 1.69303,0.59352 l -1.69312,-0.42418 9e-5,-0.16934 m 0.004,-8.72066 0.25413,-0.25387 -0.25413,0.25387 m 0.0638,42.16403 c 0.585,-0.41246 1.31739,-0.64552 2.03234,-0.67632 -0.3287,0.37592 -1.57613,0.9573 -2.03234,0.67632 m 0.0873,-5.16462 c 0.09,-0.34083 0.26493,-0.67416 0.6764,-0.65524 0.17331,0.007 0.54158,0.20787 0.35395,0.4252 -0.10718,0.12415 -0.41831,0.089 -0.57065,0.15525 -0.19249,0.0836 -0.25219,0.10647 -0.4597,0.0748 m 1.28322,-26.6694 -0.42371,0.76179 c 0.34096,-0.35466 0.57094,-0.73225 1.10097,-0.59212 -0.1415,0.38584 -0.81793,1.44629 -1.10097,0.59212 l -0.76204,0.0843 c 0.15852,-0.5638 0.59669,-0.93664 1.18575,-0.84609 m -0.27423,40.80924 c -0.11685,0.379 -0.38463,0.51933 -0.76229,0.59228 0.11568,-0.39229 0.36603,-0.53948 0.76229,-0.59228 m -0.0804,-8.72071 -0.42367,0.67713 c -0.3406,-0.36823 0.0625,-0.56962 0.42367,-0.67713 m -0.66622,-22.437 0.59284,-0.33837 -0.59284,0.33837 m 0.93504,-7.45021 -0.84663,-0.0851 c -0.1032,-0.70922 0.77438,-0.55063 0.84663,0.0851 m -0.92933,-4.06445 c 0.35029,-0.0366 0.8226,0.0519 0.93113,0.42379 l -0.93121,-0.25445 9e-5,-0.16934 m 0.0666,36.4067 0.33858,0.1695 4e-5,-0.0847 -0.33862,-0.085 m 0.0952,-21.1665 0.16933,-3.4e-4 c 0.11639,0.3946 0.21574,1.02017 -0.16996,1.26991 l 6.3e-4,-1.27 m -0.0727,-24.21428 0.76246,-0.93095 -0.0847,-3.3e-4 -0.67779,0.931 m 0.10918,40.05267 c -0.0252,-0.61417 0.68273,-0.12835 0.67945,0.32936 -0.004,0.6813 -0.66197,0.0963 -0.67945,-0.32936 m -0.0266,-35.90367 0.0847,-0.0847 -0.0847,0.0847 m 0.0798,9.9907 1.18529,0.0853 c -0.16787,0.7846 -1.00825,0.58683 -1.18529,-0.0853 m 2.18761,27.6871 -0.16955,0.42324 c 0.43735,-0.42795 0.90796,-0.83758 1.43991,-1.14524 2.8423,-1.64392 4.89361,2.11121 5.44575,4.45065 0.13264,0.56217 0.11932,1.12885 0.22386,1.69345 l -0.0847,0.0847 -0.33862,-0.085 -4e-5,0.0847 0.42312,0.42354 c -0.31915,-0.10113 -0.67079,-0.40229 -1.01583,-0.35726 -0.48618,0.0635 -0.50151,0.59215 -0.86735,0.75801 -0.59561,0.27005 0.19857,-0.74944 0.27472,-0.82485 l -0.59283,0.33838 -0.0846,-0.25405 -0.0847,-3.3e-4 c 0.038,0.8814 0.38893,2.08849 1.43825,2.18274 0.40739,0.0366 0.79543,-0.15395 1.18544,-0.23411 l -0.16966,0.67725 0.25404,-0.0845 -0.16967,0.67726 0.25404,-0.0846 -0.16959,0.50791 c 0.21208,0.20627 0.0333,0.44147 -0.085,0.67729 l 0.33875,-0.16915 c -0.14602,0.45746 -0.40862,0.88617 -0.84721,1.10023 l 0.25429,-0.59253 -0.76229,0.59228 0.76259,-1.18495 -1.18593,1.18475 0.67793,-1.185 c -0.24537,0.17379 -1.05588,1.53516 -1.1858,0.93074 -0.73186,0.52593 -1.23686,0.0994 -1.8625,-0.33959 l 0.42304,0.59288 -0.59254,-0.2543 c -0.0936,0.43363 -0.45875,0.0603 -0.67727,-0.11793 -0.54444,-0.44402 -1.56422,-0.85634 -1.86194,-1.49198 l 1.9468,1.10162 -2.11592,-1.52504 1.43904,0.59337 4e-5,-0.0847 c -1.22696,-0.57397 -1.56157,-1.06825 -2.03087,-2.28667 l 1.77771,0.59355 4e-5,-0.0847 -0.84645,-0.42374 c 0.82748,-0.0905 1.72337,0.2082 2.4555,-0.33747 l -0.16917,-0.33874 -0.42329,-0.0848 -0.0848,0.25396 c -0.46403,-0.25389 -0.66353,-0.19025 -1.10072,0.0842 l 1.7e-4,-0.33867 -0.0847,-3.3e-4 c -0.18165,0.42749 -0.42353,0.41559 -0.84683,0.33826 l 0.42359,-0.5078 c -0.30014,0.15766 -0.79089,0.53496 -1.14912,0.37035 -0.28356,-0.13026 -0.38552,-0.77811 -0.48623,-1.0485 -0.33364,-0.89593 -1.34663,-2.18929 -1.34465,-3.13332 0.001,-0.89629 1.33068,-1.81385 2.0516,-2.11566 m -1.09353,-14.39377 0.16933,-3.4e-4 c 0.1814,0.61484 0.03,1.23809 0.002,1.86266 -0.0617,1.39366 -0.18069,2.76352 -0.36789,4.14849 -0.0877,0.6485 -0.0202,1.68748 -0.82367,1.77759 l 0.66529,-4.06368 0.35457,-3.72516 m -0.83965,-14.22399 0.16934,-3.4e-4 -3.3e-4,0.67733 -0.16935,3.4e-4 3.4e-4,-0.67734 m -0.0543,-4.40267 c 3e-5,-0.0654 0.0422,-0.0134 0.0283,0.0282 l -0.0283,-0.0282 m 0.0505,12.19202 0.59283,-0.33837 -0.59283,0.33837 m 0.008,-16.93333 0.0847,-0.0847 -0.0847,0.0847 m 0.49108,34.12091 -0.33865,-3.1e-4 c -0.0967,-0.62548 0.31922,-0.59995 0.33865,3.1e-4 m -0.41644,-13.88553 c 0.47998,0.15957 0.33829,0.76301 0.33808,1.18549 l -0.254,10e-6 -0.0841,-1.18536 m 1.1784,13.97043 c -0.0947,0.82674 -1.06549,0.44907 -0.91654,0.21951 0.10787,-0.16632 0.72153,-0.18116 0.91654,-0.21951 m -0.92298,-16.84912 0.6775,-0.33833 c -0.18418,0.25213 -0.36685,0.50612 -0.6775,0.33833 m 0.009,-17.526 0.16942,-0.16925 -0.16942,0.16925 m 0.65971,35.56033 c 0.0926,0.49976 0.22216,1.05049 -0.42388,1.10046 -0.1274,-0.55861 -0.27883,-0.98785 0.42388,-1.10046 m -0.0836,-2.20138 -0.254,2e-5 c -0.0375,-1.0437 1.21579,-0.48411 1.00882,-0.23945 -0.16011,0.18924 -0.53043,0.0117 -0.75482,0.23957 m -0.24758,-12.95426 c 0.4841,0.1949 0.37956,0.84406 0.25337,1.27012 -0.34341,-0.33664 -0.2536,-0.81758 -0.25337,-1.27012 m 0.59824,-11.26037 -0.50808,0.1691 c -0.10813,-0.48021 0.43559,-0.81277 0.78243,-0.38665 0.22575,0.27741 -0.0596,0.54253 -0.27435,0.21755 m -0.52525,34.79775 0.33859,0.16951 -0.33859,-0.16951 m 0.10244,-35.89862 c 0.23873,-0.44794 0.44099,-0.94085 1.01642,-0.84617 l -0.25437,0.76187 0.0847,3.3e-4 c 0.17125,-0.46584 0.3985,-0.81785 0.93166,-0.67686 -0.10551,0.36824 -0.71681,1.58011 -1.01633,0.67681 -0.27603,0.19265 -0.46097,0.25997 -0.76205,0.0843 m 0.32743,22.69058 0.25383,0.33879 -0.33867,-3.1e-4 0.0849,-0.33862 m -0.0716,-26.4159 2.70946,-0.25266 c -0.65228,-0.49477 -2.28217,-0.55637 -2.70946,0.25266 m 8e-4,-1.60867 0.67729,0.085 3e-5,-0.0847 -0.67733,-3.4e-4 m 0.66114,32.68171 c 0.0195,0.16977 0.0316,0.33759 0.0402,0.50836 0.0719,1.43353 -1.48366,-0.42907 -0.0402,-0.50836 m -0.50536,-5.33425 0.84625,0.84709 c -0.51905,0.0838 -0.9625,-0.32086 -0.84625,-0.84709 m 0.25434,-0.6772 c -0.18876,-0.26613 -0.30694,-0.47514 3.3e-4,-0.67735 l -0.0844,-0.67737 0.25396,0.0848 c -0.19326,-0.23496 -0.41644,-0.58822 3.4e-4,-0.67734 l -0.25367,-0.67745 0.42329,0.0848 -0.33829,-0.76216 c 0.44783,0.12637 0.62734,0.41804 0.76158,0.84703 l -0.25404,0.0845 0.169,0.67742 -0.33863,-0.0849 c 0.20902,0.2254 0.56076,0.66016 0.0843,0.76204 0.16998,0.22217 0.40947,0.62597 -3.3e-4,0.67733 l 0.25362,0.76213 -0.42326,-0.16954 0.3383,0.76217 c -0.36504,-0.0838 -1.2994,-0.81777 -0.59217,-1.01629 m -0.2496,-8.8899 c 0.36572,0.26408 0.25362,0.77338 0.25342,1.18546 -0.47896,-0.15925 -0.37274,-0.7825 -0.25342,-1.18546 m -0.0797,-10.07538 1.18529,0.0853 c -0.16193,0.77707 -1.12574,0.70116 -1.18529,-0.0853 m 0.0851,-0.84662 0.33867,3.1e-4 c -0.0114,0.33992 -0.0422,0.56623 -0.42358,0.50779 l 0.0849,-0.50796 m -0.0176,35.47519 c 0.45397,0.19418 0.62614,0.46961 0.76154,0.9317 l -0.76154,-0.9317 m 0.17509,-11.59926 c 0.4591,0.0769 0.5268,0.49972 0.0844,0.67738 l -0.0844,-0.67738 m 0.0867,-3.97928 0.25392,0.16946 -0.25392,-0.16946 m 3.4e-4,-0.67734 0.33854,0.25417 -0.33854,-0.25417 m 0.25572,-3.4712 4e-5,-0.0847 -0.0844,-0.59271 c 0.36623,0.24055 0.6119,0.47681 0.50753,0.93158 l -0.33858,-0.1695 0.42291,0.84688 c -0.43004,-0.12128 -0.89636,-0.51987 -0.50754,-0.93158 m -0.24766,-12.7848 c 0.66259,0.22013 0.60386,1.0053 0.71244,1.60904 0.28463,1.58246 0.38588,3.1364 0.38509,4.74151 -0.61281,-0.18639 -0.42284,-1.00351 -0.42258,-1.52421 8.2e-4,-1.64998 -0.60514,-3.2068 -0.67495,-4.82634 m 0.074,21.67472 1.18538,-0.0841 c -0.10965,0.6998 -1.02995,0.81407 -1.18538,0.0841 m 0.0898,-10.24463 c 0.36185,0.21456 0.54512,0.42283 0.59224,0.84696 -0.42496,-0.1206 -0.67518,-0.39802 -0.59224,-0.84696 m -0.007,14.478 0.0847,-0.0847 -0.0847,0.0847 m 0.005,-10.24467 0.25392,0.16946 -0.25392,-0.16946 m 3.4e-4,-0.67733 0.16929,0.0848 -0.16929,-0.0848 m 0.0858,-2.11663 0.0847,-0.0847 -0.0847,0.0847 m 0.087,-4.74129 0.16934,-3.4e-4 0.0841,1.10071 -0.25401,2e-5 5.5e-4,-1.10068 m -0.003,6.26562 0.16929,0.0848 -0.16929,-0.0848 m 0.002,-3.21733 c 0.31663,0.0365 0.45198,0.10065 0.50779,0.42358 l -0.50779,-0.42358 m 0.92558,11.59979 c -0.0475,0.59824 -0.0736,1.06279 -0.76255,1.10029 -0.0245,-0.71697 -0.0551,-1.09781 0.76255,-1.10029 m 0.35147,-25.82316 -1.18529,-0.0853 c 0.20329,-0.69959 1.07439,-0.62736 1.18529,0.0853 m -1.18185,-7.02791 0.67725,0.16966 4e-5,-0.0847 -0.6772,-0.25433 -9e-5,0.16934 m 0.0832,2.96337 0.0847,-0.0847 -0.0847,0.0847 m 0.071,27.68603 c 0.085,-0.4105 0.4631,-0.81188 0.919,-0.56401 0.14584,0.0793 0.32842,0.33536 0.12897,0.46675 -0.17634,0.11616 -0.80954,0.0691 -1.04797,0.0973 m 0.0188,-37.84601 0.0847,-0.0847 -0.0847,0.0847 m 0.0797,10.07536 0.0847,-0.0847 -0.0847,0.0847 m 0.0883,-7.36595 c 1.14034,-0.25784 1.71921,-0.28337 2.87871,-0.0832 -0.56877,-0.56154 -2.58111,-0.91797 -2.87871,0.0832 m 0.0611,47.66738 c 0.76825,0.54274 2.26261,0.72636 2.96333,0.002 l -1.69345,0.24215 -1.26988,-0.24361 m 0.2663,-24.80776 -0.25417,0.33854 0.25417,-0.33854 m -0.24146,-25.31545 1.1003,0.76254 4e-5,-0.0847 -1.10034,-0.67787 m 1.01017,11.76917 c -0.14195,0.61216 -0.24705,1.00775 -0.93183,1.01554 0.0589,-0.57224 0.2748,-1.15142 0.93183,-1.01554 m 1.68586,15.0715 c 0.22224,4.9e-4 0.15157,0.14934 0.0845,0.33872 l -0.16925,-0.16942 c -1.23384,1.01275 -3.27893,-0.0837 -2.14559,-1.60602 0.99516,-1.33673 2.53094,0.17348 2.23034,1.43672 m -2.28675,1.52287 c 0.56664,0.24082 0.42293,0.82512 0.42266,1.35488 -6.5e-4,1.32917 -9.8e-4,2.65547 -0.0756,3.97929 -0.0193,0.34281 0.16459,1.38336 -0.14599,1.60132 -0.48709,0.34163 -0.3732,-1.39194 -0.3731,-1.60158 8.6e-4,-1.73473 -0.14594,-3.62617 0.17198,-5.33391 m -0.16379,-11.17609 0.33866,3.2e-4 -0.33879,0.25383 1.2e-4,-0.254 m 0.001,-2.20148 1.27,10e-4 c -0.12936,0.8279 -1.17365,0.84788 -1.27,-10e-4 m 0.003,-5.16466 0.0847,-0.0847 -0.0847,0.0847 m 1.01238,7.36649 c -0.1907,0.40834 -0.49253,0.72316 -0.93175,0.84622 0.10151,-0.49831 0.42838,-0.79025 0.93175,-0.84622 m -0.92982,-3.04845 c 0.77921,0.13043 0.0123,1.07087 0,0 m 0.004,-7.78934 0.0847,-0.0847 -0.0847,0.0847 m 0.23747,33.35879 0.50804,-0.0845 c 0.0598,0.23786 -0.17692,1.62322 -0.58329,1.04797 -0.15567,-0.22022 0.0295,-0.72126 0.0753,-0.96356 m 1.02703,-22.26677 c -0.0704,0.6199 -0.60876,1.02841 -1.10134,1.35412 -0.0997,-0.61481 0.54314,-1.19775 1.10134,-1.35412 m -1.11599,30.90279 0.25409,-0.16921 -0.25409,0.16921 m 1.11562,-30.14079 c -0.077,0.49713 -0.55682,1.11141 -1.10118,1.01545 0.23476,-0.45191 0.60039,-0.87514 1.10118,-1.01545 m -1.09161,-18.28855 0.50783,0.33892 -0.50783,-0.33892 m 0.0659,37.84605 c 0.46782,0.0784 0.47983,0.45939 0.0844,0.67738 l -0.0844,-0.67738 m 1.02536,-18.88015 c -0.0422,0.55607 -0.44032,0.95592 -0.93193,1.18486 -0.0895,-0.55343 0.45381,-0.99631 0.93193,-1.18486 m -0.95234,-14.50668 0.0564,-0.0283 -0.0564,0.0283 m -0.0539,-5.13649 c 0.52325,-0.0118 1.2966,0.63918 1.52345,1.10142 -0.58207,-0.1858 -1.16259,-0.61103 -1.52345,-1.10142 m 0.0585,52.9167 c 0.56661,0.13346 1.18734,0.57275 1.43879,1.10138 -0.53197,-0.14522 -1.15513,-0.6277 -1.43879,-1.10138 m 0.007,-13.54668 1.10071,-0.0842 c -0.14122,0.67745 -0.78906,0.62013 -1.10071,0.0842 m 1.27575,-11.59869 4e-5,-0.0847 c -0.71628,-0.007 -1.20794,-0.32953 -1.10011,-1.10122 -0.61975,0.81723 0.34541,1.41834 1.10007,1.18589 m -0.33501,-7.36616 c -0.0403,0.52939 -0.3748,0.81582 -0.84717,1.01557 -0.0183,-0.51284 0.37162,-0.88238 0.84717,-1.01557 m -3.3e-4,0.67732 c -0.0376,0.49656 -0.31858,0.80866 -0.76251,1.01562 l -0.0847,-0.0847 c 0.14754,-0.43324 0.43361,-0.73817 0.84713,-0.93091 m -0.0857,2.11659 -0.1697,0.76192 0.16903,0.59274 -0.42328,-0.0849 0.0849,-0.33863 -0.25405,0.0846 c -0.10542,-0.47979 0.22229,-0.75377 0.59318,-1.01571 m 0.085,-0.67733 c -0.0525,0.47021 -0.29984,0.74729 -0.67784,1.01567 -0.10915,-0.49671 0.25042,-0.81649 0.67784,-1.01567 m 3.8e-4,-0.762 c -0.0518,0.46318 -0.30693,0.86938 -0.76251,1.01563 0.0376,-0.49656 0.31857,-0.80867 0.76251,-1.01563 m -0.75793,-8.21303 c 0.0383,-0.17873 0.091,-0.33719 0.15688,-0.50826 0.53587,-1.39267 1.03061,0.73592 -0.15688,0.50826 m 0.005,-9.99068 0.0847,-0.0846 -0.0847,0.0846 m 0.14671,45.63541 0.59279,-0.25371 4e-5,-0.0847 -0.59283,0.33837 m 1.11779,-34.54344 -1.10071,0.0842 c 0.11185,-0.70123 0.81854,-0.65669 1.10071,-0.0842 m -1.09593,-9.56788 0.0847,-0.0847 -0.0847,0.0847 m 0.91379,35.39112 c -0.12744,0.54959 -0.21681,0.99524 -0.84716,1.01559 0.0782,-0.52955 0.18372,-1.19211 0.84716,-1.01559 m -0.2475,-13.12346 5e-5,-0.0847 -0.50775,-0.50824 c -0.0363,0.38114 0.13943,0.53447 0.5077,0.5929 m 0.58915,7.1123 c 0.13356,0.60805 -0.55373,1.20487 -1.10134,1.35412 0.0905,-0.58425 0.63763,-1.02779 1.10134,-1.35412 m 2.5e-4,-0.508 c -0.14308,0.50877 -0.59455,0.88786 -1.01659,1.18483 -0.10428,-0.55589 0.5219,-1.04622 1.01659,-1.18483 m -0.16895,-0.76209 c 0.10698,0.58223 -0.43331,0.99199 -0.93193,1.18488 0.0628,-0.5614 0.44462,-0.93238 0.93193,-1.18488 m -0.0844,-0.67736 c 0.10074,0.54843 -0.3825,0.96847 -0.84726,1.1849 0.0188,-0.56827 0.33761,-0.94751 0.84726,-1.1849 m -0.42308,-0.50822 -0.33875,0.16917 c -0.0791,-0.48992 0.26683,-0.80091 0.67783,-1.01567 l -0.33908,0.8465 0.33874,-0.16916 c 0.0804,0.49788 -0.29564,0.82907 -0.67787,1.10032 -0.10039,-0.41432 0.1085,-0.60455 0.33913,-0.93116 m -0.16871,-1.27008 -0.25396,-0.0848 0.33901,-0.67716 c -0.28809,-0.0619 -0.25279,-0.23771 -0.25375,-0.50813 l 0.42329,0.085 -0.16954,0.42325 0.42341,-0.16911 -0.25434,0.67719 c 0.65898,0.14156 -0.15901,0.86963 -0.50846,0.93108 l 0.25434,-0.6772 m -0.25073,-6.60425 0.16935,-3.4e-4 8e-5,-0.16933 -0.16942,0.16924 m 0.012,-24.12957 0.0847,-0.0847 0.25383,0.33881 -0.33854,-0.25418 m 0.0581,53.7634 0.25387,0.25414 -0.25387,-0.25414 m 0.002,-3.21732 0.42332,6.5e-4 4e-5,-0.0847 -0.42337,0.0845 m 1.27609,-12.27649 -1.26999,-0.001 c 0.1621,-0.79258 1.17389,-0.84533 1.26999,0.001 m -1.18853,6.51875 c 1.02829,0.30464 1.89349,0.32563 2.79413,-0.25261 l 4e-5,-0.0847 -2.79409,0.16793 -8e-5,0.16934 m 0.0809,7.62006 1.43884,1.0167 c -0.28252,-0.39317 -0.91812,-1.06123 -1.43884,-1.0167 m 0.0107,-21.67467 0.25413,-0.25388 -0.25413,0.25388 m 0.0128,-25.73867 0.3388,-0.25383 -0.3388,0.25383 m 1.00102,30.2265 c -0.0788,0.50889 -0.43382,0.83062 -0.93179,0.93088 0.13104,-0.46595 0.47849,-0.777 0.93179,-0.93088 m -0.0734,-22.77536 c -0.0133,0.63084 -0.0522,1.09217 -0.76255,1.10028 0.0497,-0.56665 0.11932,-1.07944 0.76255,-1.10028 m -0.69547,36.57565 0.50787,0.25426 c -0.12994,-0.22359 -0.24867,-0.3234 -0.50787,-0.25426 m 0.0848,-0.25396 0.50791,0.16959 5e-5,-0.0847 -0.50796,-0.085 m 0.93544,-8.29682 c -0.0587,0.5829 -0.26675,1.1205 -0.93179,0.93087 0.18085,-0.53373 0.28092,-1.03186 0.93179,-0.93087 m -0.9187,-25.48513 c 0.56903,-0.13222 0.58825,0.55757 -2.1e-4,0.42333 l 2.1e-4,-0.42333 m 0.12357,35.4472 0.0564,-0.0283 -0.0564,0.0283 m -0.0393,-34.68516 0.50792,0.16958 0.76208,-0.16896 c -0.31144,0.58524 -1.13691,0.84391 -1.27,-10e-4 m 0.67628,2.11739 -0.0881,6.94262 c -0.68483,-0.0791 -0.5187,-0.77861 -0.49125,-1.31902 0.0711,-1.39459 0.0637,-2.78753 0.0706,-4.18453 0.002,-0.54795 -0.21301,-1.38323 0.5088,-1.43907 m -0.51866,21.50507 1.18533,9.7e-4 c -0.1491,0.69673 -0.96651,0.60886 -1.18533,-9.7e-4 m 0.42375,-0.84646 -2.9e-4,0.59267 c -0.47265,-0.0824 -0.47617,-0.51332 2.9e-4,-0.59267 m -0.346,14.8165 0.59245,0.42362 -0.59245,-0.42362 m 0.002,-4.91067 0.0847,-0.0847 -0.0847,0.0847 m 0.0872,-4.99529 0.254,-1e-5 4e-5,-0.0847 -0.25404,0.0845 m 0.0833,2.70959 0.9312,0.25446 4e-5,-0.0847 -0.93124,-0.1698 m 0.25912,-10.32921 -1.7e-4,0.33867 -0.25396,-0.0848 0.25413,-0.25387 m -0.1734,8.21256 0.0847,-0.0847 -0.0847,0.0847 m 1.19993,-29.4634 -0.67724,-0.16969 -0.50809,0.16909 c 0.22689,-0.6503 1.06227,-0.77587 1.18533,9.7e-4 m -1.18474,-1.1863 0.0866,-0.50704 c 0.26689,-1.40601 1.49694,0.9707 -0.0866,0.50704 m 0.068,33.6127 0.0847,-0.0847 -0.0847,0.0847 m 0.0932,-17.10262 0.42332,6.4e-4 0.28882,4.06415 0.38538,2.28619 c -0.62311,-0.26288 -0.58065,-1.02079 -0.69322,-1.60944 -0.29844,-1.56132 -0.40508,-3.15574 -0.4043,-4.74154 m 0.0751,19.47337 0.25413,-0.25387 -0.25413,0.25387 m 0.003,-5.842 0.254,-1e-5 5e-5,-0.0847 -0.25405,0.0845 m 9.7e-4,-1.94712 c 0.0156,-0.17644 0.0355,-0.33942 0.0939,-0.5083 0.47405,-1.37313 1.27732,0.43303 -0.0939,0.5083 m 0.0351,-13.85714 0.0283,-0.0563 -0.0283,0.0563 m 1.40586,10.64052 -1.26996,-0.0853 c 0.22492,-0.7745 1.0815,-0.621 1.26996,0.0853 m -1.17849,-13.80126 0.50779,0.4236 c -0.35317,0.0493 -0.52228,-0.0564 -0.50779,-0.4236 m 3.4e-4,-0.67733 0.42325,0.16954 c -0.24473,-0.26512 -0.56139,-0.58829 -0.16892,-0.84674 -0.16079,-0.33418 -0.23722,-0.53938 4.2e-4,-0.84667 l -0.16904,-0.59275 0.42325,0.16955 c -0.29736,-0.32196 -0.5342,-0.61309 -0.25349,-1.01612 -0.20141,-0.20162 -0.23092,-0.44049 0.0849,-0.50796 l -0.16895,-0.76209 0.33858,0.1695 c -0.25708,-0.27844 -0.42302,-0.46342 -0.33825,-0.84683 l 0.33859,0.1695 -0.33829,-0.76217 c 0.44762,0.18978 0.8907,0.48871 0.84616,1.01642 l -0.33863,-0.0849 0.25363,0.76213 -0.25396,-0.0848 0.25362,0.76212 -0.50788,-0.25425 0.42292,0.84688 -0.5925,-0.33896 c 0.26767,0.27107 0.80508,0.70871 0.33816,1.01617 l 0.169,0.67747 -0.42325,-0.16955 0.42292,0.84688 -0.50792,-0.16958 c 0.21392,0.21871 0.7011,0.73297 0.16891,0.84674 l 0.25367,0.67747 c -0.44055,-0.12442 -0.64302,-0.39478 -0.67691,-0.84708 m 0.13145,19.5299 0.0564,-0.0282 -0.0564,0.0282 m 0.0409,-25.54112 c 0.5027,-0.075 0.86065,0.30979 1.01562,0.76249 l -0.0847,0.0847 -0.93099,-0.67779 8e-5,-0.16933 m 0.003,-6.6887 2.20167,-0.67624 4e-5,-0.0847 -1.27013,0.25337 c 0.322,-0.51538 1.44946,-0.78753 2.03242,-0.84566 l -0.76225,0.50762 -4e-5,0.0847 0.93146,-0.25354 c -0.37784,0.63422 -2.44014,1.2853 -3.13317,1.01445 m 0.16153,15.74807 c 0.36545,0.26385 0.28535,0.79154 0.16875,1.18542 -0.32615,-0.31969 -0.29249,-0.76747 -0.16875,-1.18542 m -0.0825,-4.4027 0.0847,-0.0847 -0.0847,0.0847 m 0.0857,-2.03195 0.0847,-0.0847 -0.0847,0.0847 m 0.004,-8.72068 0.42333,6.5e-4 4e-5,-0.0847 -0.42338,0.0845 m 0.005,-9.05978 0.0847,3.3e-4 0.5922,0.93164 c -0.46347,-0.15959 -0.63384,-0.45489 -0.67687,-0.93167 m 1.08186,37.93091 c -0.15968,0.50361 -0.42384,1.02781 -1.01646,0.93084 0.10772,-0.55739 0.39677,-1.05899 1.01646,-0.93084 m -1.00361,-24.97716 1.01612,-0.2535 0.16934,-3.4e-4 0.0847,0.0847 c -0.19247,0.72761 -0.90085,0.84233 -1.27009,0.16871 m 0.42379,-0.93066 -2.9e-4,0.59266 -0.33866,-3.1e-4 c -0.0545,-0.3526 -0.0391,-0.52944 0.33895,-0.5925 m -0.33799,-1.3547 c -5e-4,-0.19895 -0.007,-0.39412 -0.0222,-0.59242 -0.0988,-1.29892 1.48818,0.51196 0.0222,0.59242 m -0.0162,32.59667 0.84653,0.25442 4e-5,-0.0847 -0.84657,-0.16975 m 0.0119,-23.96066 0.0847,-0.0847 -0.0847,0.0847 m 10e-4,-2.11666 0.16928,0.0848 -0.16928,-0.0848 m 3.3e-4,-0.67734 0.16929,0.0848 -0.16929,-0.0848 m 0.15934,20.15075 0.42531,0.1085 c 1.1196,0.2471 -0.46538,0.97039 -0.42531,-0.1085 m 0.0851,-0.76196 c 0.31973,0.10726 0.30203,0.28242 0.25371,0.59279 l -0.33863,-0.0849 0.0849,-0.50796 m -0.0675,-34.79799 c 0.55631,0.23589 0.9536,0.6805 1.26941,1.18595 l -0.59254,-0.2543 1.26933,1.35531 c -0.6502,-0.25044 -1.58063,-0.88208 -1.69254,-1.60951 l 0.33859,0.1695 -0.59225,-0.84695 m 0.2425,23.19878 0.16934,-3.3e-4 0.0841,1.18537 c -0.47897,-0.15924 -0.37274,-0.7825 -0.25341,-1.18546 m -0.0801,-9.22828 0.42333,6.4e-4 -0.0848,0.25396 -0.33855,-0.25416 m 0.003,-6.09644 0.33867,3.1e-4 4e-5,-0.0847 -0.33871,0.0845 m 0.15415,30.64929 c 0.85848,-0.0916 1.95616,0.28148 2.709,0.67869 l -4e-5,0.0847 c -0.64955,0.13861 -2.23794,-0.29236 -2.70896,-0.76335 m 0.007,-13.54665 0.0847,0.0847 -0.0847,-0.0847 m 1.02322,-14.56217 -1.01608,0.16883 c 0.0834,-0.61464 0.81203,-0.84212 1.01608,-0.16883 m 0.1562,26.50078 c -0.13236,0.55703 -0.48796,1.05758 -1.10113,0.93078 0.2128,-0.58044 0.46112,-0.92347 1.10113,-0.93078 m 0.35021,-23.28317 -1.01982,7.70417 -0.33867,-3.3e-4 c 0.0118,-1.94859 0.20311,-3.91275 0.45045,-5.84178 0.0948,-0.73976 0.0225,-1.73911 0.90804,-1.86221 m -1.18324,-4.23376 c -0.053,-0.14176 -0.10342,-0.27557 -0.13026,-0.42552 -0.23735,-1.32362 1.41347,0.08 0.13026,0.42552 m -0.16543,-7.87409 c 0.64859,0.24983 1.83677,1.00658 2.03116,1.69434 l -1.01571,-0.59317 c 0.57084,0.48703 1.40711,0.79319 1.69258,1.52484 l -0.84645,-0.42375 c 0.54138,0.46889 1.34631,0.77951 1.52324,1.52475 l -1.10033,-0.67787 c 0.60467,0.55248 1.52956,0.91482 1.86183,1.69425 l -1.35429,-0.76267 2.03112,1.779 -1.86213,-1.10158 c 0.686,0.62686 2.14549,1.1427 2.45433,2.03322 l -1.35433,-0.67802 -4e-5,0.0847 c 0.69554,0.32935 1.77165,0.84712 2.0312,1.60969 -1.20016,-0.50302 -2.80876,-1.48172 -3.47003,-2.6264 l 1.18496,0.76259 c -0.58623,-0.54013 -1.733,-1.11203 -1.86171,-1.94824 l 1.01562,0.76249 c -0.54398,-0.52113 -1.35698,-0.9552 -1.60782,-1.69413 l 0.50788,0.25426 -0.84617,-1.01643 1.26958,0.84731 c -0.55381,-0.50912 -1.42311,-0.9632 -1.69249,-1.69417 l 0.25396,0.0848 -0.59229,-0.7623 0.42324,0.16955 -0.67691,-0.84701 m 0.0717,26.16206 0.50821,-0.42308 c -0.0798,0.27539 -0.19913,0.4864 -0.50821,0.42308 m 0.0133,-26.75467 0.0847,-0.0847 -0.0847,0.0847 m 0.0631,43.51871 0.0847,-0.0847 -0.0847,0.0847 m 1.19013,-9.65141 -1.18526,-0.16992 c 0.22703,-0.76324 1.10391,-0.56174 1.18526,0.16992 m -1.10277,4.23279 c 0.52852,-0.0535 1.4855,0.11372 1.77771,0.59355 -0.54481,-0.0478 -1.36328,-0.23115 -1.77771,-0.59355 m 0.008,-15.748 0.254,-1e-5 c 0.003,0.42206 0.24173,1.0206 -0.25459,1.18521 l 5.9e-4,-1.18534 m 0.15804,22.77555 1.94734,0.001 c 0.057,-0.26532 0.35643,-0.32715 0.39513,0.003 0.11989,1.02114 -1.31148,0.84474 -1.83477,0.58937 l 4e-5,-0.0847 0.59267,3.1e-4 4e-5,-0.0847 -1.10054,-0.25456 9e-5,-0.16933 m 0.51711,-18.37325 c 0.005,0.3275 -0.14043,0.44063 -0.42363,0.59247 -0.005,-0.32369 0.15194,-0.43013 0.42363,-0.59247 m -0.34702,16.84851 0.33871,-0.0845 4e-5,-0.0847 -0.33875,0.16917 m 0.002,-5.08003 c 0.38861,0.032 0.80125,0.0725 1.01579,0.42383 l -1.01587,-0.2545 8e-5,-0.16933 m 7.6e-4,-1.52399 c 0.0777,-0.15195 0.1527,-0.28848 0.25912,-0.42364 0.96546,-1.22617 1.01656,0.8928 -0.25912,0.42364 m 0.0135,-27.26267 c 0.35853,0.0623 0.40415,0.24979 0.42303,0.59287 -0.36929,-0.0618 -0.41162,-0.2393 -0.42303,-0.59287 m 0.0652,39.28536 0.0847,3.4e-4 0.50842,-0.84641 -0.59309,0.84636 m 0.0917,-14.22424 0.84658,0.16975 c -0.11533,0.72104 -0.97384,0.51286 -0.84658,-0.16975 m -0.0727,-24.13005 1.10083,-0.33811 c 0.16912,0.76928 -0.74741,0.96881 -1.10083,0.33811 m 0.002,-3.47133 0.50804,-0.0845 c 0.0787,0.24228 0.29602,0.63973 0.19455,0.89469 -0.28484,0.7158 -0.69279,-0.59342 -0.70259,-0.81027 m 0.003,-5.67261 0.33858,0.16951 -0.33858,-0.16951 m 0.15901,20.82808 0.16934,-3.4e-4 0.0841,1.27004 -0.254,2e-5 6.2e-4,-1.27 m 0.69055,-26.66938 -0.67766,0.67701 c -0.0654,-0.4536 0.27318,-0.60389 0.67766,-0.67701 m -0.70154,48.85232 c 0.39179,-0.42711 0.92246,-0.56612 1.27,10e-4 l -1.27,-10e-4 m 2.9e-4,-0.59267 0.50804,-0.0845 4e-5,-0.0847 -0.50808,0.16907 m 0.25891,-9.9058 0.0844,0.5927 -0.33866,-3.1e-4 0.2543,-0.59254 m -0.23819,-31.91931 1.01567,0.67784 4e-5,-0.0847 -1.01571,-0.59318 m 0.58016,25.23096 -0.50826,0.50774 0.50826,-0.50774 m -0.49688,-22.43692 0.59296,-0.59237 c 0.0321,0.37576 -0.19692,0.657 -0.59296,0.59237 m 0.0678,34.12071 0.16933,-3.4e-4 -8e-5,0.16933 -0.16925,-0.16941 m 0.18402,-29.63283 c -0.13621,-0.73471 0.91095,-0.73454 0.85357,-0.43756 -0.03,0.15518 -0.69444,0.35264 -0.85357,0.43756 m 0.7685,-13.12295 c 0.16266,0.48674 -0.26389,0.6424 -0.67771,0.76167 -0.0662,-0.45877 0.29824,-0.60269 0.67771,-0.76167 m -0.61834,51.8157 0.25412,-0.25388 -0.25412,0.25388 m 1.27575,-11.5987 -0.33892,0.50783 c 0.36214,-0.22749 0.58716,-0.35074 1.01612,-0.2535 -0.25154,0.51551 -0.70246,0.80551 -1.27033,0.67671 l 8e-5,-0.16933 0.25413,-0.25388 c -0.3194,0.23555 -0.53679,0.33595 -0.93146,0.25353 0.16946,-0.6024 0.66216,-0.97477 1.27038,-0.76136 m -1.26593,-8.2133 0.59287,-0.42304 c -0.12814,0.26588 -0.27811,0.48678 -0.59287,0.42304 m 0.003,-5.842 h 0.254 l 0.0841,1.1007 -0.3387,0.0845 5.9e-4,-1.18533 m 0.0666,-15.22727 c 0.0337,-0.56276 0.79168,0.0665 0.74245,0.47654 -0.0718,0.59898 -0.76482,-0.10212 -0.74245,-0.47654 m 0.0922,36.6482 0.42332,6.4e-4 4e-5,-0.0847 -0.42337,0.0845 m 0.76679,-9.65207 -0.76183,-0.33905 c 0.49695,-0.77124 1.44376,0.11218 0.76183,0.33905 m -0.67817,1.69299 0.0847,0.0847 -0.0847,-0.0847 m 0.0788,11.85337 0.25413,-0.25387 -0.25413,0.25387 m 0.87164,-50.37623 -0.84683,0.33824 c 0.0682,-0.40196 0.65222,-0.9178 0.84683,-0.33824 m -0.70247,50.71499 0.50826,-0.50775 -0.50826,0.50775 m 0.006,-12.954 0.93125,0.16979 c -0.12255,0.74823 -0.8828,0.47099 -0.93125,-0.16979 m 0.59598,-6.68838 -0.59287,0.42305 c 0.11682,-0.31204 0.25591,-0.44327 0.59287,-0.42305 m -0.59018,-4.99561 0.0847,0.0847 -0.0847,-0.0847 m 0.029,-1.60867 0.0283,-0.0282 c 0.0139,0.0417 -0.0284,0.0935 -0.0283,0.0282 m -0.0193,-17.94933 0.93099,0.67778 -0.93099,-0.67778 m 0.41334,20.15088 -0.16942,0.16924 -0.0845,-0.33871 0.0847,3.3e-4 -8e-5,0.16934 c 0.0453,-0.50452 -0.15191,-1.00727 -0.15843,-1.51656 -0.0151,-1.18981 0.45183,-2.48931 1.34741,-3.2932 0.54676,-0.49079 1.23013,-0.86308 1.94655,-0.98286 0.18399,-0.0308 0.69649,-0.21749 0.7762,0.0608 0.11401,0.39798 -0.96066,0.56637 -1.19991,0.69706 -1.0753,0.58705 -1.89908,1.54718 -2.18271,2.74906 -0.2771,1.17419 0.19162,2.52188 1.00196,3.38681 0.24794,0.26462 1.37847,0.83229 1.36753,1.18264 -0.017,0.53966 -0.88811,-0.0738 -1.03698,-0.18636 -0.72625,-0.54945 -1.43417,-1.19969 -1.6923,-2.09727 m 0.51065,-5.33405 -9e-5,0.16933 -0.84675,0.16892 c 0.12829,-0.3872 0.48171,-0.41726 0.84684,-0.33825 m -0.84642,-0.50842 c 0.26464,-0.27301 0.56346,-0.33323 0.93147,-0.25353 l -9e-5,0.16932 -0.93138,0.0842 m 0.004,-8.88996 c 0.33878,0.11929 0.34111,0.35713 0.25366,0.67746 l -0.16933,3.4e-4 -0.0844,-0.67738 m 0.0659,38.01496 0.33883,-0.33851 -0.33883,0.33851 m 0.0911,-12.95397 0.33861,0.085 -0.16958,0.50791 -0.16934,3.5e-4 3e-4,-0.59269 m 0.77057,-17.27215 c -0.12881,0.3911 -0.47222,0.40676 -0.84688,0.42291 0.13075,-0.40287 0.46248,-0.41489 0.84688,-0.42291 m -0.84638,-0.59309 0.93141,-0.16887 -8e-5,0.16933 c -0.33271,0.12438 -0.63138,0.22347 -0.93133,-5.5e-4 m 0.84994,-6.60349 0.16934,-3.4e-4 c 0.18298,0.99534 -1.08397,0.65343 -0.91662,0.3918 0.11141,-0.17418 0.55872,-0.17897 0.74729,-0.39189 m -0.42171,-3.30178 c 0.26556,0.43481 0.61878,0.95407 -0.0852,1.10063 -0.15218,-0.44069 -0.49834,-0.88561 0.0852,-1.10063 m -0.34319,9.14383 c 0.26827,-0.28155 0.55668,-0.34812 0.93145,-0.25354 l -8e-5,0.16934 -0.93137,0.0841 m 0.68627,-18.03352 0.0847,3.3e-4 c 0.18636,0.48753 -0.24461,0.68339 -0.67772,0.76166 l 0.59305,-0.76171 m -0.51644,17.01746 0.76209,-0.16895 0.0847,0.0847 -9e-5,0.16933 -0.76213,0.25363 -0.0845,-0.33872 m 0.0679,33.95142 0.25417,-0.33854 -0.25417,0.33854 m 3e-4,-0.59267 0.33887,-0.42316 -0.33887,0.42316 m 2.9e-4,-0.59267 0.25413,-0.25387 -0.25413,0.25387 m 2.9e-4,-0.59266 0.16946,-0.25392 -0.0847,-3.3e-4 -0.0848,0.25396 m 0.51689,-17.94879 -0.50825,0.50774 0.50825,-0.50774 m 0.34617,-15.15517 c -0.1288,0.3911 -0.47221,0.40676 -0.84687,0.42291 0.1288,-0.39109 0.47222,-0.40674 0.84687,-0.42291 m 0.0873,-5.16462 -0.0847,0.0847 -0.76212,0.25361 c -0.15217,-0.62745 0.5358,-0.90279 0.84684,-0.33824 m -0.78211,40.55492 0.42358,-0.50779 c -0.0666,0.25261 -0.1325,0.51488 -0.42358,0.50779 m 0.0211,-42.672 0.33871,-0.0845 0.42287,0.93155 c -0.41692,-0.12353 -0.58516,-0.46923 -0.76158,-0.847 m 0.0897,-10.07538 0.33925,-1.18516 5.50334,0.003 c -0.25181,1.70693 -0.70723,3.2362 -0.58762,4.99503 0.0676,0.99216 0.44135,1.90819 0.58371,2.87897 l -0.33866,-3.2e-4 c -0.20539,-0.88724 -0.79839,-1.57994 -1.77733,-1.35555 l 0.67812,-1.60832 -1.69337,0.0839 c 0.12826,-0.30912 0.36098,-0.59188 0.4044,-0.93113 0.15232,-1.18949 -1.06617,-1.42318 -1.92726,-1.35563 l 0.59338,-1.43903 -1.77796,-0.0857 m 0.0643,41.06334 c 0.51564,-0.36993 0.82804,-0.67873 1.43951,-0.33796 -0.37439,0.48453 -0.95405,0.88811 -1.43951,0.33796 m 0.86585,-38.69225 -0.76221,0.42295 c -0.11,-0.47799 0.56548,-1.00894 0.76221,-0.42295 m 0.15158,35.81407 -0.93116,-0.33913 c 0.26653,-0.69556 1.11863,-0.37146 0.93116,0.33913 m 0.34517,-13.12315 4e-5,-0.0847 c -1.16801,-0.28219 -0.62203,-1.89965 0.24633,-1.60212 0.28579,0.098 0.4685,0.43017 0.62104,0.67122 0.1411,0.22282 0.20545,0.41835 0.23343,0.67744 l -1.10038,-0.59322 -0.0847,0.0847 0.84621,0.93175 -0.0847,0.0847 -0.50796,-0.0849 -3e-5,0.0847 c 0.91497,0.36901 -0.86274,0.48321 -1.01638,0.7615 l 1.35463,0.0854 c -0.13007,0.21313 -0.26931,0.28308 -0.50861,0.366 -0.32949,0.11414 -0.76113,0.28624 -1.07334,0.0427 -0.49181,-0.38344 -0.19606,-1.42308 0.3975,-1.52498 0.22524,-0.0388 0.45954,0.0508 0.67695,0.10002 m 0.66948,15.8329 -7.2e-4,1.43935 0.0847,3.3e-4 c 2.6e-4,-0.53476 -0.12195,-1.30604 0.22007,-1.76224 0.49284,-0.65719 1.63744,-1.16521 2.32161,-1.6231 1.28803,-0.86201 2.60509,-1.67857 3.89592,-2.53814 0.68721,-0.45762 1.41152,-1.10208 2.20201,-1.35357 l -0.007,13.37732 -0.002,3.21733 -0.14808,1.1829 -2.39218,0.008 -7.705,-0.0108 0.0858,-2.28597 c -0.45675,-0.063 -0.41991,-1.78083 -0.40582,-2.20153 0.0657,-1.94934 0.89422,-3.87568 1.00366,-5.8415 0.0386,-0.69476 -0.0121,-1.51316 0.84627,-1.60826 m -1.43544,-7.87519 c 0.005,0.32368 -0.15193,0.43011 -0.42362,0.59246 l 0.42362,-0.59246 m -0.34165,6.01117 0.93121,0.25447 c -0.2182,0.71759 -0.8979,0.35354 -0.93121,-0.25447 m 1.69955,-12.52984 -1.0165,1.01551 1.35487,-0.42267 -0.25421,0.42321 c 1.02839,-0.40352 0.1676,0.75268 0.16875,1.18542 0.32412,-0.38085 0.52512,-1.06096 1.10112,-0.93079 -0.10566,0.5093 -0.23997,1.2548 -0.76739,1.49221 -0.74311,0.33448 -1.41903,-0.47789 -1.09544,-1.15446 -0.63423,0.14845 -1.47567,-0.48224 -0.95252,-1.16227 0.29703,-0.38611 1.01529,-0.43715 1.46132,-0.44616 m -1.51703,-14.05541 c 0.32862,0.0998 0.39771,0.25826 0.42303,0.59287 -0.31923,-0.10092 -0.38679,-0.26874 -0.42303,-0.59287 m 0.10672,-9.15014 c 1.3e-4,-0.26196 0.68749,-0.678 0.75132,-0.30823 0.0591,0.3431 -0.75151,0.69551 -0.75132,0.30823 m 0.0498,34.97355 0.33863,0.0849 -0.42359,0.5078 0.085,-0.59262 m -0.006,12.27662 0.0847,3.3e-4 1.7e-4,-0.33866 -0.0849,0.33861 m 0.008,-16.6796 0.59279,-0.25371 c -0.14095,0.29186 -0.26404,0.42844 -0.59288,0.42304 l 9e-5,-0.16933 m 0.77219,-20.57362 1.7e-4,-0.33868 0.33867,3.1e-4 c -0.0464,1.40376 -1.69182,0.18273 -0.33884,0.33851 m -0.69558,36.82952 0.0847,3.3e-4 1.2e-4,-0.254 -0.0848,0.25396 m 0.0849,-0.50825 0.0847,3.3e-4 1.7e-4,-0.33867 -0.0849,0.33863 m 0.0195,-39.28562 c 0.65014,0.37447 1.21902,0.88647 1.86204,1.27728 0.53197,0.32325 1.11186,0.47442 1.35412,1.09498 -1.0465,-0.30261 -2.81121,-1.32635 -3.21616,-2.37226 m 0.0936,38.80558 0.0283,-0.0564 -0.0283,0.0564 m 0.32913,-37.62004 -0.0849,0.42329 -0.16934,3.4e-4 -0.0847,-0.0847 0.33884,-0.3385 m -0.1594,36.85765 0.0283,-0.0564 -0.0283,0.0564 m 0.75601,-44.81649 c 0.11288,0.4913 -0.30323,0.76211 -0.76233,0.67696 l 0.76233,-0.67696 m -0.67114,44.39321 0.0283,-0.0564 -0.0283,0.0564 m -0.009,-37.87421 0.25395,0.0848 -0.25395,-0.0848 m 0.0661,37.50737 0.0847,3.3e-4 0.085,-0.67729 -0.16967,0.67725 m 0.16976,-0.84688 0.0847,3.3e-4 0.085,-0.67728 -0.16967,0.67724 m 0.004,-7.28162 0.84654,0.25443 c -0.21507,0.70728 -0.82753,0.33774 -0.84654,-0.25443 m 5.5e-4,-1.10066 c 0.18274,-1.10142 1.21195,0.0944 0.83015,0.17676 -0.25259,0.0544 -0.47756,-0.25719 -0.83015,-0.17676 m 0.0631,-13.23617 0.0564,-0.0282 -0.0564,0.0282 m 0.0267,2.99155 0.59295,-0.59238 -0.59295,0.59238 m 0.0116,-23.368 0.93149,-0.33821 -8e-5,0.16933 -0.84688,0.42292 -0.0846,-0.25404 m 0.0643,41.2327 0.0847,3.3e-4 1.2e-4,-0.254 -0.0848,0.25396 m 0.1698,-0.93154 0.0847,3.3e-4 2.1e-4,-0.42333 -0.0849,0.42329 m 0.42643,-6.26541 -0.42358,0.50779 c 0.0256,-0.32714 0.0924,-0.45275 0.42358,-0.50779 m 0.8575,-21.84358 c -0.15943,0.50903 -0.77136,0.42845 -0.9653,0.86523 -0.44644,1.00511 0.0321,2.87039 0.0315,3.96031 -0.48769,-0.14358 -0.33807,-1.18067 -0.33786,-1.60884 6.7e-4,-1.35645 -0.44914,-2.95373 1.27159,-3.2167 m -1.19902,27.60074 0.0847,3.3e-4 0.17029,-1.94724 -0.25496,1.9472 m 1.19596,-21.42037 -0.33871,0.0845 0.25337,1.27013 c -1.02295,-0.17594 -1.40673,-2.05971 6.6e-4,-2.01489 0.55947,0.0178 0.98022,1.46563 0.54565,1.74626 -0.31726,0.20491 -0.42753,-0.91335 -0.46097,-1.086 m -1.09501,-11.43051 c 0.8728,0.41343 2.30213,1.10596 2.79304,1.94872 -0.9586,-0.17345 -2.23962,-1.16884 -2.79304,-1.94872 m 0.0842,1.01604 0.42316,0.33888 c -0.27108,-0.0122 -0.3421,-0.0798 -0.42316,-0.33888 m 0.76586,-7.78896 c -0.0187,0.42342 -0.31754,0.59041 -0.67771,0.76167 -0.0655,-0.46104 0.2726,-0.64148 0.67771,-0.76167 m -0.69597,37.59167 0.0847,-0.0847 -0.0847,0.0847 m 0.0988,-42.75697 c 0.0561,0.67254 1.08598,0.57272 1.0301,-0.0827 -0.0562,-0.65959 -1.08624,-0.58966 -1.0301,0.0827 m 1.02013,5.84285 0.0845,0.33872 -0.84679,0.25356 0.76229,-0.59228 m 0.23738,33.52812 -0.33867,-3.1e-4 -0.59249,-0.33897 c 0.24159,-0.76366 0.91207,-0.2582 0.93116,0.33913 m 2.61985,9.73813 c 0.19352,1.89848 2.95405,1.81467 3.25805,0.001 0.13927,-0.83026 -0.18889,-1.70011 -0.49697,-2.45557 -0.73342,-1.79869 -1.94204,-3.33285 -2.75735,-5.08137 l -0.16935,3.4e-4 c -0.95494,2.21322 -2.82403,4.06946 -3.26586,6.51771 -0.24858,1.37724 0.77339,2.99319 2.33008,2.28081 0.59484,-0.27216 0.66642,-0.86335 1.10139,-1.26309 m -2.35337,-34.88368 c 0.34806,0.34248 0.18679,0.8178 0.16235,1.27008 -0.0461,0.85266 -0.44447,2.68134 0.0893,3.38672 l -0.0842,-1.01605 c 0.40597,0.009 1.3344,0.0545 1.60618,0.40109 0.32644,0.4164 0.22237,1.62529 0.26251,2.13984 0.0142,0.18289 0.1067,0.46275 -0.0133,0.62593 -0.15446,0.20999 -0.69018,0.11609 -0.92573,0.1356 l -4e-5,0.0847 c 0.44061,-7e-5 0.8467,-0.075 1.10049,0.33921 l 0.0847,3.3e-4 c -0.0811,-1.91037 -0.60613,-3.93408 -0.2511,-5.84212 0.71631,0.2873 0.44625,0.90564 0.42621,1.52421 -0.0347,1.07356 0.13471,2.23509 0.26186,3.30214 0.46609,3.91147 1.12474,7.95642 -1.20422,11.42939 -0.58242,0.86857 -1.39719,1.93572 -2.37175,2.36949 0.0136,-1.09439 1.41823,-2.01029 1.9488,-2.96236 l -1.01591,-0.16985 -4e-5,0.0847 c 1.32773,0.36897 -0.2583,1.98828 -1.01709,2.20084 l 0.93213,-1.60821 c -0.46543,-0.15611 -0.61049,0.0614 -1.01613,0.2535 0.002,-0.70765 0.14992,-1.15876 0.93183,-1.01553 l 4e-5,-0.0847 c -0.37678,-0.13929 -0.39489,-0.32032 -0.25366,-0.67746 l 0.67726,0.16968 3e-5,-0.0847 -0.59254,-0.2543 c 0.43032,-1.10782 0.8809,-2.26922 0.93305,-3.47087 l 1.7256,0.17222 -1.9e-4,1.01397 -0.96544,2.87818 0.0847,3.3e-4 c 0.53505,-1.30241 1.03691,-2.56277 1.17291,-3.97875 0.16502,-1.71747 -0.1942,-3.46753 -0.40638,-5.16487 l -0.84675,0.16891 -4e-5,0.0847 c 0.22257,0.0285 0.59579,0.0261 0.74674,0.2205 0.40673,0.52353 0.32065,2.16982 0.34912,2.82804 0.01,0.22387 0.0654,0.60693 -0.0841,0.79557 -0.19486,0.24578 -1.40932,0.24517 -1.60392,-6.6e-4 -0.15511,-0.19608 -0.079,-0.56273 -0.10104,-0.79566 -0.0401,-0.42362 -0.0804,-0.84754 -0.13018,-1.27007 -0.0656,-0.55663 -0.10706,-1.13265 -0.10796,-1.69339 l 0.42332,6.4e-4 4e-5,-0.0847 c -0.6225,-0.10188 -0.60223,-0.86068 0.085,-0.67729 l -0.60142,-0.43617 -0.32882,-1.76563 c 0.2709,0.91835 0.17283,2.00822 0.26683,2.96355 0.26891,2.73267 0.73308,6.94421 -1.3735,9.14325 -0.2053,-0.71765 0.381,-1.3759 0.6195,-2.03171 0.40602,-1.11688 0.52658,-2.29751 0.63884,-3.47101 0.10706,-1.11907 -0.12239,-2.30782 -0.21835,-3.42268 -0.22873,-2.65831 -0.50746,-5.36685 -0.0156,-8.00744 m -1.02872,25.73703 0.42354,-0.42311 c -0.0438,0.26895 -0.1257,0.46492 -0.42354,0.42311 m 0.25626,-4.57187 c 0.32001,0.22842 0.5657,0.43691 0.50759,0.84692 -0.46466,-0.16805 -0.50613,-0.37592 -0.50759,-0.84692 m 0.8609,-28.70158 -4e-5,0.0847 -0.76225,0.50763 c -0.0682,-0.46301 0.33861,-0.73433 0.7623,-0.5923 m -0.67785,1.01566 c 1.04962,-0.35448 1.9323,-0.59171 3.04829,-0.59116 -1.18229,-2.53152 -1.12491,-5.75357 0.004,-8.29732 l 4.7413,0.087 -0.009,17.18733 -0.84654,-0.25443 0.49305,-1.43907 -0.15266,-2.03208 c -0.97545,0.68683 -1.18612,1.58233 -1.18668,2.70874 -1.31276,-0.67197 -1.09252,-2.41736 -0.32819,-3.37091 0.18037,-0.22504 0.5107,-0.15462 0.66635,-0.38237 0.15835,-0.23158 0.0358,-0.54997 0.17446,-0.79426 0.20372,-0.35887 0.60356,-0.61311 0.84478,-0.95512 -0.89771,-0.37814 -0.511,-0.79892 -0.93302,-1.4116 -0.16954,-0.24629 -0.50642,-0.0873 -0.72647,-0.25234 -0.29216,-0.21892 -0.47024,-0.67968 -0.70988,-0.9619 0.20533,0.64992 1.13632,2.03348 -0.001,2.37066 l -0.0842,-0.93137 -0.0847,-3.3e-4 -0.0852,0.9313 c -1.20204,-0.63113 -0.0104,-1.86227 0.17064,-2.6246 l -0.0847,-3.3e-4 c -0.44248,0.86678 -0.69892,1.35434 -1.694,1.35384 0.0413,0.97715 -0.24677,1.10741 -0.93222,1.77754 0.85079,0.40301 1.0156,0.79561 1.01516,1.69383 1.20768,0.005 0.90727,1.06936 1.11993,1.94788 0.12193,0.5035 0.38324,0.95998 0.57173,1.43963 -0.80582,-0.42272 -1.58726,-0.67473 -2.45522,-0.25521 l 1.69276,1.18617 c -1.0563,0.50467 -2.62456,-1.08064 -3.38582,-1.71593 -0.30223,-0.25221 -0.591,-0.46739 -0.76159,-0.82614 0.46012,0.24518 0.89855,0.52902 1.35428,0.78258 0.22371,0.1244 0.49875,0.38192 0.7618,0.39551 0.40816,0.021 1.53816,-0.7206 1.38014,-1.17669 -0.48242,-1.39207 -1.91206,-2.83363 -2.73221,-4.06502 -0.32056,-0.48132 -0.74121,-0.94432 -0.84591,-1.52441 m 0.15581,27.09402 c 0.44046,0.12384 0.83002,0.44881 0.76154,0.93172 l -0.16935,3.4e-4 -0.5922,-0.93164 m 0.17093,-32.76421 c 0.009,0.63696 1.00528,0.63083 1.00559,-10e-4 3.1e-4,-0.63668 -1.01434,-0.62643 -1.00559,10e-4 m 0.22599,29.1798 0.0564,-0.0283 -0.0564,0.0283 m 0.0253,-30.62612 c 0.20925,0.59777 1.22387,0.31903 1.01286,-0.32412 -0.20882,-0.63637 -1.23868,-0.32107 -1.01286,0.32412 m 0.086,33.78704 0.0847,-0.0847 0.16934,-3.4e-4 0.67691,0.847 -0.33871,0.0845 -0.59224,-0.84697 m 0.0933,-17.35611 c 0.66224,0.0343 1.66814,0.25229 1.69284,1.01684 -0.73389,-0.0323 -1.6831,-0.16197 -1.69284,-1.01684 m 1.18551,-0.33809 0.0854,-1.35462 c 0.61969,0.3129 0.51135,1.44568 0.33766,2.03217 -0.40432,-0.0938 -1.38485,-0.26408 -1.55388,-0.69715 -0.0984,-0.25185 0.009,-1.99873 0.36859,-1.93479 0.31984,0.0569 0.17323,0.64643 0.14629,0.85342 -0.0806,0.62041 -0.0433,0.94156 0.61601,1.10097 m -1.02293,13.96951 0.8465,0.33907 -0.0849,0.4233 0.0847,3.3e-4 0.25429,-0.59254 -1.10058,-0.16987 m 0.76368,-3.38659 c -0.0574,0.425 -0.15816,0.85489 -0.26767,1.26987 -0.0673,0.25498 -0.1419,0.5092 -0.21764,0.7619 -0.0943,0.31449 -0.12978,1.3684 0.52628,0.87257 0.41325,-0.31229 0.99485,-2.22835 0.71102,-2.69111 -0.14315,-0.23333 -0.51764,-0.20812 -0.75199,-0.21323 m -0.51127,6.60375 0.0847,-0.0847 0.93096,0.76247 c -0.43624,0.39873 -0.87557,-0.27281 -1.01566,-0.67784 m 0.93792,-13.29216 c -1.2e-4,-0.79205 0.15861,-1.9354 -0.84571,-1.94776 -4.6e-4,0.92168 -0.32379,1.94625 0.84571,1.94776 m 1.01327,5.50384 c -0.009,0.7321 -1.27827,0.96668 -1.68624,0.37338 -0.22015,-0.32023 0.32387,-0.37033 0.50099,-0.37355 l 0.42325,-3e-4 0.762,3.7e-4 m -0.50762,-0.76216 c 4.7e-4,-0.94844 0.18167,-2.86664 -1.09933,-2.70989 0.0203,1.00578 -0.13901,2.70834 1.09933,2.70989 m -1.01437,-3.3025 0.0847,-0.0847 -0.0847,0.0847 m 0.0775,14.47803 c 0.58006,-0.009 1.28907,0.8214 1.43866,1.35538 -0.62594,-0.17608 -1.09247,-0.83145 -1.43866,-1.35538 m 0.002,-3.21732 0.0847,-0.0847 c 0.43323,0.20232 0.91894,0.58728 0.84613,1.10108 l -0.93083,-1.01646 m 0.0903,-11.34525 0.0847,-0.0847 -0.0847,0.0847 m 0.50276,10.58357 c 0.47502,0.24671 0.93102,0.63742 1.01541,1.18585 -0.49447,-0.13911 -1.09324,-0.6369 -1.01541,-1.18585 m -0.002,3.47135 c 0.60232,0.16938 1.23935,0.85285 1.43862,1.44004 -0.58438,-0.16429 -1.27482,-0.85559 -1.43862,-1.44004 m 2.29909,-26.41488 -0.25404,0.0845 c 0.66682,0.73229 -1.32133,1.07301 -1.57945,0.15391 -0.23293,-0.82951 1.50201,-0.91112 1.83349,-0.23845 m -1.78904,22.26654 0.84625,0.84709 c -0.48898,0.0688 -0.91558,-0.35818 -0.84625,-0.84709 m -0.002,3.72533 c 0.64479,-0.0908 1.27127,0.8765 1.608,1.35547 -0.6226,0.0877 -1.36518,-0.83405 -1.608,-1.35547 m 0.0951,-20.91262 c 0.98931,-0.29187 2.01864,0.14189 2.5395,1.01726 l -1.439,-0.67806 -3e-5,0.0847 c 0.44968,0.13002 0.88164,0.33436 1.10029,0.76255 -0.87763,-0.0407 -1.63745,-0.53506 -2.20075,-1.18642 m 0.24585,16.42545 0.25396,0.0848 -6e-5,0.16933 -0.25404,0.0845 2.2e-4,-0.33866 m 2.54739,-15.06932 c -0.0749,0.91471 -0.75339,0.72786 -1.27063,1.26938 l 0.50808,-0.16908 -0.33934,1.35451 0.0845,0.33869 c 0.18593,0.16875 0.13413,0.31028 -2.7e-4,0.508 l -3e-5,0.0847 -2.4e-4,0.42333 0.42341,-0.16912 0.16922,0.25409 c -0.18957,0.15272 -0.36328,0.27557 -0.59294,0.36267 -1.60601,0.60888 -1.40541,-1.12829 -1.35678,-2.2263 0.0211,-0.47896 -0.0392,-1.34631 0.31979,-1.7184 0.45676,-0.4735 1.46168,-0.30943 2.05519,-0.31244 m -2.29541,19.04887 c 0.6645,-0.0936 1.44767,0.93554 1.60791,1.5248 -0.62442,-0.17557 -1.33828,-0.9458 -1.60791,-1.5248 m 1.10155,-1.77745 c 1.29845,-0.8605 0.77623,1.35354 -0.50062,0.97901 -1.01712,-0.29837 -0.43659,-1.76197 0.4959,-1.71375 0.50951,0.0264 0.17034,0.52671 0.005,0.73474 m -1.01459,-2.96383 0.33849,0.33883 -0.33849,-0.33883 m 1.18466,1.35526 0.16907,0.50807 c -0.17098,0.0807 -0.3124,0.15191 -0.50848,0.13149 -1.81195,-0.18861 0.0508,-2.78245 0.87284,-1.22309 0.26527,0.50314 -0.0408,0.92634 -0.53343,0.58353 m -0.92441,-13.97048 0.67754,-0.42299 -0.67754,0.42299 m 3.97602,6.69064 c -0.001,1.97214 -2.36023,4.19755 -3.89728,5.24741 0.0349,-1.64497 1.61129,-2.72565 2.61559,-3.89336 0.3869,-0.44991 0.74629,-1.08312 1.28169,-1.35405 m -3.74626,-14.67738 0.0564,-0.0282 -0.0564,0.0282 m 0.0159,24.83554 c 0.66867,-0.12541 1.34345,0.92125 1.77733,1.35555 l -3e-5,0.0847 -0.16942,0.16923 -0.0847,-3.2e-4 -1.52321,-1.60942 m 0.16973,-0.84629 0.33888,-0.42317 -0.33888,0.42317 m 0.0119,-23.96067 0.0847,-0.0847 -0.0847,0.0847 m 0.074,21.59004 0.42316,0.33889 -0.42316,-0.33889 m 3.47632,-10.0736 c -0.005,1.42941 -1.36539,2.85936 -2.25237,3.89354 -0.35869,0.41833 -0.72762,0.84418 -1.22143,1.10006 0.003,-0.77156 0.46131,-1.1338 0.94318,-1.69286 0.85985,-0.99763 1.53199,-2.47422 2.53062,-3.30074 m -2.87313,-11.17743 0.0843,0.8467 0.0847,3.3e-4 0.0851,-0.84662 c 0.65508,0.32334 0.65581,1.06604 0.46322,1.69357 -0.0716,0.23363 -0.24408,0.65247 -0.54481,0.64777 -1.04486,-0.0163 -0.86973,-1.9796 -0.17241,-2.34146 m -0.51631,16.76345 0.16943,-0.16926 0.0847,3.3e-4 0.33837,0.59284 -0.59246,-0.42363 m 0.17346,-8.29753 0.0847,-0.0847 -0.0847,0.0847 m 0.003,-6.09599 c 0.52547,0.26534 0.41994,0.85491 0.59961,1.35496 0.24993,0.69532 0.79874,1.20384 1.09212,1.86321 -1.17585,-0.68046 -1.69222,-1.91262 -1.69173,-3.21817 m 0.0763,16.8487 c 0.56177,0.15336 1.04939,0.61554 1.18475,1.18591 -0.54155,-0.14225 -1.03787,-0.64711 -1.18475,-1.18591 m 0.005,-9.82133 0.0847,-0.0847 -0.0847,0.0847 m 0.33132,14.81683 c 0.61387,-0.0864 1.25694,0.73512 1.4387,1.27071 l -0.0847,0.0847 c -0.53835,-0.25138 -1.10314,-0.81682 -1.354,-1.35534 m 0.004,-8.12804 0.50775,0.50825 -0.50775,-0.50825 m 0.25275,2.54013 c 0.67373,0.10429 1.47339,0.97608 1.69253,1.60951 -0.69682,-0.15234 -1.58563,-0.87032 -1.69253,-1.60951 m 0.93687,-11.17554 2e-5,-0.0847 c -0.21379,0.0311 -0.59944,0.19773 -0.79429,0.0613 -0.42707,-0.29917 0.53641,-1.10845 0.79444,-1.19383 0.88939,-0.29454 0.25075,0.89174 -1.8e-4,1.13259 l 0.59279,-0.25371 c 0.10674,0.39408 -0.005,0.61899 -0.25446,0.93121 0.49457,0.10627 0.17387,0.58597 -0.16966,0.67724 l -3e-5,0.0847 c 0.63209,0.21241 -0.004,0.73033 -0.4221,0.74207 -0.66236,0.0186 -0.2308,-0.49999 0.16801,-0.57287 l 3e-5,-0.0847 c -0.68457,0.0782 -0.90277,-0.39685 -0.16904,-0.59275 -0.99991,-0.19456 -0.50039,-0.67224 0.25442,-0.84654 m -0.50405,-7.87435 c -0.35652,-0.70595 1.25646,-0.6812 1.50913,-0.0715 0.42377,1.02257 -2.43128,1.01531 -1.50913,0.0715 m -0.0926,15.9173 0.42308,0.50821 -0.50792,-0.16959 0.0849,-0.33862 m 0.0811,7.1967 0.59254,0.2543 -0.33841,-0.50818 c 0.79555,-0.38238 1.93043,0.28334 1.22589,1.17673 -0.72231,0.91607 -1.69527,-0.01 -1.48002,-0.92285 m 0.33896,-0.5925 0.59318,-1.0157 -0.93168,0.67687 c -0.0528,-0.22237 -0.10409,-0.44717 -0.0647,-0.67736 0.33871,-1.9763 3.02691,0.36201 1.16395,0.96129 -0.24109,0.0775 -0.51099,0.0548 -0.76076,0.0548 m -0.1673,-4.06396 c 0.70339,0.19779 1.80572,1.2858 1.86165,2.03291 -0.68835,-0.3214 -1.6827,-1.27854 -1.86165,-2.03291 m 0.0817,6.01137 c 0.56309,0.0629 1.03203,0.471 1.18483,1.01658 -0.53801,-0.0834 -0.96129,-0.53666 -1.18483,-1.01658 m 0.008,-15.83267 0.254,-10e-6 3e-5,-0.0847 -0.25404,0.0845 m 0.16606,6.68897 0.42308,0.5082 -0.0847,0.0847 c -0.28822,-0.14569 -0.38502,-0.26986 -0.33837,-0.59283 m 0.0595,-6.03954 0.0564,-0.0283 -0.0564,0.0283 m 0.10584,14.16758 0.33859,0.1695 -0.33859,-0.1695 m 0.94145,-20.40421 c 0.0892,1.12797 0.26587,1.84138 -0.34009,2.8785 -0.41131,-0.68735 -0.0169,-1.58633 0.17046,-2.28591 l -0.0847,-3.3e-4 -0.33966,2.03183 c -0.78871,-0.55775 -0.10672,-2.28234 0.59398,-2.62438 m -0.854,14.81653 c 0.57125,0.16065 1.41577,0.88742 1.3539,1.52468 l -0.16934,3.4e-4 -1.18457,-1.52459 m 0.005,-9.31375 0.0847,-0.0847 -0.0847,0.0847 m 0.16626,6.18074 0.42304,0.59289 c -0.37403,-0.0552 -0.5128,-0.21912 -0.42304,-0.59289 m 0.33741,2.54017 c 0.48999,0.13784 0.83075,0.51918 0.93083,1.01646 -0.44474,-0.19258 -0.79992,-0.54489 -0.93083,-1.01646 m 0.002,-2.96333 0.0847,-0.0847 c 0.28822,0.14567 0.38502,0.26985 0.33838,0.59283 l -0.42308,-0.50821 m 0.16438,9.99081 0.67695,0.76233 -0.67695,-0.76233 m 0.1703,-1.94726 c 0.42955,-0.0625 0.49545,0.21115 0.5077,0.59292 l -0.5077,-0.59292 m 0.59716,-9.05903 -0.16979,0.93124 c -0.40167,-0.33937 -0.27397,-0.70389 0.16979,-0.93124 m -0.42501,3.38646 c 0.28822,0.14568 0.385,0.26975 0.33837,0.59282 l -0.33837,-0.59282 m 0.16593,6.85807 0.0847,3.3e-4 0.0845,0.50804 -0.16908,-0.50809 m 0.001,-2.28627 0.16934,-3.5e-4 -2.8e-4,0.508 -0.16907,-0.50807 m 7.18873,16.09067 c 0.21024,0.64611 0.41562,1.38399 1.02986,1.76285 1.38523,0.85438 3.37301,-0.12101 3.45408,-1.76063 0.0677,-1.36818 -0.45167,-2.59092 -1.01072,-3.8105 -0.95925,-2.09275 -2.21779,-4.03369 -3.38369,-6.013 l -0.16933,3.5e-4 c -1.58266,2.85094 -4.33164,5.98996 -4.48319,9.39577 -0.0761,1.70998 1.68842,3.07627 3.29081,2.25563 0.72746,-0.37259 0.96465,-1.13736 1.27218,-1.83004 m 5.49892,8.93864 -1.60866,-6.7e-4 c 2.6e-4,-0.60943 0.0643,-1.25896 -0.0246,-1.86269 -0.43348,-2.94457 -3.87269,-1.47714 -5.72334,-1.97707 -0.49117,-0.13267 -0.86268,-0.84398 -1.27697,-1.14551 -0.75647,-0.55062 -1.55274,-0.60698 -2.45503,-0.60743 l -8e-4,1.69332 c 0.56743,0.002 1.67744,0.10675 1.79087,0.84766 0.0752,0.49135 -0.40726,1.21721 -0.41482,1.7777 -0.0319,2.36692 -0.0251,4.74157 -0.0262,7.11199 -5.7e-4,1.18737 -0.2444,2.67095 0.61872,3.6331 0.66621,0.74226 1.52238,0.68426 2.42713,0.68895 1.44399,0.007 3.3528,0.5249 4.47201,-0.6813 0.77029,-0.83019 0.60932,-2.00155 0.60984,-3.04405 l 0.002,-4.65667 1.60867,6.7e-4 8.5e-4,-1.778 m -3.47133,-0.002 c -1.2615,-0.24541 -2.36815,-0.83896 -2.96233,-2.03347 0.70018,3.8e-4 2.17235,-0.28019 2.77456,0.0883 0.47349,0.2898 0.3204,1.49724 0.18777,1.94506 m -4.40217,-1.01813 c 0.95776,0.83784 1.52899,1.88046 2.79283,2.36656 0.37077,0.14268 1.54811,0.21329 1.66611,0.61152 0.38915,1.31363 0.0253,3.27002 0.0246,4.64415 -2e-4,0.44587 0.14045,1.19549 -0.1006,1.58932 -0.20456,0.33408 -0.66588,0.2728 -1.00099,0.27281 l -2.37066,-9.4e-4 c -0.32791,-0.001 -0.7356,0.0314 -0.94965,-0.27378 -0.34554,-0.49259 -0.0714,-1.7594 -0.0895,-2.3514 -0.0699,-2.28383 0.0268,-4.56801 0.0279,-6.858" />
    <path
       style="fill:#000000;stroke-width:0.0846667"
       id="path389"
       d="" />
  </g>
</svg>
