<?xml version="1.0" encoding="UTF-8" standalone="no"?>
<svg
   width="63.500004mm"
   height="88.899895mm"
   viewBox="142.0878 95.116776 63.500012 88.899887"
   version="1.1"
   id="svg10"
   sodipodi:docname="10C.svg"
   inkscape:version="1.1.1 (1:1.1+202109281949+c3084ef5ed)"
   inkscape:export-filename="/home/doug/k40/52Cards/IndividualColorCards/10C.png"
   inkscape:export-xdpi="300"
   inkscape:export-ydpi="300"
   xmlns:inkscape="http://www.inkscape.org/namespaces/inkscape"
   xmlns:sodipodi="http://sodipodi.sourceforge.net/DTD/sodipodi-0.dtd"
   xmlns="http://www.w3.org/2000/svg"
   xmlns:svg="http://www.w3.org/2000/svg">
  <defs
     id="defs14">
    <marker
       style="overflow:visible"
       id="marker2995"
       refX="0"
       refY="0"
       orient="auto"
       inkscape:stockid="Arrow1Lstart"
       inkscape:isstock="true">
      <path
         transform="matrix(0.8,0,0,0.8,10,0)"
         style="fill:#000000;fill-opacity:1;fill-rule:evenodd;stroke:#000000;stroke-width:1pt;stroke-opacity:1"
         d="M 0,0 5,-5 -12.5,0 5,5 Z"
         id="path2993" />
    </marker>
    <marker
       style="overflow:visible"
       id="marker2985"
       refX="0"
       refY="0"
       orient="auto"
       inkscape:stockid="Arrow1Lstart"
       inkscape:isstock="true">
      <path
         transform="matrix(0.8,0,0,0.8,10,0)"
         style="fill:#000000;fill-opacity:1;fill-rule:evenodd;stroke:#000000;stroke-width:1pt;stroke-opacity:1"
         d="M 0,0 5,-5 -12.5,0 5,5 Z"
         id="path2983" />
    </marker>
    <marker
       style="overflow:visible"
       id="marker2791"
       refX="0"
       refY="0"
       orient="auto"
       inkscape:stockid="Arrow1Lstart"
       inkscape:isstock="true">
      <path
         transform="matrix(0.8,0,0,0.8,10,0)"
         style="fill:#000000;fill-opacity:1;fill-rule:evenodd;stroke:#000000;stroke-width:1pt;stroke-opacity:1"
         d="M 0,0 5,-5 -12.5,0 5,5 Z"
         id="path2789" />
    </marker>
    <marker
       style="overflow:visible"
       id="marker2781"
       refX="0"
       refY="0"
       orient="auto"
       inkscape:stockid="Arrow1Lstart"
       inkscape:isstock="true">
      <path
         transform="matrix(0.8,0,0,0.8,10,0)"
         style="fill:#000000;fill-opacity:1;fill-rule:evenodd;stroke:#000000;stroke-width:1pt;stroke-opacity:1"
         d="M 0,0 5,-5 -12.5,0 5,5 Z"
         id="path2779" />
    </marker>
    <marker
       style="overflow:visible"
       id="marker2417"
       refX="0"
       refY="0"
       orient="auto"
       inkscape:stockid="Arrow1Lstart"
       inkscape:isstock="true">
      <path
         transform="matrix(0.8,0,0,0.8,10,0)"
         style="fill:#000000;fill-opacity:1;fill-rule:evenodd;stroke:#000000;stroke-width:1pt;stroke-opacity:1"
         d="M 0,0 5,-5 -12.5,0 5,5 Z"
         id="path2415" />
    </marker>
    <marker
       style="overflow:visible"
       id="marker2383"
       refX="0"
       refY="0"
       orient="auto"
       inkscape:stockid="Arrow1Lstart"
       inkscape:isstock="true">
      <path
         transform="matrix(0.8,0,0,0.8,10,0)"
         style="fill:#000000;fill-opacity:1;fill-rule:evenodd;stroke:#000000;stroke-width:1pt;stroke-opacity:1"
         d="M 0,0 5,-5 -12.5,0 5,5 Z"
         id="path2381" />
    </marker>
    <marker
       style="overflow:visible"
       id="marker2355"
       refX="0"
       refY="0"
       orient="auto"
       inkscape:stockid="Arrow1Lstart"
       inkscape:isstock="true">
      <path
         transform="matrix(0.8,0,0,0.8,10,0)"
         style="fill:#000000;fill-opacity:1;fill-rule:evenodd;stroke:#000000;stroke-width:1pt;stroke-opacity:1"
         d="M 0,0 5,-5 -12.5,0 5,5 Z"
         id="path2353" />
    </marker>
    <marker
       style="overflow:visible"
       id="Arrow1Lstart"
       refX="0"
       refY="0"
       orient="auto"
       inkscape:stockid="Arrow1Lstart"
       inkscape:isstock="true">
      <path
         transform="matrix(0.8,0,0,0.8,10,0)"
         style="fill:#000000;fill-opacity:1;fill-rule:evenodd;stroke:#000000;stroke-width:1pt;stroke-opacity:1"
         d="M 0,0 5,-5 -12.5,0 5,5 Z"
         id="path2071" />
    </marker>
  </defs>
  <sodipodi:namedview
     id="namedview12"
     pagecolor="#ffffff"
     bordercolor="#666666"
     borderopacity="1.0"
     inkscape:pageshadow="2"
     inkscape:pageopacity="0.0"
     inkscape:pagecheckerboard="0"
     inkscape:document-units="mm"
     showgrid="false"
     showborder="false"
     fit-margin-top="0"
     fit-margin-left="0"
     fit-margin-right="0"
     fit-margin-bottom="0"
     inkscape:zoom="1.4874999"
     inkscape:cx="120.00001"
     inkscape:cy="167.7311"
     inkscape:window-width="1366"
     inkscape:window-height="712"
     inkscape:window-x="0"
     inkscape:window-y="0"
     inkscape:window-maximized="1"
     inkscape:current-layer="layer1" />
  <g
     inkscape:groupmode="layer"
     id="layer1"
     inkscape:label="CardOutline"
     style="display:inline"
     transform="translate(94.217781,-340.71922)">
    <path
       id="path4-3"
       style="display:inline;fill:none;fill-rule:evenodd;stroke:#000000;stroke-width:0.25;stroke-miterlimit:4;stroke-dasharray:none;stroke-opacity:1"
       d="m 50.564743,435.96104 -0.534158,0.31687 c -0.688621,0.40844 -1.158412,0.85449 -1.590112,1.51001 l -0.346181,0.5258 -0.06384,25.43159 c -0.03506,13.98732 -0.046,32.74824 -0.02422,41.69094 0.03916,16.06607 0.04297,16.26663 0.30127,16.87005 h 2.54e-4 c 0.321831,0.75178 1.375871,1.69211 2.308962,2.06009 0.662802,0.26139 0.718825,0.26193 29.335815,0.23047 27.968057,-0.0307 28.683467,-0.0377 29.150357,-0.27706 0.72044,-0.36932 1.35524,-0.98173 1.76901,-1.70664 l 0.37116,-0.65029 9.8e-4,-41.53137 9.8e-4,-41.53137 -0.30833,-0.61121 c -0.3634,-0.72062 -1.20695,-1.59056 -1.92217,-1.98245 l -0.50968,-0.27931 -28.969947,-0.0331 z m 0.134234,0.49272 57.679013,0.0666 0.38933,0.21242 0.11632,0.0681 0.12061,0.0774 0.13902,0.0985 0.11304,0.0864 0.12364,0.1017 0.13751,0.12124 0.11153,0.10621 0.13145,0.13177 0.10774,0.11773 0.12692,0.13477 0.0918,0.11748 0.10345,0.13201 0.0951,0.13352 0.0785,0.11974 0.0739,0.12124 0.0603,0.11222 0.25661,0.50651 -0.003,82.81198 -0.30631,0.53682 -0.13726,0.22444 -0.18268,0.24876 -0.16754,0.20014 -0.19757,0.20466 -0.19327,0.17285 -0.23542,0.18336 -0.22481,0.1503 -0.2233,0.12574 -0.0212,0.0108 -0.0149,0.006 -0.0394,0.012 -0.027,0.006 -0.0507,0.01 -0.0277,0.004 -0.0606,0.008 -0.0573,0.008 -0.0679,0.006 -0.083,0.0105 -0.0868,0.004 -0.0913,0.006 -0.10698,0.007 -0.25056,0.012 -0.3048,0.0108 -0.3545,0.0105 -0.41809,0.009 -0.47538,0.009 -0.54929,0.008 -0.96108,0.0105 -1.14073,0.0108 -3.46459,0.0165 -34.84847,0.0471 -6.84314,-0.003 -1.74276,-0.004 -1.260078,-0.006 -1.065289,-0.008 -0.60506,-0.006 -0.534158,-0.008 -0.467798,-0.009 -0.401438,-0.009 -0.339623,-0.009 -0.289659,-0.012 -0.126666,-0.006 -0.11632,-0.006 -0.106979,-0.006 -0.08302,-0.006 -0.08302,-0.008 -0.07998,-0.006 -0.0545,-0.007 -0.10093,-0.0135 -0.09967,-0.0183 -0.03911,-0.009 -0.04844,-0.0138 -0.0376,-0.0135 -0.04692,-0.0183 -0.167539,-0.0726 -0.143315,-0.0699 -0.177886,-0.0985 -0.140542,-0.0864 -0.159971,-0.10773 -0.155176,-0.11372 -0.152651,-0.12124 -0.161231,-0.13803 -0.123887,-0.11372 -0.144835,-0.14729 -0.11026,-0.11974 -0.119098,-0.14253 -0.08604,-0.11374 -0.09361,-0.13951 -0.06485,-0.11098 -0.05601,-0.11974 -0.027,-0.0669 -0.03481,-0.10621 -0.0061,-0.027 -0.01211,-0.0669 -0.01338,-0.0939 -0.01514,-0.12124 -0.0044,-0.0531 -0.01362,-0.15632 -0.0099,-0.16206 -0.01133,-0.21243 -0.01059,-0.23947 -0.0088,-0.27305 -0.0091,-0.31236 -0.0076,-0.3532 -0.01059,-0.61573 -0.0091,-0.72319 -0.0106,-1.15404 -0.0106,-1.77404 -0.01641,-4.27149 -0.01968,-8.14897 -0.0061,-8.546 0.0015,-6.72963 0.0044,-7.16476 0.0091,-7.2692 0.01943,-9.71082 0.0651,-25.28355 0.257868,-0.39253 0.152402,-0.21993 0.166025,-0.21393 0.147862,-0.16834 0.169052,-0.17133 0.185708,-0.16508 0.168798,-0.13202 0.229612,-0.16082 0.227845,-0.14253 z"
       inkscape:export-filename="/home/doug/k40/52Cards/IndividualColorCards/2D.png"
       inkscape:export-xdpi="300"
       inkscape:export-ydpi="300" />
  </g>
  <g
     inkscape:groupmode="layer"
     id="layer2"
     inkscape:label="InnerRectangle"
     style="display:inline"
     transform="translate(94.217781,-340.71922)">
    <path
       id="path2-6"
       style="display:inline;fill:none;fill-rule:evenodd;stroke:#4c71a5;stroke-width:0.262609;stroke-opacity:1"
       d="m 63.13524,452.67467 0.0441,14.05596 c 0.0243,7.7307 0.0504,20.15551 0.0578,27.61093 l 0.0134,13.55547 16.409043,-0.0521 16.40903,-0.0519 0.0305,-24.32539 c 0.0169,-13.37898 -0.004,-25.78048 -0.0462,-27.55907 l -0.077,-3.23394 h -16.42035 z m 16.503153,0.25626 h 16.11155 l 0.005,0.73622 c 0.003,0.40503 0.0367,12.68075 0.0757,27.27927 l 0.0709,26.54279 -3.16634,0.004 c -1.74158,0.002 -8.99902,0.0153 -16.12745,0.0285 -7.12842,0.0133 -12.991523,-0.007 -13.029223,-0.0446 -0.0728,-0.0731 -0.16665,-54.20072 -0.0944,-54.4185 0.028,-0.0844 5.532343,-0.128 16.154193,-0.128 z"
       inkscape:export-filename="/home/doug/k40/52Cards/IndividualColorCards/2D.png"
       inkscape:export-xdpi="300"
       inkscape:export-ydpi="300" />
  </g>
  <g
     inkscape:groupmode="layer"
     id="layer5"
     inkscape:label="InnerSuit"
     style="display:inline"
     transform="translate(94.217781,-340.71922)">
    <path
       style="display:inline;fill:#1d120a;stroke-width:1"
       d="m 88.642755,464.50401 c 0.361658,-0.79198 0.692117,-2.02687 0.682215,-2.54936 -0.0068,-0.35986 -0.02721,-0.34234 -0.300329,0.25806 -0.861784,1.89446 -3.544873,1.10126 -3.344065,-0.9886 0.107788,-1.12177 1.171033,-1.83016 2.296174,-1.52984 0.290292,0.0775 0.5502,0.11848 0.577571,0.0911 0.02737,-0.0274 -0.125423,-0.2493 -0.339548,-0.49318 -0.752334,-0.85686 -0.628736,-2.13854 0.269577,-2.79542 0.496623,-0.36315 1.58128,-0.36272 2.076874,8.8e-4 0.898621,0.6592 1.025748,1.83124 0.296992,2.73808 -0.434044,0.54011 -0.44192,0.72687 -0.02116,0.50169 0.681482,-0.36472 1.977132,0.0716 2.368013,0.79739 0.36862,0.68449 0.216952,1.63885 -0.350653,2.20645 -0.91509,0.91509 -2.24177,0.63475 -2.850148,-0.60226 -0.273702,-0.55652 -0.280642,-0.56099 -0.28575,-0.18431 -0.0071,0.52583 0.324589,1.76165 0.684296,2.54937 l 0.296559,0.64943 h -1.17659 -1.176591 l 0.296559,-0.64943 z"
       id="path2954"
       transform="translate(-1.0416666e-6,-1.1083333e-5)" />
    <path
       style="display:inline;fill:#1d120a;stroke-width:1"
       d="m 68.503991,465.23026 c 1.27e-4,-0.0117 0.138399,-0.29747 0.307203,-0.635 0.369601,-0.73901 0.712701,-2.0147 0.69942,-2.60051 l -0.0097,-0.42617 -0.149088,0.381 c -0.386951,0.98887 -0.837268,1.3335 -1.742436,1.3335 -0.671386,0 -1.169609,-0.296 -1.50618,-0.89485 -0.438679,-0.78052 -0.303233,-1.74106 0.324276,-2.29967 0.40518,-0.3607 1.2016,-0.53166 1.759313,-0.37767 0.271511,0.075 0.514323,0.11564 0.539582,0.0904 0.02526,-0.0253 -0.10042,-0.20383 -0.279287,-0.39683 -0.971247,-1.048 -0.603763,-2.70309 0.685971,-3.08951 0.720924,-0.21599 1.344255,-0.0673 1.853754,0.4422 0.720946,0.72094 0.715587,1.86176 -0.01243,2.64731 -0.388125,0.41879 -0.347688,0.50567 0.147493,0.31688 0.582897,-0.22223 1.405103,-0.0355 1.919595,0.43603 0.378661,0.34701 0.458619,0.51666 0.513702,1.0899 0.14583,1.5177 -1.202183,2.48799 -2.560821,1.84328 -0.412021,-0.19552 -0.839114,-0.76624 -0.839114,-1.1213 0,-0.10734 -0.06474,-0.23517 -0.143873,-0.28408 -0.345158,-0.21332 0.172127,2.07141 0.700188,3.09257 l 0.203225,0.39299 -1.205555,0.0404 c -0.663054,0.0222 -1.205427,0.0308 -1.20527,0.0191 z"
       id="path2952"
       transform="translate(-1.0416666e-6,-1.1083333e-5)" />
    <path
       style="display:inline;fill:#1d120a;stroke-width:1"
       d="m 78.741321,471.13035 c 0.369208,-0.7286 0.685981,-1.89331 0.682166,-2.5082 l -0.0028,-0.44957 -0.236412,0.52056 c -0.632421,1.39256 -2.391908,1.52794 -3.184774,0.24506 -0.500405,-0.80967 -0.229104,-1.86317 0.646855,-2.5118 0.35587,-0.26352 1.100516,-0.34698 1.671774,-0.18737 l 0.352367,0.0985 -0.381174,-0.52619 c -0.531399,-0.73358 -0.604039,-1.24614 -0.273397,-1.92915 0.351131,-0.72534 1.095369,-1.16572 1.808441,-1.07007 1.510495,0.2026 2.118567,1.92452 1.092357,3.09331 l -0.402011,0.45786 0.440026,-0.10722 c 1.43248,-0.34908 2.556693,0.43579 2.556693,1.78495 0,1.85762 -2.597074,2.43764 -3.344908,0.74704 -0.139416,-0.31517 -0.283075,-0.54345 -0.319244,-0.50728 -0.145223,0.14523 0.255674,1.88406 0.604373,2.62138 0.204387,0.43218 0.371612,0.79623 0.371612,0.80901 0,0.0128 -0.537306,0.0232 -1.194013,0.0232 h -1.194008 l 0.306072,-0.604 z"
       id="path2944"
       transform="translate(-1.0416666e-6,-1.1083333e-5)" />
    <path
       style="display:inline;fill:#1d120a;stroke-width:1"
       d="m 88.316277,478.16961 c 0,-0.0198 0.143578,-0.31931 0.319064,-0.66562 0.358722,-0.7079 0.735041,-2.17662 0.662426,-2.58535 -0.04681,-0.26345 -0.04981,-0.26377 -0.143977,-0.0151 -0.0529,0.1397 -0.147512,0.38272 -0.210255,0.54004 -0.297406,0.74572 -1.802961,1.05877 -2.54632,0.52945 -0.553487,-0.39412 -0.786858,-0.93728 -0.716649,-1.66796 0.107788,-1.12176 1.171033,-1.83016 2.296174,-1.52984 0.614264,0.16395 0.752619,0.10465 0.37421,-0.1604 -0.376983,-0.26405 -0.71842,-1.22163 -0.620913,-1.74139 0.114536,-0.61053 0.761698,-1.33646 1.327192,-1.48873 1.78914,-0.48177 3.038726,1.76802 1.716434,3.09031 -0.371508,0.37151 -0.337138,0.55766 0.06339,0.34331 0.590657,-0.31611 1.609367,-0.0617 2.164722,0.5407 0.39709,0.4307 0.50649,1.40407 0.220059,1.95797 -0.313375,0.606 -0.846147,0.92012 -1.559659,0.91957 -0.811467,-6.4e-4 -1.383637,-0.3554 -1.691877,-1.04903 -0.225141,-0.50664 -0.239599,-0.51686 -0.248047,-0.17533 -0.01306,0.52794 0.345938,1.82885 0.70011,2.53701 0.168805,0.33753 0.306919,0.62328 0.306919,0.635 0,0.0117 -0.542925,0.0213 -1.2065,0.0213 -0.663575,0 -1.2065,-0.0162 -1.2065,-0.036 z"
       id="path2940"
       transform="translate(-1.0416666e-6,-1.1083333e-5)" />
    <path
       style="display:inline;fill:#1d120a;stroke-width:1"
       d="m 68.837347,477.57058 c 0.357368,-0.78264 0.685953,-2.01854 0.673953,-2.53493 -0.0089,-0.38467 -0.0098,-0.38419 -0.240301,0.13369 -0.288218,0.64757 -0.752268,1.02151 -1.404379,1.13169 -1.017072,0.17183 -2.029836,-0.70945 -2.028874,-1.76548 0.0013,-1.34644 1.383819,-2.1604 2.770793,-1.63122 0.144247,0.055 0.101336,-0.0519 -0.132635,-0.33067 -0.788538,-0.93937 -0.749474,-2.05784 0.09785,-2.8018 0.386532,-0.33938 0.544386,-0.39278 1.161095,-0.39278 0.66729,0 0.745145,0.033 1.196162,0.50713 0.605063,0.63605 0.730084,1.20326 0.435332,1.97506 -0.118937,0.31143 -0.336624,0.65055 -0.48375,0.7536 -0.358036,0.25078 -0.216858,0.36136 0.239309,0.18745 0.590477,-0.22512 1.404896,-0.0357 1.934997,0.45014 0.442803,0.4058 0.463867,0.46265 0.463867,1.25202 0,0.7428 -0.03814,0.86674 -0.374951,1.21829 -0.481539,0.50262 -1.171067,0.69647 -1.838278,0.51681 -0.537681,-0.14479 -1.152271,-0.75696 -1.152271,-1.14775 0,-0.13022 -0.05715,-0.27208 -0.127,-0.31525 -0.327656,-0.2025 0.08699,1.78961 0.574544,2.7603 0.17295,0.34434 0.314456,0.63566 0.314456,0.64738 0,0.0117 -0.533222,0.0213 -1.184938,0.0213 H 68.54739 Z"
       id="path2938"
       transform="translate(-1.0416666e-6,-1.1083333e-5)" />
    <path
       style="display:inline;fill:#1d120a;stroke-width:1"
       d="m 88.608937,490.97467 c -1.054802,-0.64315 -1.190736,-1.91158 -0.316238,-2.95086 l 0.335585,-0.39882 -0.378249,0.11104 c -0.951401,0.27929 -2.029446,-0.0946 -2.413327,-0.8369 -0.242254,-0.46847 -0.239581,-1.3028 0.0057,-1.77711 0.226121,-0.43726 1.027009,-0.88394 1.584889,-0.88394 0.215115,0 0.619728,0.11663 0.899138,0.25917 0.47024,0.2399 0.577925,0.38102 0.819816,1.07433 0.06124,0.17554 0.108089,0.2015 0.15165,0.084 0.107005,-0.28851 -0.226033,-1.69129 -0.594428,-2.50377 l -0.350307,-0.77259 h 1.178504 1.178503 l -0.308845,0.60948 c -0.324466,0.6403 -0.68662,1.98024 -0.680919,2.51934 0.0028,0.26441 0.05026,0.22194 0.283873,-0.254 0.83657,-1.70436 3.392015,-1.1303 3.392015,0.762 0,1.03583 -0.808632,1.81947 -1.85579,1.79846 -0.30611,-0.006 -0.671007,-0.0724 -0.810886,-0.14729 -0.32602,-0.17448 -0.329052,0.0198 -0.0049,0.3132 0.380591,0.34443 0.683608,1.25354 0.587888,1.76377 -0.225647,1.2028 -1.670554,1.86038 -2.703674,1.23045 z"
       id="path2918"
       transform="translate(-1.0416666e-6,-1.1083333e-5)" />
    <path
       style="display:inline;fill:#1d120a;stroke-width:1"
       d="m 68.938428,491.10004 c -0.405251,-0.16395 -0.922524,-0.84974 -1.01575,-1.34668 -0.102254,-0.54506 0.229221,-1.49496 0.616281,-1.76607 0.379647,-0.26592 0.239555,-0.32422 -0.381027,-0.15858 -0.456466,0.12184 -0.622952,0.1061 -1.138845,-0.10771 -0.791494,-0.32803 -1.181801,-0.89584 -1.181801,-1.71928 0,-1.47416 1.77668,-2.26253 2.923722,-1.29736 0.215159,0.18104 0.469355,0.50738 0.564879,0.7252 0.166047,0.37862 0.174052,0.38207 0.182161,0.0785 0.01396,-0.52244 -0.34602,-1.86856 -0.671406,-2.51068 l -0.304457,-0.60082 h 1.179393 1.179394 l -0.191298,0.36993 c -0.342292,0.66192 -0.648785,1.68869 -0.729934,2.44533 l -0.07945,0.74074 0.328768,-0.65845 c 0.274129,-0.54902 0.421875,-0.69401 0.889016,-0.87241 0.781172,-0.29833 1.383407,-0.16332 1.993682,0.44695 0.426759,0.42676 0.48247,0.55397 0.48205,1.10072 -6.35e-4,0.83601 -0.354665,1.39036 -1.097875,1.71911 -0.561069,0.24819 -0.758065,0.251 -1.567355,0.0224 l -0.316204,-0.0893 0.337041,0.40055 c 0.897697,1.06685 0.712616,2.43352 -0.408039,3.01304 -0.394407,0.20395 -1.171024,0.2356 -1.592951,0.0649 z"
       id="path2916"
       transform="translate(-1.0416666e-6,-1.1083333e-5)" />
    <path
       style="display:inline;fill:#1d120a;stroke-width:1"
       d="m 78.812099,497.61253 c -1.056871,-0.52076 -1.283669,-1.96473 -0.461974,-2.94126 0.397621,-0.47254 0.395306,-0.55175 -0.01161,-0.39705 -1.211809,0.46073 -2.595232,-0.44917 -2.595232,-1.70694 0,-1.1348 1.160823,-2.03486 2.235271,-1.73314 0.671578,0.18858 0.890428,0.37938 1.188357,1.03605 l 0.253794,0.55939 0.0028,-0.42617 c 0.0039,-0.5928 -0.339322,-1.85503 -0.695504,-2.55792 l -0.298578,-0.58923 h 1.185125 1.185124 l -0.316061,0.70716 c -0.311196,0.69627 -0.674632,2.11524 -0.669046,2.61216 0.002,0.1738 0.08116,0.0971 0.25082,-0.24292 0.351241,-0.70389 0.60262,-0.94491 1.15959,-1.11178 0.669825,-0.20068 1.366162,0.022 1.872546,0.59869 0.328369,0.37399 0.392778,0.55275 0.392778,1.09008 0,0.81772 -0.290371,1.3139 -0.958072,1.63713 -0.579194,0.28038 -1.016911,0.31498 -1.527774,0.12075 -0.395738,-0.15046 -0.605335,-0.0383 -0.274453,0.14689 0.122147,0.0684 0.335984,0.34754 0.475192,0.62041 0.849307,1.66478 -0.749899,3.38736 -2.393079,2.5777 z"
       id="path2898"
       transform="translate(-1.0416666e-6,-1.1083333e-5)" />
    <path
       style="display:inline;fill:#1d120a;stroke-width:1"
       d="m 89.141744,504.31269 c -0.20955,-0.0506 -0.511161,-0.17318 -0.670247,-0.2725 -0.341439,-0.21318 -0.791427,-1.08315 -0.787464,-1.52244 0.0039,-0.43441 0.435857,-1.33722 0.714348,-1.49307 0.36474,-0.20412 0.143661,-0.28313 -0.359838,-0.1286 -0.895752,0.27492 -1.911723,-0.19061 -2.262107,-1.03651 -0.47525,-1.14736 0.424179,-2.54047 1.640191,-2.54047 0.717923,0 1.29526,0.3868 1.611285,1.0795 0.271312,0.5947 0.290164,0.6105 0.297015,0.24893 0.01005,-0.53032 -0.3223,-1.76121 -0.697169,-2.58203 -0.171333,-0.37515 -0.311413,-0.68948 -0.311287,-0.6985 1.24e-4,-0.009 0.543099,-0.0164 1.20661,-0.0164 1.203169,0 1.317772,0.0281 1.080913,0.26495 -0.236368,0.23637 -0.78817,2.02123 -0.840769,2.71955 -0.05194,0.68965 -0.0505,0.69306 0.113792,0.26883 0.516614,-1.33396 2.051466,-1.70355 3.001968,-0.72288 0.487114,0.50257 0.652966,1.34382 0.390066,1.97852 -0.346178,0.83574 -1.359631,1.29 -2.277396,1.02079 -0.239849,-0.0704 -0.457326,-0.10668 -0.483283,-0.0807 -0.02596,0.026 0.09915,0.2051 0.278015,0.3981 0.474709,0.51222 0.653898,1.20875 0.46939,1.82458 -0.15059,0.50263 -0.891623,1.28178 -1.219066,1.28178 -0.09663,0 -0.251805,0.0226 -0.34483,0.0503 -0.09303,0.0276 -0.340587,0.009 -0.550137,-0.0417 z"
       id="path2872"
       transform="translate(-1.0416666e-6,-1.1083333e-5)" />
    <path
       style="display:inline;fill:#1d120a;stroke-width:1"
       d="m 69.093847,504.30049 c -0.515423,-0.15446 -0.803188,-0.4536 -1.044702,-1.08599 -0.269262,-0.70506 -0.160146,-1.31945 0.334362,-1.88266 0.459578,-0.52343 0.469294,-0.61343 0.04897,-0.45363 -1.242609,0.47244 -2.593572,-0.4286 -2.594758,-1.73061 -8.89e-4,-1.02869 0.959866,-1.90306 1.95703,-1.78098 0.656759,0.0804 1.092344,0.41537 1.43451,1.10312 0.275066,0.55288 0.280617,0.55633 0.28575,0.17776 0.0072,-0.52905 -0.3253,-1.76321 -0.690331,-2.56255 l -0.302597,-0.66261 1.197015,0.003 1.197014,0.003 -0.203888,0.39427 c -0.357496,0.69133 -0.660791,1.70631 -0.737981,2.46968 l -0.0749,0.74074 0.241253,-0.51976 c 0.601697,-1.29629 2.042037,-1.55875 3.009952,-0.54846 0.329732,0.34416 0.370199,0.47481 0.370199,1.19522 0,0.72313 -0.03981,0.85037 -0.375726,1.201 -0.507351,0.52956 -1.200104,0.72999 -1.888237,0.54632 -0.643809,-0.17185 -0.728123,-0.11358 -0.34805,0.24051 0.332866,0.31011 0.643513,0.98449 0.643513,1.397 0,0.15481 -0.122536,0.5346 -0.272302,0.84398 -0.401288,0.82895 -1.262506,1.18788 -2.186094,0.91111 z"
       id="path2870"
       transform="translate(-1.0416666e-6,-1.1083333e-5)" />
  </g>
  <g
     inkscape:groupmode="layer"
     id="layer6"
     inkscape:label="OuterSuit"
     style="display:inline"
     transform="translate(94.217781,-340.71922)">
    <path
       style="display:inline;fill:#1d120a;stroke-width:1"
       d="m 54.736417,468.29958 c 0.650283,-1.40906 1.17921,-3.8735 0.831345,-3.8735 -0.07947,0 -0.144486,0.12081 -0.144486,0.26846 0,0.41843 -0.477753,1.1664 -0.953034,1.49207 -0.946976,0.64888 -2.00882,0.61117 -2.872155,-0.10199 -0.583805,-0.48226 -0.873811,-1.09311 -0.873811,-1.84056 0,-0.77537 0.241178,-1.3199 0.803111,-1.81329 0.740991,-0.65059 1.735269,-0.83497 2.585968,-0.47952 0.612861,0.25607 0.676935,0.14536 0.204208,-0.35282 -0.925322,-0.97516 -1.102722,-2.20247 -0.466764,-3.22925 1.133791,-1.83054 3.693048,-1.45489 4.364907,0.64068 0.276891,0.86363 -0.148227,2.25466 -0.824473,2.69775 -0.480457,0.31481 -0.255503,0.43939 0.393873,0.21812 1.072657,-0.36549 2.241191,0.0219 2.906348,0.96355 0.321806,0.45556 0.379027,0.65546 0.381,1.33102 0.0019,0.6341 -0.0596,0.8854 -0.303725,1.24206 -0.618194,0.90316 -1.722076,1.38067 -2.626529,1.13618 -0.73477,-0.19862 -1.414461,-0.81635 -1.594242,-1.44891 -0.221285,-0.77858 -0.362682,-0.85569 -0.362682,-0.19776 0,0.77041 0.397713,2.28456 0.878718,3.34539 0.215205,0.47462 0.391282,0.86934 0.391282,0.87714 0,0.008 -0.704055,0.0142 -1.564567,0.0142 h -1.564567 z"
       id="path2946"
       transform="translate(-1.0416666e-6,-1.1083333e-5)" />
    <path
       style="display:inline;fill:#1d120a;stroke-width:1"
       d="m 102.35003,503.088 c -0.86882,-0.45301 -1.33379,-1.2198 -1.33379,-2.19959 0,-0.80531 0.13525,-1.15116 0.69055,-1.76581 0.51876,-0.5742 0.481,-0.71255 -0.12532,-0.45921 -1.1219,0.46876 -2.584547,-0.10284 -3.180065,-1.24275 -0.439415,-0.84111 -0.09865,-2.41386 0.65073,-3.00332 0.75506,-0.59393 2.149565,-0.68591 2.830815,-0.18672 0.30272,0.22181 0.72009,0.90371 0.99645,1.62798 0.074,0.19395 0.10714,0.12636 0.14019,-0.28588 0.0532,-0.66304 -0.22382,-1.77803 -0.79503,-3.20066 -0.23803,-0.59281 -0.42153,-1.08812 -0.40779,-1.10068 0.0137,-0.0126 0.34825,0.0333 0.74338,0.10201 0.4681,0.0814 0.99907,0.0818 1.524,10e-4 0.44307,-0.068 0.82104,-0.1097 0.83991,-0.0927 0.0189,0.017 -0.16532,0.45367 -0.40934,0.97031 -0.46502,0.98455 -0.75609,2.01001 -0.88844,3.1301 -0.0861,0.72825 0.1056,0.93378 0.23375,0.25067 0.10133,-0.5401 0.77052,-1.34618 1.30189,-1.5682 0.79901,-0.33385 1.96228,-0.16039 2.56593,0.38262 0.69497,0.62514 0.99061,1.9204 0.64631,2.83164 -0.30889,0.81755 -1.39776,1.56117 -2.27792,1.55565 -0.24447,-0.002 -0.67091,-0.0834 -0.94763,-0.18198 -0.27673,-0.0986 -0.52666,-0.15569 -0.5554,-0.12695 -0.0287,0.0287 0.17671,0.3124 0.45657,0.63033 1.21147,1.3763 0.8473,3.26365 -0.75921,3.93473 -0.60392,0.25227 -1.45366,0.25103 -1.94054,-0.003 z"
       id="path2882"
       transform="translate(-1.0416666e-6,-1.1083333e-5)" />
  </g>
  <g
     inkscape:groupmode="layer"
     id="layer3"
     inkscape:label="CardName"
     style="display:inline"
     transform="translate(94.217781,-340.71922)">
    <path
       id="path2570"
       style="display:inline;fill:#1d120a;stroke-width:1"
       d="m 101.46089,506.39936 c -2.372665,0 -2.578449,0.0514 -2.951753,0.73432 -0.202308,0.3701 -0.226769,0.9464 -0.2589,6.06061 l -0.03566,5.65134 0.289904,0.5705 c 0.233429,0.45995 0.387765,0.60063 0.797367,0.72606 0.797412,0.24416 4.333432,0.15839 4.840022,-0.11731 0.73748,-0.40135 0.74719,-0.49107 0.73949,-6.76754 -0.006,-5.04544 -0.0314,-5.76111 -0.21549,-6.10971 -0.34061,-0.64507 -0.78215,-0.74827 -3.20498,-0.74827 z m 0.37828,1.71204 c 0.57587,7.9e-4 1.08795,0.0363 1.13481,0.11214 0.0549,0.0888 0.12381,8.08646 0.0847,9.82834 l -0.0103,0.47645 h -1.44694 c -1.20224,0 -1.45989,-0.0341 -1.52394,-0.20102 -0.0424,-0.11048 -0.077,-2.38492 -0.077,-5.05447 0,-3.60577 0.0387,-4.89319 0.15193,-5.00642 0.0999,-0.0999 0.94631,-0.15601 1.68672,-0.15502 z"
       transform="translate(-1.0416666e-6,-1.1083333e-5)" />
    <path
       id="path2960"
       style="display:inline;fill:#1d120a;stroke-width:1"
       d="m 57.683723,440.29797 c -2.34056,0.002 -2.623367,0.0609 -3.037025,0.63303 -0.2111,0.29199 -0.233291,0.7547 -0.274402,5.75469 -0.02458,2.9903 -0.0081,5.72207 0.03669,6.07095 0.103833,0.80936 0.5324,1.26746 1.293463,1.38286 0.300448,0.0456 1.346504,0.0762 2.324404,0.0672 2.039805,-0.0179 2.497601,-0.16439 2.803964,-0.89762 0.266039,-0.63672 0.266039,-11.54652 0,-12.18324 -0.307882,-0.73689 -0.662402,-0.82986 -3.147094,-0.82785 z m -0.66611,1.74201 c 0.237014,-0.001 0.514813,0.002 0.805635,0.0103 l 1.410251,0.0398 v 5.06429 c 0,2.7814 -0.04661,5.08661 -0.103354,5.12837 -0.148725,0.0919 -2.319904,0.18937 -2.659269,0.11937 -0.157163,-0.0324 -0.291389,-0.15496 -0.298688,-0.27234 -0.06848,-1.10715 0.04765,-9.99845 0.131257,-10.05055 0.03776,-0.0236 0.319143,-0.0375 0.714168,-0.0393 z"
       transform="translate(-1.0416666e-6,-1.1083333e-5)" />
    <path
       style="display:inline;fill:#1d120a;stroke-width:1"
       d="m 51.262828,454.17303 -0.540957,-0.0487 0.03867,-6.88239 0.03867,-6.88239 0.851541,-0.0376 0.851541,-0.0376 v 6.99081 6.9908 l -0.34925,-0.0222 c -0.192087,-0.0122 -0.592681,-0.0441 -0.890208,-0.0709 z"
       id="path2958"
       transform="translate(-1.0416666e-6,-1.1083333e-5)" />
    <path
       style="display:inline;fill:#1d120a;stroke-width:1"
       d="m 106.73129,513.28835 v -6.96387 l 0.85725,0.0376 0.85725,0.0376 0.0152,6.71703 c 0.008,3.69437 -0.0127,6.82383 -0.0468,6.95437 -0.0535,0.20444 -0.17438,0.23344 -0.87246,0.20929 l -0.8104,-0.0281 z"
       id="path2758"
       transform="translate(-1.0416666e-6,-1.1083333e-5)" />
  </g>
</svg>
