<?xml version="1.0" encoding="UTF-8" standalone="no"?>
<svg
   width="63.500004mm"
   height="88.899895mm"
   viewBox="142.0878 95.116776 63.500012 88.899887"
   version="1.1"
   id="svg10"
   sodipodi:docname="10D.svg"
   inkscape:version="1.1.1 (1:1.1+202109281949+c3084ef5ed)"
   inkscape:export-filename="/home/doug/k40/52Cards/IndividualColorCards/10D.png"
   inkscape:export-xdpi="300"
   inkscape:export-ydpi="300"
   xmlns:inkscape="http://www.inkscape.org/namespaces/inkscape"
   xmlns:sodipodi="http://sodipodi.sourceforge.net/DTD/sodipodi-0.dtd"
   xmlns="http://www.w3.org/2000/svg"
   xmlns:svg="http://www.w3.org/2000/svg">
  <defs
     id="defs14">
    <marker
       style="overflow:visible"
       id="marker2995"
       refX="0"
       refY="0"
       orient="auto"
       inkscape:stockid="Arrow1Lstart"
       inkscape:isstock="true">
      <path
         transform="matrix(0.8,0,0,0.8,10,0)"
         style="fill:#000000;fill-opacity:1;fill-rule:evenodd;stroke:#000000;stroke-width:1pt;stroke-opacity:1"
         d="M 0,0 5,-5 -12.5,0 5,5 Z"
         id="path2993" />
    </marker>
    <marker
       style="overflow:visible"
       id="marker2985"
       refX="0"
       refY="0"
       orient="auto"
       inkscape:stockid="Arrow1Lstart"
       inkscape:isstock="true">
      <path
         transform="matrix(0.8,0,0,0.8,10,0)"
         style="fill:#000000;fill-opacity:1;fill-rule:evenodd;stroke:#000000;stroke-width:1pt;stroke-opacity:1"
         d="M 0,0 5,-5 -12.5,0 5,5 Z"
         id="path2983" />
    </marker>
    <marker
       style="overflow:visible"
       id="marker2791"
       refX="0"
       refY="0"
       orient="auto"
       inkscape:stockid="Arrow1Lstart"
       inkscape:isstock="true">
      <path
         transform="matrix(0.8,0,0,0.8,10,0)"
         style="fill:#000000;fill-opacity:1;fill-rule:evenodd;stroke:#000000;stroke-width:1pt;stroke-opacity:1"
         d="M 0,0 5,-5 -12.5,0 5,5 Z"
         id="path2789" />
    </marker>
    <marker
       style="overflow:visible"
       id="marker2781"
       refX="0"
       refY="0"
       orient="auto"
       inkscape:stockid="Arrow1Lstart"
       inkscape:isstock="true">
      <path
         transform="matrix(0.8,0,0,0.8,10,0)"
         style="fill:#000000;fill-opacity:1;fill-rule:evenodd;stroke:#000000;stroke-width:1pt;stroke-opacity:1"
         d="M 0,0 5,-5 -12.5,0 5,5 Z"
         id="path2779" />
    </marker>
    <marker
       style="overflow:visible"
       id="marker2417"
       refX="0"
       refY="0"
       orient="auto"
       inkscape:stockid="Arrow1Lstart"
       inkscape:isstock="true">
      <path
         transform="matrix(0.8,0,0,0.8,10,0)"
         style="fill:#000000;fill-opacity:1;fill-rule:evenodd;stroke:#000000;stroke-width:1pt;stroke-opacity:1"
         d="M 0,0 5,-5 -12.5,0 5,5 Z"
         id="path2415" />
    </marker>
    <marker
       style="overflow:visible"
       id="marker2383"
       refX="0"
       refY="0"
       orient="auto"
       inkscape:stockid="Arrow1Lstart"
       inkscape:isstock="true">
      <path
         transform="matrix(0.8,0,0,0.8,10,0)"
         style="fill:#000000;fill-opacity:1;fill-rule:evenodd;stroke:#000000;stroke-width:1pt;stroke-opacity:1"
         d="M 0,0 5,-5 -12.5,0 5,5 Z"
         id="path2381" />
    </marker>
    <marker
       style="overflow:visible"
       id="marker2355"
       refX="0"
       refY="0"
       orient="auto"
       inkscape:stockid="Arrow1Lstart"
       inkscape:isstock="true">
      <path
         transform="matrix(0.8,0,0,0.8,10,0)"
         style="fill:#000000;fill-opacity:1;fill-rule:evenodd;stroke:#000000;stroke-width:1pt;stroke-opacity:1"
         d="M 0,0 5,-5 -12.5,0 5,5 Z"
         id="path2353" />
    </marker>
    <marker
       style="overflow:visible"
       id="Arrow1Lstart"
       refX="0"
       refY="0"
       orient="auto"
       inkscape:stockid="Arrow1Lstart"
       inkscape:isstock="true">
      <path
         transform="matrix(0.8,0,0,0.8,10,0)"
         style="fill:#000000;fill-opacity:1;fill-rule:evenodd;stroke:#000000;stroke-width:1pt;stroke-opacity:1"
         d="M 0,0 5,-5 -12.5,0 5,5 Z"
         id="path2071" />
    </marker>
  </defs>
  <sodipodi:namedview
     id="namedview12"
     pagecolor="#ffffff"
     bordercolor="#666666"
     borderopacity="1.0"
     inkscape:pageshadow="2"
     inkscape:pageopacity="0.0"
     inkscape:pagecheckerboard="0"
     inkscape:document-units="mm"
     showgrid="false"
     showborder="false"
     fit-margin-top="0"
     fit-margin-left="0"
     fit-margin-right="0"
     fit-margin-bottom="0"
     inkscape:zoom="1.2541666"
     inkscape:cx="120.00001"
     inkscape:cy="167.84054"
     inkscape:window-width="1366"
     inkscape:window-height="712"
     inkscape:window-x="0"
     inkscape:window-y="0"
     inkscape:window-maximized="1"
     inkscape:current-layer="layer6" />
  <g
     inkscape:groupmode="layer"
     id="layer1"
     inkscape:label="CardOutline"
     style="display:inline"
     transform="translate(94.217781,-340.71922)">
    <path
       id="path4-3"
       style="display:inline;fill:none;fill-rule:evenodd;stroke:#000000;stroke-width:0.25;stroke-miterlimit:4;stroke-dasharray:none;stroke-opacity:1"
       d="m 50.564743,435.96104 -0.534158,0.31687 c -0.688621,0.40844 -1.158412,0.85449 -1.590112,1.51001 l -0.346181,0.5258 -0.06384,25.43159 c -0.03506,13.98732 -0.046,32.74824 -0.02422,41.69094 0.03916,16.06607 0.04297,16.26663 0.30127,16.87005 h 2.54e-4 c 0.321831,0.75178 1.375871,1.69211 2.308962,2.06009 0.662802,0.26139 0.718825,0.26193 29.335815,0.23047 27.968057,-0.0307 28.683467,-0.0377 29.150357,-0.27706 0.72044,-0.36932 1.35524,-0.98173 1.76901,-1.70664 l 0.37116,-0.65029 9.8e-4,-41.53137 9.8e-4,-41.53137 -0.30833,-0.61121 c -0.3634,-0.72062 -1.20695,-1.59056 -1.92217,-1.98245 l -0.50968,-0.27931 -28.969947,-0.0331 z m 0.134234,0.49272 57.679013,0.0666 0.38933,0.21242 0.11632,0.0681 0.12061,0.0774 0.13902,0.0985 0.11304,0.0864 0.12364,0.1017 0.13751,0.12124 0.11153,0.10621 0.13145,0.13177 0.10774,0.11773 0.12692,0.13477 0.0918,0.11748 0.10345,0.13201 0.0951,0.13352 0.0785,0.11974 0.0739,0.12124 0.0603,0.11222 0.25661,0.50651 -0.003,82.81198 -0.30631,0.53682 -0.13726,0.22444 -0.18268,0.24876 -0.16754,0.20014 -0.19757,0.20466 -0.19327,0.17285 -0.23542,0.18336 -0.22481,0.1503 -0.2233,0.12574 -0.0212,0.0108 -0.0149,0.006 -0.0394,0.012 -0.027,0.006 -0.0507,0.01 -0.0277,0.004 -0.0606,0.008 -0.0573,0.008 -0.0679,0.006 -0.083,0.0105 -0.0868,0.004 -0.0913,0.006 -0.10698,0.007 -0.25056,0.012 -0.3048,0.0108 -0.3545,0.0105 -0.41809,0.009 -0.47538,0.009 -0.54929,0.008 -0.96108,0.0105 -1.14073,0.0108 -3.46459,0.0165 -34.84847,0.0471 -6.84314,-0.003 -1.74276,-0.004 -1.260078,-0.006 -1.065289,-0.008 -0.60506,-0.006 -0.534158,-0.008 -0.467798,-0.009 -0.401438,-0.009 -0.339623,-0.009 -0.289659,-0.012 -0.126666,-0.006 -0.11632,-0.006 -0.106979,-0.006 -0.08302,-0.006 -0.08302,-0.008 -0.07998,-0.006 -0.0545,-0.007 -0.10093,-0.0135 -0.09967,-0.0183 -0.03911,-0.009 -0.04844,-0.0138 -0.0376,-0.0135 -0.04692,-0.0183 -0.167539,-0.0726 -0.143315,-0.0699 -0.177886,-0.0985 -0.140542,-0.0864 -0.159971,-0.10773 -0.155176,-0.11372 -0.152651,-0.12124 -0.161231,-0.13803 -0.123887,-0.11372 -0.144835,-0.14729 -0.11026,-0.11974 -0.119098,-0.14253 -0.08604,-0.11374 -0.09361,-0.13951 -0.06485,-0.11098 -0.05601,-0.11974 -0.027,-0.0669 -0.03481,-0.10621 -0.0061,-0.027 -0.01211,-0.0669 -0.01338,-0.0939 -0.01514,-0.12124 -0.0044,-0.0531 -0.01362,-0.15632 -0.0099,-0.16206 -0.01133,-0.21243 -0.01059,-0.23947 -0.0088,-0.27305 -0.0091,-0.31236 -0.0076,-0.3532 -0.01059,-0.61573 -0.0091,-0.72319 -0.0106,-1.15404 -0.0106,-1.77404 -0.01641,-4.27149 -0.01968,-8.14897 -0.0061,-8.546 0.0015,-6.72963 0.0044,-7.16476 0.0091,-7.2692 0.01943,-9.71082 0.0651,-25.28355 0.257868,-0.39253 0.152402,-0.21993 0.166025,-0.21393 0.147862,-0.16834 0.169052,-0.17133 0.185708,-0.16508 0.168798,-0.13202 0.229612,-0.16082 0.227845,-0.14253 z"
       inkscape:export-filename="/home/doug/k40/52Cards/IndividualColorCards/2D.png"
       inkscape:export-xdpi="300"
       inkscape:export-ydpi="300" />
  </g>
  <g
     inkscape:groupmode="layer"
     id="layer2"
     inkscape:label="InnerRectangle"
     style="display:inline"
     transform="translate(94.217781,-340.71922)">
    <path
       id="path2-6"
       style="display:inline;fill:none;fill-rule:evenodd;stroke:#4c71a5;stroke-width:0.262609;stroke-opacity:1"
       d="m 63.13524,452.67467 0.0441,14.05596 c 0.0243,7.7307 0.0504,20.15551 0.0578,27.61093 l 0.0134,13.55547 16.409043,-0.0521 16.40903,-0.0519 0.0305,-24.32539 c 0.0169,-13.37898 -0.004,-25.78048 -0.0462,-27.55907 l -0.077,-3.23394 h -16.42035 z m 16.503153,0.25626 h 16.11155 l 0.005,0.73622 c 0.003,0.40503 0.0367,12.68075 0.0757,27.27927 l 0.0709,26.54279 -3.16634,0.004 c -1.74158,0.002 -8.99902,0.0153 -16.12745,0.0285 -7.12842,0.0133 -12.991523,-0.007 -13.029223,-0.0446 -0.0728,-0.0731 -0.16665,-54.20072 -0.0944,-54.4185 0.028,-0.0844 5.532343,-0.128 16.154193,-0.128 z"
       inkscape:export-filename="/home/doug/k40/52Cards/IndividualColorCards/2D.png"
       inkscape:export-xdpi="300"
       inkscape:export-ydpi="300" />
  </g>
  <g
     inkscape:groupmode="layer"
     id="layer5"
     inkscape:label="InnerSuit"
     style="display:inline"
     transform="translate(94.217781,-340.71922)">
    <path
       style="fill:#e4101c;stroke-width:1"
       d="m 95.797462,455.73422 c 0,-0.0349 0.02871,-0.0636 0.0638,-0.0636 0.03508,0 0.0638,0.0286 0.0638,0.0636 0,0.0349 -0.02871,0.0635 -0.0638,0.0635 -0.03509,0 -0.0638,-0.0286 -0.0638,-0.0635 z"
       id="path2834" />
    <path
       style="fill:#e4101c;stroke-width:1"
       d="m 63.133729,459.73758 c 0,-0.0932 0.03828,-0.13132 0.08507,-0.0848 0.04678,0.0466 0.04678,0.12286 0,0.16946 -0.04679,0.0466 -0.08507,0.008 -0.08507,-0.0848 z"
       id="path2832" />
    <path
       style="fill:#e4101c;stroke-width:1"
       d="m 95.797462,460.43658 c 0,-0.0349 0.02871,-0.0635 0.0638,-0.0635 0.03508,0 0.0638,0.0286 0.0638,0.0635 0,0.0349 -0.02871,0.0636 -0.0638,0.0636 -0.03509,0 -0.0638,-0.0286 -0.0638,-0.0636 z"
       id="path2830" />
    <path
       style="fill:#e4101c;stroke-width:1"
       d="m 63.261322,461.45331 c 0,-0.0349 0.02871,-0.0635 0.0638,-0.0635 0.03508,0 0.0638,0.0286 0.0638,0.0635 0,0.0349 -0.02871,0.0636 -0.0638,0.0636 -0.03509,0 -0.0638,-0.0286 -0.0638,-0.0636 z"
       id="path2828" />
    <path
       style="fill:#e4101c;stroke-width:1"
       d="m 63.133729,461.70749 c 0,-0.0349 0.02871,-0.0635 0.0638,-0.0635 0.03509,0 0.0638,0.0286 0.0638,0.0635 0,0.0349 -0.02871,0.0636 -0.0638,0.0636 -0.03508,0 -0.0638,-0.0286 -0.0638,-0.0636 z"
       id="path2826" />
    <path
       style="fill:#e4101c;stroke-width:1"
       d="m 95.925054,461.96168 c 0,-0.0349 0.02871,-0.0636 0.0638,-0.0636 0.03508,0 0.0638,0.0286 0.0638,0.0636 0,0.0349 -0.02871,0.0635 -0.0638,0.0635 -0.03508,0 -0.0638,-0.0286 -0.0638,-0.0635 z"
       id="path2824" />
    <path
       style="fill:#e4101c;stroke-width:1"
       d="m 63.261322,465.13895 c 0,-0.0349 0.02871,-0.0635 0.0638,-0.0635 0.03508,0 0.0638,0.0286 0.0638,0.0635 0,0.0349 -0.02871,0.0635 -0.0638,0.0635 -0.03509,0 -0.0638,-0.0286 -0.0638,-0.0635 z"
       id="path2822" />
    <path
       style="fill:#e4101c;stroke-width:1"
       d="m 89.16264,465.05239 c -0.626204,-1.12949 -1.500522,-2.336 -2.297698,-3.17071 -0.280137,-0.29333 -0.509341,-0.57049 -0.509341,-0.61592 0,-0.0454 0.260358,-0.36496 0.578573,-0.71009 0.689798,-0.74812 1.622923,-2.08283 2.281583,-3.2635 0.26287,-0.4712 0.520989,-0.88323 0.573596,-0.91561 0.05261,-0.0324 0.342045,0.38174 0.643195,0.92028 0.696005,1.24465 1.659216,2.58873 2.409554,3.36233 l 0.585738,0.60391 -0.648067,0.667 c -0.809744,0.83341 -1.488234,1.76493 -2.267808,3.11351 -0.333356,0.57668 -0.64414,1.04758 -0.69063,1.04646 -0.04649,-0.001 -0.342903,-0.46806 -0.658695,-1.03766 z"
       id="path2820" />
    <path
       style="fill:#e4101c;stroke-width:1"
       d="m 69.16733,466.06372 c -0.07026,-0.0893 -0.345729,-0.55516 -0.612156,-1.03537 -0.576413,-1.03894 -1.761999,-2.64177 -2.399801,-3.24436 l -0.457062,-0.43184 0.704751,-0.77553 c 0.758467,-0.83464 1.507389,-1.91833 2.270612,-3.28558 0.263381,-0.47183 0.522224,-0.85786 0.575209,-0.85786 0.05299,0 0.249956,0.28114 0.437716,0.62476 0.579586,1.0607 1.821439,2.83595 2.492653,3.56326 l 0.63956,0.69302 -0.605551,0.64143 c -0.757168,0.80205 -1.634321,2.02658 -2.359596,3.2941 -0.414342,0.72412 -0.59158,0.93431 -0.686335,0.81397 z"
       id="path2818" />
    <path
       style="fill:#e4101c;stroke-width:1"
       d="m 79.251297,472.03013 c -0.504082,-1.03347 -1.743932,-2.8272 -2.488831,-3.60066 -0.671893,-0.69765 -0.726551,-0.79383 -0.539192,-0.94871 0.711536,-0.5882 2.316121,-2.84212 3.050174,-4.28451 l 0.279803,-0.54979 0.682619,1.17812 c 0.703464,1.2141 2.072289,3.01382 2.655851,3.49189 l 0.331038,0.27121 -0.765454,0.81505 c -0.803114,0.85515 -1.7055,2.1423 -2.392362,3.4124 -0.224377,0.41491 -0.43958,0.75533 -0.478228,0.7565 -0.03865,10e-4 -0.189587,-0.24252 -0.335418,-0.5415 z"
       id="path2814" />
    <path
       style="fill:#e4101c;stroke-width:1"
       d="m 95.797462,472.63728 c 0,-0.0349 0.02871,-0.0635 0.0638,-0.0635 0.03508,0 0.0638,0.0286 0.0638,0.0635 0,0.0349 -0.02871,0.0636 -0.0638,0.0636 -0.03509,0 -0.0638,-0.0286 -0.0638,-0.0636 z"
       id="path2812" />
    <path
       style="fill:#e4101c;stroke-width:1"
       d="m 89.315489,477.87979 c -0.645455,-1.17031 -1.534452,-2.38995 -2.356653,-3.23317 l -0.643138,-0.65957 0.76781,-0.86552 c 0.859127,-0.96845 1.87394,-2.43268 2.383544,-3.43911 0.185817,-0.36698 0.364624,-0.66723 0.397348,-0.66723 0.03272,0 0.212106,0.30025 0.398629,0.66723 0.507272,0.99804 1.524972,2.46529 2.385513,3.43927 l 0.764853,0.86568 -0.488139,0.46878 c -0.683475,0.65636 -1.902573,2.31682 -2.508866,3.41717 -0.281192,0.51034 -0.529588,0.92788 -0.55199,0.92788 -0.0224,0 -0.269412,-0.41464 -0.548911,-0.92141 z"
       id="path2810" />
    <path
       style="fill:#e4101c;stroke-width:1"
       d="m 68.957744,478.3293 c -0.497402,-0.97772 -1.781292,-2.82333 -2.496881,-3.58931 -0.35623,-0.38132 -0.64769,-0.71547 -0.64769,-0.74256 0,-0.0271 0.323534,-0.4014 0.718964,-0.83179 0.7546,-0.82133 1.904688,-2.49676 2.373108,-3.45711 0.151903,-0.31144 0.321195,-0.56625 0.376206,-0.56625 0.055,0 0.252627,0.30026 0.43915,0.66723 0.544405,1.0711 1.565691,2.51158 2.387527,3.36749 l 0.762287,0.79391 -0.693053,0.73118 c -0.899951,0.94948 -1.526096,1.8168 -2.284594,3.16455 l -0.614715,1.09227 z"
       id="path2808" />
    <path
       style="fill:#e4101c;stroke-width:1"
       d="m 95.92505,488.26948 c 0,-0.0349 0.02871,-0.0635 0.0638,-0.0635 0.03508,0 0.0638,0.0286 0.0638,0.0635 0,0.0349 -0.02871,0.0636 -0.0638,0.0636 -0.03508,0 -0.0638,-0.0286 -0.0638,-0.0636 z"
       id="path2806" />
    <path
       style="fill:#e4101c;stroke-width:1"
       d="m 63.261318,488.26948 c 0,-0.0349 0.02871,-0.0635 0.0638,-0.0635 0.03508,0 0.0638,0.0286 0.0638,0.0635 0,0.0349 -0.02871,0.0636 -0.0638,0.0636 -0.03509,0 -0.0638,-0.0286 -0.0638,-0.0636 z"
       id="path2804" />
    <path
       style="fill:#e4101c;stroke-width:1"
       d="m 89.456438,490.87879 c -0.68361,-1.2641 -1.58798,-2.5559 -2.37902,-3.39819 l -0.752112,-0.80086 0.822265,-0.92086 c 0.92258,-1.0332 1.64118,-2.06075 2.270552,-3.24674 l 0.42496,-0.8008 0.21351,0.35598 c 1.018188,1.69757 1.534213,2.46814 2.092232,3.12426 0.357612,0.42048 0.784479,0.92876 0.948594,1.12951 l 0.298391,0.365 -0.695462,0.74822 c -0.76206,0.81988 -1.59368,2.01697 -2.323932,3.34522 -0.259403,0.47183 -0.480726,0.85691 -0.491831,0.85575 -0.0111,-0.001 -0.203771,-0.34158 -0.428147,-0.75649 z"
       id="path2802" />
    <path
       style="fill:#e4101c;stroke-width:1"
       d="m 68.632278,490.50242 c -0.73955,-1.27637 -1.567659,-2.43413 -2.331299,-3.25932 l -0.514711,-0.55621 0.729095,-0.79734 c 0.772966,-0.84532 1.655324,-2.09036 2.357633,-3.3267 l 0.426087,-0.75008 0.26663,0.47547 c 0.671562,1.19753 1.819523,2.82225 2.524488,3.57289 l 0.772659,0.82273 -0.563917,0.60218 c -0.810649,0.86564 -1.534283,1.87592 -2.28986,3.19693 -0.363169,0.63493 -0.673555,1.15442 -0.689747,1.15442 -0.0162,0 -0.32537,-0.51073 -0.687058,-1.13497 z"
       id="path2800" />
    <path
       style="fill:#e4101c;stroke-width:1"
       d="m 95.92505,492.33639 c 0,-0.0349 0.02871,-0.0635 0.0638,-0.0635 0.03508,0 0.0638,0.0286 0.0638,0.0635 0,0.0349 -0.02871,0.0636 -0.0638,0.0636 -0.03508,0 -0.0638,-0.0286 -0.0638,-0.0636 z"
       id="path2798" />
    <path
       style="fill:#e4101c;stroke-width:1"
       d="m 95.92505,493.67085 c 0,-0.0932 0.03828,-0.13132 0.08507,-0.0848 0.04678,0.0466 0.04678,0.12286 0,0.16946 -0.04679,0.0466 -0.08507,0.008 -0.08507,-0.0848 z"
       id="path2796" />
    <path
       style="fill:#e4101c;stroke-width:1"
       d="m 95.92505,494.36985 c 0,-0.0349 0.02871,-0.0635 0.0638,-0.0635 0.03508,0 0.0638,0.0286 0.0638,0.0635 0,0.0349 -0.02871,0.0636 -0.0638,0.0636 -0.03508,0 -0.0638,-0.0286 -0.0638,-0.0636 z"
       id="path2794" />
    <path
       style="fill:#e4101c;stroke-width:1"
       d="m 95.92505,495.1324 c 0,-0.0349 0.02871,-0.0636 0.0638,-0.0636 0.03508,0 0.0638,0.0286 0.0638,0.0636 0,0.0349 -0.02871,0.0635 -0.0638,0.0635 -0.03508,0 -0.0638,-0.0286 -0.0638,-0.0635 z"
       id="path2792" />
    <path
       style="fill:#e4101c;stroke-width:1"
       d="m 95.935127,497.02817 c 0.0061,-0.14805 0.03636,-0.17816 0.07709,-0.0768 0.03686,0.0918 0.03233,0.20136 -0.01007,0.24359 -0.0424,0.0422 -0.07256,-0.0328 -0.06701,-0.16681 z"
       id="path2790" />
    <path
       style="fill:#e4101c;stroke-width:1"
       d="m 79.143267,497.14543 c -0.729162,-1.30784 -1.417995,-2.29919 -2.265469,-3.2604 l -0.763627,-0.86611 0.431683,-0.4657 c 0.237426,-0.25613 0.46307,-0.49549 0.501432,-0.53189 0.327241,-0.31053 1.359544,-1.81141 1.910615,-2.77786 0.571037,-1.00148 0.695815,-1.15019 0.799855,-0.95318 0.859493,1.62739 1.870775,3.07948 2.881498,4.1375 l 0.57293,0.59974 -0.701287,0.73472 c -0.748959,0.78466 -1.777649,2.23722 -2.32042,3.27653 -0.554765,1.06229 -0.516577,1.0584 -1.04721,0.10665 z"
       id="path2788" />
    <path
       style="fill:#e4101c;stroke-width:1"
       d="m 63.261322,499.19933 c 0,-0.0349 0.02871,-0.0635 0.0638,-0.0635 0.03508,0 0.0638,0.0286 0.0638,0.0635 0,0.0349 -0.02871,0.0636 -0.0638,0.0636 -0.03509,0 -0.0638,-0.0286 -0.0638,-0.0636 z"
       id="path2786" />
    <path
       style="fill:#e4101c;stroke-width:1"
       d="m 95.797462,499.45351 c 0,-0.0349 0.02871,-0.0635 0.0638,-0.0635 0.03508,0 0.0638,0.0286 0.0638,0.0635 0,0.0349 -0.02871,0.0636 -0.0638,0.0636 -0.03509,0 -0.0638,-0.0286 -0.0638,-0.0636 z"
       id="path2784" />
    <path
       style="fill:#e4101c;stroke-width:1"
       d="m 95.925054,501.35988 c 0,-0.0349 0.02871,-0.0635 0.0638,-0.0635 0.03508,0 0.0638,0.0286 0.0638,0.0635 0,0.0349 -0.02871,0.0635 -0.0638,0.0635 -0.03508,0 -0.0638,-0.0286 -0.0638,-0.0635 z"
       id="path2782" />
    <path
       style="fill:#e4101c;stroke-width:1"
       d="m 95.925054,501.99533 c 0,-0.0349 0.02871,-0.0635 0.0638,-0.0635 0.03508,0 0.0638,0.0286 0.0638,0.0635 0,0.0349 -0.02871,0.0635 -0.0638,0.0635 -0.03508,0 -0.0638,-0.0286 -0.0638,-0.0635 z"
       id="path2780" />
    <path
       style="fill:#e4101c;stroke-width:1"
       d="m 89.559025,503.74283 c -0.470854,-0.97201 -1.585097,-2.57013 -2.438048,-3.49679 l -0.791275,-0.85965 0.749916,-0.79851 c 0.834709,-0.88879 1.71621,-2.16459 2.323299,-3.3625 0.220748,-0.43558 0.446509,-0.79196 0.501691,-0.79196 0.05518,0 0.232607,0.27165 0.394276,0.60368 0.445186,0.91429 1.549809,2.55521 2.362325,3.50922 l 0.72591,0.85234 -0.684017,0.78997 c -1.074603,1.24106 -1.420771,1.72345 -2.140119,2.98229 -0.369478,0.64658 -0.680721,1.1756 -0.691653,1.1756 -0.01094,0 -0.151469,-0.27166 -0.312305,-0.60369 z"
       id="path2776" />
    <path
       style="fill:#e4101c;stroke-width:1"
       d="m 68.956388,503.74484 c -0.493359,-0.96978 -1.77922,-2.81991 -2.484464,-3.57472 l -0.636634,-0.68139 0.761117,-0.90292 c 0.904777,-1.07335 1.712791,-2.27264 2.264085,-3.36045 0.220748,-0.43558 0.428415,-0.79196 0.461484,-0.79196 0.03306,0 0.240735,0.35638 0.461484,0.79196 0.597824,1.17963 1.41794,2.36883 2.27953,3.3054 0.728661,0.79209 0.915769,1.11337 0.648389,1.11337 -0.222203,0 -1.721032,1.95031 -2.530353,3.29254 -0.44254,0.73393 -0.827359,1.35708 -0.855154,1.38477 -0.02779,0.0277 -0.194063,-0.23179 -0.369484,-0.5766 z"
       id="path2774" />
    <path
       style="fill:#e4101c;stroke-width:1"
       d="m 95.925054,505.42677 c 0,-0.0349 0.02871,-0.0635 0.0638,-0.0635 0.03508,0 0.0638,0.0286 0.0638,0.0635 0,0.0349 -0.02871,0.0636 -0.0638,0.0636 -0.03508,0 -0.0638,-0.0286 -0.0638,-0.0636 z"
       id="path2772" />
  </g>
  <g
     inkscape:groupmode="layer"
     id="layer6"
     inkscape:label="OuterSuit"
     style="display:inline"
     transform="translate(94.217781,-340.71922)">
    <path
       style="display:inline;fill:#e4101c;stroke-width:1"
       d="m 55.415111,470.37465 c -1.186353,-2.20459 -2.288238,-3.7792 -3.686456,-5.26803 l -0.771309,-0.82129 0.444753,-0.40598 c 1.237646,-1.12976 2.736318,-3.2011 3.883655,-5.36768 0.327427,-0.6183 0.61293,-1.14172 0.63445,-1.16316 0.02152,-0.0214 0.341679,0.52163 0.711465,1.20681 1.145531,2.12255 2.930229,4.56539 3.975376,5.44136 l 0.397555,0.33321 -0.830153,0.84933 c -1.335622,1.36648 -2.693584,3.29638 -3.65674,5.19688 -0.217726,0.42961 -0.444136,0.81083 -0.503134,0.84715 -0.05899,0.0363 -0.328756,-0.34555 -0.599462,-0.8486 z"
       id="path2816"
       transform="translate(-1.0416666e-6,-1.1083333e-5)" />
    <path
       style="display:inline;fill:#e4101c;stroke-width:1"
       d="m 102.3211,501.6937 c -0.93909,-1.73508 -1.81054,-2.95925 -3.147193,-4.42106 l -0.948264,-1.03704 0.412715,-0.36253 c 1.157038,-1.01632 2.692262,-3.12178 3.805272,-5.21866 0.37972,-0.7154 0.71912,-1.30099 0.75421,-1.30131 0.0351,-3.8e-4 0.29346,0.43857 0.57417,0.97532 0.92414,1.76709 2.48107,3.93252 3.9125,5.44163 l 0.48427,0.51056 -0.64259,0.69681 c -1.27142,1.37872 -2.78017,3.52086 -3.82512,5.43096 -0.239,0.43687 -0.46435,0.79275 -0.50078,0.79081 -0.0364,-0.002 -0.43207,-0.67939 -0.87919,-1.50549 z"
       id="path2778"
       transform="translate(-1.0416666e-6,-1.1083333e-5)" />
  </g>
  <g
     inkscape:groupmode="layer"
     id="layer3"
     inkscape:label="CardName"
     style="display:inline"
     transform="translate(94.217781,-340.71922)">
    <path
       id="path2582"
       style="display:inline;fill:#e4101c;stroke-width:1"
       d="m 102.01858,506.39307 c -0.24641,2.2e-4 -0.51899,0.004 -0.82134,0.01 -1.859457,0.0366 -2.099862,0.0673 -2.424028,0.30717 -0.667979,0.49432 -0.692211,0.74658 -0.652086,6.84376 0.03475,5.28054 0.05098,5.62203 0.284508,6.00652 0.249292,0.41044 0.630611,0.62859 1.219547,0.69813 0.17544,0.0207 1.125609,0.0351 2.111489,0.0321 2.01769,-0.006 2.43437,-0.11469 2.80822,-0.7302 0.23611,-0.38869 0.24727,-0.67807 0.23363,-6.21234 -0.0136,-5.49905 -0.0273,-5.82658 -0.26166,-6.22733 -0.3343,-0.57161 -0.77341,-0.72912 -2.49828,-0.72761 z m -1.04354,1.78722 c 0.17197,-0.002 0.36636,2.5e-4 0.58251,0.006 l 1.32131,0.0362 0.0639,4.99759 c 0.0351,2.74869 0.0177,5.07933 -0.0384,5.1791 -0.15728,0.27951 -2.83795,0.26165 -2.946318,-0.0196 -0.0426,-0.11055 -0.07736,-2.39105 -0.07736,-5.06791 0,-4.01008 0.03132,-4.89335 0.178078,-5.01466 0.0874,-0.0723 0.40043,-0.11163 0.91635,-0.11687 z"
       transform="translate(-1.0416666e-6,-1.1083333e-5)" />
    <path
       id="path2838"
       style="display:inline;fill:#e4101c;stroke-width:1"
       d="m 58.718783,440.30946 c -0.306117,-10e-4 -0.683921,0.003 -1.158282,0.0109 -1.993835,0.0327 -2.224509,0.0598 -2.55175,0.302 -0.672057,0.49749 -0.696728,0.75451 -0.65416,6.851 0.03573,5.11765 0.05859,5.62801 0.270489,6.0148 0.127351,0.23245 0.414538,0.50145 0.638067,0.59832 0.28862,0.125 0.998155,0.178 2.447916,0.181 2.336092,0.005 2.77264,-0.11667 3.157627,-0.8843 0.202354,-0.40348 0.223248,-0.97064 0.223248,-6.10064 0,-6.33092 0.0016,-6.3176 -0.892984,-6.77136 -0.289912,-0.14673 -0.56182,-0.1983 -1.480171,-0.20168 z m -1.472383,1.78101 c 0.157261,6.4e-4 0.33643,0.004 0.538904,0.009 l 1.456808,0.0362 0.03323,5.07516 c 0.02616,3.97582 -0.0011,5.09728 -0.127196,5.17704 -0.08854,0.056 -0.747763,0.10294 -1.464597,0.10394 -1.159121,0.002 -1.318054,-0.0255 -1.435521,-0.24409 -0.158827,-0.29561 -0.181403,-9.77376 -0.02387,-10.02103 0.06261,-0.0984 0.340792,-0.13881 1.022257,-0.13601 z"
       transform="translate(-1.0416666e-6,-1.1083333e-5)" />
    <path
       style="display:inline;fill:#e4101c;stroke-width:1"
       d="m 50.835188,454.16839 c -0.03559,-0.0573 -0.05333,-3.18856 -0.03943,-6.95823 l 0.02528,-6.85396 0.861251,-0.0376 0.86125,-0.0376 v 6.99582 6.99581 h -0.821822 c -0.452002,0 -0.850939,-0.0469 -0.886525,-0.10428 z"
       id="path2836"
       transform="translate(-1.0416666e-6,-1.1083333e-5)" />
    <path
       style="display:inline;fill:#e4101c;stroke-width:1"
       d="m 106.63609,518.54892 c -0.004,-0.92617 -0.0181,-4.02879 -0.0319,-6.89469 l -0.0251,-5.21073 0.84494,-0.0372 c 0.72471,-0.0319 0.85294,-0.005 0.90108,0.19064 0.0309,0.12531 0.0714,3.24466 0.0901,6.93189 l 0.0339,6.70406 h -0.90309 -0.90309 l -0.007,-1.68396 z"
       id="path2770"
       transform="translate(-1.0416666e-6,-1.1083333e-5)" />
  </g>
</svg>
