<?xml version="1.0" encoding="UTF-8" standalone="no"?>
<svg
   width="63.500004mm"
   height="88.899895mm"
   viewBox="142.0878 95.116776 63.500012 88.899887"
   version="1.1"
   id="svg10"
   sodipodi:docname="10H.svg"
   inkscape:version="1.1.1 (1:1.1+202109281949+c3084ef5ed)"
   inkscape:export-filename="/home/doug/k40/52Cards/IndividualColorCards/10H.png"
   inkscape:export-xdpi="300"
   inkscape:export-ydpi="300"
   xmlns:inkscape="http://www.inkscape.org/namespaces/inkscape"
   xmlns:sodipodi="http://sodipodi.sourceforge.net/DTD/sodipodi-0.dtd"
   xmlns="http://www.w3.org/2000/svg"
   xmlns:svg="http://www.w3.org/2000/svg">
  <defs
     id="defs14">
    <marker
       style="overflow:visible"
       id="marker2995"
       refX="0"
       refY="0"
       orient="auto"
       inkscape:stockid="Arrow1Lstart"
       inkscape:isstock="true">
      <path
         transform="matrix(0.8,0,0,0.8,10,0)"
         style="fill:#000000;fill-opacity:1;fill-rule:evenodd;stroke:#000000;stroke-width:1pt;stroke-opacity:1"
         d="M 0,0 5,-5 -12.5,0 5,5 Z"
         id="path2993" />
    </marker>
    <marker
       style="overflow:visible"
       id="marker2985"
       refX="0"
       refY="0"
       orient="auto"
       inkscape:stockid="Arrow1Lstart"
       inkscape:isstock="true">
      <path
         transform="matrix(0.8,0,0,0.8,10,0)"
         style="fill:#000000;fill-opacity:1;fill-rule:evenodd;stroke:#000000;stroke-width:1pt;stroke-opacity:1"
         d="M 0,0 5,-5 -12.5,0 5,5 Z"
         id="path2983" />
    </marker>
    <marker
       style="overflow:visible"
       id="marker2791"
       refX="0"
       refY="0"
       orient="auto"
       inkscape:stockid="Arrow1Lstart"
       inkscape:isstock="true">
      <path
         transform="matrix(0.8,0,0,0.8,10,0)"
         style="fill:#000000;fill-opacity:1;fill-rule:evenodd;stroke:#000000;stroke-width:1pt;stroke-opacity:1"
         d="M 0,0 5,-5 -12.5,0 5,5 Z"
         id="path2789" />
    </marker>
    <marker
       style="overflow:visible"
       id="marker2781"
       refX="0"
       refY="0"
       orient="auto"
       inkscape:stockid="Arrow1Lstart"
       inkscape:isstock="true">
      <path
         transform="matrix(0.8,0,0,0.8,10,0)"
         style="fill:#000000;fill-opacity:1;fill-rule:evenodd;stroke:#000000;stroke-width:1pt;stroke-opacity:1"
         d="M 0,0 5,-5 -12.5,0 5,5 Z"
         id="path2779" />
    </marker>
    <marker
       style="overflow:visible"
       id="marker2417"
       refX="0"
       refY="0"
       orient="auto"
       inkscape:stockid="Arrow1Lstart"
       inkscape:isstock="true">
      <path
         transform="matrix(0.8,0,0,0.8,10,0)"
         style="fill:#000000;fill-opacity:1;fill-rule:evenodd;stroke:#000000;stroke-width:1pt;stroke-opacity:1"
         d="M 0,0 5,-5 -12.5,0 5,5 Z"
         id="path2415" />
    </marker>
    <marker
       style="overflow:visible"
       id="marker2383"
       refX="0"
       refY="0"
       orient="auto"
       inkscape:stockid="Arrow1Lstart"
       inkscape:isstock="true">
      <path
         transform="matrix(0.8,0,0,0.8,10,0)"
         style="fill:#000000;fill-opacity:1;fill-rule:evenodd;stroke:#000000;stroke-width:1pt;stroke-opacity:1"
         d="M 0,0 5,-5 -12.5,0 5,5 Z"
         id="path2381" />
    </marker>
    <marker
       style="overflow:visible"
       id="marker2355"
       refX="0"
       refY="0"
       orient="auto"
       inkscape:stockid="Arrow1Lstart"
       inkscape:isstock="true">
      <path
         transform="matrix(0.8,0,0,0.8,10,0)"
         style="fill:#000000;fill-opacity:1;fill-rule:evenodd;stroke:#000000;stroke-width:1pt;stroke-opacity:1"
         d="M 0,0 5,-5 -12.5,0 5,5 Z"
         id="path2353" />
    </marker>
    <marker
       style="overflow:visible"
       id="Arrow1Lstart"
       refX="0"
       refY="0"
       orient="auto"
       inkscape:stockid="Arrow1Lstart"
       inkscape:isstock="true">
      <path
         transform="matrix(0.8,0,0,0.8,10,0)"
         style="fill:#000000;fill-opacity:1;fill-rule:evenodd;stroke:#000000;stroke-width:1pt;stroke-opacity:1"
         d="M 0,0 5,-5 -12.5,0 5,5 Z"
         id="path2071" />
    </marker>
  </defs>
  <sodipodi:namedview
     id="namedview12"
     pagecolor="#ffffff"
     bordercolor="#666666"
     borderopacity="1.0"
     inkscape:pageshadow="2"
     inkscape:pageopacity="0.0"
     inkscape:pagecheckerboard="0"
     inkscape:document-units="mm"
     showgrid="false"
     showborder="false"
     fit-margin-top="0"
     fit-margin-left="0"
     fit-margin-right="0"
     fit-margin-bottom="0"
     inkscape:zoom="1.2541666"
     inkscape:cx="120.00001"
     inkscape:cy="167.84054"
     inkscape:window-width="1366"
     inkscape:window-height="712"
     inkscape:window-x="0"
     inkscape:window-y="0"
     inkscape:window-maximized="1"
     inkscape:current-layer="layer5" />
  <g
     inkscape:groupmode="layer"
     id="layer1"
     inkscape:label="CardOutline"
     style="display:inline"
     transform="translate(94.217781,-340.71922)">
    <path
       id="path4-3"
       style="display:inline;fill:none;fill-rule:evenodd;stroke:#000000;stroke-width:0.25;stroke-miterlimit:4;stroke-dasharray:none;stroke-opacity:1"
       d="m 50.564743,435.96104 -0.534158,0.31687 c -0.688621,0.40844 -1.158412,0.85449 -1.590112,1.51001 l -0.346181,0.5258 -0.06384,25.43159 c -0.03506,13.98732 -0.046,32.74824 -0.02422,41.69094 0.03916,16.06607 0.04297,16.26663 0.30127,16.87005 h 2.54e-4 c 0.321831,0.75178 1.375871,1.69211 2.308962,2.06009 0.662802,0.26139 0.718825,0.26193 29.335815,0.23047 27.968057,-0.0307 28.683467,-0.0377 29.150357,-0.27706 0.72044,-0.36932 1.35524,-0.98173 1.76901,-1.70664 l 0.37116,-0.65029 9.8e-4,-41.53137 9.8e-4,-41.53137 -0.30833,-0.61121 c -0.3634,-0.72062 -1.20695,-1.59056 -1.92217,-1.98245 l -0.50968,-0.27931 -28.969947,-0.0331 z m 0.134234,0.49272 57.679013,0.0666 0.38933,0.21242 0.11632,0.0681 0.12061,0.0774 0.13902,0.0985 0.11304,0.0864 0.12364,0.1017 0.13751,0.12124 0.11153,0.10621 0.13145,0.13177 0.10774,0.11773 0.12692,0.13477 0.0918,0.11748 0.10345,0.13201 0.0951,0.13352 0.0785,0.11974 0.0739,0.12124 0.0603,0.11222 0.25661,0.50651 -0.003,82.81198 -0.30631,0.53682 -0.13726,0.22444 -0.18268,0.24876 -0.16754,0.20014 -0.19757,0.20466 -0.19327,0.17285 -0.23542,0.18336 -0.22481,0.1503 -0.2233,0.12574 -0.0212,0.0108 -0.0149,0.006 -0.0394,0.012 -0.027,0.006 -0.0507,0.01 -0.0277,0.004 -0.0606,0.008 -0.0573,0.008 -0.0679,0.006 -0.083,0.0105 -0.0868,0.004 -0.0913,0.006 -0.10698,0.007 -0.25056,0.012 -0.3048,0.0108 -0.3545,0.0105 -0.41809,0.009 -0.47538,0.009 -0.54929,0.008 -0.96108,0.0105 -1.14073,0.0108 -3.46459,0.0165 -34.84847,0.0471 -6.84314,-0.003 -1.74276,-0.004 -1.260078,-0.006 -1.065289,-0.008 -0.60506,-0.006 -0.534158,-0.008 -0.467798,-0.009 -0.401438,-0.009 -0.339623,-0.009 -0.289659,-0.012 -0.126666,-0.006 -0.11632,-0.006 -0.106979,-0.006 -0.08302,-0.006 -0.08302,-0.008 -0.07998,-0.006 -0.0545,-0.007 -0.10093,-0.0135 -0.09967,-0.0183 -0.03911,-0.009 -0.04844,-0.0138 -0.0376,-0.0135 -0.04692,-0.0183 -0.167539,-0.0726 -0.143315,-0.0699 -0.177886,-0.0985 -0.140542,-0.0864 -0.159971,-0.10773 -0.155176,-0.11372 -0.152651,-0.12124 -0.161231,-0.13803 -0.123887,-0.11372 -0.144835,-0.14729 -0.11026,-0.11974 -0.119098,-0.14253 -0.08604,-0.11374 -0.09361,-0.13951 -0.06485,-0.11098 -0.05601,-0.11974 -0.027,-0.0669 -0.03481,-0.10621 -0.0061,-0.027 -0.01211,-0.0669 -0.01338,-0.0939 -0.01514,-0.12124 -0.0044,-0.0531 -0.01362,-0.15632 -0.0099,-0.16206 -0.01133,-0.21243 -0.01059,-0.23947 -0.0088,-0.27305 -0.0091,-0.31236 -0.0076,-0.3532 -0.01059,-0.61573 -0.0091,-0.72319 -0.0106,-1.15404 -0.0106,-1.77404 -0.01641,-4.27149 -0.01968,-8.14897 -0.0061,-8.546 0.0015,-6.72963 0.0044,-7.16476 0.0091,-7.2692 0.01943,-9.71082 0.0651,-25.28355 0.257868,-0.39253 0.152402,-0.21993 0.166025,-0.21393 0.147862,-0.16834 0.169052,-0.17133 0.185708,-0.16508 0.168798,-0.13202 0.229612,-0.16082 0.227845,-0.14253 z"
       inkscape:export-filename="/home/doug/k40/52Cards/IndividualColorCards/2D.png"
       inkscape:export-xdpi="300"
       inkscape:export-ydpi="300" />
  </g>
  <g
     inkscape:groupmode="layer"
     id="layer2"
     inkscape:label="InnerRectangle"
     style="display:inline"
     transform="translate(94.217781,-340.71922)">
    <path
       id="path2-6"
       style="display:inline;fill:none;fill-rule:evenodd;stroke:#4c71a5;stroke-width:0.262609;stroke-opacity:1"
       d="m 63.13524,452.67467 0.0441,14.05596 c 0.0243,7.7307 0.0504,20.15551 0.0578,27.61093 l 0.0134,13.55547 16.409043,-0.0521 16.40903,-0.0519 0.0305,-24.32539 c 0.0169,-13.37898 -0.004,-25.78048 -0.0462,-27.55907 l -0.077,-3.23394 h -16.42035 z m 16.503153,0.25626 h 16.11155 l 0.005,0.73622 c 0.003,0.40503 0.0367,12.68075 0.0757,27.27927 l 0.0709,26.54279 -3.16634,0.004 c -1.74158,0.002 -8.99902,0.0153 -16.12745,0.0285 -7.12842,0.0133 -12.991523,-0.007 -13.029223,-0.0446 -0.0728,-0.0731 -0.16665,-54.20072 -0.0944,-54.4185 0.028,-0.0844 5.532343,-0.128 16.154193,-0.128 z"
       inkscape:export-filename="/home/doug/k40/52Cards/IndividualColorCards/2D.png"
       inkscape:export-xdpi="300"
       inkscape:export-ydpi="300" />
  </g>
  <g
     inkscape:groupmode="layer"
     id="layer5"
     inkscape:label="InnerSuit"
     style="display:inline"
     transform="translate(94.217781,-340.71922)">
    <path
       style="fill:#e10a16;stroke-width:1"
       d="m 90.026602,464.90759 c -0.937862,-1.47055 -2.116666,-3.56438 -2.531827,-4.4971 -1.022483,-2.29718 -0.579496,-3.94792 1.068915,-3.98318 0.715885,-0.0153 1.135525,0.22207 1.495785,0.84614 l 0.297072,0.51462 0.243706,-0.46249 c 0.938877,-1.78176 3.446717,-0.85689 3.198968,1.17975 -0.11758,0.96657 -0.776634,2.453 -2.057911,4.64142 -0.654331,1.1176 -1.237389,2.08143 -1.29568,2.14184 -0.05829,0.0604 -0.246855,-0.11103 -0.419028,-0.381 z"
       id="path2766" />
    <path
       style="fill:#e10a16;stroke-width:1"
       d="m 67.921434,463.80111 c -1.879522,-3.09205 -2.663373,-5.05861 -2.397703,-6.01545 0.183571,-0.66116 0.4406,-0.98155 0.991666,-1.23615 0.680096,-0.31421 1.37961,-0.16969 1.883583,0.38916 0.217456,0.24113 0.395376,0.52216 0.395376,0.6245 0,0.32313 0.204595,0.20235 0.427235,-0.2522 0.281767,-0.57528 0.80505,-0.89522 1.464188,-0.89522 0.705881,0 1.20584,0.33877 1.51981,1.02982 0.196205,0.43184 0.235563,0.70443 0.168075,1.16403 -0.104244,0.70996 -0.76554,2.3251 -1.389678,3.39415 -0.945608,1.61967 -1.942514,3.23179 -2.031415,3.28503 -0.05115,0.0306 -0.515158,-0.63882 -1.031137,-1.48767 z"
       id="path2764" />
    <path
       style="fill:#e10a16;stroke-width:1"
       d="m 78.93168,470.72502 c -1.030511,-1.61431 -2.134663,-3.66285 -2.440052,-4.52705 -0.68162,-1.92887 0.06858,-3.38162 1.656309,-3.20738 0.638288,0.07 1.001154,0.33234 1.334228,0.96443 l 0.225285,0.42753 0.162988,-0.3831 c 0.266827,-0.62718 0.715058,-0.94676 1.409576,-1.00501 0.767796,-0.0644 1.329094,0.23813 1.645234,0.88676 0.415494,0.85248 0.201933,1.90834 -0.765208,3.7832 -0.426066,0.82596 -2.256021,3.89878 -2.474577,4.15526 -0.0173,0.0203 -0.356499,-0.47229 -0.753783,-1.09464 z"
       id="path2760" />
    <path
       style="fill:#e10a16;stroke-width:1"
       d="m 89.249893,476.577 c -1.708391,-2.77031 -2.328646,-4.15017 -2.352938,-5.23449 -0.04318,-1.92745 2.304742,-2.63866 3.186827,-0.96531 l 0.263278,0.49945 0.163568,-0.37875 c 0.08996,-0.20831 0.359454,-0.53922 0.59887,-0.73536 0.382183,-0.31309 0.514632,-0.34919 1.085354,-0.2958 0.537181,0.0503 0.723696,0.13905 1.074196,0.51142 0.233282,0.24784 0.46447,0.65987 0.513752,0.91564 0.113498,0.58902 -0.210225,1.78585 -0.816614,3.0191 -0.513249,1.04382 -2.504654,4.28335 -2.633063,4.28335 -0.04657,0 -0.534024,-0.72866 -1.08323,-1.61925 z"
       id="path2758" />
    <path
       style="fill:#e10a16;stroke-width:1"
       d="m 67.763089,476.4938 c -2.562599,-4.11048 -2.9336,-5.90615 -1.407453,-6.81214 0.813398,-0.48287 1.812224,-0.21829 2.264806,0.59992 0.28677,0.51845 0.359681,0.52384 0.564765,0.0418 0.341901,-0.80363 1.495749,-1.12434 2.308753,-0.64171 0.618459,0.36715 0.84134,0.77989 0.838572,1.55289 -0.0039,1.10371 -0.76476,2.86532 -2.238742,5.1837 -0.37748,0.59373 -0.780251,1.2363 -0.895049,1.42795 -0.114796,0.19164 -0.245976,0.34881 -0.291508,0.34925 -0.04553,3.8e-4 -0.560398,-0.7653 -1.144144,-1.70165 z"
       id="path2756" />
    <path
       style="fill:#e10a16;stroke-width:1"
       d="m 87.733339,491.23248 c -0.405021,-0.21882 -0.776068,-0.79286 -0.869033,-1.34446 -0.09861,-0.5851 0.210101,-1.72697 0.791802,-2.92873 0.576846,-1.19172 2.526722,-4.445 2.664145,-4.445 0.152303,0 2.021111,3.13671 2.669475,4.48059 0.310704,0.644 0.632322,1.49565 0.714708,1.89255 0.306693,1.47751 -0.391709,2.51686 -1.691231,2.51686 -0.7209,0 -1.091238,-0.2332 -1.446233,-0.91068 l -0.268753,-0.51289 -0.267364,0.52613 c -0.14705,0.28937 -0.433306,0.60967 -0.636124,0.71178 -0.450702,0.22692 -1.254614,0.23362 -1.661392,0.0138 z"
       id="path2754" />
    <path
       style="fill:#e10a16;stroke-width:1"
       d="m 66.284045,491.20498 c -0.418889,-0.22127 -0.881207,-1.03288 -0.881207,-1.54699 0,-1.07457 0.892341,-3.07033 2.64478,-5.91513 l 0.846954,-1.3749 0.905697,1.5019 c 1.948916,3.23184 2.516047,4.50386 2.516047,5.64327 0,1.16489 -0.646818,1.89112 -1.684326,1.89112 -0.736788,0 -1.100857,-0.22973 -1.464821,-0.92433 l -0.275908,-0.52655 -0.261169,0.54026 c -0.146132,0.3023 -0.423172,0.62183 -0.628968,0.72545 -0.468412,0.23583 -1.256172,0.22936 -1.717079,-0.0141 z"
       id="path2752" />
    <path
       style="fill:#e10a16;stroke-width:1"
       d="m 96.18738,497.56375 c 0,-0.0349 0.02935,-0.0635 0.06522,-0.0635 0.03588,0 0.06522,0.0286 0.06522,0.0635 0,0.0349 -0.02936,0.0635 -0.06522,0.0635 -0.03587,0 -0.06522,-0.0286 -0.06522,-0.0635 z"
       id="path2750" />
    <path
       style="fill:#e10a16;stroke-width:1"
       d="m 77.196864,497.82773 c -1.318407,-0.55888 -1.378768,-1.89721 -0.195349,-4.33133 0.615202,-1.26538 2.494884,-4.4934 2.619607,-4.49871 0.06753,-0.003 0.242625,0.28572 1.729774,2.85106 1.563969,2.69786 2.004204,4.25735 1.480286,5.24375 -0.628333,1.18299 -2.265161,1.18452 -2.947359,0.003 l -0.301802,-0.52281 -0.247294,0.4693 c -0.44242,0.8396 -1.282663,1.14852 -2.137863,0.786 z"
       id="path2748" />
    <path
       style="fill:#e10a16;stroke-width:1"
       d="m 87.694664,504.29514 c -0.464232,-0.24567 -0.758703,-0.71918 -0.849842,-1.36657 -0.142124,-1.00953 0.797492,-3.17662 2.669981,-6.15792 0.405582,-0.64575 0.766771,-1.1731 0.802643,-1.17188 0.03587,10e-4 0.462692,0.65283 0.94849,1.44805 2.454554,4.01793 2.98479,5.85059 1.9965,6.90054 -0.423046,0.44944 -0.488775,0.47438 -1.249908,0.47438 -0.742513,0 -0.83222,-0.0314 -1.18401,-0.41475 -0.209346,-0.22811 -0.380629,-0.49958 -0.380629,-0.60325 0,-0.31371 -0.188098,-0.21284 -0.434799,0.23317 -0.431349,0.77983 -1.509957,1.08605 -2.318426,0.65823 z"
       id="path2744" />
    <path
       style="fill:#e10a16;stroke-width:1"
       d="m 66.224439,504.24394 c -1.365135,-0.83507 -1.03065,-2.60308 1.203735,-6.36269 0.269833,-0.45402 0.672935,-1.13402 0.895782,-1.51111 0.222849,-0.37709 0.461349,-0.68434 0.530003,-0.68278 0.162924,0.004 1.362478,1.91398 2.22488,3.54308 0.835841,1.57892 1.238083,2.70851 1.235554,3.46972 -0.0024,0.72748 -0.208093,1.12731 -0.769315,1.49553 -0.856168,0.56174 -1.974728,0.24986 -2.472121,-0.68929 l -0.25509,-0.48165 -0.08753,0.33534 c -0.243255,0.93191 -1.628568,1.42052 -2.505898,0.88385 z"
       id="path2742" />
  </g>
  <g
     inkscape:groupmode="layer"
     id="layer6"
     inkscape:label="OuterSuit"
     style="display:inline"
     transform="translate(94.217781,-340.71922)">
    <path
       style="display:inline;fill:#e10a16;stroke-width:1"
       d="m 55.671345,468.7777 c -1.741647,-2.68486 -3.237861,-5.3838 -3.79048,-6.83745 -0.479355,-1.26093 -0.526139,-2.95035 -0.09733,-3.5145 1.156375,-1.52132 3.242566,-1.34699 4.006675,0.33481 l 0.261338,0.57521 0.2229,-0.51099 c 0.865475,-1.98406 3.578776,-1.869 4.283979,0.18167 0.206875,0.60158 0.187371,0.96704 -0.112538,2.10872 -0.413084,1.57251 -1.793988,4.17943 -4.058893,7.66253 l -0.35826,0.55095 z"
       id="path2762"
       transform="translate(-1.0416666e-6,-1.1083333e-5)" />
    <path
       style="display:inline;fill:#e10a16;stroke-width:1"
       d="m 100.10067,503.37762 c -0.869624,-0.31815 -1.453509,-1.22402 -1.453509,-2.25508 0,-1.73776 0.960909,-3.79308 4.328959,-9.25936 l 0.22586,-0.36656 0.19486,0.30306 c 3.86108,6.00494 4.96225,8.80751 4.12346,10.49448 -0.39024,0.78486 -1.06723,1.17509 -2.0386,1.17509 -0.97311,0 -1.56224,-0.36749 -1.98765,-1.23988 l -0.30549,-0.62646 -0.33735,0.64729 c -0.44641,0.85655 -1.01774,1.22216 -1.88934,1.20903 -0.36605,-0.006 -0.75359,-0.0422 -0.8612,-0.0816 z"
       id="path2746"
       transform="translate(-1.0416666e-6,-1.1083333e-5)" />
  </g>
  <g
     inkscape:groupmode="layer"
     id="layer3"
     inkscape:label="CardName"
     style="display:inline"
     transform="translate(94.217781,-340.71922)">
    <path
       id="path2552"
       style="display:inline;fill:#e10a16;stroke-width:1"
       d="m 101.37922,506.51909 c -2.472662,0.002 -2.74313,0.0629 -3.129445,0.70693 -0.216171,0.36036 -0.234637,0.84276 -0.238849,6.17378 -0.0024,3.19407 0.04886,5.91788 0.114648,6.08542 0.127074,0.32361 0.480406,0.67021 0.800936,0.78496 0.107616,0.0386 1.21157,0.0741 2.45271,0.0801 1.70661,0.008 2.34312,-0.0336 2.613,-0.1695 0.74132,-0.37325 0.73936,-0.35181 0.73936,-6.74222 0,-6.3904 0.002,-6.36846 -0.73936,-6.74171 -0.26778,-0.13479 -0.91966,-0.17876 -2.613,-0.17776 z m -0.0499,1.70532 c 0.66602,-0.002 1.29534,0.0266 1.39912,0.0806 0.22954,0.11959 0.24204,0.38137 0.24204,5.00073 0,2.68105 -0.0355,4.96517 -0.0791,5.07566 -0.0658,0.16688 -0.33042,0.20102 -1.56525,0.20102 h -1.486167 v -5.14387 c 0,-2.82892 0.04385,-5.14872 0.09766,-5.15472 0.333427,-0.0389 0.873677,-0.0582 1.391687,-0.0594 z"
       transform="translate(-1.0416666e-6,-1.1083333e-5)" />
    <path
       id="path2770"
       style="display:inline;fill:#e10a16;stroke-width:1"
       d="m 57.766064,440.28695 c -1.934094,0 -2.271229,0.0301 -2.587521,0.23203 -0.733875,0.46849 -0.744106,0.56895 -0.704338,6.9386 0.03554,5.69047 0.04297,5.83673 0.309974,6.1867 0.150403,0.19714 0.414591,0.42891 0.587034,0.51521 0.466127,0.2332 4.420342,0.21815 5.003604,-0.0191 0.929325,-0.37805 0.914762,-0.28347 0.95858,-6.12882 0.02829,-3.77506 -0.0028,-5.31715 -0.110934,-5.51388 -0.117301,-0.2134 -0.115225,-0.25192 0.01063,-0.17622 0.255488,0.15373 0.01984,-1.07289 -0.286619,-1.49189 -0.141378,-0.1933 -0.414673,-0.39441 -0.607207,-0.44701 -0.192531,-0.0526 -1.350253,-0.0956 -2.573191,-0.0956 z m 0.136411,1.71049 c 0.68351,0 1.366974,0.0519 1.473959,0.15607 0.205211,0.1998 0.225234,9.77193 0.02122,10.14305 -0.120703,0.21955 -0.284409,0.24598 -1.543491,0.24598 -0.774698,0 -1.447357,-0.0381 -1.495189,-0.0847 -0.04783,-0.0466 -0.08705,-2.35016 -0.08705,-5.11855 0,-3.74556 0.0401,-5.07232 0.156578,-5.18573 0.106985,-0.10416 0.790449,-0.15607 1.473959,-0.15607 z"
       transform="translate(-1.0416666e-6,-1.1083333e-5)" />
    <path
       style="display:inline;fill:#e10a16;stroke-width:1"
       d="m 60.315561,440.92175 c 0,-0.0349 -0.02935,-0.0635 -0.06522,-0.0635 -0.03588,0 -0.06522,0.0286 -0.06522,0.0635 0,0.0349 0.02935,0.0635 0.06522,0.0635 0.03587,0 0.06522,-0.0286 0.06522,-0.0635 z"
       id="path2774"
       transform="translate(-1.0416666e-6,-1.1083333e-5)" />
    <path
       style="display:inline;fill:#e10a16;stroke-width:1"
       d="m 50.824731,447.3035 0.03372,-7.01675 0.88049,-0.0375 0.88049,-0.0376 v 7.05431 7.0543 H 51.705226 50.79102 Z"
       id="path2768"
       transform="translate(-1.0416666e-6,-1.1083333e-5)" />
    <path
       style="display:inline;fill:#e10a16;stroke-width:1"
       d="m 106.62282,513.43875 v -6.9215 h 0.9131 0.9131 v 6.9215 6.9215 h -0.9131 -0.9131 z"
       id="path2740"
       transform="translate(-1.0416666e-6,-1.1083333e-5)" />
  </g>
</svg>
