<?xml version="1.0" encoding="UTF-8" standalone="no"?>
<svg
   width="63.500004mm"
   height="88.899895mm"
   viewBox="142.0878 95.116776 63.500012 88.899887"
   version="1.1"
   id="svg10"
   sodipodi:docname="10S.svg"
   inkscape:version="1.1.1 (1:1.1+202109281949+c3084ef5ed)"
   inkscape:export-filename="/home/doug/k40/52Cards/IndividualColorCards/10S.png"
   inkscape:export-xdpi="300"
   inkscape:export-ydpi="300"
   xmlns:inkscape="http://www.inkscape.org/namespaces/inkscape"
   xmlns:sodipodi="http://sodipodi.sourceforge.net/DTD/sodipodi-0.dtd"
   xmlns="http://www.w3.org/2000/svg"
   xmlns:svg="http://www.w3.org/2000/svg">
  <defs
     id="defs14">
    <marker
       style="overflow:visible"
       id="marker2995"
       refX="0"
       refY="0"
       orient="auto"
       inkscape:stockid="Arrow1Lstart"
       inkscape:isstock="true">
      <path
         transform="matrix(0.8,0,0,0.8,10,0)"
         style="fill:#000000;fill-opacity:1;fill-rule:evenodd;stroke:#000000;stroke-width:1pt;stroke-opacity:1"
         d="M 0,0 5,-5 -12.5,0 5,5 Z"
         id="path2993" />
    </marker>
    <marker
       style="overflow:visible"
       id="marker2985"
       refX="0"
       refY="0"
       orient="auto"
       inkscape:stockid="Arrow1Lstart"
       inkscape:isstock="true">
      <path
         transform="matrix(0.8,0,0,0.8,10,0)"
         style="fill:#000000;fill-opacity:1;fill-rule:evenodd;stroke:#000000;stroke-width:1pt;stroke-opacity:1"
         d="M 0,0 5,-5 -12.5,0 5,5 Z"
         id="path2983" />
    </marker>
    <marker
       style="overflow:visible"
       id="marker2791"
       refX="0"
       refY="0"
       orient="auto"
       inkscape:stockid="Arrow1Lstart"
       inkscape:isstock="true">
      <path
         transform="matrix(0.8,0,0,0.8,10,0)"
         style="fill:#000000;fill-opacity:1;fill-rule:evenodd;stroke:#000000;stroke-width:1pt;stroke-opacity:1"
         d="M 0,0 5,-5 -12.5,0 5,5 Z"
         id="path2789" />
    </marker>
    <marker
       style="overflow:visible"
       id="marker2781"
       refX="0"
       refY="0"
       orient="auto"
       inkscape:stockid="Arrow1Lstart"
       inkscape:isstock="true">
      <path
         transform="matrix(0.8,0,0,0.8,10,0)"
         style="fill:#000000;fill-opacity:1;fill-rule:evenodd;stroke:#000000;stroke-width:1pt;stroke-opacity:1"
         d="M 0,0 5,-5 -12.5,0 5,5 Z"
         id="path2779" />
    </marker>
    <marker
       style="overflow:visible"
       id="marker2417"
       refX="0"
       refY="0"
       orient="auto"
       inkscape:stockid="Arrow1Lstart"
       inkscape:isstock="true">
      <path
         transform="matrix(0.8,0,0,0.8,10,0)"
         style="fill:#000000;fill-opacity:1;fill-rule:evenodd;stroke:#000000;stroke-width:1pt;stroke-opacity:1"
         d="M 0,0 5,-5 -12.5,0 5,5 Z"
         id="path2415" />
    </marker>
    <marker
       style="overflow:visible"
       id="marker2383"
       refX="0"
       refY="0"
       orient="auto"
       inkscape:stockid="Arrow1Lstart"
       inkscape:isstock="true">
      <path
         transform="matrix(0.8,0,0,0.8,10,0)"
         style="fill:#000000;fill-opacity:1;fill-rule:evenodd;stroke:#000000;stroke-width:1pt;stroke-opacity:1"
         d="M 0,0 5,-5 -12.5,0 5,5 Z"
         id="path2381" />
    </marker>
    <marker
       style="overflow:visible"
       id="marker2355"
       refX="0"
       refY="0"
       orient="auto"
       inkscape:stockid="Arrow1Lstart"
       inkscape:isstock="true">
      <path
         transform="matrix(0.8,0,0,0.8,10,0)"
         style="fill:#000000;fill-opacity:1;fill-rule:evenodd;stroke:#000000;stroke-width:1pt;stroke-opacity:1"
         d="M 0,0 5,-5 -12.5,0 5,5 Z"
         id="path2353" />
    </marker>
    <marker
       style="overflow:visible"
       id="Arrow1Lstart"
       refX="0"
       refY="0"
       orient="auto"
       inkscape:stockid="Arrow1Lstart"
       inkscape:isstock="true">
      <path
         transform="matrix(0.8,0,0,0.8,10,0)"
         style="fill:#000000;fill-opacity:1;fill-rule:evenodd;stroke:#000000;stroke-width:1pt;stroke-opacity:1"
         d="M 0,0 5,-5 -12.5,0 5,5 Z"
         id="path2071" />
    </marker>
  </defs>
  <sodipodi:namedview
     id="namedview12"
     pagecolor="#ffffff"
     bordercolor="#666666"
     borderopacity="1.0"
     inkscape:pageshadow="2"
     inkscape:pageopacity="0.0"
     inkscape:pagecheckerboard="0"
     inkscape:document-units="mm"
     showgrid="false"
     showborder="false"
     fit-margin-top="0"
     fit-margin-left="0"
     fit-margin-right="0"
     fit-margin-bottom="0"
     inkscape:zoom="1.4874999"
     inkscape:cx="120.00001"
     inkscape:cy="167.7311"
     inkscape:window-width="1366"
     inkscape:window-height="712"
     inkscape:window-x="0"
     inkscape:window-y="0"
     inkscape:window-maximized="1"
     inkscape:current-layer="layer1" />
  <g
     inkscape:groupmode="layer"
     id="layer1"
     inkscape:label="CardOutline"
     style="display:inline"
     transform="translate(94.217781,-340.71922)">
    <path
       id="path4-3"
       style="display:inline;fill:none;fill-rule:evenodd;stroke:#000000;stroke-width:0.25;stroke-miterlimit:4;stroke-dasharray:none;stroke-opacity:1"
       d="m 50.564743,435.96104 -0.534158,0.31687 c -0.688621,0.40844 -1.158412,0.85449 -1.590112,1.51001 l -0.346181,0.5258 -0.06384,25.43159 c -0.03506,13.98732 -0.046,32.74824 -0.02422,41.69094 0.03916,16.06607 0.04297,16.26663 0.30127,16.87005 h 2.54e-4 c 0.321831,0.75178 1.375871,1.69211 2.308962,2.06009 0.662802,0.26139 0.718825,0.26193 29.335815,0.23047 27.968057,-0.0307 28.683467,-0.0377 29.150357,-0.27706 0.72044,-0.36932 1.35524,-0.98173 1.76901,-1.70664 l 0.37116,-0.65029 9.8e-4,-41.53137 9.8e-4,-41.53137 -0.30833,-0.61121 c -0.3634,-0.72062 -1.20695,-1.59056 -1.92217,-1.98245 l -0.50968,-0.27931 -28.969947,-0.0331 z m 0.134234,0.49272 57.679013,0.0666 0.38933,0.21242 0.11632,0.0681 0.12061,0.0774 0.13902,0.0985 0.11304,0.0864 0.12364,0.1017 0.13751,0.12124 0.11153,0.10621 0.13145,0.13177 0.10774,0.11773 0.12692,0.13477 0.0918,0.11748 0.10345,0.13201 0.0951,0.13352 0.0785,0.11974 0.0739,0.12124 0.0603,0.11222 0.25661,0.50651 -0.003,82.81198 -0.30631,0.53682 -0.13726,0.22444 -0.18268,0.24876 -0.16754,0.20014 -0.19757,0.20466 -0.19327,0.17285 -0.23542,0.18336 -0.22481,0.1503 -0.2233,0.12574 -0.0212,0.0108 -0.0149,0.006 -0.0394,0.012 -0.027,0.006 -0.0507,0.01 -0.0277,0.004 -0.0606,0.008 -0.0573,0.008 -0.0679,0.006 -0.083,0.0105 -0.0868,0.004 -0.0913,0.006 -0.10698,0.007 -0.25056,0.012 -0.3048,0.0108 -0.3545,0.0105 -0.41809,0.009 -0.47538,0.009 -0.54929,0.008 -0.96108,0.0105 -1.14073,0.0108 -3.46459,0.0165 -34.84847,0.0471 -6.84314,-0.003 -1.74276,-0.004 -1.260078,-0.006 -1.065289,-0.008 -0.60506,-0.006 -0.534158,-0.008 -0.467798,-0.009 -0.401438,-0.009 -0.339623,-0.009 -0.289659,-0.012 -0.126666,-0.006 -0.11632,-0.006 -0.106979,-0.006 -0.08302,-0.006 -0.08302,-0.008 -0.07998,-0.006 -0.0545,-0.007 -0.10093,-0.0135 -0.09967,-0.0183 -0.03911,-0.009 -0.04844,-0.0138 -0.0376,-0.0135 -0.04692,-0.0183 -0.167539,-0.0726 -0.143315,-0.0699 -0.177886,-0.0985 -0.140542,-0.0864 -0.159971,-0.10773 -0.155176,-0.11372 -0.152651,-0.12124 -0.161231,-0.13803 -0.123887,-0.11372 -0.144835,-0.14729 -0.11026,-0.11974 -0.119098,-0.14253 -0.08604,-0.11374 -0.09361,-0.13951 -0.06485,-0.11098 -0.05601,-0.11974 -0.027,-0.0669 -0.03481,-0.10621 -0.0061,-0.027 -0.01211,-0.0669 -0.01338,-0.0939 -0.01514,-0.12124 -0.0044,-0.0531 -0.01362,-0.15632 -0.0099,-0.16206 -0.01133,-0.21243 -0.01059,-0.23947 -0.0088,-0.27305 -0.0091,-0.31236 -0.0076,-0.3532 -0.01059,-0.61573 -0.0091,-0.72319 -0.0106,-1.15404 -0.0106,-1.77404 -0.01641,-4.27149 -0.01968,-8.14897 -0.0061,-8.546 0.0015,-6.72963 0.0044,-7.16476 0.0091,-7.2692 0.01943,-9.71082 0.0651,-25.28355 0.257868,-0.39253 0.152402,-0.21993 0.166025,-0.21393 0.147862,-0.16834 0.169052,-0.17133 0.185708,-0.16508 0.168798,-0.13202 0.229612,-0.16082 0.227845,-0.14253 z"
       inkscape:export-filename="/home/doug/k40/52Cards/IndividualColorCards/2D.png"
       inkscape:export-xdpi="300"
       inkscape:export-ydpi="300" />
  </g>
  <g
     inkscape:groupmode="layer"
     id="layer2"
     inkscape:label="InnerRectangle"
     style="display:inline"
     transform="translate(94.217781,-340.71922)">
    <path
       id="path2-6"
       style="display:inline;fill:none;fill-rule:evenodd;stroke:#4c71a5;stroke-width:0.262609;stroke-opacity:1"
       d="m 63.13524,452.67467 0.0441,14.05596 c 0.0243,7.7307 0.0504,20.15551 0.0578,27.61093 l 0.0134,13.55547 16.409043,-0.0521 16.40903,-0.0519 0.0305,-24.32539 c 0.0169,-13.37898 -0.004,-25.78048 -0.0462,-27.55907 l -0.077,-3.23394 h -16.42035 z m 16.503153,0.25626 h 16.11155 l 0.005,0.73622 c 0.003,0.40503 0.0367,12.68075 0.0757,27.27927 l 0.0709,26.54279 -3.16634,0.004 c -1.74158,0.002 -8.99902,0.0153 -16.12745,0.0285 -7.12842,0.0133 -12.991523,-0.007 -13.029223,-0.0446 -0.0728,-0.0731 -0.16665,-54.20072 -0.0944,-54.4185 0.028,-0.0844 5.532343,-0.128 16.154193,-0.128 z"
       inkscape:export-filename="/home/doug/k40/52Cards/IndividualColorCards/2D.png"
       inkscape:export-xdpi="300"
       inkscape:export-ydpi="300" />
  </g>
  <g
     inkscape:groupmode="layer"
     id="layer5"
     inkscape:label="InnerSuit"
     style="display:inline"
     transform="translate(94.217781,-340.71922)">
    <path
       style="display:inline;fill:#1f140b;stroke-width:1"
       d="m 89.689712,465.88653 c 0.301133,-0.57852 0.562431,-1.36526 0.670084,-2.01756 0.05476,-0.33179 0.08379,-0.60325 0.06451,-0.60325 -0.01928,0 -0.20367,0.16725 -0.409761,0.37166 -0.493407,0.48939 -1.158433,0.61056 -1.859244,0.33875 -1.031894,-0.40022 -1.352061,-1.36575 -0.867261,-2.61541 0.149039,-0.38417 0.643298,-1.21285 1.098352,-1.8415 0.455055,-0.62865 1.124091,-1.57162 1.486747,-2.0955 0.868968,-1.25527 0.830637,-1.22575 1.049731,-0.80834 0.105038,0.20011 0.79519,1.20458 1.533672,2.23215 0.738481,1.02757 1.435302,2.13789 1.548492,2.46737 0.451753,1.31503 0.105922,2.36306 -0.887245,2.68874 -0.669576,0.21957 -1.245323,0.0986 -1.790651,-0.37634 -0.426823,-0.3717 -0.445411,-0.37618 -0.445411,-0.10732 0,0.46712 0.386985,1.8143 0.649556,2.26125 0.135708,0.23101 0.246793,0.43103 0.246854,0.4445 6.3e-5,0.0135 -0.512402,0.0245 -1.13881,0.0245 h -1.138923 z"
       id="path2780"
       transform="translate(-1.0416666e-6,-1.1083333e-5)" />
    <path
       style="display:inline;fill:#1f140b;stroke-width:1"
       d="m 68.634349,466.21334 c -1.021643,-0.0357 -1.180871,-0.0947 -0.945144,-0.35047 0.279327,-0.30305 0.890667,-2.59715 0.692097,-2.59715 -0.03012,0 -0.21971,0.16362 -0.421331,0.3636 -0.437571,0.43401 -1.015791,0.57319 -1.647725,0.39661 -1.627949,-0.4549 -1.637911,-2.10452 -0.02654,-4.39449 1.584135,-2.25126 2.333735,-3.28722 2.378573,-3.28722 0.02516,0 0.336338,0.42863 0.691491,0.9525 0.355153,0.52388 1.000192,1.43828 1.433421,2.032 0.433229,0.59373 0.924522,1.36525 1.091761,1.7145 0.51724,1.08016 0.35906,2.29372 -0.359102,2.75505 -0.758035,0.48695 -1.687169,0.40964 -2.277754,-0.18951 l -0.385672,-0.39126 0.0015,0.30986 c 0.0023,0.47073 0.309767,1.51431 0.628098,2.13192 0.156499,0.30363 0.266121,0.5608 0.243601,0.5715 -0.02251,0.0107 -0.5163,0.003 -1.097292,-0.0174 z"
       id="path2778"
       transform="translate(-1.0416666e-6,-1.1083333e-5)" />
    <path
       style="display:inline;fill:#1f140b;stroke-width:1"
       d="m 78.589352,472.58427 c 1.28e-4,-0.009 0.13684,-0.32309 0.303724,-0.6985 0.268591,-0.60419 0.592871,-1.78787 0.592871,-2.16408 0,-0.0745 -0.230642,0.0711 -0.512538,0.32375 -0.430567,0.38583 -0.605648,0.45928 -1.09472,0.45928 -1.847093,0 -2.375275,-1.79176 -1.101304,-3.73597 0.186877,-0.28519 0.840702,-1.20433 1.452945,-2.04253 0.612242,-0.8382 1.192359,-1.63341 1.289149,-1.76714 0.166357,-0.22984 0.196996,-0.21248 0.560202,0.3175 0.211322,0.30835 0.850344,1.20149 1.420051,1.98476 1.129488,1.55288 1.672907,2.55585 1.705565,3.14788 0.05086,0.92198 -0.0088,1.11208 -0.503223,1.60244 -0.435923,0.43238 -0.570914,0.49306 -1.096779,0.49306 -0.699271,0 -1.04889,-0.1487 -1.446488,-0.61521 -0.263698,-0.30941 -0.287513,-0.31587 -0.288096,-0.0782 -0.001,0.41788 0.361251,1.67631 0.636801,2.21204 l 0.254529,0.49485 -1.086495,0.041 c -0.597571,0.0226 -1.08636,0.0338 -1.086194,0.0251 z"
       id="path2768"
       transform="translate(-1.0416666e-6,-1.1083333e-5)" />
    <path
       style="display:inline;fill:#1f140b;stroke-width:1"
       d="m 89.47328,478.79873 c -1.1e-5,-0.0135 0.112292,-0.21349 0.249563,-0.4445 0.258787,-0.4355 0.646714,-1.74613 0.646714,-2.18495 0,-0.2302 -0.02928,-0.22337 -0.352117,0.0821 -0.464924,0.43992 -1.010165,0.63318 -1.494731,0.52979 -1.09828,-0.23433 -1.545367,-0.8209 -1.454457,-1.90822 0.07291,-0.87204 0.444792,-1.56046 1.858593,-3.4406 0.638624,-0.84927 1.265722,-1.71974 1.393552,-1.93438 0.127828,-0.21464 0.263208,-0.38981 0.300842,-0.38927 0.03763,5.1e-4 0.193573,0.21485 0.346533,0.47625 0.152961,0.2614 0.826976,1.20693 1.497814,2.10119 1.60374,2.13785 1.978368,3.10644 1.570854,4.06141 -0.237591,0.55677 -0.60502,0.85412 -1.226582,0.99264 -0.630856,0.14059 -1.306031,-0.0936 -1.69922,-0.58939 -0.141959,-0.179 -0.282639,-0.30112 -0.312625,-0.27138 -0.120183,0.11921 0.349969,1.9212 0.631697,2.42117 l 0.300847,0.53389 -1.128628,-0.006 c -0.620745,-0.003 -1.128637,-0.0166 -1.128649,-0.0301 z"
       id="path2760"
       transform="translate(-1.0416666e-6,-1.1083333e-5)" />
    <path
       style="display:inline;fill:#1f140b;stroke-width:1"
       d="m 67.872917,478.11692 c 0.2128,-0.41946 0.389165,-1.01433 0.433179,-1.46111 l 0.07425,-0.75359 -0.386874,0.35943 c -1.009878,0.93823 -2.563393,0.51658 -2.856011,-0.77517 -0.202595,-0.89434 0.222008,-1.94305 1.436249,-3.54732 0.570698,-0.75402 1.262756,-1.69955 1.537907,-2.10119 0.27515,-0.40164 0.518777,-0.73025 0.541395,-0.73025 0.02261,0 0.254187,0.31829 0.514601,0.70731 0.260413,0.38902 0.910976,1.28913 1.445694,2.00025 1.187322,1.57901 1.571305,2.35488 1.572979,3.17835 0.0023,1.12326 -0.628912,1.73409 -1.791893,1.73409 -0.58586,0 -0.717237,-0.0515 -1.100616,-0.4318 l -0.435344,-0.4318 0.0015,0.33655 c 0.0022,0.48187 0.300014,1.5221 0.605437,2.11455 l 0.261885,0.508 -1.106644,6.4e-4 -1.106643,6.3e-4 0.35894,-0.70752 z"
       id="path2758"
       transform="translate(-1.0416666e-6,-1.1083333e-5)" />
    <path
       style="display:inline;fill:#1f140b;stroke-width:1"
       d="m 68.237482,491.0191 c -0.144161,-0.24235 -0.67088,-0.98242 -1.170488,-1.64461 -1.24894,-1.65536 -1.755256,-2.52451 -1.93518,-3.32196 -0.289323,-1.28229 0.428502,-2.3382 1.590315,-2.33933 0.590454,-6.4e-4 0.953361,0.16649 1.335392,0.61474 l 0.287461,0.33728 6.4e-4,-0.3897 c 7.68e-4,-0.47396 -0.327377,-1.605 -0.645296,-2.22415 l -0.233557,-0.45485 0.58507,0.0881 c 0.321788,0.0484 0.837085,0.0599 1.145103,0.0255 l 0.560033,-0.0626 -0.38924,0.82501 c -0.214082,0.45376 -0.425294,1.13276 -0.469363,1.50889 l -0.08012,0.68388 0.384718,-0.40547 c 0.440342,-0.46411 0.88191,-0.60956 1.532573,-0.50483 0.932079,0.15002 1.451993,0.80947 1.451993,1.84166 0,0.69575 -0.678208,1.95688 -1.992005,3.70414 -0.603998,0.80328 -1.193167,1.61767 -1.309266,1.80975 -0.116099,0.19209 -0.250594,0.34925 -0.298877,0.34925 -0.04828,0 -0.205738,-0.19828 -0.349897,-0.44062 z"
       id="path2756"
       transform="translate(-1.0416666e-6,-1.1083333e-5)" />
    <path
       style="display:inline;fill:#1f140b;stroke-width:1"
       d="m 90.312696,491.18263 c -0.136909,-0.23177 -0.759123,-1.10585 -1.382697,-1.9424 -1.824904,-2.44816 -2.246678,-3.58513 -1.711064,-4.61246 0.332642,-0.63802 0.909469,-0.9402 1.670191,-0.87497 0.533641,0.0458 0.701389,0.12903 1.075347,0.53377 l 0.443077,0.47954 -0.09163,-0.68544 c -0.0504,-0.377 -0.251538,-1.063 -0.446982,-1.52445 l -0.355354,-0.839 1.0682,-0.005 c 0.970911,-0.004 1.270046,0.0836 0.950134,0.27975 -0.154946,0.095 -0.609193,1.50226 -0.719366,2.22862 l -0.08668,0.5715 0.430239,-0.4883 c 0.352154,-0.39967 0.5373,-0.50026 1.020122,-0.55423 0.851903,-0.0952 1.435866,0.21347 1.794752,0.94879 0.256394,0.52533 0.269677,0.64718 0.13828,1.26852 -0.169294,0.80054 -0.530864,1.41329 -2.125031,3.60125 -0.641588,0.88056 -1.224143,1.69884 -1.294566,1.8184 -0.112274,0.19061 -0.158698,0.16549 -0.376967,-0.20402 z"
       id="path2754"
       transform="translate(-1.0416666e-6,-1.1083333e-5)" />
    <path
       style="display:inline;fill:#1f140b;stroke-width:1"
       d="m 78.740403,496.75758 c -0.445261,-0.6437 -1.120466,-1.59898 -1.500453,-2.12286 -1.52325,-2.10005 -1.616113,-3.73207 -0.246545,-4.33296 0.776792,-0.34082 1.439165,-0.23737 1.991575,0.31104 l 0.405367,0.40242 -0.08628,-0.6985 c -0.04746,-0.38417 -0.248901,-1.04616 -0.447656,-1.47108 l -0.361371,-0.77258 h 1.118759 1.118759 l -0.228384,0.39158 c -0.297083,0.50937 -0.634866,1.66567 -0.631247,2.16088 l 0.0028,0.3897 0.221228,-0.28077 c 0.721475,-0.91568 2.486975,-0.74329 2.920205,0.28513 0.451133,1.07092 0.02778,2.17554 -1.750565,4.56764 -0.571212,0.76835 -1.162331,1.61087 -1.313597,1.87227 -0.151266,0.2614 -0.303839,0.47374 -0.339051,0.47186 -0.03522,-0.002 -0.428326,-0.53007 -0.873587,-1.17377 z"
       id="path2752"
       transform="translate(-1.0416666e-6,-1.1083333e-5)" />
    <path
       style="display:inline;fill:#1f140b;stroke-width:1"
       d="m 68.022822,503.55647 c -0.268253,-0.40163 -0.879196,-1.24982 -1.357653,-1.88484 -1.520656,-2.01828 -1.929902,-3.20044 -1.463264,-4.22684 0.275992,-0.60705 0.780171,-0.90507 1.531194,-0.90507 0.499138,0 0.668019,0.0716 1.116676,0.47367 l 0.528598,0.47367 -0.09286,-0.69592 c -0.05107,-0.38275 -0.251487,-1.07488 -0.445374,-1.53805 l -0.35252,-0.84213 1.109304,0.0119 1.109304,0.0119 -0.300002,0.53239 c -0.244395,0.43371 -0.664267,1.91784 -0.673628,2.38108 -0.0013,0.0605 0.228419,-0.0967 0.510315,-0.34925 0.432155,-0.38725 0.60477,-0.45928 1.100616,-0.45928 0.770769,0 1.274531,0.31043 1.606042,0.98966 0.489064,1.00204 0.133417,1.89942 -1.788887,4.51379 -0.710521,0.96632 -1.32689,1.86643 -1.369711,2.00025 -0.120698,0.37719 -0.242629,0.2999 -0.768157,-0.48695 z"
       id="path2748"
       transform="translate(-1.0416666e-6,-1.1083333e-5)" />
    <path
       style="display:inline;fill:#1f140b;stroke-width:1"
       d="m 90.317214,504.00963 c -0.134425,-0.23177 -0.745153,-1.10721 -1.357174,-1.94541 -1.318568,-1.80586 -1.720893,-2.4799 -1.914058,-3.20675 -0.199173,-0.74945 0.0035,-1.42579 0.576903,-1.92515 0.374325,-0.32598 0.558631,-0.3926 1.086207,-0.3926 0.553763,0 0.703293,0.0609 1.163987,0.47367 l 0.528598,0.47367 -0.09504,-0.69592 c -0.05227,-0.38275 -0.261167,-1.06101 -0.464208,-1.50723 -0.203041,-0.44623 -0.369166,-0.82056 -0.369166,-0.83185 0,-0.0113 0.489763,-0.0205 1.088361,-0.0205 0.598599,0 1.088361,0.0194 1.088361,0.0432 0,0.0237 -0.119525,0.27554 -0.265612,0.55957 -0.21973,0.4272 -0.620125,1.90146 -0.628462,2.314 -0.0013,0.0605 0.22842,-0.0967 0.510316,-0.34925 0.430567,-0.38582 0.605648,-0.45928 1.094719,-0.45928 0.3202,0 0.756706,0.0895 0.970012,0.19893 0.403429,0.20692 0.871944,1.03093 0.877065,1.54256 0.006,0.60091 -0.573459,1.75259 -1.5692,3.11873 -0.993287,1.36276 -1.672278,2.34284 -1.949156,2.81346 -0.112256,0.19081 -0.158176,0.16568 -0.37245,-0.20377 z"
       id="path2746"
       transform="translate(-1.0416666e-6,-1.1083333e-5)" />
  </g>
  <g
     inkscape:groupmode="layer"
     id="layer6"
     inkscape:label="OuterSuit"
     style="display:inline"
     transform="translate(94.217781,-340.71922)">
    <path
       style="display:inline;fill:#1f140b;stroke-width:1"
       d="m 54.860044,470.31058 c 0.439308,-0.91753 0.80422,-2.32232 0.807303,-3.10786 l 0.0017,-0.4445 -0.237274,0.381 c -0.316266,0.50784 -0.635118,0.77589 -1.20282,1.01116 -0.553517,0.22939 -0.880245,0.24227 -1.539436,0.0607 -0.666833,-0.18367 -1.314377,-0.78423 -1.574768,-1.4605 -0.510653,-1.32624 0.06032,-2.83793 2.081066,-5.50975 0.598049,-0.79074 1.46572,-1.98737 1.928156,-2.65916 0.462436,-0.6718 0.863131,-1.20864 0.890434,-1.19299 0.0273,0.0157 0.348696,0.47286 0.714205,1.016 0.365509,0.54315 1.219709,1.73964 1.89822,2.65887 1.460204,1.97825 2.074417,3.03836 2.290257,3.95292 0.406741,1.72343 -0.539924,3.10802 -2.256189,3.29989 -0.737231,0.0824 -1.620059,-0.34858 -2.05776,-1.00461 -0.181719,-0.27235 -0.351078,-0.47468 -0.376357,-0.4496 -0.157759,0.15647 0.412269,2.42562 0.833079,3.31629 l 0.484169,1.02478 h -1.555711 -1.555712 l 0.427395,-0.89264 z"
       id="path2770"
       transform="translate(-1.0416666e-6,-1.1083333e-5)" />
    <path
       style="display:inline;fill:#1f140b;stroke-width:1"
       d="m 102.52345,502.22297 c -0.37126,-0.57626 -1.08662,-1.59067 -1.5897,-2.25425 -2.067617,-2.72727 -2.64783,-3.83815 -2.659742,-5.09239 -0.0081,-0.84812 0.387408,-1.76305 0.926664,-2.14391 0.523468,-0.36971 1.534078,-0.55647 2.136798,-0.39487 0.67016,0.17967 1.02434,0.44898 1.31955,1.00335 l 0.24938,0.46832 0.006,-0.51943 c 0.008,-0.73076 -0.439,-2.39962 -0.86428,-3.22707 l -0.35901,-0.6985 h 1.5747 c 0.86608,0 1.55775,0.0286 1.53703,0.0635 -0.67627,1.14022 -1.23586,2.91713 -1.23986,3.937 l -0.002,0.4445 0.24116,-0.39226 c 0.67742,-1.10185 2.05354,-1.45731 3.27138,-0.84502 0.48888,0.2458 0.78245,0.6022 1.04615,1.27009 0.52063,1.31864 -0.12153,2.91602 -2.37116,5.89827 -0.77462,1.02689 -1.64671,2.24132 -1.93797,2.69875 -0.29126,0.45742 -0.54766,0.83167 -0.56978,0.83167 -0.0221,0 -0.34397,-0.47148 -0.71522,-1.04775 z"
       id="path2750"
       transform="translate(-1.0416666e-6,-1.1083333e-5)" />
  </g>
  <g
     inkscape:groupmode="layer"
     id="layer3"
     inkscape:label="CardName"
     style="display:inline"
     transform="translate(94.217781,-340.71922)">
    <path
       id="path2552"
       style="display:inline;fill:#1f140b;stroke-width:1"
       d="m 101.44506,506.44649 c -1.929989,0 -2.22262,0.0283 -2.584343,0.24701 -0.761635,0.46063 -0.744659,0.30592 -0.744659,6.67918 0,5.44727 0.01585,5.87203 0.233579,6.20169 0.128553,0.19463 0.416708,0.43266 0.640271,0.52916 v -5.3e-4 c 0.58084,0.25078 4.282072,0.2546 4.883942,0.005 0.89115,-0.36932 0.887,-0.341 0.894,-6.80423 0.007,-6.30011 0.0238,-6.14973 -0.73794,-6.61045 -0.36172,-0.21873 -0.65487,-0.24702 -2.58485,-0.24702 z m 0.28163,1.76888 c 0.63265,-0.004 1.19292,0.0271 1.19993,0.10335 0.0118,0.12798 0.0117,1.12934 5.3e-4,6.03271 l -0.009,4.15944 h -1.46502 c -0.88721,0 -1.49779,-0.0528 -1.54823,-0.13385 -0.08895,-0.14275 -0.0488,-9.72742 0.04186,-9.99473 0.03356,-0.099 0.96685,-0.16187 1.78025,-0.16692 z"
       transform="translate(-1.0416666e-6,-1.1083333e-5)" />
    <path
       id="path2800"
       style="display:inline;fill:#1f140b;stroke-width:1"
       d="m 55.388435,440.27895 -0.422196,0.41806 c -0.377126,0.37406 -0.430836,0.51917 -0.508497,1.36529 -0.04779,0.5207 -0.06832,3.20439 -0.04547,5.96346 0.04514,5.4552 0.03666,5.39171 0.785998,5.85288 v -5.3e-4 c 0.373761,0.23005 0.603586,0.24809 2.742467,0.21549 l 2.334741,-0.0351 0.418063,-0.41548 0.418579,-0.41496 0.03927,-5.74436 c 0.02742,-3.96161 -0.0044,-5.89438 -0.102836,-6.22701 -0.2599,-0.878 -0.59523,-0.97716 -3.310392,-0.97771 z m 2.528012,1.65416 c 0.501073,3.5e-4 0.983983,0.0248 1.18029,0.077 l 0.289385,0.077 -0.03359,5.08186 c -0.03889,5.90853 0.185232,5.27458 -1.825729,5.17488 l -1.280541,-0.0636 v -5.06067 c 0,-4.61446 0.01884,-5.07095 0.21549,-5.17539 0.135761,-0.0721 0.810454,-0.11157 1.454693,-0.11111 z"
       transform="translate(-1.0416666e-6,-1.1083333e-5)" />
    <path
       style="display:inline;fill:#1f140b;stroke-width:1"
       d="m 50.829737,448.75597 c 0.02129,-2.95116 0.05651,-6.06584 0.07826,-6.9215 l 0.03954,-1.55575 h 0.824747 0.824748 v 6.9215 6.9215 H 51.694026 50.79102 Z"
       id="path2798"
       transform="translate(-1.0416666e-6,-1.1083333e-5)" />
    <path
       style="display:inline;fill:#1f140b;stroke-width:1"
       d="m 106.6185,520.07228 c -0.007,-0.12543 -0.0114,-0.79956 -0.0101,-1.49806 10e-4,-0.6985 0.007,-3.71316 0.0125,-6.69925 l 0.0101,-5.42925 h 0.90903 0.90904 l -0.0828,6.88975 -0.0828,6.88975 -0.82623,0.0376 c -0.71991,0.0327 -0.82783,0.008 -0.83868,-0.1905 z"
       id="path2740"
       transform="translate(-1.0416666e-6,-1.1083333e-5)" />
  </g>
</svg>
