<?xml version="1.0" encoding="UTF-8" standalone="no"?>
<svg
   width="63.500004mm"
   height="88.899895mm"
   viewBox="142.0878 95.116776 63.500012 88.899887"
   version="1.1"
   id="svg10"
   sodipodi:docname="2C.svg"
   inkscape:version="1.1.1 (1:1.1+202109281949+c3084ef5ed)"
   inkscape:export-filename="/home/doug/k40/52Cards/IndividualColorCards/2C.png"
   inkscape:export-xdpi="300"
   inkscape:export-ydpi="300"
   xmlns:inkscape="http://www.inkscape.org/namespaces/inkscape"
   xmlns:sodipodi="http://sodipodi.sourceforge.net/DTD/sodipodi-0.dtd"
   xmlns="http://www.w3.org/2000/svg"
   xmlns:svg="http://www.w3.org/2000/svg">
  <defs
     id="defs14">
    <marker
       style="overflow:visible"
       id="marker2995"
       refX="0"
       refY="0"
       orient="auto"
       inkscape:stockid="Arrow1Lstart"
       inkscape:isstock="true">
      <path
         transform="matrix(0.8,0,0,0.8,10,0)"
         style="fill:#000000;fill-opacity:1;fill-rule:evenodd;stroke:#000000;stroke-width:1pt;stroke-opacity:1"
         d="M 0,0 5,-5 -12.5,0 5,5 Z"
         id="path2993" />
    </marker>
    <marker
       style="overflow:visible"
       id="marker2985"
       refX="0"
       refY="0"
       orient="auto"
       inkscape:stockid="Arrow1Lstart"
       inkscape:isstock="true">
      <path
         transform="matrix(0.8,0,0,0.8,10,0)"
         style="fill:#000000;fill-opacity:1;fill-rule:evenodd;stroke:#000000;stroke-width:1pt;stroke-opacity:1"
         d="M 0,0 5,-5 -12.5,0 5,5 Z"
         id="path2983" />
    </marker>
    <marker
       style="overflow:visible"
       id="marker2791"
       refX="0"
       refY="0"
       orient="auto"
       inkscape:stockid="Arrow1Lstart"
       inkscape:isstock="true">
      <path
         transform="matrix(0.8,0,0,0.8,10,0)"
         style="fill:#000000;fill-opacity:1;fill-rule:evenodd;stroke:#000000;stroke-width:1pt;stroke-opacity:1"
         d="M 0,0 5,-5 -12.5,0 5,5 Z"
         id="path2789" />
    </marker>
    <marker
       style="overflow:visible"
       id="marker2781"
       refX="0"
       refY="0"
       orient="auto"
       inkscape:stockid="Arrow1Lstart"
       inkscape:isstock="true">
      <path
         transform="matrix(0.8,0,0,0.8,10,0)"
         style="fill:#000000;fill-opacity:1;fill-rule:evenodd;stroke:#000000;stroke-width:1pt;stroke-opacity:1"
         d="M 0,0 5,-5 -12.5,0 5,5 Z"
         id="path2779" />
    </marker>
    <marker
       style="overflow:visible"
       id="marker2417"
       refX="0"
       refY="0"
       orient="auto"
       inkscape:stockid="Arrow1Lstart"
       inkscape:isstock="true">
      <path
         transform="matrix(0.8,0,0,0.8,10,0)"
         style="fill:#000000;fill-opacity:1;fill-rule:evenodd;stroke:#000000;stroke-width:1pt;stroke-opacity:1"
         d="M 0,0 5,-5 -12.5,0 5,5 Z"
         id="path2415" />
    </marker>
    <marker
       style="overflow:visible"
       id="marker2383"
       refX="0"
       refY="0"
       orient="auto"
       inkscape:stockid="Arrow1Lstart"
       inkscape:isstock="true">
      <path
         transform="matrix(0.8,0,0,0.8,10,0)"
         style="fill:#000000;fill-opacity:1;fill-rule:evenodd;stroke:#000000;stroke-width:1pt;stroke-opacity:1"
         d="M 0,0 5,-5 -12.5,0 5,5 Z"
         id="path2381" />
    </marker>
    <marker
       style="overflow:visible"
       id="marker2355"
       refX="0"
       refY="0"
       orient="auto"
       inkscape:stockid="Arrow1Lstart"
       inkscape:isstock="true">
      <path
         transform="matrix(0.8,0,0,0.8,10,0)"
         style="fill:#000000;fill-opacity:1;fill-rule:evenodd;stroke:#000000;stroke-width:1pt;stroke-opacity:1"
         d="M 0,0 5,-5 -12.5,0 5,5 Z"
         id="path2353" />
    </marker>
    <marker
       style="overflow:visible"
       id="Arrow1Lstart"
       refX="0"
       refY="0"
       orient="auto"
       inkscape:stockid="Arrow1Lstart"
       inkscape:isstock="true">
      <path
         transform="matrix(0.8,0,0,0.8,10,0)"
         style="fill:#000000;fill-opacity:1;fill-rule:evenodd;stroke:#000000;stroke-width:1pt;stroke-opacity:1"
         d="M 0,0 5,-5 -12.5,0 5,5 Z"
         id="path2071" />
    </marker>
  </defs>
  <sodipodi:namedview
     id="namedview12"
     pagecolor="#ffffff"
     bordercolor="#666666"
     borderopacity="1.0"
     inkscape:pageshadow="2"
     inkscape:pageopacity="0.0"
     inkscape:pagecheckerboard="0"
     inkscape:document-units="mm"
     showgrid="false"
     showborder="false"
     fit-margin-top="0"
     fit-margin-left="0"
     fit-margin-right="0"
     fit-margin-bottom="0"
     inkscape:zoom="1.4874999"
     inkscape:cx="120.00001"
     inkscape:cy="167.7311"
     inkscape:window-width="1366"
     inkscape:window-height="712"
     inkscape:window-x="0"
     inkscape:window-y="0"
     inkscape:window-maximized="1"
     inkscape:current-layer="layer5" />
  <g
     inkscape:groupmode="layer"
     id="layer1"
     inkscape:label="CardOutline"
     style="display:inline"
     transform="translate(94.217781,-340.71922)">
    <path
       id="path4-3"
       style="display:inline;fill:none;fill-rule:evenodd;stroke:#000000;stroke-width:0.25;stroke-miterlimit:4;stroke-dasharray:none;stroke-opacity:1"
       d="m 50.564743,435.96104 -0.534158,0.31687 c -0.688621,0.40844 -1.158412,0.85449 -1.590112,1.51001 l -0.346181,0.5258 -0.06384,25.43159 c -0.03506,13.98732 -0.046,32.74824 -0.02422,41.69094 0.03916,16.06607 0.04297,16.26663 0.30127,16.87005 h 2.54e-4 c 0.321831,0.75178 1.375871,1.69211 2.308962,2.06009 0.662802,0.26139 0.718825,0.26193 29.335815,0.23047 27.968057,-0.0307 28.683467,-0.0377 29.150357,-0.27706 0.72044,-0.36932 1.35524,-0.98173 1.76901,-1.70664 l 0.37116,-0.65029 9.8e-4,-41.53137 9.8e-4,-41.53137 -0.30833,-0.61121 c -0.3634,-0.72062 -1.20695,-1.59056 -1.92217,-1.98245 l -0.50968,-0.27931 -28.969947,-0.0331 z m 0.134234,0.49272 57.679013,0.0666 0.38933,0.21242 0.11632,0.0681 0.12061,0.0774 0.13902,0.0985 0.11304,0.0864 0.12364,0.1017 0.13751,0.12124 0.11153,0.10621 0.13145,0.13177 0.10774,0.11773 0.12692,0.13477 0.0918,0.11748 0.10345,0.13201 0.0951,0.13352 0.0785,0.11974 0.0739,0.12124 0.0603,0.11222 0.25661,0.50651 -0.003,82.81198 -0.30631,0.53682 -0.13726,0.22444 -0.18268,0.24876 -0.16754,0.20014 -0.19757,0.20466 -0.19327,0.17285 -0.23542,0.18336 -0.22481,0.1503 -0.2233,0.12574 -0.0212,0.0108 -0.0149,0.006 -0.0394,0.012 -0.027,0.006 -0.0507,0.01 -0.0277,0.004 -0.0606,0.008 -0.0573,0.008 -0.0679,0.006 -0.083,0.0105 -0.0868,0.004 -0.0913,0.006 -0.10698,0.007 -0.25056,0.012 -0.3048,0.0108 -0.3545,0.0105 -0.41809,0.009 -0.47538,0.009 -0.54929,0.008 -0.96108,0.0105 -1.14073,0.0108 -3.46459,0.0165 -34.84847,0.0471 -6.84314,-0.003 -1.74276,-0.004 -1.260078,-0.006 -1.065289,-0.008 -0.60506,-0.006 -0.534158,-0.008 -0.467798,-0.009 -0.401438,-0.009 -0.339623,-0.009 -0.289659,-0.012 -0.126666,-0.006 -0.11632,-0.006 -0.106979,-0.006 -0.08302,-0.006 -0.08302,-0.008 -0.07998,-0.006 -0.0545,-0.007 -0.10093,-0.0135 -0.09967,-0.0183 -0.03911,-0.009 -0.04844,-0.0138 -0.0376,-0.0135 -0.04692,-0.0183 -0.167539,-0.0726 -0.143315,-0.0699 -0.177886,-0.0985 -0.140542,-0.0864 -0.159971,-0.10773 -0.155176,-0.11372 -0.152651,-0.12124 -0.161231,-0.13803 -0.123887,-0.11372 -0.144835,-0.14729 -0.11026,-0.11974 -0.119098,-0.14253 -0.08604,-0.11374 -0.09361,-0.13951 -0.06485,-0.11098 -0.05601,-0.11974 -0.027,-0.0669 -0.03481,-0.10621 -0.0061,-0.027 -0.01211,-0.0669 -0.01338,-0.0939 -0.01514,-0.12124 -0.0044,-0.0531 -0.01362,-0.15632 -0.0099,-0.16206 -0.01133,-0.21243 -0.01059,-0.23947 -0.0088,-0.27305 -0.0091,-0.31236 -0.0076,-0.3532 -0.01059,-0.61573 -0.0091,-0.72319 -0.0106,-1.15404 -0.0106,-1.77404 -0.01641,-4.27149 -0.01968,-8.14897 -0.0061,-8.546 0.0015,-6.72963 0.0044,-7.16476 0.0091,-7.2692 0.01943,-9.71082 0.0651,-25.28355 0.257868,-0.39253 0.152402,-0.21993 0.166025,-0.21393 0.147862,-0.16834 0.169052,-0.17133 0.185708,-0.16508 0.168798,-0.13202 0.229612,-0.16082 0.227845,-0.14253 z"
       inkscape:export-filename="/home/doug/k40/52Cards/IndividualColorCards/2D.png"
       inkscape:export-xdpi="300"
       inkscape:export-ydpi="300" />
  </g>
  <g
     inkscape:groupmode="layer"
     id="layer2"
     inkscape:label="InnerRectangle"
     style="display:inline"
     transform="translate(94.217781,-340.71922)">
    <path
       id="path2-6"
       style="display:inline;fill:none;fill-rule:evenodd;stroke:#4c71a5;stroke-width:0.262609;stroke-opacity:1"
       d="m 63.13524,452.67467 0.0441,14.05596 c 0.0243,7.7307 0.0504,20.15551 0.0578,27.61093 l 0.0134,13.55547 16.409043,-0.0521 16.40903,-0.0519 0.0305,-24.32539 c 0.0169,-13.37898 -0.004,-25.78048 -0.0462,-27.55907 l -0.077,-3.23394 h -16.42035 z m 16.503153,0.25626 h 16.11155 l 0.005,0.73622 c 0.003,0.40503 0.0367,12.68075 0.0757,27.27927 l 0.0709,26.54279 -3.16634,0.004 c -1.74158,0.002 -8.99902,0.0153 -16.12745,0.0285 -7.12842,0.0133 -12.991523,-0.007 -13.029223,-0.0446 -0.0728,-0.0731 -0.16665,-54.20072 -0.0944,-54.4185 0.028,-0.0844 5.532343,-0.128 16.154193,-0.128 z"
       inkscape:export-filename="/home/doug/k40/52Cards/IndividualColorCards/2D.png"
       inkscape:export-xdpi="300"
       inkscape:export-ydpi="300" />
  </g>
  <g
     inkscape:groupmode="layer"
     id="layer5"
     inkscape:label="InnerSuit"
     style="display:inline"
     transform="translate(94.217781,-340.71922)">
    <path
       style="display:inline;fill:#19110b;stroke-width:1"
       d="m 78.617894,465.03039 c 0.386974,-0.8686 0.809024,-2.34345 0.806638,-2.81878 l -0.0029,-0.5715 -0.179972,0.508 c -0.623566,1.76011 -3.201742,1.45997 -3.451458,-0.4018 -0.103893,-0.77458 0.325079,-1.51795 1.064771,-1.84515 0.563775,-0.24938 0.852741,-0.25381 1.688808,-0.0259 l 0.3175,0.0866 -0.333732,-0.36736 c -0.477276,-0.52538 -0.618768,-0.85243 -0.618768,-1.43025 0,-0.99198 0.550406,-1.71509 1.416883,-1.86148 1.760416,-0.29742 2.823523,1.80088 1.611697,3.18108 -0.429903,0.48963 -0.414024,0.50574 0.290436,0.29468 0.986034,-0.29542 2.126716,0.42843 2.322875,1.47405 0.181565,0.96782 -0.765437,2.10205 -1.755063,2.10205 -0.791817,0 -1.550427,-0.55469 -1.676309,-1.2257 -0.114106,-0.60824 -0.320543,-0.38572 -0.231113,0.24912 0.09638,0.68419 0.547241,2.11005 0.769503,2.43359 0.09465,0.13778 0.172091,0.29263 0.172091,0.34411 0,0.0515 -0.519261,0.0928 -1.153913,0.0918 -1.037422,-0.002 -1.144232,-0.0236 -1.058004,-0.21712 z"
       id="path2756"
       transform="translate(-1.0416666e-6,-1.1083333e-5)" />
    <path
       style="display:inline;fill:#19110b;stroke-width:1"
       d="m 79.018832,504.32138 c -0.621855,-0.22228 -0.857697,-0.42709 -1.066218,-0.92594 -0.322777,-0.77217 -0.145324,-1.58305 0.501166,-2.29007 0.29622,-0.32396 0.244963,-0.34238 -0.408277,-0.14666 -0.669791,0.20067 -1.410681,-0.0289 -1.903115,-0.58978 -0.33191,-0.37803 -0.392602,-0.54998 -0.392602,-1.1123 0,-0.55227 0.06492,-0.74391 0.382549,-1.12924 0.915898,-1.11115 2.438511,-0.88335 3.061102,0.45797 l 0.241253,0.51975 -0.0749,-0.74074 c -0.07749,-0.76629 -0.380678,-1.77873 -0.74181,-2.47708 l -0.207716,-0.40168 h 1.201796 1.201797 l -0.357653,0.79375 c -0.374102,0.83025 -0.647548,1.89922 -0.635101,2.48275 0.0062,0.29035 0.05275,0.2431 0.30328,-0.30781 0.254198,-0.55898 0.377844,-0.68209 0.876205,-0.87242 1.332805,-0.509 2.616924,0.42773 2.462651,1.79645 -0.08342,0.74005 -0.348523,1.10366 -1.05349,1.44493 -0.520796,0.25211 -0.66322,0.27043 -1.181147,0.15191 -0.535068,-0.12244 -0.944412,-0.0751 -0.554169,0.064 0.08918,0.0318 0.281166,0.29113 0.426637,0.57628 0.204092,0.40005 0.251289,0.67768 0.206671,1.21571 -0.05012,0.60438 -0.119389,0.75368 -0.520023,1.12084 -0.254211,0.23296 -0.572666,0.42357 -0.707679,0.42357 -0.135013,0 -0.32159,0.0262 -0.414615,0.0582 -0.09303,0.032 -0.383991,-0.0186 -0.646591,-0.11244 z"
       id="path2746"
       transform="translate(-1.0416666e-6,-1.1083333e-5)" />
  </g>
  <g
     inkscape:groupmode="layer"
     id="layer6"
     inkscape:label="OuterSuit"
     style="display:inline"
     transform="translate(94.217781,-340.71922)">
    <path
       style="display:inline;fill:#19110b;stroke-width:1"
       d="m 54.667536,468.56161 c 0.69002,-1.3688 1.291409,-4.064 0.906813,-4.064 -0.0795,0 -0.144538,0.13169 -0.144538,0.29264 0,0.16095 -0.165833,0.55412 -0.368519,0.87373 -0.277574,0.43769 -0.511823,0.63582 -0.949213,0.80286 -0.814749,0.31115 -1.824196,0.21501 -2.406606,-0.22922 -1.0363,-0.79042 -1.282377,-2.40079 -0.512258,-3.35229 0.674434,-0.83329 0.983774,-0.99168 1.927888,-0.98715 0.466514,0.002 1.048233,0.052 1.292708,0.11058 l 0.4445,0.1065 -0.417832,-0.39381 c -0.783725,-0.73866 -1.122049,-1.99507 -0.780589,-2.89882 0.192042,-0.50828 0.734142,-1.04949 1.325421,-1.32325 2.393445,-1.10812 4.498647,2.08034 2.660439,4.02941 -0.242683,0.25732 -0.414841,0.49425 -0.382573,0.52652 0.03227,0.0323 0.241564,-0.005 0.465102,-0.083 0.55059,-0.19193 1.431743,-0.1785 1.928361,0.0294 0.575878,0.24108 1.329807,1.12008 1.433138,1.67088 0.21176,1.12878 -0.29997,2.26323 -1.236393,2.74096 -0.686327,0.35014 -1.952225,0.30313 -2.485456,-0.0923 -0.420935,-0.31216 -0.917131,-1.14157 -0.920029,-1.53788 -0.0011,-0.15716 -0.0675,-0.28575 -0.147454,-0.28575 -0.395753,0 0.325608,3.13519 0.978899,4.2545 l 0.296496,0.508 H 55.94563 54.315418 Z"
       id="path2754"
       transform="translate(-1.0416666e-6,-1.1083333e-5)" />
    <path
       style="display:inline;fill:#19110b;stroke-width:1"
       d="m 102.69006,503.34447 c -0.67597,-0.20069 -1.14005,-0.61875 -1.49719,-1.34872 -0.27074,-0.55337 -0.31596,-0.78231 -0.24982,-1.26487 0.0864,-0.63023 0.61754,-1.65994 0.91516,-1.77415 0.0993,-0.0381 0.18058,-0.14217 0.18058,-0.23124 0,-0.12984 -0.0944,-0.12825 -0.47625,0.008 -1.734898,0.61913 -3.456564,-0.58206 -3.460045,-2.41405 -0.0018,-0.95954 1.02942,-2.12508 2.029765,-2.29409 1.13494,-0.19174 2.26885,0.53094 2.5639,1.63407 0.16596,0.62055 0.35928,0.784 0.35767,0.30243 -0.003,-0.95202 -0.4673,-2.6218 -1.20002,-4.31752 -0.0878,-0.20328 -0.018,-0.21536 0.83832,-0.14498 0.51379,0.0422 1.23649,0.0208 1.60602,-0.0476 0.36953,-0.0684 0.65229,-0.0889 0.62836,-0.0455 -0.42767,0.77516 -0.9135,2.01832 -1.11149,2.84416 -0.27194,1.13428 -0.33198,2.06146 -0.12523,1.93369 0.0699,-0.0432 0.127,-0.20955 0.127,-0.36972 0,-0.16017 0.12994,-0.48405 0.28877,-0.71973 1.07208,-1.59086 3.38363,-1.41232 4.17151,0.32219 0.6231,1.37175 -0.12823,2.9908 -1.56778,3.37843 -0.53425,0.14386 -1.49933,0.0672 -1.90825,-0.15168 -0.35807,-0.19161 -0.25884,0.0697 0.2188,0.57613 0.79271,0.84051 0.90817,2.16335 0.27264,3.12369 -0.54178,0.81869 -1.70697,1.26688 -2.60242,1.00104 z"
       id="path2748"
       transform="translate(-1.0416666e-6,-1.1083333e-5)" />
  </g>
  <g
     inkscape:groupmode="layer"
     id="layer3"
     inkscape:label="CardName"
     style="display:inline"
     transform="translate(94.217781,-340.71922)">
    <path
       style="display:inline;fill:#19110b;stroke-width:1"
       d="m 51.386262,452.84536 c 0.03975,-1.11712 0.104213,-1.48066 0.354704,-2.00025 0.471179,-0.97736 1.882262,-2.29117 3.87932,-3.6119 2.554142,-1.68915 2.9845,-2.14958 2.9845,-3.19305 0,-0.69661 -0.394982,-1.32056 -1.060548,-1.67534 -0.710025,-0.37848 -2.60529,-0.40853 -3.195903,-0.0507 -0.502292,0.30434 -0.925749,0.96515 -1.027919,1.60409 l -0.08209,0.51338 h -0.890031 -0.890031 l 0.07991,-0.58301 c 0.243059,-1.7733 1.559011,-3.1408 3.357072,-3.48856 2.161023,-0.41796 4.450457,0.58737 5.223149,2.29357 0.537288,1.1864 0.257656,2.79509 -0.678615,3.90397 -0.382965,0.45357 -1.976904,1.62759 -3.224332,2.37489 -1.344881,0.80568 -3.071659,2.6991 -3.071659,3.36808 0,0.0874 0.944638,0.13206 2.794,0.13206 h 2.794 v -1.27 -1.27 h 0.889 0.889 v 2.159 2.159 H 55.92374 51.337691 Z"
       id="path2758"
       transform="translate(-1.0416666e-6,-1.1083333e-5)" />
    <path
       style="display:inline;fill:#19110b;stroke-width:1"
       d="m 102.21259,520.19338 c -0.42828,-0.0961 -0.96033,-0.2686 -1.18233,-0.3834 -0.61486,-0.31796 -1.379978,-1.06005 -1.760752,-1.70775 -0.294601,-0.50111 -0.342222,-0.7235 -0.342222,-1.59812 0,-0.87987 0.04855,-1.1036 0.362388,-1.6698 0.493442,-0.89025 1.009946,-1.35567 2.939616,-2.64889 0.90805,-0.60856 2.01243,-1.45743 2.45418,-1.88639 0.84967,-0.82506 1.49309,-1.76431 1.35816,-1.98262 -0.0514,-0.0831 -1.07279,-0.1308 -2.80384,-0.1308 h -2.723 v 1.27 1.27 h -0.892075 -0.892071 l 0.03482,-2.12725 0.03482,-2.12725 h 4.508496 4.5085 l 0.0364,1.09395 c 0.0777,2.33108 -0.78648,3.4823 -4.46048,5.94234 -0.75683,0.50676 -1.60853,1.13115 -1.89267,1.38754 -1.24109,1.11989 -1.11745,2.5399 0.28913,3.32068 0.46182,0.25635 0.74269,0.3145 1.51908,0.3145 0.77506,0 1.05896,-0.0586 1.524,-0.3145 0.62365,-0.34321 1.143,-1.16195 1.143,-1.80192 v -0.35409 h 0.90626 0.90627 l -0.078,0.53975 c -0.19387,1.34168 -0.67858,2.20172 -1.62878,2.89004 -0.97612,0.7071 -2.56568,0.99633 -3.86895,0.70398 z"
       id="path2552"
       transform="translate(-1.0416666e-6,-1.1083333e-5)" />
  </g>
</svg>
