<?xml version="1.0" encoding="UTF-8" standalone="no"?>
<svg
   width="63.500004mm"
   height="88.899895mm"
   viewBox="142.0878 95.116776 63.500012 88.899887"
   version="1.1"
   id="svg10"
   sodipodi:docname="2S.svg"
   inkscape:version="1.1.1 (1:1.1+202109281949+c3084ef5ed)"
   inkscape:export-filename="/home/doug/k40/52Cards/IndividualColorCards/2S.png"
   inkscape:export-xdpi="300"
   inkscape:export-ydpi="300"
   xmlns:inkscape="http://www.inkscape.org/namespaces/inkscape"
   xmlns:sodipodi="http://sodipodi.sourceforge.net/DTD/sodipodi-0.dtd"
   xmlns="http://www.w3.org/2000/svg"
   xmlns:svg="http://www.w3.org/2000/svg">
  <defs
     id="defs14">
    <marker
       style="overflow:visible"
       id="marker2995"
       refX="0"
       refY="0"
       orient="auto"
       inkscape:stockid="Arrow1Lstart"
       inkscape:isstock="true">
      <path
         transform="matrix(0.8,0,0,0.8,10,0)"
         style="fill:#000000;fill-opacity:1;fill-rule:evenodd;stroke:#000000;stroke-width:1pt;stroke-opacity:1"
         d="M 0,0 5,-5 -12.5,0 5,5 Z"
         id="path2993" />
    </marker>
    <marker
       style="overflow:visible"
       id="marker2985"
       refX="0"
       refY="0"
       orient="auto"
       inkscape:stockid="Arrow1Lstart"
       inkscape:isstock="true">
      <path
         transform="matrix(0.8,0,0,0.8,10,0)"
         style="fill:#000000;fill-opacity:1;fill-rule:evenodd;stroke:#000000;stroke-width:1pt;stroke-opacity:1"
         d="M 0,0 5,-5 -12.5,0 5,5 Z"
         id="path2983" />
    </marker>
    <marker
       style="overflow:visible"
       id="marker2791"
       refX="0"
       refY="0"
       orient="auto"
       inkscape:stockid="Arrow1Lstart"
       inkscape:isstock="true">
      <path
         transform="matrix(0.8,0,0,0.8,10,0)"
         style="fill:#000000;fill-opacity:1;fill-rule:evenodd;stroke:#000000;stroke-width:1pt;stroke-opacity:1"
         d="M 0,0 5,-5 -12.5,0 5,5 Z"
         id="path2789" />
    </marker>
    <marker
       style="overflow:visible"
       id="marker2781"
       refX="0"
       refY="0"
       orient="auto"
       inkscape:stockid="Arrow1Lstart"
       inkscape:isstock="true">
      <path
         transform="matrix(0.8,0,0,0.8,10,0)"
         style="fill:#000000;fill-opacity:1;fill-rule:evenodd;stroke:#000000;stroke-width:1pt;stroke-opacity:1"
         d="M 0,0 5,-5 -12.5,0 5,5 Z"
         id="path2779" />
    </marker>
    <marker
       style="overflow:visible"
       id="marker2417"
       refX="0"
       refY="0"
       orient="auto"
       inkscape:stockid="Arrow1Lstart"
       inkscape:isstock="true">
      <path
         transform="matrix(0.8,0,0,0.8,10,0)"
         style="fill:#000000;fill-opacity:1;fill-rule:evenodd;stroke:#000000;stroke-width:1pt;stroke-opacity:1"
         d="M 0,0 5,-5 -12.5,0 5,5 Z"
         id="path2415" />
    </marker>
    <marker
       style="overflow:visible"
       id="marker2383"
       refX="0"
       refY="0"
       orient="auto"
       inkscape:stockid="Arrow1Lstart"
       inkscape:isstock="true">
      <path
         transform="matrix(0.8,0,0,0.8,10,0)"
         style="fill:#000000;fill-opacity:1;fill-rule:evenodd;stroke:#000000;stroke-width:1pt;stroke-opacity:1"
         d="M 0,0 5,-5 -12.5,0 5,5 Z"
         id="path2381" />
    </marker>
    <marker
       style="overflow:visible"
       id="marker2355"
       refX="0"
       refY="0"
       orient="auto"
       inkscape:stockid="Arrow1Lstart"
       inkscape:isstock="true">
      <path
         transform="matrix(0.8,0,0,0.8,10,0)"
         style="fill:#000000;fill-opacity:1;fill-rule:evenodd;stroke:#000000;stroke-width:1pt;stroke-opacity:1"
         d="M 0,0 5,-5 -12.5,0 5,5 Z"
         id="path2353" />
    </marker>
    <marker
       style="overflow:visible"
       id="Arrow1Lstart"
       refX="0"
       refY="0"
       orient="auto"
       inkscape:stockid="Arrow1Lstart"
       inkscape:isstock="true">
      <path
         transform="matrix(0.8,0,0,0.8,10,0)"
         style="fill:#000000;fill-opacity:1;fill-rule:evenodd;stroke:#000000;stroke-width:1pt;stroke-opacity:1"
         d="M 0,0 5,-5 -12.5,0 5,5 Z"
         id="path2071" />
    </marker>
  </defs>
  <sodipodi:namedview
     id="namedview12"
     pagecolor="#ffffff"
     bordercolor="#666666"
     borderopacity="1.0"
     inkscape:pageshadow="2"
     inkscape:pageopacity="0.0"
     inkscape:pagecheckerboard="0"
     inkscape:document-units="mm"
     showgrid="false"
     showborder="false"
     fit-margin-top="0"
     fit-margin-left="0"
     fit-margin-right="0"
     fit-margin-bottom="0"
     inkscape:zoom="1.4874999"
     inkscape:cx="120.00001"
     inkscape:cy="167.7311"
     inkscape:window-width="1366"
     inkscape:window-height="712"
     inkscape:window-x="0"
     inkscape:window-y="0"
     inkscape:window-maximized="1"
     inkscape:current-layer="layer5" />
  <g
     inkscape:groupmode="layer"
     id="layer1"
     inkscape:label="CardOutline"
     style="display:inline"
     transform="translate(94.217781,-340.71922)">
    <path
       id="path4-3"
       style="display:inline;fill:none;fill-rule:evenodd;stroke:#000000;stroke-width:0.25;stroke-miterlimit:4;stroke-dasharray:none;stroke-opacity:1"
       d="m 50.564743,435.96104 -0.534158,0.31687 c -0.688621,0.40844 -1.158412,0.85449 -1.590112,1.51001 l -0.346181,0.5258 -0.06384,25.43159 c -0.03506,13.98732 -0.046,32.74824 -0.02422,41.69094 0.03916,16.06607 0.04297,16.26663 0.30127,16.87005 h 2.54e-4 c 0.321831,0.75178 1.375871,1.69211 2.308962,2.06009 0.662802,0.26139 0.718825,0.26193 29.335815,0.23047 27.968057,-0.0307 28.683467,-0.0377 29.150357,-0.27706 0.72044,-0.36932 1.35524,-0.98173 1.76901,-1.70664 l 0.37116,-0.65029 9.8e-4,-41.53137 9.8e-4,-41.53137 -0.30833,-0.61121 c -0.3634,-0.72062 -1.20695,-1.59056 -1.92217,-1.98245 l -0.50968,-0.27931 -28.969947,-0.0331 z m 0.134234,0.49272 57.679013,0.0666 0.38933,0.21242 0.11632,0.0681 0.12061,0.0774 0.13902,0.0985 0.11304,0.0864 0.12364,0.1017 0.13751,0.12124 0.11153,0.10621 0.13145,0.13177 0.10774,0.11773 0.12692,0.13477 0.0918,0.11748 0.10345,0.13201 0.0951,0.13352 0.0785,0.11974 0.0739,0.12124 0.0603,0.11222 0.25661,0.50651 -0.003,82.81198 -0.30631,0.53682 -0.13726,0.22444 -0.18268,0.24876 -0.16754,0.20014 -0.19757,0.20466 -0.19327,0.17285 -0.23542,0.18336 -0.22481,0.1503 -0.2233,0.12574 -0.0212,0.0108 -0.0149,0.006 -0.0394,0.012 -0.027,0.006 -0.0507,0.01 -0.0277,0.004 -0.0606,0.008 -0.0573,0.008 -0.0679,0.006 -0.083,0.0105 -0.0868,0.004 -0.0913,0.006 -0.10698,0.007 -0.25056,0.012 -0.3048,0.0108 -0.3545,0.0105 -0.41809,0.009 -0.47538,0.009 -0.54929,0.008 -0.96108,0.0105 -1.14073,0.0108 -3.46459,0.0165 -34.84847,0.0471 -6.84314,-0.003 -1.74276,-0.004 -1.260078,-0.006 -1.065289,-0.008 -0.60506,-0.006 -0.534158,-0.008 -0.467798,-0.009 -0.401438,-0.009 -0.339623,-0.009 -0.289659,-0.012 -0.126666,-0.006 -0.11632,-0.006 -0.106979,-0.006 -0.08302,-0.006 -0.08302,-0.008 -0.07998,-0.006 -0.0545,-0.007 -0.10093,-0.0135 -0.09967,-0.0183 -0.03911,-0.009 -0.04844,-0.0138 -0.0376,-0.0135 -0.04692,-0.0183 -0.167539,-0.0726 -0.143315,-0.0699 -0.177886,-0.0985 -0.140542,-0.0864 -0.159971,-0.10773 -0.155176,-0.11372 -0.152651,-0.12124 -0.161231,-0.13803 -0.123887,-0.11372 -0.144835,-0.14729 -0.11026,-0.11974 -0.119098,-0.14253 -0.08604,-0.11374 -0.09361,-0.13951 -0.06485,-0.11098 -0.05601,-0.11974 -0.027,-0.0669 -0.03481,-0.10621 -0.0061,-0.027 -0.01211,-0.0669 -0.01338,-0.0939 -0.01514,-0.12124 -0.0044,-0.0531 -0.01362,-0.15632 -0.0099,-0.16206 -0.01133,-0.21243 -0.01059,-0.23947 -0.0088,-0.27305 -0.0091,-0.31236 -0.0076,-0.3532 -0.01059,-0.61573 -0.0091,-0.72319 -0.0106,-1.15404 -0.0106,-1.77404 -0.01641,-4.27149 -0.01968,-8.14897 -0.0061,-8.546 0.0015,-6.72963 0.0044,-7.16476 0.0091,-7.2692 0.01943,-9.71082 0.0651,-25.28355 0.257868,-0.39253 0.152402,-0.21993 0.166025,-0.21393 0.147862,-0.16834 0.169052,-0.17133 0.185708,-0.16508 0.168798,-0.13202 0.229612,-0.16082 0.227845,-0.14253 z"
       inkscape:export-filename="/home/doug/k40/52Cards/IndividualColorCards/2D.png"
       inkscape:export-xdpi="300"
       inkscape:export-ydpi="300" />
  </g>
  <g
     inkscape:groupmode="layer"
     id="layer2"
     inkscape:label="InnerRectangle"
     style="display:inline"
     transform="translate(94.217781,-340.71922)">
    <path
       id="path2-6"
       style="display:inline;fill:none;fill-rule:evenodd;stroke:#4c71a5;stroke-width:0.262609;stroke-opacity:1"
       d="m 63.13524,452.67467 0.0441,14.05596 c 0.0243,7.7307 0.0504,20.15551 0.0578,27.61093 l 0.0134,13.55547 16.409043,-0.0521 16.40903,-0.0519 0.0305,-24.32539 c 0.0169,-13.37898 -0.004,-25.78048 -0.0462,-27.55907 l -0.077,-3.23394 h -16.42035 z m 16.503153,0.25626 h 16.11155 l 0.005,0.73622 c 0.003,0.40503 0.0367,12.68075 0.0757,27.27927 l 0.0709,26.54279 -3.16634,0.004 c -1.74158,0.002 -8.99902,0.0153 -16.12745,0.0285 -7.12842,0.0133 -12.991523,-0.007 -13.029223,-0.0446 -0.0728,-0.0731 -0.16665,-54.20072 -0.0944,-54.4185 0.028,-0.0844 5.532343,-0.128 16.154193,-0.128 z"
       inkscape:export-filename="/home/doug/k40/52Cards/IndividualColorCards/2D.png"
       inkscape:export-xdpi="300"
       inkscape:export-ydpi="300" />
  </g>
  <g
     inkscape:groupmode="layer"
     id="layer5"
     inkscape:label="InnerSuit"
     style="display:inline"
     transform="translate(94.217781,-340.71922)">
    <path
       style="display:inline;fill:#18100a;stroke-width:1"
       d="m 78.566088,466.15026 c 0.242566,-0.40891 0.600339,-1.35099 0.716147,-1.88576 0.231339,-1.06825 0.198898,-1.16087 -0.243052,-0.69391 -0.212854,0.2249 -0.608417,0.4746 -0.87903,0.55489 -0.423571,0.12568 -0.5758,0.10929 -1.094205,-0.11781 -0.493098,-0.21601 -0.64958,-0.36991 -0.863838,-0.84958 -0.476294,-1.06631 -0.07596,-2.07499 1.866127,-4.70183 0.620546,-0.83935 1.217698,-1.69708 1.327004,-1.90607 0.183599,-0.35102 0.209516,-0.36201 0.34017,-0.14426 0.07779,0.12963 0.710419,1.01597 1.405852,1.96964 1.353486,1.85608 1.770235,2.56818 2.002154,3.42113 0.320528,1.17882 -0.471016,2.31878 -1.610063,2.31878 -0.662934,0 -0.985475,-0.14025 -1.422167,-0.61841 l -0.3063,-0.33539 0.08208,0.63587 c 0.06672,0.51682 0.366864,1.41044 0.768868,2.28912 0.0363,0.0793 -0.352914,0.12718 -1.034642,0.12718 -0.601054,0 -1.075851,-0.0286 -1.055105,-0.0636 z"
       id="path2760"
       transform="translate(-1.0416666e-6,-1.1083333e-5)" />
    <path
       style="display:inline;fill:#18100a;stroke-width:1"
       d="m 79.51806,504.1434 c -0.03588,-0.0874 -0.706381,-1.01739 -1.490005,-2.06657 -1.48844,-1.99286 -1.93951,-2.87689 -1.93951,-3.80118 0,-1.51616 1.891155,-2.29391 2.972921,-1.22261 l 0.365931,0.36238 v -0.35834 c 0,-0.46632 -0.450746,-1.90696 -0.698019,-2.23096 -0.106005,-0.13889 -0.194501,-0.28116 -0.19666,-0.31613 -0.0021,-0.0349 0.51191,-0.0636 1.142373,-0.0636 h 1.1463 l -0.235292,0.38152 c -0.310957,0.50421 -0.645032,1.65053 -0.645032,2.21333 0,0.44433 0.0026,0.44655 0.200421,0.16695 0.472837,-0.66853 1.588482,-0.86173 2.34355,-0.40584 0.837992,0.50597 1.009261,1.76904 0.402909,2.97138 -0.150598,0.29862 -0.820297,1.27827 -1.488221,2.17697 -0.667922,0.89872 -1.310714,1.7955 -1.428428,1.99283 -0.233697,0.39179 -0.352903,0.44435 -0.453238,0.19985 z"
       id="path2746"
       transform="translate(-1.0416666e-6,-1.1083333e-5)" />
  </g>
  <g
     inkscape:groupmode="layer"
     id="layer6"
     inkscape:label="OuterSuit"
     style="display:inline"
     transform="translate(94.217781,-340.71922)">
    <path
       style="display:inline;fill:#18100a;stroke-width:1"
       d="m 54.735592,470.479 c 0.460339,-0.92495 0.806405,-2.24883 0.805673,-3.08211 l -4.75e-4,-0.54717 -0.241869,0.39279 c -1.282303,2.08249 -4.502632,1.10736 -4.507897,-1.36499 -0.0022,-1.06132 0.765363,-2.54514 2.548628,-4.92649 0.439083,-0.58635 1.18345,-1.63898 1.65415,-2.33917 0.851775,-1.26708 0.856758,-1.27168 1.055031,-0.9725 0.109567,0.16534 0.673181,0.96044 1.252474,1.7669 3.020886,4.20552 3.453912,4.93757 3.588488,6.06653 0.162779,1.36552 -0.616053,2.55893 -1.839573,2.81879 -1.087908,0.23106 -1.968168,-0.10892 -2.577445,-0.99546 l -0.288939,-0.42043 v 0.48758 c 0,0.89293 0.636707,2.87374 1.245232,3.87394 0.02127,0.0349 -0.669157,0.0658 -1.534299,0.0684 l -1.57299,0.005 z"
       id="path2758"
       transform="translate(-1.0416666e-6,-1.1083333e-5)" />
    <path
       style="display:inline;fill:#18100a;stroke-width:1"
       d="m 102.31464,501.72929 c -0.58443,-0.85804 -1.46377,-2.09929 -1.95409,-2.75834 -1.932032,-2.5969 -2.379417,-4.12912 -1.625993,-5.56878 0.257989,-0.49297 1.177555,-1.05303 1.882793,-1.1467 0.76738,-0.10193 1.60157,0.2598 2.07898,0.90153 l 0.39159,0.52637 -0.0855,-0.78707 c -0.0914,-0.84092 -0.68739,-2.73509 -1.0177,-3.23452 l -0.19995,-0.30232 h 1.57191 1.57191 l -0.2843,0.5087 c -0.15636,0.27978 -0.39997,0.85206 -0.54135,1.27173 -0.26388,0.78328 -0.54772,2.48018 -0.41476,2.47952 0.0409,-2.5e-4 0.18376,-0.16207 0.31746,-0.35972 1.32208,-1.95444 4.43815,-0.89315 4.44343,1.51336 10e-4,0.49395 -0.37185,1.63774 -0.74353,2.28042 -0.31607,0.54651 -0.5945,0.94696 -3.01656,4.33845 -0.58017,0.81238 -1.11263,1.57164 -1.18326,1.68725 -0.1056,0.17284 -0.31728,-0.0671 -1.19102,-1.34988 z"
       id="path2748"
       transform="translate(-1.0416666e-6,-1.1083333e-5)" />
  </g>
  <g
     inkscape:groupmode="layer"
     id="layer3"
     inkscape:label="CardName"
     style="display:inline"
     transform="translate(94.217781,-340.71922)">
    <path
       style="display:inline;fill:#18100a;stroke-width:1"
       d="m 51.201186,452.87559 c 0.04945,-1.10125 0.117041,-1.44016 0.40237,-2.0177 0.596766,-1.20794 1.750877,-2.20235 5.02355,-4.32844 1.329973,-0.86401 1.765759,-1.40577 1.836904,-2.2836 0.06741,-0.83179 -0.279573,-1.40731 -1.129391,-1.87322 -0.463512,-0.25411 -0.756817,-0.31483 -1.536038,-0.31793 -0.822347,-0.003 -1.050491,0.047 -1.560779,0.34408 -0.64069,0.37299 -1.135987,1.15369 -1.135987,1.79059 0,0.33846 -0.0078,0.34137 -0.915466,0.34137 h -0.915465 l 0.08511,-0.6354 c 0.20136,-1.50321 0.977467,-2.52637 2.416185,-3.18531 0.828476,-0.37943 1.059058,-0.42827 2.026399,-0.42916 0.964974,-8.9e-4 1.195786,0.0472 1.99047,0.41464 1.674473,0.77427 2.50163,1.91623 2.50163,3.45371 0,1.68665 -0.939213,2.84187 -3.593178,4.41955 -1.385831,0.82383 -2.993846,2.28397 -3.409194,3.09568 -0.173201,0.33848 -0.31491,0.64703 -0.31491,0.68568 0,0.0387 1.281535,0.0549 2.847854,0.0361 l 2.847853,-0.0343 0.0094,-1.20815 0.0094,-1.20815 0.866817,-0.0376 0.866818,-0.0377 0.02166,0.86424 c 0.01191,0.47533 0.02636,1.43651 0.0321,2.13596 l 0.01045,1.27174 -4.672034,0.0333 -4.672036,0.0333 0.05945,-1.32356 z"
       id="path2764"
       transform="translate(-1.0416666e-6,-1.1083333e-5)" />
    <path
       style="display:inline;fill:#18100a;stroke-width:1"
       d="m 101.83623,520.07454 c -1.63057,-0.5339 -2.88939,-2.0258 -2.88939,-3.42438 0,-1.6931 0.840292,-2.79149 3.4512,-4.51123 1.89485,-1.24809 2.78854,-2.00631 3.34449,-2.83752 0.72554,-1.08476 0.78829,-1.05667 -2.36064,-1.05667 h -2.75632 l -0.0367,1.23994 -0.0368,1.23994 -0.866813,0.0377 -0.866817,0.0376 v -2.16776 -2.16776 l 3.85252,-0.0272 c 2.11889,-0.015 4.1848,-0.0292 4.59092,-0.0317 l 0.7384,-0.005 -0.006,1.33532 c -0.006,1.26674 -0.0281,1.37635 -0.43738,2.13414 -0.55205,1.02214 -1.57034,1.96002 -3.60793,3.32305 -2.19412,1.46774 -2.68445,1.87861 -2.96065,2.48086 -0.49544,1.08029 -0.17923,1.95723 0.90938,2.52199 0.55051,0.28559 0.84063,0.34972 1.58205,0.34972 1.54557,0 2.40086,-0.61782 2.60494,-1.88169 l 0.0863,-0.53461 h 0.89709 0.89709 l -0.0881,0.60408 c -0.21449,1.47095 -1.18333,2.72662 -2.48705,3.22335 -1.04029,0.39635 -2.54996,0.44632 -3.55385,0.11761 z"
       id="path2552"
       transform="translate(-1.0416666e-6,-1.1083333e-5)" />
  </g>
</svg>
