<?xml version="1.0" encoding="UTF-8" standalone="no"?>
<svg
   width="63.500004mm"
   height="88.899895mm"
   viewBox="142.0878 95.116776 63.500012 88.899887"
   version="1.1"
   id="svg10"
   sodipodi:docname="3C.svg"
   inkscape:version="1.1.1 (1:1.1+202109281949+c3084ef5ed)"
   inkscape:export-filename="/home/doug/k40/52Cards/IndividualColorCards/3C.png"
   inkscape:export-xdpi="300"
   inkscape:export-ydpi="300"
   xmlns:inkscape="http://www.inkscape.org/namespaces/inkscape"
   xmlns:sodipodi="http://sodipodi.sourceforge.net/DTD/sodipodi-0.dtd"
   xmlns="http://www.w3.org/2000/svg"
   xmlns:svg="http://www.w3.org/2000/svg">
  <defs
     id="defs14">
    <marker
       style="overflow:visible"
       id="marker2995"
       refX="0"
       refY="0"
       orient="auto"
       inkscape:stockid="Arrow1Lstart"
       inkscape:isstock="true">
      <path
         transform="matrix(0.8,0,0,0.8,10,0)"
         style="fill:#000000;fill-opacity:1;fill-rule:evenodd;stroke:#000000;stroke-width:1pt;stroke-opacity:1"
         d="M 0,0 5,-5 -12.5,0 5,5 Z"
         id="path2993" />
    </marker>
    <marker
       style="overflow:visible"
       id="marker2985"
       refX="0"
       refY="0"
       orient="auto"
       inkscape:stockid="Arrow1Lstart"
       inkscape:isstock="true">
      <path
         transform="matrix(0.8,0,0,0.8,10,0)"
         style="fill:#000000;fill-opacity:1;fill-rule:evenodd;stroke:#000000;stroke-width:1pt;stroke-opacity:1"
         d="M 0,0 5,-5 -12.5,0 5,5 Z"
         id="path2983" />
    </marker>
    <marker
       style="overflow:visible"
       id="marker2791"
       refX="0"
       refY="0"
       orient="auto"
       inkscape:stockid="Arrow1Lstart"
       inkscape:isstock="true">
      <path
         transform="matrix(0.8,0,0,0.8,10,0)"
         style="fill:#000000;fill-opacity:1;fill-rule:evenodd;stroke:#000000;stroke-width:1pt;stroke-opacity:1"
         d="M 0,0 5,-5 -12.5,0 5,5 Z"
         id="path2789" />
    </marker>
    <marker
       style="overflow:visible"
       id="marker2781"
       refX="0"
       refY="0"
       orient="auto"
       inkscape:stockid="Arrow1Lstart"
       inkscape:isstock="true">
      <path
         transform="matrix(0.8,0,0,0.8,10,0)"
         style="fill:#000000;fill-opacity:1;fill-rule:evenodd;stroke:#000000;stroke-width:1pt;stroke-opacity:1"
         d="M 0,0 5,-5 -12.5,0 5,5 Z"
         id="path2779" />
    </marker>
    <marker
       style="overflow:visible"
       id="marker2417"
       refX="0"
       refY="0"
       orient="auto"
       inkscape:stockid="Arrow1Lstart"
       inkscape:isstock="true">
      <path
         transform="matrix(0.8,0,0,0.8,10,0)"
         style="fill:#000000;fill-opacity:1;fill-rule:evenodd;stroke:#000000;stroke-width:1pt;stroke-opacity:1"
         d="M 0,0 5,-5 -12.5,0 5,5 Z"
         id="path2415" />
    </marker>
    <marker
       style="overflow:visible"
       id="marker2383"
       refX="0"
       refY="0"
       orient="auto"
       inkscape:stockid="Arrow1Lstart"
       inkscape:isstock="true">
      <path
         transform="matrix(0.8,0,0,0.8,10,0)"
         style="fill:#000000;fill-opacity:1;fill-rule:evenodd;stroke:#000000;stroke-width:1pt;stroke-opacity:1"
         d="M 0,0 5,-5 -12.5,0 5,5 Z"
         id="path2381" />
    </marker>
    <marker
       style="overflow:visible"
       id="marker2355"
       refX="0"
       refY="0"
       orient="auto"
       inkscape:stockid="Arrow1Lstart"
       inkscape:isstock="true">
      <path
         transform="matrix(0.8,0,0,0.8,10,0)"
         style="fill:#000000;fill-opacity:1;fill-rule:evenodd;stroke:#000000;stroke-width:1pt;stroke-opacity:1"
         d="M 0,0 5,-5 -12.5,0 5,5 Z"
         id="path2353" />
    </marker>
    <marker
       style="overflow:visible"
       id="Arrow1Lstart"
       refX="0"
       refY="0"
       orient="auto"
       inkscape:stockid="Arrow1Lstart"
       inkscape:isstock="true">
      <path
         transform="matrix(0.8,0,0,0.8,10,0)"
         style="fill:#000000;fill-opacity:1;fill-rule:evenodd;stroke:#000000;stroke-width:1pt;stroke-opacity:1"
         d="M 0,0 5,-5 -12.5,0 5,5 Z"
         id="path2071" />
    </marker>
  </defs>
  <sodipodi:namedview
     id="namedview12"
     pagecolor="#ffffff"
     bordercolor="#666666"
     borderopacity="1.0"
     inkscape:pageshadow="2"
     inkscape:pageopacity="0.0"
     inkscape:pagecheckerboard="0"
     inkscape:document-units="mm"
     showgrid="false"
     showborder="false"
     fit-margin-top="0"
     fit-margin-left="0"
     fit-margin-right="0"
     fit-margin-bottom="0"
     inkscape:zoom="1.2541666"
     inkscape:cx="120.00001"
     inkscape:cy="167.84054"
     inkscape:window-width="1366"
     inkscape:window-height="712"
     inkscape:window-x="0"
     inkscape:window-y="0"
     inkscape:window-maximized="1"
     inkscape:current-layer="layer5" />
  <g
     inkscape:groupmode="layer"
     id="layer1"
     inkscape:label="CardOutline"
     style="display:inline"
     transform="translate(94.217781,-340.71922)">
    <path
       id="path4-3"
       style="display:inline;fill:none;fill-rule:evenodd;stroke:#000000;stroke-width:0.25;stroke-miterlimit:4;stroke-dasharray:none;stroke-opacity:1"
       d="m 50.564743,435.96104 -0.534158,0.31687 c -0.688621,0.40844 -1.158412,0.85449 -1.590112,1.51001 l -0.346181,0.5258 -0.06384,25.43159 c -0.03506,13.98732 -0.046,32.74824 -0.02422,41.69094 0.03916,16.06607 0.04297,16.26663 0.30127,16.87005 h 2.54e-4 c 0.321831,0.75178 1.375871,1.69211 2.308962,2.06009 0.662802,0.26139 0.718825,0.26193 29.335815,0.23047 27.968057,-0.0307 28.683467,-0.0377 29.150357,-0.27706 0.72044,-0.36932 1.35524,-0.98173 1.76901,-1.70664 l 0.37116,-0.65029 9.8e-4,-41.53137 9.8e-4,-41.53137 -0.30833,-0.61121 c -0.3634,-0.72062 -1.20695,-1.59056 -1.92217,-1.98245 l -0.50968,-0.27931 -28.969947,-0.0331 z m 0.134234,0.49272 57.679013,0.0666 0.38933,0.21242 0.11632,0.0681 0.12061,0.0774 0.13902,0.0985 0.11304,0.0864 0.12364,0.1017 0.13751,0.12124 0.11153,0.10621 0.13145,0.13177 0.10774,0.11773 0.12692,0.13477 0.0918,0.11748 0.10345,0.13201 0.0951,0.13352 0.0785,0.11974 0.0739,0.12124 0.0603,0.11222 0.25661,0.50651 -0.003,82.81198 -0.30631,0.53682 -0.13726,0.22444 -0.18268,0.24876 -0.16754,0.20014 -0.19757,0.20466 -0.19327,0.17285 -0.23542,0.18336 -0.22481,0.1503 -0.2233,0.12574 -0.0212,0.0108 -0.0149,0.006 -0.0394,0.012 -0.027,0.006 -0.0507,0.01 -0.0277,0.004 -0.0606,0.008 -0.0573,0.008 -0.0679,0.006 -0.083,0.0105 -0.0868,0.004 -0.0913,0.006 -0.10698,0.007 -0.25056,0.012 -0.3048,0.0108 -0.3545,0.0105 -0.41809,0.009 -0.47538,0.009 -0.54929,0.008 -0.96108,0.0105 -1.14073,0.0108 -3.46459,0.0165 -34.84847,0.0471 -6.84314,-0.003 -1.74276,-0.004 -1.260078,-0.006 -1.065289,-0.008 -0.60506,-0.006 -0.534158,-0.008 -0.467798,-0.009 -0.401438,-0.009 -0.339623,-0.009 -0.289659,-0.012 -0.126666,-0.006 -0.11632,-0.006 -0.106979,-0.006 -0.08302,-0.006 -0.08302,-0.008 -0.07998,-0.006 -0.0545,-0.007 -0.10093,-0.0135 -0.09967,-0.0183 -0.03911,-0.009 -0.04844,-0.0138 -0.0376,-0.0135 -0.04692,-0.0183 -0.167539,-0.0726 -0.143315,-0.0699 -0.177886,-0.0985 -0.140542,-0.0864 -0.159971,-0.10773 -0.155176,-0.11372 -0.152651,-0.12124 -0.161231,-0.13803 -0.123887,-0.11372 -0.144835,-0.14729 -0.11026,-0.11974 -0.119098,-0.14253 -0.08604,-0.11374 -0.09361,-0.13951 -0.06485,-0.11098 -0.05601,-0.11974 -0.027,-0.0669 -0.03481,-0.10621 -0.0061,-0.027 -0.01211,-0.0669 -0.01338,-0.0939 -0.01514,-0.12124 -0.0044,-0.0531 -0.01362,-0.15632 -0.0099,-0.16206 -0.01133,-0.21243 -0.01059,-0.23947 -0.0088,-0.27305 -0.0091,-0.31236 -0.0076,-0.3532 -0.01059,-0.61573 -0.0091,-0.72319 -0.0106,-1.15404 -0.0106,-1.77404 -0.01641,-4.27149 -0.01968,-8.14897 -0.0061,-8.546 0.0015,-6.72963 0.0044,-7.16476 0.0091,-7.2692 0.01943,-9.71082 0.0651,-25.28355 0.257868,-0.39253 0.152402,-0.21993 0.166025,-0.21393 0.147862,-0.16834 0.169052,-0.17133 0.185708,-0.16508 0.168798,-0.13202 0.229612,-0.16082 0.227845,-0.14253 z"
       inkscape:export-filename="/home/doug/k40/52Cards/IndividualColorCards/2D.png"
       inkscape:export-xdpi="300"
       inkscape:export-ydpi="300" />
  </g>
  <g
     inkscape:groupmode="layer"
     id="layer2"
     inkscape:label="InnerRectangle"
     style="display:inline"
     transform="translate(94.217781,-340.71922)">
    <path
       id="path2-6"
       style="display:inline;fill:none;fill-rule:evenodd;stroke:#4c71a5;stroke-width:0.262609;stroke-opacity:1"
       d="m 63.13524,452.67467 0.0441,14.05596 c 0.0243,7.7307 0.0504,20.15551 0.0578,27.61093 l 0.0134,13.55547 16.409043,-0.0521 16.40903,-0.0519 0.0305,-24.32539 c 0.0169,-13.37898 -0.004,-25.78048 -0.0462,-27.55907 l -0.077,-3.23394 h -16.42035 z m 16.503153,0.25626 h 16.11155 l 0.005,0.73622 c 0.003,0.40503 0.0367,12.68075 0.0757,27.27927 l 0.0709,26.54279 -3.16634,0.004 c -1.74158,0.002 -8.99902,0.0153 -16.12745,0.0285 -7.12842,0.0133 -12.991523,-0.007 -13.029223,-0.0446 -0.0728,-0.0731 -0.16665,-54.20072 -0.0944,-54.4185 0.028,-0.0844 5.532343,-0.128 16.154193,-0.128 z"
       inkscape:export-filename="/home/doug/k40/52Cards/IndividualColorCards/2D.png"
       inkscape:export-xdpi="300"
       inkscape:export-ydpi="300" />
  </g>
  <g
     inkscape:groupmode="layer"
     id="layer5"
     inkscape:label="InnerSuit"
     style="display:inline"
     transform="translate(94.217781,-340.71922)">
    <path
       style="display:inline;fill:#18100a;stroke-width:1"
       d="m 78.822466,464.54662 c 0.366282,-0.81305 0.637985,-1.8858 0.622976,-2.45966 -0.0082,-0.31316 -0.02909,-0.29779 -0.240301,0.17676 -0.620377,1.39387 -2.315967,1.55805 -3.157615,0.30574 -0.399529,-0.59447 -0.343545,-1.61726 0.115417,-2.10854 0.613575,-0.65679 1.618479,-0.91007 2.256339,-0.5687 0.358188,0.1917 0.345309,0.0692 -0.04099,-0.3899 -0.172764,-0.20532 -0.383453,-0.60473 -0.468198,-0.88759 -0.421408,-1.40653 1.089197,-2.68388 2.448879,-2.07075 0.724003,0.32648 1.063936,0.85771 1.063936,1.66267 0,0.55436 -0.06612,0.73596 -0.435082,1.19509 l -0.43508,0.5414 0.43508,-0.10462 c 1.418548,-0.34111 2.531236,0.42171 2.530107,1.73454 -6.35e-4,0.76525 -0.378992,1.33483 -1.097874,1.65282 -0.957589,0.42359 -1.877102,0.0471 -2.344333,-0.95988 l -0.242222,-0.52204 0.0749,0.74074 c 0.07655,0.75705 0.380068,1.77755 0.729868,2.45399 l 0.195777,0.37859 h -1.179359 -1.179386 z"
       id="path3260"
       transform="translate(-1.0416666e-6,-1.1083333e-5)" />
    <path
       style="display:inline;fill:#18100a;stroke-width:1"
       d="m 78.438441,484.66111 c 0,-0.0384 0.05436,-0.12421 0.120796,-0.19065 0.240604,-0.2406 0.743934,-1.78911 0.823497,-2.5335 l 0.08144,-0.762 -0.29062,0.56847 c -0.352084,0.68869 -0.946828,1.06136 -1.69383,1.06136 -0.994059,0 -1.706954,-0.76905 -1.707812,-1.84233 -5.08e-4,-0.6609 0.372822,-1.23315 1.024346,-1.57006 0.417279,-0.21578 1.294987,-0.24475 1.650527,-0.0545 0.343712,0.18395 0.3073,0.0573 -0.145596,-0.50622 -1.043818,-1.29889 -0.272781,-2.92725 1.386069,-2.92725 0.542485,0 0.719802,0.0636 1.094691,0.39278 0.823204,0.72278 0.871276,1.75465 0.123163,2.64373 l -0.305496,0.36307 0.823082,-0.0661 c 0.721236,-0.0579 0.878176,-0.0286 1.26833,0.23696 1.528962,1.04059 0.805128,3.34662 -1.0417,3.3187 -0.686898,-0.0104 -1.258749,-0.41144 -1.56365,-1.09663 -0.231107,-0.51936 -0.232345,-0.52006 -0.24127,-0.13597 -0.012,0.51639 0.316585,1.75229 0.673952,2.53493 l 0.289953,0.635 h -1.184938 c -0.651716,0 -1.184939,-0.0314 -1.184939,-0.0699 z"
       id="path3242"
       transform="translate(-1.0416666e-6,-1.1083333e-5)" />
    <path
       style="display:inline;fill:#18100a;stroke-width:1"
       d="m 78.821972,504.25701 c -1.153781,-0.57968 -1.347582,-2.00462 -0.407201,-2.994 l 0.34117,-0.35894 -0.381,0.10494 c -0.587521,0.16184 -1.421223,0.0964 -1.781787,-0.13985 -0.758054,-0.4967 -1.05212,-1.67175 -0.625047,-2.49762 0.415846,-0.80416 1.511775,-1.1028 2.436561,-0.66396 0.330717,0.15693 0.526358,0.38292 0.742127,0.85725 0.269686,0.59285 0.293447,0.6138 0.298452,0.26313 0.0085,-0.59506 -0.346208,-1.94415 -0.69235,-2.6333 -0.17295,-0.34434 -0.314456,-0.63566 -0.314456,-0.64738 0,-0.0117 0.533222,-0.0213 1.184938,-0.0213 h 1.184938 l -0.289952,0.635 c -0.370101,0.81052 -0.684896,2.02051 -0.676018,2.59843 l 0.0069,0.44957 0.217669,-0.56801 c 0.709533,-1.85152 3.451516,-1.34345 3.451516,0.63955 0,1.15236 -1.222578,2.09769 -2.330479,1.80197 -0.288634,-0.077 -0.542743,-0.12212 -0.564689,-0.10018 -0.02194,0.022 0.105597,0.1969 0.283425,0.38878 0.679926,0.73365 0.670406,1.84304 -0.02148,2.50311 -0.653193,0.62315 -1.333624,0.74941 -2.063245,0.38283 z"
       id="path3236"
       transform="translate(-1.0416666e-6,-1.1083333e-5)" />
  </g>
  <g
     inkscape:groupmode="layer"
     id="layer6"
     inkscape:label="OuterSuit"
     style="display:inline"
     transform="translate(94.217781,-340.71922)">
    <path
       style="display:inline;fill:#18100a;stroke-width:1"
       d="m 54.770774,468.31759 c 0.449923,-0.9873 0.734722,-1.98277 0.872406,-3.04938 0.0996,-0.77154 -0.11351,-0.93321 -0.252628,-0.19165 -0.185807,0.99044 -1.569168,1.81705 -2.716486,1.62321 -0.66406,-0.11219 -1.440197,-0.6776 -1.709679,-1.24549 -0.409241,-0.86242 -0.155549,-2.32519 0.504988,-2.91173 0.627016,-0.55677 1.839451,-0.76625 2.69957,-0.46641 0.223538,0.0779 0.446379,0.0987 0.495201,0.0461 0.04882,-0.0526 0.01664,-0.12132 -0.07152,-0.15278 -0.274418,-0.0979 -0.905706,-1.12357 -1.02881,-1.67147 -0.445171,-1.98131 1.599473,-3.56793 3.414733,-2.6498 1.578933,0.7986 1.790491,2.70919 0.458891,4.14425 l -0.398532,0.42949 0.381,-0.11199 c 0.20955,-0.0616 0.785631,-0.112 1.280179,-0.112 0.794131,0 0.954892,0.0425 1.376063,0.36396 0.945837,0.72187 1.293194,1.79852 0.906733,2.81045 -0.388154,1.01637 -1.552181,1.71063 -2.586659,1.54275 -0.985097,-0.15986 -1.928816,-0.98206 -1.928816,-1.68045 0,-0.16017 -0.05715,-0.32654 -0.127,-0.36971 -0.211154,-0.1305 -0.146384,0.96308 0.118346,1.99816 0.13494,0.52761 0.42069,1.30665 0.635,1.7312 0.21431,0.42454 0.389654,0.78781 0.389654,0.80727 0,0.0195 -0.704613,0.0354 -1.565806,0.0354 h -1.565805 z"
       id="path3256"
       transform="translate(-1.0416666e-6,-1.1083333e-5)" />
    <path
       style="display:inline;fill:#18100a;stroke-width:1"
       d="m 102.52465,503.27821 c -1.66077,-0.59214 -2.105,-2.57373 -0.89412,-3.98837 0.49869,-0.58261 0.49148,-0.77907 -0.02,-0.54601 -0.44072,0.20081 -1.50056,0.18611 -1.998891,-0.0277 -0.52902,-0.22699 -1.161451,-0.91528 -1.344139,-1.46284 -0.196463,-0.58885 -0.180807,-1.07594 0.05253,-1.6344 0.899894,-2.15374 4.03489,-2.01797 4.4527,0.19285 0.0429,0.22701 0.13618,0.41275 0.20728,0.41275 0.34114,0 -0.22385,-2.48038 -0.91124,-4.0005 l -0.34458,-0.762 h 1.61444 1.61444 l -0.35222,0.6985 c -0.48455,0.96092 -0.86673,2.25454 -0.96701,3.27313 -0.0933,0.94764 0.0195,0.96972 0.32233,0.0631 0.56356,-1.68736 3.14494,-1.93774 4.15932,-0.40344 0.30457,0.46069 0.3584,0.67116 0.35796,1.39961 -6.3e-4,0.95661 -0.15807,1.26214 -1.00347,1.94677 -0.43506,0.35232 -0.56392,0.38835 -1.38878,0.38835 -0.50008,0 -1.07963,-0.0524 -1.28789,-0.1164 l -0.37866,-0.1164 0.5359,0.60882 c 0.80712,0.91693 0.99126,1.84915 0.55288,2.79898 -0.30151,0.65329 -0.70959,1.02254 -1.39879,1.26571 -0.66695,0.23531 -0.9421,0.23697 -1.57996,0.01 z"
       id="path3238"
       transform="translate(-1.0416666e-6,-1.1083333e-5)" />
  </g>
  <g
     inkscape:groupmode="layer"
     id="layer3"
     inkscape:label="CardName"
     style="display:inline"
     transform="translate(94.217781,-340.71922)">
    <path
       style="display:inline;fill:#18100a;stroke-width:1"
       d="m 99.012441,519.42762 v -0.92683 l 1.460559,-1.6252 c 0.8033,-0.89386 1.43322,-1.66943 1.39981,-1.72348 -0.0334,-0.0541 -0.27632,-0.13369 -0.5398,-0.17695 -0.71851,-0.11799 -1.679764,-0.91475 -2.103713,-1.74372 -1.141641,-2.2323 -0.257116,-5.37217 1.775523,-6.30275 2.00098,-0.91608 4.59864,-0.42561 5.88535,1.11123 0.57216,0.68338 1.01227,1.67593 1.01227,2.2829 v 0.37964 h -0.81956 -0.81955 l -0.26675,-0.60325 c -0.53496,-1.20978 -1.48326,-1.85842 -2.72964,-1.86705 -0.95513,-0.007 -1.81119,0.45157 -2.31499,1.23907 -0.7486,1.17014 -0.46202,3.00428 0.58005,3.71238 0.78232,0.5316 1.97818,0.39141 2.60922,-0.30588 0.26523,-0.29308 0.27597,-0.28849 1.27824,0.5469 l 0.37451,0.31217 -0.96088,0.99108 c -1.50602,1.55334 -3.40602,3.64816 -3.40687,3.7562 -3.8e-4,0.054 1.04221,0.0825 2.31697,0.0635 l 2.31775,-0.0346 0.0377,-0.86292 0.0377,-0.86291 0.85132,0.0374 0.85132,0.0374 -0.0242,1.4605 c -0.0133,0.80328 -0.0276,1.58909 -0.0318,1.74625 l -0.007,0.28575 h -4.3815 -4.381502 z"
       id="path3048"
       transform="translate(-1.0416666e-6,-1.1083333e-5)" />
    <path
       style="display:inline;fill:#18100a;stroke-width:1"
       d="m 54.692524,454.11907 c -1.751141,-0.49123 -3.060677,-1.9119 -3.361098,-3.64636 l -0.08249,-0.47625 h 0.884906 0.884906 l 0.152177,0.4611 c 0.307074,0.93044 1.375982,1.8111 2.430336,2.00231 1.070263,0.19409 2.429398,-0.5669 2.912647,-1.63082 0.585551,-1.28916 0.08584,-2.98111 -1.055905,-3.57516 -0.725814,-0.37764 -1.972032,-0.0998 -2.481233,0.55324 -0.139044,0.17832 -0.226945,0.14244 -0.762,-0.31107 -0.332653,-0.28195 -0.604824,-0.57515 -0.604824,-0.65156 0,-0.0764 0.957263,-1.16744 2.12725,-2.42451 1.169988,-1.25706 2.12725,-2.31684 2.12725,-2.35505 0,-0.0382 -1.057275,-0.0695 -2.3495,-0.0695 h -2.3495 v 0.889 0.889 h -0.889 -0.889 v -1.778 -1.778 h 4.445 4.445 l -7.11e-4,0.92075 -7.11e-4,0.92075 -1.45979,1.61229 c -0.802883,0.88675 -1.459788,1.64179 -1.459788,1.67785 0,0.0361 0.242888,0.1308 0.53975,0.21052 0.85888,0.23065 1.650049,0.89557 2.139404,1.79802 0.42111,0.7766 0.432285,0.83528 0.429985,2.25782 -0.0021,1.32642 -0.03381,1.52463 -0.344918,2.159 -0.514052,1.04819 -1.032471,1.59533 -1.93044,2.0374 -1.000106,0.49235 -2.399526,0.61526 -3.497702,0.30721 z"
       id="path3266"
       transform="translate(-1.0416666e-6,-1.1083333e-5)" />
  </g>
</svg>
