<?xml version="1.0" encoding="UTF-8" standalone="no"?>
<svg
   width="63.500004mm"
   height="88.899895mm"
   viewBox="142.0878 95.116776 63.500012 88.899887"
   version="1.1"
   id="svg10"
   sodipodi:docname="3D.svg"
   inkscape:version="1.1.1 (1:1.1+202109281949+c3084ef5ed)"
   inkscape:export-filename="/home/doug/k40/52Cards/IndividualColorCards/3D.png"
   inkscape:export-xdpi="300"
   inkscape:export-ydpi="300"
   xmlns:inkscape="http://www.inkscape.org/namespaces/inkscape"
   xmlns:sodipodi="http://sodipodi.sourceforge.net/DTD/sodipodi-0.dtd"
   xmlns="http://www.w3.org/2000/svg"
   xmlns:svg="http://www.w3.org/2000/svg">
  <defs
     id="defs14">
    <marker
       style="overflow:visible"
       id="marker2995"
       refX="0"
       refY="0"
       orient="auto"
       inkscape:stockid="Arrow1Lstart"
       inkscape:isstock="true">
      <path
         transform="matrix(0.8,0,0,0.8,10,0)"
         style="fill:#000000;fill-opacity:1;fill-rule:evenodd;stroke:#000000;stroke-width:1pt;stroke-opacity:1"
         d="M 0,0 5,-5 -12.5,0 5,5 Z"
         id="path2993" />
    </marker>
    <marker
       style="overflow:visible"
       id="marker2985"
       refX="0"
       refY="0"
       orient="auto"
       inkscape:stockid="Arrow1Lstart"
       inkscape:isstock="true">
      <path
         transform="matrix(0.8,0,0,0.8,10,0)"
         style="fill:#000000;fill-opacity:1;fill-rule:evenodd;stroke:#000000;stroke-width:1pt;stroke-opacity:1"
         d="M 0,0 5,-5 -12.5,0 5,5 Z"
         id="path2983" />
    </marker>
    <marker
       style="overflow:visible"
       id="marker2791"
       refX="0"
       refY="0"
       orient="auto"
       inkscape:stockid="Arrow1Lstart"
       inkscape:isstock="true">
      <path
         transform="matrix(0.8,0,0,0.8,10,0)"
         style="fill:#000000;fill-opacity:1;fill-rule:evenodd;stroke:#000000;stroke-width:1pt;stroke-opacity:1"
         d="M 0,0 5,-5 -12.5,0 5,5 Z"
         id="path2789" />
    </marker>
    <marker
       style="overflow:visible"
       id="marker2781"
       refX="0"
       refY="0"
       orient="auto"
       inkscape:stockid="Arrow1Lstart"
       inkscape:isstock="true">
      <path
         transform="matrix(0.8,0,0,0.8,10,0)"
         style="fill:#000000;fill-opacity:1;fill-rule:evenodd;stroke:#000000;stroke-width:1pt;stroke-opacity:1"
         d="M 0,0 5,-5 -12.5,0 5,5 Z"
         id="path2779" />
    </marker>
    <marker
       style="overflow:visible"
       id="marker2417"
       refX="0"
       refY="0"
       orient="auto"
       inkscape:stockid="Arrow1Lstart"
       inkscape:isstock="true">
      <path
         transform="matrix(0.8,0,0,0.8,10,0)"
         style="fill:#000000;fill-opacity:1;fill-rule:evenodd;stroke:#000000;stroke-width:1pt;stroke-opacity:1"
         d="M 0,0 5,-5 -12.5,0 5,5 Z"
         id="path2415" />
    </marker>
    <marker
       style="overflow:visible"
       id="marker2383"
       refX="0"
       refY="0"
       orient="auto"
       inkscape:stockid="Arrow1Lstart"
       inkscape:isstock="true">
      <path
         transform="matrix(0.8,0,0,0.8,10,0)"
         style="fill:#000000;fill-opacity:1;fill-rule:evenodd;stroke:#000000;stroke-width:1pt;stroke-opacity:1"
         d="M 0,0 5,-5 -12.5,0 5,5 Z"
         id="path2381" />
    </marker>
    <marker
       style="overflow:visible"
       id="marker2355"
       refX="0"
       refY="0"
       orient="auto"
       inkscape:stockid="Arrow1Lstart"
       inkscape:isstock="true">
      <path
         transform="matrix(0.8,0,0,0.8,10,0)"
         style="fill:#000000;fill-opacity:1;fill-rule:evenodd;stroke:#000000;stroke-width:1pt;stroke-opacity:1"
         d="M 0,0 5,-5 -12.5,0 5,5 Z"
         id="path2353" />
    </marker>
    <marker
       style="overflow:visible"
       id="Arrow1Lstart"
       refX="0"
       refY="0"
       orient="auto"
       inkscape:stockid="Arrow1Lstart"
       inkscape:isstock="true">
      <path
         transform="matrix(0.8,0,0,0.8,10,0)"
         style="fill:#000000;fill-opacity:1;fill-rule:evenodd;stroke:#000000;stroke-width:1pt;stroke-opacity:1"
         d="M 0,0 5,-5 -12.5,0 5,5 Z"
         id="path2071" />
    </marker>
  </defs>
  <sodipodi:namedview
     id="namedview12"
     pagecolor="#ffffff"
     bordercolor="#666666"
     borderopacity="1.0"
     inkscape:pageshadow="2"
     inkscape:pageopacity="0.0"
     inkscape:pagecheckerboard="0"
     inkscape:document-units="mm"
     showgrid="false"
     showborder="false"
     fit-margin-top="0"
     fit-margin-left="0"
     fit-margin-right="0"
     fit-margin-bottom="0"
     inkscape:zoom="1.2541666"
     inkscape:cx="120.00001"
     inkscape:cy="167.84054"
     inkscape:window-width="1366"
     inkscape:window-height="712"
     inkscape:window-x="0"
     inkscape:window-y="0"
     inkscape:window-maximized="1"
     inkscape:current-layer="layer6" />
  <g
     inkscape:groupmode="layer"
     id="layer1"
     inkscape:label="CardOutline"
     style="display:inline"
     transform="translate(94.217781,-340.71922)">
    <path
       id="path4-3"
       style="display:inline;fill:none;fill-rule:evenodd;stroke:#000000;stroke-width:0.25;stroke-miterlimit:4;stroke-dasharray:none;stroke-opacity:1"
       d="m 50.564743,435.96104 -0.534158,0.31687 c -0.688621,0.40844 -1.158412,0.85449 -1.590112,1.51001 l -0.346181,0.5258 -0.06384,25.43159 c -0.03506,13.98732 -0.046,32.74824 -0.02422,41.69094 0.03916,16.06607 0.04297,16.26663 0.30127,16.87005 h 2.54e-4 c 0.321831,0.75178 1.375871,1.69211 2.308962,2.06009 0.662802,0.26139 0.718825,0.26193 29.335815,0.23047 27.968057,-0.0307 28.683467,-0.0377 29.150357,-0.27706 0.72044,-0.36932 1.35524,-0.98173 1.76901,-1.70664 l 0.37116,-0.65029 9.8e-4,-41.53137 9.8e-4,-41.53137 -0.30833,-0.61121 c -0.3634,-0.72062 -1.20695,-1.59056 -1.92217,-1.98245 l -0.50968,-0.27931 -28.969947,-0.0331 z m 0.134234,0.49272 57.679013,0.0666 0.38933,0.21242 0.11632,0.0681 0.12061,0.0774 0.13902,0.0985 0.11304,0.0864 0.12364,0.1017 0.13751,0.12124 0.11153,0.10621 0.13145,0.13177 0.10774,0.11773 0.12692,0.13477 0.0918,0.11748 0.10345,0.13201 0.0951,0.13352 0.0785,0.11974 0.0739,0.12124 0.0603,0.11222 0.25661,0.50651 -0.003,82.81198 -0.30631,0.53682 -0.13726,0.22444 -0.18268,0.24876 -0.16754,0.20014 -0.19757,0.20466 -0.19327,0.17285 -0.23542,0.18336 -0.22481,0.1503 -0.2233,0.12574 -0.0212,0.0108 -0.0149,0.006 -0.0394,0.012 -0.027,0.006 -0.0507,0.01 -0.0277,0.004 -0.0606,0.008 -0.0573,0.008 -0.0679,0.006 -0.083,0.0105 -0.0868,0.004 -0.0913,0.006 -0.10698,0.007 -0.25056,0.012 -0.3048,0.0108 -0.3545,0.0105 -0.41809,0.009 -0.47538,0.009 -0.54929,0.008 -0.96108,0.0105 -1.14073,0.0108 -3.46459,0.0165 -34.84847,0.0471 -6.84314,-0.003 -1.74276,-0.004 -1.260078,-0.006 -1.065289,-0.008 -0.60506,-0.006 -0.534158,-0.008 -0.467798,-0.009 -0.401438,-0.009 -0.339623,-0.009 -0.289659,-0.012 -0.126666,-0.006 -0.11632,-0.006 -0.106979,-0.006 -0.08302,-0.006 -0.08302,-0.008 -0.07998,-0.006 -0.0545,-0.007 -0.10093,-0.0135 -0.09967,-0.0183 -0.03911,-0.009 -0.04844,-0.0138 -0.0376,-0.0135 -0.04692,-0.0183 -0.167539,-0.0726 -0.143315,-0.0699 -0.177886,-0.0985 -0.140542,-0.0864 -0.159971,-0.10773 -0.155176,-0.11372 -0.152651,-0.12124 -0.161231,-0.13803 -0.123887,-0.11372 -0.144835,-0.14729 -0.11026,-0.11974 -0.119098,-0.14253 -0.08604,-0.11374 -0.09361,-0.13951 -0.06485,-0.11098 -0.05601,-0.11974 -0.027,-0.0669 -0.03481,-0.10621 -0.0061,-0.027 -0.01211,-0.0669 -0.01338,-0.0939 -0.01514,-0.12124 -0.0044,-0.0531 -0.01362,-0.15632 -0.0099,-0.16206 -0.01133,-0.21243 -0.01059,-0.23947 -0.0088,-0.27305 -0.0091,-0.31236 -0.0076,-0.3532 -0.01059,-0.61573 -0.0091,-0.72319 -0.0106,-1.15404 -0.0106,-1.77404 -0.01641,-4.27149 -0.01968,-8.14897 -0.0061,-8.546 0.0015,-6.72963 0.0044,-7.16476 0.0091,-7.2692 0.01943,-9.71082 0.0651,-25.28355 0.257868,-0.39253 0.152402,-0.21993 0.166025,-0.21393 0.147862,-0.16834 0.169052,-0.17133 0.185708,-0.16508 0.168798,-0.13202 0.229612,-0.16082 0.227845,-0.14253 z"
       inkscape:export-filename="/home/doug/k40/52Cards/IndividualColorCards/2D.png"
       inkscape:export-xdpi="300"
       inkscape:export-ydpi="300" />
  </g>
  <g
     inkscape:groupmode="layer"
     id="layer2"
     inkscape:label="InnerRectangle"
     style="display:inline"
     transform="translate(94.217781,-340.71922)">
    <path
       id="path2-6"
       style="display:inline;fill:none;fill-rule:evenodd;stroke:#4c71a5;stroke-width:0.262609;stroke-opacity:1"
       d="m 63.13524,452.67467 0.0441,14.05596 c 0.0243,7.7307 0.0504,20.15551 0.0578,27.61093 l 0.0134,13.55547 16.409043,-0.0521 16.40903,-0.0519 0.0305,-24.32539 c 0.0169,-13.37898 -0.004,-25.78048 -0.0462,-27.55907 l -0.077,-3.23394 h -16.42035 z m 16.503153,0.25626 h 16.11155 l 0.005,0.73622 c 0.003,0.40503 0.0367,12.68075 0.0757,27.27927 l 0.0709,26.54279 -3.16634,0.004 c -1.74158,0.002 -8.99902,0.0153 -16.12745,0.0285 -7.12842,0.0133 -12.991523,-0.007 -13.029223,-0.0446 -0.0728,-0.0731 -0.16665,-54.20072 -0.0944,-54.4185 0.028,-0.0844 5.532343,-0.128 16.154193,-0.128 z"
       inkscape:export-filename="/home/doug/k40/52Cards/IndividualColorCards/2D.png"
       inkscape:export-xdpi="300"
       inkscape:export-ydpi="300" />
  </g>
  <g
     inkscape:groupmode="layer"
     id="layer5"
     inkscape:label="InnerSuit"
     style="display:inline"
     transform="translate(94.217781,-340.71922)">
    <path
       style="fill:#e40e1a;stroke-width:1"
       d="m 79.0862,465.28736 c -0.611539,-1.11724 -1.574728,-2.46468 -2.394615,-3.34989 l -0.654657,-0.70683 0.648165,-0.62455 c 0.688195,-0.66311 2.082945,-2.63751 2.573622,-3.64319 0.16201,-0.33205 0.328778,-0.60373 0.370596,-0.60373 0.04182,0 0.302353,0.41467 0.578965,0.92148 0.672198,1.23162 1.624783,2.55337 2.427695,3.36852 l 0.657594,0.66762 -0.782743,0.79404 c -0.917806,0.93105 -1.786495,2.12823 -2.35152,3.24073 -0.2219,0.43691 -0.448387,0.79438 -0.503301,0.79438 -0.05492,0 -0.311325,-0.38635 -0.569801,-0.85858 z"
       id="path2762" />
    <path
       style="fill:#e40e1a;stroke-width:1"
       d="m 79.181481,484.45149 c -0.578643,-1.12679 -1.494115,-2.42498 -2.319412,-3.28905 l -0.806831,-0.84474 0.770057,-0.82541 c 0.833272,-0.89316 1.960385,-2.49816 2.432776,-3.46425 0.162364,-0.33205 0.330069,-0.60373 0.372679,-0.60373 0.04261,0 0.207707,0.26452 0.366881,0.58782 0.480096,0.9751 1.622699,2.60565 2.439169,3.4808 l 0.769462,0.82477 -0.812309,0.85047 c -0.814283,0.85253 -1.631566,2.00108 -2.311586,3.24853 -0.200065,0.367 -0.411528,0.66728 -0.469918,0.66728 -0.05839,0 -0.252326,-0.28461 -0.430968,-0.63249 z"
       id="path2758" />
    <path
       style="fill:#e40e1a;stroke-width:1"
       d="m 79.199266,503.68636 c -0.52735,-1.06102 -1.638886,-2.67482 -2.438876,-3.54092 l -0.704398,-0.7626 0.776061,-0.8192 c 0.789142,-0.83302 1.937411,-2.48221 2.442414,-3.5079 0.153346,-0.31146 0.313673,-0.56629 0.356283,-0.56629 0.04261,0 0.211004,0.27168 0.374209,0.60373 0.517777,1.05345 1.687712,2.72397 2.472527,3.53046 l 0.758598,0.77955 -0.33953,0.30758 c -0.680146,0.61614 -1.848594,2.1753 -2.562248,3.41904 -0.401903,0.70044 -0.741525,1.27351 -0.754715,1.27351 -0.01319,0 -0.184336,-0.32262 -0.380325,-0.71696 z"
       id="path2754" />
  </g>
  <g
     inkscape:groupmode="layer"
     id="layer6"
     inkscape:label="OuterSuit"
     style="display:inline"
     transform="translate(94.217781,-340.71922)">
    <path
       style="display:inline;fill:#e40e1a;stroke-width:1"
       d="m 55.491416,470.75335 c -0.359526,-0.74717 -1.806167,-3.0733 -2.391118,-3.8448 -0.291513,-0.38448 -0.930354,-1.13497 -1.419649,-1.66776 l -0.889628,-0.96869 0.327786,-0.30231 c 1.216174,-1.12167 3.046717,-3.62883 4.103424,-5.62016 0.283371,-0.534 0.547938,-0.97153 0.587928,-0.97228 0.03999,-7.6e-4 0.322132,0.47049 0.626984,1.04721 1.080947,2.04495 3.103734,4.79099 4.097112,5.56204 l 0.316919,0.24599 -1.12202,1.24118 c -1.208727,1.33709 -2.399292,3.03501 -3.299218,4.70518 -0.310024,0.57536 -0.596417,1.04723 -0.636428,1.04858 -0.04001,10e-4 -0.175952,-0.21203 -0.302092,-0.47418 z"
       id="path2760"
       transform="translate(-1.0416666e-6,-1.1083333e-5)" />
    <path
       style="display:inline;fill:#e40e1a;stroke-width:1"
       d="m 102.57412,501.82756 c -0.93408,-1.72798 -2.04168,-3.26786 -3.249176,-4.51729 l -0.897488,-0.92867 0.956931,-1.01641 c 1.170023,-1.24275 2.250193,-2.77978 3.239013,-4.60895 l 0.74701,-1.38186 0.23496,0.3015 c 0.12923,0.16582 0.23625,0.34427 0.23783,0.39657 0.004,0.14335 1.60751,2.69942 2.25264,3.59152 0.3114,0.43062 0.96825,1.20649 1.45968,1.72416 l 0.8935,0.94124 -0.98674,1.08188 c -1.43926,1.57802 -2.19006,2.65117 -3.66915,5.24443 -0.18939,0.33206 -0.36699,0.60373 -0.39467,0.60373 -0.0277,0 -0.39863,-0.64433 -0.82434,-1.43185 z"
       id="path2756"
       transform="translate(-1.0416666e-6,-1.1083333e-5)" />
  </g>
  <g
     inkscape:groupmode="layer"
     id="layer3"
     inkscape:label="CardName"
     style="display:inline"
     transform="translate(94.217781,-340.71922)">
    <path
       style="display:inline;fill:#e40e1a;stroke-width:1"
       d="m 54.674898,454.00207 c -1.932663,-0.51354 -3.274479,-1.86362 -3.469826,-3.4912 l -0.07757,-0.64631 0.877099,0.038 c 0.868836,0.0376 0.878469,0.042 1.022474,0.46543 0.346525,1.01886 1.73063,2.04687 2.759835,2.0498 1.888709,0.005 3.257642,-1.68488 2.845273,-3.51313 -0.429916,-1.90604 -2.287837,-2.55181 -3.693875,-1.2839 l -0.283925,0.25604 -0.651531,-0.53828 -0.651531,-0.53828 0.410613,-0.46345 c 0.225838,-0.2549 1.197434,-1.28114 2.159102,-2.28055 0.961668,-0.99939 1.768251,-1.87293 1.792407,-1.9412 0.02782,-0.0787 -0.821978,-0.1114 -2.318488,-0.0895 l -2.362405,0.0347 -0.03822,0.8636 -0.03822,0.8636 -0.863417,-0.0374 -0.863416,-0.0374 v -1.71586 -1.71587 h 4.50817 4.508169 l 0.03845,0.79828 c 0.0447,0.92787 0.118126,0.81022 -1.731849,2.77456 -0.698012,0.74116 -1.286568,1.39316 -1.307902,1.44889 -0.02134,0.0558 0.193009,0.13996 0.476319,0.1872 1.057488,0.17629 2.060173,1.10474 2.541786,2.35358 0.326976,0.84786 0.292228,2.6453 -0.06916,3.57752 -0.812356,2.09552 -3.179341,3.20265 -5.518365,2.58114 z"
       id="path2764"
       transform="translate(-1.0416666e-6,-1.1083333e-5)" />
    <path
       style="display:inline;fill:#e40e1a;stroke-width:1"
       d="m 99.08187,519.36946 0.0016,-0.92149 0.612588,-0.6355 c 1.504092,-1.56036 2.369802,-2.60429 2.200192,-2.65313 -0.0965,-0.0278 -0.40992,-0.11303 -0.6965,-0.18943 -1.15154,-0.30702 -2.126789,-1.60014 -2.380853,-3.15686 -0.158005,-0.96814 0.108595,-2.49092 0.573002,-3.27288 0.411782,-0.69336 1.240371,-1.42689 1.991121,-1.76266 0.87669,-0.39211 2.87008,-0.37257 3.94032,0.0386 1.35837,0.5219 2.49466,1.8925 2.71956,3.28035 l 0.0867,0.53478 h -0.90787 -0.90786 l -0.0901,-0.40486 c -0.0535,-0.24049 -0.3586,-0.66981 -0.7514,-1.0574 -1.1653,-1.1499 -2.76194,-1.26907 -3.89144,-0.29048 -0.6725,0.58265 -0.95493,1.21924 -0.95493,2.1524 0,1.41399 0.71035,2.36353 1.86416,2.49186 0.68147,0.0758 1.3533,-0.13147 1.73887,-0.53646 l 0.29198,-0.3067 0.69304,0.51634 0.69305,0.51633 -0.35426,0.42024 c -0.19485,0.23113 -1.19471,1.29666 -2.22193,2.36784 l -1.86767,1.94759 2.3047,0.0348 c 1.26759,0.0191 2.32289,0.0168 2.3451,-0.005 0.0222,-0.0219 0.0574,-0.38075 0.0782,-0.79739 l 0.0378,-0.75754 0.86943,-0.0376 0.86943,-0.0376 v 1.72167 1.72167 h -4.44377 -4.443767 l 0.0016,-0.92148 z"
       id="path2568"
       transform="translate(-1.0416666e-6,-1.1083333e-5)" />
  </g>
</svg>
