<?xml version="1.0" encoding="UTF-8" standalone="no"?>
<svg
   width="63.500004mm"
   height="88.899895mm"
   viewBox="142.0878 95.116776 63.500012 88.899887"
   version="1.1"
   id="svg10"
   sodipodi:docname="3H.svg"
   inkscape:version="1.1.1 (1:1.1+202109281949+c3084ef5ed)"
   inkscape:export-filename="/home/doug/k40/52Cards/IndividualColorCards/3H.png"
   inkscape:export-xdpi="300"
   inkscape:export-ydpi="300"
   xmlns:inkscape="http://www.inkscape.org/namespaces/inkscape"
   xmlns:sodipodi="http://sodipodi.sourceforge.net/DTD/sodipodi-0.dtd"
   xmlns="http://www.w3.org/2000/svg"
   xmlns:svg="http://www.w3.org/2000/svg">
  <defs
     id="defs14">
    <marker
       style="overflow:visible"
       id="marker2995"
       refX="0"
       refY="0"
       orient="auto"
       inkscape:stockid="Arrow1Lstart"
       inkscape:isstock="true">
      <path
         transform="matrix(0.8,0,0,0.8,10,0)"
         style="fill:#000000;fill-opacity:1;fill-rule:evenodd;stroke:#000000;stroke-width:1pt;stroke-opacity:1"
         d="M 0,0 5,-5 -12.5,0 5,5 Z"
         id="path2993" />
    </marker>
    <marker
       style="overflow:visible"
       id="marker2985"
       refX="0"
       refY="0"
       orient="auto"
       inkscape:stockid="Arrow1Lstart"
       inkscape:isstock="true">
      <path
         transform="matrix(0.8,0,0,0.8,10,0)"
         style="fill:#000000;fill-opacity:1;fill-rule:evenodd;stroke:#000000;stroke-width:1pt;stroke-opacity:1"
         d="M 0,0 5,-5 -12.5,0 5,5 Z"
         id="path2983" />
    </marker>
    <marker
       style="overflow:visible"
       id="marker2791"
       refX="0"
       refY="0"
       orient="auto"
       inkscape:stockid="Arrow1Lstart"
       inkscape:isstock="true">
      <path
         transform="matrix(0.8,0,0,0.8,10,0)"
         style="fill:#000000;fill-opacity:1;fill-rule:evenodd;stroke:#000000;stroke-width:1pt;stroke-opacity:1"
         d="M 0,0 5,-5 -12.5,0 5,5 Z"
         id="path2789" />
    </marker>
    <marker
       style="overflow:visible"
       id="marker2781"
       refX="0"
       refY="0"
       orient="auto"
       inkscape:stockid="Arrow1Lstart"
       inkscape:isstock="true">
      <path
         transform="matrix(0.8,0,0,0.8,10,0)"
         style="fill:#000000;fill-opacity:1;fill-rule:evenodd;stroke:#000000;stroke-width:1pt;stroke-opacity:1"
         d="M 0,0 5,-5 -12.5,0 5,5 Z"
         id="path2779" />
    </marker>
    <marker
       style="overflow:visible"
       id="marker2417"
       refX="0"
       refY="0"
       orient="auto"
       inkscape:stockid="Arrow1Lstart"
       inkscape:isstock="true">
      <path
         transform="matrix(0.8,0,0,0.8,10,0)"
         style="fill:#000000;fill-opacity:1;fill-rule:evenodd;stroke:#000000;stroke-width:1pt;stroke-opacity:1"
         d="M 0,0 5,-5 -12.5,0 5,5 Z"
         id="path2415" />
    </marker>
    <marker
       style="overflow:visible"
       id="marker2383"
       refX="0"
       refY="0"
       orient="auto"
       inkscape:stockid="Arrow1Lstart"
       inkscape:isstock="true">
      <path
         transform="matrix(0.8,0,0,0.8,10,0)"
         style="fill:#000000;fill-opacity:1;fill-rule:evenodd;stroke:#000000;stroke-width:1pt;stroke-opacity:1"
         d="M 0,0 5,-5 -12.5,0 5,5 Z"
         id="path2381" />
    </marker>
    <marker
       style="overflow:visible"
       id="marker2355"
       refX="0"
       refY="0"
       orient="auto"
       inkscape:stockid="Arrow1Lstart"
       inkscape:isstock="true">
      <path
         transform="matrix(0.8,0,0,0.8,10,0)"
         style="fill:#000000;fill-opacity:1;fill-rule:evenodd;stroke:#000000;stroke-width:1pt;stroke-opacity:1"
         d="M 0,0 5,-5 -12.5,0 5,5 Z"
         id="path2353" />
    </marker>
    <marker
       style="overflow:visible"
       id="Arrow1Lstart"
       refX="0"
       refY="0"
       orient="auto"
       inkscape:stockid="Arrow1Lstart"
       inkscape:isstock="true">
      <path
         transform="matrix(0.8,0,0,0.8,10,0)"
         style="fill:#000000;fill-opacity:1;fill-rule:evenodd;stroke:#000000;stroke-width:1pt;stroke-opacity:1"
         d="M 0,0 5,-5 -12.5,0 5,5 Z"
         id="path2071" />
    </marker>
  </defs>
  <sodipodi:namedview
     id="namedview12"
     pagecolor="#ffffff"
     bordercolor="#666666"
     borderopacity="1.0"
     inkscape:pageshadow="2"
     inkscape:pageopacity="0.0"
     inkscape:pagecheckerboard="0"
     inkscape:document-units="mm"
     showgrid="false"
     showborder="false"
     fit-margin-top="0"
     fit-margin-left="0"
     fit-margin-right="0"
     fit-margin-bottom="0"
     inkscape:zoom="1.2541666"
     inkscape:cx="120.00001"
     inkscape:cy="167.84054"
     inkscape:window-width="1366"
     inkscape:window-height="712"
     inkscape:window-x="0"
     inkscape:window-y="0"
     inkscape:window-maximized="1"
     inkscape:current-layer="layer5" />
  <g
     inkscape:groupmode="layer"
     id="layer1"
     inkscape:label="CardOutline"
     style="display:inline"
     transform="translate(94.217781,-340.71922)">
    <path
       id="path4-3"
       style="display:inline;fill:none;fill-rule:evenodd;stroke:#000000;stroke-width:0.25;stroke-miterlimit:4;stroke-dasharray:none;stroke-opacity:1"
       d="m 50.564743,435.96104 -0.534158,0.31687 c -0.688621,0.40844 -1.158412,0.85449 -1.590112,1.51001 l -0.346181,0.5258 -0.06384,25.43159 c -0.03506,13.98732 -0.046,32.74824 -0.02422,41.69094 0.03916,16.06607 0.04297,16.26663 0.30127,16.87005 h 2.54e-4 c 0.321831,0.75178 1.375871,1.69211 2.308962,2.06009 0.662802,0.26139 0.718825,0.26193 29.335815,0.23047 27.968057,-0.0307 28.683467,-0.0377 29.150357,-0.27706 0.72044,-0.36932 1.35524,-0.98173 1.76901,-1.70664 l 0.37116,-0.65029 9.8e-4,-41.53137 9.8e-4,-41.53137 -0.30833,-0.61121 c -0.3634,-0.72062 -1.20695,-1.59056 -1.92217,-1.98245 l -0.50968,-0.27931 -28.969947,-0.0331 z m 0.134234,0.49272 57.679013,0.0666 0.38933,0.21242 0.11632,0.0681 0.12061,0.0774 0.13902,0.0985 0.11304,0.0864 0.12364,0.1017 0.13751,0.12124 0.11153,0.10621 0.13145,0.13177 0.10774,0.11773 0.12692,0.13477 0.0918,0.11748 0.10345,0.13201 0.0951,0.13352 0.0785,0.11974 0.0739,0.12124 0.0603,0.11222 0.25661,0.50651 -0.003,82.81198 -0.30631,0.53682 -0.13726,0.22444 -0.18268,0.24876 -0.16754,0.20014 -0.19757,0.20466 -0.19327,0.17285 -0.23542,0.18336 -0.22481,0.1503 -0.2233,0.12574 -0.0212,0.0108 -0.0149,0.006 -0.0394,0.012 -0.027,0.006 -0.0507,0.01 -0.0277,0.004 -0.0606,0.008 -0.0573,0.008 -0.0679,0.006 -0.083,0.0105 -0.0868,0.004 -0.0913,0.006 -0.10698,0.007 -0.25056,0.012 -0.3048,0.0108 -0.3545,0.0105 -0.41809,0.009 -0.47538,0.009 -0.54929,0.008 -0.96108,0.0105 -1.14073,0.0108 -3.46459,0.0165 -34.84847,0.0471 -6.84314,-0.003 -1.74276,-0.004 -1.260078,-0.006 -1.065289,-0.008 -0.60506,-0.006 -0.534158,-0.008 -0.467798,-0.009 -0.401438,-0.009 -0.339623,-0.009 -0.289659,-0.012 -0.126666,-0.006 -0.11632,-0.006 -0.106979,-0.006 -0.08302,-0.006 -0.08302,-0.008 -0.07998,-0.006 -0.0545,-0.007 -0.10093,-0.0135 -0.09967,-0.0183 -0.03911,-0.009 -0.04844,-0.0138 -0.0376,-0.0135 -0.04692,-0.0183 -0.167539,-0.0726 -0.143315,-0.0699 -0.177886,-0.0985 -0.140542,-0.0864 -0.159971,-0.10773 -0.155176,-0.11372 -0.152651,-0.12124 -0.161231,-0.13803 -0.123887,-0.11372 -0.144835,-0.14729 -0.11026,-0.11974 -0.119098,-0.14253 -0.08604,-0.11374 -0.09361,-0.13951 -0.06485,-0.11098 -0.05601,-0.11974 -0.027,-0.0669 -0.03481,-0.10621 -0.0061,-0.027 -0.01211,-0.0669 -0.01338,-0.0939 -0.01514,-0.12124 -0.0044,-0.0531 -0.01362,-0.15632 -0.0099,-0.16206 -0.01133,-0.21243 -0.01059,-0.23947 -0.0088,-0.27305 -0.0091,-0.31236 -0.0076,-0.3532 -0.01059,-0.61573 -0.0091,-0.72319 -0.0106,-1.15404 -0.0106,-1.77404 -0.01641,-4.27149 -0.01968,-8.14897 -0.0061,-8.546 0.0015,-6.72963 0.0044,-7.16476 0.0091,-7.2692 0.01943,-9.71082 0.0651,-25.28355 0.257868,-0.39253 0.152402,-0.21993 0.166025,-0.21393 0.147862,-0.16834 0.169052,-0.17133 0.185708,-0.16508 0.168798,-0.13202 0.229612,-0.16082 0.227845,-0.14253 z"
       inkscape:export-filename="/home/doug/k40/52Cards/IndividualColorCards/2D.png"
       inkscape:export-xdpi="300"
       inkscape:export-ydpi="300" />
  </g>
  <g
     inkscape:groupmode="layer"
     id="layer2"
     inkscape:label="InnerRectangle"
     style="display:inline"
     transform="translate(94.217781,-340.71922)">
    <path
       id="path2-6"
       style="display:inline;fill:none;fill-rule:evenodd;stroke:#4c71a5;stroke-width:0.262609;stroke-opacity:1"
       d="m 63.13524,452.67467 0.0441,14.05596 c 0.0243,7.7307 0.0504,20.15551 0.0578,27.61093 l 0.0134,13.55547 16.409043,-0.0521 16.40903,-0.0519 0.0305,-24.32539 c 0.0169,-13.37898 -0.004,-25.78048 -0.0462,-27.55907 l -0.077,-3.23394 h -16.42035 z m 16.503153,0.25626 h 16.11155 l 0.005,0.73622 c 0.003,0.40503 0.0367,12.68075 0.0757,27.27927 l 0.0709,26.54279 -3.16634,0.004 c -1.74158,0.002 -8.99902,0.0153 -16.12745,0.0285 -7.12842,0.0133 -12.991523,-0.007 -13.029223,-0.0446 -0.0728,-0.0731 -0.16665,-54.20072 -0.0944,-54.4185 0.028,-0.0844 5.532343,-0.128 16.154193,-0.128 z"
       inkscape:export-filename="/home/doug/k40/52Cards/IndividualColorCards/2D.png"
       inkscape:export-xdpi="300"
       inkscape:export-ydpi="300" />
  </g>
  <g
     inkscape:groupmode="layer"
     id="layer5"
     inkscape:label="InnerSuit"
     style="display:inline"
     transform="translate(94.217781,-340.71922)">
    <path
       style="fill:#e30c19;stroke-width:1"
       d="m 62.57253,458.92115 c 0,-0.035 0.02979,-0.0636 0.06619,-0.0636 0.0364,0 0.06619,0.0287 0.06619,0.0636 0,0.035 -0.02979,0.0636 -0.06619,0.0636 -0.03641,0 -0.06619,-0.0287 -0.06619,-0.0636 z"
       id="path2768" />
    <path
       style="fill:#e30c19;stroke-width:1"
       d="m 78.505096,463.46982 c -2.27286,-3.68921 -2.773203,-5.10369 -2.239563,-6.33128 0.398013,-0.91559 1.789886,-1.26191 2.561982,-0.63746 0.214564,0.17354 0.467485,0.49505 0.562047,0.71448 l 0.171932,0.39896 0.228624,-0.42832 c 0.400118,-0.74964 0.721009,-0.93702 1.604635,-0.93702 0.723316,0 0.82376,0.035 1.170393,0.40789 1.036732,1.11526 0.529336,2.91902 -1.951657,6.93801 -0.551483,0.89335 -1.00897,1.62426 -1.016637,1.62424 -0.0077,-2e-5 -0.498956,-0.78729 -1.091756,-1.7495 z"
       id="path2766" />
    <path
       style="fill:#e30c19;stroke-width:1"
       d="m 76.97014,484.48738 c -0.376326,-0.19626 -0.662925,-0.63083 -0.813153,-1.23297 -0.12755,-0.51125 0.239422,-1.86475 0.793012,-2.92486 0.665972,-1.27532 2.574819,-4.42312 2.679519,-4.41868 0.130454,0.006 2.361631,3.69192 2.81075,4.64397 0.601221,1.27448 0.825287,2.24031 0.654884,2.82287 -0.25736,0.87983 -0.826638,1.30884 -1.736759,1.30884 -0.70998,0 -1.187014,-0.29307 -1.442681,-0.88634 -0.09149,-0.21231 -0.21147,-0.38603 -0.266611,-0.38603 -0.05514,0 -0.175117,0.17372 -0.266612,0.38603 -0.256725,0.59572 -0.732593,0.88714 -1.439041,0.88125 -0.336015,-0.003 -0.774003,-0.0902 -0.973308,-0.19408 z"
       id="path2762" />
    <path
       style="fill:#e30c19;stroke-width:1"
       d="m 96.593295,503.83564 c 0,-0.035 0.02979,-0.0636 0.06619,-0.0636 0.0364,0 0.06619,0.0287 0.06619,0.0636 0,0.035 -0.02979,0.0636 -0.06619,0.0636 -0.03641,0 -0.06619,-0.0287 -0.06619,-0.0636 z"
       id="path2758" />
    <path
       style="fill:#e30c19;stroke-width:1"
       d="m 62.704906,504.21735 c 0,-0.035 0.02979,-0.0636 0.06619,-0.0636 0.03641,0 0.06619,0.0287 0.06619,0.0636 0,0.035 -0.02979,0.0636 -0.06619,0.0636 -0.0364,0 -0.06619,-0.0287 -0.06619,-0.0636 z"
       id="path2756" />
    <path
       style="fill:#e30c19;stroke-width:1"
       d="m 76.95059,504.14251 c -1.197636,-0.90548 -0.948006,-2.58275 0.83672,-5.62192 1.379251,-2.34871 1.794487,-3.01656 1.87628,-3.01775 0.11381,-0.002 1.973753,3.04031 2.606022,4.2622 0.601677,1.16277 0.953655,2.20559 0.953655,2.82542 0,1.0449 -0.761164,1.81811 -1.787083,1.8154 -0.747045,-0.002 -1.126587,-0.22986 -1.466949,-0.88079 l -0.295458,-0.56505 -0.194861,0.44826 c -0.107174,0.24654 -0.359038,0.57239 -0.559697,0.7241 -0.494641,0.37398 -1.480675,0.37905 -1.968629,0.0101 z"
       id="path2754" />
  </g>
  <g
     inkscape:groupmode="layer"
     id="layer6"
     inkscape:label="OuterSuit"
     style="display:inline"
     transform="translate(94.217781,-340.71922)">
    <path
       style="display:inline;fill:#e30c19;stroke-width:1"
       d="m 55.319301,468.87741 c -3.315898,-5.2969 -4.395905,-7.52287 -4.395905,-9.06031 0,-0.86408 0.218454,-1.40154 0.785254,-1.93195 0.581763,-0.54443 1.373852,-0.74939 2.134855,-0.55243 0.676348,0.17505 1.384077,0.82681 1.513677,1.39395 0.122135,0.53449 0.281704,0.57921 0.446404,0.12508 0.399329,-1.10103 1.416286,-1.74273 2.511657,-1.58484 0.474728,0.0684 0.733848,0.2063 1.16307,0.61886 1.485956,1.42825 0.983653,3.53397 -2.037721,8.54234 -1.127212,1.86852 -1.759614,2.86282 -1.820833,2.86282 -0.02288,0 -0.158081,-0.18609 -0.300458,-0.41352 z"
       id="path2764"
       transform="translate(-1.0416666e-6,-1.1083333e-5)" />
    <path
       style="display:inline;fill:#e30c19;stroke-width:1"
       d="m 100.07272,502.99673 c -0.23413,-0.14414 -0.561762,-0.4724 -0.728074,-0.72947 -0.451528,-0.69793 -0.413249,-2.29697 0.08421,-3.51787 0.415199,-1.019 1.651864,-3.37856 2.502394,-4.77458 0.31977,-0.52485 0.80126,-1.34075 1.06999,-1.81312 0.26872,-0.47237 0.53035,-0.85838 0.58139,-0.8578 0.0511,6.3e-4 0.21741,0.21529 0.3697,0.47714 0.15229,0.26185 0.7994,1.33493 1.43802,2.38463 1.46051,2.40064 2.06032,3.5509 2.51374,4.82062 0.864,2.41951 0.14814,4.11813 -1.7924,4.25304 -0.99203,0.0689 -1.72273,-0.29814 -2.1053,-1.05774 -0.14562,-0.28912 -0.26476,-0.59349 -0.26476,-0.67636 0,-0.28151 -0.23565,-0.15227 -0.32144,0.17628 -0.12702,0.48646 -0.62,1.1534 -1.02072,1.38092 -0.52515,0.29818 -1.79389,0.26235 -2.32676,-0.0657 z"
       id="path2760"
       transform="translate(-1.0416666e-6,-1.1083333e-5)" />
  </g>
  <g
     inkscape:groupmode="layer"
     id="layer3"
     inkscape:label="CardName"
     style="display:inline"
     transform="translate(94.217781,-340.71922)">
    <path
       style="display:inline;fill:#e30c19;stroke-width:1"
       d="m 54.865631,454.1445 c -0.909839,-0.14527 -1.979804,-0.65648 -2.694704,-1.28749 -0.725414,-0.64029 -1.379649,-1.85229 -1.379803,-2.55613 l -1.05e-4,-0.47714 h 0.864602 c 0.708904,0 0.877023,0.0401 0.933577,0.22266 0.644273,2.07985 2.980751,3.01293 4.688271,1.87228 0.836668,-0.55891 1.120225,-1.11388 1.163053,-2.2763 0.03248,-0.88142 -0.0054,-1.09916 -0.266769,-1.53257 -0.74961,-1.24316 -2.403874,-1.4658 -3.573144,-0.48092 -0.20667,0.17408 -0.28989,0.14651 -0.893541,-0.29596 -0.366107,-0.26836 -0.664322,-0.5191 -0.662701,-0.55721 0.0017,-0.0381 1.010009,-1.09772 2.240862,-2.3547 1.230855,-1.25699 2.210681,-2.3278 2.177392,-2.37957 -0.06957,-0.10819 -4.071622,-0.1274 -4.520483,-0.0217 -0.270201,0.0636 -0.297847,0.14562 -0.297847,0.88338 v 0.81325 h -0.926636 -0.926636 v -1.7177 -1.71769 h 4.633178 4.633179 v 0.85887 0.85886 l -1.290671,1.38437 c -0.70987,0.76139 -1.395463,1.5142 -1.523542,1.67289 l -0.23287,0.28853 0.663597,0.15302 c 0.813772,0.18764 1.834811,1.02227 2.223902,1.81788 0.716548,1.4652 0.666064,3.26128 -0.132128,4.70069 -0.869427,1.56788 -2.896343,2.4483 -4.900033,2.12839 z"
       id="path2770"
       transform="translate(-1.0416666e-6,-1.1083333e-5)" />
    <path
       style="display:inline;fill:#e30c19;stroke-width:1"
       d="m 99.207731,520.24125 c -0.05461,-0.054 -0.09928,-0.45689 -0.09928,-0.8954 v -0.79729 l 1.585839,-1.69443 1.58584,-1.69443 -0.60255,-0.14819 c -1.843364,-0.4534 -2.954291,-2.19281 -2.798229,-4.3813 0.204756,-2.87134 2.516969,-4.63779 5.475949,-4.18345 1.89764,0.29138 3.39758,1.47302 3.904,3.07556 0.18199,0.57589 0.23479,0.92949 0.15086,1.01017 -0.071,0.0682 -0.47975,0.1067 -0.90826,0.0854 l -0.77911,-0.0387 -0.29119,-0.59078 c -0.42245,-0.85709 -1.14545,-1.47682 -2.00215,-1.7162 -1.20363,-0.33632 -2.11912,-0.0813 -2.97414,0.82831 -1.693842,1.80208 -0.23973,4.92675 2.02051,4.34176 0.28518,-0.0738 0.6998,-0.28081 0.92136,-0.46 l 0.40283,-0.3258 0.6622,0.46722 c 0.36421,0.25697 0.66219,0.51554 0.66219,0.57461 0,0.059 -0.98289,1.11834 -2.18421,2.35396 -1.20132,1.23561 -2.18421,2.30023 -2.18421,2.36582 0,0.071 0.95061,0.10519 2.34968,0.0845 l 2.34969,-0.0348 0.0391,-0.85885 0.0391,-0.85884 h 0.92058 0.92059 v 1.71769 1.71769 l -1.75399,0.005 c -0.96469,0.003 -3.00495,0.0373 -4.53389,0.077 -1.52895,0.0397 -2.824586,0.028 -2.879192,-0.0259 z"
       id="path2568"
       transform="translate(-1.0416666e-6,-1.1083333e-5)" />
  </g>
</svg>
