<?xml version="1.0" encoding="UTF-8" standalone="no"?>
<svg
   width="63.500004mm"
   height="88.899895mm"
   viewBox="142.0878 95.116776 63.500012 88.899887"
   version="1.1"
   id="svg10"
   sodipodi:docname="3S.svg"
   inkscape:version="1.1.1 (1:1.1+202109281949+c3084ef5ed)"
   xmlns:inkscape="http://www.inkscape.org/namespaces/inkscape"
   xmlns:sodipodi="http://sodipodi.sourceforge.net/DTD/sodipodi-0.dtd"
   xmlns="http://www.w3.org/2000/svg"
   xmlns:svg="http://www.w3.org/2000/svg">
  <defs
     id="defs14">
    <marker
       style="overflow:visible"
       id="marker2995"
       refX="0"
       refY="0"
       orient="auto"
       inkscape:stockid="Arrow1Lstart"
       inkscape:isstock="true">
      <path
         transform="matrix(0.8,0,0,0.8,10,0)"
         style="fill:#000000;fill-opacity:1;fill-rule:evenodd;stroke:#000000;stroke-width:1pt;stroke-opacity:1"
         d="M 0,0 5,-5 -12.5,0 5,5 Z"
         id="path2993" />
    </marker>
    <marker
       style="overflow:visible"
       id="marker2985"
       refX="0"
       refY="0"
       orient="auto"
       inkscape:stockid="Arrow1Lstart"
       inkscape:isstock="true">
      <path
         transform="matrix(0.8,0,0,0.8,10,0)"
         style="fill:#000000;fill-opacity:1;fill-rule:evenodd;stroke:#000000;stroke-width:1pt;stroke-opacity:1"
         d="M 0,0 5,-5 -12.5,0 5,5 Z"
         id="path2983" />
    </marker>
    <marker
       style="overflow:visible"
       id="marker2791"
       refX="0"
       refY="0"
       orient="auto"
       inkscape:stockid="Arrow1Lstart"
       inkscape:isstock="true">
      <path
         transform="matrix(0.8,0,0,0.8,10,0)"
         style="fill:#000000;fill-opacity:1;fill-rule:evenodd;stroke:#000000;stroke-width:1pt;stroke-opacity:1"
         d="M 0,0 5,-5 -12.5,0 5,5 Z"
         id="path2789" />
    </marker>
    <marker
       style="overflow:visible"
       id="marker2781"
       refX="0"
       refY="0"
       orient="auto"
       inkscape:stockid="Arrow1Lstart"
       inkscape:isstock="true">
      <path
         transform="matrix(0.8,0,0,0.8,10,0)"
         style="fill:#000000;fill-opacity:1;fill-rule:evenodd;stroke:#000000;stroke-width:1pt;stroke-opacity:1"
         d="M 0,0 5,-5 -12.5,0 5,5 Z"
         id="path2779" />
    </marker>
    <marker
       style="overflow:visible"
       id="marker2417"
       refX="0"
       refY="0"
       orient="auto"
       inkscape:stockid="Arrow1Lstart"
       inkscape:isstock="true">
      <path
         transform="matrix(0.8,0,0,0.8,10,0)"
         style="fill:#000000;fill-opacity:1;fill-rule:evenodd;stroke:#000000;stroke-width:1pt;stroke-opacity:1"
         d="M 0,0 5,-5 -12.5,0 5,5 Z"
         id="path2415" />
    </marker>
    <marker
       style="overflow:visible"
       id="marker2383"
       refX="0"
       refY="0"
       orient="auto"
       inkscape:stockid="Arrow1Lstart"
       inkscape:isstock="true">
      <path
         transform="matrix(0.8,0,0,0.8,10,0)"
         style="fill:#000000;fill-opacity:1;fill-rule:evenodd;stroke:#000000;stroke-width:1pt;stroke-opacity:1"
         d="M 0,0 5,-5 -12.5,0 5,5 Z"
         id="path2381" />
    </marker>
    <marker
       style="overflow:visible"
       id="marker2355"
       refX="0"
       refY="0"
       orient="auto"
       inkscape:stockid="Arrow1Lstart"
       inkscape:isstock="true">
      <path
         transform="matrix(0.8,0,0,0.8,10,0)"
         style="fill:#000000;fill-opacity:1;fill-rule:evenodd;stroke:#000000;stroke-width:1pt;stroke-opacity:1"
         d="M 0,0 5,-5 -12.5,0 5,5 Z"
         id="path2353" />
    </marker>
    <marker
       style="overflow:visible"
       id="Arrow1Lstart"
       refX="0"
       refY="0"
       orient="auto"
       inkscape:stockid="Arrow1Lstart"
       inkscape:isstock="true">
      <path
         transform="matrix(0.8,0,0,0.8,10,0)"
         style="fill:#000000;fill-opacity:1;fill-rule:evenodd;stroke:#000000;stroke-width:1pt;stroke-opacity:1"
         d="M 0,0 5,-5 -12.5,0 5,5 Z"
         id="path2071" />
    </marker>
  </defs>
  <sodipodi:namedview
     id="namedview12"
     pagecolor="#ffffff"
     bordercolor="#666666"
     borderopacity="1.0"
     inkscape:pageshadow="2"
     inkscape:pageopacity="0.0"
     inkscape:pagecheckerboard="0"
     inkscape:document-units="mm"
     showgrid="false"
     showborder="false"
     fit-margin-top="0"
     fit-margin-left="0"
     fit-margin-right="0"
     fit-margin-bottom="0"
     inkscape:zoom="1.4874999"
     inkscape:cx="120.00001"
     inkscape:cy="167.7311"
     inkscape:window-width="1366"
     inkscape:window-height="712"
     inkscape:window-x="0"
     inkscape:window-y="0"
     inkscape:window-maximized="1"
     inkscape:current-layer="layer1" />
  <g
     inkscape:groupmode="layer"
     id="layer1"
     inkscape:label="CardOutline"
     style="display:inline"
     transform="translate(94.217781,-340.71922)">
    <path
       id="path4-3"
       style="display:inline;fill:none;fill-rule:evenodd;stroke:#000000;stroke-width:0.25;stroke-miterlimit:4;stroke-dasharray:none;stroke-opacity:1"
       d="m 50.564743,435.96104 -0.534158,0.31687 c -0.688621,0.40844 -1.158412,0.85449 -1.590112,1.51001 l -0.346181,0.5258 -0.06384,25.43159 c -0.03506,13.98732 -0.046,32.74824 -0.02422,41.69094 0.03916,16.06607 0.04297,16.26663 0.30127,16.87005 h 2.54e-4 c 0.321831,0.75178 1.375871,1.69211 2.308962,2.06009 0.662802,0.26139 0.718825,0.26193 29.335815,0.23047 27.968057,-0.0307 28.683467,-0.0377 29.150357,-0.27706 0.72044,-0.36932 1.35524,-0.98173 1.76901,-1.70664 l 0.37116,-0.65029 9.8e-4,-41.53137 9.8e-4,-41.53137 -0.30833,-0.61121 c -0.3634,-0.72062 -1.20695,-1.59056 -1.92217,-1.98245 l -0.50968,-0.27931 -28.969947,-0.0331 z m 0.134234,0.49272 57.679013,0.0666 0.38933,0.21242 0.11632,0.0681 0.12061,0.0774 0.13902,0.0985 0.11304,0.0864 0.12364,0.1017 0.13751,0.12124 0.11153,0.10621 0.13145,0.13177 0.10774,0.11773 0.12692,0.13477 0.0918,0.11748 0.10345,0.13201 0.0951,0.13352 0.0785,0.11974 0.0739,0.12124 0.0603,0.11222 0.25661,0.50651 -0.003,82.81198 -0.30631,0.53682 -0.13726,0.22444 -0.18268,0.24876 -0.16754,0.20014 -0.19757,0.20466 -0.19327,0.17285 -0.23542,0.18336 -0.22481,0.1503 -0.2233,0.12574 -0.0212,0.0108 -0.0149,0.006 -0.0394,0.012 -0.027,0.006 -0.0507,0.01 -0.0277,0.004 -0.0606,0.008 -0.0573,0.008 -0.0679,0.006 -0.083,0.0105 -0.0868,0.004 -0.0913,0.006 -0.10698,0.007 -0.25056,0.012 -0.3048,0.0108 -0.3545,0.0105 -0.41809,0.009 -0.47538,0.009 -0.54929,0.008 -0.96108,0.0105 -1.14073,0.0108 -3.46459,0.0165 -34.84847,0.0471 -6.84314,-0.003 -1.74276,-0.004 -1.260078,-0.006 -1.065289,-0.008 -0.60506,-0.006 -0.534158,-0.008 -0.467798,-0.009 -0.401438,-0.009 -0.339623,-0.009 -0.289659,-0.012 -0.126666,-0.006 -0.11632,-0.006 -0.106979,-0.006 -0.08302,-0.006 -0.08302,-0.008 -0.07998,-0.006 -0.0545,-0.007 -0.10093,-0.0135 -0.09967,-0.0183 -0.03911,-0.009 -0.04844,-0.0138 -0.0376,-0.0135 -0.04692,-0.0183 -0.167539,-0.0726 -0.143315,-0.0699 -0.177886,-0.0985 -0.140542,-0.0864 -0.159971,-0.10773 -0.155176,-0.11372 -0.152651,-0.12124 -0.161231,-0.13803 -0.123887,-0.11372 -0.144835,-0.14729 -0.11026,-0.11974 -0.119098,-0.14253 -0.08604,-0.11374 -0.09361,-0.13951 -0.06485,-0.11098 -0.05601,-0.11974 -0.027,-0.0669 -0.03481,-0.10621 -0.0061,-0.027 -0.01211,-0.0669 -0.01338,-0.0939 -0.01514,-0.12124 -0.0044,-0.0531 -0.01362,-0.15632 -0.0099,-0.16206 -0.01133,-0.21243 -0.01059,-0.23947 -0.0088,-0.27305 -0.0091,-0.31236 -0.0076,-0.3532 -0.01059,-0.61573 -0.0091,-0.72319 -0.0106,-1.15404 -0.0106,-1.77404 -0.01641,-4.27149 -0.01968,-8.14897 -0.0061,-8.546 0.0015,-6.72963 0.0044,-7.16476 0.0091,-7.2692 0.01943,-9.71082 0.0651,-25.28355 0.257868,-0.39253 0.152402,-0.21993 0.166025,-0.21393 0.147862,-0.16834 0.169052,-0.17133 0.185708,-0.16508 0.168798,-0.13202 0.229612,-0.16082 0.227845,-0.14253 z"
       inkscape:export-filename="/home/doug/k40/52Cards/IndividualColorCards/3S.png"
       inkscape:export-xdpi="300"
       inkscape:export-ydpi="300" />
  </g>
  <g
     inkscape:groupmode="layer"
     id="layer2"
     inkscape:label="InnerRectangle"
     style="display:inline"
     transform="translate(94.217781,-340.71922)">
    <path
       id="path2-6"
       style="display:inline;fill:none;fill-rule:evenodd;stroke:#4c71a5;stroke-width:0.262609;stroke-opacity:1"
       d="m 63.13524,452.67467 0.0441,14.05596 c 0.0243,7.7307 0.0504,20.15551 0.0578,27.61093 l 0.0134,13.55547 16.409043,-0.0521 16.40903,-0.0519 0.0305,-24.32539 c 0.0169,-13.37898 -0.004,-25.78048 -0.0462,-27.55907 l -0.077,-3.23394 h -16.42035 z m 16.503153,0.25626 h 16.11155 l 0.005,0.73622 c 0.003,0.40503 0.0367,12.68075 0.0757,27.27927 l 0.0709,26.54279 -3.16634,0.004 c -1.74158,0.002 -8.99902,0.0153 -16.12745,0.0285 -7.12842,0.0133 -12.991523,-0.007 -13.029223,-0.0446 -0.0728,-0.0731 -0.16665,-54.20072 -0.0944,-54.4185 0.028,-0.0844 5.532343,-0.128 16.154193,-0.128 z"
       inkscape:export-filename="/home/doug/k40/52Cards/IndividualColorCards/2D.png"
       inkscape:export-xdpi="300"
       inkscape:export-ydpi="300" />
  </g>
  <g
     inkscape:groupmode="layer"
     id="layer5"
     inkscape:label="InnerSuit"
     style="display:inline"
     transform="translate(94.217781,-340.71922)">
    <path
       style="fill:#18100a;stroke-width:1"
       d="m 78.823742,465.77425 c 0.304713,-0.58902 0.646713,-1.73676 0.646713,-2.17035 v -0.34469 l -0.427741,0.4211 c -0.579389,0.57039 -1.195372,0.6763 -1.921322,0.33033 -0.702734,-0.3349 -0.999571,-0.82282 -0.999571,-1.64299 0,-0.80212 0.491078,-1.7619 1.779354,-3.47761 0.511006,-0.68055 1.107091,-1.52214 1.324634,-1.8702 0.404382,-0.647 0.554984,-0.75413 0.666822,-0.47435 0.03485,0.0872 0.625778,0.92876 1.313186,1.87021 2.215767,3.03461 2.568964,4.13262 1.668304,5.18637 -0.672588,0.78692 -1.757489,0.78412 -2.586229,-0.007 l -0.410674,-0.39185 0.07169,0.55401 c 0.07397,0.57169 0.594304,2.07389 0.804875,2.32367 0.08606,0.10209 -0.197508,0.14131 -1.021413,0.14131 h -1.140545 l 0.231918,-0.4483 z"
       id="path2768" />
    <path
       style="fill:#18100a;stroke-width:1"
       d="m 78.632284,483.76254 c -2.256199,-3.08318 -2.303898,-3.15974 -2.520633,-4.04551 -0.23325,-0.95327 0.433299,-2.05758 1.319186,-2.18558 0.653913,-0.0944 1.300732,0.10988 1.685439,0.53253 0.337259,0.37052 0.35411,0.37539 0.352654,0.10183 -0.0023,-0.44782 -0.336674,-1.57675 -0.632161,-2.13485 -0.147326,-0.27827 -0.267866,-0.51843 -0.267866,-0.53372 0,-0.0153 0.493276,-0.0277 1.096169,-0.0277 0.683946,0 1.074156,0.0477 1.037628,0.12679 -0.389713,0.84408 -0.705641,1.76435 -0.777463,2.26469 l -0.08848,0.61639 0.44846,-0.4415 c 1.369217,-1.34796 3.404131,-0.0968 2.920841,1.79582 -0.183276,0.71773 -0.437677,1.13995 -1.611698,2.67485 -0.506732,0.6625 -1.142159,1.53262 -1.412056,1.93361 -0.269901,0.40098 -0.497468,0.72906 -0.505708,0.72906 -0.0082,0 -0.478179,-0.63298 -1.044312,-1.40662 z"
       id="path2748" />
    <path
       style="fill:#18100a;stroke-width:1"
       d="m 79.034182,503.47327 c -0.318141,-0.47849 -0.927956,-1.32644 -1.355143,-1.88433 -1.418617,-1.85267 -1.874092,-2.98537 -1.567824,-3.89895 0.409217,-1.22069 1.982894,-1.56837 2.920568,-0.64525 0.241272,0.23752 0.437819,0.35863 0.436772,0.26914 -0.005,-0.42112 -0.414353,-1.81412 -0.691395,-2.35234 l -0.308757,-0.59984 h 1.146419 c 0.717445,0 1.124515,0.0474 1.087878,0.1268 -0.441841,0.95697 -0.715843,1.77626 -0.784488,2.34568 l -0.08407,0.69736 0.339196,-0.40771 c 0.747982,-0.89908 2.319144,-0.77206 2.845526,0.23005 0.486685,0.92653 0.107033,2.16918 -1.186431,3.88332 -0.409086,0.54214 -1.075896,1.46278 -1.481803,2.04588 l -0.738009,1.06018 z"
       id="path2742" />
  </g>
  <g
     inkscape:groupmode="layer"
     id="layer6"
     inkscape:label="OuterSuit"
     style="display:inline"
     transform="translate(94.217781,-340.71922)">
    <path
       style="display:inline;fill:#18100a;stroke-width:1"
       d="m 54.672048,470.4894 c 0.442835,-0.86868 0.745452,-1.91724 0.885925,-3.06972 l 0.06935,-0.56894 -0.467339,0.55388 c -0.549137,0.65082 -1.081844,0.90098 -1.918621,0.90098 -1.255316,0 -2.249625,-0.87504 -2.423383,-2.13272 -0.175895,-1.27312 0.471359,-2.53471 3.059935,-5.96423 0.545278,-0.72242 1.198809,-1.6496 1.452292,-2.0604 0.253483,-0.4108 0.500149,-0.7468 0.548149,-0.74667 0.048,1.2e-4 0.260171,0.26963 0.471495,0.59891 0.211324,0.32929 1.1323,1.62723 2.046614,2.88433 1.927716,2.65044 2.401752,3.54151 2.495464,4.69084 0.05407,0.66317 0.01463,0.91058 -0.221762,1.39134 -0.437558,0.88983 -1.016017,1.25983 -2.05006,1.31126 -1.028557,0.0511 -1.593176,-0.19973 -2.074911,-0.92197 -0.30815,-0.462 -0.323642,-0.46927 -0.360574,-0.16917 -0.06903,0.56096 0.347642,2.16531 0.812799,3.12959 0.250001,0.51825 0.437311,0.95924 0.416248,0.97998 -0.02106,0.0208 -0.297534,-0.0213 -0.614377,-0.0933 -0.546883,-0.12435 -1.647301,-0.0778 -2.28718,0.0968 -0.284125,0.0776 -0.27856,0.0493 0.159939,-0.81086 z"
       id="path2766"
       transform="translate(-1.0416666e-6,-1.1083333e-5)" />
    <path
       style="display:inline;fill:#18100a;stroke-width:1"
       d="m 102.84926,502.44916 c -0.28183,-0.46589 -1.14098,-1.67736 -1.90922,-2.69216 -2.155075,-2.84673 -2.841054,-4.48428 -2.413166,-5.76065 0.460034,-1.37228 2.116366,-2.11618 3.350186,-1.50467 0.24601,0.12194 0.64462,0.47817 0.88578,0.79163 l 0.43849,0.56993 -0.0904,-0.69673 c -0.13458,-1.03684 -0.56881,-2.52495 -0.92017,-3.15347 -0.1706,-0.30516 -0.31018,-0.56191 -0.31018,-0.57057 0,-0.009 0.69548,-0.0158 1.54552,-0.0158 0.85004,0 1.54553,0.0184 1.54553,0.0408 0,0.0225 -0.13981,0.27921 -0.31068,0.57057 -0.40632,0.69284 -0.79455,1.9721 -0.91113,3.00224 l -0.0933,0.82416 0.39822,-0.53543 c 0.71046,-0.95526 1.87692,-1.29372 2.94477,-0.85447 0.95461,0.39267 1.44951,1.16164 1.44951,2.25224 0,1.36981 -0.47983,2.31715 -2.58163,5.09696 -0.68545,0.90657 -1.52367,2.06197 -1.8627,2.56757 -0.33903,0.50559 -0.6224,0.91826 -0.62972,0.91704 -0.007,-0.001 -0.24389,-0.3834 -0.52571,-0.84928 z"
       id="path2744"
       transform="translate(-1.0416666e-6,-1.1083333e-5)" />
  </g>
  <g
     inkscape:groupmode="layer"
     id="layer3"
     inkscape:label="CardName"
     style="display:inline"
     transform="translate(94.217781,-340.71922)">
    <path
       style="display:inline;fill:#18100a;stroke-width:1"
       d="m 54.617527,454.03691 c -1.778405,-0.49169 -3.347829,-2.1993 -3.351613,-3.6467 l -0.0012,-0.48128 0.861618,0.0375 c 0.859872,0.0374 0.861847,0.0383 0.973861,0.46562 0.06557,0.25012 0.390097,0.70116 0.7805,1.08477 0.847171,0.83243 1.586596,1.07495 2.624196,0.86068 0.834541,-0.17232 1.288574,-0.47224 1.787148,-1.18051 0.311289,-0.44221 0.382652,-0.68648 0.418849,-1.43362 0.02926,-0.60387 -0.01997,-1.04682 -0.149402,-1.34437 -0.628584,-1.4451 -2.340002,-1.84889 -3.443788,-0.81253 l -0.332811,0.31248 -0.665808,-0.52189 -0.665808,-0.52189 0.290254,-0.35688 c 0.15964,-0.19628 1.145122,-1.23937 2.189959,-2.318 1.044839,-1.07861 1.899706,-1.99709 1.899706,-2.04105 0,-0.0439 -1.072207,-0.08 -2.382682,-0.08 h -2.382681 v 0.89335 0.89335 l -0.869357,-0.0374 -0.869357,-0.0375 -0.03584,-1.74504 -0.03584,-1.74504 4.54362,0.0333 4.543619,0.0333 0.03859,0.80182 c 0.04347,0.90315 0.231773,0.61689 -1.961358,2.98171 -0.571716,0.61647 -1.05694,1.16727 -1.078272,1.22399 -0.02134,0.0567 0.190942,0.14135 0.471722,0.18805 1.021921,0.16998 2.110906,1.1836 2.533541,2.35822 0.268646,0.74663 0.278455,2.29038 0.02008,3.16027 -0.407663,1.37251 -1.40298,2.46142 -2.641595,2.88999 -0.764216,0.26442 -2.308607,0.30676 -3.109785,0.0853 z"
       id="path2774"
       transform="translate(-1.0416666e-6,-1.1083333e-5)" />
    <path
       style="display:inline;fill:#18100a;stroke-width:1"
       d="m 99.052571,519.37175 0.0055,-0.91925 1.475639,-1.57955 c 0.8116,-0.86875 1.47564,-1.61841 1.47564,-1.6659 0,-0.0475 -0.21534,-0.12613 -0.47853,-0.17475 -0.96315,-0.17788 -1.757492,-0.82427 -2.333777,-1.89911 -0.311455,-0.58091 -0.343135,-0.76876 -0.343135,-2.03472 0,-1.26232 0.03427,-1.46697 0.360914,-2.1555 0.437736,-0.92269 1.096588,-1.61992 1.957368,-2.07136 0.58516,-0.30688 0.77335,-0.33772 2.0607,-0.33772 1.26493,0 1.49504,0.0362 2.14765,0.33733 1.41171,0.65151 2.45865,1.92702 2.63779,3.21368 l 0.0793,0.56979 h -0.91906 c -0.79995,0 -0.91906,-0.0297 -0.91906,-0.22877 0,-0.12581 -0.1707,-0.49376 -0.37934,-0.81764 -0.53469,-0.83003 -1.49906,-1.3599 -2.47793,-1.36148 -0.4027,-6.4e-4 -0.87441,0.052 -1.04824,0.11711 -0.48736,0.18241 -1.2343,0.88313 -1.51141,1.41786 -0.477,0.92048 -0.23068,2.56334 0.47709,3.18206 0.79073,0.69125 1.84729,0.72936 2.73183,0.0985 l 0.5063,-0.36107 0.65387,0.46651 c 0.35962,0.25658 0.65557,0.49507 0.65766,0.52998 0.002,0.0349 -0.98038,1.09046 -2.18325,2.34568 -1.20287,1.25522 -2.18814,2.32501 -2.18949,2.37731 -0.001,0.0523 1.04078,0.0951 2.31583,0.0951 h 2.31829 l 0.0181,-0.41208 c 0.01,-0.22665 0.0244,-0.61179 0.0322,-0.85586 l 0.0141,-0.44378 0.86936,-0.0375 0.86936,-0.0375 v 1.78091 1.78091 h -4.44338 -4.443377 l 0.0055,-0.91926 z"
       id="path2552"
       transform="translate(-1.0416666e-6,-1.1083333e-5)" />
  </g>
</svg>
