<?xml version="1.0" encoding="UTF-8" standalone="no"?>
<svg
   width="63.500004mm"
   height="88.899895mm"
   viewBox="142.0878 95.116776 63.500012 88.899887"
   version="1.1"
   id="svg10"
   sodipodi:docname="4C.svg"
   inkscape:version="1.1.1 (1:1.1+202109281949+c3084ef5ed)"
   inkscape:export-filename="/home/doug/k40/52Cards/IndividualColorCards/4C.png"
   inkscape:export-xdpi="300"
   inkscape:export-ydpi="300"
   xmlns:inkscape="http://www.inkscape.org/namespaces/inkscape"
   xmlns:sodipodi="http://sodipodi.sourceforge.net/DTD/sodipodi-0.dtd"
   xmlns="http://www.w3.org/2000/svg"
   xmlns:svg="http://www.w3.org/2000/svg">
  <defs
     id="defs14">
    <marker
       style="overflow:visible"
       id="marker2995"
       refX="0"
       refY="0"
       orient="auto"
       inkscape:stockid="Arrow1Lstart"
       inkscape:isstock="true">
      <path
         transform="matrix(0.8,0,0,0.8,10,0)"
         style="fill:#000000;fill-opacity:1;fill-rule:evenodd;stroke:#000000;stroke-width:1pt;stroke-opacity:1"
         d="M 0,0 5,-5 -12.5,0 5,5 Z"
         id="path2993" />
    </marker>
    <marker
       style="overflow:visible"
       id="marker2985"
       refX="0"
       refY="0"
       orient="auto"
       inkscape:stockid="Arrow1Lstart"
       inkscape:isstock="true">
      <path
         transform="matrix(0.8,0,0,0.8,10,0)"
         style="fill:#000000;fill-opacity:1;fill-rule:evenodd;stroke:#000000;stroke-width:1pt;stroke-opacity:1"
         d="M 0,0 5,-5 -12.5,0 5,5 Z"
         id="path2983" />
    </marker>
    <marker
       style="overflow:visible"
       id="marker2791"
       refX="0"
       refY="0"
       orient="auto"
       inkscape:stockid="Arrow1Lstart"
       inkscape:isstock="true">
      <path
         transform="matrix(0.8,0,0,0.8,10,0)"
         style="fill:#000000;fill-opacity:1;fill-rule:evenodd;stroke:#000000;stroke-width:1pt;stroke-opacity:1"
         d="M 0,0 5,-5 -12.5,0 5,5 Z"
         id="path2789" />
    </marker>
    <marker
       style="overflow:visible"
       id="marker2781"
       refX="0"
       refY="0"
       orient="auto"
       inkscape:stockid="Arrow1Lstart"
       inkscape:isstock="true">
      <path
         transform="matrix(0.8,0,0,0.8,10,0)"
         style="fill:#000000;fill-opacity:1;fill-rule:evenodd;stroke:#000000;stroke-width:1pt;stroke-opacity:1"
         d="M 0,0 5,-5 -12.5,0 5,5 Z"
         id="path2779" />
    </marker>
    <marker
       style="overflow:visible"
       id="marker2417"
       refX="0"
       refY="0"
       orient="auto"
       inkscape:stockid="Arrow1Lstart"
       inkscape:isstock="true">
      <path
         transform="matrix(0.8,0,0,0.8,10,0)"
         style="fill:#000000;fill-opacity:1;fill-rule:evenodd;stroke:#000000;stroke-width:1pt;stroke-opacity:1"
         d="M 0,0 5,-5 -12.5,0 5,5 Z"
         id="path2415" />
    </marker>
    <marker
       style="overflow:visible"
       id="marker2383"
       refX="0"
       refY="0"
       orient="auto"
       inkscape:stockid="Arrow1Lstart"
       inkscape:isstock="true">
      <path
         transform="matrix(0.8,0,0,0.8,10,0)"
         style="fill:#000000;fill-opacity:1;fill-rule:evenodd;stroke:#000000;stroke-width:1pt;stroke-opacity:1"
         d="M 0,0 5,-5 -12.5,0 5,5 Z"
         id="path2381" />
    </marker>
    <marker
       style="overflow:visible"
       id="marker2355"
       refX="0"
       refY="0"
       orient="auto"
       inkscape:stockid="Arrow1Lstart"
       inkscape:isstock="true">
      <path
         transform="matrix(0.8,0,0,0.8,10,0)"
         style="fill:#000000;fill-opacity:1;fill-rule:evenodd;stroke:#000000;stroke-width:1pt;stroke-opacity:1"
         d="M 0,0 5,-5 -12.5,0 5,5 Z"
         id="path2353" />
    </marker>
    <marker
       style="overflow:visible"
       id="Arrow1Lstart"
       refX="0"
       refY="0"
       orient="auto"
       inkscape:stockid="Arrow1Lstart"
       inkscape:isstock="true">
      <path
         transform="matrix(0.8,0,0,0.8,10,0)"
         style="fill:#000000;fill-opacity:1;fill-rule:evenodd;stroke:#000000;stroke-width:1pt;stroke-opacity:1"
         d="M 0,0 5,-5 -12.5,0 5,5 Z"
         id="path2071" />
    </marker>
  </defs>
  <sodipodi:namedview
     id="namedview12"
     pagecolor="#ffffff"
     bordercolor="#666666"
     borderopacity="1.0"
     inkscape:pageshadow="2"
     inkscape:pageopacity="0.0"
     inkscape:pagecheckerboard="0"
     inkscape:document-units="mm"
     showgrid="false"
     showborder="false"
     fit-margin-top="0"
     fit-margin-left="0"
     fit-margin-right="0"
     fit-margin-bottom="0"
     inkscape:zoom="1.3124999"
     inkscape:cx="118.09525"
     inkscape:cy="168.00001"
     inkscape:window-width="1366"
     inkscape:window-height="712"
     inkscape:window-x="0"
     inkscape:window-y="0"
     inkscape:window-maximized="1"
     inkscape:current-layer="layer5" />
  <g
     inkscape:groupmode="layer"
     id="layer1"
     inkscape:label="CardOutline"
     style="display:inline"
     transform="translate(94.217781,-340.71922)">
    <path
       id="path4-3"
       style="display:inline;fill:none;fill-rule:evenodd;stroke:#000000;stroke-width:0.25;stroke-miterlimit:4;stroke-dasharray:none;stroke-opacity:1"
       d="m 50.564743,435.96104 -0.534158,0.31687 c -0.688621,0.40844 -1.158412,0.85449 -1.590112,1.51001 l -0.346181,0.5258 -0.06384,25.43159 c -0.03506,13.98732 -0.046,32.74824 -0.02422,41.69094 0.03916,16.06607 0.04297,16.26663 0.30127,16.87005 h 2.54e-4 c 0.321831,0.75178 1.375871,1.69211 2.308962,2.06009 0.662802,0.26139 0.718825,0.26193 29.335815,0.23047 27.968057,-0.0307 28.683467,-0.0377 29.150357,-0.27706 0.72044,-0.36932 1.35524,-0.98173 1.76901,-1.70664 l 0.37116,-0.65029 9.8e-4,-41.53137 9.8e-4,-41.53137 -0.30833,-0.61121 c -0.3634,-0.72062 -1.20695,-1.59056 -1.92217,-1.98245 l -0.50968,-0.27931 -28.969947,-0.0331 z m 0.134234,0.49272 57.679013,0.0666 0.38933,0.21242 0.11632,0.0681 0.12061,0.0774 0.13902,0.0985 0.11304,0.0864 0.12364,0.1017 0.13751,0.12124 0.11153,0.10621 0.13145,0.13177 0.10774,0.11773 0.12692,0.13477 0.0918,0.11748 0.10345,0.13201 0.0951,0.13352 0.0785,0.11974 0.0739,0.12124 0.0603,0.11222 0.25661,0.50651 -0.003,82.81198 -0.30631,0.53682 -0.13726,0.22444 -0.18268,0.24876 -0.16754,0.20014 -0.19757,0.20466 -0.19327,0.17285 -0.23542,0.18336 -0.22481,0.1503 -0.2233,0.12574 -0.0212,0.0108 -0.0149,0.006 -0.0394,0.012 -0.027,0.006 -0.0507,0.01 -0.0277,0.004 -0.0606,0.008 -0.0573,0.008 -0.0679,0.006 -0.083,0.0105 -0.0868,0.004 -0.0913,0.006 -0.10698,0.007 -0.25056,0.012 -0.3048,0.0108 -0.3545,0.0105 -0.41809,0.009 -0.47538,0.009 -0.54929,0.008 -0.96108,0.0105 -1.14073,0.0108 -3.46459,0.0165 -34.84847,0.0471 -6.84314,-0.003 -1.74276,-0.004 -1.260078,-0.006 -1.065289,-0.008 -0.60506,-0.006 -0.534158,-0.008 -0.467798,-0.009 -0.401438,-0.009 -0.339623,-0.009 -0.289659,-0.012 -0.126666,-0.006 -0.11632,-0.006 -0.106979,-0.006 -0.08302,-0.006 -0.08302,-0.008 -0.07998,-0.006 -0.0545,-0.007 -0.10093,-0.0135 -0.09967,-0.0183 -0.03911,-0.009 -0.04844,-0.0138 -0.0376,-0.0135 -0.04692,-0.0183 -0.167539,-0.0726 -0.143315,-0.0699 -0.177886,-0.0985 -0.140542,-0.0864 -0.159971,-0.10773 -0.155176,-0.11372 -0.152651,-0.12124 -0.161231,-0.13803 -0.123887,-0.11372 -0.144835,-0.14729 -0.11026,-0.11974 -0.119098,-0.14253 -0.08604,-0.11374 -0.09361,-0.13951 -0.06485,-0.11098 -0.05601,-0.11974 -0.027,-0.0669 -0.03481,-0.10621 -0.0061,-0.027 -0.01211,-0.0669 -0.01338,-0.0939 -0.01514,-0.12124 -0.0044,-0.0531 -0.01362,-0.15632 -0.0099,-0.16206 -0.01133,-0.21243 -0.01059,-0.23947 -0.0088,-0.27305 -0.0091,-0.31236 -0.0076,-0.3532 -0.01059,-0.61573 -0.0091,-0.72319 -0.0106,-1.15404 -0.0106,-1.77404 -0.01641,-4.27149 -0.01968,-8.14897 -0.0061,-8.546 0.0015,-6.72963 0.0044,-7.16476 0.0091,-7.2692 0.01943,-9.71082 0.0651,-25.28355 0.257868,-0.39253 0.152402,-0.21993 0.166025,-0.21393 0.147862,-0.16834 0.169052,-0.17133 0.185708,-0.16508 0.168798,-0.13202 0.229612,-0.16082 0.227845,-0.14253 z"
       inkscape:export-filename="/home/doug/k40/52Cards/IndividualColorCards/2D.png"
       inkscape:export-xdpi="300"
       inkscape:export-ydpi="300" />
  </g>
  <g
     inkscape:groupmode="layer"
     id="layer2"
     inkscape:label="InnerRectangle"
     style="display:inline"
     transform="translate(94.217781,-340.71922)">
    <path
       id="path2-6"
       style="display:inline;fill:none;fill-rule:evenodd;stroke:#4c71a5;stroke-width:0.262609;stroke-opacity:1"
       d="m 63.13524,452.67467 0.0441,14.05596 c 0.0243,7.7307 0.0504,20.15551 0.0578,27.61093 l 0.0134,13.55547 16.409043,-0.0521 16.40903,-0.0519 0.0305,-24.32539 c 0.0169,-13.37898 -0.004,-25.78048 -0.0462,-27.55907 l -0.077,-3.23394 h -16.42035 z m 16.503153,0.25626 h 16.11155 l 0.005,0.73622 c 0.003,0.40503 0.0367,12.68075 0.0757,27.27927 l 0.0709,26.54279 -3.16634,0.004 c -1.74158,0.002 -8.99902,0.0153 -16.12745,0.0285 -7.12842,0.0133 -12.991523,-0.007 -13.029223,-0.0446 -0.0728,-0.0731 -0.16665,-54.20072 -0.0944,-54.4185 0.028,-0.0844 5.532343,-0.128 16.154193,-0.128 z"
       inkscape:export-filename="/home/doug/k40/52Cards/IndividualColorCards/2D.png"
       inkscape:export-xdpi="300"
       inkscape:export-ydpi="300" />
  </g>
  <g
     inkscape:groupmode="layer"
     id="layer5"
     inkscape:label="InnerSuit"
     style="display:inline"
     transform="translate(94.217781,-340.71922)">
    <path
       style="display:inline;fill:#1a120b;stroke-width:1"
       d="m 88.561579,464.58282 c 0.40813,-0.80727 0.703662,-1.8658 0.691804,-2.47789 -0.0055,-0.28463 -0.04103,-0.43165 -0.07893,-0.32671 -0.273936,0.75854 -0.485833,1.02731 -1.010529,1.28171 -2.071957,1.00461 -3.625178,-1.99266 -1.655863,-3.19534 0.443141,-0.27063 1.348181,-0.33129 1.747699,-0.11713 0.332938,0.17847 0.309039,0.0618 -0.09639,-0.4706 -0.255938,-0.33609 -0.353614,-0.63016 -0.388003,-1.16814 -0.05547,-0.86782 0.218787,-1.39452 0.892997,-1.71496 1.295167,-0.61558 2.629385,0.16802 2.630575,1.54496 5.08e-4,0.6194 -0.137257,0.94652 -0.614516,1.45887 l -0.329955,0.35421 0.716384,-0.0843 c 0.878694,-0.10345 1.238546,-0.0201 1.740375,0.40277 1.104243,0.93064 0.524642,2.90392 -0.933422,3.1779 -0.667852,0.12549 -1.516224,-0.32727 -1.810075,-0.96599 -0.418083,-0.90877 -0.478057,-0.57516 -0.155453,0.86468 0.06677,0.29799 0.263311,0.86322 0.436766,1.25605 0.173454,0.39284 0.31529,0.72143 0.315191,0.73021 -9.9e-5,0.009 -0.538149,0.0187 -1.195667,0.0221 l -1.195488,0.006 0.292504,-0.57857 z"
       id="path2760"
       transform="translate(-1.0416666e-6,-1.1083333e-5)" />
    <path
       style="display:inline;fill:#1a120b;stroke-width:1"
       d="m 68.9379,464.35406 c 0.200296,-0.47224 0.401625,-1.08758 0.447401,-1.36743 0.04578,-0.27984 0.112492,-0.66621 0.148259,-0.85861 0.03826,-0.2058 0.0086,-0.3498 -0.07206,-0.3498 -0.0754,0 -0.137092,0.10676 -0.137092,0.23724 0,0.13049 -0.119345,0.38922 -0.265214,0.57496 -1.067949,1.35983 -3.212632,0.6525 -3.212632,-1.05956 0,-0.7425 0.32568,-1.30078 0.970592,-1.66382 0.503296,-0.28332 1.185507,-0.30282 1.801445,-0.0515 0.182221,0.0743 0.132436,-0.0418 -0.1905,-0.44423 -0.394939,-0.49224 -0.437191,-0.62273 -0.437191,-1.35028 0,-0.71904 0.04028,-0.84748 0.375726,-1.19817 0.792705,-0.82873 1.965535,-0.80113 2.723996,0.0641 0.32771,0.37383 0.392778,0.55408 0.392778,1.08801 0,0.67913 -0.12519,1.01907 -0.545537,1.48133 -0.311946,0.34305 -0.220482,0.49309 0.172257,0.28257 0.774188,-0.41499 2.145954,0.23187 2.417615,1.14003 0.672341,2.24765 -2.500856,3.46245 -3.336852,1.27745 l -0.217669,-0.56892 -0.0052,0.57241 c -0.0043,0.47453 0.373731,1.78981 0.813483,2.83025 0.08561,0.20256 -0.0096,0.2226 -1.056842,0.2226 h -1.150928 l 0.364172,-0.85861 z"
       id="path2758"
       transform="translate(-1.0416666e-6,-1.1083333e-5)" />
    <path
       style="display:inline;fill:#1a120b;stroke-width:1"
       d="m 88.818913,504.26951 c -0.587775,-0.2435 -1.0795,-1.06494 -1.0795,-1.80331 0,-0.45573 0.168667,-0.81046 0.618768,-1.30135 l 0.333732,-0.36398 -0.4445,0.10747 c -1.463642,0.35387 -2.588847,-0.3925 -2.588847,-1.71724 0,-0.71912 0.255672,-1.18488 0.849497,-1.54752 1.011596,-0.6178 2.62835,0.0469 2.62835,1.08049 0,0.10841 0.05824,0.19711 0.129419,0.19711 0.07118,0 0.103355,-0.12878 0.0715,-0.2862 -0.03186,-0.15741 -0.09151,-0.5341 -0.13256,-0.83708 -0.06136,-0.45289 -0.287002,-1.10449 -0.778297,-2.24757 -0.03424,-0.0796 0.391502,-0.1272 1.139194,-0.1272 h 1.193866 l -0.289397,0.57241 c -0.407475,0.80596 -0.700987,1.86389 -0.685759,2.47172 l 0.01297,0.51752 0.12997,-0.40489 c 0.220717,-0.68761 0.757494,-1.09207 1.535015,-1.15665 0.88123,-0.0732 1.394051,0.1865 1.750616,0.88654 0.444749,0.87317 0.191952,1.78363 -0.675306,2.43217 -0.343406,0.2568 -1.052794,0.33148 -1.653869,0.17412 l -0.348142,-0.0911 0.40106,0.56989 c 0.670467,0.95271 0.471864,2.18919 -0.441191,2.74679 -0.419797,0.25638 -1.219265,0.31737 -1.676584,0.1279 z"
       id="path2744"
       transform="translate(-1.0416666e-6,-1.1083333e-5)" />
    <path
       style="display:inline;fill:#1a120b;stroke-width:1"
       d="m 69.578413,504.42183 c -0.920929,-0.1241 -1.651,-0.91839 -1.651,-1.79623 0,-0.48221 0.414001,-1.34945 0.728299,-1.52562 0.330882,-0.18546 0.121285,-0.29782 -0.274453,-0.14712 -0.788611,0.30031 -1.556208,0.073 -2.153218,-0.63764 -0.262147,-0.31204 -0.332628,-0.53122 -0.332628,-1.03436 0,-0.79207 0.267496,-1.26655 0.921658,-1.63479 0.931748,-0.5245 1.934203,-0.1603 2.48046,0.90119 l 0.290619,0.56473 -0.07517,-0.71268 c -0.09031,-0.85622 -0.326666,-1.67755 -0.685466,-2.38198 -0.145805,-0.28625 -0.2651,-0.53705 -0.2651,-0.55733 0,-0.0202 0.542925,-0.0369 1.2065,-0.0369 0.663575,0 1.2065,0.0162 1.2065,0.0361 0,0.0198 -0.143579,0.31983 -0.319065,0.66668 -0.370185,0.73169 -0.730972,2.17163 -0.664879,2.65361 l 0.0456,0.33254 0.108263,-0.38161 c 0.180276,-0.63544 0.442565,-0.93048 1.025405,-1.15342 0.727599,-0.27831 1.345884,-0.15919 1.922931,0.37047 0.775718,0.71202 0.725205,1.98758 -0.106465,2.6885 -0.46164,0.38906 -1.142916,0.52323 -1.734089,0.3415 -0.594666,-0.18279 -0.653016,-0.0982 -0.23419,0.3397 0.702243,0.73414 0.717631,1.7262 0.03876,2.49876 -0.412725,0.46969 -0.927015,0.68034 -1.479268,0.60594 z"
       id="path2742"
       transform="translate(-1.0416666e-6,-1.1083333e-5)" />
  </g>
  <g
     inkscape:groupmode="layer"
     id="layer6"
     inkscape:label="OuterSuit"
     style="display:inline"
     transform="translate(94.217781,-340.71922)">
    <path
       style="display:inline;fill:#1a120b;stroke-width:1"
       d="m 54.375698,469.15593 c 0.473498,-0.80889 1.195326,-3.08284 1.233449,-3.88571 0.04074,-0.85804 -0.0044,-0.9054 -0.253757,-0.26603 -0.132626,0.34009 -0.344266,0.73255 -0.47031,0.87215 -0.700833,0.77619 -2.096322,0.96831 -3.034339,0.41772 -0.729952,-0.42846 -1.266049,-1.47779 -1.144371,-2.23993 0.186143,-1.16592 0.79239,-1.85117 1.91754,-2.1674 0.403749,-0.11348 0.664377,-0.10257 1.27,0.0532 0.4191,0.10777 0.784131,0.17441 0.81118,0.14809 0.02705,-0.0263 -0.121626,-0.20767 -0.33039,-0.403 -1.383822,-1.29474 -1.108447,-3.50152 0.529956,-4.24692 0.977613,-0.44478 1.949097,-0.24994 2.696215,0.54074 0.508855,0.53853 0.674539,0.97514 0.674539,1.77755 0,0.71585 -0.325029,1.46004 -0.851057,1.94858 -0.448984,0.41698 -0.347968,0.48862 0.348016,0.24677 1.107981,-0.38499 2.428967,0.0825 3.002397,1.06254 0.373725,0.63872 0.434988,1.68601 0.132686,2.26825 -0.620929,1.19593 -2.113805,1.66495 -3.366355,1.05764 -0.611289,-0.29639 -0.974556,-0.78208 -1.104721,-1.47703 -0.154994,-0.8275 -0.314122,-0.25384 -0.18549,0.6687 0.158281,1.13518 0.647262,2.57952 1.227392,3.62544 0.0198,0.0357 -0.678558,0.0643 -1.551905,0.0636 -0.873348,-7.1e-4 -1.571152,-0.03 -1.550675,-0.0649 z"
       id="path2756"
       transform="translate(-1.0416666e-6,-1.1083333e-5)" />
    <path
       style="display:inline;fill:#1a120b;stroke-width:1"
       d="m 102.77173,503.25208 c -0.219,-0.0523 -0.58281,-0.2268 -0.80845,-0.38773 -0.40628,-0.28976 -1.01224,-1.37657 -1.01463,-1.81981 -0.003,-0.56736 0.31581,-1.38812 0.72556,-1.86759 0.24552,-0.28728 0.42264,-0.54612 0.39362,-0.57518 -0.029,-0.029 -0.3257,0.0294 -0.65928,0.12996 -1.652906,0.49824 -3.442487,-0.95089 -3.220587,-2.60792 0.101718,-0.75957 0.653216,-1.61159 1.235869,-1.90931 0.550435,-0.28126 1.543358,-0.3368 2.118568,-0.11852 0.68449,0.25977 1.31001,1.11347 1.31001,1.78789 0,0.13138 0.0571,0.23887 0.127,0.23887 0.20149,0 0.14817,-0.89403 -0.11472,-1.92354 -0.19841,-0.77703 -0.48895,-1.58631 -0.97625,-2.71933 -0.0348,-0.0809 0.51994,-0.1272 1.52467,-0.1272 h 1.57939 l -0.36385,0.69961 c -0.47978,0.92251 -0.86122,2.22045 -0.96344,3.27834 -0.0904,0.93548 0.0559,0.96966 0.31036,0.0725 0.19665,-0.69337 0.838,-1.25204 1.63348,-1.42291 1.72631,-0.37082 3.09921,0.88404 2.92733,2.67564 -0.13185,1.3744 -1.66054,2.44177 -3.01697,2.10654 -1.1703,-0.28924 -1.1274,-0.30579 -0.61724,0.23825 0.62511,0.66661 0.87124,1.19705 0.87124,1.87757 0,1.13405 -0.63063,1.98895 -1.70233,2.30771 -0.68646,0.20419 -0.71542,0.20566 -1.29935,0.0661 z"
       id="path2746"
       transform="translate(-1.0416666e-6,-1.1083333e-5)" />
  </g>
  <g
     inkscape:groupmode="layer"
     id="layer3"
     inkscape:label="CardName"
     style="display:inline"
     transform="translate(94.217781,-340.71922)">
    <path
       id="path2552"
       style="display:inline;fill:#1a120b;stroke-width:1"
       d="m 98.534353,506.42588 v 0.89076 0.89025 h 0.698665 0.698149 v 1.20183 1.20184 l -0.666626,0.0383 -0.666626,0.0383 -0.03772,0.85868 -0.03721,0.85867 h 0.70435 0.703833 v 3.94349 3.94297 h 0.937412 c 0.93418,0 0.93918,-10e-4 1.30018,-0.4767 0.31711,-0.41757 1.70489,-2.10147 5.08909,-6.17376 l 0.92863,-1.11747 v -0.94977 -0.94925 h -3.24322 -3.24321 l 0.0362,-1.177 0.0367,-1.17647 0.66663,-0.0383 0.66662,-0.0388 v -0.88352 -0.88403 h -2.28564 z m 5.965527,5.99882 c 0.91691,-0.003 1.27331,0.0341 1.27331,0.12215 0,0.0817 -0.27128,0.46442 -0.60307,0.85091 -0.33178,0.3865 -1.21675,1.4441 -1.9668,2.34984 -0.8723,1.05336 -1.38842,1.58254 -1.43196,1.46891 -0.0375,-0.0977 -0.0522,-1.20572 -0.0331,-2.46268 l 0.0346,-2.28566 2.0004,-0.0352 c 0.27379,-0.005 0.51498,-0.008 0.72657,-0.008 z"
       transform="translate(-1.0416666e-6,-1.1083333e-5)" />
    <path
       id="path2764"
       style="display:inline;fill:#1a120b;stroke-width:1"
       d="m 57.529103,440.28097 -1.980755,2.38503 c -1.089234,1.31178 -2.306921,2.7788 -2.706296,3.25976 -0.399373,0.48095 -0.969208,1.1642 -1.266074,1.5186 -0.519178,0.61979 -0.539501,0.67763 -0.539501,1.51083 v 0.86592 h 3.238564 3.23856 v 1.27223 1.27171 h -0.62735 -0.627354 l -0.03979,0.47721 c -0.02167,0.26236 -0.01926,0.68833 0.0052,0.94667 l 0.04444,0.46997 1.987476,-0.0414 c 1.093181,-0.0226 2.119092,-0.0484 2.279449,-0.0564 0.277738,-0.0144 0.289499,-0.0557 0.25373,-0.87368 l -0.03773,-0.85868 -0.698148,-0.0637 -0.698666,-0.0632 -0.02842,-0.95443 c -0.04483,-1.49477 -0.0282,-1.52636 0.798917,-1.52636 h 0.701768 l -0.03772,-0.85867 -0.03773,-0.85868 -0.698148,-0.0631 -0.698666,-0.0637 -0.03359,-3.84825 -0.03359,-3.84773 h -0.879525 z m -0.137975,3.02529 c 0.101241,-0.008 0.122473,0.49354 0.122473,2.29032 v 2.44404 h -2.032433 c -1.1176,0 -2.031918,-0.0335 -2.031918,-0.074 0,-0.0405 0.300431,-0.42544 0.667144,-0.85557 0.366712,-0.43012 1.204328,-1.41303 1.861383,-2.18421 0.657058,-0.77118 1.270945,-1.48603 1.364777,-1.58847 0.01791,-0.0196 0.03411,-0.031 0.04857,-0.0321 z"
       transform="translate(-1.0416666e-6,-1.1083333e-5)" />
  </g>
</svg>
