<?xml version="1.0" encoding="UTF-8" standalone="no"?>
<svg
   width="2.5000002in"
   height="3.4999959in"
   viewBox="142.0878 95.116776 63.500012 88.899887"
   version="1.1"
   id="svg10"
   sodipodi:docname="4D.svg"
   inkscape:version="1.1.1 (1:1.1+202109281949+c3084ef5ed)"
   xmlns:inkscape="http://www.inkscape.org/namespaces/inkscape"
   xmlns:sodipodi="http://sodipodi.sourceforge.net/DTD/sodipodi-0.dtd"
   xmlns="http://www.w3.org/2000/svg"
   xmlns:svg="http://www.w3.org/2000/svg">
  <defs
     id="defs14">
    <marker
       style="overflow:visible"
       id="marker2995"
       refX="0"
       refY="0"
       orient="auto"
       inkscape:stockid="Arrow1Lstart"
       inkscape:isstock="true">
      <path
         transform="matrix(0.8,0,0,0.8,10,0)"
         style="fill:#000000;fill-opacity:1;fill-rule:evenodd;stroke:#000000;stroke-width:1pt;stroke-opacity:1"
         d="M 0,0 5,-5 -12.5,0 5,5 Z"
         id="path2993" />
    </marker>
    <marker
       style="overflow:visible"
       id="marker2985"
       refX="0"
       refY="0"
       orient="auto"
       inkscape:stockid="Arrow1Lstart"
       inkscape:isstock="true">
      <path
         transform="matrix(0.8,0,0,0.8,10,0)"
         style="fill:#000000;fill-opacity:1;fill-rule:evenodd;stroke:#000000;stroke-width:1pt;stroke-opacity:1"
         d="M 0,0 5,-5 -12.5,0 5,5 Z"
         id="path2983" />
    </marker>
    <marker
       style="overflow:visible"
       id="marker2791"
       refX="0"
       refY="0"
       orient="auto"
       inkscape:stockid="Arrow1Lstart"
       inkscape:isstock="true">
      <path
         transform="matrix(0.8,0,0,0.8,10,0)"
         style="fill:#000000;fill-opacity:1;fill-rule:evenodd;stroke:#000000;stroke-width:1pt;stroke-opacity:1"
         d="M 0,0 5,-5 -12.5,0 5,5 Z"
         id="path2789" />
    </marker>
    <marker
       style="overflow:visible"
       id="marker2781"
       refX="0"
       refY="0"
       orient="auto"
       inkscape:stockid="Arrow1Lstart"
       inkscape:isstock="true">
      <path
         transform="matrix(0.8,0,0,0.8,10,0)"
         style="fill:#000000;fill-opacity:1;fill-rule:evenodd;stroke:#000000;stroke-width:1pt;stroke-opacity:1"
         d="M 0,0 5,-5 -12.5,0 5,5 Z"
         id="path2779" />
    </marker>
    <marker
       style="overflow:visible"
       id="marker2417"
       refX="0"
       refY="0"
       orient="auto"
       inkscape:stockid="Arrow1Lstart"
       inkscape:isstock="true">
      <path
         transform="matrix(0.8,0,0,0.8,10,0)"
         style="fill:#000000;fill-opacity:1;fill-rule:evenodd;stroke:#000000;stroke-width:1pt;stroke-opacity:1"
         d="M 0,0 5,-5 -12.5,0 5,5 Z"
         id="path2415" />
    </marker>
    <marker
       style="overflow:visible"
       id="marker2383"
       refX="0"
       refY="0"
       orient="auto"
       inkscape:stockid="Arrow1Lstart"
       inkscape:isstock="true">
      <path
         transform="matrix(0.8,0,0,0.8,10,0)"
         style="fill:#000000;fill-opacity:1;fill-rule:evenodd;stroke:#000000;stroke-width:1pt;stroke-opacity:1"
         d="M 0,0 5,-5 -12.5,0 5,5 Z"
         id="path2381" />
    </marker>
    <marker
       style="overflow:visible"
       id="marker2355"
       refX="0"
       refY="0"
       orient="auto"
       inkscape:stockid="Arrow1Lstart"
       inkscape:isstock="true">
      <path
         transform="matrix(0.8,0,0,0.8,10,0)"
         style="fill:#000000;fill-opacity:1;fill-rule:evenodd;stroke:#000000;stroke-width:1pt;stroke-opacity:1"
         d="M 0,0 5,-5 -12.5,0 5,5 Z"
         id="path2353" />
    </marker>
    <marker
       style="overflow:visible"
       id="Arrow1Lstart"
       refX="0"
       refY="0"
       orient="auto"
       inkscape:stockid="Arrow1Lstart"
       inkscape:isstock="true">
      <path
         transform="matrix(0.8,0,0,0.8,10,0)"
         style="fill:#000000;fill-opacity:1;fill-rule:evenodd;stroke:#000000;stroke-width:1pt;stroke-opacity:1"
         d="M 0,0 5,-5 -12.5,0 5,5 Z"
         id="path2071" />
    </marker>
  </defs>
  <sodipodi:namedview
     id="namedview12"
     pagecolor="#ffffff"
     bordercolor="#666666"
     borderopacity="1.0"
     inkscape:pageshadow="2"
     inkscape:pageopacity="0.0"
     inkscape:pagecheckerboard="0"
     inkscape:document-units="in"
     showgrid="false"
     showborder="false"
     fit-margin-top="0"
     fit-margin-left="0"
     fit-margin-right="0"
     fit-margin-bottom="0"
     inkscape:zoom="1.4874999"
     inkscape:cx="117.64707"
     inkscape:cy="167.7311"
     inkscape:window-width="1366"
     inkscape:window-height="712"
     inkscape:window-x="0"
     inkscape:window-y="0"
     inkscape:window-maximized="1"
     inkscape:current-layer="svg10"
     units="in" />
  <g
     inkscape:groupmode="layer"
     id="layer1"
     inkscape:label="CardOutline"
     style="display:inline"
     transform="translate(94.217781,-340.71922)">
    <path
       id="path4-3"
       style="display:inline;fill:none;fill-rule:evenodd;stroke:#000000;stroke-width:0.25;stroke-miterlimit:4;stroke-dasharray:none;stroke-opacity:1"
       d="m 50.564743,435.96104 -0.534158,0.31687 c -0.688621,0.40844 -1.158412,0.85449 -1.590112,1.51001 l -0.346181,0.5258 -0.06384,25.43159 c -0.03506,13.98732 -0.046,32.74824 -0.02422,41.69094 0.03916,16.06607 0.04297,16.26663 0.30127,16.87005 h 2.54e-4 c 0.321831,0.75178 1.375871,1.69211 2.308962,2.06009 0.662802,0.26139 0.718825,0.26193 29.335815,0.23047 27.968057,-0.0307 28.683467,-0.0377 29.150357,-0.27706 0.72044,-0.36932 1.35524,-0.98173 1.76901,-1.70664 l 0.37116,-0.65029 9.8e-4,-41.53137 9.8e-4,-41.53137 -0.30833,-0.61121 c -0.3634,-0.72062 -1.20695,-1.59056 -1.92217,-1.98245 l -0.50968,-0.27931 -28.969947,-0.0331 z m 0.134234,0.49272 57.679013,0.0666 0.38933,0.21242 0.11632,0.0681 0.12061,0.0774 0.13902,0.0985 0.11304,0.0864 0.12364,0.1017 0.13751,0.12124 0.11153,0.10621 0.13145,0.13177 0.10774,0.11773 0.12692,0.13477 0.0918,0.11748 0.10345,0.13201 0.0951,0.13352 0.0785,0.11974 0.0739,0.12124 0.0603,0.11222 0.25661,0.50651 -0.003,82.81198 -0.30631,0.53682 -0.13726,0.22444 -0.18268,0.24876 -0.16754,0.20014 -0.19757,0.20466 -0.19327,0.17285 -0.23542,0.18336 -0.22481,0.1503 -0.2233,0.12574 -0.0212,0.0108 -0.0149,0.006 -0.0394,0.012 -0.027,0.006 -0.0507,0.01 -0.0277,0.004 -0.0606,0.008 -0.0573,0.008 -0.0679,0.006 -0.083,0.0105 -0.0868,0.004 -0.0913,0.006 -0.10698,0.007 -0.25056,0.012 -0.3048,0.0108 -0.3545,0.0105 -0.41809,0.009 -0.47538,0.009 -0.54929,0.008 -0.96108,0.0105 -1.14073,0.0108 -3.46459,0.0165 -34.84847,0.0471 -6.84314,-0.003 -1.74276,-0.004 -1.260078,-0.006 -1.065289,-0.008 -0.60506,-0.006 -0.534158,-0.008 -0.467798,-0.009 -0.401438,-0.009 -0.339623,-0.009 -0.289659,-0.012 -0.126666,-0.006 -0.11632,-0.006 -0.106979,-0.006 -0.08302,-0.006 -0.08302,-0.008 -0.07998,-0.006 -0.0545,-0.007 -0.10093,-0.0135 -0.09967,-0.0183 -0.03911,-0.009 -0.04844,-0.0138 -0.0376,-0.0135 -0.04692,-0.0183 -0.167539,-0.0726 -0.143315,-0.0699 -0.177886,-0.0985 -0.140542,-0.0864 -0.159971,-0.10773 -0.155176,-0.11372 -0.152651,-0.12124 -0.161231,-0.13803 -0.123887,-0.11372 -0.144835,-0.14729 -0.11026,-0.11974 -0.119098,-0.14253 -0.08604,-0.11374 -0.09361,-0.13951 -0.06485,-0.11098 -0.05601,-0.11974 -0.027,-0.0669 -0.03481,-0.10621 -0.0061,-0.027 -0.01211,-0.0669 -0.01338,-0.0939 -0.01514,-0.12124 -0.0044,-0.0531 -0.01362,-0.15632 -0.0099,-0.16206 -0.01133,-0.21243 -0.01059,-0.23947 -0.0088,-0.27305 -0.0091,-0.31236 -0.0076,-0.3532 -0.01059,-0.61573 -0.0091,-0.72319 -0.0106,-1.15404 -0.0106,-1.77404 -0.01641,-4.27149 -0.01968,-8.14897 -0.0061,-8.546 0.0015,-6.72963 0.0044,-7.16476 0.0091,-7.2692 0.01943,-9.71082 0.0651,-25.28355 0.257868,-0.39253 0.152402,-0.21993 0.166025,-0.21393 0.147862,-0.16834 0.169052,-0.17133 0.185708,-0.16508 0.168798,-0.13202 0.229612,-0.16082 0.227845,-0.14253 z"
       inkscape:export-filename="/home/doug/k40/52Cards/IndividualColorCards/2D.png"
       inkscape:export-xdpi="300"
       inkscape:export-ydpi="300" />
  </g>
  <g
     inkscape:groupmode="layer"
     id="layer2"
     inkscape:label="InnerRectangle"
     style="display:inline"
     transform="translate(94.217781,-340.71922)">
    <path
       id="path2-6"
       style="display:inline;fill:none;fill-rule:evenodd;stroke:#4c71a5;stroke-width:0.262609;stroke-opacity:1"
       d="m 63.13524,452.67467 0.0441,14.05596 c 0.0243,7.7307 0.0504,20.15551 0.0578,27.61093 l 0.0134,13.55547 16.409043,-0.0521 16.40903,-0.0519 0.0305,-24.32539 c 0.0169,-13.37898 -0.004,-25.78048 -0.0462,-27.55907 l -0.077,-3.23394 h -16.42035 z m 16.503153,0.25626 h 16.11155 l 0.005,0.73622 c 0.003,0.40503 0.0367,12.68075 0.0757,27.27927 l 0.0709,26.54279 -3.16634,0.004 c -1.74158,0.002 -8.99902,0.0153 -16.12745,0.0285 -7.12842,0.0133 -12.991523,-0.007 -13.029223,-0.0446 -0.0728,-0.0731 -0.16665,-54.20072 -0.0944,-54.4185 0.028,-0.0844 5.532343,-0.128 16.154193,-0.128 z"
       inkscape:export-filename="/home/doug/k40/52Cards/IndividualColorCards/2D.png"
       inkscape:export-xdpi="300"
       inkscape:export-ydpi="300" />
  </g>
  <g
     inkscape:groupmode="layer"
     id="layer5"
     inkscape:label="InnerSuit"
     style="display:inline"
     transform="translate(94.217781,-340.71922)">
    <path
       style="display:inline;fill:#e50c18;stroke-width:1"
       d="m 89.386233,464.83785 -0.636167,-1.0511 -0.715349,-0.89184 -0.715353,-0.89184 -0.389252,-0.40759 -0.389256,-0.40757 0.681188,-0.73023 0.681187,-0.73021 0.627057,-0.91042 0.627055,-0.91042 0.454337,-0.80312 0.454338,-0.80311 0.223461,0.42336 0.223462,0.42337 0.257825,0.45319 0.257825,0.45318 0.595783,0.82813 0.595784,0.82814 0.672262,0.74609 0.672259,0.74608 -0.516117,0.52797 -0.516117,0.52797 -0.125441,-0.035 -0.125441,-0.035 0.08281,0.13126 0.08281,0.13127 -0.448165,0.54077 -0.448161,0.54077 -0.504635,0.82814 -0.504633,0.82813 -0.182652,0.35037 -0.182654,0.35036 h -0.07694 -0.07694 z"
       id="path3144"
       transform="translate(-1.0416666e-6,-1.1083333e-5)" />
    <path
       style="display:inline;fill:#e50c18;stroke-width:1"
       d="m 68.536288,465.08846 -0.538849,-0.92787 -0.670608,-0.88766 -0.670611,-0.88764 -0.52423,-0.53168 -0.524232,-0.5317 0.781717,-0.93347 0.781718,-0.93348 0.570389,-0.82814 0.570389,-0.82813 0.384529,-0.72397 0.384529,-0.72396 0.396222,0.72396 0.39622,0.72397 0.688055,1.00113 0.688055,1.00114 0.465737,0.49317 0.465736,0.49317 0.185652,0.25968 0.18565,0.25968 -0.733833,0.79412 -0.733833,0.79413 -0.81654,1.27406 -0.816541,1.27405 -0.09283,0.28667 -0.09283,0.28666 h -0.0954 -0.0954 z"
       id="path3142"
       transform="translate(-1.0416666e-6,-1.1083333e-5)" />
    <path
       style="display:inline;fill:#e50c18;stroke-width:1"
       d="m 89.772068,503.61452 -0.335582,-0.64881 0.01285,-0.0822 0.01285,-0.0822 -0.118399,-0.0779 -0.118398,-0.0779 -0.54881,-0.79779 -0.54881,-0.7978 -0.76925,-0.80565 -0.769249,-0.80567 0.527723,-0.49873 0.527725,-0.49874 0.540013,-0.76225 0.540011,-0.76226 0.719676,-1.17065 0.719677,-1.17065 0.382686,0.72255 0.382688,0.72255 0.698181,1.01925 0.698182,1.01924 0.663041,0.66614 0.663043,0.66613 -0.317895,0.35081 -0.317897,0.3508 -0.375846,0.38452 -0.375847,0.38452 -0.892062,1.33105 -0.892061,1.33104 -0.0041,0.13413 -0.0041,0.13411 -0.182194,0.23561 -0.182193,0.23561 -0.335581,-0.64881 z"
       id="path3136"
       transform="translate(-1.0416666e-6,-1.1083333e-5)" />
    <path
       style="display:inline;fill:#e50c18;stroke-width:1"
       d="m 68.938888,503.86682 -0.240602,-0.43491 -0.871607,-1.28506 -0.871605,-1.28507 -0.676635,-0.67663 -0.676633,-0.67664 0.657988,-0.66112 0.657987,-0.66112 0.698182,-1.01925 0.698183,-1.01924 0.387133,-0.73228 0.387132,-0.73228 0.06502,5.1e-4 0.06502,5.1e-4 0.50746,0.92283 0.507459,0.92284 0.646459,0.89184 0.646459,0.89184 0.597167,0.60559 0.597167,0.60558 -0.730696,0.73218 -0.730696,0.73217 -0.760306,1.1625 -0.760305,1.16249 -0.279566,0.49378 -0.279565,0.49378 -0.240602,-0.43492 z"
       id="path3134"
       transform="translate(-1.0416666e-6,-1.1083333e-5)" />
  </g>
  <g
     inkscape:groupmode="layer"
     id="layer6"
     inkscape:label="OuterSuit"
     style="display:inline"
     transform="translate(94.217781,-340.71922)">
    <path
       style="display:inline;fill:#e50c18;stroke:none;stroke-width:1"
       d="m 54.722114,469.71693 -0.807728,-1.40793 -0.800692,-1.11044 -0.800691,-1.11043 -0.887994,-0.88207 -0.887994,-0.88208 0.705466,-0.71453 0.705467,-0.71454 0.603078,-0.74175 0.603078,-0.74175 0.701304,-1.11076 0.701305,-1.11076 0.330743,-0.6319 0.330744,-0.6319 0.178272,-0.23246 0.178271,-0.23246 0.188541,0.35987 0.188542,0.35986 0.795682,1.35535 0.795683,1.35534 0.722926,0.93796 0.722927,0.93796 0.780357,0.75754 0.780358,0.75753 -0.969539,1.00973 -0.96954,1.00974 -0.601868,0.82634 -0.601867,0.82634 -0.902721,1.54708 -0.902719,1.54706 -0.03583,0.038 -0.03583,0.038 z"
       id="path3140"
       transform="translate(-1.0416666e-6,-1.1083333e-5)" />
    <path
       style="display:inline;fill:#e50c18;stroke-width:1"
       d="m 103.28338,502.4225 -0.3725,-0.66888 -0.26805,-0.50962 -0.26805,-0.50962 -0.71305,-0.99598 -0.71305,-0.99599 -0.29922,-0.40547 -0.29923,-0.40549 -0.802027,-0.79594 -0.802032,-0.79594 0.659427,-0.66922 0.659432,-0.66922 0.71829,-0.89184 0.71829,-0.89184 0.56881,-0.8954 0.56881,-0.89541 0.51747,-0.97297 0.51747,-0.97297 0.62937,1.10394 0.62937,1.10394 0.47177,0.70073 0.47177,0.70073 0.64172,0.82814 0.64171,0.82813 0.75605,0.76444 0.75605,0.76443 -0.58637,0.62201 -0.58637,0.62201 -0.69285,0.84316 -0.69285,0.84315 -0.76846,1.21035 -0.76846,1.21036 -0.38351,0.73228 -0.3835,0.73228 -0.0769,2.5e-4 -0.0769,2.6e-4 -0.3725,-0.66888 z"
       id="path3138"
       transform="translate(-1.0416666e-6,-1.1083333e-5)" />
  </g>
  <g
     inkscape:groupmode="layer"
     id="layer3"
     inkscape:label="CardName"
     style="display:inline"
     transform="translate(94.217781,-340.71922)">
    <path
       id="path3017"
       style="display:inline;fill:#e50c18;stroke-width:1"
       d="m 98.93294,506.53126 -0.0201,0.15916 -0.02065,0.15915 -0.03228,0.38258 -0.03175,0.38208 0.06509,0.28046 0.06456,0.28047 0.670423,0.0378 0.670427,0.0383 0.037,1.30589 0.037,1.30588 h -0.711171 -0.711167 l -0.04127,0.35045 -0.04127,0.35046 0.04656,0.47745 0.04604,0.47798 h 0.701644 0.701644 v 3.88604 3.88552 h 0.88578 0.88578 l 0.30638,-0.41422 0.3069,-0.4137 0.79054,-0.94091 0.79054,-0.94093 0.49527,-0.58788 0.49475,-0.5884 0.22489,-0.25454 0.22488,-0.25506 0.41432,-0.5236 0.41485,-0.5236 -0.0614,-0.0814 -0.0619,-0.082 0.0804,0.0581 0.081,0.0576 0.18943,-0.18611 0.18996,-0.18559 0.84345,-1.04047 0.84345,-1.04046 -0.0333,-0.71074 -0.0339,-0.71023 -3.32353,-0.0638 -3.32302,-0.0638 -0.008,-1.14674 -0.008,-1.14673 0.0545,-0.15915 0.055,-0.15915 h 0.63656 0.63603 v -0.82843 -0.82791 h -2.21076 z m 7.43603,5.98199 -0.0439,0.11094 -0.0444,0.11146 -0.45559,0.54434 -0.45506,0.54485 -1.17734,1.36136 -1.17681,1.36135 -0.36617,0.47021 -0.36616,0.47072 h -0.0995 -0.0995 l -0.0519,-0.22292 -0.0513,-0.22344 0.004,-2.22918 0.004,-2.22971 2.18958,-0.0352 z"
       transform="translate(-1.0416666e-6,-1.1083333e-5)" />
    <path
       id="path3146"
       style="display:inline;fill:#e50c18;stroke-width:1"
       d="m 57.247137,440.28097 -1.946713,2.31575 -1.947243,2.31576 -0.520146,0.59359 -0.520147,0.59358 -0.887371,1.05965 -0.886842,1.05963 0.0418,0.77659 0.0418,0.7771 3.185963,0.0285 3.186493,0.0285 0.16668,0.003 0.167209,0.003 -0.03704,1.30588 -0.03704,1.30589 -0.682593,0.0383 -0.682593,0.0389 v 0.73614 0.73668 l 0.08942,0.0882 0.08995,0.0887 2.153607,-0.0347 2.153079,-0.0347 0.03492,-0.78955 0.03439,-0.78954 -0.68471,-0.0389 -0.68471,-0.0383 -0.03704,-1.30588 -0.03704,-1.30588 0.427017,-0.002 0.427018,-0.002 0.292615,-0.0768 0.292616,-0.0767 v -0.74341 -0.74288 l -0.682593,-0.0382 -0.682594,-0.0384 -0.03439,-3.91765 -0.03439,-3.91766 h -0.879963 z m -0.140752,2.78854 0.109533,0.19183 0.109532,0.19181 -0.03545,2.33131 -0.03545,2.33131 -2.103339,0.0352 -2.103869,0.0347 -0.07514,-0.11924 -0.07514,-0.1187 2.104927,-2.43915 z"
       transform="translate(-1.0416666e-6,-1.1083333e-5)" />
  </g>
</svg>
