<?xml version="1.0" encoding="UTF-8" standalone="no"?>
<svg
   width="63.500004mm"
   height="88.899895mm"
   viewBox="142.0878 95.116776 63.500012 88.899887"
   version="1.1"
   id="svg10"
   sodipodi:docname="4H.svg"
   inkscape:version="1.1.1 (1:1.1+202109281949+c3084ef5ed)"
   inkscape:export-filename="/home/doug/k40/52Cards/IndividualColorCards/4H.png"
   inkscape:export-xdpi="300"
   inkscape:export-ydpi="300"
   xmlns:inkscape="http://www.inkscape.org/namespaces/inkscape"
   xmlns:sodipodi="http://sodipodi.sourceforge.net/DTD/sodipodi-0.dtd"
   xmlns="http://www.w3.org/2000/svg"
   xmlns:svg="http://www.w3.org/2000/svg">
  <defs
     id="defs14">
    <marker
       style="overflow:visible"
       id="marker2995"
       refX="0"
       refY="0"
       orient="auto"
       inkscape:stockid="Arrow1Lstart"
       inkscape:isstock="true">
      <path
         transform="matrix(0.8,0,0,0.8,10,0)"
         style="fill:#000000;fill-opacity:1;fill-rule:evenodd;stroke:#000000;stroke-width:1pt;stroke-opacity:1"
         d="M 0,0 5,-5 -12.5,0 5,5 Z"
         id="path2993" />
    </marker>
    <marker
       style="overflow:visible"
       id="marker2985"
       refX="0"
       refY="0"
       orient="auto"
       inkscape:stockid="Arrow1Lstart"
       inkscape:isstock="true">
      <path
         transform="matrix(0.8,0,0,0.8,10,0)"
         style="fill:#000000;fill-opacity:1;fill-rule:evenodd;stroke:#000000;stroke-width:1pt;stroke-opacity:1"
         d="M 0,0 5,-5 -12.5,0 5,5 Z"
         id="path2983" />
    </marker>
    <marker
       style="overflow:visible"
       id="marker2791"
       refX="0"
       refY="0"
       orient="auto"
       inkscape:stockid="Arrow1Lstart"
       inkscape:isstock="true">
      <path
         transform="matrix(0.8,0,0,0.8,10,0)"
         style="fill:#000000;fill-opacity:1;fill-rule:evenodd;stroke:#000000;stroke-width:1pt;stroke-opacity:1"
         d="M 0,0 5,-5 -12.5,0 5,5 Z"
         id="path2789" />
    </marker>
    <marker
       style="overflow:visible"
       id="marker2781"
       refX="0"
       refY="0"
       orient="auto"
       inkscape:stockid="Arrow1Lstart"
       inkscape:isstock="true">
      <path
         transform="matrix(0.8,0,0,0.8,10,0)"
         style="fill:#000000;fill-opacity:1;fill-rule:evenodd;stroke:#000000;stroke-width:1pt;stroke-opacity:1"
         d="M 0,0 5,-5 -12.5,0 5,5 Z"
         id="path2779" />
    </marker>
    <marker
       style="overflow:visible"
       id="marker2417"
       refX="0"
       refY="0"
       orient="auto"
       inkscape:stockid="Arrow1Lstart"
       inkscape:isstock="true">
      <path
         transform="matrix(0.8,0,0,0.8,10,0)"
         style="fill:#000000;fill-opacity:1;fill-rule:evenodd;stroke:#000000;stroke-width:1pt;stroke-opacity:1"
         d="M 0,0 5,-5 -12.5,0 5,5 Z"
         id="path2415" />
    </marker>
    <marker
       style="overflow:visible"
       id="marker2383"
       refX="0"
       refY="0"
       orient="auto"
       inkscape:stockid="Arrow1Lstart"
       inkscape:isstock="true">
      <path
         transform="matrix(0.8,0,0,0.8,10,0)"
         style="fill:#000000;fill-opacity:1;fill-rule:evenodd;stroke:#000000;stroke-width:1pt;stroke-opacity:1"
         d="M 0,0 5,-5 -12.5,0 5,5 Z"
         id="path2381" />
    </marker>
    <marker
       style="overflow:visible"
       id="marker2355"
       refX="0"
       refY="0"
       orient="auto"
       inkscape:stockid="Arrow1Lstart"
       inkscape:isstock="true">
      <path
         transform="matrix(0.8,0,0,0.8,10,0)"
         style="fill:#000000;fill-opacity:1;fill-rule:evenodd;stroke:#000000;stroke-width:1pt;stroke-opacity:1"
         d="M 0,0 5,-5 -12.5,0 5,5 Z"
         id="path2353" />
    </marker>
    <marker
       style="overflow:visible"
       id="Arrow1Lstart"
       refX="0"
       refY="0"
       orient="auto"
       inkscape:stockid="Arrow1Lstart"
       inkscape:isstock="true">
      <path
         transform="matrix(0.8,0,0,0.8,10,0)"
         style="fill:#000000;fill-opacity:1;fill-rule:evenodd;stroke:#000000;stroke-width:1pt;stroke-opacity:1"
         d="M 0,0 5,-5 -12.5,0 5,5 Z"
         id="path2071" />
    </marker>
  </defs>
  <sodipodi:namedview
     id="namedview12"
     pagecolor="#ffffff"
     bordercolor="#666666"
     borderopacity="1.0"
     inkscape:pageshadow="2"
     inkscape:pageopacity="0.0"
     inkscape:pagecheckerboard="0"
     inkscape:document-units="mm"
     showgrid="false"
     showborder="false"
     fit-margin-top="0"
     fit-margin-left="0"
     fit-margin-right="0"
     fit-margin-bottom="0"
     inkscape:zoom="1.2541666"
     inkscape:cx="120.00001"
     inkscape:cy="167.84054"
     inkscape:window-width="1366"
     inkscape:window-height="712"
     inkscape:window-x="0"
     inkscape:window-y="0"
     inkscape:window-maximized="1"
     inkscape:current-layer="layer5" />
  <g
     inkscape:groupmode="layer"
     id="layer1"
     inkscape:label="CardOutline"
     style="display:inline"
     transform="translate(94.217781,-340.71922)">
    <path
       id="path4-3"
       style="display:inline;fill:none;fill-rule:evenodd;stroke:#000000;stroke-width:0.25;stroke-miterlimit:4;stroke-dasharray:none;stroke-opacity:1"
       d="m 50.564743,435.96104 -0.534158,0.31687 c -0.688621,0.40844 -1.158412,0.85449 -1.590112,1.51001 l -0.346181,0.5258 -0.06384,25.43159 c -0.03506,13.98732 -0.046,32.74824 -0.02422,41.69094 0.03916,16.06607 0.04297,16.26663 0.30127,16.87005 h 2.54e-4 c 0.321831,0.75178 1.375871,1.69211 2.308962,2.06009 0.662802,0.26139 0.718825,0.26193 29.335815,0.23047 27.968057,-0.0307 28.683467,-0.0377 29.150357,-0.27706 0.72044,-0.36932 1.35524,-0.98173 1.76901,-1.70664 l 0.37116,-0.65029 9.8e-4,-41.53137 9.8e-4,-41.53137 -0.30833,-0.61121 c -0.3634,-0.72062 -1.20695,-1.59056 -1.92217,-1.98245 l -0.50968,-0.27931 -28.969947,-0.0331 z m 0.134234,0.49272 57.679013,0.0666 0.38933,0.21242 0.11632,0.0681 0.12061,0.0774 0.13902,0.0985 0.11304,0.0864 0.12364,0.1017 0.13751,0.12124 0.11153,0.10621 0.13145,0.13177 0.10774,0.11773 0.12692,0.13477 0.0918,0.11748 0.10345,0.13201 0.0951,0.13352 0.0785,0.11974 0.0739,0.12124 0.0603,0.11222 0.25661,0.50651 -0.003,82.81198 -0.30631,0.53682 -0.13726,0.22444 -0.18268,0.24876 -0.16754,0.20014 -0.19757,0.20466 -0.19327,0.17285 -0.23542,0.18336 -0.22481,0.1503 -0.2233,0.12574 -0.0212,0.0108 -0.0149,0.006 -0.0394,0.012 -0.027,0.006 -0.0507,0.01 -0.0277,0.004 -0.0606,0.008 -0.0573,0.008 -0.0679,0.006 -0.083,0.0105 -0.0868,0.004 -0.0913,0.006 -0.10698,0.007 -0.25056,0.012 -0.3048,0.0108 -0.3545,0.0105 -0.41809,0.009 -0.47538,0.009 -0.54929,0.008 -0.96108,0.0105 -1.14073,0.0108 -3.46459,0.0165 -34.84847,0.0471 -6.84314,-0.003 -1.74276,-0.004 -1.260078,-0.006 -1.065289,-0.008 -0.60506,-0.006 -0.534158,-0.008 -0.467798,-0.009 -0.401438,-0.009 -0.339623,-0.009 -0.289659,-0.012 -0.126666,-0.006 -0.11632,-0.006 -0.106979,-0.006 -0.08302,-0.006 -0.08302,-0.008 -0.07998,-0.006 -0.0545,-0.007 -0.10093,-0.0135 -0.09967,-0.0183 -0.03911,-0.009 -0.04844,-0.0138 -0.0376,-0.0135 -0.04692,-0.0183 -0.167539,-0.0726 -0.143315,-0.0699 -0.177886,-0.0985 -0.140542,-0.0864 -0.159971,-0.10773 -0.155176,-0.11372 -0.152651,-0.12124 -0.161231,-0.13803 -0.123887,-0.11372 -0.144835,-0.14729 -0.11026,-0.11974 -0.119098,-0.14253 -0.08604,-0.11374 -0.09361,-0.13951 -0.06485,-0.11098 -0.05601,-0.11974 -0.027,-0.0669 -0.03481,-0.10621 -0.0061,-0.027 -0.01211,-0.0669 -0.01338,-0.0939 -0.01514,-0.12124 -0.0044,-0.0531 -0.01362,-0.15632 -0.0099,-0.16206 -0.01133,-0.21243 -0.01059,-0.23947 -0.0088,-0.27305 -0.0091,-0.31236 -0.0076,-0.3532 -0.01059,-0.61573 -0.0091,-0.72319 -0.0106,-1.15404 -0.0106,-1.77404 -0.01641,-4.27149 -0.01968,-8.14897 -0.0061,-8.546 0.0015,-6.72963 0.0044,-7.16476 0.0091,-7.2692 0.01943,-9.71082 0.0651,-25.28355 0.257868,-0.39253 0.152402,-0.21993 0.166025,-0.21393 0.147862,-0.16834 0.169052,-0.17133 0.185708,-0.16508 0.168798,-0.13202 0.229612,-0.16082 0.227845,-0.14253 z"
       inkscape:export-filename="/home/doug/k40/52Cards/IndividualColorCards/2D.png"
       inkscape:export-xdpi="300"
       inkscape:export-ydpi="300" />
  </g>
  <g
     inkscape:groupmode="layer"
     id="layer2"
     inkscape:label="InnerRectangle"
     style="display:inline"
     transform="translate(94.217781,-340.71922)">
    <path
       id="path2-6"
       style="display:inline;fill:none;fill-rule:evenodd;stroke:#4c71a5;stroke-width:0.262609;stroke-opacity:1"
       d="m 63.13524,452.67467 0.0441,14.05596 c 0.0243,7.7307 0.0504,20.15551 0.0578,27.61093 l 0.0134,13.55547 16.409043,-0.0521 16.40903,-0.0519 0.0305,-24.32539 c 0.0169,-13.37898 -0.004,-25.78048 -0.0462,-27.55907 l -0.077,-3.23394 h -16.42035 z m 16.503153,0.25626 h 16.11155 l 0.005,0.73622 c 0.003,0.40503 0.0367,12.68075 0.0757,27.27927 l 0.0709,26.54279 -3.16634,0.004 c -1.74158,0.002 -8.99902,0.0153 -16.12745,0.0285 -7.12842,0.0133 -12.991523,-0.007 -13.029223,-0.0446 -0.0728,-0.0731 -0.16665,-54.20072 -0.0944,-54.4185 0.028,-0.0844 5.532343,-0.128 16.154193,-0.128 z"
       inkscape:export-filename="/home/doug/k40/52Cards/IndividualColorCards/2D.png"
       inkscape:export-xdpi="300"
       inkscape:export-ydpi="300" />
  </g>
  <g
     inkscape:groupmode="layer"
     id="layer5"
     inkscape:label="InnerSuit"
     style="display:inline"
     transform="translate(94.217781,-340.71922)">
    <path
       style="fill:#e20c18;stroke-width:1"
       d="m 96.469659,455.96635 c 0,-0.0349 0.02962,-0.0635 0.06582,-0.0635 0.0362,0 0.06582,0.0286 0.06582,0.0635 0,0.0349 -0.02962,0.0635 -0.06582,0.0635 -0.03621,0 -0.06582,-0.0286 -0.06582,-0.0635 z"
       id="path3098" />
    <path
       style="fill:#e20c18;stroke-width:1"
       d="m 96.469659,457.36335 c 0,-0.0349 0.02962,-0.0635 0.06582,-0.0635 0.0362,0 0.06582,0.0286 0.06582,0.0635 0,0.0349 -0.02962,0.0635 -0.06582,0.0635 -0.03621,0 -0.06582,-0.0286 -0.06582,-0.0635 z"
       id="path3096" />
    <path
       style="fill:#e20c18;stroke-width:1"
       d="m 96.469659,458.37935 c 0,-0.0349 0.02962,-0.0635 0.06582,-0.0635 0.0362,0 0.06582,0.0286 0.06582,0.0635 0,0.0349 -0.02962,0.0635 -0.06582,0.0635 -0.03621,0 -0.06582,-0.0286 -0.06582,-0.0635 z"
       id="path3094" />
    <path
       style="fill:#e20c18;stroke-width:1"
       d="m 96.469659,459.39535 c 0,-0.0349 0.02962,-0.0635 0.06582,-0.0635 0.0362,0 0.06582,0.0286 0.06582,0.0635 0,0.0349 -0.02962,0.0635 -0.06582,0.0635 -0.03621,0 -0.06582,-0.0286 -0.06582,-0.0635 z"
       id="path3092" />
    <path
       style="fill:#e20c18;stroke-width:1"
       d="m 96.469659,460.79235 c 0,-0.0349 0.02962,-0.0635 0.06582,-0.0635 0.0362,0 0.06582,0.0286 0.06582,0.0635 0,0.0349 -0.02962,0.0635 -0.06582,0.0635 -0.03621,0 -0.06582,-0.0286 -0.06582,-0.0635 z"
       id="path3090" />
    <path
       style="fill:#e20c18;stroke-width:1"
       d="m 89.276557,463.23264 c -1.844069,-3.10583 -2.28629,-4.11743 -2.282975,-5.22242 0.0024,-0.7984 0.19691,-1.18632 0.789812,-1.57513 0.882641,-0.57881 2.091316,-0.21232 2.50912,0.7608 l 0.1627,0.37896 0.159534,-0.36605 c 0.430836,-0.98855 1.664141,-1.35488 2.5727,-0.76418 1.085745,0.7059 1.008011,2.03762 -0.261195,4.47473 -0.900851,1.7298 -2.34778,4.12973 -2.485801,4.12304 -0.05061,-0.002 -0.574359,-0.81684 -1.163895,-1.80975 z"
       id="path3088" />
    <path
       style="fill:#e20c18;stroke-width:1"
       d="m 68.653744,464.89922 c -2.543814,-3.91542 -3.582476,-6.28445 -3.260728,-7.43722 0.267894,-0.95983 1.319357,-1.49468 2.315101,-1.17764 0.41999,0.13373 0.715891,0.43751 1.050983,1.07899 0.03835,0.0734 0.100533,0.0548 0.147384,-0.0441 0.216197,-0.45633 0.895472,-1.03389 1.302645,-1.10759 0.96441,-0.17454 1.935338,0.48921 2.096141,1.43299 0.172766,1.014 -0.581785,2.82562 -2.466146,5.92103 -0.969114,1.59195 -0.99705,1.62338 -1.18538,1.3335 z"
       id="path3086" />
    <path
       style="fill:#e20c18;stroke-width:1"
       d="m 96.469659,471.71435 c 0,-0.0349 0.02962,-0.0635 0.06582,-0.0635 0.0362,0 0.06582,0.0286 0.06582,0.0635 0,0.0349 -0.02962,0.0635 -0.06582,0.0635 -0.03621,0 -0.06582,-0.0286 -0.06582,-0.0635 z"
       id="path3082" />
    <path
       style="fill:#e20c18;stroke-width:1"
       d="m 96.469659,495.46335 c 0,-0.0349 0.02962,-0.0635 0.06582,-0.0635 0.0362,0 0.06582,0.0286 0.06582,0.0635 0,0.0349 -0.02962,0.0635 -0.06582,0.0635 -0.03621,0 -0.06582,-0.0286 -0.06582,-0.0635 z"
       id="path3080" />
    <path
       style="fill:#e20c18;stroke-width:1"
       d="m 96.469659,497.62235 c 0,-0.0349 0.02962,-0.0635 0.06582,-0.0635 0.0362,0 0.06582,0.0286 0.06582,0.0635 0,0.0349 -0.02962,0.0635 -0.06582,0.0635 -0.03621,0 -0.06582,-0.0286 -0.06582,-0.0635 z"
       id="path3078" />
    <path
       style="fill:#e20c18;stroke-width:1"
       d="m 96.469659,498.19385 c 0,-0.0931 0.03949,-0.13123 0.08776,-0.0847 0.04826,0.0466 0.04826,0.12277 0,0.16934 -0.04827,0.0466 -0.08776,0.008 -0.08776,-0.0847 z"
       id="path3076" />
    <path
       style="fill:#e20c18;stroke-width:1"
       d="m 96.469659,499.01935 c 0,-0.0349 0.02962,-0.0635 0.06582,-0.0635 0.0362,0 0.06582,0.0286 0.06582,0.0635 0,0.0349 -0.02962,0.0635 -0.06582,0.0635 -0.03621,0 -0.06582,-0.0286 -0.06582,-0.0635 z"
       id="path3074" />
    <path
       style="fill:#e20c18;stroke-width:1"
       d="m 96.469659,499.33685 c 0,-0.0931 0.03949,-0.13123 0.08776,-0.0847 0.04826,0.0466 0.04826,0.12277 0,0.16934 -0.04827,0.0466 -0.08776,0.008 -0.08776,-0.0847 z"
       id="path3072" />
    <path
       style="fill:#e20c18;stroke-width:1"
       d="m 96.469659,500.28935 c 0,-0.0349 0.02962,-0.0635 0.06582,-0.0635 0.0362,0 0.06582,0.0286 0.06582,0.0635 0,0.0349 -0.02962,0.0635 -0.06582,0.0635 -0.03621,0 -0.06582,-0.0286 -0.06582,-0.0635 z"
       id="path3070" />
    <path
       style="fill:#e20c18;stroke-width:1"
       d="m 87.73078,504.02464 c -0.81813,-0.62086 -0.941884,-1.58382 -0.402694,-3.13344 0.357869,-1.0285 0.739051,-1.74223 2.205052,-4.12876 0.802557,-1.3065 0.93804,-1.46656 1.074975,-1.27 0.08617,0.1237 0.555384,0.86767 1.042687,1.65327 1.737595,2.80125 2.48378,4.69649 2.266511,5.75672 -0.246849,1.20457 -1.772795,1.81386 -2.686043,1.07249 -0.213369,-0.17321 -0.462117,-0.48769 -0.552775,-0.69884 l -0.164831,-0.38392 -0.369965,0.56282 c -0.20348,0.30954 -0.488521,0.62402 -0.633422,0.69884 -0.451058,0.23289 -1.392432,0.16455 -1.779495,-0.12918 z"
       id="path3066" />
    <path
       style="fill:#e20c18;stroke-width:1"
       d="m 66.328777,504.20068 c -1.313457,-0.6573 -1.23945,-2.54043 0.200653,-5.10565 0.740376,-1.31881 2.222307,-3.6912 2.307042,-3.69329 0.126949,-0.003 2.038219,3.15682 2.61057,4.31611 0.293126,0.59373 0.634604,1.45773 0.758842,1.92001 0.194142,0.72239 0.201936,0.91763 0.05546,1.38929 -0.474423,1.52768 -2.363436,1.81302 -3.106805,0.46929 -0.144803,-0.26174 -0.296734,-0.47606 -0.337628,-0.47625 -0.04089,-1.2e-4 -0.171834,0.19689 -0.290985,0.43794 -0.405523,0.82043 -1.382048,1.15045 -2.197149,0.74255 z"
       id="path3064" />
    <path
       style="fill:#e20c18;stroke-width:1"
       d="m 96.469659,505.75035 c 0,-0.0349 0.02962,-0.0635 0.06582,-0.0635 0.0362,0 0.06582,0.0286 0.06582,0.0635 0,0.0349 -0.02962,0.0635 -0.06582,0.0635 -0.03621,0 -0.06582,-0.0286 -0.06582,-0.0635 z"
       id="path3062" />
    <path
       style="fill:#e20c18;stroke-width:1"
       d="m 96.469659,506.38535 c 0,-0.0349 0.02962,-0.0635 0.06582,-0.0635 0.0362,0 0.06582,0.0286 0.06582,0.0635 0,0.0349 -0.02962,0.0635 -0.06582,0.0635 -0.03621,0 -0.06582,-0.0286 -0.06582,-0.0635 z"
       id="path3060" />
  </g>
  <g
     inkscape:groupmode="layer"
     id="layer6"
     inkscape:label="OuterSuit"
     style="display:inline"
     transform="translate(94.217781,-340.71922)">
    <path
       style="display:inline;fill:#e20c18;stroke-width:1"
       d="m 55.063079,468.00717 c -0.417058,-0.6852 -0.922326,-1.50299 -1.122819,-1.81732 -0.802305,-1.25783 -2.114834,-3.89378 -2.440284,-4.90083 -0.468387,-1.44933 -0.415411,-2.49371 0.161848,-3.1907 1.202955,-1.45246 3.198418,-1.18275 3.941371,0.53272 l 0.217511,0.50223 0.224786,-0.44046 c 0.39449,-0.77298 0.577353,-0.98679 1.074548,-1.25638 0.564587,-0.30614 1.384756,-0.34133 2.016802,-0.0866 0.721999,0.29104 1.395335,1.36938 1.395335,2.23462 0,0.72904 -0.548066,2.3486 -1.299511,3.84012 -0.605008,1.20086 -3.149156,5.56928 -3.371522,5.78906 -0.02188,0.0216 -0.381008,-0.52131 -0.798065,-1.2065 z"
       id="path3084"
       transform="translate(-1.0416666e-6,-1.1083333e-5)" />
    <path
       style="display:inline;fill:#e20c18;stroke-width:1"
       d="m 100.18486,503.06291 c -1.314008,-0.62484 -1.650157,-2.11634 -0.943232,-4.18517 0.324086,-0.94844 1.616062,-3.40897 2.837292,-5.40353 0.49878,-0.81463 1.01304,-1.66642 1.1428,-1.89288 l 0.23592,-0.41174 1.25023,2.01988 c 3.21343,5.19167 3.97888,7.43931 3.0517,8.96093 -0.95705,1.57066 -3.33508,1.44678 -3.99007,-0.20786 -0.1249,-0.31553 -0.26639,-0.57369 -0.31441,-0.57369 -0.048,0 -0.1602,0.19447 -0.24928,0.43214 -0.47028,1.2547 -1.83622,1.82529 -3.02095,1.26192 z"
       id="path3068"
       transform="translate(-1.0416666e-6,-1.1083333e-5)" />
  </g>
  <g
     inkscape:groupmode="layer"
     id="layer3"
     inkscape:label="CardName"
     style="display:inline"
     transform="translate(94.217781,-340.71922)">
    <path
       id="path2872"
       style="display:inline;fill:#e20c18;stroke-width:1"
       d="m 98.444322,506.32208 v 0.88883 0.88884 h 0.724185 c 0.552372,0 0.725779,0.0453 0.731686,0.19068 0.0043,0.10478 0.0075,0.5333 0.0075,0.9524 0,1.539 0.07548,1.39681 -0.739187,1.39681 h -0.724185 v 0.88936 0.88883 h 0.724185 0.723653 l 0.0086,0.54002 c 0.0046,0.29686 0.0304,2.02552 0.05731,3.84162 0.0269,1.8161 0.05265,3.34481 0.05732,3.39721 0.005,0.0523 0.40849,0.0945 0.8972,0.0935 l 0.88862,-0.002 0.92077,-1.10949 c 0.50656,-0.61014 1.54333,-1.82155 2.30379,-2.69183 0.76046,-0.87028 1.84177,-2.1258 2.40289,-2.79052 l 1.02039,-1.20872 v -0.92397 -0.92397 h -3.28883 -3.2883 l -0.0616,-0.28578 c -0.034,-0.15716 -0.0434,-0.51435 -0.0209,-0.79375 0.0225,-0.2794 0.0488,-0.72197 0.0589,-0.98391 l 0.0188,-0.47646 h 0.65777 0.6583 v -0.88884 -0.88883 H 100.814 Z m 3.457028,6.09575 h 2.0965 2.0965 l -0.20676,0.28577 c -0.11363,0.15716 -0.87207,1.05069 -1.68566,1.98541 -0.8136,0.93473 -1.67033,1.90632 -1.90367,2.15904 l -0.42423,0.4594 -0.0129,-0.38085 c -0.0597,-1.74756 -0.0688,-3.6387 -0.0193,-4.03232 z"
       transform="translate(-1.0416666e-6,-1.1083333e-5)" />
    <path
       id="path3100"
       style="display:inline;fill:#e20c18;stroke-width:1"
       d="m 57.539567,440.28166 -1.113598,1.30173 c -0.6125,0.71596 -1.845589,2.15929 -2.74034,3.20704 -0.894748,1.04775 -1.660241,1.93346 -1.701194,1.96836 -0.04095,0.0349 -0.326492,0.35962 -0.634199,0.7214 -0.541163,0.63626 -0.559211,0.68688 -0.559211,1.55546 v 0.89814 h 3.356863 3.356326 v 1.19993 1.19992 l -0.690977,0.0382 -0.690976,0.0382 -0.0391,0.85731 -0.03857,0.85732 h 2.375033 c 2.566752,0 2.401813,0.0483 2.401813,-0.69815 0,-1.11991 0.03736,-1.06294 -0.717222,-1.10484 l -0.690976,-0.0382 v -1.14309 -1.14308 l 0.678657,-0.0377 0.679192,-0.0382 0.04499,-0.59687 c 0.08337,-1.10162 0.04443,-1.16892 -0.679192,-1.16892 -0.496682,0 -0.655099,-0.0498 -0.70651,-0.22221 -0.03644,-0.12224 -0.06626,-1.30783 -0.06642,-2.63498 -1.04e-4,-1.32715 -0.0041,-2.99906 -0.0086,-3.71502 l -0.008,-1.30173 h -0.903625 z m -0.160158,3.02204 c 0.103137,-0.002 0.12534,0.52098 0.12534,2.3487 v 2.5032 h -2.106676 c -1.158424,0 -2.106141,-0.0347 -2.106141,-0.0775 0,-0.0642 3.453007,-4.12128 4.037663,-4.7439 0.01821,-0.0194 0.03508,-0.0302 0.04981,-0.0305 z"
       transform="translate(-1.0416666e-6,-1.1083333e-5)" />
  </g>
</svg>
