<?xml version="1.0" encoding="UTF-8" standalone="no"?>
<svg
   width="63.500004mm"
   height="88.899895mm"
   viewBox="142.0878 95.116776 63.500012 88.899887"
   version="1.1"
   id="svg10"
   sodipodi:docname="4S.svg"
   inkscape:version="1.1.1 (1:1.1+202109281949+c3084ef5ed)"
   inkscape:export-filename="/home/doug/k40/52Cards/IndividualColorCards/4S.png"
   inkscape:export-xdpi="300"
   inkscape:export-ydpi="300"
   xmlns:inkscape="http://www.inkscape.org/namespaces/inkscape"
   xmlns:sodipodi="http://sodipodi.sourceforge.net/DTD/sodipodi-0.dtd"
   xmlns="http://www.w3.org/2000/svg"
   xmlns:svg="http://www.w3.org/2000/svg">
  <defs
     id="defs14">
    <marker
       style="overflow:visible"
       id="marker2995"
       refX="0"
       refY="0"
       orient="auto"
       inkscape:stockid="Arrow1Lstart"
       inkscape:isstock="true">
      <path
         transform="matrix(0.8,0,0,0.8,10,0)"
         style="fill:#000000;fill-opacity:1;fill-rule:evenodd;stroke:#000000;stroke-width:1pt;stroke-opacity:1"
         d="M 0,0 5,-5 -12.5,0 5,5 Z"
         id="path2993" />
    </marker>
    <marker
       style="overflow:visible"
       id="marker2985"
       refX="0"
       refY="0"
       orient="auto"
       inkscape:stockid="Arrow1Lstart"
       inkscape:isstock="true">
      <path
         transform="matrix(0.8,0,0,0.8,10,0)"
         style="fill:#000000;fill-opacity:1;fill-rule:evenodd;stroke:#000000;stroke-width:1pt;stroke-opacity:1"
         d="M 0,0 5,-5 -12.5,0 5,5 Z"
         id="path2983" />
    </marker>
    <marker
       style="overflow:visible"
       id="marker2791"
       refX="0"
       refY="0"
       orient="auto"
       inkscape:stockid="Arrow1Lstart"
       inkscape:isstock="true">
      <path
         transform="matrix(0.8,0,0,0.8,10,0)"
         style="fill:#000000;fill-opacity:1;fill-rule:evenodd;stroke:#000000;stroke-width:1pt;stroke-opacity:1"
         d="M 0,0 5,-5 -12.5,0 5,5 Z"
         id="path2789" />
    </marker>
    <marker
       style="overflow:visible"
       id="marker2781"
       refX="0"
       refY="0"
       orient="auto"
       inkscape:stockid="Arrow1Lstart"
       inkscape:isstock="true">
      <path
         transform="matrix(0.8,0,0,0.8,10,0)"
         style="fill:#000000;fill-opacity:1;fill-rule:evenodd;stroke:#000000;stroke-width:1pt;stroke-opacity:1"
         d="M 0,0 5,-5 -12.5,0 5,5 Z"
         id="path2779" />
    </marker>
    <marker
       style="overflow:visible"
       id="marker2417"
       refX="0"
       refY="0"
       orient="auto"
       inkscape:stockid="Arrow1Lstart"
       inkscape:isstock="true">
      <path
         transform="matrix(0.8,0,0,0.8,10,0)"
         style="fill:#000000;fill-opacity:1;fill-rule:evenodd;stroke:#000000;stroke-width:1pt;stroke-opacity:1"
         d="M 0,0 5,-5 -12.5,0 5,5 Z"
         id="path2415" />
    </marker>
    <marker
       style="overflow:visible"
       id="marker2383"
       refX="0"
       refY="0"
       orient="auto"
       inkscape:stockid="Arrow1Lstart"
       inkscape:isstock="true">
      <path
         transform="matrix(0.8,0,0,0.8,10,0)"
         style="fill:#000000;fill-opacity:1;fill-rule:evenodd;stroke:#000000;stroke-width:1pt;stroke-opacity:1"
         d="M 0,0 5,-5 -12.5,0 5,5 Z"
         id="path2381" />
    </marker>
    <marker
       style="overflow:visible"
       id="marker2355"
       refX="0"
       refY="0"
       orient="auto"
       inkscape:stockid="Arrow1Lstart"
       inkscape:isstock="true">
      <path
         transform="matrix(0.8,0,0,0.8,10,0)"
         style="fill:#000000;fill-opacity:1;fill-rule:evenodd;stroke:#000000;stroke-width:1pt;stroke-opacity:1"
         d="M 0,0 5,-5 -12.5,0 5,5 Z"
         id="path2353" />
    </marker>
    <marker
       style="overflow:visible"
       id="Arrow1Lstart"
       refX="0"
       refY="0"
       orient="auto"
       inkscape:stockid="Arrow1Lstart"
       inkscape:isstock="true">
      <path
         transform="matrix(0.8,0,0,0.8,10,0)"
         style="fill:#000000;fill-opacity:1;fill-rule:evenodd;stroke:#000000;stroke-width:1pt;stroke-opacity:1"
         d="M 0,0 5,-5 -12.5,0 5,5 Z"
         id="path2071" />
    </marker>
  </defs>
  <sodipodi:namedview
     id="namedview12"
     pagecolor="#ffffff"
     bordercolor="#666666"
     borderopacity="1.0"
     inkscape:pageshadow="2"
     inkscape:pageopacity="0.0"
     inkscape:pagecheckerboard="0"
     inkscape:document-units="mm"
     showgrid="false"
     showborder="false"
     fit-margin-top="0"
     fit-margin-left="0"
     fit-margin-right="0"
     fit-margin-bottom="0"
     inkscape:zoom="1.4874999"
     inkscape:cx="120.00001"
     inkscape:cy="167.7311"
     inkscape:window-width="1366"
     inkscape:window-height="712"
     inkscape:window-x="0"
     inkscape:window-y="0"
     inkscape:window-maximized="1"
     inkscape:current-layer="layer1" />
  <g
     inkscape:groupmode="layer"
     id="layer1"
     inkscape:label="CardOutline"
     style="display:inline"
     transform="translate(94.217781,-340.71922)">
    <path
       id="path4-3"
       style="display:inline;fill:none;fill-rule:evenodd;stroke:#000000;stroke-width:0.25;stroke-miterlimit:4;stroke-dasharray:none;stroke-opacity:1"
       d="m 50.564743,435.96104 -0.534158,0.31687 c -0.688621,0.40844 -1.158412,0.85449 -1.590112,1.51001 l -0.346181,0.5258 -0.06384,25.43159 c -0.03506,13.98732 -0.046,32.74824 -0.02422,41.69094 0.03916,16.06607 0.04297,16.26663 0.30127,16.87005 h 2.54e-4 c 0.321831,0.75178 1.375871,1.69211 2.308962,2.06009 0.662802,0.26139 0.718825,0.26193 29.335815,0.23047 27.968057,-0.0307 28.683467,-0.0377 29.150357,-0.27706 0.72044,-0.36932 1.35524,-0.98173 1.76901,-1.70664 l 0.37116,-0.65029 9.8e-4,-41.53137 9.8e-4,-41.53137 -0.30833,-0.61121 c -0.3634,-0.72062 -1.20695,-1.59056 -1.92217,-1.98245 l -0.50968,-0.27931 -28.969947,-0.0331 z m 0.134234,0.49272 57.679013,0.0666 0.38933,0.21242 0.11632,0.0681 0.12061,0.0774 0.13902,0.0985 0.11304,0.0864 0.12364,0.1017 0.13751,0.12124 0.11153,0.10621 0.13145,0.13177 0.10774,0.11773 0.12692,0.13477 0.0918,0.11748 0.10345,0.13201 0.0951,0.13352 0.0785,0.11974 0.0739,0.12124 0.0603,0.11222 0.25661,0.50651 -0.003,82.81198 -0.30631,0.53682 -0.13726,0.22444 -0.18268,0.24876 -0.16754,0.20014 -0.19757,0.20466 -0.19327,0.17285 -0.23542,0.18336 -0.22481,0.1503 -0.2233,0.12574 -0.0212,0.0108 -0.0149,0.006 -0.0394,0.012 -0.027,0.006 -0.0507,0.01 -0.0277,0.004 -0.0606,0.008 -0.0573,0.008 -0.0679,0.006 -0.083,0.0105 -0.0868,0.004 -0.0913,0.006 -0.10698,0.007 -0.25056,0.012 -0.3048,0.0108 -0.3545,0.0105 -0.41809,0.009 -0.47538,0.009 -0.54929,0.008 -0.96108,0.0105 -1.14073,0.0108 -3.46459,0.0165 -34.84847,0.0471 -6.84314,-0.003 -1.74276,-0.004 -1.260078,-0.006 -1.065289,-0.008 -0.60506,-0.006 -0.534158,-0.008 -0.467798,-0.009 -0.401438,-0.009 -0.339623,-0.009 -0.289659,-0.012 -0.126666,-0.006 -0.11632,-0.006 -0.106979,-0.006 -0.08302,-0.006 -0.08302,-0.008 -0.07998,-0.006 -0.0545,-0.007 -0.10093,-0.0135 -0.09967,-0.0183 -0.03911,-0.009 -0.04844,-0.0138 -0.0376,-0.0135 -0.04692,-0.0183 -0.167539,-0.0726 -0.143315,-0.0699 -0.177886,-0.0985 -0.140542,-0.0864 -0.159971,-0.10773 -0.155176,-0.11372 -0.152651,-0.12124 -0.161231,-0.13803 -0.123887,-0.11372 -0.144835,-0.14729 -0.11026,-0.11974 -0.119098,-0.14253 -0.08604,-0.11374 -0.09361,-0.13951 -0.06485,-0.11098 -0.05601,-0.11974 -0.027,-0.0669 -0.03481,-0.10621 -0.0061,-0.027 -0.01211,-0.0669 -0.01338,-0.0939 -0.01514,-0.12124 -0.0044,-0.0531 -0.01362,-0.15632 -0.0099,-0.16206 -0.01133,-0.21243 -0.01059,-0.23947 -0.0088,-0.27305 -0.0091,-0.31236 -0.0076,-0.3532 -0.01059,-0.61573 -0.0091,-0.72319 -0.0106,-1.15404 -0.0106,-1.77404 -0.01641,-4.27149 -0.01968,-8.14897 -0.0061,-8.546 0.0015,-6.72963 0.0044,-7.16476 0.0091,-7.2692 0.01943,-9.71082 0.0651,-25.28355 0.257868,-0.39253 0.152402,-0.21993 0.166025,-0.21393 0.147862,-0.16834 0.169052,-0.17133 0.185708,-0.16508 0.168798,-0.13202 0.229612,-0.16082 0.227845,-0.14253 z"
       inkscape:export-filename="/home/doug/k40/52Cards/IndividualColorCards/2D.png"
       inkscape:export-xdpi="300"
       inkscape:export-ydpi="300" />
  </g>
  <g
     inkscape:groupmode="layer"
     id="layer2"
     inkscape:label="InnerRectangle"
     style="display:inline"
     transform="translate(94.217781,-340.71922)">
    <path
       id="path2-6"
       style="display:inline;fill:none;fill-rule:evenodd;stroke:#4c71a5;stroke-width:0.262609;stroke-opacity:1"
       d="m 63.13524,452.67467 0.0441,14.05596 c 0.0243,7.7307 0.0504,20.15551 0.0578,27.61093 l 0.0134,13.55547 16.409043,-0.0521 16.40903,-0.0519 0.0305,-24.32539 c 0.0169,-13.37898 -0.004,-25.78048 -0.0462,-27.55907 l -0.077,-3.23394 h -16.42035 z m 16.503153,0.25626 h 16.11155 l 0.005,0.73622 c 0.003,0.40503 0.0367,12.68075 0.0757,27.27927 l 0.0709,26.54279 -3.16634,0.004 c -1.74158,0.002 -8.99902,0.0153 -16.12745,0.0285 -7.12842,0.0133 -12.991523,-0.007 -13.029223,-0.0446 -0.0728,-0.0731 -0.16665,-54.20072 -0.0944,-54.4185 0.028,-0.0844 5.532343,-0.128 16.154193,-0.128 z"
       inkscape:export-filename="/home/doug/k40/52Cards/IndividualColorCards/2D.png"
       inkscape:export-xdpi="300"
       inkscape:export-ydpi="300" />
  </g>
  <g
     inkscape:groupmode="layer"
     id="layer5"
     inkscape:label="InnerSuit"
     style="display:inline"
     transform="translate(94.217781,-340.71922)">
    <path
       style="display:inline;fill:#180f09;stroke-width:1"
       d="m 89.827456,465.76664 c 0.314723,-0.60718 0.615255,-1.64454 0.617466,-2.13133 l 0.0015,-0.33655 -0.4276,0.42178 c -1.130696,1.11532 -2.919937,0.2907 -2.919937,-1.34573 0,-0.79036 0.505001,-1.74036 1.981585,-3.72773 0.619002,-0.83313 1.210027,-1.67609 1.313387,-1.87325 0.103362,-0.19716 0.229894,-0.35803 0.281187,-0.35749 0.05129,5.1e-4 0.21898,0.21485 0.372642,0.47625 0.153661,0.2614 0.748241,1.0982 1.321289,1.85955 1.578531,2.09724 1.869046,2.65235 1.872628,3.57819 0.0025,0.65026 -0.05319,0.84419 -0.354563,1.23428 -0.654877,0.84767 -1.908612,0.88146 -2.600749,0.0701 -0.184496,-0.21628 -0.359498,-0.36951 -0.388895,-0.34051 -0.108806,0.10732 0.315229,1.7648 0.603488,2.35892 l 0.298072,0.61436 -1.12177,0.012 -1.121771,0.012 0.272013,-0.52478 z"
       id="path2756"
       transform="translate(-1.0416666e-6,-1.1083333e-5)" />
    <path
       style="display:inline;fill:#180f09;stroke-width:1"
       d="m 67.455623,466.25786 c 0.447308,-0.97071 0.744419,-1.84321 0.808006,-2.3728 l 0.07825,-0.65175 -0.461074,0.49627 c -0.418373,0.45032 -0.520739,0.49628 -1.105285,0.49628 -0.75376,0 -1.24889,-0.29687 -1.60367,-0.96153 -0.520545,-0.97521 -0.05204,-2.18856 1.788882,-4.63285 0.631039,-0.83787 1.229556,-1.67926 1.330039,-1.86976 0.214123,-0.40594 0.34976,-0.43827 0.455824,-0.10864 0.04207,0.13075 0.677794,1.04447 1.41272,2.0305 1.536038,2.06085 1.902385,2.73419 1.975208,3.63039 0.132684,1.63288 -1.715457,2.55421 -2.89993,1.44566 l -0.451731,-0.42277 0.07179,0.73063 c 0.03949,0.40184 0.220799,1.05169 0.402927,1.4441 0.182127,0.3924 0.331142,0.74942 0.331142,0.79337 0,0.0439 -0.493115,0.0799 -1.09581,0.0799 -0.683721,0 -1.073803,-0.0478 -1.037288,-0.127 z"
       id="path2754"
       transform="translate(-1.0416666e-6,-1.1083333e-5)" />
    <path
       style="display:inline;fill:#180f09;stroke-width:1"
       d="m 90.575167,504.3076 c 0,-0.0626 -0.605429,-0.93411 -1.345397,-1.93675 -0.739967,-1.00264 -1.502042,-2.12687 -1.693499,-2.49828 -0.712272,-1.38175 -0.511262,-2.57484 0.516487,-3.0656 0.851705,-0.40669 1.476723,-0.30454 2.09458,0.34235 l 0.334813,0.35054 -0.08832,-0.6985 c -0.04857,-0.38417 -0.250473,-1.04329 -0.44866,-1.46469 l -0.36034,-0.7662 1.12216,-0.007 1.12216,-0.007 -0.229887,0.39198 c -0.29125,0.49662 -0.637844,1.65908 -0.637844,2.13931 v 0.36772 l 0.391265,-0.38594 c 0.882048,-0.87005 2.457004,-0.5505 2.833547,0.57491 0.32688,0.97699 -0.126801,2.17668 -1.508027,3.98774 -0.397006,0.52055 -1.005396,1.36098 -1.35198,1.86761 -0.611916,0.89448 -0.751059,1.04406 -0.751059,0.80738 z"
       id="path2744"
       transform="translate(-1.0416666e-6,-1.1083333e-5)" />
    <path
       style="display:inline;fill:#180f09;stroke-width:1"
       d="m 67.875349,503.49495 c -0.340422,-0.5033 -1.01539,-1.45315 -1.49993,-2.11077 -1.440272,-1.95476 -1.741445,-3.27567 -0.956632,-4.19568 0.64657,-0.75795 1.748078,-0.77657 2.524667,-0.0427 l 0.357719,0.33805 -0.0031,-0.30951 c -0.0053,-0.52264 -0.252896,-1.41276 -0.561545,-2.01891 l -0.293876,-0.57713 1.115492,2.6e-4 1.11549,2.5e-4 -0.358252,0.762 c -0.197039,0.4191 -0.397514,1.07632 -0.445498,1.4605 l -0.08725,0.6985 0.374514,-0.34605 c 0.541445,-0.50028 1.068417,-0.65228 1.68951,-0.48731 0.966747,0.25678 1.448716,1.06365 1.273074,2.13128 -0.118596,0.72088 -0.63714,1.60872 -2.086863,3.57307 -0.739967,1.00264 -1.345397,1.87418 -1.345397,1.93675 0,0.27551 -0.235391,0.04 -0.812078,-0.81265 z"
       id="path2742"
       transform="translate(-1.0416666e-6,-1.1083333e-5)" />
  </g>
  <g
     inkscape:groupmode="layer"
     id="layer6"
     inkscape:label="OuterSuit"
     style="display:inline"
     transform="translate(94.217781,-340.71922)">
    <path
       style="display:inline;fill:#180f09;stroke-width:1"
       d="m 54.659216,470.45356 c 0.465576,-0.94152 0.692612,-1.74243 0.829345,-2.9257 0.06323,-0.54722 0.05064,-0.60003 -0.09112,-0.38202 -0.382966,0.58894 -1.014812,1.06277 -1.574086,1.18043 -1.718959,0.36164 -3.032338,-0.68135 -3.032338,-2.40806 0,-1.33397 0.51054,-2.30482 2.824897,-5.37186 0.686649,-0.90997 1.447259,-1.98148 1.690243,-2.38114 0.242984,-0.39965 0.470759,-0.72665 0.506165,-0.72665 0.03541,0 0.249839,0.30247 0.476516,0.67216 0.226676,0.36969 0.884711,1.29675 1.4623,2.06015 1.592943,2.10538 2.263232,3.09513 2.624959,3.87604 0.843705,1.82141 0.541663,3.42822 -0.761387,4.05043 -1.178417,0.56271 -2.519355,0.26928 -3.15863,-0.69117 -0.22726,-0.34143 -0.334113,-0.42264 -0.363497,-0.27625 -0.09005,0.44862 0.393231,2.22999 0.874878,3.22477 l 0.507815,1.04883 -0.348659,-0.0948 c -0.426229,-0.11588 -2.158235,-0.11635 -2.605746,-7.6e-4 l -0.325816,0.0842 0.464164,-0.93865 z"
       id="path2752"
       transform="translate(-1.0416666e-6,-1.1083333e-5)" />
    <path
       style="display:inline;fill:#180f09;stroke-width:1"
       d="m 102.50964,502.02389 c -0.48195,-0.74197 -1.36869,-2.00625 -1.97052,-2.80953 -1.461481,-1.95066 -2.02554,-3.08116 -2.084704,-4.17818 -0.06259,-1.16068 0.302341,-1.83837 1.254041,-2.32879 1.177983,-0.60701 2.172913,-0.42424 3.010593,0.55306 l 0.47694,0.55641 -0.0836,-0.5715 c -0.16231,-1.10963 -0.56663,-2.48526 -0.9462,-3.21929 -0.25958,-0.50196 -0.3229,-0.71962 -0.19532,-0.67133 0.44681,0.16913 1.47198,0.21743 2.18757,0.10308 0.42488,-0.0679 0.79011,-0.10717 0.81163,-0.0873 0.0215,0.0199 -0.0808,0.22836 -0.22734,0.46325 -0.37796,0.60577 -0.87296,2.21042 -0.9774,3.16843 l -0.0888,0.81464 0.49064,-0.55627 c 0.5695,-0.64569 1.11283,-0.90535 1.88621,-0.90144 1.57262,0.008 2.53424,1.15621 2.37935,2.84114 -0.0933,1.01532 -0.74058,2.24374 -2.22389,4.22076 -0.6222,0.8293 -1.50138,2.04988 -1.95372,2.71242 -0.45235,0.66254 -0.83296,1.21245 -0.84582,1.22203 -0.0129,0.01 -0.4177,-0.58964 -0.89966,-1.33161 z"
       id="path2746"
       transform="translate(-1.0416666e-6,-1.1083333e-5)" />
  </g>
  <g
     inkscape:groupmode="layer"
     id="layer3"
     inkscape:label="CardName"
     style="display:inline"
     transform="translate(94.217781,-340.71922)">
    <path
       id="path2552"
       style="display:inline;fill:#180f09;stroke-width:1"
       d="m 98.546149,506.45358 0.03772,0.85731 0.03824,0.85732 0.680535,0.0382 0.680534,0.0387 -0.03667,1.23145 c -0.02599,0.87042 -0.08428,1.23627 -0.19803,1.24747 -0.08852,0.009 -0.392566,0.0225 -0.675819,0.0315 l -0.514985,0.016 v 0.82527 c 0,0.76694 0.02057,0.82677 0.289711,0.84078 0.159331,0.008 0.343956,0.004 0.410207,-0.008 0.06625,-0.0126 0.254694,0.0106 0.418589,0.0512 l 0.298094,0.0734 v 3.87108 5.3e-4 3.87108 h 0.894805 0.89481 l 0.44688,-0.54001 c 0.24571,-0.29687 1.7234,-2.05416 3.28427,-3.90519 l 2.83791,-3.36569 0.005,-0.93844 0.005,-0.93845 -2.78972,0.0661 c -1.53444,0.0364 -3.01193,0.0369 -3.28322,0.001 l -0.49351,-0.0651 v -1.18959 c 0,-0.85654 0.045,-1.19545 0.16083,-1.20975 0.0885,-0.0109 0.3931,-0.025 0.67635,-0.032 l 0.51498,-0.0114 0.0377,-0.85731 0.0382,-0.85731 h -2.32922 z m 5.924161,5.99188 c 0.82413,-2.6e-4 1.42603,0.031 1.42603,0.0801 0,0.0604 -0.70945,0.93691 -1.57691,1.94769 -0.86747,1.01077 -1.79291,2.09178 -2.05628,2.40192 l -0.47883,0.56379 0.0283,-2.47634 0.0283,-2.47685 2.02798,-0.0346 c 0.20912,-0.004 0.41124,-0.006 0.60143,-0.006 z"
       transform="translate(-1.0416666e-6,-1.1083333e-5)" />
    <path
       id="path2762"
       style="display:inline;fill:#180f09;stroke-width:1"
       d="m 59.288387,440.27519 -0.929905,0.0372 -0.929907,0.0372 -2.300404,2.73058 c -1.265181,1.50178 -2.729643,3.24256 -3.254412,3.86798 l -0.954005,1.13688 v 0.92656 0.92656 h 3.283225 3.283223 v 1.27021 1.2702 h -0.708299 -0.708302 v 0.88884 0.88883 h 2.317695 2.317692 v -0.88883 -0.88884 h -0.713015 -0.712492 l 0.03667,-1.23817 0.03667,-1.23868 0.676342,-0.0382 0.675819,-0.0382 v -0.88263 -0.88212 h -0.708299 -0.708302 v -3.94291 z m -1.808995,2.86856 0.0037,2.50838 0.0031,2.50837 h -2.131711 c -2.037394,0 -2.124342,-0.0105 -1.963542,-0.23151 0.281617,-0.387 3.097368,-3.71717 3.609082,-4.26847 z"
       transform="translate(-1.0416666e-6,-1.1083333e-5)" />
  </g>
</svg>
