<?xml version="1.0" encoding="UTF-8" standalone="no"?>
<svg
   width="63.500004mm"
   height="88.899895mm"
   viewBox="142.0878 95.116776 63.500012 88.899887"
   version="1.1"
   id="svg10"
   sodipodi:docname="5C.svg"
   inkscape:version="1.1.1 (1:1.1+202109281949+c3084ef5ed)"
   inkscape:export-filename="/home/doug/k40/52Cards/IndividualColorCards/5C.png"
   inkscape:export-xdpi="300"
   inkscape:export-ydpi="300"
   xmlns:inkscape="http://www.inkscape.org/namespaces/inkscape"
   xmlns:sodipodi="http://sodipodi.sourceforge.net/DTD/sodipodi-0.dtd"
   xmlns="http://www.w3.org/2000/svg"
   xmlns:svg="http://www.w3.org/2000/svg">
  <defs
     id="defs14">
    <marker
       style="overflow:visible"
       id="marker2995"
       refX="0"
       refY="0"
       orient="auto"
       inkscape:stockid="Arrow1Lstart"
       inkscape:isstock="true">
      <path
         transform="matrix(0.8,0,0,0.8,10,0)"
         style="fill:#000000;fill-opacity:1;fill-rule:evenodd;stroke:#000000;stroke-width:1pt;stroke-opacity:1"
         d="M 0,0 5,-5 -12.5,0 5,5 Z"
         id="path2993" />
    </marker>
    <marker
       style="overflow:visible"
       id="marker2985"
       refX="0"
       refY="0"
       orient="auto"
       inkscape:stockid="Arrow1Lstart"
       inkscape:isstock="true">
      <path
         transform="matrix(0.8,0,0,0.8,10,0)"
         style="fill:#000000;fill-opacity:1;fill-rule:evenodd;stroke:#000000;stroke-width:1pt;stroke-opacity:1"
         d="M 0,0 5,-5 -12.5,0 5,5 Z"
         id="path2983" />
    </marker>
    <marker
       style="overflow:visible"
       id="marker2791"
       refX="0"
       refY="0"
       orient="auto"
       inkscape:stockid="Arrow1Lstart"
       inkscape:isstock="true">
      <path
         transform="matrix(0.8,0,0,0.8,10,0)"
         style="fill:#000000;fill-opacity:1;fill-rule:evenodd;stroke:#000000;stroke-width:1pt;stroke-opacity:1"
         d="M 0,0 5,-5 -12.5,0 5,5 Z"
         id="path2789" />
    </marker>
    <marker
       style="overflow:visible"
       id="marker2781"
       refX="0"
       refY="0"
       orient="auto"
       inkscape:stockid="Arrow1Lstart"
       inkscape:isstock="true">
      <path
         transform="matrix(0.8,0,0,0.8,10,0)"
         style="fill:#000000;fill-opacity:1;fill-rule:evenodd;stroke:#000000;stroke-width:1pt;stroke-opacity:1"
         d="M 0,0 5,-5 -12.5,0 5,5 Z"
         id="path2779" />
    </marker>
    <marker
       style="overflow:visible"
       id="marker2417"
       refX="0"
       refY="0"
       orient="auto"
       inkscape:stockid="Arrow1Lstart"
       inkscape:isstock="true">
      <path
         transform="matrix(0.8,0,0,0.8,10,0)"
         style="fill:#000000;fill-opacity:1;fill-rule:evenodd;stroke:#000000;stroke-width:1pt;stroke-opacity:1"
         d="M 0,0 5,-5 -12.5,0 5,5 Z"
         id="path2415" />
    </marker>
    <marker
       style="overflow:visible"
       id="marker2383"
       refX="0"
       refY="0"
       orient="auto"
       inkscape:stockid="Arrow1Lstart"
       inkscape:isstock="true">
      <path
         transform="matrix(0.8,0,0,0.8,10,0)"
         style="fill:#000000;fill-opacity:1;fill-rule:evenodd;stroke:#000000;stroke-width:1pt;stroke-opacity:1"
         d="M 0,0 5,-5 -12.5,0 5,5 Z"
         id="path2381" />
    </marker>
    <marker
       style="overflow:visible"
       id="marker2355"
       refX="0"
       refY="0"
       orient="auto"
       inkscape:stockid="Arrow1Lstart"
       inkscape:isstock="true">
      <path
         transform="matrix(0.8,0,0,0.8,10,0)"
         style="fill:#000000;fill-opacity:1;fill-rule:evenodd;stroke:#000000;stroke-width:1pt;stroke-opacity:1"
         d="M 0,0 5,-5 -12.5,0 5,5 Z"
         id="path2353" />
    </marker>
    <marker
       style="overflow:visible"
       id="Arrow1Lstart"
       refX="0"
       refY="0"
       orient="auto"
       inkscape:stockid="Arrow1Lstart"
       inkscape:isstock="true">
      <path
         transform="matrix(0.8,0,0,0.8,10,0)"
         style="fill:#000000;fill-opacity:1;fill-rule:evenodd;stroke:#000000;stroke-width:1pt;stroke-opacity:1"
         d="M 0,0 5,-5 -12.5,0 5,5 Z"
         id="path2071" />
    </marker>
  </defs>
  <sodipodi:namedview
     id="namedview12"
     pagecolor="#ffffff"
     bordercolor="#666666"
     borderopacity="1.0"
     inkscape:pageshadow="2"
     inkscape:pageopacity="0.0"
     inkscape:pagecheckerboard="0"
     inkscape:document-units="mm"
     showgrid="false"
     showborder="false"
     fit-margin-top="0"
     fit-margin-left="0"
     fit-margin-right="0"
     fit-margin-bottom="0"
     inkscape:zoom="1.4874999"
     inkscape:cx="120.00001"
     inkscape:cy="167.7311"
     inkscape:window-width="1366"
     inkscape:window-height="712"
     inkscape:window-x="0"
     inkscape:window-y="0"
     inkscape:window-maximized="1"
     inkscape:current-layer="layer1" />
  <g
     inkscape:groupmode="layer"
     id="layer1"
     inkscape:label="CardOutline"
     style="display:inline"
     transform="translate(94.217781,-340.71922)">
    <path
       id="path4-3"
       style="display:inline;fill:none;fill-rule:evenodd;stroke:#000000;stroke-width:0.25;stroke-miterlimit:4;stroke-dasharray:none;stroke-opacity:1"
       d="m 50.564743,435.96104 -0.534158,0.31687 c -0.688621,0.40844 -1.158412,0.85449 -1.590112,1.51001 l -0.346181,0.5258 -0.06384,25.43159 c -0.03506,13.98732 -0.046,32.74824 -0.02422,41.69094 0.03916,16.06607 0.04297,16.26663 0.30127,16.87005 h 2.54e-4 c 0.321831,0.75178 1.375871,1.69211 2.308962,2.06009 0.662802,0.26139 0.718825,0.26193 29.335815,0.23047 27.968057,-0.0307 28.683467,-0.0377 29.150357,-0.27706 0.72044,-0.36932 1.35524,-0.98173 1.76901,-1.70664 l 0.37116,-0.65029 9.8e-4,-41.53137 9.8e-4,-41.53137 -0.30833,-0.61121 c -0.3634,-0.72062 -1.20695,-1.59056 -1.92217,-1.98245 l -0.50968,-0.27931 -28.969947,-0.0331 z m 0.134234,0.49272 57.679013,0.0666 0.38933,0.21242 0.11632,0.0681 0.12061,0.0774 0.13902,0.0985 0.11304,0.0864 0.12364,0.1017 0.13751,0.12124 0.11153,0.10621 0.13145,0.13177 0.10774,0.11773 0.12692,0.13477 0.0918,0.11748 0.10345,0.13201 0.0951,0.13352 0.0785,0.11974 0.0739,0.12124 0.0603,0.11222 0.25661,0.50651 -0.003,82.81198 -0.30631,0.53682 -0.13726,0.22444 -0.18268,0.24876 -0.16754,0.20014 -0.19757,0.20466 -0.19327,0.17285 -0.23542,0.18336 -0.22481,0.1503 -0.2233,0.12574 -0.0212,0.0108 -0.0149,0.006 -0.0394,0.012 -0.027,0.006 -0.0507,0.01 -0.0277,0.004 -0.0606,0.008 -0.0573,0.008 -0.0679,0.006 -0.083,0.0105 -0.0868,0.004 -0.0913,0.006 -0.10698,0.007 -0.25056,0.012 -0.3048,0.0108 -0.3545,0.0105 -0.41809,0.009 -0.47538,0.009 -0.54929,0.008 -0.96108,0.0105 -1.14073,0.0108 -3.46459,0.0165 -34.84847,0.0471 -6.84314,-0.003 -1.74276,-0.004 -1.260078,-0.006 -1.065289,-0.008 -0.60506,-0.006 -0.534158,-0.008 -0.467798,-0.009 -0.401438,-0.009 -0.339623,-0.009 -0.289659,-0.012 -0.126666,-0.006 -0.11632,-0.006 -0.106979,-0.006 -0.08302,-0.006 -0.08302,-0.008 -0.07998,-0.006 -0.0545,-0.007 -0.10093,-0.0135 -0.09967,-0.0183 -0.03911,-0.009 -0.04844,-0.0138 -0.0376,-0.0135 -0.04692,-0.0183 -0.167539,-0.0726 -0.143315,-0.0699 -0.177886,-0.0985 -0.140542,-0.0864 -0.159971,-0.10773 -0.155176,-0.11372 -0.152651,-0.12124 -0.161231,-0.13803 -0.123887,-0.11372 -0.144835,-0.14729 -0.11026,-0.11974 -0.119098,-0.14253 -0.08604,-0.11374 -0.09361,-0.13951 -0.06485,-0.11098 -0.05601,-0.11974 -0.027,-0.0669 -0.03481,-0.10621 -0.0061,-0.027 -0.01211,-0.0669 -0.01338,-0.0939 -0.01514,-0.12124 -0.0044,-0.0531 -0.01362,-0.15632 -0.0099,-0.16206 -0.01133,-0.21243 -0.01059,-0.23947 -0.0088,-0.27305 -0.0091,-0.31236 -0.0076,-0.3532 -0.01059,-0.61573 -0.0091,-0.72319 -0.0106,-1.15404 -0.0106,-1.77404 -0.01641,-4.27149 -0.01968,-8.14897 -0.0061,-8.546 0.0015,-6.72963 0.0044,-7.16476 0.0091,-7.2692 0.01943,-9.71082 0.0651,-25.28355 0.257868,-0.39253 0.152402,-0.21993 0.166025,-0.21393 0.147862,-0.16834 0.169052,-0.17133 0.185708,-0.16508 0.168798,-0.13202 0.229612,-0.16082 0.227845,-0.14253 z"
       inkscape:export-filename="/home/doug/k40/52Cards/IndividualColorCards/2D.png"
       inkscape:export-xdpi="300"
       inkscape:export-ydpi="300" />
  </g>
  <g
     inkscape:groupmode="layer"
     id="layer2"
     inkscape:label="InnerRectangle"
     style="display:inline"
     transform="translate(94.217781,-340.71922)">
    <path
       id="path2-6"
       style="display:inline;fill:none;fill-rule:evenodd;stroke:#4c71a5;stroke-width:0.262609;stroke-opacity:1"
       d="m 63.13524,452.67467 0.0441,14.05596 c 0.0243,7.7307 0.0504,20.15551 0.0578,27.61093 l 0.0134,13.55547 16.409043,-0.0521 16.40903,-0.0519 0.0305,-24.32539 c 0.0169,-13.37898 -0.004,-25.78048 -0.0462,-27.55907 l -0.077,-3.23394 h -16.42035 z m 16.503153,0.25626 h 16.11155 l 0.005,0.73622 c 0.003,0.40503 0.0367,12.68075 0.0757,27.27927 l 0.0709,26.54279 -3.16634,0.004 c -1.74158,0.002 -8.99902,0.0153 -16.12745,0.0285 -7.12842,0.0133 -12.991523,-0.007 -13.029223,-0.0446 -0.0728,-0.0731 -0.16665,-54.20072 -0.0944,-54.4185 0.028,-0.0844 5.532343,-0.128 16.154193,-0.128 z"
       inkscape:export-filename="/home/doug/k40/52Cards/IndividualColorCards/2D.png"
       inkscape:export-xdpi="300"
       inkscape:export-ydpi="300" />
  </g>
  <g
     inkscape:groupmode="layer"
     id="layer5"
     inkscape:label="InnerSuit"
     style="display:inline"
     transform="translate(94.217781,-340.71922)">
    <path
       style="display:inline;fill:#20150c;stroke-width:1"
       d="m 88.436436,465.01414 c 0.552868,-1.25544 0.736745,-1.86359 0.786923,-2.60263 0.05124,-0.75471 0.04172,-0.80455 -0.07902,-0.41362 -0.270896,0.87714 -0.963498,1.33068 -1.895356,1.24114 -1.769923,-0.17007 -2.222965,-2.20023 -0.738346,-3.30865 0.356697,-0.26632 1.070287,-0.33578 1.756062,-0.17094 l 0.4445,0.10684 -0.430703,-0.45101 c -0.750946,-0.78636 -0.691474,-2.1183 0.125268,-2.80554 1.145031,-0.96348 2.908935,-0.10559 2.908935,1.41479 0,0.6298 -0.132923,0.94843 -0.618768,1.48324 l -0.333732,0.36736 0.3175,-0.0866 c 1.145106,-0.31218 1.771492,-0.14726 2.357182,0.62061 0.278079,0.36458 0.358665,0.60679 0.358665,1.078 0,1.13465 -0.775286,1.83047 -1.943022,1.74386 -0.597627,-0.0443 -0.743138,-0.11153 -1.11125,-0.51321 -0.232966,-0.25421 -0.423575,-0.57734 -0.423575,-0.71806 0,-0.14073 -0.05783,-0.25587 -0.128501,-0.25587 -0.134837,0 -0.06937,0.69521 0.14672,1.55815 0.09687,0.38683 0.414161,1.17247 0.717104,1.7756 0.02631,0.0524 -0.477384,0.0953 -1.119328,0.0953 -0.886355,0 -1.150351,-0.0382 -1.097261,-0.15875 z"
       id="path2798"
       transform="translate(-1.0416666e-6,-1.1083333e-5)" />
    <path
       style="display:inline;fill:#20150c;stroke-width:1"
       d="m 68.581929,465.19958 c -1.25e-4,-0.0202 0.108823,-0.25056 0.242107,-0.51182 0.45393,-0.88978 0.90619,-2.94387 0.648167,-2.94387 -0.07068,0 -0.130527,0.10001 -0.133002,0.22225 -0.01469,0.72551 -0.790092,1.29973 -1.756691,1.30091 -0.619285,7.7e-4 -0.725091,-0.0428 -1.155778,-0.47541 -0.647778,-0.65073 -0.754222,-1.25233 -0.361197,-2.0414 0.454927,-0.91335 1.226976,-1.22969 2.389167,-0.97895 l 0.4445,0.0959 -0.333732,-0.3634 c -0.480249,-0.52294 -0.618768,-0.84783 -0.618768,-1.45131 0,-0.65523 0.386326,-1.31884 0.933011,-1.60268 0.521611,-0.27082 1.372743,-0.26639 1.793539,0.009 0.961046,0.6297 1.125615,2.1946 0.315938,3.00428 -0.346161,0.34616 -0.291538,0.38738 0.326577,0.24642 1.313255,-0.29949 2.489967,0.78031 2.285842,2.09757 -0.142916,0.92228 -0.804084,1.4605 -1.794115,1.4605 -0.569488,0 -0.745121,-0.0598 -1.106361,-0.37703 -0.236173,-0.20736 -0.489503,-0.56455 -0.562953,-0.79375 l -0.133547,-0.41672 -0.01297,0.5167 c -0.01523,0.60703 0.278368,1.66339 0.685891,2.4678 l 0.289528,0.5715 h -1.192465 c -0.655856,0 -1.192567,-0.0166 -1.192692,-0.0368 z"
       id="path2796"
       transform="translate(-1.0416666e-6,-1.1083333e-5)" />
    <path
       style="display:inline;fill:#20150c;stroke-width:1"
       d="m 78.542621,484.54039 c 0.505394,-1.11189 0.74195,-1.88174 0.777586,-2.53058 0.0233,-0.42428 0.01327,-0.64491 -0.02229,-0.49029 -0.103447,0.44973 -0.722374,1.01893 -1.267592,1.16574 -1.025332,0.2761 -2.101679,-0.36863 -2.269022,-1.35912 -0.216763,-1.28301 1.052254,-2.41324 2.315624,-2.06238 0.69937,0.19423 0.745322,0.16854 0.386559,-0.21612 -0.476158,-0.51052 -0.610779,-0.83543 -0.610779,-1.47415 0,-1.26258 1.411912,-2.09903 2.595256,-1.5375 0.983817,0.46685 1.270232,2.06591 0.511824,2.85752 -0.196935,0.20555 -0.33357,0.39823 -0.303634,0.42816 0.02994,0.0299 0.315445,-0.005 0.634467,-0.0783 1.582773,-0.36219 2.879664,1.47482 1.936385,2.74283 -0.842333,1.13232 -2.682091,0.93273 -3.132791,-0.33987 l -0.189455,-0.53494 -0.01002,0.5167 c -0.01182,0.60946 0.283433,1.66748 0.688686,2.4678 l 0.289388,0.5715 h -1.193954 c -0.749788,0 -1.17248,-0.0472 -1.136228,-0.127 z"
       id="path2752"
       transform="translate(-1.0416666e-6,-1.1083333e-5)" />
    <path
       style="display:inline;fill:#20150c;stroke-width:1"
       d="m 88.901702,504.32426 c -0.487557,-0.1832 -0.887833,-0.59532 -1.08846,-1.12065 -0.259038,-0.67828 -0.128472,-1.32344 0.393343,-1.94358 0.397578,-0.47249 0.395253,-0.5517 -0.01165,-0.39699 -1.17104,0.44523 -2.430293,-0.27874 -2.565098,-1.47472 -0.228019,-2.02299 2.456866,-2.77241 3.361881,-0.93839 0.274099,0.55546 0.280634,0.55963 0.28575,0.1824 0.0071,-0.52677 -0.324797,-1.76211 -0.686059,-2.55322 l -0.298324,-0.65328 1.188367,-0.006 1.188367,-0.006 -0.322933,0.7227 c -0.564976,1.26437 -0.927762,3.40131 -0.392198,2.31019 0.497002,-1.01255 1.705748,-1.38812 2.604328,-0.8092 0.81876,0.5275 1.05516,1.86884 0.455059,2.58202 -0.5932,0.70498 -1.569981,0.98131 -2.226599,0.6299 -0.398039,-0.21303 -0.441153,-0.024 -0.08228,0.36086 0.46312,0.49659 0.609509,0.83291 0.609509,1.4003 0,1.15634 -1.348101,2.11363 -2.413,1.71349 z"
       id="path2744"
       transform="translate(-1.0416666e-6,-1.1083333e-5)" />
    <path
       style="display:inline;fill:#20150c;stroke-width:1"
       d="m 68.899202,504.2208 c -0.507581,-0.25782 -0.795391,-0.61845 -0.949074,-1.18918 -0.164365,-0.61041 -7.62e-4,-1.18092 0.527025,-1.83767 0.303653,-0.37785 0.344596,-0.47902 0.16074,-0.39718 -0.537182,0.23913 -1.500937,0.21044 -1.930602,-0.0575 -1.1459,-0.7145 -1.215883,-2.08092 -0.152406,-2.97578 0.822848,-0.69238 2.193812,-0.32334 2.666412,0.71775 l 0.243827,0.53712 0.0028,-0.44956 c 0.0037,-0.59768 -0.30221,-1.74364 -0.667748,-2.50136 l -0.295847,-0.61326 1.181662,0.004 c 0.649915,0.002 1.181676,0.0113 1.181693,0.02 1.5e-5,0.009 -0.138336,0.32881 -0.307448,0.71121 -0.48496,1.09657 -0.836792,2.76534 -0.583029,2.76534 0.07067,0 0.128501,-0.12102 0.128501,-0.26894 0,-0.14791 0.221877,-0.49081 0.493058,-0.762 0.450773,-0.45077 0.551766,-0.49306 1.177565,-0.49306 0.575806,0 0.759194,0.0616 1.154849,0.3877 1.017326,0.83857 0.851506,2.38985 -0.320224,2.99577 -0.30059,0.15545 -0.593301,0.18619 -1.217554,0.1279 l -0.821829,-0.0767 0.32305,0.34643 c 0.459574,0.49285 0.608154,0.83173 0.60761,1.38584 -0.0013,1.30804 -1.44767,2.20987 -2.603025,1.62301 z"
       id="path2742"
       transform="translate(-1.0416666e-6,-1.1083333e-5)" />
  </g>
  <g
     inkscape:groupmode="layer"
     id="layer6"
     inkscape:label="OuterSuit"
     style="display:inline"
     transform="translate(94.217781,-340.71922)">
    <path
       style="display:inline;fill:#20150c;stroke-width:1"
       d="m 54.685348,468.47195 c 0.49915,-0.99459 0.944553,-2.62027 0.936526,-3.41823 l -0.0058,-0.57933 -0.368612,0.79655 c -0.331876,0.71717 -0.435715,0.8278 -1.041922,1.11002 -0.743364,0.34606 -1.073985,0.37959 -1.788032,0.1813 -1.444693,-0.4012 -2.151314,-2.21955 -1.364994,-3.51255 0.319757,-0.5258 0.972925,-0.9992 1.613851,-1.16969 0.508752,-0.13533 0.829683,-0.10078 1.817572,0.19565 0.283532,0.0851 0.260408,0.0311 -0.220745,-0.51554 -0.950511,-1.07984 -1.040857,-2.28057 -0.256342,-3.40686 0.693236,-0.99526 2.587822,-1.16068 3.506489,-0.30617 0.483447,0.44968 0.781391,1.16036 0.781391,1.86381 0,0.79701 -0.221114,1.34556 -0.759325,1.88377 -0.484077,0.48407 -0.431059,0.63326 0.14086,0.39636 1.291275,-0.53486 2.950454,0.22854 3.338788,1.5362 0.548505,1.84702 -1.092846,3.54928 -2.942134,3.05132 -0.740459,-0.19939 -1.260887,-0.68379 -1.520768,-1.4155 -0.290354,-0.81751 -0.462476,-0.7973 -0.354188,0.0416 0.140502,1.08844 0.440997,2.13148 0.901559,3.12939 0.238265,0.51625 0.433208,0.94487 0.433208,0.9525 0,0.008 -0.734202,0.0139 -1.63156,0.0139 h -1.63156 z"
       id="path2778"
       transform="translate(-1.0416666e-6,-1.1083333e-5)" />
    <path
       style="display:inline;fill:#20150c;stroke-width:1"
       d="m 102.56745,503.27509 c -0.84198,-0.26817 -1.60075,-1.38114 -1.60075,-2.34802 0,-0.68478 0.40715,-1.62041 0.86021,-1.97679 0.40666,-0.31987 0.29101,-0.44837 -0.23768,-0.26407 -0.86062,0.30002 -2.081195,0.0888 -2.695144,-0.46641 -0.684807,-0.61928 -0.932962,-2.01915 -0.514323,-2.90137 0.271701,-0.57257 0.958137,-1.12718 1.626797,-1.3144 1.122,-0.31414 2.42251,0.45103 2.75108,1.61861 l 0.16934,0.60175 0.0442,-0.55982 c 0.0593,-0.75248 -0.2674,-2.15255 -0.77333,-3.31368 l -0.41502,-0.9525 h 1.56046 c 0.85825,0 1.56046,0.006 1.56046,0.0139 0,0.008 -0.1996,0.44587 -0.44355,0.97388 -0.52282,1.13158 -0.82542,2.31984 -0.81573,3.20325 l 0.007,0.635 0.18103,-0.5879 c 0.29435,-0.95597 1.40276,-1.76631 2.40478,-1.7581 0.42096,0.003 1.24459,0.44666 1.67573,0.90175 1.07999,1.13996 0.64201,3.17484 -0.82281,3.8228 -0.57422,0.25401 -1.50235,0.26542 -2.31342,0.0284 -0.31042,-0.0907 -0.30862,-0.0832 0.081,0.33763 0.59146,0.63873 0.85541,1.23958 0.85854,1.95438 0.005,1.24394 -0.94227,2.3035 -2.15817,2.41282 -0.34259,0.0308 -0.78839,0.003 -0.99065,-0.0611 z"
       id="path2746"
       transform="translate(-1.0416666e-6,-1.1083333e-5)" />
  </g>
  <g
     inkscape:groupmode="layer"
     id="layer3"
     inkscape:label="CardName"
     style="display:inline"
     transform="translate(94.217781,-340.71922)">
    <path
       style="display:inline;fill:#20150c;stroke-width:1"
       d="m 55.263433,454.11872 c -0.887476,-0.18191 -1.62005,-0.60298 -2.230677,-1.28214 -0.613084,-0.6819 -1.193025,-1.78053 -1.305382,-2.47291 l -0.06991,-0.43078 h 0.880104 0.880104 l 0.171998,0.47625 c 0.629041,1.74177 2.254262,2.49976 3.538115,1.65015 1.262025,-0.83517 1.735141,-3.4357 0.916867,-5.03965 -0.292548,-0.57344 -1.14971,-1.36873 -1.595923,-1.48072 -0.879368,-0.22071 -1.927641,0.26588 -2.509919,1.16504 -0.277616,0.4287 -0.286541,0.4318 -1.250274,0.43336 -0.706414,0.001 -0.988861,-0.0458 -1.037509,-0.17263 -0.03677,-0.0958 -0.04805,-1.31024 -0.02508,-2.69875 0.02297,-1.3885 0.04694,-2.85316 0.05326,-3.2548 l 0.01149,-0.73025 h 4.0005 4.0005 v 0.88678 0.88678 l -3.14325,0.034 -3.14325,0.034 -0.03646,1.19787 c -0.04681,1.5378 0.0018,1.67184 0.452967,1.24979 0.627542,-0.58698 1.164757,-0.78276 2.135995,-0.77846 1.5978,0.007 2.875731,0.88865 3.696954,2.55028 0.438898,0.88805 0.480427,1.06704 0.524633,2.26125 0.06989,1.88794 -0.310054,3.0753 -1.368068,4.27539 -0.89139,1.01108 -2.286441,1.49876 -3.547785,1.24021 z"
       id="path2842"
       transform="translate(-1.0416666e-6,-1.1083333e-5)" />
    <path
       style="display:inline;fill:#20150c;stroke-width:1"
       d="m 99.569702,519.40189 v -0.889 h 3.111498 3.1115 v -1.41913 -1.41914 l -0.28575,0.26438 c -1.3807,1.27743 -3.64516,1.09685 -5.02562,-0.40077 -0.960194,-1.04169 -1.416613,-2.29286 -1.416613,-3.88334 0,-2.16671 0.960653,-3.94155 2.600483,-4.80444 0.53229,-0.2801 0.79934,-0.33414 1.651,-0.33414 1.20218,0 1.94117,0.3183 2.83267,1.2201 0.59214,0.59899 1.42183,2.11738 1.42183,2.60205 0,0.28689 -0.0387,0.30014 -0.85725,0.29388 l -0.85725,-0.007 -0.381,-0.78194 c -0.52013,-1.06749 -1.11159,-1.52266 -2.0657,-1.58971 -0.65756,-0.0462 -0.7818,-0.0122 -1.27911,0.3501 -1.51036,1.10033 -1.7436,4.15776 -0.42836,5.61532 0.50588,0.56063 1.07985,0.86434 1.6335,0.86434 0.63094,0 1.43273,-0.49768 1.86352,-1.15669 l 0.40315,-0.61675 0.98425,-0.002 0.98425,-0.002 v 3.4925 3.4925 h -4.0005 -4.000498 v -0.889 z"
       id="path2552"
       transform="translate(-1.0416666e-6,-1.1083333e-5)" />
  </g>
</svg>
