<?xml version="1.0" encoding="UTF-8" standalone="no"?>
<svg
   width="63.500004mm"
   height="88.899895mm"
   viewBox="142.0878 95.116776 63.500012 88.899887"
   version="1.1"
   id="svg10"
   sodipodi:docname="5D.svg"
   inkscape:version="1.1.1 (1:1.1+202109281949+c3084ef5ed)"
   inkscape:export-filename="/home/doug/k40/52Cards/IndividualColorCards/5D.png"
   inkscape:export-xdpi="300"
   inkscape:export-ydpi="300"
   xmlns:inkscape="http://www.inkscape.org/namespaces/inkscape"
   xmlns:sodipodi="http://sodipodi.sourceforge.net/DTD/sodipodi-0.dtd"
   xmlns="http://www.w3.org/2000/svg"
   xmlns:svg="http://www.w3.org/2000/svg">
  <defs
     id="defs14">
    <marker
       style="overflow:visible"
       id="marker2995"
       refX="0"
       refY="0"
       orient="auto"
       inkscape:stockid="Arrow1Lstart"
       inkscape:isstock="true">
      <path
         transform="matrix(0.8,0,0,0.8,10,0)"
         style="fill:#000000;fill-opacity:1;fill-rule:evenodd;stroke:#000000;stroke-width:1pt;stroke-opacity:1"
         d="M 0,0 5,-5 -12.5,0 5,5 Z"
         id="path2993" />
    </marker>
    <marker
       style="overflow:visible"
       id="marker2985"
       refX="0"
       refY="0"
       orient="auto"
       inkscape:stockid="Arrow1Lstart"
       inkscape:isstock="true">
      <path
         transform="matrix(0.8,0,0,0.8,10,0)"
         style="fill:#000000;fill-opacity:1;fill-rule:evenodd;stroke:#000000;stroke-width:1pt;stroke-opacity:1"
         d="M 0,0 5,-5 -12.5,0 5,5 Z"
         id="path2983" />
    </marker>
    <marker
       style="overflow:visible"
       id="marker2791"
       refX="0"
       refY="0"
       orient="auto"
       inkscape:stockid="Arrow1Lstart"
       inkscape:isstock="true">
      <path
         transform="matrix(0.8,0,0,0.8,10,0)"
         style="fill:#000000;fill-opacity:1;fill-rule:evenodd;stroke:#000000;stroke-width:1pt;stroke-opacity:1"
         d="M 0,0 5,-5 -12.5,0 5,5 Z"
         id="path2789" />
    </marker>
    <marker
       style="overflow:visible"
       id="marker2781"
       refX="0"
       refY="0"
       orient="auto"
       inkscape:stockid="Arrow1Lstart"
       inkscape:isstock="true">
      <path
         transform="matrix(0.8,0,0,0.8,10,0)"
         style="fill:#000000;fill-opacity:1;fill-rule:evenodd;stroke:#000000;stroke-width:1pt;stroke-opacity:1"
         d="M 0,0 5,-5 -12.5,0 5,5 Z"
         id="path2779" />
    </marker>
    <marker
       style="overflow:visible"
       id="marker2417"
       refX="0"
       refY="0"
       orient="auto"
       inkscape:stockid="Arrow1Lstart"
       inkscape:isstock="true">
      <path
         transform="matrix(0.8,0,0,0.8,10,0)"
         style="fill:#000000;fill-opacity:1;fill-rule:evenodd;stroke:#000000;stroke-width:1pt;stroke-opacity:1"
         d="M 0,0 5,-5 -12.5,0 5,5 Z"
         id="path2415" />
    </marker>
    <marker
       style="overflow:visible"
       id="marker2383"
       refX="0"
       refY="0"
       orient="auto"
       inkscape:stockid="Arrow1Lstart"
       inkscape:isstock="true">
      <path
         transform="matrix(0.8,0,0,0.8,10,0)"
         style="fill:#000000;fill-opacity:1;fill-rule:evenodd;stroke:#000000;stroke-width:1pt;stroke-opacity:1"
         d="M 0,0 5,-5 -12.5,0 5,5 Z"
         id="path2381" />
    </marker>
    <marker
       style="overflow:visible"
       id="marker2355"
       refX="0"
       refY="0"
       orient="auto"
       inkscape:stockid="Arrow1Lstart"
       inkscape:isstock="true">
      <path
         transform="matrix(0.8,0,0,0.8,10,0)"
         style="fill:#000000;fill-opacity:1;fill-rule:evenodd;stroke:#000000;stroke-width:1pt;stroke-opacity:1"
         d="M 0,0 5,-5 -12.5,0 5,5 Z"
         id="path2353" />
    </marker>
    <marker
       style="overflow:visible"
       id="Arrow1Lstart"
       refX="0"
       refY="0"
       orient="auto"
       inkscape:stockid="Arrow1Lstart"
       inkscape:isstock="true">
      <path
         transform="matrix(0.8,0,0,0.8,10,0)"
         style="fill:#000000;fill-opacity:1;fill-rule:evenodd;stroke:#000000;stroke-width:1pt;stroke-opacity:1"
         d="M 0,0 5,-5 -12.5,0 5,5 Z"
         id="path2071" />
    </marker>
  </defs>
  <sodipodi:namedview
     id="namedview12"
     pagecolor="#ffffff"
     bordercolor="#666666"
     borderopacity="1.0"
     inkscape:pageshadow="2"
     inkscape:pageopacity="0.0"
     inkscape:pagecheckerboard="0"
     inkscape:document-units="mm"
     showgrid="false"
     showborder="false"
     fit-margin-top="0"
     fit-margin-left="0"
     fit-margin-right="0"
     fit-margin-bottom="0"
     inkscape:zoom="1.2541666"
     inkscape:cx="120.00001"
     inkscape:cy="167.84054"
     inkscape:window-width="1366"
     inkscape:window-height="712"
     inkscape:window-x="0"
     inkscape:window-y="0"
     inkscape:window-maximized="1"
     inkscape:current-layer="layer6" />
  <g
     inkscape:groupmode="layer"
     id="layer1"
     inkscape:label="CardOutline"
     style="display:inline"
     transform="translate(94.217781,-340.71922)">
    <path
       id="path4-3"
       style="display:inline;fill:none;fill-rule:evenodd;stroke:#000000;stroke-width:0.25;stroke-miterlimit:4;stroke-dasharray:none;stroke-opacity:1"
       d="m 50.564743,435.96104 -0.534158,0.31687 c -0.688621,0.40844 -1.158412,0.85449 -1.590112,1.51001 l -0.346181,0.5258 -0.06384,25.43159 c -0.03506,13.98732 -0.046,32.74824 -0.02422,41.69094 0.03916,16.06607 0.04297,16.26663 0.30127,16.87005 h 2.54e-4 c 0.321831,0.75178 1.375871,1.69211 2.308962,2.06009 0.662802,0.26139 0.718825,0.26193 29.335815,0.23047 27.968057,-0.0307 28.683467,-0.0377 29.150357,-0.27706 0.72044,-0.36932 1.35524,-0.98173 1.76901,-1.70664 l 0.37116,-0.65029 9.8e-4,-41.53137 9.8e-4,-41.53137 -0.30833,-0.61121 c -0.3634,-0.72062 -1.20695,-1.59056 -1.92217,-1.98245 l -0.50968,-0.27931 -28.969947,-0.0331 z m 0.134234,0.49272 57.679013,0.0666 0.38933,0.21242 0.11632,0.0681 0.12061,0.0774 0.13902,0.0985 0.11304,0.0864 0.12364,0.1017 0.13751,0.12124 0.11153,0.10621 0.13145,0.13177 0.10774,0.11773 0.12692,0.13477 0.0918,0.11748 0.10345,0.13201 0.0951,0.13352 0.0785,0.11974 0.0739,0.12124 0.0603,0.11222 0.25661,0.50651 -0.003,82.81198 -0.30631,0.53682 -0.13726,0.22444 -0.18268,0.24876 -0.16754,0.20014 -0.19757,0.20466 -0.19327,0.17285 -0.23542,0.18336 -0.22481,0.1503 -0.2233,0.12574 -0.0212,0.0108 -0.0149,0.006 -0.0394,0.012 -0.027,0.006 -0.0507,0.01 -0.0277,0.004 -0.0606,0.008 -0.0573,0.008 -0.0679,0.006 -0.083,0.0105 -0.0868,0.004 -0.0913,0.006 -0.10698,0.007 -0.25056,0.012 -0.3048,0.0108 -0.3545,0.0105 -0.41809,0.009 -0.47538,0.009 -0.54929,0.008 -0.96108,0.0105 -1.14073,0.0108 -3.46459,0.0165 -34.84847,0.0471 -6.84314,-0.003 -1.74276,-0.004 -1.260078,-0.006 -1.065289,-0.008 -0.60506,-0.006 -0.534158,-0.008 -0.467798,-0.009 -0.401438,-0.009 -0.339623,-0.009 -0.289659,-0.012 -0.126666,-0.006 -0.11632,-0.006 -0.106979,-0.006 -0.08302,-0.006 -0.08302,-0.008 -0.07998,-0.006 -0.0545,-0.007 -0.10093,-0.0135 -0.09967,-0.0183 -0.03911,-0.009 -0.04844,-0.0138 -0.0376,-0.0135 -0.04692,-0.0183 -0.167539,-0.0726 -0.143315,-0.0699 -0.177886,-0.0985 -0.140542,-0.0864 -0.159971,-0.10773 -0.155176,-0.11372 -0.152651,-0.12124 -0.161231,-0.13803 -0.123887,-0.11372 -0.144835,-0.14729 -0.11026,-0.11974 -0.119098,-0.14253 -0.08604,-0.11374 -0.09361,-0.13951 -0.06485,-0.11098 -0.05601,-0.11974 -0.027,-0.0669 -0.03481,-0.10621 -0.0061,-0.027 -0.01211,-0.0669 -0.01338,-0.0939 -0.01514,-0.12124 -0.0044,-0.0531 -0.01362,-0.15632 -0.0099,-0.16206 -0.01133,-0.21243 -0.01059,-0.23947 -0.0088,-0.27305 -0.0091,-0.31236 -0.0076,-0.3532 -0.01059,-0.61573 -0.0091,-0.72319 -0.0106,-1.15404 -0.0106,-1.77404 -0.01641,-4.27149 -0.01968,-8.14897 -0.0061,-8.546 0.0015,-6.72963 0.0044,-7.16476 0.0091,-7.2692 0.01943,-9.71082 0.0651,-25.28355 0.257868,-0.39253 0.152402,-0.21993 0.166025,-0.21393 0.147862,-0.16834 0.169052,-0.17133 0.185708,-0.16508 0.168798,-0.13202 0.229612,-0.16082 0.227845,-0.14253 z"
       inkscape:export-filename="/home/doug/k40/52Cards/IndividualColorCards/2D.png"
       inkscape:export-xdpi="300"
       inkscape:export-ydpi="300" />
  </g>
  <g
     inkscape:groupmode="layer"
     id="layer2"
     inkscape:label="InnerRectangle"
     style="display:inline"
     transform="translate(94.217781,-340.71922)">
    <path
       id="path2-6"
       style="display:inline;fill:none;fill-rule:evenodd;stroke:#4c71a5;stroke-width:0.262609;stroke-opacity:1"
       d="m 63.13524,452.67467 0.0441,14.05596 c 0.0243,7.7307 0.0504,20.15551 0.0578,27.61093 l 0.0134,13.55547 16.409043,-0.0521 16.40903,-0.0519 0.0305,-24.32539 c 0.0169,-13.37898 -0.004,-25.78048 -0.0462,-27.55907 l -0.077,-3.23394 h -16.42035 z m 16.503153,0.25626 h 16.11155 l 0.005,0.73622 c 0.003,0.40503 0.0367,12.68075 0.0757,27.27927 l 0.0709,26.54279 -3.16634,0.004 c -1.74158,0.002 -8.99902,0.0153 -16.12745,0.0285 -7.12842,0.0133 -12.991523,-0.007 -13.029223,-0.0446 -0.0728,-0.0731 -0.16665,-54.20072 -0.0944,-54.4185 0.028,-0.0844 5.532343,-0.128 16.154193,-0.128 z"
       inkscape:export-filename="/home/doug/k40/52Cards/IndividualColorCards/2D.png"
       inkscape:export-xdpi="300"
       inkscape:export-ydpi="300" />
  </g>
  <g
     inkscape:groupmode="layer"
     id="layer5"
     inkscape:label="InnerSuit"
     style="display:inline"
     transform="translate(94.217781,-340.71922)">
    <path
       style="fill:#e40f1a;stroke-width:1"
       d="m 95.928788,455.71603 c 0,-0.0349 0.02894,-0.0635 0.06432,-0.0635 0.03537,0 0.06432,0.0286 0.06432,0.0635 0,0.0349 -0.02894,0.0635 -0.06432,0.0635 -0.03537,0 -0.06432,-0.0286 -0.06432,-0.0635 z"
       id="path2790" />
    <path
       style="fill:#e40f1a;stroke-width:1"
       d="m 62.998766,457.36752 c 0,-0.0349 0.02895,-0.0635 0.06432,-0.0635 0.03537,0 0.06432,0.0286 0.06432,0.0635 0,0.0349 -0.02895,0.0635 -0.06432,0.0635 -0.03538,0 -0.06432,-0.0286 -0.06432,-0.0635 z"
       id="path2788" />
    <path
       style="fill:#e40f1a;stroke-width:1"
       d="m 63.050797,458.80883 c -0.05686,-0.0908 -0.03529,-0.11218 0.05672,-0.056 0.08168,0.0498 0.148507,0.11585 0.148507,0.14667 0,0.10596 -0.113589,0.0558 -0.205232,-0.0906 z"
       id="path2786" />
    <path
       style="fill:#e40f1a;stroke-width:1"
       d="m 63.127399,460.03532 c 0,-0.0349 0.02895,-0.0635 0.06432,-0.0635 0.03538,0 0.06432,0.0286 0.06432,0.0635 0,0.0349 -0.02895,0.0635 -0.06432,0.0635 -0.03538,0 -0.06432,-0.0286 -0.06432,-0.0635 z"
       id="path2784" />
    <path
       style="fill:#e40f1a;stroke-width:1"
       d="m 63.127399,461.94088 c 0,-0.0349 0.02895,-0.0635 0.06432,-0.0635 0.03538,0 0.06432,0.0286 0.06432,0.0635 0,0.0349 -0.02895,0.0635 -0.06432,0.0635 -0.03538,0 -0.06432,-0.0286 -0.06432,-0.0635 z"
       id="path2782" />
    <path
       style="fill:#e40f1a;stroke-width:1"
       d="m 63.127399,463.84645 c 0,-0.0349 0.02895,-0.0635 0.06432,-0.0635 0.03538,0 0.06432,0.0286 0.06432,0.0635 0,0.0349 -0.02895,0.0635 -0.06432,0.0635 -0.03538,0 -0.06432,-0.0286 -0.06432,-0.0635 z"
       id="path2780" />
    <path
       style="fill:#e40f1a;stroke-width:1"
       d="m 89.36851,465.15338 c -0.704564,-1.26489 -1.500377,-2.35703 -2.362616,-3.24238 l -0.647714,-0.66507 0.326426,-0.35123 c 0.778253,-0.8374 0.940029,-1.03601 1.579534,-1.9392 0.371039,-0.52404 0.895292,-1.34817 1.16501,-1.83141 0.547678,-0.98125 0.553592,-0.98064 1.124271,0.1164 0.460542,0.88531 1.738003,2.64671 2.345569,3.23415 0.322174,0.3115 0.585773,0.6286 0.585773,0.70469 0,0.0761 -0.236433,0.36429 -0.525407,0.6405 -0.569672,0.54448 -2.120836,2.75691 -2.633708,3.75645 -0.175069,0.3412 -0.331803,0.61945 -0.348299,0.61833 -0.0165,-0.001 -0.290473,-0.46968 -0.608839,-1.04123 z"
       id="path2778" />
    <path
       style="fill:#e40f1a;stroke-width:1"
       d="m 68.676215,465.27562 c -0.704604,-1.26022 -1.748169,-2.70508 -2.418478,-3.34846 -0.306724,-0.29441 -0.557679,-0.57383 -0.557679,-0.62095 0,-0.0471 0.340813,-0.46667 0.757365,-0.93235 0.773273,-0.86448 1.941018,-2.56066 2.455533,-3.56674 l 0.286596,-0.56042 0.387416,0.68745 c 0.654281,1.16099 1.774769,2.74228 2.517604,3.55295 l 0.707221,0.77182 -0.521056,0.53154 c -0.688655,0.70251 -1.818206,2.27937 -2.476726,3.45752 -0.291639,0.52176 -0.551087,0.94867 -0.576549,0.94867 -0.02546,0 -0.278025,-0.41447 -0.561247,-0.92103 z"
       id="path2776" />
    <path
       style="fill:#e40f1a;stroke-width:1"
       d="m 63.127399,471.34168 c 0,-0.0349 0.02895,-0.0635 0.06432,-0.0635 0.03538,0 0.06432,0.0286 0.06432,0.0635 0,0.0349 -0.02895,0.0635 -0.06432,0.0635 -0.03538,0 -0.06432,-0.0286 -0.06432,-0.0635 z"
       id="path2772" />
    <path
       style="fill:#e40f1a;stroke-width:1"
       d="m 63.127399,472.35798 c 0,-0.0349 0.02895,-0.0635 0.06432,-0.0635 0.03538,0 0.06432,0.0286 0.06432,0.0635 0,0.0349 -0.02895,0.0635 -0.06432,0.0635 -0.03538,0 -0.06432,-0.0286 -0.06432,-0.0635 z"
       id="path2770" />
    <path
       style="fill:#e40f1a;stroke-width:1"
       d="m 63.127399,475.02577 c 0,-0.0349 0.02895,-0.0635 0.06432,-0.0635 0.03538,0 0.06432,0.0286 0.06432,0.0635 0,0.0349 -0.02895,0.0635 -0.06432,0.0635 -0.03538,0 -0.06432,-0.0286 -0.06432,-0.0635 z"
       id="path2768" />
    <path
       style="fill:#e40f1a;stroke-width:1"
       d="m 79.200239,484.39481 c -0.675747,-1.1845 -1.586622,-2.45332 -2.374512,-3.30766 l -0.736548,-0.79865 0.696585,-0.7258 c 0.816604,-0.85085 1.673223,-2.03413 2.341766,-3.23479 0.262608,-0.47163 0.500748,-0.85751 0.529196,-0.85751 0.02845,0 0.266641,0.38588 0.529316,0.85751 0.632316,1.13532 1.616057,2.48226 2.406129,3.29448 l 0.640491,0.65845 -0.826952,0.92952 c -0.889742,1.00011 -1.622795,2.02094 -2.286724,3.18445 -0.229253,0.40176 -0.435993,0.73046 -0.459421,0.73046 -0.02343,0 -0.230125,-0.3287 -0.459326,-0.73046 z"
       id="path2766" />
    <path
       style="fill:#e40f1a;stroke-width:1"
       d="m 63.127399,490.2703 c 0,-0.0349 0.02895,-0.0635 0.06432,-0.0635 0.03538,0 0.06432,0.0286 0.06432,0.0635 0,0.0349 -0.02895,0.0635 -0.06432,0.0635 -0.03538,0 -0.06432,-0.0286 -0.06432,-0.0635 z"
       id="path2764" />
    <path
       style="fill:#e40f1a;stroke-width:1"
       d="m 96.05742,499.03591 c 0,-0.0349 0.02894,-0.0635 0.06432,-0.0635 0.03537,0 0.06432,0.0286 0.06432,0.0635 0,0.0349 -0.02894,0.0635 -0.06432,0.0635 -0.03537,0 -0.06432,-0.0286 -0.06432,-0.0635 z"
       id="path2762" />
    <path
       style="fill:#e40f1a;stroke-width:1"
       d="m 63.127399,501.95778 c 0,-0.0349 0.02895,-0.0635 0.06432,-0.0635 0.03538,0 0.06432,0.0286 0.06432,0.0635 0,0.0349 -0.02895,0.0635 -0.06432,0.0635 -0.03538,0 -0.06432,-0.0286 -0.06432,-0.0635 z"
       id="path2760" />
    <path
       style="fill:#e40f1a;stroke-width:1"
       d="m 89.757879,503.80655 c -0.518578,-1.0039 -1.446809,-2.3506 -2.335755,-3.3888 -0.485946,-0.56753 -0.883538,-1.05784 -0.883538,-1.08958 0,-0.0317 0.264892,-0.33914 0.588646,-0.68313 0.656809,-0.69786 1.877791,-2.46434 2.447183,-3.54052 0.205118,-0.38769 0.401984,-0.70502 0.437481,-0.70519 0.03549,-1.2e-4 0.201655,0.25497 0.369244,0.56696 0.607564,1.13106 1.782892,2.81582 2.479649,3.55439 l 0.712391,0.75516 -0.769165,0.89634 c -0.846688,0.98667 -1.730215,2.26997 -2.35834,3.42541 l -0.408018,0.75057 z"
       id="path2756" />
    <path
       style="fill:#e40f1a;stroke-width:1"
       d="m 69.173146,504.20267 c 0,-0.30127 -1.683114,-2.8165 -2.509051,-3.74952 l -0.949833,-1.07296 0.267512,-0.23566 c 0.597687,-0.52653 1.75756,-2.09333 2.49981,-3.37686 l 0.788015,-1.36267 0.882975,1.46553 c 0.485636,0.80604 1.293586,1.9363 1.795443,2.51169 l 0.912468,1.04617 -0.762419,0.81868 c -0.81053,0.87033 -1.952093,2.50212 -2.429896,3.47338 -0.260822,0.5302 -0.495024,0.75835 -0.495024,0.48222 z"
       id="path2754" />
    <path
       style="fill:#e40f1a;stroke-width:1"
       d="m 95.671522,507.54744 c 0,-0.0349 0.02894,-0.0635 0.06432,-0.0635 0.03537,0 0.06432,0.0286 0.06432,0.0635 0,0.0349 -0.02894,0.0635 -0.06432,0.0635 -0.03537,0 -0.06432,-0.0286 -0.06432,-0.0635 z"
       id="path2752" />
  </g>
  <g
     inkscape:groupmode="layer"
     id="layer6"
     inkscape:label="OuterSuit"
     style="display:inline"
     transform="translate(94.217781,-340.71922)">
    <path
       style="display:inline;fill:#e40f1a;stroke-width:1"
       d="m 55.3384,470.43272 c -1.323812,-2.38245 -2.597194,-4.16354 -3.838563,-5.36904 l -0.708816,-0.68832 0.679446,-0.72479 c 1.373393,-1.46503 2.948717,-3.75028 3.956592,-5.73964 0.167172,-0.32997 0.332891,-0.60084 0.368265,-0.60193 0.03538,-0.001 0.324798,0.49448 0.643165,1.10127 0.912579,1.73934 2.218362,3.60305 3.35612,4.79011 l 1.046985,1.09235 -0.820182,0.85866 c -1.44034,1.5079 -2.137217,2.48068 -3.448103,4.81327 l -0.751731,1.33763 z"
       id="path2774"
       transform="translate(-1.0416666e-6,-1.1083333e-5)" />
    <path
       style="display:inline;fill:#e40f1a;stroke-width:1"
       d="m 103.22936,502.87867 c -0.10435,-0.15729 -0.37401,-0.6465 -0.59923,-1.08713 -0.85337,-1.66954 -2.025,-3.29674 -3.369588,-4.67977 -0.417503,-0.42944 -0.759096,-0.83663 -0.759096,-0.90486 0,-0.0682 0.190178,-0.28854 0.42262,-0.48958 1.167054,-1.00937 2.923594,-3.4345 3.886584,-5.36591 0.28299,-0.56759 0.55325,-1.03241 0.60059,-1.03294 0.0473,-5.1e-4 0.35926,0.49925 0.69317,1.11062 1.07117,1.96121 2.26043,3.59926 3.63834,5.01129 l 0.70627,0.72377 -0.63243,0.7153 c -1.66116,1.87885 -2.39802,2.91124 -3.64724,5.11008 -0.36719,0.6463 -0.68621,1.1751 -0.70894,1.1751 -0.0227,0 -0.1267,-0.12869 -0.23105,-0.28597 z"
       id="path2758"
       transform="translate(-1.0416666e-6,-1.1083333e-5)" />
  </g>
  <g
     inkscape:groupmode="layer"
     id="layer3"
     inkscape:label="CardName"
     style="display:inline"
     transform="translate(94.217781,-340.71922)">
    <path
       style="display:inline;fill:#e40f1a;stroke-width:1"
       d="m 54.751119,454.08751 c -1.524727,-0.56364 -2.920759,-2.16441 -3.260627,-3.73882 l -0.08913,-0.41288 h 0.914689 c 0.75782,0 0.927093,0.0381 0.987024,0.22232 0.240234,0.73832 0.419831,1.04045 0.901001,1.51574 1.29345,1.27764 2.877008,0.92859 3.733294,-0.82289 0.298798,-0.61118 0.355194,-0.89364 0.360272,-1.80443 0.0052,-0.93478 -0.04492,-1.18881 -0.37321,-1.89124 -0.514061,-1.09992 -1.118056,-1.53896 -2.116252,-1.53831 -0.884735,5.9e-4 -1.402121,0.28402 -1.96942,1.07887 l -0.408353,0.57215 h -1.004301 -1.004302 v -3.49354 -3.49353 h 4.116252 4.116253 v 0.88926 0.88926 h -3.215822 -3.215823 v 1.39742 c 0,0.76858 0.04891,1.39741 0.108697,1.39741 0.05978,0 0.218966,-0.1224 0.353741,-0.27202 0.643254,-0.71406 2.21125,-0.95416 3.47011,-0.53137 0.740529,0.2487 1.927093,1.3425 2.355023,2.17092 1.729551,3.34816 -0.214622,7.77958 -3.504426,7.98776 -0.473061,0.0299 -0.975796,-0.019 -1.254692,-0.12208 z"
       id="path2792"
       transform="translate(-1.0416666e-6,-1.1083333e-5)" />
    <path
       style="display:inline;fill:#e40f1a;stroke-width:1"
       d="m 99.746697,520.23182 c -0.04815,-0.0475 -0.08756,-0.44753 -0.08756,-0.88883 v -0.80234 l 3.183673,-0.034 3.18366,-0.034 7.7e-4,-1.27037 c 3.9e-4,-0.69871 -0.0176,-1.31348 -0.0401,-1.36617 -0.0225,-0.0527 -0.2285,0.0456 -0.45789,0.21839 -0.6547,0.49317 -1.29483,0.70315 -2.1436,0.70315 -2.82955,0 -4.900063,-3.41868 -4.041686,-6.67334 0.731116,-2.77213 2.889516,-4.2414 5.239586,-3.56669 1.03365,0.29676 2.13497,1.32553 2.73254,2.55251 0.24578,0.50471 0.44689,1.06887 0.44689,1.25368 0,0.32872 -0.0181,0.33602 -0.83234,0.33602 h -0.83235 l -0.33923,-0.70818 c -1.4059,-2.93498 -4.5193,-2.09553 -4.77844,1.2884 -0.17717,2.31347 1.324,4.17653 2.99754,3.72017 0.52987,-0.14449 1.27662,-0.76043 1.54626,-1.27538 0.19113,-0.36503 0.19886,-0.36708 1.2476,-0.3305 l 1.05528,0.0368 v 3.43002 3.43002 l -3.99654,0.0335 c -2.1981,0.0184 -4.035943,-0.005 -4.084098,-0.0529 z"
       id="path2566"
       transform="translate(-1.0416666e-6,-1.1083333e-5)" />
  </g>
</svg>
