<?xml version="1.0" encoding="UTF-8" standalone="no"?>
<svg
   width="63.500004mm"
   height="88.899895mm"
   viewBox="142.0878 95.116776 63.500012 88.899887"
   version="1.1"
   id="svg10"
   sodipodi:docname="5H.svg"
   inkscape:version="1.1.1 (1:1.1+202109281949+c3084ef5ed)"
   inkscape:export-filename="/home/doug/k40/52Cards/IndividualColorCards/5H.png"
   inkscape:export-xdpi="300"
   inkscape:export-ydpi="300"
   xmlns:inkscape="http://www.inkscape.org/namespaces/inkscape"
   xmlns:sodipodi="http://sodipodi.sourceforge.net/DTD/sodipodi-0.dtd"
   xmlns="http://www.w3.org/2000/svg"
   xmlns:svg="http://www.w3.org/2000/svg">
  <defs
     id="defs14">
    <marker
       style="overflow:visible"
       id="marker2995"
       refX="0"
       refY="0"
       orient="auto"
       inkscape:stockid="Arrow1Lstart"
       inkscape:isstock="true">
      <path
         transform="matrix(0.8,0,0,0.8,10,0)"
         style="fill:#000000;fill-opacity:1;fill-rule:evenodd;stroke:#000000;stroke-width:1pt;stroke-opacity:1"
         d="M 0,0 5,-5 -12.5,0 5,5 Z"
         id="path2993" />
    </marker>
    <marker
       style="overflow:visible"
       id="marker2985"
       refX="0"
       refY="0"
       orient="auto"
       inkscape:stockid="Arrow1Lstart"
       inkscape:isstock="true">
      <path
         transform="matrix(0.8,0,0,0.8,10,0)"
         style="fill:#000000;fill-opacity:1;fill-rule:evenodd;stroke:#000000;stroke-width:1pt;stroke-opacity:1"
         d="M 0,0 5,-5 -12.5,0 5,5 Z"
         id="path2983" />
    </marker>
    <marker
       style="overflow:visible"
       id="marker2791"
       refX="0"
       refY="0"
       orient="auto"
       inkscape:stockid="Arrow1Lstart"
       inkscape:isstock="true">
      <path
         transform="matrix(0.8,0,0,0.8,10,0)"
         style="fill:#000000;fill-opacity:1;fill-rule:evenodd;stroke:#000000;stroke-width:1pt;stroke-opacity:1"
         d="M 0,0 5,-5 -12.5,0 5,5 Z"
         id="path2789" />
    </marker>
    <marker
       style="overflow:visible"
       id="marker2781"
       refX="0"
       refY="0"
       orient="auto"
       inkscape:stockid="Arrow1Lstart"
       inkscape:isstock="true">
      <path
         transform="matrix(0.8,0,0,0.8,10,0)"
         style="fill:#000000;fill-opacity:1;fill-rule:evenodd;stroke:#000000;stroke-width:1pt;stroke-opacity:1"
         d="M 0,0 5,-5 -12.5,0 5,5 Z"
         id="path2779" />
    </marker>
    <marker
       style="overflow:visible"
       id="marker2417"
       refX="0"
       refY="0"
       orient="auto"
       inkscape:stockid="Arrow1Lstart"
       inkscape:isstock="true">
      <path
         transform="matrix(0.8,0,0,0.8,10,0)"
         style="fill:#000000;fill-opacity:1;fill-rule:evenodd;stroke:#000000;stroke-width:1pt;stroke-opacity:1"
         d="M 0,0 5,-5 -12.5,0 5,5 Z"
         id="path2415" />
    </marker>
    <marker
       style="overflow:visible"
       id="marker2383"
       refX="0"
       refY="0"
       orient="auto"
       inkscape:stockid="Arrow1Lstart"
       inkscape:isstock="true">
      <path
         transform="matrix(0.8,0,0,0.8,10,0)"
         style="fill:#000000;fill-opacity:1;fill-rule:evenodd;stroke:#000000;stroke-width:1pt;stroke-opacity:1"
         d="M 0,0 5,-5 -12.5,0 5,5 Z"
         id="path2381" />
    </marker>
    <marker
       style="overflow:visible"
       id="marker2355"
       refX="0"
       refY="0"
       orient="auto"
       inkscape:stockid="Arrow1Lstart"
       inkscape:isstock="true">
      <path
         transform="matrix(0.8,0,0,0.8,10,0)"
         style="fill:#000000;fill-opacity:1;fill-rule:evenodd;stroke:#000000;stroke-width:1pt;stroke-opacity:1"
         d="M 0,0 5,-5 -12.5,0 5,5 Z"
         id="path2353" />
    </marker>
    <marker
       style="overflow:visible"
       id="Arrow1Lstart"
       refX="0"
       refY="0"
       orient="auto"
       inkscape:stockid="Arrow1Lstart"
       inkscape:isstock="true">
      <path
         transform="matrix(0.8,0,0,0.8,10,0)"
         style="fill:#000000;fill-opacity:1;fill-rule:evenodd;stroke:#000000;stroke-width:1pt;stroke-opacity:1"
         d="M 0,0 5,-5 -12.5,0 5,5 Z"
         id="path2071" />
    </marker>
  </defs>
  <sodipodi:namedview
     id="namedview12"
     pagecolor="#ffffff"
     bordercolor="#666666"
     borderopacity="1.0"
     inkscape:pageshadow="2"
     inkscape:pageopacity="0.0"
     inkscape:pagecheckerboard="0"
     inkscape:document-units="mm"
     showgrid="false"
     showborder="false"
     fit-margin-top="0"
     fit-margin-left="0"
     fit-margin-right="0"
     fit-margin-bottom="0"
     inkscape:zoom="1.2541666"
     inkscape:cx="120.00001"
     inkscape:cy="167.84054"
     inkscape:window-width="1366"
     inkscape:window-height="712"
     inkscape:window-x="0"
     inkscape:window-y="0"
     inkscape:window-maximized="1"
     inkscape:current-layer="layer6" />
  <g
     inkscape:groupmode="layer"
     id="layer1"
     inkscape:label="CardOutline"
     style="display:inline"
     transform="translate(94.217781,-340.71922)">
    <path
       id="path4-3"
       style="display:inline;fill:none;fill-rule:evenodd;stroke:#000000;stroke-width:0.25;stroke-miterlimit:4;stroke-dasharray:none;stroke-opacity:1"
       d="m 50.564743,435.96104 -0.534158,0.31687 c -0.688621,0.40844 -1.158412,0.85449 -1.590112,1.51001 l -0.346181,0.5258 -0.06384,25.43159 c -0.03506,13.98732 -0.046,32.74824 -0.02422,41.69094 0.03916,16.06607 0.04297,16.26663 0.30127,16.87005 h 2.54e-4 c 0.321831,0.75178 1.375871,1.69211 2.308962,2.06009 0.662802,0.26139 0.718825,0.26193 29.335815,0.23047 27.968057,-0.0307 28.683467,-0.0377 29.150357,-0.27706 0.72044,-0.36932 1.35524,-0.98173 1.76901,-1.70664 l 0.37116,-0.65029 9.8e-4,-41.53137 9.8e-4,-41.53137 -0.30833,-0.61121 c -0.3634,-0.72062 -1.20695,-1.59056 -1.92217,-1.98245 l -0.50968,-0.27931 -28.969947,-0.0331 z m 0.134234,0.49272 57.679013,0.0666 0.38933,0.21242 0.11632,0.0681 0.12061,0.0774 0.13902,0.0985 0.11304,0.0864 0.12364,0.1017 0.13751,0.12124 0.11153,0.10621 0.13145,0.13177 0.10774,0.11773 0.12692,0.13477 0.0918,0.11748 0.10345,0.13201 0.0951,0.13352 0.0785,0.11974 0.0739,0.12124 0.0603,0.11222 0.25661,0.50651 -0.003,82.81198 -0.30631,0.53682 -0.13726,0.22444 -0.18268,0.24876 -0.16754,0.20014 -0.19757,0.20466 -0.19327,0.17285 -0.23542,0.18336 -0.22481,0.1503 -0.2233,0.12574 -0.0212,0.0108 -0.0149,0.006 -0.0394,0.012 -0.027,0.006 -0.0507,0.01 -0.0277,0.004 -0.0606,0.008 -0.0573,0.008 -0.0679,0.006 -0.083,0.0105 -0.0868,0.004 -0.0913,0.006 -0.10698,0.007 -0.25056,0.012 -0.3048,0.0108 -0.3545,0.0105 -0.41809,0.009 -0.47538,0.009 -0.54929,0.008 -0.96108,0.0105 -1.14073,0.0108 -3.46459,0.0165 -34.84847,0.0471 -6.84314,-0.003 -1.74276,-0.004 -1.260078,-0.006 -1.065289,-0.008 -0.60506,-0.006 -0.534158,-0.008 -0.467798,-0.009 -0.401438,-0.009 -0.339623,-0.009 -0.289659,-0.012 -0.126666,-0.006 -0.11632,-0.006 -0.106979,-0.006 -0.08302,-0.006 -0.08302,-0.008 -0.07998,-0.006 -0.0545,-0.007 -0.10093,-0.0135 -0.09967,-0.0183 -0.03911,-0.009 -0.04844,-0.0138 -0.0376,-0.0135 -0.04692,-0.0183 -0.167539,-0.0726 -0.143315,-0.0699 -0.177886,-0.0985 -0.140542,-0.0864 -0.159971,-0.10773 -0.155176,-0.11372 -0.152651,-0.12124 -0.161231,-0.13803 -0.123887,-0.11372 -0.144835,-0.14729 -0.11026,-0.11974 -0.119098,-0.14253 -0.08604,-0.11374 -0.09361,-0.13951 -0.06485,-0.11098 -0.05601,-0.11974 -0.027,-0.0669 -0.03481,-0.10621 -0.0061,-0.027 -0.01211,-0.0669 -0.01338,-0.0939 -0.01514,-0.12124 -0.0044,-0.0531 -0.01362,-0.15632 -0.0099,-0.16206 -0.01133,-0.21243 -0.01059,-0.23947 -0.0088,-0.27305 -0.0091,-0.31236 -0.0076,-0.3532 -0.01059,-0.61573 -0.0091,-0.72319 -0.0106,-1.15404 -0.0106,-1.77404 -0.01641,-4.27149 -0.01968,-8.14897 -0.0061,-8.546 0.0015,-6.72963 0.0044,-7.16476 0.0091,-7.2692 0.01943,-9.71082 0.0651,-25.28355 0.257868,-0.39253 0.152402,-0.21993 0.166025,-0.21393 0.147862,-0.16834 0.169052,-0.17133 0.185708,-0.16508 0.168798,-0.13202 0.229612,-0.16082 0.227845,-0.14253 z"
       inkscape:export-filename="/home/doug/k40/52Cards/IndividualColorCards/2D.png"
       inkscape:export-xdpi="300"
       inkscape:export-ydpi="300" />
  </g>
  <g
     inkscape:groupmode="layer"
     id="layer2"
     inkscape:label="InnerRectangle"
     style="display:inline"
     transform="translate(94.217781,-340.71922)">
    <path
       id="path2-6"
       style="display:inline;fill:none;fill-rule:evenodd;stroke:#4c71a5;stroke-width:0.262609;stroke-opacity:1"
       d="m 63.13524,452.67467 0.0441,14.05596 c 0.0243,7.7307 0.0504,20.15551 0.0578,27.61093 l 0.0134,13.55547 16.409043,-0.0521 16.40903,-0.0519 0.0305,-24.32539 c 0.0169,-13.37898 -0.004,-25.78048 -0.0462,-27.55907 l -0.077,-3.23394 h -16.42035 z m 16.503153,0.25626 h 16.11155 l 0.005,0.73622 c 0.003,0.40503 0.0367,12.68075 0.0757,27.27927 l 0.0709,26.54279 -3.16634,0.004 c -1.74158,0.002 -8.99902,0.0153 -16.12745,0.0285 -7.12842,0.0133 -12.991523,-0.007 -13.029223,-0.0446 -0.0728,-0.0731 -0.16665,-54.20072 -0.0944,-54.4185 0.028,-0.0844 5.532343,-0.128 16.154193,-0.128 z"
       inkscape:export-filename="/home/doug/k40/52Cards/IndividualColorCards/2D.png"
       inkscape:export-xdpi="300"
       inkscape:export-ydpi="300" />
  </g>
  <g
     inkscape:groupmode="layer"
     id="layer5"
     inkscape:label="InnerSuit"
     style="display:inline"
     transform="translate(94.217781,-340.71922)">
    <path
       style="fill:#e10b16;stroke-width:1"
       d="m 89.507109,463.57953 c -2.404967,-3.95316 -2.86483,-5.40987 -2.068682,-6.55297 0.72945,-1.04734 2.237083,-0.99071 2.873842,0.10793 l 0.322906,0.55714 0.252382,-0.46742 c 0.541981,-1.00379 1.835336,-1.25454 2.649236,-0.51362 0.790095,0.71922 0.821029,1.62868 0.113001,3.32221 -0.485938,1.1623 -2.860229,5.22023 -3.055823,5.22274 -0.03669,5e-4 -0.525785,-0.75374 -1.086862,-1.67601 z"
       id="path2764" />
    <path
       style="fill:#e10b16;stroke-width:1"
       d="m 67.373973,463.21904 c -2.207095,-3.67178 -2.676323,-5.25542 -1.85215,-6.25096 0.864903,-1.04475 2.439516,-0.85476 2.988666,0.36061 l 0.167607,0.37094 0.203031,-0.37094 c 0.721297,-1.31784 2.430244,-1.40666 3.107902,-0.16152 0.461842,0.8486 0.185812,2.12688 -0.913053,4.22833 -0.473448,0.90542 -2.229979,3.72346 -2.373379,3.80766 -0.05527,0.0324 -0.653155,-0.8604 -1.328624,-1.98412 z"
       id="path2762" />
    <path
       style="fill:#e10b16;stroke-width:1"
       d="m 76.902805,484.5483 c -0.40258,-0.23325 -0.85421,-1.03186 -0.85421,-1.51049 0,-0.40747 0.382726,-1.62972 0.747188,-2.38618 0.409494,-0.84992 2.737594,-4.61152 2.854129,-4.61152 0.102688,0 1.993477,3.01873 2.537158,4.05069 1.171564,2.22371 1.284415,3.44942 0.392355,4.26147 -0.360889,0.32852 -0.505999,0.37317 -1.212786,0.37317 -0.738121,0 -0.834239,-0.0333 -1.192232,-0.41408 -0.214162,-0.22774 -0.389385,-0.49876 -0.389385,-0.60227 0,-0.31319 -0.192425,-0.21248 -0.444802,0.2328 -0.462779,0.8165 -1.590556,1.09708 -2.437415,0.60641 z"
       id="path2758" />
    <path
       style="fill:#e10b16;stroke-width:1"
       d="m 87.740259,504.0502 c -1.133968,-0.84752 -0.97715,-2.2003 0.582428,-5.02425 1.052204,-1.90526 2.142584,-3.59866 2.269259,-3.52427 0.05405,0.0317 0.429571,0.58702 0.834499,1.23397 2.325409,3.7153 3.020263,5.6199 2.439566,6.68688 -0.319381,0.58684 -0.831396,0.89246 -1.495172,0.89246 -0.788563,0 -1.290723,-0.26945 -1.579393,-0.84746 -0.220279,-0.44107 -0.250205,-0.45899 -0.384966,-0.23052 -0.08036,0.13625 -0.335275,0.43453 -0.566467,0.66286 -0.364129,0.3596 -0.508961,0.41512 -1.082914,0.41512 -0.469845,0 -0.765616,-0.077 -1.01684,-0.26479 z"
       id="path2754" />
    <path
       style="fill:#e10b16;stroke-width:1"
       d="m 65.932187,504.14345 c -1.223384,-0.64504 -1.091928,-2.33332 0.391419,-5.02698 0.866856,-1.57416 2.161751,-3.6658 2.27331,-3.67207 0.140659,-0.008 1.666374,2.46841 2.457746,3.98905 1.229287,2.3621 1.394268,3.56073 0.60555,4.39947 -0.311033,0.33076 -0.487233,0.40221 -1.093758,0.44353 -0.891068,0.0607 -1.290558,-0.12403 -1.674443,-0.77428 l -0.289876,-0.49101 -0.210697,0.38712 c -0.339155,0.62318 -0.834169,0.91733 -1.535102,0.91222 -0.338725,-0.002 -0.754591,-0.0777 -0.924149,-0.16705 z"
       id="path2752" />
  </g>
  <g
     inkscape:groupmode="layer"
     id="layer6"
     inkscape:label="OuterSuit"
     style="display:inline"
     transform="translate(94.217781,-340.71922)">
    <path
       style="display:inline;fill:#e10b16;stroke-width:1"
       d="m 54.09478,467.07584 c -3.022607,-4.80448 -3.841692,-7.18973 -2.981755,-8.68317 0.523562,-0.90927 1.834627,-1.35735 2.875291,-0.98271 0.553424,0.19924 0.974708,0.61627 1.272324,1.25949 l 0.264002,0.57057 0.30355,-0.64563 c 0.438295,-0.93221 0.974311,-1.25556 2.081977,-1.25596 0.747197,-2.5e-4 0.947279,0.0503 1.349019,0.34121 1.419247,1.02758 1.228444,3.15879 -0.576726,6.44192 -0.755662,1.37434 -3.077124,5.07172 -3.184371,5.07172 -0.03915,0 -0.670639,-0.95284 -1.403311,-2.11744 z"
       id="path2760"
       transform="translate(-1.0416666e-6,-1.1083333e-5)" />
    <path
       style="display:inline;fill:#e10b16;stroke-width:1"
       d="m 100.65503,503.29684 c -0.4689,-0.1366 -1.053081,-0.64601 -1.335117,-1.16421 -0.758411,-1.39352 0.08925,-3.89473 2.736387,-8.07428 0.59152,-0.93396 1.10784,-1.78981 1.14737,-1.9019 0.0395,-0.11208 0.18111,-0.33833 0.31462,-0.50276 l 0.24275,-0.29895 1.4832,2.39104 c 3.34784,5.39701 3.92551,7.55534 2.41502,9.02332 -0.64033,0.62229 -1.49951,0.78946 -2.43271,0.47331 -0.54279,-0.18388 -0.77671,-0.41922 -1.24104,-1.24855 l -0.28645,-0.51163 -0.34372,0.64449 c -0.18905,0.35447 -0.52041,0.76404 -0.73637,0.91015 -0.45903,0.31057 -1.37436,0.43173 -1.96394,0.25997 z"
       id="path2756"
       transform="translate(-1.0416666e-6,-1.1083333e-5)" />
  </g>
  <g
     inkscape:groupmode="layer"
     id="layer3"
     inkscape:label="CardName"
     style="display:inline"
     transform="translate(94.217781,-340.71922)">
    <path
       style="display:inline;fill:#e10b16;stroke-width:1"
       d="m 54.409903,454.06275 c -0.978096,-0.34756 -1.669187,-0.83688 -2.254852,-1.59652 -0.567228,-0.73573 -1.247316,-2.23401 -1.109922,-2.44523 0.03587,-0.0551 0.453488,-0.10028 0.928035,-0.10028 0.820516,0 0.869236,0.0171 0.993867,0.34868 0.729675,1.94136 2.375934,2.69518 3.854952,1.76518 1.106768,-0.69591 1.6465,-2.7123 1.15554,-4.31697 -0.286526,-0.9365 -1.233501,-1.91649 -1.978862,-2.04787 -1.028332,-0.18126 -2.014745,0.28262 -2.598856,1.22215 -0.221892,0.35692 -0.255642,0.36618 -1.335292,0.36618 h -1.107645 l 0.0355,-3.45512 0.0355,-3.45511 4.236841,-0.0335 4.236841,-0.0334 v 0.88712 0.88711 l -3.302734,0.034 -3.302735,0.0339 -0.03848,1.25891 c -0.04863,1.59079 -0.0075,1.70345 0.469203,1.2835 2.052811,-1.80861 5.461406,-0.45628 6.440327,2.55514 0.45869,1.41105 0.299586,3.30293 -0.384695,4.57429 -0.423817,0.78745 -1.31496,1.64179 -2.086736,2.00056 -0.876786,0.40759 -2.157391,0.52626 -2.885807,0.26741 z"
       id="path2766"
       transform="translate(-1.0416666e-6,-1.1083333e-5)" />
    <path
       style="display:inline;fill:#e10b16;stroke-width:1"
       d="m 99.828859,519.43507 0.03946,-0.85585 3.002491,-0.0235 c 1.65137,-0.0129 3.10757,-0.0272 3.236,-0.0317 0.20704,-0.007 0.23354,-0.15933 0.23354,-1.33959 0,-0.73223 -0.034,-1.33132 -0.0756,-1.33132 -0.0416,0 -0.26678,0.13752 -0.50042,0.3056 -0.65105,0.46839 -1.7255,0.75618 -2.46579,0.66046 -3.622304,-0.46839 -5.278985,-5.14492 -3.02075,-8.52701 1.46167,-2.18909 4.43904,-2.47886 6.35206,-0.61821 0.70973,0.69028 1.4258,1.94745 1.47722,2.59349 l 0.0348,0.43701 -0.83943,0.0429 -0.83942,0.043 -0.28003,-0.60679 c -0.59985,-1.29976 -1.42489,-1.9381 -2.50492,-1.9381 -1.50261,0 -2.54902,1.42426 -2.53614,3.45194 0.0125,1.97671 1.06835,3.33149 2.59629,3.33149 0.80701,0 1.40173,-0.32803 1.9796,-1.0919 l 0.37298,-0.49301 h 1.05889 1.0589 v 3.42341 3.42342 h -4.20958 -4.209585 z"
       id="path2566"
       transform="translate(-1.0416666e-6,-1.1083333e-5)" />
  </g>
</svg>
