<?xml version="1.0" encoding="UTF-8" standalone="no"?>
<svg
   width="63.500004mm"
   height="88.899895mm"
   viewBox="142.0878 95.116776 63.500012 88.899887"
   version="1.1"
   id="svg10"
   sodipodi:docname="5S.svg"
   inkscape:version="1.1.1 (1:1.1+202109281949+c3084ef5ed)"
   inkscape:export-filename="/home/doug/k40/52Cards/IndividualColorCards/5S.png"
   inkscape:export-xdpi="300"
   inkscape:export-ydpi="300"
   xmlns:inkscape="http://www.inkscape.org/namespaces/inkscape"
   xmlns:sodipodi="http://sodipodi.sourceforge.net/DTD/sodipodi-0.dtd"
   xmlns="http://www.w3.org/2000/svg"
   xmlns:svg="http://www.w3.org/2000/svg">
  <defs
     id="defs14">
    <marker
       style="overflow:visible"
       id="marker2995"
       refX="0"
       refY="0"
       orient="auto"
       inkscape:stockid="Arrow1Lstart"
       inkscape:isstock="true">
      <path
         transform="matrix(0.8,0,0,0.8,10,0)"
         style="fill:#000000;fill-opacity:1;fill-rule:evenodd;stroke:#000000;stroke-width:1pt;stroke-opacity:1"
         d="M 0,0 5,-5 -12.5,0 5,5 Z"
         id="path2993" />
    </marker>
    <marker
       style="overflow:visible"
       id="marker2985"
       refX="0"
       refY="0"
       orient="auto"
       inkscape:stockid="Arrow1Lstart"
       inkscape:isstock="true">
      <path
         transform="matrix(0.8,0,0,0.8,10,0)"
         style="fill:#000000;fill-opacity:1;fill-rule:evenodd;stroke:#000000;stroke-width:1pt;stroke-opacity:1"
         d="M 0,0 5,-5 -12.5,0 5,5 Z"
         id="path2983" />
    </marker>
    <marker
       style="overflow:visible"
       id="marker2791"
       refX="0"
       refY="0"
       orient="auto"
       inkscape:stockid="Arrow1Lstart"
       inkscape:isstock="true">
      <path
         transform="matrix(0.8,0,0,0.8,10,0)"
         style="fill:#000000;fill-opacity:1;fill-rule:evenodd;stroke:#000000;stroke-width:1pt;stroke-opacity:1"
         d="M 0,0 5,-5 -12.5,0 5,5 Z"
         id="path2789" />
    </marker>
    <marker
       style="overflow:visible"
       id="marker2781"
       refX="0"
       refY="0"
       orient="auto"
       inkscape:stockid="Arrow1Lstart"
       inkscape:isstock="true">
      <path
         transform="matrix(0.8,0,0,0.8,10,0)"
         style="fill:#000000;fill-opacity:1;fill-rule:evenodd;stroke:#000000;stroke-width:1pt;stroke-opacity:1"
         d="M 0,0 5,-5 -12.5,0 5,5 Z"
         id="path2779" />
    </marker>
    <marker
       style="overflow:visible"
       id="marker2417"
       refX="0"
       refY="0"
       orient="auto"
       inkscape:stockid="Arrow1Lstart"
       inkscape:isstock="true">
      <path
         transform="matrix(0.8,0,0,0.8,10,0)"
         style="fill:#000000;fill-opacity:1;fill-rule:evenodd;stroke:#000000;stroke-width:1pt;stroke-opacity:1"
         d="M 0,0 5,-5 -12.5,0 5,5 Z"
         id="path2415" />
    </marker>
    <marker
       style="overflow:visible"
       id="marker2383"
       refX="0"
       refY="0"
       orient="auto"
       inkscape:stockid="Arrow1Lstart"
       inkscape:isstock="true">
      <path
         transform="matrix(0.8,0,0,0.8,10,0)"
         style="fill:#000000;fill-opacity:1;fill-rule:evenodd;stroke:#000000;stroke-width:1pt;stroke-opacity:1"
         d="M 0,0 5,-5 -12.5,0 5,5 Z"
         id="path2381" />
    </marker>
    <marker
       style="overflow:visible"
       id="marker2355"
       refX="0"
       refY="0"
       orient="auto"
       inkscape:stockid="Arrow1Lstart"
       inkscape:isstock="true">
      <path
         transform="matrix(0.8,0,0,0.8,10,0)"
         style="fill:#000000;fill-opacity:1;fill-rule:evenodd;stroke:#000000;stroke-width:1pt;stroke-opacity:1"
         d="M 0,0 5,-5 -12.5,0 5,5 Z"
         id="path2353" />
    </marker>
    <marker
       style="overflow:visible"
       id="Arrow1Lstart"
       refX="0"
       refY="0"
       orient="auto"
       inkscape:stockid="Arrow1Lstart"
       inkscape:isstock="true">
      <path
         transform="matrix(0.8,0,0,0.8,10,0)"
         style="fill:#000000;fill-opacity:1;fill-rule:evenodd;stroke:#000000;stroke-width:1pt;stroke-opacity:1"
         d="M 0,0 5,-5 -12.5,0 5,5 Z"
         id="path2071" />
    </marker>
  </defs>
  <sodipodi:namedview
     id="namedview12"
     pagecolor="#ffffff"
     bordercolor="#666666"
     borderopacity="1.0"
     inkscape:pageshadow="2"
     inkscape:pageopacity="0.0"
     inkscape:pagecheckerboard="0"
     inkscape:document-units="mm"
     showgrid="false"
     showborder="false"
     fit-margin-top="0"
     fit-margin-left="0"
     fit-margin-right="0"
     fit-margin-bottom="0"
     inkscape:zoom="1.2541666"
     inkscape:cx="120.00001"
     inkscape:cy="167.84054"
     inkscape:window-width="1366"
     inkscape:window-height="712"
     inkscape:window-x="0"
     inkscape:window-y="0"
     inkscape:window-maximized="1"
     inkscape:current-layer="layer6" />
  <g
     inkscape:groupmode="layer"
     id="layer1"
     inkscape:label="CardOutline"
     style="display:inline"
     transform="translate(94.217781,-340.71922)">
    <path
       id="path4-3"
       style="display:inline;fill:none;fill-rule:evenodd;stroke:#000000;stroke-width:0.25;stroke-miterlimit:4;stroke-dasharray:none;stroke-opacity:1"
       d="m 50.564743,435.96104 -0.534158,0.31687 c -0.688621,0.40844 -1.158412,0.85449 -1.590112,1.51001 l -0.346181,0.5258 -0.06384,25.43159 c -0.03506,13.98732 -0.046,32.74824 -0.02422,41.69094 0.03916,16.06607 0.04297,16.26663 0.30127,16.87005 h 2.54e-4 c 0.321831,0.75178 1.375871,1.69211 2.308962,2.06009 0.662802,0.26139 0.718825,0.26193 29.335815,0.23047 27.968057,-0.0307 28.683467,-0.0377 29.150357,-0.27706 0.72044,-0.36932 1.35524,-0.98173 1.76901,-1.70664 l 0.37116,-0.65029 9.8e-4,-41.53137 9.8e-4,-41.53137 -0.30833,-0.61121 c -0.3634,-0.72062 -1.20695,-1.59056 -1.92217,-1.98245 l -0.50968,-0.27931 -28.969947,-0.0331 z m 0.134234,0.49272 57.679013,0.0666 0.38933,0.21242 0.11632,0.0681 0.12061,0.0774 0.13902,0.0985 0.11304,0.0864 0.12364,0.1017 0.13751,0.12124 0.11153,0.10621 0.13145,0.13177 0.10774,0.11773 0.12692,0.13477 0.0918,0.11748 0.10345,0.13201 0.0951,0.13352 0.0785,0.11974 0.0739,0.12124 0.0603,0.11222 0.25661,0.50651 -0.003,82.81198 -0.30631,0.53682 -0.13726,0.22444 -0.18268,0.24876 -0.16754,0.20014 -0.19757,0.20466 -0.19327,0.17285 -0.23542,0.18336 -0.22481,0.1503 -0.2233,0.12574 -0.0212,0.0108 -0.0149,0.006 -0.0394,0.012 -0.027,0.006 -0.0507,0.01 -0.0277,0.004 -0.0606,0.008 -0.0573,0.008 -0.0679,0.006 -0.083,0.0105 -0.0868,0.004 -0.0913,0.006 -0.10698,0.007 -0.25056,0.012 -0.3048,0.0108 -0.3545,0.0105 -0.41809,0.009 -0.47538,0.009 -0.54929,0.008 -0.96108,0.0105 -1.14073,0.0108 -3.46459,0.0165 -34.84847,0.0471 -6.84314,-0.003 -1.74276,-0.004 -1.260078,-0.006 -1.065289,-0.008 -0.60506,-0.006 -0.534158,-0.008 -0.467798,-0.009 -0.401438,-0.009 -0.339623,-0.009 -0.289659,-0.012 -0.126666,-0.006 -0.11632,-0.006 -0.106979,-0.006 -0.08302,-0.006 -0.08302,-0.008 -0.07998,-0.006 -0.0545,-0.007 -0.10093,-0.0135 -0.09967,-0.0183 -0.03911,-0.009 -0.04844,-0.0138 -0.0376,-0.0135 -0.04692,-0.0183 -0.167539,-0.0726 -0.143315,-0.0699 -0.177886,-0.0985 -0.140542,-0.0864 -0.159971,-0.10773 -0.155176,-0.11372 -0.152651,-0.12124 -0.161231,-0.13803 -0.123887,-0.11372 -0.144835,-0.14729 -0.11026,-0.11974 -0.119098,-0.14253 -0.08604,-0.11374 -0.09361,-0.13951 -0.06485,-0.11098 -0.05601,-0.11974 -0.027,-0.0669 -0.03481,-0.10621 -0.0061,-0.027 -0.01211,-0.0669 -0.01338,-0.0939 -0.01514,-0.12124 -0.0044,-0.0531 -0.01362,-0.15632 -0.0099,-0.16206 -0.01133,-0.21243 -0.01059,-0.23947 -0.0088,-0.27305 -0.0091,-0.31236 -0.0076,-0.3532 -0.01059,-0.61573 -0.0091,-0.72319 -0.0106,-1.15404 -0.0106,-1.77404 -0.01641,-4.27149 -0.01968,-8.14897 -0.0061,-8.546 0.0015,-6.72963 0.0044,-7.16476 0.0091,-7.2692 0.01943,-9.71082 0.0651,-25.28355 0.257868,-0.39253 0.152402,-0.21993 0.166025,-0.21393 0.147862,-0.16834 0.169052,-0.17133 0.185708,-0.16508 0.168798,-0.13202 0.229612,-0.16082 0.227845,-0.14253 z"
       inkscape:export-filename="/home/doug/k40/52Cards/IndividualColorCards/2D.png"
       inkscape:export-xdpi="300"
       inkscape:export-ydpi="300" />
  </g>
  <g
     inkscape:groupmode="layer"
     id="layer2"
     inkscape:label="InnerRectangle"
     style="display:inline"
     transform="translate(94.217781,-340.71922)">
    <path
       id="path2-6"
       style="display:inline;fill:none;fill-rule:evenodd;stroke:#4c71a5;stroke-width:0.262609;stroke-opacity:1"
       d="m 63.13524,452.67467 0.0441,14.05596 c 0.0243,7.7307 0.0504,20.15551 0.0578,27.61093 l 0.0134,13.55547 16.409043,-0.0521 16.40903,-0.0519 0.0305,-24.32539 c 0.0169,-13.37898 -0.004,-25.78048 -0.0462,-27.55907 l -0.077,-3.23394 h -16.42035 z m 16.503153,0.25626 h 16.11155 l 0.005,0.73622 c 0.003,0.40503 0.0367,12.68075 0.0757,27.27927 l 0.0709,26.54279 -3.16634,0.004 c -1.74158,0.002 -8.99902,0.0153 -16.12745,0.0285 -7.12842,0.0133 -12.991523,-0.007 -13.029223,-0.0446 -0.0728,-0.0731 -0.16665,-54.20072 -0.0944,-54.4185 0.028,-0.0844 5.532343,-0.128 16.154193,-0.128 z"
       inkscape:export-filename="/home/doug/k40/52Cards/IndividualColorCards/2D.png"
       inkscape:export-xdpi="300"
       inkscape:export-ydpi="300" />
  </g>
  <g
     inkscape:groupmode="layer"
     id="layer5"
     inkscape:label="InnerSuit"
     style="display:inline"
     transform="translate(94.217781,-340.71922)">
    <path
       style="fill:#1e130a;stroke-width:1"
       d="m 89.650283,466.08112 c 0,-0.0515 0.0503,-0.14788 0.111778,-0.21424 0.318188,-0.34345 0.886547,-2.59715 0.654972,-2.59715 -0.05264,0 -0.128919,0.0854 -0.169507,0.18977 -0.117076,0.30107 -0.879522,0.69823 -1.341403,0.69875 -0.729612,7.7e-4 -1.273308,-0.30991 -1.579904,-0.90295 -0.563739,-1.09042 -0.165878,-2.12712 1.870944,-4.87507 0.621286,-0.8382 1.1894,-1.65259 1.262475,-1.80975 0.07307,-0.15716 0.179445,-0.28575 0.236377,-0.28575 0.05693,0 0.172328,0.12859 0.256434,0.28575 0.0841,0.15716 0.70246,1.0287 1.374122,1.93675 0.671662,0.90805 1.386694,1.9939 1.58896,2.413 0.6647,1.37727 0.405894,2.64256 -0.627681,3.06871 -0.723716,0.2984 -1.422739,0.15658 -1.932211,-0.39201 l -0.418353,-0.45047 v 0.35608 c 0,0.44846 0.339836,1.59104 0.65462,2.20093 l 0.240127,0.46523 -1.090875,0.003 c -0.599981,0.002 -1.090875,-0.0391 -1.090875,-0.0906 z"
       id="path2886" />
    <path
       style="fill:#1e130a;stroke-width:1"
       d="m 67.513842,466.14302 c 0,-0.0262 0.140269,-0.36068 0.311708,-0.74321 0.245062,-0.54681 0.589194,-1.85401 0.589194,-2.23808 0,-0.0337 -0.188224,0.15228 -0.418276,0.41337 -0.319884,0.36303 -0.543412,0.49097 -0.950247,0.54389 -1.221613,0.15891 -2.009735,-0.54943 -2.012861,-1.8091 -0.0022,-0.88966 0.525448,-1.92191 1.968839,-3.85161 0.647094,-0.86511 1.238932,-1.70808 1.315198,-1.87325 0.07627,-0.16517 0.172804,-0.30021 0.214531,-0.30008 0.04172,1.2e-4 0.231388,0.24301 0.42147,0.53975 0.190083,0.29673 0.711548,1.02529 1.158811,1.61902 1.625175,2.15735 2.03512,2.94348 2.03436,3.90117 -9.01e-4,1.10089 -0.712338,1.81383 -1.810071,1.81383 -0.451413,0 -0.615448,-0.0781 -1.035994,-0.49306 l -0.49966,-0.49306 v 0.33938 c 0,0.51142 0.367009,1.79939 0.645698,2.26599 l 0.246523,0.41275 h -1.089611 c -0.599287,0 -1.089612,-0.0215 -1.089612,-0.0477 z"
       id="path2884" />
    <path
       style="fill:#1e130a;stroke-width:1"
       d="m 79.387772,484.828 c -0.07508,-0.15716 -0.698533,-1.02809 -1.385453,-1.9354 -1.895365,-2.50346 -2.274932,-3.44332 -1.794266,-4.44286 0.333999,-0.69456 0.864946,-0.98164 1.70246,-0.92052 0.561635,0.041 0.759745,0.12499 1.139683,0.48331 l 0.459876,0.43372 -0.09259,-0.5715 c -0.115065,-0.7102 -0.414634,-1.62421 -0.654126,-1.99578 -0.09971,-0.15471 -0.181296,-0.32616 -0.181296,-0.381 0,-0.0548 0.492919,-0.0997 1.095375,-0.0997 0.68345,0 1.073376,0.0478 1.036876,0.127 -0.416934,0.90515 -0.710943,1.76936 -0.777716,2.286 l -0.08207,0.635 0.296844,-0.33295 c 0.419955,-0.47103 0.770383,-0.61955 1.461827,-0.61955 0.528567,0 0.664251,0.0607 1.102413,0.49306 0.498186,0.4916 0.562812,0.69839 0.5008,1.60244 -0.04249,0.61946 -0.608881,1.61047 -1.830337,3.20254 -0.631459,0.82305 -1.264792,1.6822 -1.407406,1.90921 -0.306627,0.48809 -0.40799,0.50987 -0.590893,0.127 z"
       id="path2854" />
    <path
       style="fill:#1e130a;stroke-width:1"
       d="m 90.395275,503.93895 c -0.121142,-0.20312 -0.751876,-1.0786 -1.40163,-1.94551 -1.539574,-2.05412 -1.968502,-2.93452 -1.889234,-3.87775 0.04752,-0.56544 0.133263,-0.77383 0.444966,-1.08142 0.748711,-0.73882 1.900475,-0.72268 2.547144,0.0357 l 0.325963,0.38227 -0.0015,-0.359 c -0.0021,-0.50565 -0.296831,-1.53542 -0.615221,-2.1499 l -0.269906,-0.52092 1.086829,0.007 c 0.597756,0.004 1.086828,0.0267 1.086828,0.051 0,0.0243 -0.09589,0.22709 -0.213098,0.45064 -0.270216,0.51538 -0.555588,1.56431 -0.557575,2.04945 l -0.0015,0.37301 0.357576,-0.33805 c 0.776143,-0.73377 1.807162,-0.71641 2.544309,0.0428 0.337113,0.34723 0.379971,0.47996 0.379971,1.17678 0,1.0293 -0.334676,1.68459 -1.990284,3.89691 -0.705681,0.94298 -1.357368,1.81845 -1.44819,1.94551 -0.154495,0.21612 -0.179324,0.20721 -0.385392,-0.1383 z"
       id="path2818" />
    <path
       style="fill:#1e130a;stroke-width:1"
       d="m 67.578191,502.99825 c -0.495496,-0.69682 -1.203352,-1.69124 -1.573014,-2.20983 -1.110848,-1.55839 -1.321411,-2.88496 -0.593427,-3.73869 0.640309,-0.75091 1.897286,-0.74327 2.54427,0.0155 l 0.330023,0.38703 v -0.34067 c 0,-0.50534 -0.371559,-1.84484 -0.636134,-2.2933 l -0.231251,-0.39199 1.120894,0.007 1.120897,0.007 -0.301811,0.57569 c -0.269737,0.51452 -0.739054,2.28067 -0.633673,2.38466 0.02286,0.0226 0.24619,-0.16092 0.496299,-0.40773 0.250107,-0.2468 0.590841,-0.45478 0.757186,-0.46219 1.046065,-0.0465 1.497364,0.14427 1.925475,0.81411 0.353852,0.55365 0.26724,1.62016 -0.199822,2.46053 -0.286504,0.51549 -2.872951,4.12267 -3.139002,4.3778 -0.0473,0.0454 -0.491415,-0.48765 -0.986911,-1.18447 z"
       id="path2816" />
  </g>
  <g
     inkscape:groupmode="layer"
     id="layer6"
     inkscape:label="OuterSuit"
     style="display:inline"
     transform="translate(94.217781,-340.71922)">
    <path
       style="display:inline;fill:#1e130a;stroke-width:1"
       d="m 56.896071,471.24012 c -0.28314,-0.0639 -0.991123,-0.0802 -1.573296,-0.0364 l -1.058495,0.0797 0.447932,-0.93075 c 0.457607,-0.95086 0.826651,-2.35001 0.829791,-3.14597 l 0.0017,-0.4445 -0.242404,0.39226 c -0.984708,1.59349 -3.365557,1.52354 -4.197206,-0.12331 -0.401378,-0.79482 -0.416313,-1.59643 -0.04785,-2.56823 0.281626,-0.74277 1.523573,-2.60104 4.648421,-6.95522 0.157435,-0.21937 0.206505,-0.1806 0.642964,0.508 0.259888,0.41003 0.876712,1.28842 1.370723,1.952 2.864874,3.84822 3.4909,5.17344 3.09802,6.55813 -0.246456,0.86863 -0.918554,1.50243 -1.7975,1.69508 -1.161592,0.25461 -1.934709,-0.0723 -2.73242,-1.15532 -0.222179,-0.30165 -0.223028,-0.30011 -0.147637,0.26811 0.15497,1.168 0.444872,2.18797 0.875377,3.07987 0.243547,0.50456 0.43242,0.92306 0.419719,0.93 -0.0127,0.007 -0.254753,-0.0396 -0.537894,-0.10347 z"
       id="path2878"
       transform="translate(-1.0416666e-6,-1.1083333e-5)" />
    <path
       style="display:inline;fill:#1e130a;stroke-width:1"
       d="m 102.7603,502.35448 c -0.30896,-0.50614 -0.91366,-1.37768 -1.34377,-1.93675 -1.22042,-1.5863 -2.172555,-3.00522 -2.562725,-3.81908 -0.414791,-0.86521 -0.560545,-2.07576 -0.332153,-2.75865 0.284867,-0.85175 1.442531,-1.61134 2.459158,-1.61354 0.53865,-10e-4 1.45075,0.53344 1.78624,1.04697 0.1711,0.2619 0.33825,0.44938 0.37144,0.41663 0.19401,-0.19144 -0.72202,-3.43479 -1.12963,-3.99967 l -0.23246,-0.32214 h 1.57137 1.57136 l -0.41577,0.889 c -0.40666,0.86953 -0.82523,2.49521 -0.82427,3.20139 l 5.2e-4,0.35461 0.25189,-0.40767 c 0.94337,-1.52676 3.37553,-1.47479 4.22033,0.0902 0.73091,1.35398 0.14415,3.03927 -2.1003,6.0325 -0.68089,0.90805 -1.55491,2.12248 -1.94225,2.69875 -0.38734,0.57626 -0.72292,1.04775 -0.74573,1.04775 -0.0228,0 -0.29426,-0.41412 -0.60322,-0.92027 z"
       id="path2826"
       transform="translate(-1.0416666e-6,-1.1083333e-5)" />
  </g>
  <g
     inkscape:groupmode="layer"
     id="layer3"
     inkscape:label="CardName"
     style="display:inline"
     transform="translate(94.217781,-340.71922)">
    <path
       style="display:inline;fill:#1e130a;stroke-width:1"
       d="m 54.167336,453.7483 c -1.168441,-0.58309 -2.197791,-1.90967 -2.589581,-3.33733 l -0.130697,-0.47625 0.922703,4.7e-4 0.922703,4.7e-4 0.245825,0.58976 c 1.049216,2.51717 3.822553,2.41566 4.646754,-0.17007 0.298301,-0.93585 0.218322,-2.55905 -0.161521,-3.27813 -0.517567,-0.9798 -1.386119,-1.5875 -2.268935,-1.5875 -0.549845,0 -1.509474,0.61015 -1.873325,1.1911 l -0.288041,0.4599 h -1.004498 c -0.997504,0 -1.004857,-0.002 -1.056108,-0.34925 -0.02839,-0.19209 -0.04142,-1.72085 -0.02895,-3.39725 l 0.02266,-3.048 4.0684,-0.0335 4.068399,-0.0335 v 0.81873 c 0,0.66987 -0.04095,0.83075 -0.225225,0.88486 -0.123873,0.0364 -1.413755,0.0457 -2.866402,0.0206 -1.452648,-0.025 -2.795808,-0.0163 -2.984802,0.0193 -0.337272,0.0636 -0.343525,0.0828 -0.338202,1.03567 0.0029,0.53397 0.03415,1.15202 0.06927,1.37344 l 0.06384,0.40258 0.547724,-0.41257 c 1.872244,-1.41023 4.46727,-0.53261 5.698759,1.92729 0.483529,0.96585 0.4855,0.97626 0.4855,2.56346 0,1.53828 -0.0147,1.6243 -0.423152,2.47545 -0.894779,1.8646 -1.930461,2.62419 -3.693661,2.70902 -0.951771,0.0458 -1.092677,0.0189 -1.829427,-0.34873 z"
       id="path2888"
       transform="translate(-1.0416666e-6,-1.1083333e-5)" />
    <path
       style="display:inline;fill:#1e130a;stroke-width:1"
       d="m 99.5602,519.4808 c 0,-0.59042 0.05068,-0.8311 0.185782,-0.88226 0.10218,-0.0387 1.499078,-0.0707 3.104218,-0.0711 1.60514,-3.8e-4 2.94799,-0.0299 2.98411,-0.0656 0.10153,-0.10019 0.15661,-1.73024 0.0769,-2.27611 l -0.0712,-0.48749 -0.34069,0.31424 c -1.20351,1.11011 -3.00883,1.07667 -4.55977,-0.0845 -0.67913,-0.50844 -1.548501,-1.98016 -1.747597,-2.95843 -0.508918,-2.50061 0.584092,-5.17033 2.515357,-6.14387 0.50581,-0.25497 0.80944,-0.31249 1.64952,-0.31249 1.2374,0 2.01316,0.31899 2.85538,1.17412 0.59297,0.60206 1.45608,2.17462 1.45608,2.65294 0,0.28663 -0.0404,0.30044 -0.8803,0.30044 h -0.8803 l -0.16752,-0.50087 c -0.35174,-1.0517 -1.43078,-1.90282 -2.42064,-1.90934 -1.98654,-0.0131 -3.14812,3.05672 -2.0043,5.29694 0.69175,1.35483 1.86601,1.87859 2.96799,1.32383 0.48399,-0.24365 1.03409,-0.77056 1.30714,-1.25202 0.0882,-0.15547 0.33765,-0.20599 1.06437,-0.21555 l 0.94921,-0.0125 0.0643,0.6985 c 0.0354,0.38417 0.0477,1.94151 0.0274,3.46075 l -0.037,2.76225 h -4.04929 -4.04927 z"
       id="path2568"
       transform="translate(-1.0416666e-6,-1.1083333e-5)" />
  </g>
</svg>
