<?xml version="1.0" encoding="UTF-8" standalone="no"?>
<svg
   width="63.500004mm"
   height="88.899895mm"
   viewBox="142.0878 95.116776 63.500012 88.899887"
   version="1.1"
   id="svg10"
   sodipodi:docname="6C.svg"
   inkscape:version="1.1.1 (1:1.1+202109281949+c3084ef5ed)"
   inkscape:export-filename="/home/doug/k40/52Cards/IndividualColorCards/6C.png"
   inkscape:export-xdpi="300"
   inkscape:export-ydpi="300"
   xmlns:inkscape="http://www.inkscape.org/namespaces/inkscape"
   xmlns:sodipodi="http://sodipodi.sourceforge.net/DTD/sodipodi-0.dtd"
   xmlns="http://www.w3.org/2000/svg"
   xmlns:svg="http://www.w3.org/2000/svg">
  <defs
     id="defs14">
    <marker
       style="overflow:visible"
       id="marker2995"
       refX="0"
       refY="0"
       orient="auto"
       inkscape:stockid="Arrow1Lstart"
       inkscape:isstock="true">
      <path
         transform="matrix(0.8,0,0,0.8,10,0)"
         style="fill:#000000;fill-opacity:1;fill-rule:evenodd;stroke:#000000;stroke-width:1pt;stroke-opacity:1"
         d="M 0,0 5,-5 -12.5,0 5,5 Z"
         id="path2993" />
    </marker>
    <marker
       style="overflow:visible"
       id="marker2985"
       refX="0"
       refY="0"
       orient="auto"
       inkscape:stockid="Arrow1Lstart"
       inkscape:isstock="true">
      <path
         transform="matrix(0.8,0,0,0.8,10,0)"
         style="fill:#000000;fill-opacity:1;fill-rule:evenodd;stroke:#000000;stroke-width:1pt;stroke-opacity:1"
         d="M 0,0 5,-5 -12.5,0 5,5 Z"
         id="path2983" />
    </marker>
    <marker
       style="overflow:visible"
       id="marker2791"
       refX="0"
       refY="0"
       orient="auto"
       inkscape:stockid="Arrow1Lstart"
       inkscape:isstock="true">
      <path
         transform="matrix(0.8,0,0,0.8,10,0)"
         style="fill:#000000;fill-opacity:1;fill-rule:evenodd;stroke:#000000;stroke-width:1pt;stroke-opacity:1"
         d="M 0,0 5,-5 -12.5,0 5,5 Z"
         id="path2789" />
    </marker>
    <marker
       style="overflow:visible"
       id="marker2781"
       refX="0"
       refY="0"
       orient="auto"
       inkscape:stockid="Arrow1Lstart"
       inkscape:isstock="true">
      <path
         transform="matrix(0.8,0,0,0.8,10,0)"
         style="fill:#000000;fill-opacity:1;fill-rule:evenodd;stroke:#000000;stroke-width:1pt;stroke-opacity:1"
         d="M 0,0 5,-5 -12.5,0 5,5 Z"
         id="path2779" />
    </marker>
    <marker
       style="overflow:visible"
       id="marker2417"
       refX="0"
       refY="0"
       orient="auto"
       inkscape:stockid="Arrow1Lstart"
       inkscape:isstock="true">
      <path
         transform="matrix(0.8,0,0,0.8,10,0)"
         style="fill:#000000;fill-opacity:1;fill-rule:evenodd;stroke:#000000;stroke-width:1pt;stroke-opacity:1"
         d="M 0,0 5,-5 -12.5,0 5,5 Z"
         id="path2415" />
    </marker>
    <marker
       style="overflow:visible"
       id="marker2383"
       refX="0"
       refY="0"
       orient="auto"
       inkscape:stockid="Arrow1Lstart"
       inkscape:isstock="true">
      <path
         transform="matrix(0.8,0,0,0.8,10,0)"
         style="fill:#000000;fill-opacity:1;fill-rule:evenodd;stroke:#000000;stroke-width:1pt;stroke-opacity:1"
         d="M 0,0 5,-5 -12.5,0 5,5 Z"
         id="path2381" />
    </marker>
    <marker
       style="overflow:visible"
       id="marker2355"
       refX="0"
       refY="0"
       orient="auto"
       inkscape:stockid="Arrow1Lstart"
       inkscape:isstock="true">
      <path
         transform="matrix(0.8,0,0,0.8,10,0)"
         style="fill:#000000;fill-opacity:1;fill-rule:evenodd;stroke:#000000;stroke-width:1pt;stroke-opacity:1"
         d="M 0,0 5,-5 -12.5,0 5,5 Z"
         id="path2353" />
    </marker>
    <marker
       style="overflow:visible"
       id="Arrow1Lstart"
       refX="0"
       refY="0"
       orient="auto"
       inkscape:stockid="Arrow1Lstart"
       inkscape:isstock="true">
      <path
         transform="matrix(0.8,0,0,0.8,10,0)"
         style="fill:#000000;fill-opacity:1;fill-rule:evenodd;stroke:#000000;stroke-width:1pt;stroke-opacity:1"
         d="M 0,0 5,-5 -12.5,0 5,5 Z"
         id="path2071" />
    </marker>
  </defs>
  <sodipodi:namedview
     id="namedview12"
     pagecolor="#ffffff"
     bordercolor="#666666"
     borderopacity="1.0"
     inkscape:pageshadow="2"
     inkscape:pageopacity="0.0"
     inkscape:pagecheckerboard="0"
     inkscape:document-units="mm"
     showgrid="false"
     showborder="false"
     fit-margin-top="0"
     fit-margin-left="0"
     fit-margin-right="0"
     fit-margin-bottom="0"
     inkscape:zoom="1.2541666"
     inkscape:cx="120.00001"
     inkscape:cy="167.84054"
     inkscape:window-width="1366"
     inkscape:window-height="712"
     inkscape:window-x="0"
     inkscape:window-y="0"
     inkscape:window-maximized="1"
     inkscape:current-layer="layer3" />
  <g
     inkscape:groupmode="layer"
     id="layer1"
     inkscape:label="CardOutline"
     style="display:inline"
     transform="translate(94.217781,-340.71922)">
    <path
       id="path4-3"
       style="display:inline;fill:none;fill-rule:evenodd;stroke:#000000;stroke-width:0.25;stroke-miterlimit:4;stroke-dasharray:none;stroke-opacity:1"
       d="m 50.564743,435.96104 -0.534158,0.31687 c -0.688621,0.40844 -1.158412,0.85449 -1.590112,1.51001 l -0.346181,0.5258 -0.06384,25.43159 c -0.03506,13.98732 -0.046,32.74824 -0.02422,41.69094 0.03916,16.06607 0.04297,16.26663 0.30127,16.87005 h 2.54e-4 c 0.321831,0.75178 1.375871,1.69211 2.308962,2.06009 0.662802,0.26139 0.718825,0.26193 29.335815,0.23047 27.968057,-0.0307 28.683467,-0.0377 29.150357,-0.27706 0.72044,-0.36932 1.35524,-0.98173 1.76901,-1.70664 l 0.37116,-0.65029 9.8e-4,-41.53137 9.8e-4,-41.53137 -0.30833,-0.61121 c -0.3634,-0.72062 -1.20695,-1.59056 -1.92217,-1.98245 l -0.50968,-0.27931 -28.969947,-0.0331 z m 0.134234,0.49272 57.679013,0.0666 0.38933,0.21242 0.11632,0.0681 0.12061,0.0774 0.13902,0.0985 0.11304,0.0864 0.12364,0.1017 0.13751,0.12124 0.11153,0.10621 0.13145,0.13177 0.10774,0.11773 0.12692,0.13477 0.0918,0.11748 0.10345,0.13201 0.0951,0.13352 0.0785,0.11974 0.0739,0.12124 0.0603,0.11222 0.25661,0.50651 -0.003,82.81198 -0.30631,0.53682 -0.13726,0.22444 -0.18268,0.24876 -0.16754,0.20014 -0.19757,0.20466 -0.19327,0.17285 -0.23542,0.18336 -0.22481,0.1503 -0.2233,0.12574 -0.0212,0.0108 -0.0149,0.006 -0.0394,0.012 -0.027,0.006 -0.0507,0.01 -0.0277,0.004 -0.0606,0.008 -0.0573,0.008 -0.0679,0.006 -0.083,0.0105 -0.0868,0.004 -0.0913,0.006 -0.10698,0.007 -0.25056,0.012 -0.3048,0.0108 -0.3545,0.0105 -0.41809,0.009 -0.47538,0.009 -0.54929,0.008 -0.96108,0.0105 -1.14073,0.0108 -3.46459,0.0165 -34.84847,0.0471 -6.84314,-0.003 -1.74276,-0.004 -1.260078,-0.006 -1.065289,-0.008 -0.60506,-0.006 -0.534158,-0.008 -0.467798,-0.009 -0.401438,-0.009 -0.339623,-0.009 -0.289659,-0.012 -0.126666,-0.006 -0.11632,-0.006 -0.106979,-0.006 -0.08302,-0.006 -0.08302,-0.008 -0.07998,-0.006 -0.0545,-0.007 -0.10093,-0.0135 -0.09967,-0.0183 -0.03911,-0.009 -0.04844,-0.0138 -0.0376,-0.0135 -0.04692,-0.0183 -0.167539,-0.0726 -0.143315,-0.0699 -0.177886,-0.0985 -0.140542,-0.0864 -0.159971,-0.10773 -0.155176,-0.11372 -0.152651,-0.12124 -0.161231,-0.13803 -0.123887,-0.11372 -0.144835,-0.14729 -0.11026,-0.11974 -0.119098,-0.14253 -0.08604,-0.11374 -0.09361,-0.13951 -0.06485,-0.11098 -0.05601,-0.11974 -0.027,-0.0669 -0.03481,-0.10621 -0.0061,-0.027 -0.01211,-0.0669 -0.01338,-0.0939 -0.01514,-0.12124 -0.0044,-0.0531 -0.01362,-0.15632 -0.0099,-0.16206 -0.01133,-0.21243 -0.01059,-0.23947 -0.0088,-0.27305 -0.0091,-0.31236 -0.0076,-0.3532 -0.01059,-0.61573 -0.0091,-0.72319 -0.0106,-1.15404 -0.0106,-1.77404 -0.01641,-4.27149 -0.01968,-8.14897 -0.0061,-8.546 0.0015,-6.72963 0.0044,-7.16476 0.0091,-7.2692 0.01943,-9.71082 0.0651,-25.28355 0.257868,-0.39253 0.152402,-0.21993 0.166025,-0.21393 0.147862,-0.16834 0.169052,-0.17133 0.185708,-0.16508 0.168798,-0.13202 0.229612,-0.16082 0.227845,-0.14253 z"
       inkscape:export-filename="/home/doug/k40/52Cards/IndividualColorCards/2D.png"
       inkscape:export-xdpi="300"
       inkscape:export-ydpi="300" />
  </g>
  <g
     inkscape:groupmode="layer"
     id="layer2"
     inkscape:label="InnerRectangle"
     style="display:inline"
     transform="translate(94.217781,-340.71922)">
    <path
       id="path2-6"
       style="display:inline;fill:none;fill-rule:evenodd;stroke:#4c71a5;stroke-width:0.262609;stroke-opacity:1"
       d="m 63.13524,452.67467 0.0441,14.05596 c 0.0243,7.7307 0.0504,20.15551 0.0578,27.61093 l 0.0134,13.55547 16.409043,-0.0521 16.40903,-0.0519 0.0305,-24.32539 c 0.0169,-13.37898 -0.004,-25.78048 -0.0462,-27.55907 l -0.077,-3.23394 h -16.42035 z m 16.503153,0.25626 h 16.11155 l 0.005,0.73622 c 0.003,0.40503 0.0367,12.68075 0.0757,27.27927 l 0.0709,26.54279 -3.16634,0.004 c -1.74158,0.002 -8.99902,0.0153 -16.12745,0.0285 -7.12842,0.0133 -12.991523,-0.007 -13.029223,-0.0446 -0.0728,-0.0731 -0.16665,-54.20072 -0.0944,-54.4185 0.028,-0.0844 5.532343,-0.128 16.154193,-0.128 z"
       inkscape:export-filename="/home/doug/k40/52Cards/IndividualColorCards/2D.png"
       inkscape:export-xdpi="300"
       inkscape:export-ydpi="300" />
  </g>
  <g
     inkscape:groupmode="layer"
     id="layer5"
     inkscape:label="InnerSuit"
     style="display:inline"
     transform="translate(94.217781,-340.71922)">
    <path
       style="fill:#160f0a;stroke-width:1"
       d="m 88.404164,465.1015 c 0.506059,-0.90961 1.03752,-2.72326 0.947118,-3.2321 -0.04676,-0.2632 -0.04983,-0.26352 -0.140612,-0.0151 -0.24737,0.67698 -0.442678,0.9116 -0.981873,1.17947 -0.779946,0.38748 -1.512066,0.24586 -2.113256,-0.40879 -0.356696,-0.38841 -0.412685,-0.54025 -0.412275,-1.11806 6.35e-4,-0.89 0.3377,-1.43328 1.097875,-1.76954 0.559833,-0.24764 0.759799,-0.25077 1.559548,-0.0244 0.296835,0.084 0.292714,0.0678 -0.109928,-0.43326 -0.765619,-0.95271 -0.609575,-2.1205 0.372966,-2.79117 1.02436,-0.69922 2.50852,-0.0535 2.742388,1.19311 0.100495,0.53568 -0.234624,1.48841 -0.617997,1.75693 -0.377858,0.26466 -0.240277,0.32441 0.371194,0.1612 1.155833,-0.30851 2.331001,0.60325 2.330004,1.80774 -0.0017,2.05134 -2.848763,2.51425 -3.528926,0.57377 l -0.133547,-0.381 -0.0082,0.381 c -0.01253,0.58597 0.332885,1.90548 0.676128,2.58284 l 0.308845,0.60948 h -1.199825 c -0.659904,0 -1.181759,-0.0325 -1.159679,-0.0722 z"
       id="path2784" />
    <path
       style="fill:#160f0a;stroke-width:1"
       d="m 68.770868,464.79518 c 0.347038,-0.6711 0.652994,-1.69427 0.733843,-2.4541 l 0.07882,-0.74074 -0.290619,0.5715 c -0.908004,1.78559 -3.399997,1.2257 -3.401643,-0.76427 -10e-4,-1.1843 1.135955,-2.09275 2.236626,-1.78714 0.700353,0.19446 0.761716,0.17509 0.466893,-0.14734 -0.371824,-0.40664 -0.671994,-1.04385 -0.671994,-1.42652 0,-1.73496 2.394514,-2.48928 3.290099,-1.03646 0.520238,0.84394 0.45111,1.5962 -0.219967,2.39373 l -0.337041,0.40055 0.316204,-0.0893 c 0.837164,-0.23652 1.016173,-0.23217 1.574771,0.0383 1.47086,0.71203 1.475785,2.67286 0.0083,3.32198 -0.986058,0.43618 -1.8965,0.0663 -2.351139,-0.95519 -0.211206,-0.47455 -0.232111,-0.48992 -0.240301,-0.17676 -0.01504,0.57515 0.256994,1.64728 0.625539,2.46531 l 0.349747,0.77632 -1.182008,-0.006 -1.182006,-0.006 0.195834,-0.3787 z"
       id="path2782" />
    <path
       style="fill:#160f0a;stroke-width:1"
       d="m 88.369685,484.67748 c 6.1e-5,-0.0203 0.117932,-0.26776 0.261936,-0.55003 0.267059,-0.52343 0.754175,-2.24924 0.754175,-2.67192 0,-0.12853 -0.05715,-0.23369 -0.127,-0.23369 -0.06985,0 -0.127,0.083 -0.127,0.18452 0,0.37555 -0.309803,0.84525 -0.727965,1.10369 -0.630088,0.38942 -1.674547,0.28803 -2.197871,-0.21334 -0.753807,-0.7222 -0.740995,-1.83104 0.02986,-2.5847 0.475213,-0.46461 1.104937,-0.61202 1.810235,-0.42377 0.552793,0.14755 0.775988,0.0861 0.417037,-0.11474 -0.310407,-0.17371 -0.7283,-1.03951 -0.7283,-1.50891 0,-1.13315 1.190195,-2.01557 2.332042,-1.72898 0.528241,0.13258 1.081928,0.69477 1.231566,1.25048 0.112824,0.419 0.100304,0.62009 -0.06567,1.05468 -0.112788,0.29533 -0.317316,0.63855 -0.454506,0.7627 -0.346779,0.31383 -0.311394,0.45764 0.07633,0.31023 1.583148,-0.60191 3.109975,0.97551 2.397497,2.47695 -0.66766,1.40699 -2.870831,1.23063 -3.365638,-0.26941 -0.09092,-0.27562 -0.104632,-0.1695 -0.05703,0.44121 0.03466,0.44463 0.209287,1.15431 0.390637,1.5875 0.531755,1.27019 0.595457,1.16439 -0.701095,1.16439 -0.632149,0 -1.149312,-0.0166 -1.149249,-0.0368 z"
       id="path2770" />
    <path
       style="fill:#160f0a;stroke-width:1"
       d="m 68.557685,484.67837 c 6.1e-5,-0.0198 0.14369,-0.31931 0.319176,-0.66562 0.358722,-0.7079 0.735041,-2.17662 0.662426,-2.58535 -0.04681,-0.26345 -0.04981,-0.26377 -0.143977,-0.0151 -0.0529,0.1397 -0.147512,0.38272 -0.210255,0.54004 -0.208806,0.52356 -0.854892,0.81325 -1.693413,0.75928 -0.671579,-0.0432 -0.792525,-0.0961 -1.17475,-0.51314 -0.374222,-0.40835 -0.426095,-0.54903 -0.426095,-1.15557 0,-0.55975 0.06303,-0.76553 0.332628,-1.08593 0.59701,-0.70951 1.364607,-0.93646 2.153217,-0.63663 0.395739,0.15046 0.605336,0.0383 0.274454,-0.14689 -0.406456,-0.22746 -0.762629,-1.11516 -0.693504,-1.72844 0.200576,-1.7795 2.679785,-2.12236 3.410002,-0.47159 0.296696,0.67073 0.21214,1.22234 -0.285065,1.85967 -0.448951,0.57548 -0.454154,0.63803 -0.03996,0.48056 1.633362,-0.62101 3.234664,1.17538 2.346373,2.63222 -0.360791,0.59172 -0.921052,0.83967 -1.743225,0.77149 -0.777521,-0.0645 -1.314298,-0.4683 -1.535015,-1.15481 l -0.12997,-0.40426 -0.01297,0.42617 c -0.01652,0.54311 0.315268,1.83002 0.631765,2.4504 0.134348,0.26335 0.24416,0.52395 0.244028,0.57912 -1.27e-4,0.0552 -0.514534,0.10031 -1.143112,0.10031 -0.628579,0 -1.142821,-0.0162 -1.142758,-0.036 z"
       id="path2768" />
    <path
       style="fill:#160f0a;stroke-width:1"
       d="m 88.877813,504.24672 c -0.104775,-0.038 -0.375643,-0.24413 -0.601929,-0.4581 -0.712563,-0.67379 -0.710464,-1.77236 0.0049,-2.58949 0.393895,-0.44991 0.396651,-0.46094 0.08899,-0.35613 -1.398669,0.47649 -2.715847,-0.34736 -2.715847,-1.69868 0,-0.71797 0.255671,-1.18299 0.849497,-1.54507 0.933744,-0.56934 2.353899,-0.0659 2.568352,0.91054 0.0441,0.20078 0.133463,0.36505 0.198589,0.36505 0.248222,0 -0.216348,-2.07765 -0.658257,-2.94387 -0.133284,-0.26126 -0.24232,-0.49158 -0.242305,-0.51182 1.7e-5,-0.0203 0.537619,-0.0387 1.194673,-0.041 l 1.19464,-0.004 -0.306729,0.6053 c -0.376805,0.74359 -0.689496,1.90755 -0.674159,2.5095 l 0.01145,0.44957 0.116449,-0.40222 c 0.2343,-0.80929 1.353536,-1.4056 2.199695,-1.17196 0.483005,0.13336 1.170608,0.83732 1.29259,1.32334 0.324456,1.29274 -1.067363,2.62212 -2.344626,2.23944 -0.700358,-0.20983 -0.738704,-0.1891 -0.373795,0.20215 0.472983,0.50711 0.610839,0.83512 0.610304,1.45215 -6.35e-4,0.6925 -0.345328,1.26769 -0.924475,1.54251 -0.435729,0.20677 -1.104478,0.26203 -1.48805,0.12297 z"
       id="path2762" />
    <path
       style="fill:#160f0a;stroke-width:1"
       d="m 68.711826,504.06423 c -0.512108,-0.32792 -0.789012,-0.8365 -0.789012,-1.44914 0,-0.55669 0.316052,-1.26736 0.675643,-1.51922 0.366091,-0.25642 0.220322,-0.33337 -0.318344,-0.16805 -1.311096,0.40239 -2.680217,-0.78163 -2.427807,-2.09956 0.295523,-1.54305 2.227106,-2.00408 3.202293,-0.76433 0.145869,0.18544 0.265215,0.44376 0.265215,0.57404 0,0.13028 0.06217,0.23687 0.138163,0.23687 0.26084,0 -0.193692,-2.03408 -0.65783,-2.94387 -0.133284,-0.26126 -0.242333,-0.49158 -0.242333,-0.51182 0,-0.0203 0.536647,-0.0368 1.19255,-0.0368 h 1.19255 l -0.294195,0.58057 c -0.368199,0.7266 -0.695653,1.96955 -0.688331,2.61276 l 0.0056,0.48967 0.170373,-0.47745 c 0.209981,-0.58845 0.396927,-0.82028 0.850671,-1.05492 1.242877,-0.64272 2.774791,0.40795 2.618359,1.79582 -0.127946,1.13513 -1.217467,1.89848 -2.298032,1.61006 -0.637208,-0.17008 -0.713372,-0.11831 -0.374058,0.25424 0.408795,0.44885 0.545602,0.79749 0.5447,1.38815 -0.0021,1.3955 -1.580927,2.24193 -2.766152,1.48299 z"
       id="path2760" />
  </g>
  <g
     inkscape:groupmode="layer"
     id="layer6"
     inkscape:label="OuterSuit"
     style="display:inline"
     transform="translate(94.217781,-340.71922)">
    <path
       style="display:inline;fill:#160f0a;stroke-width:1"
       d="m 54.333754,469.20648 c 2.1e-5,-0.008 0.194981,-0.43625 0.433246,-0.9525 0.460562,-0.99791 0.761057,-2.04095 0.901559,-3.12939 0.105065,-0.81392 -0.102752,-0.90051 -0.298215,-0.12426 -0.155987,0.61948 -0.632966,1.13302 -1.318223,1.41927 -1.762569,0.73627 -3.625176,-0.75033 -3.266697,-2.60724 0.05957,-0.30856 0.110795,-0.5995 0.113837,-0.64653 0.01399,-0.21624 0.720296,-0.90252 1.159447,-1.12656 0.546155,-0.27863 1.505066,-0.32656 2.135615,-0.10675 0.579757,0.20211 0.611688,0.0681 0.104589,-0.43903 -0.407307,-0.4073 -0.855091,-1.37932 -0.853412,-1.85252 0.0045,-1.25947 1.189922,-2.41655 2.475792,-2.41655 1.436535,0 2.652259,1.4211 2.397884,2.80297 -0.101762,0.55281 -0.608727,1.44275 -0.963394,1.69117 -0.375571,0.26306 -0.205424,0.38753 0.292478,0.21396 1.426642,-0.49733 3.037,0.26208 3.410943,1.60851 0.1635,0.58871 0.1635,0.73691 0,1.32562 -0.389764,1.4034 -2.007661,2.12805 -3.369893,1.50936 -0.619741,-0.28148 -1.012883,-0.74935 -1.225548,-1.4585 l -0.15689,-0.52317 -0.04319,0.5715 c -0.05723,0.75736 0.282718,2.13014 0.814256,3.28814 0.236968,0.51625 0.430812,0.94487 0.430765,0.9525 -4.7e-5,0.008 -0.714439,0.0139 -1.587539,0.0139 -0.873099,0 -1.587435,-0.006 -1.587414,-0.0139 z"
       id="path2778"
       transform="translate(-1.0416666e-6,-1.1083333e-5)" />
    <path
       style="display:inline;fill:#160f0a;stroke-width:1"
       d="m 102.2709,503.08325 c -1.49646,-0.91257 -1.70831,-2.78348 -0.4656,-4.11184 0.17902,-0.19135 0.30101,-0.37241 0.27108,-0.40233 -0.0299,-0.0299 -0.34849,0.0219 -0.70793,0.11511 -2.357045,0.61141 -4.15596,-2.05824 -2.618301,-3.88565 0.396134,-0.47077 1.198741,-0.86992 1.757291,-0.87391 0.61445,-0.004 1.554,0.37067 1.84029,0.73462 0.14379,0.1828 0.32699,0.57744 0.4071,0.87698 0.17256,0.64517 0.34734,0.71176 0.34609,0.13186 -0.002,-0.88727 -0.70541,-3.19837 -1.27939,-4.20297 -0.12209,-0.21368 -0.0969,-0.22609 0.28748,-0.14146 0.52298,0.11514 1.98134,0.11229 2.51501,-0.005 l 0.39836,-0.0875 -0.3742,0.74206 c -0.20582,0.40812 -0.49361,1.12911 -0.63955,1.60218 -0.30956,1.0035 -0.5074,2.58746 -0.30776,2.46408 0.0716,-0.0442 0.16461,-0.25282 0.20676,-0.46353 0.0421,-0.2107 0.17573,-0.53437 0.29687,-0.71925 0.27838,-0.42486 1.35313,-0.93207 1.97845,-0.93369 0.70719,-0.002 1.53846,0.44202 1.95587,1.04435 0.30781,0.44417 0.36049,0.64376 0.36049,1.36582 0,1.06772 -0.37157,1.69897 -1.2614,2.14297 -0.50064,0.2498 -0.7318,0.28901 -1.3843,0.23482 -0.43081,-0.0358 -0.92582,-0.1096 -1.1,-0.16404 -0.28291,-0.0884 -0.25986,-0.0344 0.21593,0.50613 0.29295,0.33282 0.59926,0.80699 0.68069,1.05372 0.36869,1.11713 -0.19176,2.51224 -1.19157,2.96617 -0.69015,0.31334 -1.68309,0.31798 -2.18776,0.0102 z"
       id="path2766"
       transform="translate(-1.0416666e-6,-1.1083333e-5)" />
  </g>
  <g
     inkscape:groupmode="layer"
     id="layer3"
     inkscape:label="CardName"
     style="display:inline"
     transform="translate(94.217781,-340.71922)">
    <path
       id="path2568"
       style="display:inline;fill:#160f0a;stroke-width:1"
       d="m 103.23508,506.40175 c -1.73489,-0.0152 -3.422861,0.94091 -4.280873,2.63291 -0.310105,0.61153 -0.354049,0.84106 -0.352949,1.84175 0.0016,1.40365 0.265515,2.06334 1.196827,2.99465 0.940515,0.94052 1.831015,1.31023 3.176545,1.31723 1.24498,0.007 1.98729,-0.22483 2.86598,-0.89555 l 0.56327,-0.42995 v 0.54364 c 0,1.15803 -0.56415,2.66583 -1.25625,3.35793 -1.18266,1.18266 -3.07631,1.10865 -4.19354,-0.16381 -0.22508,-0.25635 -0.46108,-0.60259 -0.52452,-0.76946 -0.14489,-0.38112 -0.27901,-0.37436 -1.10846,0.0553 l -0.669208,0.34675 0.449583,0.75861 c 0.655719,1.10652 1.459895,1.73294 2.793625,2.17558 0.30348,0.10076 0.90108,0.15214 1.48415,0.12764 2.22633,-0.0936 3.7725,-1.52187 4.50205,-4.1584 0.28847,-1.04254 0.32585,-4.27272 0.0615,-5.32371 -0.43093,-1.71323 -1.34525,-3.15601 -2.38642,-3.76618 -0.73455,-0.43047 -1.53272,-0.638 -2.32131,-0.64492 z m -0.20929,1.87844 c 0.43828,-10e-4 0.88484,0.0617 1.19115,0.18965 1.3805,0.57667 2.03095,2.12693 1.43918,3.42977 -0.30543,0.67244 -1.15658,1.39066 -1.85621,1.56682 v 5.3e-4 c -0.87915,0.22137 -1.52574,0.0997 -2.33061,-0.43718 -1.6904,-1.12753 -1.45947,-3.66321 0.41496,-4.55269 0.27327,-0.12972 0.70326,-0.19558 1.14153,-0.19689 z"
       transform="translate(-1.0416666e-6,-1.1083333e-5)" />
    <path
       id="path2788"
       style="display:inline;fill:#160f0a;stroke-width:1"
       d="m 56.134599,440.2709 c -1.643599,-0.004 -3.263884,0.84658 -4.128428,2.55385 -1.04906,2.07164 -1.220579,5.38667 -0.403077,7.79022 0.587743,1.72804 1.778095,2.97925 3.223575,3.38894 0.958328,0.27162 2.403303,0.1349 3.372921,-0.31884 2.773405,-1.29783 3.475154,-4.85158 1.365808,-6.91534 -0.956302,-0.93564 -1.777613,-1.28634 -3.136241,-1.33894 -1.365549,-0.0529 -2.245127,0.21751 -3.107306,0.9555 l -0.54777,0.46871 0.08837,-0.75551 c 0.261075,-2.23734 1.113041,-3.59952 2.499587,-3.99717 1.31567,-0.37733 2.65861,0.2178 3.447336,1.52755 0.147222,0.24447 0.280376,0.46273 0.296106,0.48473 0.01572,0.022 0.380044,-0.13733 0.809251,-0.35399 l 0.780315,-0.39377 -0.291455,-0.52038 c -0.958225,-1.71197 -2.625388,-2.57133 -4.268992,-2.57556 z m 0.113689,6.797 c 0.390189,-0.004 0.771014,0.0486 1.042313,0.16227 1.461601,0.61249 2.101855,2.1346 1.477431,3.51193 -0.359342,0.79262 -0.68357,1.09901 -1.475362,1.39526 -0.375293,0.14042 -0.89462,0.2547 -1.153935,0.2527 -0.5427,-0.003 -1.478153,-0.39403 -1.912546,-0.79892 -0.709509,-0.66134 -1.001924,-1.91448 -0.657323,-2.81791 0.202562,-0.53106 0.860875,-1.1937 1.463477,-1.4733 0.319608,-0.14828 0.773734,-0.22697 1.215945,-0.23203 z"
       transform="translate(-1.0416666e-6,-1.1083333e-5)" />
  </g>
</svg>
