<?xml version="1.0" encoding="UTF-8" standalone="no"?>
<svg
   width="63.500004mm"
   height="88.899895mm"
   viewBox="142.0878 95.116776 63.500012 88.899887"
   version="1.1"
   id="svg10"
   sodipodi:docname="6D.svg"
   inkscape:version="1.1.1 (1:1.1+202109281949+c3084ef5ed)"
   inkscape:export-filename="/home/doug/k40/52Cards/IndividualColorCards/6D.png"
   inkscape:export-xdpi="300"
   inkscape:export-ydpi="300"
   xmlns:inkscape="http://www.inkscape.org/namespaces/inkscape"
   xmlns:sodipodi="http://sodipodi.sourceforge.net/DTD/sodipodi-0.dtd"
   xmlns="http://www.w3.org/2000/svg"
   xmlns:svg="http://www.w3.org/2000/svg">
  <defs
     id="defs14">
    <marker
       style="overflow:visible"
       id="marker2995"
       refX="0"
       refY="0"
       orient="auto"
       inkscape:stockid="Arrow1Lstart"
       inkscape:isstock="true">
      <path
         transform="matrix(0.8,0,0,0.8,10,0)"
         style="fill:#000000;fill-opacity:1;fill-rule:evenodd;stroke:#000000;stroke-width:1pt;stroke-opacity:1"
         d="M 0,0 5,-5 -12.5,0 5,5 Z"
         id="path2993" />
    </marker>
    <marker
       style="overflow:visible"
       id="marker2985"
       refX="0"
       refY="0"
       orient="auto"
       inkscape:stockid="Arrow1Lstart"
       inkscape:isstock="true">
      <path
         transform="matrix(0.8,0,0,0.8,10,0)"
         style="fill:#000000;fill-opacity:1;fill-rule:evenodd;stroke:#000000;stroke-width:1pt;stroke-opacity:1"
         d="M 0,0 5,-5 -12.5,0 5,5 Z"
         id="path2983" />
    </marker>
    <marker
       style="overflow:visible"
       id="marker2791"
       refX="0"
       refY="0"
       orient="auto"
       inkscape:stockid="Arrow1Lstart"
       inkscape:isstock="true">
      <path
         transform="matrix(0.8,0,0,0.8,10,0)"
         style="fill:#000000;fill-opacity:1;fill-rule:evenodd;stroke:#000000;stroke-width:1pt;stroke-opacity:1"
         d="M 0,0 5,-5 -12.5,0 5,5 Z"
         id="path2789" />
    </marker>
    <marker
       style="overflow:visible"
       id="marker2781"
       refX="0"
       refY="0"
       orient="auto"
       inkscape:stockid="Arrow1Lstart"
       inkscape:isstock="true">
      <path
         transform="matrix(0.8,0,0,0.8,10,0)"
         style="fill:#000000;fill-opacity:1;fill-rule:evenodd;stroke:#000000;stroke-width:1pt;stroke-opacity:1"
         d="M 0,0 5,-5 -12.5,0 5,5 Z"
         id="path2779" />
    </marker>
    <marker
       style="overflow:visible"
       id="marker2417"
       refX="0"
       refY="0"
       orient="auto"
       inkscape:stockid="Arrow1Lstart"
       inkscape:isstock="true">
      <path
         transform="matrix(0.8,0,0,0.8,10,0)"
         style="fill:#000000;fill-opacity:1;fill-rule:evenodd;stroke:#000000;stroke-width:1pt;stroke-opacity:1"
         d="M 0,0 5,-5 -12.5,0 5,5 Z"
         id="path2415" />
    </marker>
    <marker
       style="overflow:visible"
       id="marker2383"
       refX="0"
       refY="0"
       orient="auto"
       inkscape:stockid="Arrow1Lstart"
       inkscape:isstock="true">
      <path
         transform="matrix(0.8,0,0,0.8,10,0)"
         style="fill:#000000;fill-opacity:1;fill-rule:evenodd;stroke:#000000;stroke-width:1pt;stroke-opacity:1"
         d="M 0,0 5,-5 -12.5,0 5,5 Z"
         id="path2381" />
    </marker>
    <marker
       style="overflow:visible"
       id="marker2355"
       refX="0"
       refY="0"
       orient="auto"
       inkscape:stockid="Arrow1Lstart"
       inkscape:isstock="true">
      <path
         transform="matrix(0.8,0,0,0.8,10,0)"
         style="fill:#000000;fill-opacity:1;fill-rule:evenodd;stroke:#000000;stroke-width:1pt;stroke-opacity:1"
         d="M 0,0 5,-5 -12.5,0 5,5 Z"
         id="path2353" />
    </marker>
    <marker
       style="overflow:visible"
       id="Arrow1Lstart"
       refX="0"
       refY="0"
       orient="auto"
       inkscape:stockid="Arrow1Lstart"
       inkscape:isstock="true">
      <path
         transform="matrix(0.8,0,0,0.8,10,0)"
         style="fill:#000000;fill-opacity:1;fill-rule:evenodd;stroke:#000000;stroke-width:1pt;stroke-opacity:1"
         d="M 0,0 5,-5 -12.5,0 5,5 Z"
         id="path2071" />
    </marker>
  </defs>
  <sodipodi:namedview
     id="namedview12"
     pagecolor="#ffffff"
     bordercolor="#666666"
     borderopacity="1.0"
     inkscape:pageshadow="2"
     inkscape:pageopacity="0.0"
     inkscape:pagecheckerboard="0"
     inkscape:document-units="mm"
     showgrid="false"
     showborder="false"
     fit-margin-top="0"
     fit-margin-left="0"
     fit-margin-right="0"
     fit-margin-bottom="0"
     inkscape:zoom="1.4874999"
     inkscape:cx="120.00001"
     inkscape:cy="167.7311"
     inkscape:window-width="1366"
     inkscape:window-height="712"
     inkscape:window-x="0"
     inkscape:window-y="0"
     inkscape:window-maximized="1"
     inkscape:current-layer="layer1" />
  <g
     inkscape:groupmode="layer"
     id="layer1"
     inkscape:label="CardOutline"
     style="display:inline"
     transform="translate(94.217781,-340.71922)">
    <path
       id="path4-3"
       style="display:inline;fill:none;fill-rule:evenodd;stroke:#000000;stroke-width:0.25;stroke-miterlimit:4;stroke-dasharray:none;stroke-opacity:1"
       d="m 50.564743,435.96104 -0.534158,0.31687 c -0.688621,0.40844 -1.158412,0.85449 -1.590112,1.51001 l -0.346181,0.5258 -0.06384,25.43159 c -0.03506,13.98732 -0.046,32.74824 -0.02422,41.69094 0.03916,16.06607 0.04297,16.26663 0.30127,16.87005 h 2.54e-4 c 0.321831,0.75178 1.375871,1.69211 2.308962,2.06009 0.662802,0.26139 0.718825,0.26193 29.335815,0.23047 27.968057,-0.0307 28.683467,-0.0377 29.150357,-0.27706 0.72044,-0.36932 1.35524,-0.98173 1.76901,-1.70664 l 0.37116,-0.65029 9.8e-4,-41.53137 9.8e-4,-41.53137 -0.30833,-0.61121 c -0.3634,-0.72062 -1.20695,-1.59056 -1.92217,-1.98245 l -0.50968,-0.27931 -28.969947,-0.0331 z m 0.134234,0.49272 57.679013,0.0666 0.38933,0.21242 0.11632,0.0681 0.12061,0.0774 0.13902,0.0985 0.11304,0.0864 0.12364,0.1017 0.13751,0.12124 0.11153,0.10621 0.13145,0.13177 0.10774,0.11773 0.12692,0.13477 0.0918,0.11748 0.10345,0.13201 0.0951,0.13352 0.0785,0.11974 0.0739,0.12124 0.0603,0.11222 0.25661,0.50651 -0.003,82.81198 -0.30631,0.53682 -0.13726,0.22444 -0.18268,0.24876 -0.16754,0.20014 -0.19757,0.20466 -0.19327,0.17285 -0.23542,0.18336 -0.22481,0.1503 -0.2233,0.12574 -0.0212,0.0108 -0.0149,0.006 -0.0394,0.012 -0.027,0.006 -0.0507,0.01 -0.0277,0.004 -0.0606,0.008 -0.0573,0.008 -0.0679,0.006 -0.083,0.0105 -0.0868,0.004 -0.0913,0.006 -0.10698,0.007 -0.25056,0.012 -0.3048,0.0108 -0.3545,0.0105 -0.41809,0.009 -0.47538,0.009 -0.54929,0.008 -0.96108,0.0105 -1.14073,0.0108 -3.46459,0.0165 -34.84847,0.0471 -6.84314,-0.003 -1.74276,-0.004 -1.260078,-0.006 -1.065289,-0.008 -0.60506,-0.006 -0.534158,-0.008 -0.467798,-0.009 -0.401438,-0.009 -0.339623,-0.009 -0.289659,-0.012 -0.126666,-0.006 -0.11632,-0.006 -0.106979,-0.006 -0.08302,-0.006 -0.08302,-0.008 -0.07998,-0.006 -0.0545,-0.007 -0.10093,-0.0135 -0.09967,-0.0183 -0.03911,-0.009 -0.04844,-0.0138 -0.0376,-0.0135 -0.04692,-0.0183 -0.167539,-0.0726 -0.143315,-0.0699 -0.177886,-0.0985 -0.140542,-0.0864 -0.159971,-0.10773 -0.155176,-0.11372 -0.152651,-0.12124 -0.161231,-0.13803 -0.123887,-0.11372 -0.144835,-0.14729 -0.11026,-0.11974 -0.119098,-0.14253 -0.08604,-0.11374 -0.09361,-0.13951 -0.06485,-0.11098 -0.05601,-0.11974 -0.027,-0.0669 -0.03481,-0.10621 -0.0061,-0.027 -0.01211,-0.0669 -0.01338,-0.0939 -0.01514,-0.12124 -0.0044,-0.0531 -0.01362,-0.15632 -0.0099,-0.16206 -0.01133,-0.21243 -0.01059,-0.23947 -0.0088,-0.27305 -0.0091,-0.31236 -0.0076,-0.3532 -0.01059,-0.61573 -0.0091,-0.72319 -0.0106,-1.15404 -0.0106,-1.77404 -0.01641,-4.27149 -0.01968,-8.14897 -0.0061,-8.546 0.0015,-6.72963 0.0044,-7.16476 0.0091,-7.2692 0.01943,-9.71082 0.0651,-25.28355 0.257868,-0.39253 0.152402,-0.21993 0.166025,-0.21393 0.147862,-0.16834 0.169052,-0.17133 0.185708,-0.16508 0.168798,-0.13202 0.229612,-0.16082 0.227845,-0.14253 z"
       inkscape:export-filename="/home/doug/k40/52Cards/IndividualColorCards/2D.png"
       inkscape:export-xdpi="300"
       inkscape:export-ydpi="300" />
  </g>
  <g
     inkscape:groupmode="layer"
     id="layer2"
     inkscape:label="InnerRectangle"
     style="display:inline"
     transform="translate(94.217781,-340.71922)">
    <path
       id="path2-6"
       style="display:inline;fill:none;fill-rule:evenodd;stroke:#4c71a5;stroke-width:0.262609;stroke-opacity:1"
       d="m 63.13524,452.67467 0.0441,14.05596 c 0.0243,7.7307 0.0504,20.15551 0.0578,27.61093 l 0.0134,13.55547 16.409043,-0.0521 16.40903,-0.0519 0.0305,-24.32539 c 0.0169,-13.37898 -0.004,-25.78048 -0.0462,-27.55907 l -0.077,-3.23394 h -16.42035 z m 16.503153,0.25626 h 16.11155 l 0.005,0.73622 c 0.003,0.40503 0.0367,12.68075 0.0757,27.27927 l 0.0709,26.54279 -3.16634,0.004 c -1.74158,0.002 -8.99902,0.0153 -16.12745,0.0285 -7.12842,0.0133 -12.991523,-0.007 -13.029223,-0.0446 -0.0728,-0.0731 -0.16665,-54.20072 -0.0944,-54.4185 0.028,-0.0844 5.532343,-0.128 16.154193,-0.128 z"
       inkscape:export-filename="/home/doug/k40/52Cards/IndividualColorCards/2D.png"
       inkscape:export-xdpi="300"
       inkscape:export-ydpi="300" />
  </g>
  <g
     inkscape:groupmode="layer"
     id="layer5"
     inkscape:label="InnerSuit"
     style="display:inline"
     transform="translate(94.217781,-340.71922)">
    <path
       style="fill:#6490e3;stroke-width:0.999999"
       d="m 57.126633,451.64245 c 0,-0.0343 0.02879,-0.0625 0.06396,-0.0625 0.03517,0 0.06396,0.0281 0.06396,0.0625 0,0.0343 -0.02879,0.0625 -0.06396,0.0625 -0.03518,0 -0.06396,-0.0281 -0.06396,-0.0625 z"
       id="path3334" />
    <path
       style="fill:#6490e3;stroke-width:0.999999"
       d="m 56.998707,452.01724 c 0,-0.0343 0.02879,-0.0625 0.06396,-0.0625 0.03517,0 0.06396,0.0281 0.06396,0.0625 0,0.0343 -0.02879,0.0625 -0.06396,0.0625 -0.03517,0 -0.06396,-0.0281 -0.06396,-0.0625 z"
       id="path3332" />
    <path
       style="fill:#6490e3;stroke-width:0.999999"
       d="m 55.207751,457.76397 c 0,-0.0343 0.02879,-0.0625 0.06396,-0.0625 0.03517,0 0.06396,0.0281 0.06396,0.0625 0,0.0343 -0.02879,0.0625 -0.06396,0.0625 -0.03519,0 -0.06396,-0.0281 -0.06396,-0.0625 z"
       id="path3330" />
    <path
       style="fill:#6490e3;stroke-width:0.999999"
       d="m 100.10958,460.26255 c 0,-0.0343 0.0288,-0.0625 0.064,-0.0625 0.0352,0 0.064,0.0281 0.064,0.0625 0,0.0343 -0.0288,0.0625 -0.064,0.0625 -0.0352,0 -0.064,-0.0281 -0.064,-0.0625 z"
       id="path3328" />
    <path
       style="fill:#6490e3;stroke-width:0.999999"
       d="m 99.311537,460.23668 c 0.159127,-0.0299 0.389393,-0.0287 0.511702,0.003 0.122308,0.0313 -0.0079,0.0557 -0.289324,0.0543 -0.281436,-9.8e-4 -0.381506,-0.0269 -0.222378,-0.0569 z"
       id="path3326" />
    <path
       style="fill:#6490e3;stroke-width:0.999999"
       d="m 99.469944,460.63736 c 0,-0.0343 0.02879,-0.0625 0.06396,-0.0625 0.03517,0 0.06396,0.0281 0.06396,0.0625 0,0.0343 -0.02879,0.0625 -0.06396,0.0625 -0.03518,0 -0.06396,-0.0281 -0.06396,-0.0625 z"
       id="path3324" />
    <path
       style="fill:#6490e3;stroke-width:0.999999"
       d="m 91.66648,470.00698 c 0,-0.0343 0.02879,-0.0625 0.06396,-0.0625 0.03517,0 0.06396,0.0281 0.06396,0.0625 0,0.0343 -0.02879,0.0625 -0.06396,0.0625 -0.03518,0 -0.06396,-0.0281 -0.06396,-0.0625 z"
       id="path3296" />
    <path
       style="fill:#6490e3;stroke-width:0.999999"
       d="m 73.245221,482.49988 c 0,-0.0343 0.02878,-0.0625 0.06396,-0.0625 0.03518,0 0.06396,0.0281 0.06396,0.0625 0,0.0343 -0.02878,0.0625 -0.06396,0.0625 -0.03518,0 -0.06396,-0.0281 -0.06396,-0.0625 z"
       id="path3274" />
    <path
       style="fill:#6490e3;stroke-width:0.999999"
       d="m 90.387232,487.24719 c 0,-0.0343 0.02879,-0.0625 0.06396,-0.0625 0.03518,0 0.06396,0.0281 0.06396,0.0625 0,0.0343 -0.02879,0.0625 -0.06396,0.0625 -0.03517,0 -0.06396,-0.0281 -0.06396,-0.0625 z"
       id="path3260" />
    <path
       style="fill:#6490e3;stroke-width:0.999999"
       d="m 69.791237,487.24719 c 0,-0.0343 0.02879,-0.0625 0.06396,-0.0625 0.03517,0 0.06396,0.0281 0.06396,0.0625 0,0.0343 -0.02879,0.0625 -0.06396,0.0625 -0.03518,0 -0.06396,-0.0281 -0.06396,-0.0625 z"
       id="path3258" />
    <path
       style="fill:#6490e3;stroke-width:0.999999"
       d="m 74.908258,489.62084 c 0,-0.0343 0.02878,-0.0625 0.06396,-0.0625 0.03518,0 0.06396,0.0281 0.06396,0.0625 0,0.0343 -0.02878,0.0625 -0.06396,0.0625 -0.03518,0 -0.06396,-0.0281 -0.06396,-0.0625 z"
       id="path3248" />
    <path
       style="fill:#6490e3;stroke-width:0.999999"
       d="m 71.838048,489.62084 c 0,-0.0343 0.02879,-0.0625 0.06396,-0.0625 0.03518,0 0.06396,0.0281 0.06396,0.0625 0,0.0343 -0.02879,0.0625 -0.06396,0.0625 -0.03517,0 -0.06396,-0.0281 -0.06396,-0.0625 z"
       id="path3246" />
    <path
       style="fill:#6490e3;stroke-width:0.999999"
       d="m 72.733526,490.99506 c 0,-0.0343 0.02878,-0.0625 0.06396,-0.0625 0.03518,0 0.06396,0.0281 0.06396,0.0625 0,0.0343 -0.02878,0.0625 -0.06396,0.0625 -0.03518,0 -0.06396,-0.0281 -0.06396,-0.0625 z"
       id="path3236" />
    <path
       style="fill:#6490e3;stroke-width:0.999999"
       d="m 73.884855,491.24492 c 0,-0.0343 0.02878,-0.0625 0.06396,-0.0625 0.03518,0 0.06396,0.0281 0.06396,0.0625 0,0.0343 -0.02878,0.0625 -0.06396,0.0625 -0.03518,0 -0.06396,-0.0281 -0.06396,-0.0625 z"
       id="path3234" />
    <path
       style="fill:#6490e3;stroke-width:0.999999"
       d="m 100.38562,496.42947 c 0,-0.17178 0.029,-0.24205 0.0645,-0.15616 0.0355,0.0859 0.0355,0.22644 0,0.31232 -0.0355,0.0859 -0.0645,0.0156 -0.0645,-0.15616 z"
       id="path3228" />
    <path
       style="fill:#6490e3;stroke-width:0.999999"
       d="m 100.36542,497.05412 c 0,-0.0916 0.0384,-0.12909 0.0853,-0.0833 0.0469,0.0458 0.0469,0.12076 0,0.16658 -0.0469,0.0458 -0.0853,0.008 -0.0853,-0.0833 z"
       id="path3226" />
    <path
       style="fill:#6490e3;stroke-width:0.999999"
       d="m 100.36542,497.36644 c 0,-0.0343 0.0288,-0.0625 0.064,-0.0625 0.0352,0 0.064,0.0281 0.064,0.0625 0,0.0343 -0.0288,0.0625 -0.064,0.0625 -0.0352,0 -0.064,-0.0281 -0.064,-0.0625 z"
       id="path3224" />
    <path
       style="fill:#6490e3;stroke-width:0.999999"
       d="m 108.2968,497.49137 c 0,-0.0343 0.0288,-0.0625 0.064,-0.0625 0.0352,0 0.064,0.0281 0.064,0.0625 0,0.0343 -0.0288,0.0625 -0.064,0.0625 -0.0352,0 -0.064,-0.0281 -0.064,-0.0625 z"
       id="path3222" />
    <path
       style="fill:#6490e3;stroke-width:0.999999"
       d="m 67.104815,501.3017 c 0,-0.0916 0.03838,-0.12909 0.08529,-0.0833 0.04691,0.0458 0.04691,0.12077 0,0.16658 -0.04691,0.0458 -0.08529,0.008 -0.08529,-0.0833 z"
       id="path3218" />
    <path
       style="fill:#6490e3;stroke-width:0.999999"
       d="m 73.629012,501.4891 c 0,-0.0343 0.02878,-0.0625 0.06396,-0.0625 0.03518,0 0.06396,0.0281 0.06396,0.0625 0,0.0343 -0.02878,0.0625 -0.06396,0.0625 -0.03518,0 -0.06396,-0.0281 -0.06396,-0.0625 z"
       id="path3216" />
    <path
       style="fill:#6490e3;stroke-width:0.999999"
       d="m 103.56356,501.86388 c 0,-0.0343 0.0288,-0.0625 0.064,-0.0625 0.0352,0 0.064,0.0281 0.064,0.0625 0,0.0343 -0.0288,0.0625 -0.064,0.0625 -0.0352,0 -0.064,-0.0281 -0.064,-0.0625 z"
       id="path3214" />
    <path
       style="fill:#6490e3;stroke-width:0.999999"
       d="m 67.104815,502.3636 c 0,-0.0343 0.02879,-0.0625 0.06396,-0.0625 0.03517,0 0.06396,0.0281 0.06396,0.0625 0,0.0343 -0.02879,0.0625 -0.06396,0.0625 -0.03517,0 -0.06396,-0.0281 -0.06396,-0.0625 z"
       id="path3212" />
    <path
       style="fill:#6490e3;stroke-width:0.999999"
       d="m 102.54016,502.86332 c 0,-0.0343 0.0288,-0.0625 0.064,-0.0625 0.0352,0 0.064,0.0281 0.064,0.0625 0,0.0343 -0.0288,0.0625 -0.064,0.0625 -0.0352,0 -0.064,-0.0281 -0.064,-0.0625 z"
       id="path3210" />
    <path
       style="fill:#6490e3;stroke-width:0.999999"
       d="m 67.125013,503.55043 c 0,-0.17179 0.02904,-0.24205 0.06453,-0.15617 0.03549,0.0859 0.03549,0.22644 0,0.31233 -0.03549,0.0859 -0.06453,0.0156 -0.06453,-0.15616 z"
       id="path3206" />
    <path
       style="fill:#6490e3;stroke-width:0.999999"
       d="m 75.292043,504.11261 c 0,-0.0343 0.02878,-0.0625 0.06396,-0.0625 0.03518,0 0.06396,0.0281 0.06396,0.0625 0,0.0343 -0.02878,0.0625 -0.06396,0.0625 -0.03518,0 -0.06396,-0.0281 -0.06396,-0.0625 z"
       id="path3204" />
    <path
       style="fill:#6490e3;stroke-width:0.999999"
       d="m 67.104815,504.11261 c 0,-0.0343 0.02879,-0.0625 0.06396,-0.0625 0.03517,0 0.06396,0.0281 0.06396,0.0625 0,0.0343 -0.02879,0.0625 -0.06396,0.0625 -0.03517,0 -0.06396,-0.0281 -0.06396,-0.0625 z"
       id="path3202" />
    <path
       style="fill:#6490e3;stroke-width:0.999999"
       d="m 67.104815,504.42493 c 0,-0.0916 0.03838,-0.12909 0.08529,-0.0833 0.04691,0.0458 0.04691,0.12077 0,0.16658 -0.04691,0.0458 -0.08529,0.008 -0.08529,-0.0833 z"
       id="path3200" />
    <path
       style="fill:#6490e3;stroke-width:0.999999"
       d="m 91.666498,504.61232 c 0,-0.0343 0.02879,-0.0625 0.06396,-0.0625 0.03517,0 0.06396,0.0281 0.06396,0.0625 0,0.0343 -0.02879,0.0625 -0.06396,0.0625 -0.03518,0 -0.06396,-0.0281 -0.06396,-0.0625 z"
       id="path3198" />
    <path
       style="fill:#6490e3;stroke-width:0.999999"
       d="m 70.558801,505.23697 c 0,-0.0343 0.02879,-0.0625 0.06396,-0.0625 0.03517,0 0.06396,0.0281 0.06396,0.0625 0,0.0343 -0.02879,0.0625 -0.06396,0.0625 -0.03517,0 -0.06396,-0.0281 -0.06396,-0.0625 z"
       id="path3196" />
    <path
       style="fill:#6490e3;stroke-width:0.999999"
       d="m 70.175025,505.61175 c 0,-0.0343 0.02879,-0.0625 0.06396,-0.0625 0.03517,0 0.06396,0.0281 0.06396,0.0625 0,0.0343 -0.02879,0.0625 -0.06396,0.0625 -0.03518,0 -0.06396,-0.0281 -0.06396,-0.0625 z"
       id="path3192" />
    <path
       style="fill:#6490e3;stroke-width:0.999999"
       d="m 75.419968,507.61062 c 0,-0.0343 0.02878,-0.0625 0.06396,-0.0625 0.03518,0 0.06396,0.0281 0.06396,0.0625 0,0.0343 -0.02878,0.0625 -0.06396,0.0625 -0.03518,0 -0.06396,-0.0281 -0.06396,-0.0625 z"
       id="path3188" />
    <path
       style="fill:#6490e3;stroke-width:0.999999"
       d="m 106.37793,512.85764 c 0,-0.0343 0.0288,-0.0625 0.064,-0.0625 0.0352,0 0.064,0.0281 0.064,0.0625 0,0.0343 -0.0288,0.0625 -0.064,0.0625 -0.0352,0 -0.064,-0.0281 -0.064,-0.0625 z"
       id="path3180" />
    <path
       style="fill:#6490e3;stroke-width:0.999999"
       d="m 103.94734,520.22848 c 0,-0.0343 0.0288,-0.0625 0.064,-0.0625 0.0352,0 0.064,0.0281 0.064,0.0625 0,0.0343 -0.0288,0.0625 -0.064,0.0625 -0.0352,0 -0.064,-0.0281 -0.064,-0.0625 z"
       id="path2684" />
    <path
       style="display:inline;fill:#e00e1a;stroke-width:0.999999"
       d="m 89.53512,465.12629 c -0.96714,-1.6562 -1.573459,-2.50942 -2.390166,-3.36346 l -0.893164,-0.93398 0.711415,-0.75042 c 0.989683,-1.04394 1.251476,-1.39774 2.117912,-2.86231 l 0.758764,-1.28256 0.542928,0.96608 c 0.653193,1.16227 1.831761,2.73785 2.574565,3.44183 l 0.541782,0.51347 -0.340321,0.2421 c -0.531149,0.37786 -2.122329,2.49317 -2.72337,3.62044 l -0.543649,1.01964 z"
       id="path3090"
       transform="translate(-1.0416666e-6,-1.1083333e-5)" />
    <path
       style="display:inline;fill:#e00e1a;stroke-width:0.999999"
       d="m 68.795195,464.92147 c -0.506983,-0.99983 -1.674144,-2.59691 -2.506139,-3.42924 l -0.649303,-0.64956 0.657728,-0.64911 c 0.779504,-0.76928 1.822326,-2.20924 2.476459,-3.41957 l 0.470396,-0.87036 0.164576,0.37065 c 0.324163,0.73004 2.047534,3.21466 2.689613,3.87767 l 0.654409,0.67572 -0.501822,0.53214 c -0.743197,0.78809 -1.44805,1.75847 -2.269441,3.12441 -0.402857,0.66993 -0.745537,1.21806 -0.761512,1.21806 -0.01597,0 -0.207207,-0.35137 -0.424964,-0.78081 z"
       id="path3088"
       transform="translate(-1.0416666e-6,-1.1083333e-5)" />
    <path
       style="display:inline;fill:#e00e1a;stroke-width:0.999999"
       d="m 89.551098,483.71286 c -0.535227,-1.03148 -1.815868,-2.80273 -2.49558,-3.45165 -0.357161,-0.34096 -0.649382,-0.67111 -0.649382,-0.73365 0,-0.0626 0.350886,-0.48002 0.779748,-0.92774 0.752799,-0.78589 1.61245,-1.98278 2.143055,-2.98375 0.556216,-1.04931 0.562025,-1.04979 1.100178,-0.0924 0.674608,1.2002 1.766773,2.68711 2.440262,3.32224 0.312637,0.29484 0.569381,0.57607 0.570543,0.62497 0.0011,0.0489 -0.256056,0.34832 -0.571596,0.66537 -0.68659,0.68991 -1.765639,2.17528 -2.424271,3.33715 -0.262915,0.46381 -0.500885,0.84327 -0.528825,0.84327 -0.02794,0 -0.191798,-0.27173 -0.364132,-0.60385 z"
       id="path3084"
       transform="translate(-1.0416666e-6,-1.1083333e-5)" />
    <path
       style="display:inline;fill:#e00e1a;stroke-width:0.999999"
       d="m 68.99528,483.78576 c -0.504745,-0.97791 -1.888824,-2.89828 -2.540271,-3.52456 -0.354677,-0.34096 -0.644868,-0.66047 -0.644868,-0.71001 0,-0.0496 0.284295,-0.3751 0.631766,-0.72348 0.676589,-0.67836 1.997656,-2.53315 2.516757,-3.53355 l 0.316892,-0.61071 0.831499,1.33913 c 0.832914,1.3414 1.791039,2.60192 2.397808,3.15457 l 0.323737,0.29488 -0.872689,1.00079 c -0.479978,0.55044 -1.262441,1.64049 -1.73881,2.42234 -0.476366,0.78185 -0.884492,1.42154 -0.906948,1.42154 -0.02245,0 -0.164147,-0.23892 -0.314873,-0.53094 z"
       id="path3082"
       transform="translate(-1.0416666e-6,-1.1083333e-5)" />
    <path
       style="display:inline;fill:#e00e1a;stroke-width:0.999999"
       d="m 89.603435,502.40018 c -0.576268,-1.08299 -1.712171,-2.66473 -2.459335,-3.4246 l -0.770068,-0.78315 0.849459,-0.89601 c 0.792575,-0.836 1.41308,-1.72015 2.344778,-3.34101 l 0.383943,-0.66794 0.484935,0.85534 c 0.704266,1.24218 1.786071,2.71301 2.500762,3.40004 l 0.622266,0.59819 -0.640493,0.66622 c -0.760554,0.79112 -1.826089,2.25761 -2.429042,3.34307 -0.238548,0.42944 -0.472189,0.7808 -0.519204,0.7808 -0.04701,0 -0.212615,-0.23893 -0.368001,-0.53095 z"
       id="path3078"
       transform="translate(-1.0416666e-6,-1.1083333e-5)" />
    <path
       style="display:inline;fill:#e00e1a;stroke-width:0.999999"
       d="m 69.021918,502.46265 c -0.480101,-0.97172 -1.658251,-2.62637 -2.483355,-3.48776 l -0.771987,-0.80592 0.461487,-0.39859 c 0.640575,-0.55327 1.97659,-2.35451 2.583242,-3.48275 l 0.506618,-0.94221 0.964524,1.5431 c 0.530489,0.84871 1.326596,1.93585 1.769128,2.41589 l 0.804604,0.87278 -0.868566,0.98365 c -0.477712,0.54101 -1.263559,1.63877 -1.746327,2.43944 -0.482769,0.80068 -0.888654,1.45578 -0.901969,1.45578 -0.01332,0 -0.156143,-0.26703 -0.317399,-0.59341 z"
       id="path3076"
       transform="translate(-1.0416666e-6,-1.1083333e-5)" />
  </g>
  <g
     inkscape:groupmode="layer"
     id="layer6"
     inkscape:label="OuterSuit"
     style="display:inline"
     transform="translate(94.217781,-340.71922)">
    <path
       style="display:inline;fill:#e00e1a;stroke-width:0.999999"
       d="m 54.876126,469.08299 c -1.024856,-1.73303 -2.338402,-3.50023 -3.370289,-4.53428 l -0.714817,-0.71632 0.32096,-0.34558 c 1.671479,-1.79969 2.617227,-3.0278 3.416877,-4.437 0.224192,-0.39509 0.586439,-1.03078 0.804995,-1.41264 l 0.397373,-0.6943 0.659369,1.16279 c 0.993884,1.75268 2.153094,3.33518 3.361019,4.5883 l 1.085848,1.12647 -0.905307,0.90969 c -1.284321,1.29054 -2.316588,2.73644 -4.066909,5.69654 -0.06437,0.10886 -0.398811,-0.34547 -0.989119,-1.34367 z"
       id="path3086"
       transform="translate(-1.0416666e-6,-1.1083333e-5)" />
    <path
       style="display:inline;fill:#e00e1a;stroke-width:0.999999"
       d="m 102.97001,501.17733 c -0.51903,-1.00652 -2.14777,-3.44144 -2.75447,-4.11786 -0.215697,-0.2405 -0.702822,-0.7541 -1.082499,-1.14136 l -0.690321,-0.7041 0.26935,-0.23287 c 1.060683,-0.91701 3.39555,-4.08691 4.23539,-5.75012 0.21986,-0.43541 0.43057,-0.79038 0.46823,-0.78881 0.0377,0.002 0.47146,0.68445 0.96397,1.51753 1.05612,1.78641 2.22987,3.36503 3.29881,4.43667 l 0.77055,0.77251 -0.84569,0.89203 c -1.1165,1.17767 -2.21376,2.69052 -3.24687,4.47663 -0.46338,0.80112 -0.8599,1.4764 -0.88116,1.50061 -0.0213,0.0242 -0.24864,-0.36316 -0.50529,-0.86086 z"
       id="path3080"
       transform="translate(-1.0416666e-6,-1.1083333e-5)" />
  </g>
  <g
     inkscape:groupmode="layer"
     id="layer3"
     inkscape:label="CardName"
     style="display:inline"
     transform="translate(94.217781,-340.71922)">
    <path
       id="path2680"
       style="display:inline;fill:#e00e1a;stroke-width:1"
       d="m 103.28966,505.11738 c -1.26323,0 -1.39891,0.0254 -2.20028,0.41074 -1.870635,0.8995 -2.860591,2.94767 -2.3554,4.87343 0.328704,1.253 0.923134,2.03528 2.04881,2.69724 1.63552,0.96179 4.08054,0.7983 5.35052,-0.35787 0.19042,-0.17335 0.38533,-0.31517 0.4336,-0.31517 0.14848,0 -0.0521,1.39544 -0.32429,2.25601 -0.47521,1.50254 -1.54788,2.36071 -2.95036,2.36071 -1.18835,0 -2.1228,-0.5714 -2.69791,-1.65006 l -0.24985,-0.46868 -0.764659,0.37667 c -0.420605,0.20735 -0.76518,0.40666 -0.76518,0.44276 0,0.0361 0.118061,0.29059 0.261826,0.56578 0.568135,1.08756 1.699043,1.9858 2.927463,2.32463 1.45966,0.40262 3.33542,-0.0225 4.45417,-1.00956 0.77113,-0.68034 1.52092,-2.24385 1.77449,-3.69917 0.24373,-1.39884 0.17297,-3.62472 -0.15304,-4.80989 -0.47392,-1.7229 -1.45784,-3.04515 -2.71456,-3.64783 -0.65867,-0.3159 -0.86001,-0.34974 -2.07535,-0.34974 z m -0.14627,1.68159 c 1.33153,-0.0179 2.65456,0.84001 2.89883,2.25193 0.17816,1.02984 -0.46639,2.17562 -1.51006,2.68351 -1.48588,0.72311 -3.20339,0.17755 -3.87482,-1.23068 -0.51435,-1.07877 -0.3327,-2.0554 0.54083,-2.90972 0.54828,-0.53623 1.24775,-0.78569 1.94522,-0.79504 z"
       transform="translate(-1.0416666e-6,-1.1083333e-5)" />
    <path
       id="path3092"
       style="display:inline;fill:#e00e1a;stroke-width:1"
       d="m 55.895928,440.28096 c -1.287764,-0.002 -2.189324,0.30515 -3.013867,1.02837 -1.405104,1.23244 -1.909364,2.61081 -1.999357,5.46615 -0.0536,1.7008 -0.02945,1.98497 0.259225,3.07697 0.54824,2.07386 1.673128,3.40544 3.324105,3.93453 0.789785,0.25311 2.555937,0.15226 3.354815,-0.19164 1.443977,-0.62161 2.126598,-1.34298 2.621387,-2.76993 0.676778,-1.9518 -0.269342,-4.01395 -2.327809,-5.0727 -0.628924,-0.32354 -0.794966,-0.35126 -2.090448,-0.35126 -1.578464,0 -2.170069,0.18178 -3.051867,0.93788 l -0.479928,0.41175 0.0838,-0.67507 c 0.255501,-2.05541 0.880015,-3.2406 1.992588,-3.78203 1.471214,-0.71596 3.093703,-0.24093 3.905536,1.14376 0.189988,0.32405 0.358197,0.60717 0.37374,0.62881 0.05381,0.0751 1.589178,-0.73036 1.589178,-0.83367 0,-0.30163 -1.069119,-1.65263 -1.612079,-2.03691 -0.936916,-0.6631 -1.73524,-0.91304 -2.929024,-0.91501 z m 0.02289,6.70497 c 1.022252,-0.0177 2.065286,0.45383 2.619827,1.51536 0.309204,0.59189 0.33827,1.65505 0.05934,2.17518 -0.293061,0.54648 -0.989669,1.13102 -1.599068,1.34099 -0.787618,0.27138 -1.511346,0.23749 -2.254414,-0.10472 -1.056064,-0.48636 -1.601485,-1.29099 -1.595944,-2.3536 0.0084,-1.60547 1.369396,-2.5489 2.770259,-2.57321 z"
       transform="translate(-1.0416666e-6,-1.1083333e-5)" />
  </g>
</svg>
