<?xml version="1.0" encoding="UTF-8" standalone="no"?>
<svg
   width="63.500004mm"
   height="88.899895mm"
   viewBox="142.0878 95.116776 63.500012 88.899887"
   version="1.1"
   id="svg10"
   sodipodi:docname="6H.svg"
   inkscape:version="1.1.1 (1:1.1+202109281949+c3084ef5ed)"
   inkscape:export-filename="/home/doug/k40/52Cards/IndividualColorCards/6H.png"
   inkscape:export-xdpi="300"
   inkscape:export-ydpi="300"
   xmlns:inkscape="http://www.inkscape.org/namespaces/inkscape"
   xmlns:sodipodi="http://sodipodi.sourceforge.net/DTD/sodipodi-0.dtd"
   xmlns="http://www.w3.org/2000/svg"
   xmlns:svg="http://www.w3.org/2000/svg">
  <defs
     id="defs14">
    <marker
       style="overflow:visible"
       id="marker2995"
       refX="0"
       refY="0"
       orient="auto"
       inkscape:stockid="Arrow1Lstart"
       inkscape:isstock="true">
      <path
         transform="matrix(0.8,0,0,0.8,10,0)"
         style="fill:#000000;fill-opacity:1;fill-rule:evenodd;stroke:#000000;stroke-width:1pt;stroke-opacity:1"
         d="M 0,0 5,-5 -12.5,0 5,5 Z"
         id="path2993" />
    </marker>
    <marker
       style="overflow:visible"
       id="marker2985"
       refX="0"
       refY="0"
       orient="auto"
       inkscape:stockid="Arrow1Lstart"
       inkscape:isstock="true">
      <path
         transform="matrix(0.8,0,0,0.8,10,0)"
         style="fill:#000000;fill-opacity:1;fill-rule:evenodd;stroke:#000000;stroke-width:1pt;stroke-opacity:1"
         d="M 0,0 5,-5 -12.5,0 5,5 Z"
         id="path2983" />
    </marker>
    <marker
       style="overflow:visible"
       id="marker2791"
       refX="0"
       refY="0"
       orient="auto"
       inkscape:stockid="Arrow1Lstart"
       inkscape:isstock="true">
      <path
         transform="matrix(0.8,0,0,0.8,10,0)"
         style="fill:#000000;fill-opacity:1;fill-rule:evenodd;stroke:#000000;stroke-width:1pt;stroke-opacity:1"
         d="M 0,0 5,-5 -12.5,0 5,5 Z"
         id="path2789" />
    </marker>
    <marker
       style="overflow:visible"
       id="marker2781"
       refX="0"
       refY="0"
       orient="auto"
       inkscape:stockid="Arrow1Lstart"
       inkscape:isstock="true">
      <path
         transform="matrix(0.8,0,0,0.8,10,0)"
         style="fill:#000000;fill-opacity:1;fill-rule:evenodd;stroke:#000000;stroke-width:1pt;stroke-opacity:1"
         d="M 0,0 5,-5 -12.5,0 5,5 Z"
         id="path2779" />
    </marker>
    <marker
       style="overflow:visible"
       id="marker2417"
       refX="0"
       refY="0"
       orient="auto"
       inkscape:stockid="Arrow1Lstart"
       inkscape:isstock="true">
      <path
         transform="matrix(0.8,0,0,0.8,10,0)"
         style="fill:#000000;fill-opacity:1;fill-rule:evenodd;stroke:#000000;stroke-width:1pt;stroke-opacity:1"
         d="M 0,0 5,-5 -12.5,0 5,5 Z"
         id="path2415" />
    </marker>
    <marker
       style="overflow:visible"
       id="marker2383"
       refX="0"
       refY="0"
       orient="auto"
       inkscape:stockid="Arrow1Lstart"
       inkscape:isstock="true">
      <path
         transform="matrix(0.8,0,0,0.8,10,0)"
         style="fill:#000000;fill-opacity:1;fill-rule:evenodd;stroke:#000000;stroke-width:1pt;stroke-opacity:1"
         d="M 0,0 5,-5 -12.5,0 5,5 Z"
         id="path2381" />
    </marker>
    <marker
       style="overflow:visible"
       id="marker2355"
       refX="0"
       refY="0"
       orient="auto"
       inkscape:stockid="Arrow1Lstart"
       inkscape:isstock="true">
      <path
         transform="matrix(0.8,0,0,0.8,10,0)"
         style="fill:#000000;fill-opacity:1;fill-rule:evenodd;stroke:#000000;stroke-width:1pt;stroke-opacity:1"
         d="M 0,0 5,-5 -12.5,0 5,5 Z"
         id="path2353" />
    </marker>
    <marker
       style="overflow:visible"
       id="Arrow1Lstart"
       refX="0"
       refY="0"
       orient="auto"
       inkscape:stockid="Arrow1Lstart"
       inkscape:isstock="true">
      <path
         transform="matrix(0.8,0,0,0.8,10,0)"
         style="fill:#000000;fill-opacity:1;fill-rule:evenodd;stroke:#000000;stroke-width:1pt;stroke-opacity:1"
         d="M 0,0 5,-5 -12.5,0 5,5 Z"
         id="path2071" />
    </marker>
  </defs>
  <sodipodi:namedview
     id="namedview12"
     pagecolor="#ffffff"
     bordercolor="#666666"
     borderopacity="1.0"
     inkscape:pageshadow="2"
     inkscape:pageopacity="0.0"
     inkscape:pagecheckerboard="0"
     inkscape:document-units="mm"
     showgrid="false"
     showborder="false"
     fit-margin-top="0"
     fit-margin-left="0"
     fit-margin-right="0"
     fit-margin-bottom="0"
     inkscape:zoom="1.2541666"
     inkscape:cx="120.00001"
     inkscape:cy="167.84054"
     inkscape:window-width="1366"
     inkscape:window-height="712"
     inkscape:window-x="0"
     inkscape:window-y="0"
     inkscape:window-maximized="1"
     inkscape:current-layer="layer6" />
  <g
     inkscape:groupmode="layer"
     id="layer1"
     inkscape:label="CardOutline"
     style="display:inline"
     transform="translate(94.217781,-340.71922)">
    <path
       id="path4-3"
       style="display:inline;fill:none;fill-rule:evenodd;stroke:#000000;stroke-width:0.25;stroke-miterlimit:4;stroke-dasharray:none;stroke-opacity:1"
       d="m 50.564743,435.96104 -0.534158,0.31687 c -0.688621,0.40844 -1.158412,0.85449 -1.590112,1.51001 l -0.346181,0.5258 -0.06384,25.43159 c -0.03506,13.98732 -0.046,32.74824 -0.02422,41.69094 0.03916,16.06607 0.04297,16.26663 0.30127,16.87005 h 2.54e-4 c 0.321831,0.75178 1.375871,1.69211 2.308962,2.06009 0.662802,0.26139 0.718825,0.26193 29.335815,0.23047 27.968057,-0.0307 28.683467,-0.0377 29.150357,-0.27706 0.72044,-0.36932 1.35524,-0.98173 1.76901,-1.70664 l 0.37116,-0.65029 9.8e-4,-41.53137 9.8e-4,-41.53137 -0.30833,-0.61121 c -0.3634,-0.72062 -1.20695,-1.59056 -1.92217,-1.98245 l -0.50968,-0.27931 -28.969947,-0.0331 z m 0.134234,0.49272 57.679013,0.0666 0.38933,0.21242 0.11632,0.0681 0.12061,0.0774 0.13902,0.0985 0.11304,0.0864 0.12364,0.1017 0.13751,0.12124 0.11153,0.10621 0.13145,0.13177 0.10774,0.11773 0.12692,0.13477 0.0918,0.11748 0.10345,0.13201 0.0951,0.13352 0.0785,0.11974 0.0739,0.12124 0.0603,0.11222 0.25661,0.50651 -0.003,82.81198 -0.30631,0.53682 -0.13726,0.22444 -0.18268,0.24876 -0.16754,0.20014 -0.19757,0.20466 -0.19327,0.17285 -0.23542,0.18336 -0.22481,0.1503 -0.2233,0.12574 -0.0212,0.0108 -0.0149,0.006 -0.0394,0.012 -0.027,0.006 -0.0507,0.01 -0.0277,0.004 -0.0606,0.008 -0.0573,0.008 -0.0679,0.006 -0.083,0.0105 -0.0868,0.004 -0.0913,0.006 -0.10698,0.007 -0.25056,0.012 -0.3048,0.0108 -0.3545,0.0105 -0.41809,0.009 -0.47538,0.009 -0.54929,0.008 -0.96108,0.0105 -1.14073,0.0108 -3.46459,0.0165 -34.84847,0.0471 -6.84314,-0.003 -1.74276,-0.004 -1.260078,-0.006 -1.065289,-0.008 -0.60506,-0.006 -0.534158,-0.008 -0.467798,-0.009 -0.401438,-0.009 -0.339623,-0.009 -0.289659,-0.012 -0.126666,-0.006 -0.11632,-0.006 -0.106979,-0.006 -0.08302,-0.006 -0.08302,-0.008 -0.07998,-0.006 -0.0545,-0.007 -0.10093,-0.0135 -0.09967,-0.0183 -0.03911,-0.009 -0.04844,-0.0138 -0.0376,-0.0135 -0.04692,-0.0183 -0.167539,-0.0726 -0.143315,-0.0699 -0.177886,-0.0985 -0.140542,-0.0864 -0.159971,-0.10773 -0.155176,-0.11372 -0.152651,-0.12124 -0.161231,-0.13803 -0.123887,-0.11372 -0.144835,-0.14729 -0.11026,-0.11974 -0.119098,-0.14253 -0.08604,-0.11374 -0.09361,-0.13951 -0.06485,-0.11098 -0.05601,-0.11974 -0.027,-0.0669 -0.03481,-0.10621 -0.0061,-0.027 -0.01211,-0.0669 -0.01338,-0.0939 -0.01514,-0.12124 -0.0044,-0.0531 -0.01362,-0.15632 -0.0099,-0.16206 -0.01133,-0.21243 -0.01059,-0.23947 -0.0088,-0.27305 -0.0091,-0.31236 -0.0076,-0.3532 -0.01059,-0.61573 -0.0091,-0.72319 -0.0106,-1.15404 -0.0106,-1.77404 -0.01641,-4.27149 -0.01968,-8.14897 -0.0061,-8.546 0.0015,-6.72963 0.0044,-7.16476 0.0091,-7.2692 0.01943,-9.71082 0.0651,-25.28355 0.257868,-0.39253 0.152402,-0.21993 0.166025,-0.21393 0.147862,-0.16834 0.169052,-0.17133 0.185708,-0.16508 0.168798,-0.13202 0.229612,-0.16082 0.227845,-0.14253 z"
       inkscape:export-filename="/home/doug/k40/52Cards/IndividualColorCards/2D.png"
       inkscape:export-xdpi="300"
       inkscape:export-ydpi="300" />
  </g>
  <g
     inkscape:groupmode="layer"
     id="layer2"
     inkscape:label="InnerRectangle"
     style="display:inline"
     transform="translate(94.217781,-340.71922)">
    <path
       id="path2-6"
       style="display:inline;fill:none;fill-rule:evenodd;stroke:#4c71a5;stroke-width:0.262609;stroke-opacity:1"
       d="m 63.13524,452.67467 0.0441,14.05596 c 0.0243,7.7307 0.0504,20.15551 0.0578,27.61093 l 0.0134,13.55547 16.409043,-0.0521 16.40903,-0.0519 0.0305,-24.32539 c 0.0169,-13.37898 -0.004,-25.78048 -0.0462,-27.55907 l -0.077,-3.23394 h -16.42035 z m 16.503153,0.25626 h 16.11155 l 0.005,0.73622 c 0.003,0.40503 0.0367,12.68075 0.0757,27.27927 l 0.0709,26.54279 -3.16634,0.004 c -1.74158,0.002 -8.99902,0.0153 -16.12745,0.0285 -7.12842,0.0133 -12.991523,-0.007 -13.029223,-0.0446 -0.0728,-0.0731 -0.16665,-54.20072 -0.0944,-54.4185 0.028,-0.0844 5.532343,-0.128 16.154193,-0.128 z"
       inkscape:export-filename="/home/doug/k40/52Cards/IndividualColorCards/2D.png"
       inkscape:export-xdpi="300"
       inkscape:export-ydpi="300" />
  </g>
  <g
     inkscape:groupmode="layer"
     id="layer5"
     inkscape:label="InnerSuit"
     style="display:inline"
     transform="translate(94.217781,-340.71922)">
    <path
       style="fill:#e10c18;stroke-width:1"
       d="m 63.424095,457.3441 c 0,-0.0349 0.02858,-0.0635 0.0635,-0.0635 0.03493,0 0.0635,0.0286 0.0635,0.0635 0,0.0349 -0.02858,0.0635 -0.0635,0.0635 -0.03492,0 -0.0635,-0.0286 -0.0635,-0.0635 z"
       id="path2802" />
    <path
       style="fill:#e10c18;stroke-width:1"
       d="m 63.424095,457.9791 c 0,-0.0349 0.02858,-0.0635 0.0635,-0.0635 0.03493,0 0.0635,0.0286 0.0635,0.0635 0,0.0349 -0.02858,0.0635 -0.0635,0.0635 -0.03492,0 -0.0635,-0.0286 -0.0635,-0.0635 z"
       id="path2800" />
    <path
       style="fill:#e10c18;stroke-width:1"
       d="m 63.424095,458.8681 c 0,-0.0349 0.02858,-0.0635 0.0635,-0.0635 0.03493,0 0.0635,0.0286 0.0635,0.0635 0,0.0349 -0.02858,0.0635 -0.0635,0.0635 -0.03492,0 -0.0635,-0.0286 -0.0635,-0.0635 z"
       id="path2798" />
    <path
       style="fill:#e10c18;stroke-width:1"
       d="m 63.424095,459.8841 c 0,-0.0349 0.02858,-0.0635 0.0635,-0.0635 0.03493,0 0.0635,0.0286 0.0635,0.0635 0,0.0349 -0.02858,0.0635 -0.0635,0.0635 -0.03492,0 -0.0635,-0.0286 -0.0635,-0.0635 z"
       id="path2796" />
    <path
       style="fill:#e10c18;stroke-width:1"
       d="m 63.424095,461.0271 c 0,-0.0349 0.02858,-0.0635 0.0635,-0.0635 0.03493,0 0.0635,0.0286 0.0635,0.0635 0,0.0349 -0.02858,0.0635 -0.0635,0.0635 -0.03492,0 -0.0635,-0.0286 -0.0635,-0.0635 z"
       id="path2794" />
    <path
       style="fill:#e10c18;stroke-width:1"
       d="m 63.424095,461.7891 c 0,-0.0349 0.02858,-0.0635 0.0635,-0.0635 0.03493,0 0.0635,0.0286 0.0635,0.0635 0,0.0349 -0.02858,0.0635 -0.0635,0.0635 -0.03492,0 -0.0635,-0.0286 -0.0635,-0.0635 z"
       id="path2792" />
    <path
       style="fill:#e10c18;stroke-width:1"
       d="m 63.297095,462.4241 c 0,-0.0349 0.02858,-0.0635 0.0635,-0.0635 0.03492,0 0.0635,0.0286 0.0635,0.0635 0,0.0349 -0.02858,0.0635 -0.0635,0.0635 -0.03492,0 -0.0635,-0.0286 -0.0635,-0.0635 z"
       id="path2790" />
    <path
       style="fill:#e10c18;stroke-width:1"
       d="m 63.424095,462.6781 c 0,-0.0349 0.02858,-0.0635 0.0635,-0.0635 0.03493,0 0.0635,0.0286 0.0635,0.0635 0,0.0349 -0.02858,0.0635 -0.0635,0.0635 -0.03492,0 -0.0635,-0.0286 -0.0635,-0.0635 z"
       id="path2788" />
    <path
       style="fill:#e10c18;stroke-width:1"
       d="m 63.424095,463.9481 c 0,-0.0349 0.02858,-0.0635 0.0635,-0.0635 0.03493,0 0.0635,0.0286 0.0635,0.0635 0,0.0349 -0.02858,0.0635 -0.0635,0.0635 -0.03492,0 -0.0635,-0.0286 -0.0635,-0.0635 z"
       id="path2786" />
    <path
       style="fill:#e10c18;stroke-width:1"
       d="m 89.104936,463.78934 c -2.197919,-3.69998 -2.763599,-5.34358 -2.227755,-6.47279 0.57093,-1.20314 2.345084,-1.24968 2.901977,-0.0761 0.209641,0.44178 0.238122,0.45973 0.366376,0.23089 0.07648,-0.13647 0.319085,-0.43524 0.539112,-0.66393 0.346547,-0.36019 0.484385,-0.4158 1.030623,-0.4158 0.447157,0 0.728645,0.0771 0.967738,0.26521 1.0181,0.80084 0.937401,2.2181 -0.262511,4.61021 -0.569979,1.1363 -2.162758,3.84994 -2.314934,3.94399 -0.0628,0.0388 -0.513081,-0.60094 -1.000626,-1.42167 z"
       id="path2784" />
    <path
       style="fill:#e10c18;stroke-width:1"
       d="m 69.04982,465.13273 c -0.661707,-0.81581 -2.57219,-4.38117 -2.976231,-5.55426 -0.48076,-1.39584 -0.207935,-2.54942 0.705452,-2.98285 0.882704,-0.41887 1.831165,-0.081 2.19115,0.78058 l 0.196811,0.47103 0.245849,-0.47921 c 0.631785,-1.23148 2.281331,-1.27639 2.923182,-0.0796 0.573589,1.06952 0.07687,2.66372 -1.877166,6.02467 -1.051938,1.80934 -1.230431,2.03984 -1.409047,1.81963 z"
       id="path2782" />
    <path
       style="fill:#e10c18;stroke-width:1"
       d="m 63.424095,477.6641 c 0,-0.0349 0.02858,-0.0635 0.0635,-0.0635 0.03493,0 0.0635,0.0286 0.0635,0.0635 0,0.0349 -0.02858,0.0635 -0.0635,0.0635 -0.03492,0 -0.0635,-0.0286 -0.0635,-0.0635 z"
       id="path2778" />
    <path
       style="fill:#e10c18;stroke-width:1"
       d="m 88.972219,482.93993 c -1.205959,-2.03844 -1.821409,-3.31553 -2.126301,-4.41217 -0.28763,-1.03454 -0.173291,-1.59957 0.449771,-2.22263 0.404315,-0.40432 0.568308,-0.48253 1.011773,-0.48253 0.701682,0 1.174477,0.26186 1.472731,0.81569 0.134565,0.24987 0.281884,0.45431 0.327376,0.45431 0.04549,0 0.154343,-0.17293 0.241893,-0.3843 0.41025,-0.99043 1.965722,-1.21961 2.638227,-0.38871 0.94402,1.16638 0.441651,2.85763 -2.151095,7.24177 -0.373448,0.63148 -0.709746,1.14884 -0.747325,1.14969 -0.03758,8.9e-4 -0.540253,-0.79615 -1.11705,-1.77112 z"
       id="path2776" />
    <path
       style="fill:#e10c18;stroke-width:1"
       d="m 68.441345,483.55973 c -2.137119,-3.45491 -2.958247,-5.6678 -2.461731,-6.63423 0.682276,-1.328 2.145532,-1.45526 2.90804,-0.25291 l 0.360683,0.56874 0.187313,-0.36012 c 0.886965,-1.70521 3.132446,-1.13919 3.132446,0.78961 0,0.73068 -0.316236,1.71019 -0.98138,3.03971 -0.696644,1.39249 -2.223879,3.99823 -2.344679,4.00046 -0.04816,8.9e-4 -0.408469,-0.51718 -0.800692,-1.15126 z"
       id="path2774" />
    <path
       style="fill:#e10c18;stroke-width:1"
       d="m 95.936097,490.7451 c 0,-0.0349 0.02858,-0.0635 0.0635,-0.0635 0.03492,0 0.0635,0.0286 0.0635,0.0635 0,0.0349 -0.02858,0.0635 -0.0635,0.0635 -0.03493,0 -0.0635,-0.0286 -0.0635,-0.0635 z"
       id="path2772" />
    <path
       style="fill:#e10c18;stroke-width:1"
       d="m 95.936097,495.6981 c 0,-0.0349 0.02858,-0.0635 0.0635,-0.0635 0.03492,0 0.0635,0.0286 0.0635,0.0635 0,0.0349 -0.02858,0.0635 -0.0635,0.0635 -0.03493,0 -0.0635,-0.0286 -0.0635,-0.0635 z"
       id="path2770" />
    <path
       style="fill:#e10c18;stroke-width:1"
       d="m 95.936097,498.1111 c 0,-0.0349 0.02858,-0.0635 0.0635,-0.0635 0.03492,0 0.0635,0.0286 0.0635,0.0635 0,0.0349 -0.02858,0.0635 -0.0635,0.0635 -0.03493,0 -0.0635,-0.0286 -0.0635,-0.0635 z"
       id="path2768" />
    <path
       style="fill:#e10c18;stroke-width:1"
       d="m 95.936097,498.3651 c 0,-0.0349 0.02858,-0.0635 0.0635,-0.0635 0.03492,0 0.0635,0.0286 0.0635,0.0635 0,0.0349 -0.02858,0.0635 -0.0635,0.0635 -0.03493,0 -0.0635,-0.0286 -0.0635,-0.0635 z"
       id="path2766" />
    <path
       style="fill:#e10c18;stroke-width:1"
       d="m 95.936097,499.3811 c 0,-0.0349 0.02858,-0.0635 0.0635,-0.0635 0.03492,0 0.0635,0.0286 0.0635,0.0635 0,0.0349 -0.02858,0.0635 -0.0635,0.0635 -0.03493,0 -0.0635,-0.0286 -0.0635,-0.0635 z"
       id="path2764" />
    <path
       style="fill:#e10c18;stroke-width:1"
       d="m 95.936097,499.8256 c 0,-0.0931 0.0381,-0.13123 0.08467,-0.0847 0.04657,0.0466 0.04657,0.12277 0,0.16934 -0.04657,0.0466 -0.08467,0.008 -0.08467,-0.0847 z"
       id="path2762" />
    <path
       style="fill:#e10c18;stroke-width:1"
       d="m 87.473456,504.15388 c -0.257176,-0.15682 -0.477083,-0.44949 -0.621108,-0.82661 -0.209705,-0.54911 -0.210502,-0.63474 -0.01338,-1.4395 0.115272,-0.47062 0.438479,-1.33441 0.71824,-1.91954 0.617912,-1.29238 2.396221,-4.33363 2.534002,-4.33363 0.149175,0 1.798999,2.80376 2.524297,4.28986 0.75427,1.54547 0.998537,2.5258 0.796976,3.19855 -0.430441,1.43668 -2.41687,1.72741 -3.029195,0.44335 -0.115077,-0.24132 -0.248862,-0.43876 -0.297301,-0.43876 -0.04844,0 -0.161887,0.17821 -0.252107,0.39602 -0.334827,0.80834 -1.540439,1.13026 -2.360419,0.63026 z"
       id="path2758" />
    <path
       style="fill:#e10c18;stroke-width:1"
       d="m 66.905825,504.35014 c -0.875606,-0.39477 -1.195616,-1.23871 -0.928473,-2.44857 0.235671,-1.06733 2.957646,-6.27957 3.270449,-6.26251 0.09382,0.005 1.959867,3.23329 2.533994,4.38368 1.120487,2.24514 1.05779,3.71952 -0.181482,4.26771 -0.908919,0.40205 -1.662811,0.14709 -2.106528,-0.71241 l -0.259188,-0.50206 -0.240558,0.46889 c -0.416432,0.81171 -1.309801,1.15621 -2.088214,0.80527 z"
       id="path2756" />
  </g>
  <g
     inkscape:groupmode="layer"
     id="layer6"
     inkscape:label="OuterSuit"
     style="display:inline"
     transform="translate(94.217781,-340.71922)">
    <path
       style="display:inline;fill:#e10c18;stroke-width:1"
       d="m 55.265516,467.09823 c -2.323947,-3.92845 -3.066198,-5.65411 -3.075687,-7.15063 -0.0063,-0.99604 0.304803,-1.70631 0.929709,-2.12248 1.226854,-0.81706 2.736059,-0.37505 3.268681,0.95732 l 0.266624,0.66696 0.21787,-0.57048 c 0.713018,-1.86701 3.23287,-1.97875 4.008961,-0.17778 0.495403,1.14962 0.265801,2.49305 -0.809924,4.73896 -0.570733,1.19158 -3.071582,5.50858 -3.369881,5.81713 -0.05431,0.0562 -0.700666,-0.91537 -1.436353,-2.159 z"
       id="path2780"
       transform="translate(-1.0416666e-6,-1.1083333e-5)" />
    <path
       style="display:inline;fill:#e10c18;stroke-width:1"
       d="m 99.311124,503.1011 c -1.093114,-0.63815 -1.372651,-2.05656 -0.766256,-3.88811 0.373026,-1.12668 1.580322,-3.55072 2.743522,-5.5085 0.44396,-0.74724 0.92621,-1.56958 1.07166,-1.82743 l 0.26446,-0.46882 0.61004,1.00193 c 2.91978,4.79541 3.87755,6.90859 3.87755,8.55525 0,0.77904 -0.22485,1.34693 -0.71461,1.80485 -0.67015,0.62659 -1.55635,0.78022 -2.41971,0.41948 -0.53368,-0.22298 -0.72265,-0.43072 -1.07256,-1.17907 l -0.25503,-0.54542 -0.3408,0.66593 c -0.45139,0.88205 -0.85449,1.15925 -1.76784,1.21569 -0.587552,0.0363 -0.830292,-0.0122 -1.230426,-0.24578 z"
       id="path2760"
       transform="translate(-1.0416666e-6,-1.1083333e-5)" />
  </g>
  <g
     inkscape:groupmode="layer"
     id="layer3"
     inkscape:label="CardName"
     style="display:inline"
     transform="translate(94.217781,-340.71922)">
    <path
       id="path2568"
       style="display:inline;fill:#e10c18;stroke-width:1"
       d="m 102.55092,506.44332 c -0.14493,-0.001 -0.29304,0.004 -0.4439,0.0134 -1.70796,0.10961 -3.05048,0.9927 -3.788397,2.49235 -0.371592,0.75518 -0.413227,0.95239 -0.407727,1.9234 0.0051,0.91455 0.05793,1.18176 0.342098,1.73013 0.452278,0.87279 0.868039,1.34541 1.593185,1.81074 1.648461,1.05781 3.886581,0.95706 5.385201,-0.24236 0.25784,-0.20637 0.49088,-0.37517 0.5178,-0.37517 0.0269,0 0.0284,0.18536 0.003,0.41237 -0.33096,2.96794 -1.32877,4.28656 -3.24373,4.28656 -1.26392,0 -2.04569,-0.51075 -2.841172,-1.85518 -0.137332,-0.2321 -0.167661,-0.2281 -0.857312,0.10748 -0.393191,0.19134 -0.715201,0.4228 -0.715201,0.5147 0,0.1997 0.678003,1.30104 1.061434,1.72445 0.36723,0.40552 1.061841,0.8376 1.743041,1.08468 0.40625,0.14739 0.89489,0.19282 1.76786,0.16382 1.03207,-0.0343 1.31525,-0.0941 1.95853,-0.41341 1.1566,-0.57405 2.03137,-1.80765 2.5616,-3.6127 0.19753,-0.67244 0.24186,-1.22563 0.23926,-2.98432 -0.003,-2.01921 -0.0256,-2.22285 -0.34881,-3.14451 -0.84546,-2.41094 -2.35284,-3.62216 -4.52686,-3.63647 z m -0.23306,1.77147 c 0.38968,-0.006 0.8004,0.0703 1.21595,0.24908 2.20279,0.9476 2.19964,3.83271 -0.005,4.75371 h -5.3e-4 c -0.63099,0.26359 -1.69541,0.24525 -2.32285,-0.0398 -0.28,-0.1272 -0.69141,-0.43922 -0.91468,-0.69349 -1.575287,-1.79417 -0.077,-4.23712 2.02727,-4.26951 z"
       transform="translate(-1.0416666e-6,-1.1083333e-5)" />
    <path
       id="path2804"
       style="display:inline;fill:#e10c18;stroke-width:1"
       d="m 56.820382,440.32901 c -1.061241,-0.003 -1.291759,0.039 -1.914096,0.34468 -1.404387,0.68971 -2.395691,2.0648 -2.868041,3.97857 -0.299098,1.21163 -0.300122,4.10355 -0.0016,5.31285 0.496091,2.00932 1.654567,3.59471 3.006019,4.11345 1.005364,0.38591 2.605516,0.37846 3.565673,-0.0165 1.42091,-0.58454 2.358522,-1.65826 2.731616,-3.12849 0.522724,-2.05986 -0.465335,-4.11435 -2.452047,-5.09788 -0.521427,-0.25813 -0.795575,-0.30041 -1.940967,-0.30127 -1.503603,-0.001 -2.099461,0.19177 -2.980179,0.9648 l -0.491443,0.43098 0.08578,-0.82579 c 0.187807,-1.80992 0.923592,-3.21218 1.977139,-3.76825 0.696711,-0.36774 1.754624,-0.3925 2.488221,-0.0584 0.529225,0.24103 1.371965,1.08046 1.610754,1.60455 l 0.138494,0.30334 0.744656,-0.37569 c 0.409612,-0.20677 0.744659,-0.42362 0.744659,-0.48162 0,-0.26312 -1.027527,-1.6568 -1.493967,-2.02623 -0.951859,-0.75388 -1.605909,-0.97007 -2.950723,-0.97307 z m 0.08681,6.80682 c 1.109427,-0.004 2.120252,0.64735 2.613795,1.75183 0.496432,1.11095 -0.01902,2.6149 -1.116727,3.2582 -0.62842,0.36824 -1.757688,0.51279 -2.409674,0.30851 -0.549246,-0.17209 -1.301123,-0.83561 -1.591117,-1.40405 -0.311327,-0.61026 -0.332335,-1.75016 -0.04341,-2.35903 0.284215,-0.59894 1.086728,-1.25491 1.768885,-1.44591 0.261413,-0.0732 0.522224,-0.10865 0.778245,-0.10955 z"
       transform="translate(-1.0416666e-6,-1.1083333e-5)" />
  </g>
</svg>
