<?xml version="1.0" encoding="UTF-8" standalone="no"?>
<svg
   width="63.500004mm"
   height="88.899895mm"
   viewBox="142.0878 95.116776 63.500012 88.899887"
   version="1.1"
   id="svg10"
   sodipodi:docname="6S.svg"
   inkscape:version="1.1.1 (1:1.1+202109281949+c3084ef5ed)"
   inkscape:export-filename="/home/doug/k40/52Cards/IndividualColorCards/6S.png"
   inkscape:export-xdpi="300"
   inkscape:export-ydpi="300"
   xmlns:inkscape="http://www.inkscape.org/namespaces/inkscape"
   xmlns:sodipodi="http://sodipodi.sourceforge.net/DTD/sodipodi-0.dtd"
   xmlns="http://www.w3.org/2000/svg"
   xmlns:svg="http://www.w3.org/2000/svg">
  <defs
     id="defs14">
    <marker
       style="overflow:visible"
       id="marker2995"
       refX="0"
       refY="0"
       orient="auto"
       inkscape:stockid="Arrow1Lstart"
       inkscape:isstock="true">
      <path
         transform="matrix(0.8,0,0,0.8,10,0)"
         style="fill:#000000;fill-opacity:1;fill-rule:evenodd;stroke:#000000;stroke-width:1pt;stroke-opacity:1"
         d="M 0,0 5,-5 -12.5,0 5,5 Z"
         id="path2993" />
    </marker>
    <marker
       style="overflow:visible"
       id="marker2985"
       refX="0"
       refY="0"
       orient="auto"
       inkscape:stockid="Arrow1Lstart"
       inkscape:isstock="true">
      <path
         transform="matrix(0.8,0,0,0.8,10,0)"
         style="fill:#000000;fill-opacity:1;fill-rule:evenodd;stroke:#000000;stroke-width:1pt;stroke-opacity:1"
         d="M 0,0 5,-5 -12.5,0 5,5 Z"
         id="path2983" />
    </marker>
    <marker
       style="overflow:visible"
       id="marker2791"
       refX="0"
       refY="0"
       orient="auto"
       inkscape:stockid="Arrow1Lstart"
       inkscape:isstock="true">
      <path
         transform="matrix(0.8,0,0,0.8,10,0)"
         style="fill:#000000;fill-opacity:1;fill-rule:evenodd;stroke:#000000;stroke-width:1pt;stroke-opacity:1"
         d="M 0,0 5,-5 -12.5,0 5,5 Z"
         id="path2789" />
    </marker>
    <marker
       style="overflow:visible"
       id="marker2781"
       refX="0"
       refY="0"
       orient="auto"
       inkscape:stockid="Arrow1Lstart"
       inkscape:isstock="true">
      <path
         transform="matrix(0.8,0,0,0.8,10,0)"
         style="fill:#000000;fill-opacity:1;fill-rule:evenodd;stroke:#000000;stroke-width:1pt;stroke-opacity:1"
         d="M 0,0 5,-5 -12.5,0 5,5 Z"
         id="path2779" />
    </marker>
    <marker
       style="overflow:visible"
       id="marker2417"
       refX="0"
       refY="0"
       orient="auto"
       inkscape:stockid="Arrow1Lstart"
       inkscape:isstock="true">
      <path
         transform="matrix(0.8,0,0,0.8,10,0)"
         style="fill:#000000;fill-opacity:1;fill-rule:evenodd;stroke:#000000;stroke-width:1pt;stroke-opacity:1"
         d="M 0,0 5,-5 -12.5,0 5,5 Z"
         id="path2415" />
    </marker>
    <marker
       style="overflow:visible"
       id="marker2383"
       refX="0"
       refY="0"
       orient="auto"
       inkscape:stockid="Arrow1Lstart"
       inkscape:isstock="true">
      <path
         transform="matrix(0.8,0,0,0.8,10,0)"
         style="fill:#000000;fill-opacity:1;fill-rule:evenodd;stroke:#000000;stroke-width:1pt;stroke-opacity:1"
         d="M 0,0 5,-5 -12.5,0 5,5 Z"
         id="path2381" />
    </marker>
    <marker
       style="overflow:visible"
       id="marker2355"
       refX="0"
       refY="0"
       orient="auto"
       inkscape:stockid="Arrow1Lstart"
       inkscape:isstock="true">
      <path
         transform="matrix(0.8,0,0,0.8,10,0)"
         style="fill:#000000;fill-opacity:1;fill-rule:evenodd;stroke:#000000;stroke-width:1pt;stroke-opacity:1"
         d="M 0,0 5,-5 -12.5,0 5,5 Z"
         id="path2353" />
    </marker>
    <marker
       style="overflow:visible"
       id="Arrow1Lstart"
       refX="0"
       refY="0"
       orient="auto"
       inkscape:stockid="Arrow1Lstart"
       inkscape:isstock="true">
      <path
         transform="matrix(0.8,0,0,0.8,10,0)"
         style="fill:#000000;fill-opacity:1;fill-rule:evenodd;stroke:#000000;stroke-width:1pt;stroke-opacity:1"
         d="M 0,0 5,-5 -12.5,0 5,5 Z"
         id="path2071" />
    </marker>
  </defs>
  <sodipodi:namedview
     id="namedview12"
     pagecolor="#ffffff"
     bordercolor="#666666"
     borderopacity="1.0"
     inkscape:pageshadow="2"
     inkscape:pageopacity="0.0"
     inkscape:pagecheckerboard="0"
     inkscape:document-units="mm"
     showgrid="false"
     showborder="false"
     fit-margin-top="0"
     fit-margin-left="0"
     fit-margin-right="0"
     fit-margin-bottom="0"
     inkscape:zoom="1.4874999"
     inkscape:cx="120.00001"
     inkscape:cy="167.7311"
     inkscape:window-width="1366"
     inkscape:window-height="712"
     inkscape:window-x="0"
     inkscape:window-y="0"
     inkscape:window-maximized="1"
     inkscape:current-layer="layer5" />
  <g
     inkscape:groupmode="layer"
     id="layer1"
     inkscape:label="CardOutline"
     style="display:inline"
     transform="translate(94.217781,-340.71922)">
    <path
       id="path4-3"
       style="display:inline;fill:none;fill-rule:evenodd;stroke:#000000;stroke-width:0.25;stroke-miterlimit:4;stroke-dasharray:none;stroke-opacity:1"
       d="m 50.564743,435.96104 -0.534158,0.31687 c -0.688621,0.40844 -1.158412,0.85449 -1.590112,1.51001 l -0.346181,0.5258 -0.06384,25.43159 c -0.03506,13.98732 -0.046,32.74824 -0.02422,41.69094 0.03916,16.06607 0.04297,16.26663 0.30127,16.87005 h 2.54e-4 c 0.321831,0.75178 1.375871,1.69211 2.308962,2.06009 0.662802,0.26139 0.718825,0.26193 29.335815,0.23047 27.968057,-0.0307 28.683467,-0.0377 29.150357,-0.27706 0.72044,-0.36932 1.35524,-0.98173 1.76901,-1.70664 l 0.37116,-0.65029 9.8e-4,-41.53137 9.8e-4,-41.53137 -0.30833,-0.61121 c -0.3634,-0.72062 -1.20695,-1.59056 -1.92217,-1.98245 l -0.50968,-0.27931 -28.969947,-0.0331 z m 0.134234,0.49272 57.679013,0.0666 0.38933,0.21242 0.11632,0.0681 0.12061,0.0774 0.13902,0.0985 0.11304,0.0864 0.12364,0.1017 0.13751,0.12124 0.11153,0.10621 0.13145,0.13177 0.10774,0.11773 0.12692,0.13477 0.0918,0.11748 0.10345,0.13201 0.0951,0.13352 0.0785,0.11974 0.0739,0.12124 0.0603,0.11222 0.25661,0.50651 -0.003,82.81198 -0.30631,0.53682 -0.13726,0.22444 -0.18268,0.24876 -0.16754,0.20014 -0.19757,0.20466 -0.19327,0.17285 -0.23542,0.18336 -0.22481,0.1503 -0.2233,0.12574 -0.0212,0.0108 -0.0149,0.006 -0.0394,0.012 -0.027,0.006 -0.0507,0.01 -0.0277,0.004 -0.0606,0.008 -0.0573,0.008 -0.0679,0.006 -0.083,0.0105 -0.0868,0.004 -0.0913,0.006 -0.10698,0.007 -0.25056,0.012 -0.3048,0.0108 -0.3545,0.0105 -0.41809,0.009 -0.47538,0.009 -0.54929,0.008 -0.96108,0.0105 -1.14073,0.0108 -3.46459,0.0165 -34.84847,0.0471 -6.84314,-0.003 -1.74276,-0.004 -1.260078,-0.006 -1.065289,-0.008 -0.60506,-0.006 -0.534158,-0.008 -0.467798,-0.009 -0.401438,-0.009 -0.339623,-0.009 -0.289659,-0.012 -0.126666,-0.006 -0.11632,-0.006 -0.106979,-0.006 -0.08302,-0.006 -0.08302,-0.008 -0.07998,-0.006 -0.0545,-0.007 -0.10093,-0.0135 -0.09967,-0.0183 -0.03911,-0.009 -0.04844,-0.0138 -0.0376,-0.0135 -0.04692,-0.0183 -0.167539,-0.0726 -0.143315,-0.0699 -0.177886,-0.0985 -0.140542,-0.0864 -0.159971,-0.10773 -0.155176,-0.11372 -0.152651,-0.12124 -0.161231,-0.13803 -0.123887,-0.11372 -0.144835,-0.14729 -0.11026,-0.11974 -0.119098,-0.14253 -0.08604,-0.11374 -0.09361,-0.13951 -0.06485,-0.11098 -0.05601,-0.11974 -0.027,-0.0669 -0.03481,-0.10621 -0.0061,-0.027 -0.01211,-0.0669 -0.01338,-0.0939 -0.01514,-0.12124 -0.0044,-0.0531 -0.01362,-0.15632 -0.0099,-0.16206 -0.01133,-0.21243 -0.01059,-0.23947 -0.0088,-0.27305 -0.0091,-0.31236 -0.0076,-0.3532 -0.01059,-0.61573 -0.0091,-0.72319 -0.0106,-1.15404 -0.0106,-1.77404 -0.01641,-4.27149 -0.01968,-8.14897 -0.0061,-8.546 0.0015,-6.72963 0.0044,-7.16476 0.0091,-7.2692 0.01943,-9.71082 0.0651,-25.28355 0.257868,-0.39253 0.152402,-0.21993 0.166025,-0.21393 0.147862,-0.16834 0.169052,-0.17133 0.185708,-0.16508 0.168798,-0.13202 0.229612,-0.16082 0.227845,-0.14253 z"
       inkscape:export-filename="/home/doug/k40/52Cards/IndividualColorCards/2D.png"
       inkscape:export-xdpi="300"
       inkscape:export-ydpi="300" />
  </g>
  <g
     inkscape:groupmode="layer"
     id="layer2"
     inkscape:label="InnerRectangle"
     style="display:inline"
     transform="translate(94.217781,-340.71922)">
    <path
       id="path2-6"
       style="display:inline;fill:none;fill-rule:evenodd;stroke:#4c71a5;stroke-width:0.262609;stroke-opacity:1"
       d="m 63.13524,452.67467 0.0441,14.05596 c 0.0243,7.7307 0.0504,20.15551 0.0578,27.61093 l 0.0134,13.55547 16.409043,-0.0521 16.40903,-0.0519 0.0305,-24.32539 c 0.0169,-13.37898 -0.004,-25.78048 -0.0462,-27.55907 l -0.077,-3.23394 h -16.42035 z m 16.503153,0.25626 h 16.11155 l 0.005,0.73622 c 0.003,0.40503 0.0367,12.68075 0.0757,27.27927 l 0.0709,26.54279 -3.16634,0.004 c -1.74158,0.002 -8.99902,0.0153 -16.12745,0.0285 -7.12842,0.0133 -12.991523,-0.007 -13.029223,-0.0446 -0.0728,-0.0731 -0.16665,-54.20072 -0.0944,-54.4185 0.028,-0.0844 5.532343,-0.128 16.154193,-0.128 z"
       inkscape:export-filename="/home/doug/k40/52Cards/IndividualColorCards/2D.png"
       inkscape:export-xdpi="300"
       inkscape:export-ydpi="300" />
  </g>
  <g
     inkscape:groupmode="layer"
     id="layer5"
     inkscape:label="InnerSuit"
     style="display:inline"
     transform="translate(94.217781,-340.71922)">
    <path
       style="display:inline;fill:#19100a;stroke-width:1"
       d="m 89.598826,466.00685 c 0.426958,-0.92402 0.717281,-1.78282 0.792065,-2.34297 l 0.09177,-0.68737 -0.441817,0.47704 c -0.547515,0.59116 -1.327487,0.7306 -2.032676,0.36337 -1.437067,-0.74835 -1.248094,-2.33297 0.57416,-4.81461 0.411473,-0.56037 1.00839,-1.39136 1.326484,-1.84666 0.318092,-0.45529 0.619319,-0.87499 0.669393,-0.93265 0.05007,-0.0577 0.226782,0.11249 0.392688,0.37811 0.165906,0.26561 0.662433,0.95082 1.103394,1.52265 2.229992,2.89188 2.671279,4.2021 1.771611,5.26005 -0.674494,0.79318 -1.802277,0.82198 -2.566723,0.0656 -0.280906,-0.27796 -0.44858,-0.37321 -0.44858,-0.25485 0,0.46078 0.311022,1.59058 0.593029,2.15417 0.16936,0.33847 0.307927,0.63514 0.307927,0.65926 0,0.0242 -0.493104,0.0624 -1.095783,0.085 -0.698458,0.0263 -1.074447,-0.005 -1.036939,-0.0862 z"
       id="path2762"
       transform="translate(-1.0416666e-6,-1.1083333e-5)" />
    <path
       style="display:inline;fill:#19100a;stroke-width:1"
       d="m 67.677572,465.66051 c 0.28424,-0.5513 0.629411,-1.79216 0.628487,-2.25936 l -6.43e-4,-0.32347 -0.288955,0.33823 c -0.38973,0.4562 -0.749524,0.61694 -1.380901,0.61694 -1.395986,0 -2.006735,-1.1484 -1.461087,-2.7473 0.248315,-0.72762 0.580194,-1.27733 1.570719,-2.60163 0.392933,-0.52534 0.953216,-1.31347 1.245073,-1.7514 l 0.530652,-0.79622 0.6692,0.98725 c 0.368061,0.543 1.013146,1.44575 1.433525,2.00611 1.369298,1.82528 1.781108,3.03365 1.34428,3.94452 -0.563239,1.17447 -2.138129,1.30984 -3.049633,0.26213 -0.218313,-0.25094 -0.222586,-0.24158 -0.14367,0.31447 0.10429,0.73483 0.395038,1.61504 0.694121,2.10136 l 0.234963,0.38207 H 68.56852 67.433337 l 0.24423,-0.4737 z"
       id="path2760"
       transform="translate(-1.0416666e-6,-1.1083333e-5)" />
    <path
       style="display:inline;fill:#19100a;stroke-width:1"
       d="m 89.547606,485.04649 c 0.0022,-0.035 0.09102,-0.17748 0.197263,-0.31657 0.252576,-0.33067 0.699599,-1.77073 0.699599,-2.25372 v -0.37843 l -0.330044,0.38812 c -0.514352,0.60485 -1.320961,0.72332 -2.273688,0.33393 -0.360647,-0.1474 -0.742675,-0.88151 -0.742675,-1.42714 0,-0.78902 0.329603,-1.53801 1.222344,-2.77764 0.453999,-0.63041 1.160379,-1.62386 1.569733,-2.20767 l 0.74428,-1.06148 0.235202,0.29735 c 1.038098,1.31237 2.740206,3.70249 3.005198,4.21993 0.178435,0.34843 0.353915,0.92651 0.389955,1.28463 0.05452,0.54185 0.01421,0.72564 -0.240226,1.09502 -0.389847,0.56598 -0.787648,0.76176 -1.552558,0.76411 -0.521133,0.002 -0.685787,-0.065 -1.119559,-0.45275 l -0.50857,-0.45464 0.06935,0.48648 c 0.09871,0.69241 0.424638,1.69541 0.696086,2.14209 l 0.232182,0.38206 h -1.148983 c -0.631939,0 -1.14714,-0.0287 -1.144888,-0.0637 z"
       id="path2754"
       transform="translate(-1.0416666e-6,-1.1083333e-5)" />
    <path
       style="display:inline;fill:#19100a;stroke-width:1"
       d="m 67.694562,484.70404 c 0.286836,-0.48104 0.608394,-1.59691 0.610609,-2.11894 l 0.0015,-0.36002 -0.391132,0.38702 c -0.685196,0.678 -1.990917,0.64942 -2.551573,-0.0559 -0.708361,-0.89106 -0.375295,-2.25732 1.007359,-4.13223 0.490722,-0.66543 1.159558,-1.59672 1.486302,-2.06952 0.326745,-0.47281 0.634774,-0.85965 0.68451,-0.85965 0.04973,0 0.273038,0.27222 0.496225,0.60493 0.223186,0.33272 0.845405,1.17804 1.382708,1.8785 1.159753,1.51191 1.638886,2.41549 1.710225,3.22526 0.09439,1.07135 -0.692218,1.93328 -1.763288,1.93216 -0.487079,-5.1e-4 -1.251432,-0.39102 -1.371534,-0.70071 -0.0406,-0.10467 -0.116879,-0.19031 -0.169522,-0.19031 -0.2353,0 0.30005,2.021 0.692238,2.61326 0.169962,0.25666 0.152972,0.26134 -0.949597,0.26134 h -1.122654 z"
       id="path2752"
       transform="translate(-1.0416666e-6,-1.1083333e-5)" />
    <path
       style="display:inline;fill:#19100a;stroke-width:1"
       d="m 90.480411,503.99062 c -0.07375,-0.1576 -0.747893,-1.11101 -1.498102,-2.11869 -1.383344,-1.85808 -1.884248,-2.82979 -1.884248,-3.65525 0,-0.83661 0.547438,-1.52877 1.350943,-1.70809 0.600318,-0.13397 1.168148,0.0296 1.649067,0.47497 l 0.380874,0.35274 -0.08544,-0.75529 c -0.04699,-0.41541 -0.246462,-1.08724 -0.443256,-1.49296 l -0.357809,-0.73768 1.001239,0.006 c 0.550683,0.004 1.060943,-0.0301 1.133912,-0.0747 0.192198,-0.11753 0.173154,-0.0532 -0.249444,0.84293 -0.210164,0.44565 -0.422097,1.15413 -0.470961,1.57441 l -0.08885,0.76413 0.351739,-0.41161 c 0.697229,-0.8159 1.814004,-0.83059 2.58528,-0.034 0.282204,0.29146 0.377188,0.52948 0.421292,1.05574 0.07964,0.95021 -0.258494,1.65526 -1.803738,3.76101 -0.703045,0.95806 -1.372662,1.89953 -1.488038,2.09216 -0.254472,0.42484 -0.33094,0.43449 -0.504457,0.0637 z"
       id="path2746"
       transform="translate(-1.0416666e-6,-1.1083333e-5)" />
    <path
       style="display:inline;fill:#19100a;stroke-width:1"
       d="m 68.388518,504.08528 c -0.04094,-0.10556 -0.647518,-0.95088 -1.347961,-1.87849 -0.700443,-0.92762 -1.395769,-1.92522 -1.545169,-2.21691 -0.823415,-1.60758 -0.503952,-2.99672 0.776452,-3.37631 0.632176,-0.18742 1.436794,0.0329 1.728412,0.47331 0.114039,0.17222 0.249833,0.31312 0.301764,0.31312 0.186332,0 -0.141239,-1.47973 -0.493377,-2.22872 l -0.359256,-0.76413 h 1.122752 1.122753 l -0.263247,0.50942 c -0.316114,0.61173 -0.606478,1.64143 -0.608583,2.15819 l -0.0015,0.37521 0.434911,-0.4171 c 1.121463,-1.07554 2.909627,-0.3249 2.911015,1.22201 7.72e-4,0.86898 -0.442967,1.78994 -1.613093,3.34785 -0.60502,0.80553 -1.277414,1.73681 -1.494206,2.06953 -0.417669,0.641 -0.551345,0.72321 -0.671639,0.41302 z"
       id="path2744"
       transform="translate(-1.0416666e-6,-1.1083333e-5)" />
  </g>
  <g
     inkscape:groupmode="layer"
     id="layer6"
     inkscape:label="OuterSuit"
     style="display:inline"
     transform="translate(94.217781,-340.71922)">
    <path
       style="display:inline;fill:#19100a;stroke-width:1"
       d="m 54.277531,471.23861 c 0,-0.0446 0.169618,-0.4136 0.376929,-0.81997 0.405339,-0.79453 0.705813,-1.84177 0.83785,-2.92014 l 0.08245,-0.67341 -0.616438,0.62885 c -0.648393,0.66145 -1.349644,0.95972 -1.960029,0.8337 -0.181287,-0.0374 -0.458866,-0.094 -0.616845,-0.12557 -0.375822,-0.0753 -1.154616,-0.75736 -1.39929,-1.22554 -0.27871,-0.5333 -0.24875,-1.7024 0.06454,-2.51823 0.348174,-0.90669 0.928661,-1.82313 2.586317,-4.08313 0.752708,-1.02623 1.526645,-2.13278 1.719861,-2.45901 0.193215,-0.32624 0.392298,-0.59008 0.442407,-0.58632 0.05011,0.004 0.36133,0.41925 0.691605,0.92332 0.330273,0.50408 1.24247,1.79657 2.027103,2.87221 1.795901,2.46196 2.238408,3.3371 2.295328,4.53942 0.05066,1.07022 -0.241495,1.68585 -1.075208,2.26565 -0.444751,0.30931 -0.649661,0.36533 -1.324334,0.36214 -0.949436,-0.004 -1.524044,-0.29949 -1.968116,-1.01043 -0.226896,-0.36324 -0.304491,-0.41885 -0.338777,-0.24273 -0.09957,0.51145 0.384899,2.3554 0.871654,3.31757 l 0.50533,0.99891 -0.332805,-0.0826 c -0.433829,-0.10774 -2.092562,-0.10649 -2.529035,0.002 -0.187269,0.0465 -0.340489,0.048 -0.340489,0.003 z"
       id="path2758"
       transform="translate(-1.0416666e-6,-1.1083333e-5)" />
    <path
       style="display:inline;fill:#19100a;stroke-width:1"
       d="m 102.65932,502.08093 c -0.3744,-0.57752 -1.22042,-1.76671 -1.88006,-2.64263 -2.383068,-3.16446 -2.924117,-5.06359 -1.802645,-6.32745 0.769478,-0.86718 2.001605,-1.16657 2.919385,-0.70938 0.24584,0.12247 0.6368,0.4707 0.86878,0.77383 0.23197,0.30315 0.42134,0.50373 0.4208,0.44575 -0.008,-0.83397 -0.72678,-3.3743 -1.11036,-3.92258 -0.0967,-0.13817 -0.17572,-0.28144 -0.17569,-0.31839 3e-5,-0.0369 0.69506,-0.0672 1.54451,-0.0672 0.84945,0 1.52737,0.0287 1.50648,0.0637 -0.61579,1.03286 -1.24913,3.04349 -1.24913,3.96558 0,0.24438 0.0648,0.20809 0.47484,-0.26591 0.75971,-0.87824 1.79391,-1.13396 2.83881,-0.70196 1.0464,0.43262 1.49862,1.21889 1.42658,2.48039 -0.0632,1.10714 -0.62937,2.25631 -2.11174,4.28645 -0.60498,0.82852 -1.48732,2.06313 -1.96076,2.74358 -0.47343,0.68045 -0.89866,1.23922 -0.94493,1.24172 -0.0463,0.002 -0.39047,-0.46798 -0.76487,-1.0455 z"
       id="path2748"
       transform="translate(-1.0416666e-6,-1.1083333e-5)" />
  </g>
  <g
     inkscape:groupmode="layer"
     id="layer3"
     inkscape:label="CardName"
     style="display:inline"
     transform="translate(94.217781,-340.71922)">
    <path
       id="path2552"
       style="display:inline;fill:#19100a;stroke-width:1"
       d="m 103.29196,506.34296 c -0.17594,0.003 -0.35323,0.0159 -0.5321,0.0399 -3.839686,0.51565 -5.516767,4.88262 -2.877806,7.49384 1.017286,1.00659 2.311886,1.44976 3.797446,1.29916 1.05146,-0.1066 1.8644,-0.45173 2.51488,-1.067 l 0.49857,-0.47105 -0.0875,0.80737 c -0.28807,2.65327 -1.47216,4.09985 -3.34967,4.09283 -1.26508,-0.005 -2.0341,-0.50388 -2.83853,-1.84328 -0.1204,-0.20047 -0.18986,-0.18906 -0.868842,0.14044 -0.405861,0.19696 -0.737913,0.42207 -0.737913,0.50059 0,0.27613 0.800552,1.33375 1.439685,1.90235 0.42952,0.38212 0.91131,0.6613 1.43708,0.83173 1.03597,0.33582 2.58382,0.28346 3.50469,-0.11867 1.1977,-0.52303 2.15954,-1.68589 2.70865,-3.27406 0.29627,-0.85689 0.35503,-1.27168 0.40588,-2.86829 0.0722,-2.26781 -0.13559,-3.38831 -0.90027,-4.85149 -0.8756,-1.67543 -2.41359,-2.63914 -4.11429,-2.61437 z m -0.11365,1.8583 c 0.71928,0.003 1.45296,0.26524 1.98278,0.76281 1.33773,1.25629 1.05524,3.37053 -0.55985,4.18869 -0.64611,0.32736 -1.57064,0.46582 -2.05924,0.30886 -2.49188,-0.80048 -2.915973,-3.56736 -0.74996,-4.89243 0.40867,-0.25 0.89413,-0.36978 1.38627,-0.36793 z"
       transform="translate(-1.0416666e-6,-1.1083333e-5)" />
    <path
       id="path2764"
       style="display:inline;fill:#19100a;stroke-width:1"
       d="m 55.950827,440.28095 c -1.396039,0 -1.518861,0.0212 -2.160845,0.37311 -1.727773,0.94714 -2.702562,2.86459 -2.922323,5.74747 -0.10886,1.42803 0.170616,3.37203 0.660404,4.59394 0.467826,1.16713 1.858416,2.59656 2.820197,2.89939 0.433601,0.13657 1.00969,0.18959 1.802625,0.16583 1.426218,-0.0428 2.262179,-0.39669 3.253836,-1.37793 0.881189,-0.87192 1.229105,-1.74723 1.23387,-3.1046 0.0047,-1.35257 -0.332479,-2.11193 -1.353278,-3.04708 -1.059985,-0.97105 -1.8827,-1.25957 -3.398904,-1.19188 -1.312103,0.0586 -2.032988,0.31485 -2.82596,1.00377 l -0.49648,0.43116 0.0927,-0.80893 c 0.201546,-1.76272 0.941327,-3.23724 1.856041,-3.69899 1.461278,-0.73766 3.128362,-0.32168 3.973419,0.99082 0.198315,0.30801 0.394951,0.61306 0.437301,0.67834 0.08512,0.13122 1.531863,-0.52311 1.531863,-0.69285 0,-0.29982 -0.614821,-1.2283 -1.165262,-1.75881 -1.038121,-1.00053 -1.599827,-1.20276 -3.3392,-1.20276 z m 0.121501,6.68906 c 2.931002,0.0115 3.888079,3.65762 1.30981,4.99037 -1.478107,0.76406 -3.246838,0.19429 -3.950375,-1.27273 -0.328326,-0.68462 -0.207866,-1.89686 0.254,-2.55633 0.493568,-0.70474 1.439202,-1.16532 2.386565,-1.16131 z"
       transform="translate(-1.0416666e-6,-1.1083333e-5)" />
  </g>
</svg>
