<?xml version="1.0" encoding="UTF-8" standalone="no"?>
<svg
   width="63.500004mm"
   height="88.899895mm"
   viewBox="142.0878 95.116776 63.500012 88.899887"
   version="1.1"
   id="svg10"
   sodipodi:docname="7C.svg"
   inkscape:version="1.1.1 (1:1.1+202109281949+c3084ef5ed)"
   inkscape:export-filename="/home/doug/k40/52Cards/IndividualColorCards/7C.png"
   inkscape:export-xdpi="300"
   inkscape:export-ydpi="300"
   xmlns:inkscape="http://www.inkscape.org/namespaces/inkscape"
   xmlns:sodipodi="http://sodipodi.sourceforge.net/DTD/sodipodi-0.dtd"
   xmlns="http://www.w3.org/2000/svg"
   xmlns:svg="http://www.w3.org/2000/svg">
  <defs
     id="defs14">
    <marker
       style="overflow:visible"
       id="marker2995"
       refX="0"
       refY="0"
       orient="auto"
       inkscape:stockid="Arrow1Lstart"
       inkscape:isstock="true">
      <path
         transform="matrix(0.8,0,0,0.8,10,0)"
         style="fill:#000000;fill-opacity:1;fill-rule:evenodd;stroke:#000000;stroke-width:1pt;stroke-opacity:1"
         d="M 0,0 5,-5 -12.5,0 5,5 Z"
         id="path2993" />
    </marker>
    <marker
       style="overflow:visible"
       id="marker2985"
       refX="0"
       refY="0"
       orient="auto"
       inkscape:stockid="Arrow1Lstart"
       inkscape:isstock="true">
      <path
         transform="matrix(0.8,0,0,0.8,10,0)"
         style="fill:#000000;fill-opacity:1;fill-rule:evenodd;stroke:#000000;stroke-width:1pt;stroke-opacity:1"
         d="M 0,0 5,-5 -12.5,0 5,5 Z"
         id="path2983" />
    </marker>
    <marker
       style="overflow:visible"
       id="marker2791"
       refX="0"
       refY="0"
       orient="auto"
       inkscape:stockid="Arrow1Lstart"
       inkscape:isstock="true">
      <path
         transform="matrix(0.8,0,0,0.8,10,0)"
         style="fill:#000000;fill-opacity:1;fill-rule:evenodd;stroke:#000000;stroke-width:1pt;stroke-opacity:1"
         d="M 0,0 5,-5 -12.5,0 5,5 Z"
         id="path2789" />
    </marker>
    <marker
       style="overflow:visible"
       id="marker2781"
       refX="0"
       refY="0"
       orient="auto"
       inkscape:stockid="Arrow1Lstart"
       inkscape:isstock="true">
      <path
         transform="matrix(0.8,0,0,0.8,10,0)"
         style="fill:#000000;fill-opacity:1;fill-rule:evenodd;stroke:#000000;stroke-width:1pt;stroke-opacity:1"
         d="M 0,0 5,-5 -12.5,0 5,5 Z"
         id="path2779" />
    </marker>
    <marker
       style="overflow:visible"
       id="marker2417"
       refX="0"
       refY="0"
       orient="auto"
       inkscape:stockid="Arrow1Lstart"
       inkscape:isstock="true">
      <path
         transform="matrix(0.8,0,0,0.8,10,0)"
         style="fill:#000000;fill-opacity:1;fill-rule:evenodd;stroke:#000000;stroke-width:1pt;stroke-opacity:1"
         d="M 0,0 5,-5 -12.5,0 5,5 Z"
         id="path2415" />
    </marker>
    <marker
       style="overflow:visible"
       id="marker2383"
       refX="0"
       refY="0"
       orient="auto"
       inkscape:stockid="Arrow1Lstart"
       inkscape:isstock="true">
      <path
         transform="matrix(0.8,0,0,0.8,10,0)"
         style="fill:#000000;fill-opacity:1;fill-rule:evenodd;stroke:#000000;stroke-width:1pt;stroke-opacity:1"
         d="M 0,0 5,-5 -12.5,0 5,5 Z"
         id="path2381" />
    </marker>
    <marker
       style="overflow:visible"
       id="marker2355"
       refX="0"
       refY="0"
       orient="auto"
       inkscape:stockid="Arrow1Lstart"
       inkscape:isstock="true">
      <path
         transform="matrix(0.8,0,0,0.8,10,0)"
         style="fill:#000000;fill-opacity:1;fill-rule:evenodd;stroke:#000000;stroke-width:1pt;stroke-opacity:1"
         d="M 0,0 5,-5 -12.5,0 5,5 Z"
         id="path2353" />
    </marker>
    <marker
       style="overflow:visible"
       id="Arrow1Lstart"
       refX="0"
       refY="0"
       orient="auto"
       inkscape:stockid="Arrow1Lstart"
       inkscape:isstock="true">
      <path
         transform="matrix(0.8,0,0,0.8,10,0)"
         style="fill:#000000;fill-opacity:1;fill-rule:evenodd;stroke:#000000;stroke-width:1pt;stroke-opacity:1"
         d="M 0,0 5,-5 -12.5,0 5,5 Z"
         id="path2071" />
    </marker>
  </defs>
  <sodipodi:namedview
     id="namedview12"
     pagecolor="#ffffff"
     bordercolor="#666666"
     borderopacity="1.0"
     inkscape:pageshadow="2"
     inkscape:pageopacity="0.0"
     inkscape:pagecheckerboard="0"
     inkscape:document-units="mm"
     showgrid="false"
     showborder="false"
     fit-margin-top="0"
     fit-margin-left="0"
     fit-margin-right="0"
     fit-margin-bottom="0"
     inkscape:zoom="1.4874999"
     inkscape:cx="120.00001"
     inkscape:cy="167.7311"
     inkscape:window-width="1366"
     inkscape:window-height="712"
     inkscape:window-x="0"
     inkscape:window-y="0"
     inkscape:window-maximized="1"
     inkscape:current-layer="layer5" />
  <g
     inkscape:groupmode="layer"
     id="layer1"
     inkscape:label="CardOutline"
     style="display:inline"
     transform="translate(94.217781,-340.71922)">
    <path
       id="path4-3"
       style="display:inline;fill:none;fill-rule:evenodd;stroke:#000000;stroke-width:0.25;stroke-miterlimit:4;stroke-dasharray:none;stroke-opacity:1"
       d="m 50.564743,435.96104 -0.534158,0.31687 c -0.688621,0.40844 -1.158412,0.85449 -1.590112,1.51001 l -0.346181,0.5258 -0.06384,25.43159 c -0.03506,13.98732 -0.046,32.74824 -0.02422,41.69094 0.03916,16.06607 0.04297,16.26663 0.30127,16.87005 h 2.54e-4 c 0.321831,0.75178 1.375871,1.69211 2.308962,2.06009 0.662802,0.26139 0.718825,0.26193 29.335815,0.23047 27.968057,-0.0307 28.683467,-0.0377 29.150357,-0.27706 0.72044,-0.36932 1.35524,-0.98173 1.76901,-1.70664 l 0.37116,-0.65029 9.8e-4,-41.53137 9.8e-4,-41.53137 -0.30833,-0.61121 c -0.3634,-0.72062 -1.20695,-1.59056 -1.92217,-1.98245 l -0.50968,-0.27931 -28.969947,-0.0331 z m 0.134234,0.49272 57.679013,0.0666 0.38933,0.21242 0.11632,0.0681 0.12061,0.0774 0.13902,0.0985 0.11304,0.0864 0.12364,0.1017 0.13751,0.12124 0.11153,0.10621 0.13145,0.13177 0.10774,0.11773 0.12692,0.13477 0.0918,0.11748 0.10345,0.13201 0.0951,0.13352 0.0785,0.11974 0.0739,0.12124 0.0603,0.11222 0.25661,0.50651 -0.003,82.81198 -0.30631,0.53682 -0.13726,0.22444 -0.18268,0.24876 -0.16754,0.20014 -0.19757,0.20466 -0.19327,0.17285 -0.23542,0.18336 -0.22481,0.1503 -0.2233,0.12574 -0.0212,0.0108 -0.0149,0.006 -0.0394,0.012 -0.027,0.006 -0.0507,0.01 -0.0277,0.004 -0.0606,0.008 -0.0573,0.008 -0.0679,0.006 -0.083,0.0105 -0.0868,0.004 -0.0913,0.006 -0.10698,0.007 -0.25056,0.012 -0.3048,0.0108 -0.3545,0.0105 -0.41809,0.009 -0.47538,0.009 -0.54929,0.008 -0.96108,0.0105 -1.14073,0.0108 -3.46459,0.0165 -34.84847,0.0471 -6.84314,-0.003 -1.74276,-0.004 -1.260078,-0.006 -1.065289,-0.008 -0.60506,-0.006 -0.534158,-0.008 -0.467798,-0.009 -0.401438,-0.009 -0.339623,-0.009 -0.289659,-0.012 -0.126666,-0.006 -0.11632,-0.006 -0.106979,-0.006 -0.08302,-0.006 -0.08302,-0.008 -0.07998,-0.006 -0.0545,-0.007 -0.10093,-0.0135 -0.09967,-0.0183 -0.03911,-0.009 -0.04844,-0.0138 -0.0376,-0.0135 -0.04692,-0.0183 -0.167539,-0.0726 -0.143315,-0.0699 -0.177886,-0.0985 -0.140542,-0.0864 -0.159971,-0.10773 -0.155176,-0.11372 -0.152651,-0.12124 -0.161231,-0.13803 -0.123887,-0.11372 -0.144835,-0.14729 -0.11026,-0.11974 -0.119098,-0.14253 -0.08604,-0.11374 -0.09361,-0.13951 -0.06485,-0.11098 -0.05601,-0.11974 -0.027,-0.0669 -0.03481,-0.10621 -0.0061,-0.027 -0.01211,-0.0669 -0.01338,-0.0939 -0.01514,-0.12124 -0.0044,-0.0531 -0.01362,-0.15632 -0.0099,-0.16206 -0.01133,-0.21243 -0.01059,-0.23947 -0.0088,-0.27305 -0.0091,-0.31236 -0.0076,-0.3532 -0.01059,-0.61573 -0.0091,-0.72319 -0.0106,-1.15404 -0.0106,-1.77404 -0.01641,-4.27149 -0.01968,-8.14897 -0.0061,-8.546 0.0015,-6.72963 0.0044,-7.16476 0.0091,-7.2692 0.01943,-9.71082 0.0651,-25.28355 0.257868,-0.39253 0.152402,-0.21993 0.166025,-0.21393 0.147862,-0.16834 0.169052,-0.17133 0.185708,-0.16508 0.168798,-0.13202 0.229612,-0.16082 0.227845,-0.14253 z"
       inkscape:export-filename="/home/doug/k40/52Cards/IndividualColorCards/2D.png"
       inkscape:export-xdpi="300"
       inkscape:export-ydpi="300" />
  </g>
  <g
     inkscape:groupmode="layer"
     id="layer2"
     inkscape:label="InnerRectangle"
     style="display:inline"
     transform="translate(94.217781,-340.71922)">
    <path
       id="path2-6"
       style="display:inline;fill:none;fill-rule:evenodd;stroke:#4c71a5;stroke-width:0.262609;stroke-opacity:1"
       d="m 63.13524,452.67467 0.0441,14.05596 c 0.0243,7.7307 0.0504,20.15551 0.0578,27.61093 l 0.0134,13.55547 16.409043,-0.0521 16.40903,-0.0519 0.0305,-24.32539 c 0.0169,-13.37898 -0.004,-25.78048 -0.0462,-27.55907 l -0.077,-3.23394 h -16.42035 z m 16.503153,0.25626 h 16.11155 l 0.005,0.73622 c 0.003,0.40503 0.0367,12.68075 0.0757,27.27927 l 0.0709,26.54279 -3.16634,0.004 c -1.74158,0.002 -8.99902,0.0153 -16.12745,0.0285 -7.12842,0.0133 -12.991523,-0.007 -13.029223,-0.0446 -0.0728,-0.0731 -0.16665,-54.20072 -0.0944,-54.4185 0.028,-0.0844 5.532343,-0.128 16.154193,-0.128 z"
       inkscape:export-filename="/home/doug/k40/52Cards/IndividualColorCards/2D.png"
       inkscape:export-xdpi="300"
       inkscape:export-ydpi="300" />
  </g>
  <g
     inkscape:groupmode="layer"
     id="layer5"
     inkscape:label="InnerSuit"
     style="display:inline"
     transform="translate(94.217781,-340.71922)">
    <path
       style="fill:#17100a;stroke-width:1"
       d="m 80.219971,452.95911 c 0.750887,-0.0224 1.979613,-0.0224 2.7305,0 0.750888,0.0224 0.136525,0.0408 -1.36525,0.0408 -1.501775,0 -2.116138,-0.0184 -1.36525,-0.0408 z"
       id="path2776" />
    <path
       style="fill:#17100a;stroke-width:1"
       d="m 73.862474,452.95904 c 0.886465,-0.0218 2.372365,-0.0219 3.302,-1.3e-4 0.929636,0.0217 0.204347,0.0396 -1.611753,0.0396 -1.816101,7e-5 -2.576711,-0.0177 -1.690247,-0.0395 z"
       id="path2774" />
    <path
       style="display:inline;fill:#17100a;stroke-width:1"
       d="m 88.316221,465.0209 c 0,-0.0202 0.10905,-0.25061 0.242334,-0.51192 0.445088,-0.87262 0.919133,-2.94444 0.673704,-2.94444 -0.06726,0 -0.154057,0.15887 -0.192885,0.35305 -0.153367,0.76699 -1.071438,1.33365 -1.951418,1.20447 -0.558678,-0.082 -1.278151,-0.71697 -1.42817,-1.26039 -0.236192,-0.85559 0.146994,-1.76067 0.913187,-2.15696 0.30059,-0.15547 0.593301,-0.18622 1.217554,-0.12791 l 0.821829,0.0767 -0.330488,-0.34651 c -0.636637,-0.66749 -0.777643,-1.5789 -0.352235,-2.27673 0.519615,-0.85235 1.395663,-1.11134 2.342386,-0.69248 0.483755,0.21403 0.641442,0.36988 0.848964,0.83911 0.315762,0.71397 0.236083,1.26245 -0.288652,1.98697 l -0.37639,0.51969 0.42239,-0.094 c 1.50545,-0.33495 2.638945,0.55873 2.481435,1.95642 -0.05327,0.47274 -0.16126,0.67005 -0.581072,1.06172 -0.448278,0.41823 -0.595084,0.48101 -1.123805,0.4806 -0.800746,-6.4e-4 -1.378728,-0.35928 -1.692263,-1.0501 l -0.243827,-0.53723 -0.0013,0.44458 c -0.0017,0.58076 0.270327,1.58663 0.658176,2.43396 l 0.310403,0.67814 H 89.50116 c -0.651714,0 -1.184936,-0.0166 -1.184936,-0.0368 z"
       id="path2770"
       transform="translate(-1.0416666e-6,-1.1083333e-5)" />
    <path
       style="display:inline;fill:#17100a;stroke-width:1"
       d="m 68.542208,465.02107 c 0.5159,-0.9934 0.978138,-2.51808 0.970901,-3.20248 -0.0028,-0.26668 -0.0483,-0.22721 -0.283873,0.24638 -0.342762,0.68909 -0.775105,1.02068 -1.448576,1.11103 -1.081906,0.14515 -1.943439,-0.66929 -1.943439,-1.83719 0,-0.54859 0.06273,-0.72606 0.387348,-1.09585 0.594352,-0.67706 1.416187,-0.8562 2.343151,-0.51074 0.244431,0.0911 0.243793,0.0831 -0.0169,-0.21148 -0.14899,-0.16839 -0.363302,-0.48909 -0.47625,-0.71267 -0.603531,-1.19475 0.234831,-2.57856 1.562192,-2.57856 1.661611,0 2.419528,1.74693 1.32327,3.05001 -0.394229,0.46861 -0.34703,0.55526 0.198798,0.36494 1.160835,-0.40475 2.424435,0.49668 2.424435,1.72954 0,1.32655 -1.34722,2.18887 -2.563007,1.64052 -0.416031,-0.18765 -0.582784,-0.36688 -0.813827,-0.87475 l -0.290583,-0.63874 -0.0073,0.44965 c -0.01,0.61269 0.305652,1.77447 0.686046,2.52528 l 0.314478,0.62072 -1.206895,0.007 c -0.663793,0.004 -1.185774,-0.0333 -1.159959,-0.083 z"
       id="path2768"
       transform="translate(-1.0416666e-6,-1.1083333e-5)" />
    <path
       style="display:inline;fill:#17100a;stroke-width:1"
       d="m 78.448137,474.90212 c 0.479145,-0.78944 0.984263,-2.44378 0.968057,-3.17055 l -0.01002,-0.44965 -0.192184,0.54323 c -0.376726,1.06488 -1.686955,1.50993 -2.665102,0.90529 -0.5426,-0.33541 -0.805795,-0.83798 -0.805187,-1.53748 0.0011,-1.37287 1.338486,-2.17482 2.770794,-1.6616 0.162833,0.0583 0.147124,0.004 -0.06646,-0.23148 -0.357427,-0.39344 -0.673407,-1.14831 -0.670723,-1.60233 0.0063,-1.07414 1.248298,-2.01249 2.2617,-1.70882 1.398637,0.41913 1.806289,2.03285 0.812621,3.21682 -0.291182,0.34694 -0.305724,0.39588 -0.09191,0.3093 0.549047,-0.22233 1.268141,-0.21664 1.711969,0.0135 1.319578,0.68439 1.375999,2.64756 0.09358,3.25623 -1.129098,0.53589 -2.07415,0.10665 -2.609303,-1.18515 l -0.131557,-0.31756 -0.0086,0.38614 c -0.01163,0.52273 0.31856,1.75615 0.684991,2.55871 l 0.300617,0.65842 -1.195918,0.0402 c -0.657755,0.0221 -1.178571,0.0116 -1.157369,-0.0233 z"
       id="path2758"
       transform="translate(-1.0416666e-6,-1.1083333e-5)" />
    <path
       style="display:inline;fill:#17100a;stroke-width:1"
       d="m 88.370522,484.61949 c 0.62442,-1.3732 1.165281,-3.36615 0.913532,-3.36615 -0.04449,0 -0.171918,0.22756 -0.283175,0.50566 -0.51311,1.28264 -2.31375,1.38396 -3.110626,0.17503 -0.299134,-0.45381 -0.31388,-1.34381 -0.03022,-1.82409 0.424453,-0.71868 1.553667,-1.08102 2.384421,-0.76511 0.387726,0.14744 0.423111,0.004 0.07633,-0.31029 -0.13719,-0.12417 -0.344038,-0.47353 -0.459662,-0.77635 -0.246959,-0.64678 -0.170958,-1.26633 0.21565,-1.75792 0.968601,-1.23161 2.948707,-0.76031 3.235772,0.77016 0.09572,0.51034 -0.207297,1.41962 -0.587888,1.76411 -0.320269,0.2899 -0.322635,0.48858 -0.0038,0.3179 0.370577,-0.19836 1.247698,-0.15796 1.750399,0.0806 0.599464,0.28452 0.923885,0.84701 0.924475,1.60289 3.81e-4,0.53266 -0.06155,0.67479 -0.498412,1.14322 -0.475786,0.51017 -0.533119,0.53493 -1.23825,0.53493 -0.880267,0 -1.305415,-0.25693 -1.681517,-1.01619 -0.194646,-0.39295 -0.253121,-0.44474 -0.258017,-0.22855 -0.0118,0.52126 0.276971,1.62258 0.632261,2.41128 l 0.353828,0.78547 -1.196439,0.0402 c -0.765584,0.0257 -1.175639,-0.006 -1.138678,-0.0868 z"
       id="path2750"
       transform="translate(-1.0416666e-6,-1.1083333e-5)" />
    <path
       style="display:inline;fill:#17100a;stroke-width:1"
       d="m 68.975021,483.72688 c 0.225129,-0.5608 0.442737,-1.36105 0.483573,-1.77834 l 0.07425,-0.75871 -0.292061,0.56395 c -0.358026,0.69131 -0.793253,1.02339 -1.446056,1.10332 -1.003338,0.12286 -1.957505,-0.75174 -1.957505,-1.7943 0,-0.67372 0.40081,-1.28705 1.065199,-1.63002 0.430629,-0.22229 0.576645,-0.23764 1.143,-0.12013 0.357115,0.0741 0.666754,0.11872 0.688085,0.0991 0.02133,-0.0195 -0.104651,-0.19036 -0.279959,-0.37956 -0.962044,-1.03826 -0.647169,-2.57231 0.62796,-3.05939 0.488648,-0.18664 0.651357,-0.19612 1.093416,-0.0636 0.652758,0.19561 1.061626,0.5994 1.252645,1.23709 0.188024,0.62769 0.0054,1.38399 -0.45374,1.87955 -0.17857,0.19272 -0.306718,0.36835 -0.284774,0.39031 0.02195,0.0219 0.277413,-0.0235 0.567705,-0.101 1.151865,-0.30751 2.327463,0.51648 2.327463,1.63135 0,1.11899 -0.723718,1.87999 -1.787895,1.87999 -0.739755,0 -1.484017,-0.50176 -1.59928,-1.07818 -0.04105,-0.20528 -0.1244,-0.404 -0.185228,-0.44161 -0.310642,-0.19202 0.103619,1.7615 0.58533,2.76023 0.17604,0.36499 0.320073,0.6672 0.320073,0.67159 0,0.004 -0.529093,0.008 -1.175763,0.008 h -1.175762 l 0.409326,-1.01964 z"
       id="path2748"
       transform="translate(-1.0416666e-6,-1.1083333e-5)" />
    <path
       style="display:inline;fill:#17100a;stroke-width:1"
       d="m 88.658477,504.00817 c -1.022625,-0.6744 -1.200673,-1.97095 -0.401165,-2.92129 l 0.315412,-0.37492 -0.781117,0.0708 c -1.22658,0.11125 -1.986138,-0.44747 -2.110675,-1.55258 -0.23453,-2.08115 2.670058,-2.78191 3.419806,-0.82508 0.213226,0.55653 0.21781,0.55982 0.224577,0.16154 0.01087,-0.63991 -0.247136,-1.68462 -0.621114,-2.51498 l -0.343258,-0.76214 h 1.184139 c 0.651276,0 1.184139,0.0166 1.184139,0.0368 0,0.0202 -0.120053,0.27219 -0.266785,0.55986 -0.483906,0.94872 -0.953624,3.03785 -0.639347,2.84358 0.07927,-0.049 0.144132,-0.20444 0.144132,-0.34542 0,-0.36868 0.636843,-0.95242 1.212505,-1.11141 0.689865,-0.19051 1.337876,0.01 1.823894,0.56325 0.331673,0.37784 0.392527,0.55005 0.392126,1.1097 -8.89e-4,1.31003 -0.739513,1.94652 -2.129233,1.83495 l -0.812416,-0.0652 0.319983,0.33553 c 0.888963,0.93218 0.736822,2.29 -0.329448,2.94023 -0.520151,0.3172 -1.319206,0.32469 -1.786155,0.0168 z"
       id="path2742"
       transform="translate(-1.0416666e-6,-1.1083333e-5)" />
    <path
       style="display:inline;fill:#17100a;stroke-width:1"
       d="m 69.215969,504.24452 c -1.330076,-0.41479 -1.681434,-2.07519 -0.669254,-3.16268 0.306503,-0.32931 0.341664,-0.40973 0.148005,-0.33852 -0.956711,0.35183 -1.925936,0.15018 -2.425256,-0.50459 -0.672519,-0.88188 -0.475364,-2.0778 0.443787,-2.69196 0.898507,-0.60036 2.180119,-0.17363 2.575133,0.85742 l 0.218024,0.56907 0.0042,-0.57161 c 0.0035,-0.47654 -0.414783,-1.93969 -0.80798,-2.82629 -0.08985,-0.2026 0.0033,-0.2223 1.051015,-0.2223 h 1.149598 l -0.294617,0.66688 c -0.36219,0.81984 -0.753026,2.38757 -0.676346,2.71299 0.05416,0.22985 0.06057,0.22925 0.146753,-0.0137 0.461649,-1.30138 1.535176,-1.8033 2.618169,-1.22411 1.625468,0.8693 0.981427,3.38054 -0.867566,3.3828 -0.327204,3.8e-4 -0.73779,-0.0489 -0.912414,-0.10962 l -0.317501,-0.11035 0.34117,0.3644 c 0.668083,0.71358 0.797441,1.64114 0.32558,2.33458 -0.548047,0.80539 -1.287578,1.12553 -2.050501,0.88761 z"
       id="path2740"
       transform="translate(-1.0416666e-6,-1.1083333e-5)" />
  </g>
  <g
     inkscape:groupmode="layer"
     id="layer6"
     inkscape:label="OuterSuit"
     style="display:inline"
     transform="translate(94.217781,-340.71922)">
    <path
       style="display:inline;fill:#17100a;stroke-width:1"
       d="m 54.692034,468.29684 c 0.490434,-1.08648 0.860591,-2.55024 0.848344,-3.35471 l -0.0098,-0.64656 -0.212407,0.59228 c -0.254881,0.71071 -0.561575,1.0685 -1.191598,1.39012 -1.570298,0.8016 -3.428503,-0.33483 -3.443761,-2.10613 -0.01023,-1.18745 0.656888,-2.0278 1.882952,-2.37191 0.403748,-0.11333 0.664376,-0.10243 1.27,0.0531 0.4191,0.10762 0.782002,0.17628 0.80645,0.15261 0.02445,-0.0237 -0.154126,-0.24168 -0.39683,-0.48443 -0.440381,-0.44047 -0.854121,-1.38614 -0.854121,-1.95223 0,-0.72262 0.688657,-1.76063 1.422443,-2.14406 0.508228,-0.26556 1.731324,-0.22992 2.214097,0.0645 0.726912,0.44334 1.109972,1.09152 1.166102,1.97318 0.05583,0.87702 -0.191175,1.53351 -0.785868,2.08866 -0.441697,0.41233 -0.309222,0.54627 0.320488,0.32406 1.53567,-0.54192 2.985714,0.29778 3.338496,1.93328 0.192431,0.89213 -0.40032,1.98365 -1.336674,2.46143 -0.518787,0.26472 -1.421438,0.32533 -1.935208,0.12996 -0.605737,-0.23034 -1.192314,-0.87222 -1.342601,-1.46918 -0.07916,-0.31445 -0.199166,-0.57172 -0.266674,-0.57172 -0.386108,0 0.628223,3.96529 1.151884,4.50302 0.06463,0.0664 0.117515,0.15211 0.117515,0.19054 0,0.0384 -0.705574,0.0699 -1.567943,0.0699 h -1.567943 z"
       id="path2762"
       transform="translate(-1.0416666e-6,-1.1083333e-5)" />
    <path
       style="display:inline;fill:#17100a;stroke-width:1"
       d="m 103.11172,503.15919 c -0.0699,-0.0195 -0.27976,-0.069 -0.46646,-0.10999 -0.84872,-0.18648 -1.62106,-1.30384 -1.62625,-2.35275 -0.003,-0.6649 0.39201,-1.55217 0.85319,-1.915 0.4338,-0.3413 0.27813,-0.45944 -0.33756,-0.2562 -1.49977,0.49505 -3.137352,-0.50538 -3.281388,-2.00469 -0.112799,-1.17414 0.430319,-2.12635 1.430788,-2.50851 1.14988,-0.43922 2.51383,0.0116 2.89975,0.95857 0.47284,1.16016 0.44652,1.13471 0.45584,0.44089 0.0109,-0.81241 -0.2654,-1.87911 -0.81939,-3.16334 -0.2394,-0.55494 -0.4225,-1.02134 -0.40689,-1.03644 0.0156,-0.0151 0.32982,0.0324 0.69826,0.10552 0.44402,0.0881 0.96858,0.0925 1.55575,0.013 0.48722,-0.066 0.88586,-0.10077 0.88586,-0.0773 0,0.0234 -0.17085,0.38113 -0.37968,0.79488 -0.41889,0.82999 -0.83642,2.27572 -0.92761,3.212 -0.0694,0.71262 0.0988,0.92661 0.22013,0.27997 0.10218,-0.54478 0.74767,-1.30717 1.30335,-1.53939 1.10082,-0.46005 2.47755,-0.0331 3.05139,0.94627 1.17733,2.00935 -0.94574,4.4174 -3.10066,3.51684 -0.25295,-0.10572 -0.48676,-0.16536 -0.51957,-0.13254 -0.0328,0.0328 0.16841,0.31879 0.44714,0.63551 0.56497,0.64197 0.86897,1.50802 0.74572,2.12443 -0.13664,0.68332 -0.68726,1.48452 -1.19494,1.73872 -0.45852,0.22958 -1.23111,0.40084 -1.48677,0.32957 z"
       id="path2744"
       transform="translate(-1.0416666e-6,-1.1083333e-5)" />
  </g>
  <g
     inkscape:groupmode="layer"
     id="layer3"
     inkscape:label="CardName"
     style="display:inline"
     transform="translate(94.217781,-340.71922)">
    <path
       style="display:inline;fill:#17100a;stroke-width:1"
       d="m 53.332317,453.98018 c 0.02592,-0.12521 0.193559,-0.95239 0.372543,-1.83819 0.682761,-3.37902 1.994522,-6.74068 3.545643,-9.08647 0.240784,-0.36414 0.474445,-0.72139 0.519248,-0.79391 0.05514,-0.0892 -0.659645,-0.13182 -2.212036,-0.13182 H 53.26422 v 0.89497 0.89498 l -0.85725,-0.0376 -0.85725,-0.0376 -0.03533,-1.74659 -0.03533,-1.74659 2.130834,-0.0188 c 1.171959,-0.0103 3.116672,-0.0262 4.321584,-0.0352 l 2.19075,-0.0164 v 0.90692 c 0,0.82351 -0.03623,0.95232 -0.393976,1.40072 -1.958064,2.45423 -3.437636,5.91586 -4.347543,10.17157 l -0.293637,1.37337 -0.900932,0.0371 c -0.809423,0.0333 -0.896146,0.014 -0.853815,-0.19053 z"
       id="path2772"
       transform="translate(-1.0416666e-6,-1.1083333e-5)" />
    <path
       style="display:inline;fill:#17100a;stroke-width:1"
       d="m 99.237611,520.27104 c -0.06952,-0.0233 -0.12639,-0.40702 -0.12639,-0.85275 0,-0.79312 0.01604,-0.83153 0.751456,-1.79952 1.773413,-2.33423 3.368703,-6.40963 4.079113,-10.42067 l 0.16311,-0.92093 h 0.86866 c 1.03492,0 0.99514,-0.14684 0.55639,2.0539 -0.70401,3.53124 -1.77399,6.3383 -3.51918,9.23251 -0.2676,0.4438 -0.48655,0.85956 -0.48655,0.92393 0,0.0682 0.91435,0.10254 2.19075,0.0823 l 2.19075,-0.0347 0.0375,-0.85742 0.0375,-0.85741 h 0.8832 0.8832 v 1.71148 1.71147 l -4.19161,0.0351 c -2.30539,0.0193 -4.248488,0.016 -4.318003,-0.007 z"
       id="path2552"
       transform="translate(-1.0416666e-6,-1.1083333e-5)" />
  </g>
</svg>
