<?xml version="1.0" encoding="UTF-8" standalone="no"?>
<svg
   width="63.500004mm"
   height="88.899895mm"
   viewBox="142.0878 95.116776 63.500012 88.899887"
   version="1.1"
   id="svg10"
   sodipodi:docname="7D.svg"
   inkscape:version="1.1.1 (1:1.1+202109281949+c3084ef5ed)"
   inkscape:export-filename="/home/doug/k40/52Cards/IndividualColorCards/7D.png"
   inkscape:export-xdpi="300"
   inkscape:export-ydpi="300"
   xmlns:inkscape="http://www.inkscape.org/namespaces/inkscape"
   xmlns:sodipodi="http://sodipodi.sourceforge.net/DTD/sodipodi-0.dtd"
   xmlns="http://www.w3.org/2000/svg"
   xmlns:svg="http://www.w3.org/2000/svg">
  <defs
     id="defs14">
    <marker
       style="overflow:visible"
       id="marker2995"
       refX="0"
       refY="0"
       orient="auto"
       inkscape:stockid="Arrow1Lstart"
       inkscape:isstock="true">
      <path
         transform="matrix(0.8,0,0,0.8,10,0)"
         style="fill:#000000;fill-opacity:1;fill-rule:evenodd;stroke:#000000;stroke-width:1pt;stroke-opacity:1"
         d="M 0,0 5,-5 -12.5,0 5,5 Z"
         id="path2993" />
    </marker>
    <marker
       style="overflow:visible"
       id="marker2985"
       refX="0"
       refY="0"
       orient="auto"
       inkscape:stockid="Arrow1Lstart"
       inkscape:isstock="true">
      <path
         transform="matrix(0.8,0,0,0.8,10,0)"
         style="fill:#000000;fill-opacity:1;fill-rule:evenodd;stroke:#000000;stroke-width:1pt;stroke-opacity:1"
         d="M 0,0 5,-5 -12.5,0 5,5 Z"
         id="path2983" />
    </marker>
    <marker
       style="overflow:visible"
       id="marker2791"
       refX="0"
       refY="0"
       orient="auto"
       inkscape:stockid="Arrow1Lstart"
       inkscape:isstock="true">
      <path
         transform="matrix(0.8,0,0,0.8,10,0)"
         style="fill:#000000;fill-opacity:1;fill-rule:evenodd;stroke:#000000;stroke-width:1pt;stroke-opacity:1"
         d="M 0,0 5,-5 -12.5,0 5,5 Z"
         id="path2789" />
    </marker>
    <marker
       style="overflow:visible"
       id="marker2781"
       refX="0"
       refY="0"
       orient="auto"
       inkscape:stockid="Arrow1Lstart"
       inkscape:isstock="true">
      <path
         transform="matrix(0.8,0,0,0.8,10,0)"
         style="fill:#000000;fill-opacity:1;fill-rule:evenodd;stroke:#000000;stroke-width:1pt;stroke-opacity:1"
         d="M 0,0 5,-5 -12.5,0 5,5 Z"
         id="path2779" />
    </marker>
    <marker
       style="overflow:visible"
       id="marker2417"
       refX="0"
       refY="0"
       orient="auto"
       inkscape:stockid="Arrow1Lstart"
       inkscape:isstock="true">
      <path
         transform="matrix(0.8,0,0,0.8,10,0)"
         style="fill:#000000;fill-opacity:1;fill-rule:evenodd;stroke:#000000;stroke-width:1pt;stroke-opacity:1"
         d="M 0,0 5,-5 -12.5,0 5,5 Z"
         id="path2415" />
    </marker>
    <marker
       style="overflow:visible"
       id="marker2383"
       refX="0"
       refY="0"
       orient="auto"
       inkscape:stockid="Arrow1Lstart"
       inkscape:isstock="true">
      <path
         transform="matrix(0.8,0,0,0.8,10,0)"
         style="fill:#000000;fill-opacity:1;fill-rule:evenodd;stroke:#000000;stroke-width:1pt;stroke-opacity:1"
         d="M 0,0 5,-5 -12.5,0 5,5 Z"
         id="path2381" />
    </marker>
    <marker
       style="overflow:visible"
       id="marker2355"
       refX="0"
       refY="0"
       orient="auto"
       inkscape:stockid="Arrow1Lstart"
       inkscape:isstock="true">
      <path
         transform="matrix(0.8,0,0,0.8,10,0)"
         style="fill:#000000;fill-opacity:1;fill-rule:evenodd;stroke:#000000;stroke-width:1pt;stroke-opacity:1"
         d="M 0,0 5,-5 -12.5,0 5,5 Z"
         id="path2353" />
    </marker>
    <marker
       style="overflow:visible"
       id="Arrow1Lstart"
       refX="0"
       refY="0"
       orient="auto"
       inkscape:stockid="Arrow1Lstart"
       inkscape:isstock="true">
      <path
         transform="matrix(0.8,0,0,0.8,10,0)"
         style="fill:#000000;fill-opacity:1;fill-rule:evenodd;stroke:#000000;stroke-width:1pt;stroke-opacity:1"
         d="M 0,0 5,-5 -12.5,0 5,5 Z"
         id="path2071" />
    </marker>
  </defs>
  <sodipodi:namedview
     id="namedview12"
     pagecolor="#ffffff"
     bordercolor="#666666"
     borderopacity="1.0"
     inkscape:pageshadow="2"
     inkscape:pageopacity="0.0"
     inkscape:pagecheckerboard="0"
     inkscape:document-units="mm"
     showgrid="false"
     showborder="false"
     fit-margin-top="0"
     fit-margin-left="0"
     fit-margin-right="0"
     fit-margin-bottom="0"
     inkscape:zoom="1.4874999"
     inkscape:cx="120.00001"
     inkscape:cy="167.7311"
     inkscape:window-width="1366"
     inkscape:window-height="712"
     inkscape:window-x="0"
     inkscape:window-y="0"
     inkscape:window-maximized="1"
     inkscape:current-layer="svg10" />
  <g
     inkscape:groupmode="layer"
     id="layer1"
     inkscape:label="CardOutline"
     style="display:inline"
     transform="translate(94.217781,-340.71922)">
    <path
       id="path4-3"
       style="display:inline;fill:none;fill-rule:evenodd;stroke:#000000;stroke-width:0.25;stroke-miterlimit:4;stroke-dasharray:none;stroke-opacity:1"
       d="m 50.564743,435.96104 -0.534158,0.31687 c -0.688621,0.40844 -1.158412,0.85449 -1.590112,1.51001 l -0.346181,0.5258 -0.06384,25.43159 c -0.03506,13.98732 -0.046,32.74824 -0.02422,41.69094 0.03916,16.06607 0.04297,16.26663 0.30127,16.87005 h 2.54e-4 c 0.321831,0.75178 1.375871,1.69211 2.308962,2.06009 0.662802,0.26139 0.718825,0.26193 29.335815,0.23047 27.968057,-0.0307 28.683467,-0.0377 29.150357,-0.27706 0.72044,-0.36932 1.35524,-0.98173 1.76901,-1.70664 l 0.37116,-0.65029 9.8e-4,-41.53137 9.8e-4,-41.53137 -0.30833,-0.61121 c -0.3634,-0.72062 -1.20695,-1.59056 -1.92217,-1.98245 l -0.50968,-0.27931 -28.969947,-0.0331 z m 0.134234,0.49272 57.679013,0.0666 0.38933,0.21242 0.11632,0.0681 0.12061,0.0774 0.13902,0.0985 0.11304,0.0864 0.12364,0.1017 0.13751,0.12124 0.11153,0.10621 0.13145,0.13177 0.10774,0.11773 0.12692,0.13477 0.0918,0.11748 0.10345,0.13201 0.0951,0.13352 0.0785,0.11974 0.0739,0.12124 0.0603,0.11222 0.25661,0.50651 -0.003,82.81198 -0.30631,0.53682 -0.13726,0.22444 -0.18268,0.24876 -0.16754,0.20014 -0.19757,0.20466 -0.19327,0.17285 -0.23542,0.18336 -0.22481,0.1503 -0.2233,0.12574 -0.0212,0.0108 -0.0149,0.006 -0.0394,0.012 -0.027,0.006 -0.0507,0.01 -0.0277,0.004 -0.0606,0.008 -0.0573,0.008 -0.0679,0.006 -0.083,0.0105 -0.0868,0.004 -0.0913,0.006 -0.10698,0.007 -0.25056,0.012 -0.3048,0.0108 -0.3545,0.0105 -0.41809,0.009 -0.47538,0.009 -0.54929,0.008 -0.96108,0.0105 -1.14073,0.0108 -3.46459,0.0165 -34.84847,0.0471 -6.84314,-0.003 -1.74276,-0.004 -1.260078,-0.006 -1.065289,-0.008 -0.60506,-0.006 -0.534158,-0.008 -0.467798,-0.009 -0.401438,-0.009 -0.339623,-0.009 -0.289659,-0.012 -0.126666,-0.006 -0.11632,-0.006 -0.106979,-0.006 -0.08302,-0.006 -0.08302,-0.008 -0.07998,-0.006 -0.0545,-0.007 -0.10093,-0.0135 -0.09967,-0.0183 -0.03911,-0.009 -0.04844,-0.0138 -0.0376,-0.0135 -0.04692,-0.0183 -0.167539,-0.0726 -0.143315,-0.0699 -0.177886,-0.0985 -0.140542,-0.0864 -0.159971,-0.10773 -0.155176,-0.11372 -0.152651,-0.12124 -0.161231,-0.13803 -0.123887,-0.11372 -0.144835,-0.14729 -0.11026,-0.11974 -0.119098,-0.14253 -0.08604,-0.11374 -0.09361,-0.13951 -0.06485,-0.11098 -0.05601,-0.11974 -0.027,-0.0669 -0.03481,-0.10621 -0.0061,-0.027 -0.01211,-0.0669 -0.01338,-0.0939 -0.01514,-0.12124 -0.0044,-0.0531 -0.01362,-0.15632 -0.0099,-0.16206 -0.01133,-0.21243 -0.01059,-0.23947 -0.0088,-0.27305 -0.0091,-0.31236 -0.0076,-0.3532 -0.01059,-0.61573 -0.0091,-0.72319 -0.0106,-1.15404 -0.0106,-1.77404 -0.01641,-4.27149 -0.01968,-8.14897 -0.0061,-8.546 0.0015,-6.72963 0.0044,-7.16476 0.0091,-7.2692 0.01943,-9.71082 0.0651,-25.28355 0.257868,-0.39253 0.152402,-0.21993 0.166025,-0.21393 0.147862,-0.16834 0.169052,-0.17133 0.185708,-0.16508 0.168798,-0.13202 0.229612,-0.16082 0.227845,-0.14253 z"
       inkscape:export-filename="/home/doug/k40/52Cards/IndividualColorCards/2D.png"
       inkscape:export-xdpi="300"
       inkscape:export-ydpi="300" />
  </g>
  <g
     inkscape:groupmode="layer"
     id="layer2"
     inkscape:label="InnerRectangle"
     style="display:inline"
     transform="translate(94.217781,-340.71922)">
    <path
       id="path2-6"
       style="display:inline;fill:none;fill-rule:evenodd;stroke:#4c71a5;stroke-width:0.262609;stroke-opacity:1"
       d="m 63.13524,452.67467 0.0441,14.05596 c 0.0243,7.7307 0.0504,20.15551 0.0578,27.61093 l 0.0134,13.55547 16.409043,-0.0521 16.40903,-0.0519 0.0305,-24.32539 c 0.0169,-13.37898 -0.004,-25.78048 -0.0462,-27.55907 l -0.077,-3.23394 h -16.42035 z m 16.503153,0.25626 h 16.11155 l 0.005,0.73622 c 0.003,0.40503 0.0367,12.68075 0.0757,27.27927 l 0.0709,26.54279 -3.16634,0.004 c -1.74158,0.002 -8.99902,0.0153 -16.12745,0.0285 -7.12842,0.0133 -12.991523,-0.007 -13.029223,-0.0446 -0.0728,-0.0731 -0.16665,-54.20072 -0.0944,-54.4185 0.028,-0.0844 5.532343,-0.128 16.154193,-0.128 z"
       inkscape:export-filename="/home/doug/k40/52Cards/IndividualColorCards/2D.png"
       inkscape:export-xdpi="300"
       inkscape:export-ydpi="300" />
  </g>
  <g
     inkscape:groupmode="layer"
     id="layer5"
     inkscape:label="InnerSuit"
     style="display:inline"
     transform="translate(94.217781,-340.71922)">
    <path
       style="display:inline;fill:#e1101c;stroke-width:1"
       d="m 89.611814,465.52225 c -0.528774,-1.0628 -1.601806,-2.59964 -2.40032,-3.43784 l -0.736942,-0.77356 0.822804,-0.93083 c 0.907659,-1.02683 1.529561,-1.9301 2.246475,-3.26285 l 0.473548,-0.88033 0.237596,0.40671 c 1.25353,2.14578 1.646582,2.73003 2.448616,3.63975 l 0.923821,1.04785 -0.45812,0.42868 c -0.687669,0.64346 -1.901823,2.29512 -2.517032,3.42399 -0.300219,0.55089 -0.582497,1.00242 -0.627286,1.0034 -0.04479,10e-4 -0.230711,-0.29826 -0.41316,-0.66497 z"
       id="path3210"
       transform="translate(-1.0416666e-6,-1.1083333e-5)" />
    <path
       style="display:inline;fill:#e1101c;stroke-width:1"
       d="m 68.824666,465.49635 c -0.617354,-1.17799 -1.766062,-2.8257 -2.483133,-3.56181 l -0.618576,-0.635 0.550709,-0.5715 c 0.89065,-0.92427 1.662069,-2.02041 2.537784,-3.60603 l 0.483545,-0.87554 0.346248,0.67416 c 0.588711,1.14624 1.655526,2.69156 2.420983,3.50689 0.402232,0.42843 0.73133,0.83117 0.73133,0.89497 0,0.0638 -0.235888,0.34191 -0.524196,0.61803 -0.755102,0.72316 -1.67122,1.98574 -2.368529,3.26427 -0.333342,0.61119 -0.6153,1.11104 -0.626576,1.11078 -0.01127,-2.5e-4 -0.21359,-0.36891 -0.449589,-0.81922 z"
       id="path3208"
       transform="translate(-1.0416666e-6,-1.1083333e-5)" />
    <path
       style="display:inline;fill:#e1101c;stroke-width:1"
       d="m 89.540699,484.31675 c -0.607642,-1.10163 -1.68237,-2.59185 -2.454107,-3.40287 l -0.650082,-0.68317 0.754795,-0.76611 c 0.89211,-0.90547 1.763266,-2.10982 2.322539,-3.21085 0.221755,-0.43656 0.446911,-0.79375 0.500346,-0.79375 0.05343,0 0.29368,0.35719 0.533876,0.79375 0.686877,1.24842 1.608563,2.51067 2.384728,3.2659 l 0.713393,0.69415 -0.561644,0.57585 c -0.856979,0.87865 -1.813637,2.18219 -2.425796,3.30537 -0.303786,0.55738 -0.5813,1.01354 -0.616698,1.01369 -0.03539,1.3e-4 -0.261006,-0.35623 -0.50135,-0.79196 z"
       id="path3204"
       transform="translate(-1.0416666e-6,-1.1083333e-5)" />
    <path
       style="display:inline;fill:#e1101c;stroke-width:1"
       d="m 68.740448,484.27225 c -0.70464,-1.25559 -1.840146,-2.82087 -2.496722,-3.44172 l -0.565801,-0.53501 0.693794,-0.70997 c 0.810158,-0.82906 1.903662,-2.35029 2.451871,-3.41092 0.215441,-0.41682 0.43387,-0.69698 0.495086,-0.635 0.06025,0.061 0.32071,0.481 0.578802,0.93332 0.621647,1.08949 1.449374,2.22343 2.26844,3.10765 l 0.667762,0.72087 -0.647443,0.65904 c -0.685722,0.698 -1.887916,2.3504 -2.327431,3.19903 -0.56357,1.08816 -0.570535,1.08886 -1.118358,0.11271 z"
       id="path3202"
       transform="translate(-1.0416666e-6,-1.1083333e-5)" />
    <path
       style="display:inline;fill:#e1101c;stroke-width:1"
       d="m 79.033786,493.65864 c -0.663096,-1.21094 -1.684945,-2.61585 -2.451104,-3.36993 l -0.482438,-0.47483 0.776381,-0.8619 c 0.786542,-0.87317 1.963529,-2.56807 2.468134,-3.55419 0.151906,-0.29686 0.303003,-0.53975 0.33577,-0.53975 0.03277,0 0.201452,0.27624 0.374857,0.61386 0.388859,0.75713 1.737361,2.74413 2.212196,3.25964 0.193012,0.20955 0.497801,0.53891 0.677307,0.73191 l 0.326373,0.3509 -0.584003,0.6016 c -0.934733,0.96289 -1.451867,1.65747 -2.272447,3.05219 l -0.76932,1.30761 z"
       id="path3200"
       transform="translate(-1.0416666e-6,-1.1083333e-5)" />
    <path
       style="display:inline;fill:#e1101c;stroke-width:1"
       d="m 89.534254,503.49529 c -0.737561,-1.3351 -1.572848,-2.52123 -2.360515,-3.352 l -0.751104,-0.7922 0.510124,-0.50331 c 0.748301,-0.7383 1.843294,-2.22982 2.461945,-3.35349 0.298042,-0.54133 0.580939,-0.98425 0.628662,-0.98425 0.04772,0 0.34659,0.46653 0.664147,1.03674 0.605467,1.08717 1.915659,2.87422 2.491759,3.39865 0.18602,0.16934 0.338219,0.34787 0.338219,0.39673 0,0.0489 -0.328066,0.4516 -0.729037,0.89497 -0.807901,0.89333 -2.033843,2.67847 -2.411973,3.51216 -0.134647,0.29687 -0.280566,0.53975 -0.324269,0.53975 -0.0437,0 -0.276784,-0.35718 -0.517958,-0.79375 z"
       id="path3196"
       transform="translate(-1.0416666e-6,-1.1083333e-5)" />
    <path
       style="display:inline;fill:#e1101c;stroke-width:1"
       d="m 68.894683,503.70884 c -0.564491,-1.09548 -1.896757,-3.01713 -2.551142,-3.67974 l -0.632497,-0.64045 0.464354,-0.43905 c 0.560581,-0.53004 1.886407,-2.39604 2.560282,-3.60341 0.561275,-1.00563 0.493938,-1.0278 1.317646,0.43385 0.556772,0.98799 1.642057,2.43601 2.279337,3.04117 0.253491,0.24071 0.460893,0.47434 0.460893,0.51918 0,0.0448 -0.290842,0.39081 -0.646316,0.76883 -0.66845,0.71086 -2.215991,2.9072 -2.36345,3.35432 -0.04608,0.1397 -0.192359,0.39296 -0.325077,0.5628 l -0.241307,0.3088 z"
       id="path3194"
       transform="translate(-1.0416666e-6,-1.1083333e-5)" />
  </g>
  <g
     inkscape:groupmode="layer"
     id="layer6"
     inkscape:label="OuterSuit"
     style="display:inline"
     transform="translate(94.217781,-340.71922)">
    <path
       style="display:inline;fill:#e1101c;stroke-width:1"
       d="m 55.154249,470.10955 c -1.261443,-2.19047 -2.758955,-4.22606 -3.903843,-5.30656 l -0.459388,-0.43355 0.836382,-0.87476 c 1.318387,-1.37889 2.749893,-3.40038 3.640177,-5.14046 0.220246,-0.43047 0.454732,-0.81578 0.521082,-0.85624 0.06635,-0.0405 0.39019,0.42687 0.719646,1.0385 0.937717,1.74087 2.170956,3.48433 3.288818,4.6495 0.564006,0.58787 1.025465,1.13126 1.025465,1.20753 0,0.0763 -0.148742,0.23483 -0.330539,0.35236 -0.778065,0.50299 -2.89216,3.40162 -4.236157,5.80818 l -0.416344,0.7455 z"
       id="path3206"
       transform="translate(-1.0416666e-6,-1.1083333e-5)" />
    <path
       style="display:inline;fill:#e1101c;stroke-width:1"
       d="m 102.78705,502.0454 c -1.08159,-1.99722 -2.39625,-3.78308 -3.718787,-5.05172 l -0.654542,-0.62786 0.872805,-0.89614 c 1.375554,-1.41233 2.339704,-2.76107 3.613844,-5.05539 0.30063,-0.54133 0.58776,-0.98425 0.63808,-0.98425 0.0503,0 0.31198,0.44292 0.5815,0.98425 0.73899,1.48434 2.27337,3.68969 3.36012,4.82946 0.53292,0.55894 0.96895,1.0577 0.96895,1.10837 0,0.0507 -0.45003,0.56121 -1.00006,1.13452 -1.16657,1.21593 -2.30123,2.80678 -3.24392,4.54815 -0.36868,0.68104 -0.68897,1.23825 -0.71174,1.23825 -0.0228,0 -0.34059,-0.55244 -0.70625,-1.22764 z"
       id="path3198"
       transform="translate(-1.0416666e-6,-1.1083333e-5)" />
  </g>
  <g
     inkscape:groupmode="layer"
     id="layer3"
     inkscape:label="CardName"
     style="display:inline"
     transform="translate(94.217781,-340.71922)">
    <path
       style="display:inline;fill:#e1101c;stroke-width:1"
       d="m 53.356823,453.87363 c 0,-0.76563 0.833046,-4.17749 1.442772,-5.90909 0.408224,-1.15934 1.786113,-3.95112 2.460239,-4.98475 l 0.600505,-0.92075 H 55.54422 53.228103 v 0.81801 c 0,0.4499 -0.04344,0.83859 -0.09654,0.86375 -0.0531,0.0252 -0.458566,0.0235 -0.901041,-0.004 l -0.8045,-0.0495 v -1.70322 -1.70322 h 4.376483 4.376483 v 0.94501 c 0,0.51975 -0.05921,0.9811 -0.131575,1.02523 -0.234052,0.14272 -1.164373,1.45365 -1.786611,2.51754 -1.204337,2.05916 -2.054249,4.37158 -2.769824,7.53611 l -0.425706,1.88261 -0.854224,0.0376 -0.854225,0.0376 z"
       id="path3212"
       transform="translate(-1.0416666e-6,-1.1083333e-5)" />
    <path
       style="display:inline;fill:#e1101c;stroke-width:1"
       d="m 99.181175,519.39725 v -0.89378 l 0.935125,-1.30245 c 1.08758,-1.51478 2.08014,-3.43106 2.70816,-5.22848 0.4361,-1.24814 1.146,-3.94001 1.31018,-4.96804 0.0823,-0.51543 0.0925,-0.52411 0.70292,-0.59543 0.34066,-0.0398 0.74611,-0.0397 0.90099,2.5e-4 0.32889,0.0849 0.32013,0.19378 -0.20728,2.5787 -0.6774,3.06309 -1.91762,6.17685 -3.30242,8.29117 -0.40189,0.61362 -0.73071,1.14226 -0.73071,1.17475 0,0.0325 1.01367,0.0591 2.2526,0.0591 h 2.2526 v -0.889 -0.889 h 0.90104 0.90104 v 1.778 1.778 h -4.31212 -4.312125 z"
       id="path2842"
       transform="translate(-1.0416666e-6,-1.1083333e-5)" />
  </g>
</svg>
