<?xml version="1.0" encoding="UTF-8" standalone="no"?>
<svg
   width="63.500004mm"
   height="88.899895mm"
   viewBox="142.0878 95.116776 63.500012 88.899887"
   version="1.1"
   id="svg10"
   sodipodi:docname="7H.svg"
   inkscape:version="1.1.1 (1:1.1+202109281949+c3084ef5ed)"
   inkscape:export-filename="/home/doug/k40/52Cards/IndividualColorCards/7H.png"
   inkscape:export-xdpi="300"
   inkscape:export-ydpi="300"
   xmlns:inkscape="http://www.inkscape.org/namespaces/inkscape"
   xmlns:sodipodi="http://sodipodi.sourceforge.net/DTD/sodipodi-0.dtd"
   xmlns="http://www.w3.org/2000/svg"
   xmlns:svg="http://www.w3.org/2000/svg">
  <defs
     id="defs14">
    <marker
       style="overflow:visible"
       id="marker2995"
       refX="0"
       refY="0"
       orient="auto"
       inkscape:stockid="Arrow1Lstart"
       inkscape:isstock="true">
      <path
         transform="matrix(0.8,0,0,0.8,10,0)"
         style="fill:#000000;fill-opacity:1;fill-rule:evenodd;stroke:#000000;stroke-width:1pt;stroke-opacity:1"
         d="M 0,0 5,-5 -12.5,0 5,5 Z"
         id="path2993" />
    </marker>
    <marker
       style="overflow:visible"
       id="marker2985"
       refX="0"
       refY="0"
       orient="auto"
       inkscape:stockid="Arrow1Lstart"
       inkscape:isstock="true">
      <path
         transform="matrix(0.8,0,0,0.8,10,0)"
         style="fill:#000000;fill-opacity:1;fill-rule:evenodd;stroke:#000000;stroke-width:1pt;stroke-opacity:1"
         d="M 0,0 5,-5 -12.5,0 5,5 Z"
         id="path2983" />
    </marker>
    <marker
       style="overflow:visible"
       id="marker2791"
       refX="0"
       refY="0"
       orient="auto"
       inkscape:stockid="Arrow1Lstart"
       inkscape:isstock="true">
      <path
         transform="matrix(0.8,0,0,0.8,10,0)"
         style="fill:#000000;fill-opacity:1;fill-rule:evenodd;stroke:#000000;stroke-width:1pt;stroke-opacity:1"
         d="M 0,0 5,-5 -12.5,0 5,5 Z"
         id="path2789" />
    </marker>
    <marker
       style="overflow:visible"
       id="marker2781"
       refX="0"
       refY="0"
       orient="auto"
       inkscape:stockid="Arrow1Lstart"
       inkscape:isstock="true">
      <path
         transform="matrix(0.8,0,0,0.8,10,0)"
         style="fill:#000000;fill-opacity:1;fill-rule:evenodd;stroke:#000000;stroke-width:1pt;stroke-opacity:1"
         d="M 0,0 5,-5 -12.5,0 5,5 Z"
         id="path2779" />
    </marker>
    <marker
       style="overflow:visible"
       id="marker2417"
       refX="0"
       refY="0"
       orient="auto"
       inkscape:stockid="Arrow1Lstart"
       inkscape:isstock="true">
      <path
         transform="matrix(0.8,0,0,0.8,10,0)"
         style="fill:#000000;fill-opacity:1;fill-rule:evenodd;stroke:#000000;stroke-width:1pt;stroke-opacity:1"
         d="M 0,0 5,-5 -12.5,0 5,5 Z"
         id="path2415" />
    </marker>
    <marker
       style="overflow:visible"
       id="marker2383"
       refX="0"
       refY="0"
       orient="auto"
       inkscape:stockid="Arrow1Lstart"
       inkscape:isstock="true">
      <path
         transform="matrix(0.8,0,0,0.8,10,0)"
         style="fill:#000000;fill-opacity:1;fill-rule:evenodd;stroke:#000000;stroke-width:1pt;stroke-opacity:1"
         d="M 0,0 5,-5 -12.5,0 5,5 Z"
         id="path2381" />
    </marker>
    <marker
       style="overflow:visible"
       id="marker2355"
       refX="0"
       refY="0"
       orient="auto"
       inkscape:stockid="Arrow1Lstart"
       inkscape:isstock="true">
      <path
         transform="matrix(0.8,0,0,0.8,10,0)"
         style="fill:#000000;fill-opacity:1;fill-rule:evenodd;stroke:#000000;stroke-width:1pt;stroke-opacity:1"
         d="M 0,0 5,-5 -12.5,0 5,5 Z"
         id="path2353" />
    </marker>
    <marker
       style="overflow:visible"
       id="Arrow1Lstart"
       refX="0"
       refY="0"
       orient="auto"
       inkscape:stockid="Arrow1Lstart"
       inkscape:isstock="true">
      <path
         transform="matrix(0.8,0,0,0.8,10,0)"
         style="fill:#000000;fill-opacity:1;fill-rule:evenodd;stroke:#000000;stroke-width:1pt;stroke-opacity:1"
         d="M 0,0 5,-5 -12.5,0 5,5 Z"
         id="path2071" />
    </marker>
  </defs>
  <sodipodi:namedview
     id="namedview12"
     pagecolor="#ffffff"
     bordercolor="#666666"
     borderopacity="1.0"
     inkscape:pageshadow="2"
     inkscape:pageopacity="0.0"
     inkscape:pagecheckerboard="0"
     inkscape:document-units="mm"
     showgrid="false"
     showborder="false"
     fit-margin-top="0"
     fit-margin-left="0"
     fit-margin-right="0"
     fit-margin-bottom="0"
     inkscape:zoom="1.2541666"
     inkscape:cx="120.00001"
     inkscape:cy="167.84054"
     inkscape:window-width="1366"
     inkscape:window-height="712"
     inkscape:window-x="0"
     inkscape:window-y="0"
     inkscape:window-maximized="1"
     inkscape:current-layer="layer5" />
  <g
     inkscape:groupmode="layer"
     id="layer1"
     inkscape:label="CardOutline"
     style="display:inline"
     transform="translate(94.217781,-340.71922)">
    <path
       id="path4-3"
       style="display:inline;fill:none;fill-rule:evenodd;stroke:#000000;stroke-width:0.25;stroke-miterlimit:4;stroke-dasharray:none;stroke-opacity:1"
       d="m 50.564743,435.96104 -0.534158,0.31687 c -0.688621,0.40844 -1.158412,0.85449 -1.590112,1.51001 l -0.346181,0.5258 -0.06384,25.43159 c -0.03506,13.98732 -0.046,32.74824 -0.02422,41.69094 0.03916,16.06607 0.04297,16.26663 0.30127,16.87005 h 2.54e-4 c 0.321831,0.75178 1.375871,1.69211 2.308962,2.06009 0.662802,0.26139 0.718825,0.26193 29.335815,0.23047 27.968057,-0.0307 28.683467,-0.0377 29.150357,-0.27706 0.72044,-0.36932 1.35524,-0.98173 1.76901,-1.70664 l 0.37116,-0.65029 9.8e-4,-41.53137 9.8e-4,-41.53137 -0.30833,-0.61121 c -0.3634,-0.72062 -1.20695,-1.59056 -1.92217,-1.98245 l -0.50968,-0.27931 -28.969947,-0.0331 z m 0.134234,0.49272 57.679013,0.0666 0.38933,0.21242 0.11632,0.0681 0.12061,0.0774 0.13902,0.0985 0.11304,0.0864 0.12364,0.1017 0.13751,0.12124 0.11153,0.10621 0.13145,0.13177 0.10774,0.11773 0.12692,0.13477 0.0918,0.11748 0.10345,0.13201 0.0951,0.13352 0.0785,0.11974 0.0739,0.12124 0.0603,0.11222 0.25661,0.50651 -0.003,82.81198 -0.30631,0.53682 -0.13726,0.22444 -0.18268,0.24876 -0.16754,0.20014 -0.19757,0.20466 -0.19327,0.17285 -0.23542,0.18336 -0.22481,0.1503 -0.2233,0.12574 -0.0212,0.0108 -0.0149,0.006 -0.0394,0.012 -0.027,0.006 -0.0507,0.01 -0.0277,0.004 -0.0606,0.008 -0.0573,0.008 -0.0679,0.006 -0.083,0.0105 -0.0868,0.004 -0.0913,0.006 -0.10698,0.007 -0.25056,0.012 -0.3048,0.0108 -0.3545,0.0105 -0.41809,0.009 -0.47538,0.009 -0.54929,0.008 -0.96108,0.0105 -1.14073,0.0108 -3.46459,0.0165 -34.84847,0.0471 -6.84314,-0.003 -1.74276,-0.004 -1.260078,-0.006 -1.065289,-0.008 -0.60506,-0.006 -0.534158,-0.008 -0.467798,-0.009 -0.401438,-0.009 -0.339623,-0.009 -0.289659,-0.012 -0.126666,-0.006 -0.11632,-0.006 -0.106979,-0.006 -0.08302,-0.006 -0.08302,-0.008 -0.07998,-0.006 -0.0545,-0.007 -0.10093,-0.0135 -0.09967,-0.0183 -0.03911,-0.009 -0.04844,-0.0138 -0.0376,-0.0135 -0.04692,-0.0183 -0.167539,-0.0726 -0.143315,-0.0699 -0.177886,-0.0985 -0.140542,-0.0864 -0.159971,-0.10773 -0.155176,-0.11372 -0.152651,-0.12124 -0.161231,-0.13803 -0.123887,-0.11372 -0.144835,-0.14729 -0.11026,-0.11974 -0.119098,-0.14253 -0.08604,-0.11374 -0.09361,-0.13951 -0.06485,-0.11098 -0.05601,-0.11974 -0.027,-0.0669 -0.03481,-0.10621 -0.0061,-0.027 -0.01211,-0.0669 -0.01338,-0.0939 -0.01514,-0.12124 -0.0044,-0.0531 -0.01362,-0.15632 -0.0099,-0.16206 -0.01133,-0.21243 -0.01059,-0.23947 -0.0088,-0.27305 -0.0091,-0.31236 -0.0076,-0.3532 -0.01059,-0.61573 -0.0091,-0.72319 -0.0106,-1.15404 -0.0106,-1.77404 -0.01641,-4.27149 -0.01968,-8.14897 -0.0061,-8.546 0.0015,-6.72963 0.0044,-7.16476 0.0091,-7.2692 0.01943,-9.71082 0.0651,-25.28355 0.257868,-0.39253 0.152402,-0.21993 0.166025,-0.21393 0.147862,-0.16834 0.169052,-0.17133 0.185708,-0.16508 0.168798,-0.13202 0.229612,-0.16082 0.227845,-0.14253 z"
       inkscape:export-filename="/home/doug/k40/52Cards/IndividualColorCards/2D.png"
       inkscape:export-xdpi="300"
       inkscape:export-ydpi="300" />
  </g>
  <g
     inkscape:groupmode="layer"
     id="layer2"
     inkscape:label="InnerRectangle"
     style="display:inline"
     transform="translate(94.217781,-340.71922)">
    <path
       id="path2-6"
       style="display:inline;fill:none;fill-rule:evenodd;stroke:#4c71a5;stroke-width:0.262609;stroke-opacity:1"
       d="m 63.13524,452.67467 0.0441,14.05596 c 0.0243,7.7307 0.0504,20.15551 0.0578,27.61093 l 0.0134,13.55547 16.409043,-0.0521 16.40903,-0.0519 0.0305,-24.32539 c 0.0169,-13.37898 -0.004,-25.78048 -0.0462,-27.55907 l -0.077,-3.23394 h -16.42035 z m 16.503153,0.25626 h 16.11155 l 0.005,0.73622 c 0.003,0.40503 0.0367,12.68075 0.0757,27.27927 l 0.0709,26.54279 -3.16634,0.004 c -1.74158,0.002 -8.99902,0.0153 -16.12745,0.0285 -7.12842,0.0133 -12.991523,-0.007 -13.029223,-0.0446 -0.0728,-0.0731 -0.16665,-54.20072 -0.0944,-54.4185 0.028,-0.0844 5.532343,-0.128 16.154193,-0.128 z"
       inkscape:export-filename="/home/doug/k40/52Cards/IndividualColorCards/2D.png"
       inkscape:export-xdpi="300"
       inkscape:export-ydpi="300" />
  </g>
  <g
     inkscape:groupmode="layer"
     id="layer5"
     inkscape:label="InnerSuit"
     style="display:inline"
     transform="translate(94.217781,-340.71922)">
    <path
       style="fill:#e4111e;stroke-width:1"
       d="m 89.765266,463.93658 c -1.693917,-2.59138 -2.717156,-4.76648 -2.717156,-5.77586 0,-1.05516 0.764234,-1.813 1.829198,-1.8139 0.439361,-3.8e-4 0.665438,0.0859 1.034808,0.39468 0.259944,0.21733 0.510968,0.54062 0.557831,0.71843 0.08446,0.32047 0.0874,0.31921 0.33833,-0.14655 0.367662,-0.68242 0.955786,-0.99366 1.753741,-0.92811 0.934793,0.0768 1.443042,0.58556 1.52499,1.52655 0.06922,0.79483 -0.153832,1.54845 -0.889857,3.00653 -0.518424,1.02701 -2.368975,4.02211 -2.55145,4.1295 -0.06118,0.036 -0.457376,-0.46406 -0.880435,-1.11127 z"
       id="path2754" />
    <path
       style="fill:#e4111e;stroke-width:1"
       d="m 67.543082,463.43322 c -1.827317,-2.92587 -2.368113,-4.13055 -2.367174,-5.27311 0.0016,-1.87887 2.463792,-2.51893 3.296148,-0.85683 l 0.225687,0.45067 0.206042,-0.41352 c 0.320421,-0.64308 1.016302,-1.02938 1.721692,-0.95576 1.232873,0.12867 1.76827,0.95454 1.5186,2.34249 -0.172152,0.95702 -1.289449,3.18682 -2.612629,5.21406 l -0.853975,1.30837 z"
       id="path2752" />
    <path
       style="fill:#e4111e;stroke-width:1"
       d="m 78.722595,473.49793 c -1.725021,-2.71894 -2.610836,-4.6735 -2.610836,-5.76082 0,-1.78576 2.521661,-2.40225 3.309131,-0.80901 l 0.261317,0.52871 0.207302,-0.47245 c 0.528455,-1.20436 2.307536,-1.31364 3.029526,-0.18609 0.505339,0.78919 0.255735,2.14527 -0.742182,4.03222 -0.473689,0.89569 -2.258185,3.78558 -2.450903,3.96909 -0.06087,0.058 -0.512376,-0.52778 -1.003355,-1.30165 z"
       id="path2748" />
    <path
       style="fill:#e4111e;stroke-width:1"
       d="m 89.547465,483.17889 c -2.377187,-3.84 -2.934183,-5.4951 -2.219739,-6.59588 0.381251,-0.58741 0.952832,-0.84956 1.681764,-0.77132 0.652612,0.07 1.02362,0.33233 1.364168,0.96443 l 0.23034,0.42753 0.166646,-0.38311 c 0.547876,-1.25951 2.343357,-1.40111 3.084741,-0.24327 0.686592,1.07226 0.02415,3.00326 -2.278771,6.6426 -0.525869,0.83104 -0.971485,1.52697 -0.990259,1.54652 -0.01878,0.0196 -0.486273,-0.69482 -1.03889,-1.5875 z"
       id="path2746" />
    <path
       style="fill:#e4111e;stroke-width:1"
       d="m 68.547469,484.63867 c -0.240667,-0.29156 -1.995682,-3.1922 -2.403122,-3.97182 -0.966345,-1.84906 -1.216498,-3.29482 -0.707597,-4.08958 0.719636,-1.12388 2.406249,-1.03345 3.001439,0.16091 l 0.240604,0.48282 0.254952,-0.47322 c 0.67941,-1.26105 2.403053,-1.27781 3.037646,-0.0295 0.149949,0.29496 0.272635,0.71225 0.272635,0.92732 0,0.55934 -0.487074,1.98547 -1.031871,3.02128 -0.349539,0.66457 -2.288842,3.84123 -2.502264,4.09882 -0.01587,0.0192 -0.08896,-0.038 -0.162422,-0.127 z"
       id="path2744" />
    <path
       style="fill:#e4111e;stroke-width:1"
       d="m 87.629148,503.80472 c -0.883975,-0.77141 -0.754163,-2.05358 0.436467,-4.31104 0.546526,-1.03622 2.415234,-4.03133 2.515228,-4.03133 0.05861,0 1.826385,2.83236 2.410132,3.86155 0.583666,1.02905 1.125752,2.51519 1.125752,3.08627 0,1.0305 -0.765598,1.81376 -1.773778,1.8147 -0.722082,6.4e-4 -1.219023,-0.29038 -1.535391,-0.89927 l -0.274561,-0.52843 -0.192526,0.43876 c -0.292387,0.66636 -0.807789,0.98942 -1.578494,0.98942 -0.550827,0 -0.72488,-0.0646 -1.132829,-0.42063 z"
       id="path2740" />
    <path
       style="fill:#e4111e;stroke-width:1"
       d="m 66.151188,504.11058 c -1.068473,-0.47159 -1.295486,-1.61062 -0.647651,-3.24955 0.330494,-0.83611 1.708975,-3.25003 2.707506,-4.74124 l 0.4527,-0.67607 0.364774,0.54907 c 0.94743,1.42609 2.356347,3.901 2.686993,4.71999 0.546635,1.35397 0.601354,1.85864 0.277182,2.55648 -0.537082,1.15618 -2.099809,1.37348 -2.879257,0.40038 -0.185368,-0.23142 -0.337033,-0.48681 -0.337033,-0.56753 0,-0.2711 -0.198318,-0.14435 -0.407875,0.26069 -0.440102,0.85064 -1.315454,1.14585 -2.217339,0.74778 z"
       id="path2738" />
  </g>
  <g
     inkscape:groupmode="layer"
     id="layer6"
     inkscape:label="OuterSuit"
     style="display:inline"
     transform="translate(94.217781,-340.71922)">
    <path
       style="display:inline;fill:#e4111e;stroke-width:1"
       d="m 54.00282,466.79057 c -2.909503,-4.6649 -3.657615,-6.69803 -2.978533,-8.09472 0.53007,-1.09022 1.513577,-1.55852 2.747037,-1.30801 0.668072,0.13568 1.269086,0.68774 1.547821,1.42175 l 0.170146,0.44806 0.421689,-0.7254 c 0.518734,-0.89234 1.033177,-1.20619 1.977137,-1.20619 1.350382,0 2.197664,0.81312 2.316521,2.2231 0.12563,1.49033 -0.694889,3.32928 -3.360756,7.53214 -0.702119,1.10692 -1.294636,2.02977 -1.316704,2.05079 -0.02206,0.021 -0.708029,-1.03267 -1.524358,-2.34152 z"
       id="path2750"
       transform="translate(-1.0416666e-6,-1.1083333e-5)" />
    <path
       style="display:inline;fill:#e4111e;stroke-width:1"
       d="m 100.27236,502.99422 c -0.620614,-0.29118 -1.122352,-1.09339 -1.194725,-1.9102 -0.11767,-1.32798 1.193565,-4.27676 3.369525,-7.57758 0.46891,-0.71131 0.9266,-1.44804 1.01711,-1.63719 0.0905,-0.18914 0.20778,-0.3439 0.26062,-0.3439 0.14941,0 2.63004,3.97299 3.4097,5.461 0.91123,1.73911 1.30765,2.91379 1.3142,3.89431 0.005,0.66975 -0.053,0.86234 -0.39828,1.3335 -0.49592,0.67679 -1.12764,0.99473 -1.977,0.99499 -1.06938,3.8e-4 -1.82064,-0.52342 -2.14449,-1.49504 -0.13601,-0.40806 -0.23576,-0.34635 -0.60975,0.37725 -0.22432,0.43401 -0.4855,0.72248 -0.79814,0.88155 -0.57929,0.29473 -1.6445,0.30482 -2.24877,0.0213 z"
       id="path2742"
       transform="translate(-1.0416666e-6,-1.1083333e-5)" />
  </g>
  <g
     inkscape:groupmode="layer"
     id="layer3"
     inkscape:label="CardName"
     style="display:inline"
     transform="translate(94.217781,-340.71922)">
    <path
       style="display:inline;fill:#e4111e;stroke-width:1"
       d="m 52.965349,453.7111 c 0.527355,-3.5238 2.216513,-8.01796 3.997896,-10.63678 0.332397,-0.48866 0.605643,-0.93133 0.607212,-0.98372 0.0016,-0.0524 -1.044693,-0.0952 -2.325029,-0.0952 h -2.327884 l -0.03943,0.85725 -0.03943,0.85725 -0.900248,0.0376 -0.900249,0.0376 v -1.78381 -1.7838 h 4.534585 4.534584 v 0.84172 c 0,0.80783 -0.02621,0.87557 -0.651113,1.68275 -2.184133,2.82121 -3.661875,6.29465 -4.558713,10.71528 l -0.173914,0.85725 h -0.924267 -0.924267 z"
       id="path2756"
       transform="translate(-1.0416666e-6,-1.1083333e-5)" />
    <path
       style="display:inline;fill:#e4111e;stroke-width:1"
       d="m 99.264793,520.0051 c -0.146148,-0.68455 0.01476,-1.40918 0.422593,-1.90303 1.624944,-1.9677 3.027094,-4.78823 3.886034,-7.81707 0.33938,-1.19672 0.94618,-3.73758 0.94618,-3.96193 0,-0.0362 0.42011,-0.0657 0.93359,-0.0657 0.51347,0 0.93359,0.0508 0.93359,0.11297 0,0.26528 -0.44368,2.33507 -0.75166,3.50653 -0.74748,2.84319 -2.15529,6.08644 -3.40107,7.83528 -0.28337,0.39781 -0.51523,0.75499 -0.51523,0.79375 0,0.0388 1.05029,0.0705 2.33398,0.0705 h 2.33398 v -0.889 -0.889 h 0.93359 0.93359 v 1.778 1.778 h -4.4573 -4.457304 z"
       id="path2552"
       transform="translate(-1.0416666e-6,-1.1083333e-5)" />
  </g>
</svg>
