<?xml version="1.0" encoding="UTF-8" standalone="no"?>
<svg
   width="63.500004mm"
   height="88.899895mm"
   viewBox="142.0878 95.116776 63.500012 88.899887"
   version="1.1"
   id="svg10"
   sodipodi:docname="7S.svg"
   inkscape:version="1.1.1 (1:1.1+202109281949+c3084ef5ed)"
   inkscape:export-filename="/home/doug/k40/52Cards/IndividualColorCards/7S.png"
   inkscape:export-xdpi="300"
   inkscape:export-ydpi="300"
   xmlns:inkscape="http://www.inkscape.org/namespaces/inkscape"
   xmlns:sodipodi="http://sodipodi.sourceforge.net/DTD/sodipodi-0.dtd"
   xmlns="http://www.w3.org/2000/svg"
   xmlns:svg="http://www.w3.org/2000/svg">
  <defs
     id="defs14">
    <marker
       style="overflow:visible"
       id="marker2995"
       refX="0"
       refY="0"
       orient="auto"
       inkscape:stockid="Arrow1Lstart"
       inkscape:isstock="true">
      <path
         transform="matrix(0.8,0,0,0.8,10,0)"
         style="fill:#000000;fill-opacity:1;fill-rule:evenodd;stroke:#000000;stroke-width:1pt;stroke-opacity:1"
         d="M 0,0 5,-5 -12.5,0 5,5 Z"
         id="path2993" />
    </marker>
    <marker
       style="overflow:visible"
       id="marker2985"
       refX="0"
       refY="0"
       orient="auto"
       inkscape:stockid="Arrow1Lstart"
       inkscape:isstock="true">
      <path
         transform="matrix(0.8,0,0,0.8,10,0)"
         style="fill:#000000;fill-opacity:1;fill-rule:evenodd;stroke:#000000;stroke-width:1pt;stroke-opacity:1"
         d="M 0,0 5,-5 -12.5,0 5,5 Z"
         id="path2983" />
    </marker>
    <marker
       style="overflow:visible"
       id="marker2791"
       refX="0"
       refY="0"
       orient="auto"
       inkscape:stockid="Arrow1Lstart"
       inkscape:isstock="true">
      <path
         transform="matrix(0.8,0,0,0.8,10,0)"
         style="fill:#000000;fill-opacity:1;fill-rule:evenodd;stroke:#000000;stroke-width:1pt;stroke-opacity:1"
         d="M 0,0 5,-5 -12.5,0 5,5 Z"
         id="path2789" />
    </marker>
    <marker
       style="overflow:visible"
       id="marker2781"
       refX="0"
       refY="0"
       orient="auto"
       inkscape:stockid="Arrow1Lstart"
       inkscape:isstock="true">
      <path
         transform="matrix(0.8,0,0,0.8,10,0)"
         style="fill:#000000;fill-opacity:1;fill-rule:evenodd;stroke:#000000;stroke-width:1pt;stroke-opacity:1"
         d="M 0,0 5,-5 -12.5,0 5,5 Z"
         id="path2779" />
    </marker>
    <marker
       style="overflow:visible"
       id="marker2417"
       refX="0"
       refY="0"
       orient="auto"
       inkscape:stockid="Arrow1Lstart"
       inkscape:isstock="true">
      <path
         transform="matrix(0.8,0,0,0.8,10,0)"
         style="fill:#000000;fill-opacity:1;fill-rule:evenodd;stroke:#000000;stroke-width:1pt;stroke-opacity:1"
         d="M 0,0 5,-5 -12.5,0 5,5 Z"
         id="path2415" />
    </marker>
    <marker
       style="overflow:visible"
       id="marker2383"
       refX="0"
       refY="0"
       orient="auto"
       inkscape:stockid="Arrow1Lstart"
       inkscape:isstock="true">
      <path
         transform="matrix(0.8,0,0,0.8,10,0)"
         style="fill:#000000;fill-opacity:1;fill-rule:evenodd;stroke:#000000;stroke-width:1pt;stroke-opacity:1"
         d="M 0,0 5,-5 -12.5,0 5,5 Z"
         id="path2381" />
    </marker>
    <marker
       style="overflow:visible"
       id="marker2355"
       refX="0"
       refY="0"
       orient="auto"
       inkscape:stockid="Arrow1Lstart"
       inkscape:isstock="true">
      <path
         transform="matrix(0.8,0,0,0.8,10,0)"
         style="fill:#000000;fill-opacity:1;fill-rule:evenodd;stroke:#000000;stroke-width:1pt;stroke-opacity:1"
         d="M 0,0 5,-5 -12.5,0 5,5 Z"
         id="path2353" />
    </marker>
    <marker
       style="overflow:visible"
       id="Arrow1Lstart"
       refX="0"
       refY="0"
       orient="auto"
       inkscape:stockid="Arrow1Lstart"
       inkscape:isstock="true">
      <path
         transform="matrix(0.8,0,0,0.8,10,0)"
         style="fill:#000000;fill-opacity:1;fill-rule:evenodd;stroke:#000000;stroke-width:1pt;stroke-opacity:1"
         d="M 0,0 5,-5 -12.5,0 5,5 Z"
         id="path2071" />
    </marker>
  </defs>
  <sodipodi:namedview
     id="namedview12"
     pagecolor="#ffffff"
     bordercolor="#666666"
     borderopacity="1.0"
     inkscape:pageshadow="2"
     inkscape:pageopacity="0.0"
     inkscape:pagecheckerboard="0"
     inkscape:document-units="mm"
     showgrid="false"
     showborder="false"
     fit-margin-top="0"
     fit-margin-left="0"
     fit-margin-right="0"
     fit-margin-bottom="0"
     inkscape:zoom="1.2541666"
     inkscape:cx="120.00001"
     inkscape:cy="167.84054"
     inkscape:window-width="1366"
     inkscape:window-height="712"
     inkscape:window-x="0"
     inkscape:window-y="0"
     inkscape:window-maximized="1"
     inkscape:current-layer="layer6" />
  <g
     inkscape:groupmode="layer"
     id="layer1"
     inkscape:label="CardOutline"
     style="display:inline"
     transform="translate(94.217781,-340.71922)">
    <path
       id="path4-3"
       style="display:inline;fill:none;fill-rule:evenodd;stroke:#000000;stroke-width:0.25;stroke-miterlimit:4;stroke-dasharray:none;stroke-opacity:1"
       d="m 50.564743,435.96104 -0.534158,0.31687 c -0.688621,0.40844 -1.158412,0.85449 -1.590112,1.51001 l -0.346181,0.5258 -0.06384,25.43159 c -0.03506,13.98732 -0.046,32.74824 -0.02422,41.69094 0.03916,16.06607 0.04297,16.26663 0.30127,16.87005 h 2.54e-4 c 0.321831,0.75178 1.375871,1.69211 2.308962,2.06009 0.662802,0.26139 0.718825,0.26193 29.335815,0.23047 27.968057,-0.0307 28.683467,-0.0377 29.150357,-0.27706 0.72044,-0.36932 1.35524,-0.98173 1.76901,-1.70664 l 0.37116,-0.65029 9.8e-4,-41.53137 9.8e-4,-41.53137 -0.30833,-0.61121 c -0.3634,-0.72062 -1.20695,-1.59056 -1.92217,-1.98245 l -0.50968,-0.27931 -28.969947,-0.0331 z m 0.134234,0.49272 57.679013,0.0666 0.38933,0.21242 0.11632,0.0681 0.12061,0.0774 0.13902,0.0985 0.11304,0.0864 0.12364,0.1017 0.13751,0.12124 0.11153,0.10621 0.13145,0.13177 0.10774,0.11773 0.12692,0.13477 0.0918,0.11748 0.10345,0.13201 0.0951,0.13352 0.0785,0.11974 0.0739,0.12124 0.0603,0.11222 0.25661,0.50651 -0.003,82.81198 -0.30631,0.53682 -0.13726,0.22444 -0.18268,0.24876 -0.16754,0.20014 -0.19757,0.20466 -0.19327,0.17285 -0.23542,0.18336 -0.22481,0.1503 -0.2233,0.12574 -0.0212,0.0108 -0.0149,0.006 -0.0394,0.012 -0.027,0.006 -0.0507,0.01 -0.0277,0.004 -0.0606,0.008 -0.0573,0.008 -0.0679,0.006 -0.083,0.0105 -0.0868,0.004 -0.0913,0.006 -0.10698,0.007 -0.25056,0.012 -0.3048,0.0108 -0.3545,0.0105 -0.41809,0.009 -0.47538,0.009 -0.54929,0.008 -0.96108,0.0105 -1.14073,0.0108 -3.46459,0.0165 -34.84847,0.0471 -6.84314,-0.003 -1.74276,-0.004 -1.260078,-0.006 -1.065289,-0.008 -0.60506,-0.006 -0.534158,-0.008 -0.467798,-0.009 -0.401438,-0.009 -0.339623,-0.009 -0.289659,-0.012 -0.126666,-0.006 -0.11632,-0.006 -0.106979,-0.006 -0.08302,-0.006 -0.08302,-0.008 -0.07998,-0.006 -0.0545,-0.007 -0.10093,-0.0135 -0.09967,-0.0183 -0.03911,-0.009 -0.04844,-0.0138 -0.0376,-0.0135 -0.04692,-0.0183 -0.167539,-0.0726 -0.143315,-0.0699 -0.177886,-0.0985 -0.140542,-0.0864 -0.159971,-0.10773 -0.155176,-0.11372 -0.152651,-0.12124 -0.161231,-0.13803 -0.123887,-0.11372 -0.144835,-0.14729 -0.11026,-0.11974 -0.119098,-0.14253 -0.08604,-0.11374 -0.09361,-0.13951 -0.06485,-0.11098 -0.05601,-0.11974 -0.027,-0.0669 -0.03481,-0.10621 -0.0061,-0.027 -0.01211,-0.0669 -0.01338,-0.0939 -0.01514,-0.12124 -0.0044,-0.0531 -0.01362,-0.15632 -0.0099,-0.16206 -0.01133,-0.21243 -0.01059,-0.23947 -0.0088,-0.27305 -0.0091,-0.31236 -0.0076,-0.3532 -0.01059,-0.61573 -0.0091,-0.72319 -0.0106,-1.15404 -0.0106,-1.77404 -0.01641,-4.27149 -0.01968,-8.14897 -0.0061,-8.546 0.0015,-6.72963 0.0044,-7.16476 0.0091,-7.2692 0.01943,-9.71082 0.0651,-25.28355 0.257868,-0.39253 0.152402,-0.21993 0.166025,-0.21393 0.147862,-0.16834 0.169052,-0.17133 0.185708,-0.16508 0.168798,-0.13202 0.229612,-0.16082 0.227845,-0.14253 z"
       inkscape:export-filename="/home/doug/k40/52Cards/IndividualColorCards/2D.png"
       inkscape:export-xdpi="300"
       inkscape:export-ydpi="300" />
  </g>
  <g
     inkscape:groupmode="layer"
     id="layer2"
     inkscape:label="InnerRectangle"
     style="display:inline"
     transform="translate(94.217781,-340.71922)">
    <path
       id="path2-6"
       style="display:inline;fill:none;fill-rule:evenodd;stroke:#4c71a5;stroke-width:0.262609;stroke-opacity:1"
       d="m 63.13524,452.67467 0.0441,14.05596 c 0.0243,7.7307 0.0504,20.15551 0.0578,27.61093 l 0.0134,13.55547 16.409043,-0.0521 16.40903,-0.0519 0.0305,-24.32539 c 0.0169,-13.37898 -0.004,-25.78048 -0.0462,-27.55907 l -0.077,-3.23394 h -16.42035 z m 16.503153,0.25626 h 16.11155 l 0.005,0.73622 c 0.003,0.40503 0.0367,12.68075 0.0757,27.27927 l 0.0709,26.54279 -3.16634,0.004 c -1.74158,0.002 -8.99902,0.0153 -16.12745,0.0285 -7.12842,0.0133 -12.991523,-0.007 -13.029223,-0.0446 -0.0728,-0.0731 -0.16665,-54.20072 -0.0944,-54.4185 0.028,-0.0844 5.532343,-0.128 16.154193,-0.128 z"
       inkscape:export-filename="/home/doug/k40/52Cards/IndividualColorCards/2D.png"
       inkscape:export-xdpi="300"
       inkscape:export-ydpi="300" />
  </g>
  <g
     inkscape:groupmode="layer"
     id="layer5"
     inkscape:label="InnerSuit"
     style="display:inline"
     transform="translate(94.217781,-340.71922)">
    <path
       style="fill:#19100a;stroke-width:1"
       d="m 89.579786,466.21728 c -4.3e-5,-0.0202 0.115911,-0.26133 0.257672,-0.53575 0.24192,-0.4683 0.636338,-1.87098 0.640554,-2.27801 10e-4,-0.10395 -0.180194,0.0128 -0.417951,0.2691 -1.241667,1.33871 -3.329844,0.18603 -2.991282,-1.65121 0.124756,-0.677 0.842032,-1.9061 2.046772,-3.50729 0.581016,-0.77222 1.164082,-1.57344 1.295703,-1.7805 0.220021,-0.34613 0.250575,-0.35789 0.379035,-0.14598 0.07685,0.12677 0.7301,1.02779 1.451669,2.00227 0.721569,0.97448 1.462671,2.07603 1.646896,2.44788 0.561409,1.1332 0.407875,2.40831 -0.348106,2.89105 -0.76422,0.488 -1.818624,0.34672 -2.346251,-0.31437 -0.323102,-0.40484 -0.325929,-0.40562 -0.32583,-0.0909 1.29e-4,0.54962 0.481448,2.045 0.858961,2.6689 0.02177,0.036 -0.452577,0.0645 -1.054096,0.0635 -0.601517,-10e-4 -1.093704,-0.0185 -1.093746,-0.0387 z"
       id="path2758" />
    <path
       style="fill:#19100a;stroke-width:1"
       d="m 67.46012,466.34428 c 1.29e-4,-0.0202 0.116287,-0.26133 0.258049,-0.53575 0.258478,-0.50035 0.636993,-1.88183 0.640554,-2.33785 0.0015,-0.19103 -0.08807,-0.14062 -0.416246,0.23429 -0.344466,0.39354 -0.525367,0.48964 -1.026672,0.54544 -0.824195,0.0918 -1.337842,-0.13883 -1.648373,-0.73994 -0.60524,-1.17161 -0.218148,-2.28425 1.674302,-4.81257 0.653409,-0.87296 1.27398,-1.75137 1.379046,-1.95201 l 0.191031,-0.36482 0.246102,0.39964 c 0.135356,0.21981 0.771502,1.0949 1.413658,1.94465 1.259331,1.66644 1.717117,2.45217 1.901906,3.26437 0.260556,1.14522 -0.379522,2.14395 -1.450439,2.26315 -0.740366,0.0824 -1.280401,-0.13444 -1.613517,-0.64792 -0.25716,-0.3964 -0.258776,-0.39687 -0.260929,-0.0763 -0.0032,0.47028 0.342737,1.70388 0.638047,2.27553 l 0.255639,0.49486 -1.09123,0.041 c -0.600176,0.0226 -1.091094,0.0245 -1.090928,0.004 z"
       id="path2756" />
    <path
       style="fill:#19100a;stroke-width:1"
       d="m 78.520064,475.74228 c 0,-0.0202 0.124566,-0.27742 0.276814,-0.5715 0.314511,-0.6075 0.619907,-1.65078 0.621224,-2.12219 l 9e-4,-0.3175 -0.288713,0.33729 c -0.380359,0.44435 -0.747451,0.61521 -1.321777,0.61521 -1.571877,0 -2.188373,-1.40867 -1.36173,-3.1115 0.203454,-0.4191 0.923645,-1.49649 1.600426,-2.3942 0.676782,-0.89771 1.311089,-1.75204 1.409569,-1.89852 0.1716,-0.25522 0.209462,-0.22427 0.909065,0.7432 0.401505,0.55524 1.103453,1.51564 1.559887,2.13423 1.305078,1.76872 1.623354,2.95342 1.032643,3.84374 -0.53641,0.80847 -1.954255,0.89096 -2.719772,0.15822 l -0.445663,-0.42658 0.08807,0.57096 c 0.115033,0.74572 0.406853,1.61865 0.700347,2.09495 l 0.234766,0.381 h -1.148023 c -0.631425,0 -1.148035,-0.0166 -1.148035,-0.0368 z"
       id="path2752" />
    <path
       style="fill:#19100a;stroke-width:1"
       d="m 89.579709,485.16595 c 0,-0.0131 0.16897,-0.38745 0.375489,-0.83185 0.206518,-0.4444 0.4158,-1.12233 0.465068,-1.50651 l 0.08958,-0.6985 -0.453376,0.45807 c -0.520761,0.52614 -1.014123,0.66483 -1.699872,0.47784 -1.046056,-0.28523 -1.528021,-1.30621 -1.153941,-2.44446 0.261325,-0.79516 0.532933,-1.24892 1.521302,-2.54155 0.421426,-0.55116 1.040433,-1.39519 1.375571,-1.87562 l 0.609343,-0.87352 0.248304,0.4156 c 0.136567,0.22859 0.788336,1.12977 1.448376,2.00263 1.775866,2.34846 2.138787,3.23911 1.740031,4.27024 -0.280108,0.72433 -0.801344,1.06215 -1.639844,1.0628 -0.521149,3.8e-4 -0.68581,-0.0667 -1.125254,-0.45881 -0.291085,-0.2597 -0.513948,-0.38387 -0.512872,-0.28575 0.0044,0.39902 0.401571,1.80535 0.640554,2.26797 0.141761,0.27442 0.257749,0.51836 0.257749,0.5421 0,0.0237 -0.491897,0.0432 -1.093105,0.0432 -0.601207,0 -1.093104,-0.0107 -1.093104,-0.0238 z"
       id="path2750" />
    <path
       style="fill:#19100a;stroke-width:1"
       d="m 67.460579,485.26812 c -8.7e-5,-0.0198 0.137318,-0.30554 0.305347,-0.635 0.299313,-0.58688 0.594697,-1.68454 0.594697,-2.20991 0,-0.24542 -0.01972,-0.24011 -0.268556,0.0723 -1.081659,1.358 -3.075057,0.63648 -3.075057,-1.11303 0,-0.72246 0.477034,-1.72478 1.427727,-2.99988 0.494752,-0.66357 1.169915,-1.5986 1.500364,-2.07783 0.591399,-0.85767 0.603804,-0.86688 0.791415,-0.58784 0.104829,0.15592 0.722699,0.99017 1.373043,1.8539 1.433582,1.90395 1.790814,2.4918 1.990739,3.2759 0.281937,1.10573 -0.313132,2.1127 -1.363505,2.3073 -0.637252,0.11806 -1.068031,-0.0252 -1.571694,-0.52256 l -0.440649,-0.43517 0.08428,0.5379 c 0.115347,0.73621 0.305505,1.3222 0.648496,1.9984 l 0.289883,0.5715 h -1.143184 c -0.628751,0 -1.143254,-0.0162 -1.143342,-0.036 z"
       id="path2748" />
    <path
       style="fill:#19100a;stroke-width:1"
       d="m 90.411197,503.94134 c -0.124792,-0.19209 -0.716533,-0.99615 -1.314977,-1.78682 -1.449906,-1.9156 -1.960067,-2.89115 -1.95944,-3.74691 6.43e-4,-0.8312 0.351431,-1.42893 0.99439,-1.69423 0.687768,-0.28379 1.38274,-0.1556 1.914195,0.3531 0.41729,0.39942 0.434548,0.40433 0.434548,0.12361 0,-0.48599 -0.391081,-1.82685 -0.657844,-2.25548 l -0.25049,-0.40249 1.148855,0.004 1.148854,0.004 -0.245669,0.4112 c -0.262032,0.43858 -0.548205,1.33393 -0.691849,2.16459 l -0.08784,0.508 0.429041,-0.48829 c 0.349551,-0.39783 0.536943,-0.50031 1.011429,-0.55312 0.901497,-0.10035 1.489954,0.20083 1.816413,0.92965 0.506635,1.13109 0.142813,2.08045 -1.770608,4.62026 -0.605165,0.80327 -1.194718,1.61766 -1.31012,1.80975 -0.115399,0.19209 -0.248556,0.34925 -0.295901,0.34925 -0.04735,0 -0.188186,-0.15716 -0.31298,-0.34925 z"
       id="path2744" />
    <path
       style="fill:#19100a;stroke-width:1"
       d="m 67.58902,503.0694 c -1.889191,-2.61371 -2.166194,-3.04084 -2.367858,-3.65114 -0.250781,-0.75895 -0.257918,-1.23175 -0.02683,-1.77792 0.284863,-0.67329 0.771884,-0.96975 1.593098,-0.96975 0.644008,0 0.745475,0.0404 1.140062,0.45354 0.405934,0.42506 0.432938,0.43503 0.429992,0.15875 -0.0064,-0.60166 -0.441907,-1.94174 -0.85933,-2.64429 -0.02075,-0.0349 0.472615,-0.0635 1.096369,-0.0635 h 1.134099 l -0.239348,0.40062 c -0.131642,0.22034 -0.298401,0.59181 -0.370576,0.8255 -0.129455,0.41914 -0.357413,1.75838 -0.299303,1.75838 0.01645,0 0.232461,-0.20002 0.480017,-0.4445 0.409116,-0.40402 0.516852,-0.4445 1.183125,-0.4445 0.658754,0 0.776297,0.0427 1.160122,0.42179 0.764322,0.7548 0.732011,1.87028 -0.09257,3.19588 -0.217876,0.35026 -0.937831,1.37054 -1.599899,2.26729 -0.662066,0.89675 -1.203757,1.68256 -1.203757,1.74625 0,0.2866 -0.258163,0.0117 -1.157406,-1.2324 z"
       id="path2742" />
  </g>
  <g
     inkscape:groupmode="layer"
     id="layer6"
     inkscape:label="OuterSuit"
     style="display:inline"
     transform="translate(94.217781,-340.71922)">
    <path
       style="display:inline;fill:#19100a;stroke-width:1"
       d="m 54.68851,470.51612 c 0.447827,-0.87885 0.812586,-2.23548 0.811214,-3.0171 l -8.48e-4,-0.48293 -0.242375,0.36306 c -1.101687,1.65023 -3.860904,1.21955 -4.389581,-0.68516 -0.194788,-0.70178 -0.0076,-1.76046 0.480467,-2.71786 0.336799,-0.66063 1.442209,-2.28195 2.170188,-3.18304 0.225723,-0.2794 0.846164,-1.14989 1.378759,-1.93443 l 0.968352,-1.42643 0.321142,0.53743 c 0.176629,0.29559 1.078983,1.56613 2.005232,2.82343 2.40584,3.26571 3.015552,4.67207 2.5846,5.96162 -0.355637,1.06417 -1.237255,1.64065 -2.467243,1.61328 -0.758718,-0.0169 -1.224654,-0.23975 -1.759952,-0.84183 l -0.404891,-0.45541 v 0.36511 c 0,0.61341 0.487868,2.29124 0.897974,3.08824 0.213417,0.41475 0.387915,0.76667 0.387773,0.78204 -1.41e-4,0.0154 -0.710663,0.0279 -1.578934,0.0279 H 54.27171 Z"
       id="path2754"
       transform="translate(-1.0416666e-6,-1.1083333e-5)" />
    <path
       style="display:inline;fill:#19100a;stroke-width:1"
       d="m 102.81392,502.41734 c -0.30594,-0.47149 -1.02535,-1.4859 -1.59868,-2.25425 -1.511728,-2.02593 -1.815723,-2.48766 -2.314362,-3.5152 -0.934785,-1.92629 -0.448233,-3.59306 1.211112,-4.14887 0.98331,-0.32937 1.94393,-0.0542 2.55282,0.7312 l 0.41795,0.53912 v -0.43406 c 0,-0.66482 -0.47152,-2.35554 -0.89303,-3.20207 -0.20782,-0.41738 -0.36679,-0.76824 -0.35326,-0.77968 0.0135,-0.0114 0.3524,0.0387 0.75305,0.1114 0.50364,0.0914 0.9799,0.0916 1.5432,5.1e-4 0.44811,-0.0724 0.8247,-0.12364 0.83685,-0.11386 0.0122,0.01 -0.178,0.42742 -0.42259,0.92808 -0.45331,0.92793 -0.81496,2.29094 -0.81898,3.08662 l -0.002,0.44223 0.31679,-0.4604 c 0.83622,-1.21529 2.99683,-1.30905 3.90455,-0.16943 0.93899,1.17888 0.55267,3.06449 -1.09354,5.33752 -0.35247,0.48667 -1.09914,1.51354 -1.65927,2.28193 -0.56014,0.7684 -1.17839,1.63993 -1.3739,1.93675 -0.19551,0.29682 -0.3768,0.53967 -0.40285,0.53967 -0.0261,0 -0.29769,-0.38576 -0.60363,-0.85725 z"
       id="path2746"
       transform="translate(-1.0416666e-6,-1.1083333e-5)" />
  </g>
  <g
     inkscape:groupmode="layer"
     id="layer3"
     inkscape:label="CardName"
     style="display:inline"
     transform="translate(94.217781,-340.71922)">
    <path
       style="display:inline;fill:#19100a;stroke-width:1"
       d="m 53.314363,454.08536 c 0,-0.3215 0.534217,-2.9644 0.774828,-3.83327 0.736131,-2.65824 1.930902,-5.41186 3.085831,-7.112 0.189802,-0.2794 0.413565,-0.63659 0.497251,-0.79375 l 0.152158,-0.28575 h -2.319335 -2.319333 v 0.8948 0.89481 l -0.868054,-0.0376 -0.868053,-0.0375 v -1.7145 -1.7145 l 4.340267,-0.0334 4.340267,-0.0334 v 0.90034 c 0,0.86802 -0.02013,0.9262 -0.560905,1.62094 -2.009983,2.58225 -3.579173,6.46863 -4.418858,10.9441 l -0.107224,0.5715 -0.86442,0.0375 c -0.838052,0.0364 -0.86442,0.0282 -0.86442,-0.26828 z"
       id="path2760"
       transform="translate(-1.0416666e-6,-1.1083333e-5)" />
    <path
       style="display:inline;fill:#19100a;stroke-width:1"
       d="m 99.096147,519.44325 c 0,-0.80855 0.02677,-0.88328 0.557507,-1.55575 0.726866,-0.92099 1.694296,-2.50922 2.215336,-3.63691 0.78124,-1.69084 1.90492,-5.3551 2.19082,-7.14416 0.0675,-0.42244 0.16002,-0.57677 0.39967,-0.66676 0.33494,-0.12575 1.36556,-0.1606 1.4776,-0.05 0.0858,0.0847 -0.30544,2.21313 -0.65603,3.56917 -0.62816,2.42961 -1.91554,5.45723 -3.21654,7.5645 -0.28872,0.46766 -0.52495,0.882 -0.52495,0.92075 0,0.0388 1.01273,0.0705 2.25051,0.0705 h 2.25051 v -0.889 -0.889 h 0.9002 0.9002 v 1.778 1.778 h -4.37242 -4.372413 z"
       id="path2552"
       transform="translate(-1.0416666e-6,-1.1083333e-5)" />
  </g>
</svg>
