<?xml version="1.0" encoding="UTF-8" standalone="no"?>
<svg
   width="63.500004mm"
   height="88.899895mm"
   viewBox="142.0878 95.116776 63.500012 88.899887"
   version="1.1"
   id="svg10"
   sodipodi:docname="8C.svg"
   inkscape:version="1.1.1 (1:1.1+202109281949+c3084ef5ed)"
   inkscape:export-filename="/home/doug/k40/52Cards/IndividualColorCards/8C.png"
   inkscape:export-xdpi="300"
   inkscape:export-ydpi="300"
   xmlns:inkscape="http://www.inkscape.org/namespaces/inkscape"
   xmlns:sodipodi="http://sodipodi.sourceforge.net/DTD/sodipodi-0.dtd"
   xmlns="http://www.w3.org/2000/svg"
   xmlns:svg="http://www.w3.org/2000/svg">
  <defs
     id="defs14">
    <marker
       style="overflow:visible"
       id="marker2995"
       refX="0"
       refY="0"
       orient="auto"
       inkscape:stockid="Arrow1Lstart"
       inkscape:isstock="true">
      <path
         transform="matrix(0.8,0,0,0.8,10,0)"
         style="fill:#000000;fill-opacity:1;fill-rule:evenodd;stroke:#000000;stroke-width:1pt;stroke-opacity:1"
         d="M 0,0 5,-5 -12.5,0 5,5 Z"
         id="path2993" />
    </marker>
    <marker
       style="overflow:visible"
       id="marker2985"
       refX="0"
       refY="0"
       orient="auto"
       inkscape:stockid="Arrow1Lstart"
       inkscape:isstock="true">
      <path
         transform="matrix(0.8,0,0,0.8,10,0)"
         style="fill:#000000;fill-opacity:1;fill-rule:evenodd;stroke:#000000;stroke-width:1pt;stroke-opacity:1"
         d="M 0,0 5,-5 -12.5,0 5,5 Z"
         id="path2983" />
    </marker>
    <marker
       style="overflow:visible"
       id="marker2791"
       refX="0"
       refY="0"
       orient="auto"
       inkscape:stockid="Arrow1Lstart"
       inkscape:isstock="true">
      <path
         transform="matrix(0.8,0,0,0.8,10,0)"
         style="fill:#000000;fill-opacity:1;fill-rule:evenodd;stroke:#000000;stroke-width:1pt;stroke-opacity:1"
         d="M 0,0 5,-5 -12.5,0 5,5 Z"
         id="path2789" />
    </marker>
    <marker
       style="overflow:visible"
       id="marker2781"
       refX="0"
       refY="0"
       orient="auto"
       inkscape:stockid="Arrow1Lstart"
       inkscape:isstock="true">
      <path
         transform="matrix(0.8,0,0,0.8,10,0)"
         style="fill:#000000;fill-opacity:1;fill-rule:evenodd;stroke:#000000;stroke-width:1pt;stroke-opacity:1"
         d="M 0,0 5,-5 -12.5,0 5,5 Z"
         id="path2779" />
    </marker>
    <marker
       style="overflow:visible"
       id="marker2417"
       refX="0"
       refY="0"
       orient="auto"
       inkscape:stockid="Arrow1Lstart"
       inkscape:isstock="true">
      <path
         transform="matrix(0.8,0,0,0.8,10,0)"
         style="fill:#000000;fill-opacity:1;fill-rule:evenodd;stroke:#000000;stroke-width:1pt;stroke-opacity:1"
         d="M 0,0 5,-5 -12.5,0 5,5 Z"
         id="path2415" />
    </marker>
    <marker
       style="overflow:visible"
       id="marker2383"
       refX="0"
       refY="0"
       orient="auto"
       inkscape:stockid="Arrow1Lstart"
       inkscape:isstock="true">
      <path
         transform="matrix(0.8,0,0,0.8,10,0)"
         style="fill:#000000;fill-opacity:1;fill-rule:evenodd;stroke:#000000;stroke-width:1pt;stroke-opacity:1"
         d="M 0,0 5,-5 -12.5,0 5,5 Z"
         id="path2381" />
    </marker>
    <marker
       style="overflow:visible"
       id="marker2355"
       refX="0"
       refY="0"
       orient="auto"
       inkscape:stockid="Arrow1Lstart"
       inkscape:isstock="true">
      <path
         transform="matrix(0.8,0,0,0.8,10,0)"
         style="fill:#000000;fill-opacity:1;fill-rule:evenodd;stroke:#000000;stroke-width:1pt;stroke-opacity:1"
         d="M 0,0 5,-5 -12.5,0 5,5 Z"
         id="path2353" />
    </marker>
    <marker
       style="overflow:visible"
       id="Arrow1Lstart"
       refX="0"
       refY="0"
       orient="auto"
       inkscape:stockid="Arrow1Lstart"
       inkscape:isstock="true">
      <path
         transform="matrix(0.8,0,0,0.8,10,0)"
         style="fill:#000000;fill-opacity:1;fill-rule:evenodd;stroke:#000000;stroke-width:1pt;stroke-opacity:1"
         d="M 0,0 5,-5 -12.5,0 5,5 Z"
         id="path2071" />
    </marker>
  </defs>
  <sodipodi:namedview
     id="namedview12"
     pagecolor="#ffffff"
     bordercolor="#666666"
     borderopacity="1.0"
     inkscape:pageshadow="2"
     inkscape:pageopacity="0.0"
     inkscape:pagecheckerboard="0"
     inkscape:document-units="mm"
     showgrid="false"
     showborder="false"
     fit-margin-top="0"
     fit-margin-left="0"
     fit-margin-right="0"
     fit-margin-bottom="0"
     inkscape:zoom="1.4874999"
     inkscape:cx="120.00001"
     inkscape:cy="167.7311"
     inkscape:window-width="1366"
     inkscape:window-height="712"
     inkscape:window-x="0"
     inkscape:window-y="0"
     inkscape:window-maximized="1"
     inkscape:current-layer="layer1" />
  <g
     inkscape:groupmode="layer"
     id="layer1"
     inkscape:label="CardOutline"
     style="display:inline"
     transform="translate(94.217781,-340.71922)">
    <path
       id="path4-3"
       style="display:inline;fill:none;fill-rule:evenodd;stroke:#000000;stroke-width:0.25;stroke-miterlimit:4;stroke-dasharray:none;stroke-opacity:1"
       d="m 50.564743,435.96104 -0.534158,0.31687 c -0.688621,0.40844 -1.158412,0.85449 -1.590112,1.51001 l -0.346181,0.5258 -0.06384,25.43159 c -0.03506,13.98732 -0.046,32.74824 -0.02422,41.69094 0.03916,16.06607 0.04297,16.26663 0.30127,16.87005 h 2.54e-4 c 0.321831,0.75178 1.375871,1.69211 2.308962,2.06009 0.662802,0.26139 0.718825,0.26193 29.335815,0.23047 27.968057,-0.0307 28.683467,-0.0377 29.150357,-0.27706 0.72044,-0.36932 1.35524,-0.98173 1.76901,-1.70664 l 0.37116,-0.65029 9.8e-4,-41.53137 9.8e-4,-41.53137 -0.30833,-0.61121 c -0.3634,-0.72062 -1.20695,-1.59056 -1.92217,-1.98245 l -0.50968,-0.27931 -28.969947,-0.0331 z m 0.134234,0.49272 57.679013,0.0666 0.38933,0.21242 0.11632,0.0681 0.12061,0.0774 0.13902,0.0985 0.11304,0.0864 0.12364,0.1017 0.13751,0.12124 0.11153,0.10621 0.13145,0.13177 0.10774,0.11773 0.12692,0.13477 0.0918,0.11748 0.10345,0.13201 0.0951,0.13352 0.0785,0.11974 0.0739,0.12124 0.0603,0.11222 0.25661,0.50651 -0.003,82.81198 -0.30631,0.53682 -0.13726,0.22444 -0.18268,0.24876 -0.16754,0.20014 -0.19757,0.20466 -0.19327,0.17285 -0.23542,0.18336 -0.22481,0.1503 -0.2233,0.12574 -0.0212,0.0108 -0.0149,0.006 -0.0394,0.012 -0.027,0.006 -0.0507,0.01 -0.0277,0.004 -0.0606,0.008 -0.0573,0.008 -0.0679,0.006 -0.083,0.0105 -0.0868,0.004 -0.0913,0.006 -0.10698,0.007 -0.25056,0.012 -0.3048,0.0108 -0.3545,0.0105 -0.41809,0.009 -0.47538,0.009 -0.54929,0.008 -0.96108,0.0105 -1.14073,0.0108 -3.46459,0.0165 -34.84847,0.0471 -6.84314,-0.003 -1.74276,-0.004 -1.260078,-0.006 -1.065289,-0.008 -0.60506,-0.006 -0.534158,-0.008 -0.467798,-0.009 -0.401438,-0.009 -0.339623,-0.009 -0.289659,-0.012 -0.126666,-0.006 -0.11632,-0.006 -0.106979,-0.006 -0.08302,-0.006 -0.08302,-0.008 -0.07998,-0.006 -0.0545,-0.007 -0.10093,-0.0135 -0.09967,-0.0183 -0.03911,-0.009 -0.04844,-0.0138 -0.0376,-0.0135 -0.04692,-0.0183 -0.167539,-0.0726 -0.143315,-0.0699 -0.177886,-0.0985 -0.140542,-0.0864 -0.159971,-0.10773 -0.155176,-0.11372 -0.152651,-0.12124 -0.161231,-0.13803 -0.123887,-0.11372 -0.144835,-0.14729 -0.11026,-0.11974 -0.119098,-0.14253 -0.08604,-0.11374 -0.09361,-0.13951 -0.06485,-0.11098 -0.05601,-0.11974 -0.027,-0.0669 -0.03481,-0.10621 -0.0061,-0.027 -0.01211,-0.0669 -0.01338,-0.0939 -0.01514,-0.12124 -0.0044,-0.0531 -0.01362,-0.15632 -0.0099,-0.16206 -0.01133,-0.21243 -0.01059,-0.23947 -0.0088,-0.27305 -0.0091,-0.31236 -0.0076,-0.3532 -0.01059,-0.61573 -0.0091,-0.72319 -0.0106,-1.15404 -0.0106,-1.77404 -0.01641,-4.27149 -0.01968,-8.14897 -0.0061,-8.546 0.0015,-6.72963 0.0044,-7.16476 0.0091,-7.2692 0.01943,-9.71082 0.0651,-25.28355 0.257868,-0.39253 0.152402,-0.21993 0.166025,-0.21393 0.147862,-0.16834 0.169052,-0.17133 0.185708,-0.16508 0.168798,-0.13202 0.229612,-0.16082 0.227845,-0.14253 z"
       inkscape:export-filename="/home/doug/k40/52Cards/IndividualColorCards/2D.png"
       inkscape:export-xdpi="300"
       inkscape:export-ydpi="300" />
  </g>
  <g
     inkscape:groupmode="layer"
     id="layer2"
     inkscape:label="InnerRectangle"
     style="display:inline"
     transform="translate(94.217781,-340.71922)">
    <path
       id="path2-6"
       style="display:inline;fill:none;fill-rule:evenodd;stroke:#4c71a5;stroke-width:0.262609;stroke-opacity:1"
       d="m 63.13524,452.67467 0.0441,14.05596 c 0.0243,7.7307 0.0504,20.15551 0.0578,27.61093 l 0.0134,13.55547 16.409043,-0.0521 16.40903,-0.0519 0.0305,-24.32539 c 0.0169,-13.37898 -0.004,-25.78048 -0.0462,-27.55907 l -0.077,-3.23394 h -16.42035 z m 16.503153,0.25626 h 16.11155 l 0.005,0.73622 c 0.003,0.40503 0.0367,12.68075 0.0757,27.27927 l 0.0709,26.54279 -3.16634,0.004 c -1.74158,0.002 -8.99902,0.0153 -16.12745,0.0285 -7.12842,0.0133 -12.991523,-0.007 -13.029223,-0.0446 -0.0728,-0.0731 -0.16665,-54.20072 -0.0944,-54.4185 0.028,-0.0844 5.532343,-0.128 16.154193,-0.128 z"
       inkscape:export-filename="/home/doug/k40/52Cards/IndividualColorCards/2D.png"
       inkscape:export-xdpi="300"
       inkscape:export-ydpi="300" />
  </g>
  <g
     inkscape:groupmode="layer"
     id="layer5"
     inkscape:label="InnerSuit"
     style="display:inline"
     transform="translate(94.217781,-340.71922)">
    <path
       style="display:inline;fill:#170f0a;stroke-width:1"
       d="m 88.317498,465.21594 c 0,-0.0249 0.143578,-0.32866 0.319064,-0.67497 0.358722,-0.7079 0.735041,-2.17662 0.662426,-2.58535 -0.04682,-0.26354 -0.0498,-0.26385 -0.145162,-0.0151 -0.23907,0.6237 -0.402227,0.85046 -0.779853,1.08384 -0.825287,0.51006 -2.107284,0.18385 -2.536054,-0.64529 -0.248995,-0.48151 -0.237796,-1.33008 0.02339,-1.77223 0.424453,-0.71855 1.553668,-1.08082 2.384422,-0.76496 0.411692,0.15652 0.416509,0.006 0.01195,-0.3744 -0.884966,-0.83138 -0.647412,-2.42522 0.445721,-2.9905 0.537149,-0.27777 1.282787,-0.23589 1.786062,0.10032 0.957186,0.63944 1.123451,1.8387 0.382708,2.76046 -0.46582,0.57965 -0.494747,0.69622 -0.123464,0.49751 0.1543,-0.0826 0.570829,-0.12092 0.961586,-0.0885 0.581093,0.0482 0.759932,0.12772 1.138604,0.5064 0.351395,0.35139 0.464115,0.58127 0.517571,1.05553 0.225958,2.0047 -2.455056,2.75429 -3.360989,0.9397 -0.275476,-0.55177 -0.280609,-0.55493 -0.28575,-0.1758 -0.0071,0.52281 0.323932,1.7602 0.678763,2.53728 l 0.291027,0.63734 -1.186013,0.007 c -0.652305,0.004 -1.186009,-0.0134 -1.186009,-0.0383 z"
       id="path2802"
       transform="translate(-1.0416666e-6,-1.1083333e-5)" />
    <path
       style="display:inline;fill:#170f0a;stroke-width:1"
       d="m 68.8338,464.59531 c 0.359544,-0.813 0.69085,-2.05582 0.678723,-2.54608 -0.0085,-0.34539 -0.02002,-0.33783 -0.240974,0.15867 -0.442283,0.99387 -1.695973,1.37555 -2.627394,0.7999 -0.547175,-0.33818 -0.805657,-0.83841 -0.805657,-1.55919 0,-1.21474 1.379634,-2.06886 2.595232,-1.60669 0.41947,0.15948 0.410313,0.0934 -0.06991,-0.50412 -1.007082,-1.25318 -0.21307,-3.04874 1.348178,-3.04874 1.565285,0 2.348387,1.80411 1.332058,3.0688 -0.463521,0.57678 -0.470836,0.64262 -0.05379,0.48406 0.830754,-0.31586 1.959969,0.0464 2.384422,0.76496 0.261186,0.44215 0.272384,1.29072 0.02339,1.77223 -0.432929,0.83719 -1.7291,1.15798 -2.580782,0.63872 -0.245049,-0.1494 -0.517858,-0.47841 -0.657779,-0.79327 -0.207914,-0.46787 -0.240245,-0.49512 -0.248047,-0.20906 -0.01291,0.47326 0.44023,2.16942 0.732761,2.74283 l 0.249379,0.48883 -1.177118,0.007 -1.17712,0.007 0.294433,-0.66577 z"
       id="path2800"
       transform="translate(-1.0416666e-6,-1.1083333e-5)" />
    <path
       style="display:inline;fill:#170f0a;stroke-width:1"
       d="m 78.411412,474.98536 c 6.2e-5,-0.0199 0.08215,-0.16279 0.182411,-0.3175 0.323659,-0.49939 0.833902,-2.21513 0.826795,-2.78017 l -0.0069,-0.54911 -0.21767,0.56801 c -0.707494,1.8462 -3.452977,1.37408 -3.451042,-0.59345 0.0011,-1.20838 1.276201,-2.10422 2.424912,-1.70377 0.562193,0.19598 0.595752,0.0988 0.143677,-0.41609 -0.683087,-0.77799 -0.685008,-1.66022 -0.0053,-2.43436 1.015326,-1.1564 2.790536,-0.62109 3.10182,0.93533 0.101536,0.50768 -0.243029,1.4724 -0.620257,1.73662 -0.327748,0.22957 -0.212879,0.39366 0.142447,0.2035 0.71168,-0.38088 2.006676,0.0702 2.364126,0.82345 0.421173,0.88756 0.107648,1.99026 -0.681977,2.39859 -0.910089,0.47063 -2.189848,0.0686 -2.478079,-0.77847 -0.34735,-1.02081 -0.446542,-0.42449 -0.131358,0.78971 0.108066,0.41631 0.336666,1.06387 0.508,1.43903 0.171333,0.37515 0.311413,0.68948 0.311287,0.6985 -1.25e-4,0.009 -0.543099,0.0164 -1.206611,0.0164 -0.663511,0 -1.206335,-0.0163 -1.206274,-0.0362 z"
       id="path2784"
       transform="translate(-1.0416666e-6,-1.1083333e-5)" />
    <path
       style="display:inline;fill:#170f0a;stroke-width:1"
       d="m 88.317524,484.6367 c 0,-0.0203 0.11782,-0.26776 0.261824,-0.55003 0.26706,-0.52343 0.754176,-2.24924 0.754176,-2.67192 0,-0.12853 -0.05715,-0.23369 -0.127,-0.23369 -0.06985,0 -0.127,0.0886 -0.127,0.19681 0,0.10824 -0.08669,0.36445 -0.19265,0.56935 -0.534167,1.03296 -2.358595,0.99905 -3.050351,-0.0567 -0.298443,-0.45549 -0.285985,-1.40397 0.02389,-1.81901 0.5893,-0.7893 1.368471,-1.03858 2.371793,-0.75879 l 0.359183,0.10016 -0.405611,-0.50472 c -0.725853,-0.90323 -0.597214,-2.07655 0.299809,-2.73457 0.551269,-0.40439 1.560072,-0.36458 2.149261,0.0848 0.882467,0.67309 0.931619,1.76279 0.120249,2.66594 -0.433478,0.48251 -0.44498,0.51449 -0.151573,0.42148 0.700955,-0.22221 1.330561,-0.21082 1.777999,0.0322 0.921954,0.50066 1.24631,1.46984 0.803915,2.40212 -0.65478,1.37985 -2.798755,1.19788 -3.317315,-0.28155 l -0.133547,-0.381 -0.01002,0.42617 c -0.0136,0.5781 0.325434,1.84191 0.683878,2.54926 l 0.294195,0.58055 h -1.19255 c -0.655908,0 -1.192555,-0.0166 -1.192555,-0.0368 z"
       id="path2780"
       transform="translate(-1.0416666e-6,-1.1083333e-5)" />
    <path
       style="display:inline;fill:#170f0a;stroke-width:1"
       d="m 68.505524,484.63759 c 0,-0.0198 0.143282,-0.31873 0.318406,-0.66432 0.333566,-0.65826 0.696987,-1.99632 0.689386,-2.53821 -0.0037,-0.26713 -0.04707,-0.22955 -0.273101,0.23687 -0.330052,0.68109 -0.8732,1.03203 -1.598248,1.03266 -1.126631,9.7e-4 -1.803443,-0.65431 -1.803443,-1.7461 0,-0.6369 0.04117,-0.73748 0.482525,-1.17884 0.568137,-0.56813 1.238212,-0.74825 1.897202,-0.50995 0.466199,0.16858 0.746375,0.0677 0.380572,-0.13698 -0.320678,-0.17946 -0.728299,-1.04548 -0.728299,-1.54732 0,-0.23803 0.127857,-0.61809 0.28575,-0.8494 0.855161,-1.25282 2.648256,-1.10472 3.195895,0.26396 0.269479,0.6735 0.157181,1.28393 -0.340467,1.85072 -0.433358,0.49357 -0.407941,0.61748 0.08798,0.42893 0.512107,-0.1947 0.914798,-0.15971 1.479888,0.12857 0.628134,0.32045 1.005008,0.91384 1.005008,1.58238 0,1.00312 -0.748558,1.71494 -1.802494,1.71403 -0.737862,-6.4e-4 -1.325481,-0.38056 -1.622538,-1.04903 l -0.239077,-0.538 -0.009,0.42617 c -0.0122,0.57977 0.327374,1.84365 0.684934,2.54926 l 0.294195,0.58057 h -1.19255 c -0.655907,0 -1.192554,-0.0162 -1.192554,-0.036 z"
       id="path2778"
       transform="translate(-1.0416666e-6,-1.1083333e-5)" />
    <path
       style="display:inline;fill:#170f0a;stroke-width:1"
       d="m 78.790543,494.41141 c -0.598968,-0.31354 -1.051736,-1.18095 -0.967625,-1.85376 0.03423,-0.27385 0.242121,-0.7531 0.461968,-1.065 0.304525,-0.43204 0.344519,-0.54574 0.167928,-0.47745 -0.825497,0.31926 -1.701028,0.15126 -2.261726,-0.43398 -0.298577,-0.31165 -0.375927,-0.51881 -0.415681,-1.11328 -0.0445,-0.66542 -0.01402,-0.77191 0.342685,-1.19729 0.933054,-1.1127 2.446487,-0.88833 3.070083,0.45515 l 0.241253,0.51976 -0.0749,-0.74074 c -0.07719,-0.76337 -0.380485,-1.77835 -0.737981,-2.46968 l -0.203888,-0.39427 1.197014,-0.003 1.197014,-0.003 -0.302596,0.66261 c -0.363999,0.79708 -0.697119,2.03169 -0.691425,2.56255 0.0039,0.36721 0.01674,0.35753 0.262019,-0.1983 0.447609,-1.01432 1.605139,-1.42074 2.49725,-0.87682 1.120352,0.68309 1.230084,2.23232 0.214689,3.03104 -0.412772,0.32468 -1.276052,0.46095 -1.757463,0.27741 -0.493135,-0.18801 -0.535807,-0.10211 -0.153961,0.3099 0.929078,1.00249 0.643003,2.55421 -0.559608,3.0354 -0.6598,0.26399 -0.980442,0.25838 -1.525049,-0.0267 z"
       id="path2772"
       transform="translate(-1.0416666e-6,-1.1083333e-5)" />
    <path
       style="display:inline;fill:#170f0a;stroke-width:1"
       d="m 88.571524,504.21643 c -0.474021,-0.29692 -0.780911,-0.77115 -0.85461,-1.32062 -0.09035,-0.67359 0.02863,-1.05903 0.488601,-1.58291 0.423419,-0.48225 0.399923,-0.51167 -0.257935,-0.323 -1.461969,0.41929 -2.866523,-1.16905 -2.212785,-2.50232 0.463873,-0.94605 1.555675,-1.30873 2.53738,-0.84289 0.428562,0.20337 0.807349,0.72864 0.807349,1.11957 0,0.10825 0.05824,0.19681 0.129419,0.19681 0.07118,0 0.103355,-0.12859 0.0715,-0.28575 -0.03186,-0.15716 -0.09151,-0.53325 -0.13256,-0.83575 -0.06146,-0.45286 -0.280561,-1.08472 -0.778135,-2.244 -0.03413,-0.0795 0.391763,-0.127 1.139325,-0.127 h 1.193836 l -0.287438,0.5715 c -0.391667,0.77873 -0.703223,1.90572 -0.69003,2.49605 0.01058,0.4736 0.01422,0.47742 0.119667,0.12555 0.50753,-1.69361 3.154488,-1.59467 3.496995,0.13072 0.19383,0.97643 -0.467598,2.00841 -1.387101,2.1642 -0.289287,0.049 -0.554552,0.0842 -0.589477,0.0783 -0.03492,-0.006 -0.291779,-0.0516 -0.570787,-0.10139 l -0.507287,-0.0906 0.349831,0.32421 c 0.897812,0.83206 0.794138,2.40073 -0.198673,3.00608 -0.494281,0.30138 -1.420705,0.32283 -1.867084,0.0432 z"
       id="path2766"
       transform="translate(-1.0416666e-6,-1.1083333e-5)" />
    <path
       style="display:inline;fill:#170f0a;stroke-width:1"
       d="m 68.713969,504.18103 c -0.545496,-0.35964 -0.841658,-0.89163 -0.842608,-1.51357 -8.89e-4,-0.6169 0.136818,-0.94488 0.609941,-1.45215 0.346473,-0.37147 0.259013,-0.43223 -0.310507,-0.2157 -0.52817,0.20081 -1.493022,-0.0686 -1.876067,-0.5238 -0.462864,-0.55008 -0.623098,-1.14896 -0.464753,-1.73701 0.421974,-1.56708 2.618951,-1.77789 3.325161,-0.31905 0.767868,1.5862 0.217037,-1.03083 -0.594433,-2.82419 -0.0361,-0.0798 0.39148,-0.127 1.150301,-0.127 0.664272,0 1.190507,0.0286 1.169411,0.0635 -0.513202,0.84963 -0.979761,2.35408 -0.96493,3.1115 l 0.0099,0.508 0.126367,-0.4445 c 0.250583,-0.88144 0.946634,-1.33125 1.915916,-1.23811 1.074413,0.10324 1.826831,1.15001 1.567972,2.18139 -0.2337,0.93113 -1.398317,1.6078 -2.326241,1.35159 -0.577472,-0.15945 -0.642741,-0.10669 -0.296434,0.23962 0.828444,0.82844 0.618476,2.47601 -0.381442,2.99309 -0.505787,0.26155 -1.378614,0.23581 -1.817601,-0.0536 z"
       id="path2764"
       transform="translate(-1.0416666e-6,-1.1083333e-5)" />
  </g>
  <g
     inkscape:groupmode="layer"
     id="layer6"
     inkscape:label="OuterSuit"
     style="display:inline"
     transform="translate(94.217781,-340.71922)">
    <path
       style="display:inline;fill:#170f0a;stroke-width:1"
       d="m 54.281484,469.30476 c 0,-0.0386 0.139154,-0.34475 0.309231,-0.68038 0.44699,-0.88209 0.806786,-2.01626 0.966804,-3.0476 0.173292,-1.11689 0.03715,-1.40259 -0.255881,-0.53699 -0.265954,0.78561 -0.50925,1.06973 -1.204034,1.40607 -1.013789,0.49076 -2.265843,0.18362 -2.959674,-0.72604 -0.2764,-0.36238 -0.350697,-0.61154 -0.384284,-1.28875 -0.04953,-0.99858 0.171662,-1.51495 0.897311,-2.09476 0.397638,-0.31773 0.623407,-0.39338 1.303032,-0.43666 0.490204,-0.0312 0.976991,0.0118 1.205849,0.10663 0.565369,0.23418 0.589151,0.0743 0.06866,-0.46167 -0.62028,-0.63869 -0.906656,-1.59803 -0.704178,-2.35895 0.300579,-1.12959 1.236519,-1.8806 2.343688,-1.8806 0.781043,0 1.338042,0.25368 1.807503,0.82322 0.888342,1.07771 0.813403,2.44996 -0.192513,3.52521 -0.386636,0.41328 -0.324724,0.53638 0.174341,0.34663 0.51625,-0.19627 1.452522,-0.17854 1.969096,0.0373 0.85013,0.3552 1.514949,1.32402 1.512345,2.20387 -0.0042,1.40892 -1.329244,2.58825 -2.730626,2.43029 -1.056735,-0.11911 -1.746005,-0.76974 -2.052039,-1.93702 -0.09155,-0.34921 -0.10346,-0.3287 -0.142677,0.24576 -0.05472,0.80149 0.27916,2.16169 0.824163,3.35763 0.235254,0.51623 0.411456,0.95298 0.391561,0.97055 -0.0199,0.0176 -0.379074,-0.0162 -0.798174,-0.0751 -0.694318,-0.0976 -1.288755,-0.0735 -2.06375,0.0836 -0.157163,0.0319 -0.28575,0.0264 -0.28575,-0.0122 z"
       id="path2794"
       transform="translate(-1.0416666e-6,-1.1083333e-5)" />
    <path
       style="display:inline;fill:#170f0a;stroke-width:1"
       d="m 102.29655,503.18361 c -0.58306,-0.29731 -1.10542,-0.98191 -1.29433,-1.69633 -0.20384,-0.77085 0.0121,-1.56636 0.61691,-2.27298 0.48445,-0.56596 0.47146,-0.75888 -0.0356,-0.52787 -0.50326,0.2293 -1.52962,0.17954 -2.079141,-0.1008 -1.379406,-0.70372 -1.780439,-2.32589 -0.881721,-3.56653 1.183187,-1.63335 3.762362,-1.17343 4.123072,0.73521 0.14146,0.74851 0.34558,0.4669 0.25937,-0.35785 -0.0962,-0.92021 -0.35947,-1.86287 -0.85797,-3.07174 -0.20222,-0.49037 -0.36764,-0.89802 -0.36761,-0.90588 3e-5,-0.008 0.70409,-0.0143 1.56458,-0.0143 h 1.56453 l -0.42144,0.91213 c -0.66013,1.42869 -1.165,3.85037 -0.80273,3.85037 0.0698,0 0.127,-0.12081 0.127,-0.26846 0,-0.14765 0.12493,-0.49073 0.27762,-0.76241 0.33583,-0.59753 1.30318,-1.12813 2.05672,-1.12813 2.39161,0 3.24917,3.24844 1.17597,4.45457 -0.57363,0.33373 -0.74523,0.37331 -1.41481,0.32637 -0.4191,-0.0294 -0.93345,-0.0972 -1.143,-0.15077 l -0.381,-0.0974 0.52295,0.57002 c 0.28762,0.31352 0.59469,0.7874 0.68237,1.05308 0.21691,0.65723 0.0819,1.64719 -0.30433,2.23074 -0.59437,0.89815 -2.02981,1.27721 -2.98746,0.78889 z"
       id="path2770"
       transform="translate(-1.0416666e-6,-1.1083333e-5)" />
  </g>
  <g
     inkscape:groupmode="layer"
     id="layer3"
     inkscape:label="CardName"
     style="display:inline"
     transform="translate(94.217781,-340.71922)">
    <path
       id="path2570"
       style="display:inline;fill:#170f0a;stroke-width:1"
       d="m 103.37922,506.45288 c -0.48695,-0.007 -0.98216,0.058 -1.46916,0.20257 -3.272288,0.97177 -4.256532,4.85203 -1.79265,7.06727 l 0.6382,0.5731 -0.26407,0.23874 c -0.36133,0.32651 -0.847937,1.31801 -0.945158,1.92598 -0.206893,1.29384 0.727598,2.79002 2.169898,3.47472 2.39114,1.13518 5.26482,-0.57593 5.26892,-3.13727 10e-4,-0.81763 -0.3924,-1.83134 -0.8847,-2.27686 -0.23987,-0.21708 -0.23039,-0.2362 0.41755,-0.82838 1.00413,-0.91771 1.29398,-1.58625 1.29398,-2.98431 0,-0.92772 -0.0534,-1.25076 -0.28371,-1.71462 -0.77634,-1.56375 -2.40999,-2.51478 -4.1491,-2.54094 z m -0.14262,1.78594 c 0.4916,-0.003 1.00079,0.0617 1.30948,0.19069 1.24821,0.5214 1.98955,2.01602 1.56011,3.14554 -0.1853,0.48737 -0.88768,1.21853 -1.44177,1.5012 -1.5181,0.77448 -3.44219,0.0949 -4.08451,-1.4428 -0.51312,-1.22837 0.16806,-2.65345 1.54461,-3.2303 0.25792,-0.10807 0.6783,-0.16206 1.11208,-0.16433 z m 0.0134,6.78202 c 0.55401,0.003 1.12153,0.21608 1.54254,0.66249 0.34522,0.36603 0.416,0.53988 0.416,1.02319 0,0.6645 -0.40078,1.30373 -1.01648,1.62212 -0.37491,0.1939 -1.30564,0.24259 -1.65054,0.0863 -0.49477,-0.2242 -0.80345,-0.50611 -1.02681,-0.93845 -0.29367,-0.56841 -0.29937,-0.71819 -0.0512,-1.33635 0.29364,-0.73131 1.02726,-1.12302 1.78645,-1.11931 z"
       transform="translate(-1.0416666e-6,-1.1083333e-5)" />
    <path
       id="path2806"
       style="display:inline;fill:#170f0a;stroke-width:1"
       d="m 55.811586,440.27966 c -0.895073,0.0117 -1.789192,0.31251 -2.494423,0.93328 -1.363403,1.20011 -1.55075,2.84122 -0.502296,4.39921 l 0.433568,0.64441 -0.663009,0.66663 c -0.962837,0.96775 -1.275273,1.6926 -1.272276,2.95227 0.0029,1.20821 0.251889,1.85714 1.061953,2.76831 0.497536,0.55963 1.371137,1.11511 2.16059,1.37407 0.174625,0.0573 0.860365,0.0895 1.52394,0.0713 1.467527,-0.0403 2.360289,-0.39592 3.223058,-1.28365 0.822241,-0.84602 1.144937,-1.58918 1.201476,-2.7683 0.04223,-0.88075 0.0077,-1.06545 -0.336928,-1.80196 -0.226002,-0.48295 -0.629053,-1.05557 -0.979271,-1.39113 l -0.595312,-0.56999 0.316261,-0.42168 c 0.602039,-0.80393 0.773163,-1.27555 0.775663,-2.1363 0.0021,-0.67388 -0.06505,-0.94981 -0.365871,-1.50172 -0.691345,-1.2684 -2.090811,-1.95308 -3.487123,-1.93477 z m 0.120406,1.79318 c 0.656476,-4.3e-4 1.312603,0.25916 1.693437,0.77876 0.566983,0.77359 0.208706,2.00117 -0.706419,2.42052 v -5.3e-4 c -1.08503,0.49722 -2.149052,0.2568 -2.720248,-0.61495 -0.296859,-0.45307 -0.277235,-1.37191 0.03876,-1.80299 0.38127,-0.51995 1.037992,-0.78041 1.694471,-0.78083 z m 0.0093,5.09529 c 0.110173,8.7e-4 0.219533,0.008 0.328147,0.0233 1.460804,0.20022 2.58952,1.40179 2.58072,2.74763 -0.0057,0.86927 -0.969309,2.02829 -1.901693,2.28772 -0.789308,0.21962 -1.788083,0.1476 -2.491319,-0.17984 -1.136484,-0.52918 -1.676292,-1.60358 -1.416969,-2.81946 0.242364,-1.13637 1.601092,-2.06968 2.901114,-2.05931 z"
       transform="translate(-1.0416666e-6,-1.1083333e-5)" />
  </g>
</svg>
