<?xml version="1.0" encoding="UTF-8" standalone="no"?>
<svg
   width="2.5000002in"
   height="3.4999959in"
   viewBox="142.0878 95.116776 63.500012 88.899887"
   version="1.1"
   id="svg10"
   sodipodi:docname="8D.svg"
   inkscape:version="1.1.1 (1:1.1+202109281949+c3084ef5ed)"
   inkscape:export-filename="/home/doug/k40/52Cards/IndividualColorCards/8D.png"
   inkscape:export-xdpi="300"
   inkscape:export-ydpi="300"
   xmlns:inkscape="http://www.inkscape.org/namespaces/inkscape"
   xmlns:sodipodi="http://sodipodi.sourceforge.net/DTD/sodipodi-0.dtd"
   xmlns="http://www.w3.org/2000/svg"
   xmlns:svg="http://www.w3.org/2000/svg">
  <defs
     id="defs14">
    <marker
       style="overflow:visible"
       id="marker2995"
       refX="0"
       refY="0"
       orient="auto"
       inkscape:stockid="Arrow1Lstart"
       inkscape:isstock="true">
      <path
         transform="matrix(0.8,0,0,0.8,10,0)"
         style="fill:#000000;fill-opacity:1;fill-rule:evenodd;stroke:#000000;stroke-width:1pt;stroke-opacity:1"
         d="M 0,0 5,-5 -12.5,0 5,5 Z"
         id="path2993" />
    </marker>
    <marker
       style="overflow:visible"
       id="marker2985"
       refX="0"
       refY="0"
       orient="auto"
       inkscape:stockid="Arrow1Lstart"
       inkscape:isstock="true">
      <path
         transform="matrix(0.8,0,0,0.8,10,0)"
         style="fill:#000000;fill-opacity:1;fill-rule:evenodd;stroke:#000000;stroke-width:1pt;stroke-opacity:1"
         d="M 0,0 5,-5 -12.5,0 5,5 Z"
         id="path2983" />
    </marker>
    <marker
       style="overflow:visible"
       id="marker2791"
       refX="0"
       refY="0"
       orient="auto"
       inkscape:stockid="Arrow1Lstart"
       inkscape:isstock="true">
      <path
         transform="matrix(0.8,0,0,0.8,10,0)"
         style="fill:#000000;fill-opacity:1;fill-rule:evenodd;stroke:#000000;stroke-width:1pt;stroke-opacity:1"
         d="M 0,0 5,-5 -12.5,0 5,5 Z"
         id="path2789" />
    </marker>
    <marker
       style="overflow:visible"
       id="marker2781"
       refX="0"
       refY="0"
       orient="auto"
       inkscape:stockid="Arrow1Lstart"
       inkscape:isstock="true">
      <path
         transform="matrix(0.8,0,0,0.8,10,0)"
         style="fill:#000000;fill-opacity:1;fill-rule:evenodd;stroke:#000000;stroke-width:1pt;stroke-opacity:1"
         d="M 0,0 5,-5 -12.5,0 5,5 Z"
         id="path2779" />
    </marker>
    <marker
       style="overflow:visible"
       id="marker2417"
       refX="0"
       refY="0"
       orient="auto"
       inkscape:stockid="Arrow1Lstart"
       inkscape:isstock="true">
      <path
         transform="matrix(0.8,0,0,0.8,10,0)"
         style="fill:#000000;fill-opacity:1;fill-rule:evenodd;stroke:#000000;stroke-width:1pt;stroke-opacity:1"
         d="M 0,0 5,-5 -12.5,0 5,5 Z"
         id="path2415" />
    </marker>
    <marker
       style="overflow:visible"
       id="marker2383"
       refX="0"
       refY="0"
       orient="auto"
       inkscape:stockid="Arrow1Lstart"
       inkscape:isstock="true">
      <path
         transform="matrix(0.8,0,0,0.8,10,0)"
         style="fill:#000000;fill-opacity:1;fill-rule:evenodd;stroke:#000000;stroke-width:1pt;stroke-opacity:1"
         d="M 0,0 5,-5 -12.5,0 5,5 Z"
         id="path2381" />
    </marker>
    <marker
       style="overflow:visible"
       id="marker2355"
       refX="0"
       refY="0"
       orient="auto"
       inkscape:stockid="Arrow1Lstart"
       inkscape:isstock="true">
      <path
         transform="matrix(0.8,0,0,0.8,10,0)"
         style="fill:#000000;fill-opacity:1;fill-rule:evenodd;stroke:#000000;stroke-width:1pt;stroke-opacity:1"
         d="M 0,0 5,-5 -12.5,0 5,5 Z"
         id="path2353" />
    </marker>
    <marker
       style="overflow:visible"
       id="Arrow1Lstart"
       refX="0"
       refY="0"
       orient="auto"
       inkscape:stockid="Arrow1Lstart"
       inkscape:isstock="true">
      <path
         transform="matrix(0.8,0,0,0.8,10,0)"
         style="fill:#000000;fill-opacity:1;fill-rule:evenodd;stroke:#000000;stroke-width:1pt;stroke-opacity:1"
         d="M 0,0 5,-5 -12.5,0 5,5 Z"
         id="path2071" />
    </marker>
  </defs>
  <sodipodi:namedview
     id="namedview12"
     pagecolor="#ffffff"
     bordercolor="#666666"
     borderopacity="1.0"
     inkscape:pageshadow="2"
     inkscape:pageopacity="0.0"
     inkscape:pagecheckerboard="0"
     inkscape:document-units="in"
     showgrid="false"
     showborder="false"
     fit-margin-top="0"
     fit-margin-left="0"
     fit-margin-right="0"
     fit-margin-bottom="0"
     inkscape:zoom="1.4583332"
     inkscape:cx="120.00001"
     inkscape:cy="167.65716"
     inkscape:window-width="1366"
     inkscape:window-height="712"
     inkscape:window-x="0"
     inkscape:window-y="0"
     inkscape:window-maximized="1"
     inkscape:current-layer="layer5"
     units="in" />
  <g
     inkscape:groupmode="layer"
     id="layer1"
     inkscape:label="CardOutline"
     style="display:inline"
     transform="translate(94.217781,-340.71922)">
    <path
       id="path4-3"
       style="display:inline;fill:none;fill-rule:evenodd;stroke:#000000;stroke-width:0.25;stroke-miterlimit:4;stroke-dasharray:none;stroke-opacity:1"
       d="m 50.564743,435.96104 -0.534158,0.31687 c -0.688621,0.40844 -1.158412,0.85449 -1.590112,1.51001 l -0.346181,0.5258 -0.06384,25.43159 c -0.03506,13.98732 -0.046,32.74824 -0.02422,41.69094 0.03916,16.06607 0.04297,16.26663 0.30127,16.87005 h 2.54e-4 c 0.321831,0.75178 1.375871,1.69211 2.308962,2.06009 0.662802,0.26139 0.718825,0.26193 29.335815,0.23047 27.968057,-0.0307 28.683467,-0.0377 29.150357,-0.27706 0.72044,-0.36932 1.35524,-0.98173 1.76901,-1.70664 l 0.37116,-0.65029 9.8e-4,-41.53137 9.8e-4,-41.53137 -0.30833,-0.61121 c -0.3634,-0.72062 -1.20695,-1.59056 -1.92217,-1.98245 l -0.50968,-0.27931 -28.969947,-0.0331 z m 0.134234,0.49272 57.679013,0.0666 0.38933,0.21242 0.11632,0.0681 0.12061,0.0774 0.13902,0.0985 0.11304,0.0864 0.12364,0.1017 0.13751,0.12124 0.11153,0.10621 0.13145,0.13177 0.10774,0.11773 0.12692,0.13477 0.0918,0.11748 0.10345,0.13201 0.0951,0.13352 0.0785,0.11974 0.0739,0.12124 0.0603,0.11222 0.25661,0.50651 -0.003,82.81198 -0.30631,0.53682 -0.13726,0.22444 -0.18268,0.24876 -0.16754,0.20014 -0.19757,0.20466 -0.19327,0.17285 -0.23542,0.18336 -0.22481,0.1503 -0.2233,0.12574 -0.0212,0.0108 -0.0149,0.006 -0.0394,0.012 -0.027,0.006 -0.0507,0.01 -0.0277,0.004 -0.0606,0.008 -0.0573,0.008 -0.0679,0.006 -0.083,0.0105 -0.0868,0.004 -0.0913,0.006 -0.10698,0.007 -0.25056,0.012 -0.3048,0.0108 -0.3545,0.0105 -0.41809,0.009 -0.47538,0.009 -0.54929,0.008 -0.96108,0.0105 -1.14073,0.0108 -3.46459,0.0165 -34.84847,0.0471 -6.84314,-0.003 -1.74276,-0.004 -1.260078,-0.006 -1.065289,-0.008 -0.60506,-0.006 -0.534158,-0.008 -0.467798,-0.009 -0.401438,-0.009 -0.339623,-0.009 -0.289659,-0.012 -0.126666,-0.006 -0.11632,-0.006 -0.106979,-0.006 -0.08302,-0.006 -0.08302,-0.008 -0.07998,-0.006 -0.0545,-0.007 -0.10093,-0.0135 -0.09967,-0.0183 -0.03911,-0.009 -0.04844,-0.0138 -0.0376,-0.0135 -0.04692,-0.0183 -0.167539,-0.0726 -0.143315,-0.0699 -0.177886,-0.0985 -0.140542,-0.0864 -0.159971,-0.10773 -0.155176,-0.11372 -0.152651,-0.12124 -0.161231,-0.13803 -0.123887,-0.11372 -0.144835,-0.14729 -0.11026,-0.11974 -0.119098,-0.14253 -0.08604,-0.11374 -0.09361,-0.13951 -0.06485,-0.11098 -0.05601,-0.11974 -0.027,-0.0669 -0.03481,-0.10621 -0.0061,-0.027 -0.01211,-0.0669 -0.01338,-0.0939 -0.01514,-0.12124 -0.0044,-0.0531 -0.01362,-0.15632 -0.0099,-0.16206 -0.01133,-0.21243 -0.01059,-0.23947 -0.0088,-0.27305 -0.0091,-0.31236 -0.0076,-0.3532 -0.01059,-0.61573 -0.0091,-0.72319 -0.0106,-1.15404 -0.0106,-1.77404 -0.01641,-4.27149 -0.01968,-8.14897 -0.0061,-8.546 0.0015,-6.72963 0.0044,-7.16476 0.0091,-7.2692 0.01943,-9.71082 0.0651,-25.28355 0.257868,-0.39253 0.152402,-0.21993 0.166025,-0.21393 0.147862,-0.16834 0.169052,-0.17133 0.185708,-0.16508 0.168798,-0.13202 0.229612,-0.16082 0.227845,-0.14253 z"
       inkscape:export-filename="/home/doug/k40/52Cards/IndividualColorCards/2D.png"
       inkscape:export-xdpi="300"
       inkscape:export-ydpi="300" />
  </g>
  <g
     inkscape:groupmode="layer"
     id="layer2"
     inkscape:label="InnerRectangle"
     style="display:inline"
     transform="translate(94.217781,-340.71922)">
    <path
       id="path2-6"
       style="display:inline;fill:none;fill-rule:evenodd;stroke:#4c71a5;stroke-width:0.262609;stroke-opacity:1"
       d="m 63.13524,452.67467 0.0441,14.05596 c 0.0243,7.7307 0.0504,20.15551 0.0578,27.61093 l 0.0134,13.55547 16.409043,-0.0521 16.40903,-0.0519 0.0305,-24.32539 c 0.0169,-13.37898 -0.004,-25.78048 -0.0462,-27.55907 l -0.077,-3.23394 h -16.42035 z m 16.503153,0.25626 h 16.11155 l 0.005,0.73622 c 0.003,0.40503 0.0367,12.68075 0.0757,27.27927 l 0.0709,26.54279 -3.16634,0.004 c -1.74158,0.002 -8.99902,0.0153 -16.12745,0.0285 -7.12842,0.0133 -12.991523,-0.007 -13.029223,-0.0446 -0.0728,-0.0731 -0.16665,-54.20072 -0.0944,-54.4185 0.028,-0.0844 5.532343,-0.128 16.154193,-0.128 z"
       inkscape:export-filename="/home/doug/k40/52Cards/IndividualColorCards/2D.png"
       inkscape:export-xdpi="300"
       inkscape:export-ydpi="300" />
  </g>
  <g
     inkscape:groupmode="layer"
     id="layer5"
     inkscape:label="InnerSuit"
     style="display:inline"
     transform="translate(94.217781,-340.71922)">
    <path
       style="display:inline;fill:#e2121f;stroke-width:1"
       d="m 89.612315,465.66049 c -0.415007,-0.86477 -1.556106,-2.50534 -2.451981,-3.52524 l -0.880683,-1.00259 0.314336,-0.26912 c 0.594643,-0.5091 1.759638,-2.05535 2.411276,-3.20042 0.359019,-0.63086 0.70152,-1.22897 0.761117,-1.32911 0.07963,-0.1338 0.239989,0.0521 0.604712,0.70097 0.821107,1.4608 1.339224,2.212 2.207223,3.20018 l 0.826086,0.94045 -0.80081,0.92017 c -0.901692,1.03608 -1.880211,2.47192 -2.321429,3.40637 -0.162522,0.3442 -0.328117,0.62817 -0.367991,0.63104 -0.03987,0.003 -0.175708,-0.20984 -0.301856,-0.4727 z"
       id="path3025" />
    <path
       style="display:inline;fill:#e2121f;stroke-width:1"
       d="m 68.803823,465.59676 c -0.67636,-1.24043 -1.442163,-2.34637 -2.304643,-3.32824 l -0.857796,-0.97654 0.605896,-0.6674 c 0.82849,-0.91258 1.689221,-2.15368 2.302948,-3.32063 0.282397,-0.53696 0.54979,-0.9769 0.594207,-0.97766 0.04442,-7.6e-4 0.362113,0.4981 0.705991,1.10856 0.719801,1.27782 1.50463,2.37229 2.327384,3.24562 l 0.575554,0.61093 -0.725459,0.778 c -0.845751,0.90701 -1.796803,2.27105 -2.370542,3.39991 -0.222662,0.4381 -0.423709,0.79655 -0.446773,0.79655 -0.02306,0 -0.206108,-0.30109 -0.406767,-0.6691 z"
       id="path3023" />
    <path
       style="display:inline;fill:#e2121f;stroke-width:1"
       d="m 78.945956,474.64557 c -0.717873,-1.22959 -1.538823,-2.34076 -2.348477,-3.17867 l -0.577686,-0.59786 0.673341,-0.7315 c 0.752931,-0.81796 1.647652,-2.09833 2.37733,-3.40202 l 0.486131,-0.86856 0.787723,1.31474 c 0.960302,1.60279 1.349266,2.13746 2.184893,3.00337 l 0.645872,0.66929 -0.715614,0.73264 c -0.80768,0.82691 -1.639057,1.9805 -2.342034,3.24974 -0.262055,0.47316 -0.494723,0.86028 -0.517039,0.86028 -0.02232,0 -0.316814,-0.47316 -0.65444,-1.05145 z"
       id="path3019" />
    <path
       style="display:inline;fill:#e2121f;stroke-width:1"
       d="m 89.229141,483.92195 c -0.759835,-1.26421 -2.07818,-2.9797 -2.576961,-3.35326 l -0.289511,-0.21682 0.918048,-1.03979 c 0.504926,-0.57189 1.291445,-1.67489 1.747818,-2.4511 0.456375,-0.77622 0.863914,-1.41301 0.905642,-1.41508 0.04173,-0.002 0.240466,0.29732 0.441637,0.66532 0.703086,1.28618 1.508226,2.4229 2.32509,3.28265 l 0.823314,0.86654 -0.613518,0.62772 c -0.787487,0.8057 -1.61445,1.93527 -2.360609,3.22441 l -0.591834,1.02252 z"
       id="path3017" />
    <path
       style="display:inline;fill:#e2121f;stroke-width:1"
       d="m 69.150861,485.10003 c -0.08325,-0.0827 -0.151366,-0.19515 -0.151366,-0.25 0,-0.38885 -2.376042,-3.65957 -3.028987,-4.16951 l -0.334981,-0.26163 0.891711,-0.97035 c 0.490441,-0.5337 1.287098,-1.6248 1.770346,-2.42466 0.483248,-0.79987 0.911076,-1.45349 0.950726,-1.45247 0.03965,10e-4 0.238683,0.3021 0.442299,0.6691 0.69377,1.25045 1.457986,2.32284 2.292658,3.2172 l 0.833514,0.89311 -0.807861,0.86345 c -0.894499,0.95605 -1.463232,1.76074 -2.209278,3.12587 -0.382006,0.699 -0.532535,0.87531 -0.648781,0.75989 z"
       id="path3015" />
    <path
       style="display:inline;fill:#e2121f;stroke-width:1"
       d="m 79.476648,494.54285 c -0.114509,-0.16232 -0.2082,-0.34036 -0.2082,-0.39562 0,-0.4021 -2.104881,-3.27149 -2.942021,-4.0106 l -0.317861,-0.28064 0.702705,-0.73895 c 0.889423,-0.93528 1.461284,-1.72347 2.269647,-3.12816 l 0.6415,-1.11475 0.717596,1.19395 c 0.699547,1.1639 1.306825,2.0013 2.308787,3.18367 l 0.492208,0.58083 -0.761586,0.87857 c -0.967152,1.11571 -1.451012,1.81598 -2.142045,3.1001 -0.550138,1.02228 -0.553431,1.02545 -0.76073,0.7316 z"
       id="path3013" />
    <path
       style="display:inline;fill:#e2121f;stroke-width:1"
       d="m 89.515336,503.51169 c -0.678684,-1.2375 -1.3826,-2.23263 -2.2949,-3.24434 l -0.798938,-0.88599 0.711569,-0.72233 c 0.729186,-0.74022 1.851875,-2.36742 2.454876,-3.55805 0.186377,-0.368 0.361557,-0.6691 0.389286,-0.6691 0.02772,0 0.294169,0.44447 0.592091,0.98772 0.688749,1.2559 1.543872,2.46192 2.346108,3.30882 l 0.629246,0.66429 -0.761109,0.86509 c -0.975319,1.10857 -1.532299,1.89745 -2.208015,3.1273 -0.298475,0.54325 -0.553078,0.98734 -0.565783,0.98687 -0.0127,-5.1e-4 -0.235198,-0.38759 -0.494431,-0.86028 z"
       id="path3009" />
    <path
       style="display:inline;fill:#e2121f;stroke-width:1"
       d="m 68.569107,503.18837 c -0.759997,-1.28216 -1.486567,-2.26359 -2.301232,-3.10844 l -0.514124,-0.53318 0.700075,-0.80502 c 0.917481,-1.05503 1.493376,-1.86682 2.153349,-3.03537 0.296915,-0.52572 0.584032,-1.00114 0.638035,-1.0565 0.054,-0.0554 0.28957,0.2601 0.523483,0.70097 0.356734,0.67237 1.68463,2.68337 1.92015,2.90792 0.03874,0.0369 0.325186,0.33523 0.636549,0.66288 l 0.566116,0.59572 -0.767469,0.8146 c -0.824073,0.87466 -1.734415,2.17066 -2.272562,3.2353 -0.183509,0.36305 -0.388572,0.69379 -0.455695,0.73497 -0.06712,0.0412 -0.439127,-0.46004 -0.826675,-1.11385 z"
       id="path3007" />
  </g>
  <g
     inkscape:groupmode="layer"
     id="layer6"
     inkscape:label="OuterSuit"
     style="display:inline"
     transform="translate(94.217781,-340.71922)">
    <path
       style="display:inline;fill:#e2121f;stroke-width:1"
       d="m 55.130867,470.18489 c -1.306569,-2.26762 -2.650154,-4.10818 -3.826638,-5.24207 l -0.513208,-0.49461 1.051452,-1.17257 c 1.220619,-1.3612 2.225933,-2.81029 3.164276,-4.56107 0.366295,-0.68344 0.713456,-1.24262 0.771469,-1.24262 0.05802,0 0.406288,0.55918 0.773941,1.24262 0.943117,1.75318 2.07243,3.34489 3.248214,4.57817 l 1.010605,1.06004 -0.923699,0.98204 c -1.35579,1.44144 -2.480657,3.0725 -3.533314,5.12333 -0.255664,0.4981 -0.482616,0.90564 -0.50434,0.90564 -0.02172,0 -0.345164,-0.53051 -0.718758,-1.1789 z"
       id="path3021" />
    <path
       style="display:inline;fill:#e2121f;stroke-width:1"
       d="m 102.90809,502.40259 c -0.97817,-1.87828 -2.54575,-4.09763 -3.729775,-5.28055 l -0.736868,-0.73617 0.687457,-0.75396 c 1.428426,-1.56661 2.578206,-3.23086 3.775796,-5.46525 l 0.47586,-0.88784 0.2346,0.426 c 1.34211,2.43712 2.70125,4.38902 4.06124,5.8325 l 0.77262,0.82006 -0.70556,0.72593 c -0.80212,0.8253 -1.66142,1.86124 -2.24078,2.70138 -0.4473,0.64865 -1.75035,2.87873 -1.88034,3.21807 -0.14062,0.36709 -0.26491,0.26265 -0.71425,-0.60017 z"
       id="path3011" />
  </g>
  <g
     inkscape:groupmode="layer"
     id="layer3"
     inkscape:label="CardName"
     style="display:inline"
     transform="translate(94.217781,-340.71922)">
    <path
       id="path2811"
       style="display:inline;fill:#e2121f;stroke-width:1"
       d="m 103.4466,506.44255 c -1.72811,-0.0104 -3.450615,1.01354 -4.230159,2.59553 -0.311695,0.63254 -0.368057,0.89954 -0.359868,1.70667 0.01249,1.22926 0.330379,1.9512 1.268677,2.88283 l 0.70721,0.70216 -0.36927,0.46985 c -1.182454,1.5042 -0.97351,3.39499 0.51499,4.66002 0.29245,0.24854 0.76927,0.53557 1.05976,0.63786 v 5.3e-4 c 0.7947,0.27979 1.99757,0.25263 2.85074,-0.0643 2.29705,-0.8533 3.06867,-3.40033 1.58625,-5.23565 l -0.38129,-0.47191 0.64139,-0.59586 c 0.94065,-0.87359 1.35224,-1.78595 1.34547,-2.98499 -0.0122,-2.1671 -1.50776,-3.79237 -3.89536,-4.23323 -0.24436,-0.0452 -0.49167,-0.0679 -0.73854,-0.0695 z m 0.0433,1.78549 c 0.31063,0.005 0.62463,0.0562 0.93231,0.15766 0.68839,0.22702 1.44501,0.78729 1.69906,1.25861 0.65977,1.22402 0.0796,2.80993 -1.24465,3.40297 -1.16561,0.52198 -2.67184,0.34745 -3.48274,-0.40398 -0.93301,-0.8646 -1.09115,-2.34859 -0.34838,-3.26607 0.61105,-0.75473 1.51249,-1.1633 2.4444,-1.14919 z m -0.0919,6.78987 c 0.51697,-0.009 1.04724,0.20112 1.52095,0.63215 0.43299,0.39399 0.47112,0.48508 0.47112,1.12897 0,0.75943 -0.27393,1.19249 -0.9882,1.56147 -0.19064,0.0986 -0.65323,0.17864 -1.02738,0.17839 -1.17857,-7.9e-4 -1.89962,-0.67742 -1.89962,-1.78239 0,-0.4262 0.0878,-0.61409 0.48156,-1.0325 0.42105,-0.44744 0.9246,-0.67662 1.44157,-0.68609 z" />
    <path
       id="path3027"
       style="display:inline;fill:#e2121f;stroke-width:1"
       d="m 55.719322,440.28118 c -3.005001,0.0221 -4.837335,3.11536 -3.076905,5.40524 l 0.451273,0.58704 -0.639826,0.59689 c -0.918341,0.85658 -1.352485,1.84697 -1.350158,3.08197 0.0021,1.19587 0.301581,1.90369 1.20757,2.85482 0.69631,0.73101 1.547641,1.18 2.560865,1.3504 0.321798,0.0541 0.642872,0.10399 0.713471,0.11201 0.0706,0.008 0.501911,-0.0458 0.958433,-0.11927 3.71205,-0.59798 5.136163,-4.79948 2.482519,-7.32401 l -0.589684,-0.5611 0.345767,-0.45066 c 0.520457,-0.67749 0.718171,-1.25309 0.718171,-2.0925 0,-1.86338 -1.475207,-3.3153 -3.487438,-3.43305 -0.0993,-0.006 -0.197121,-0.008 -0.294058,-0.008 z m 0.02925,1.76787 c 0.352565,-0.002 0.715888,0.0818 1.057146,0.27225 0.651584,0.36361 0.897844,0.79798 0.897844,1.58377 0,0.50037 -0.06573,0.65801 -0.423068,1.0128 -0.232757,0.2311 -0.651666,0.48311 -0.930749,0.56008 -0.279083,0.0769 -0.59399,0.13514 -0.699888,0.12912 -0.833804,-0.0467 -1.736844,-0.74997 -1.870378,-1.45671 -0.219747,-1.16302 0.817379,-2.09365 1.969093,-2.10131 z m 0.04335,5.15268 c 0.787789,0.003 1.587147,0.28857 2.193684,0.92308 0.432836,0.45281 0.745836,1.18134 0.742196,1.72794 -0.006,0.89778 -0.752792,1.93359 -1.666156,2.31134 -2.059369,0.8517 -4.2359,-0.35802 -4.2359,-2.35438 0,-1.58944 1.462213,-2.6136 2.966176,-2.60798 z" />
  </g>
</svg>
