<?xml version="1.0" encoding="UTF-8" standalone="no"?>
<svg
   width="63.500004mm"
   height="88.899895mm"
   viewBox="142.0878 95.116776 63.500012 88.899887"
   version="1.1"
   id="svg10"
   sodipodi:docname="8H.svg"
   inkscape:version="1.1.1 (1:1.1+202109281949+c3084ef5ed)"
   inkscape:export-filename="/home/doug/k40/52Cards/IndividualColorCards/8H.png"
   inkscape:export-xdpi="300"
   inkscape:export-ydpi="300"
   xmlns:inkscape="http://www.inkscape.org/namespaces/inkscape"
   xmlns:sodipodi="http://sodipodi.sourceforge.net/DTD/sodipodi-0.dtd"
   xmlns="http://www.w3.org/2000/svg"
   xmlns:svg="http://www.w3.org/2000/svg">
  <defs
     id="defs14">
    <marker
       style="overflow:visible"
       id="marker2995"
       refX="0"
       refY="0"
       orient="auto"
       inkscape:stockid="Arrow1Lstart"
       inkscape:isstock="true">
      <path
         transform="matrix(0.8,0,0,0.8,10,0)"
         style="fill:#000000;fill-opacity:1;fill-rule:evenodd;stroke:#000000;stroke-width:1pt;stroke-opacity:1"
         d="M 0,0 5,-5 -12.5,0 5,5 Z"
         id="path2993" />
    </marker>
    <marker
       style="overflow:visible"
       id="marker2985"
       refX="0"
       refY="0"
       orient="auto"
       inkscape:stockid="Arrow1Lstart"
       inkscape:isstock="true">
      <path
         transform="matrix(0.8,0,0,0.8,10,0)"
         style="fill:#000000;fill-opacity:1;fill-rule:evenodd;stroke:#000000;stroke-width:1pt;stroke-opacity:1"
         d="M 0,0 5,-5 -12.5,0 5,5 Z"
         id="path2983" />
    </marker>
    <marker
       style="overflow:visible"
       id="marker2791"
       refX="0"
       refY="0"
       orient="auto"
       inkscape:stockid="Arrow1Lstart"
       inkscape:isstock="true">
      <path
         transform="matrix(0.8,0,0,0.8,10,0)"
         style="fill:#000000;fill-opacity:1;fill-rule:evenodd;stroke:#000000;stroke-width:1pt;stroke-opacity:1"
         d="M 0,0 5,-5 -12.5,0 5,5 Z"
         id="path2789" />
    </marker>
    <marker
       style="overflow:visible"
       id="marker2781"
       refX="0"
       refY="0"
       orient="auto"
       inkscape:stockid="Arrow1Lstart"
       inkscape:isstock="true">
      <path
         transform="matrix(0.8,0,0,0.8,10,0)"
         style="fill:#000000;fill-opacity:1;fill-rule:evenodd;stroke:#000000;stroke-width:1pt;stroke-opacity:1"
         d="M 0,0 5,-5 -12.5,0 5,5 Z"
         id="path2779" />
    </marker>
    <marker
       style="overflow:visible"
       id="marker2417"
       refX="0"
       refY="0"
       orient="auto"
       inkscape:stockid="Arrow1Lstart"
       inkscape:isstock="true">
      <path
         transform="matrix(0.8,0,0,0.8,10,0)"
         style="fill:#000000;fill-opacity:1;fill-rule:evenodd;stroke:#000000;stroke-width:1pt;stroke-opacity:1"
         d="M 0,0 5,-5 -12.5,0 5,5 Z"
         id="path2415" />
    </marker>
    <marker
       style="overflow:visible"
       id="marker2383"
       refX="0"
       refY="0"
       orient="auto"
       inkscape:stockid="Arrow1Lstart"
       inkscape:isstock="true">
      <path
         transform="matrix(0.8,0,0,0.8,10,0)"
         style="fill:#000000;fill-opacity:1;fill-rule:evenodd;stroke:#000000;stroke-width:1pt;stroke-opacity:1"
         d="M 0,0 5,-5 -12.5,0 5,5 Z"
         id="path2381" />
    </marker>
    <marker
       style="overflow:visible"
       id="marker2355"
       refX="0"
       refY="0"
       orient="auto"
       inkscape:stockid="Arrow1Lstart"
       inkscape:isstock="true">
      <path
         transform="matrix(0.8,0,0,0.8,10,0)"
         style="fill:#000000;fill-opacity:1;fill-rule:evenodd;stroke:#000000;stroke-width:1pt;stroke-opacity:1"
         d="M 0,0 5,-5 -12.5,0 5,5 Z"
         id="path2353" />
    </marker>
    <marker
       style="overflow:visible"
       id="Arrow1Lstart"
       refX="0"
       refY="0"
       orient="auto"
       inkscape:stockid="Arrow1Lstart"
       inkscape:isstock="true">
      <path
         transform="matrix(0.8,0,0,0.8,10,0)"
         style="fill:#000000;fill-opacity:1;fill-rule:evenodd;stroke:#000000;stroke-width:1pt;stroke-opacity:1"
         d="M 0,0 5,-5 -12.5,0 5,5 Z"
         id="path2071" />
    </marker>
  </defs>
  <sodipodi:namedview
     id="namedview12"
     pagecolor="#ffffff"
     bordercolor="#666666"
     borderopacity="1.0"
     inkscape:pageshadow="2"
     inkscape:pageopacity="0.0"
     inkscape:pagecheckerboard="0"
     inkscape:document-units="mm"
     showgrid="false"
     showborder="false"
     fit-margin-top="0"
     fit-margin-left="0"
     fit-margin-right="0"
     fit-margin-bottom="0"
     inkscape:zoom="1.5249999"
     inkscape:cx="120.00001"
     inkscape:cy="168.19673"
     inkscape:window-width="1366"
     inkscape:window-height="712"
     inkscape:window-x="0"
     inkscape:window-y="0"
     inkscape:window-maximized="1"
     inkscape:current-layer="layer5" />
  <g
     inkscape:groupmode="layer"
     id="layer1"
     inkscape:label="CardOutline"
     style="display:inline"
     transform="translate(94.217781,-340.71922)">
    <path
       id="path4-3"
       style="display:inline;fill:none;fill-rule:evenodd;stroke:#000000;stroke-width:0.25;stroke-miterlimit:4;stroke-dasharray:none;stroke-opacity:1"
       d="m 50.564743,435.96104 -0.534158,0.31687 c -0.688621,0.40844 -1.158412,0.85449 -1.590112,1.51001 l -0.346181,0.5258 -0.06384,25.43159 c -0.03506,13.98732 -0.046,32.74824 -0.02422,41.69094 0.03916,16.06607 0.04297,16.26663 0.30127,16.87005 h 2.54e-4 c 0.321831,0.75178 1.375871,1.69211 2.308962,2.06009 0.662802,0.26139 0.718825,0.26193 29.335815,0.23047 27.968057,-0.0307 28.683467,-0.0377 29.150357,-0.27706 0.72044,-0.36932 1.35524,-0.98173 1.76901,-1.70664 l 0.37116,-0.65029 9.8e-4,-41.53137 9.8e-4,-41.53137 -0.30833,-0.61121 c -0.3634,-0.72062 -1.20695,-1.59056 -1.92217,-1.98245 l -0.50968,-0.27931 -28.969947,-0.0331 z m 0.134234,0.49272 57.679013,0.0666 0.38933,0.21242 0.11632,0.0681 0.12061,0.0774 0.13902,0.0985 0.11304,0.0864 0.12364,0.1017 0.13751,0.12124 0.11153,0.10621 0.13145,0.13177 0.10774,0.11773 0.12692,0.13477 0.0918,0.11748 0.10345,0.13201 0.0951,0.13352 0.0785,0.11974 0.0739,0.12124 0.0603,0.11222 0.25661,0.50651 -0.003,82.81198 -0.30631,0.53682 -0.13726,0.22444 -0.18268,0.24876 -0.16754,0.20014 -0.19757,0.20466 -0.19327,0.17285 -0.23542,0.18336 -0.22481,0.1503 -0.2233,0.12574 -0.0212,0.0108 -0.0149,0.006 -0.0394,0.012 -0.027,0.006 -0.0507,0.01 -0.0277,0.004 -0.0606,0.008 -0.0573,0.008 -0.0679,0.006 -0.083,0.0105 -0.0868,0.004 -0.0913,0.006 -0.10698,0.007 -0.25056,0.012 -0.3048,0.0108 -0.3545,0.0105 -0.41809,0.009 -0.47538,0.009 -0.54929,0.008 -0.96108,0.0105 -1.14073,0.0108 -3.46459,0.0165 -34.84847,0.0471 -6.84314,-0.003 -1.74276,-0.004 -1.260078,-0.006 -1.065289,-0.008 -0.60506,-0.006 -0.534158,-0.008 -0.467798,-0.009 -0.401438,-0.009 -0.339623,-0.009 -0.289659,-0.012 -0.126666,-0.006 -0.11632,-0.006 -0.106979,-0.006 -0.08302,-0.006 -0.08302,-0.008 -0.07998,-0.006 -0.0545,-0.007 -0.10093,-0.0135 -0.09967,-0.0183 -0.03911,-0.009 -0.04844,-0.0138 -0.0376,-0.0135 -0.04692,-0.0183 -0.167539,-0.0726 -0.143315,-0.0699 -0.177886,-0.0985 -0.140542,-0.0864 -0.159971,-0.10773 -0.155176,-0.11372 -0.152651,-0.12124 -0.161231,-0.13803 -0.123887,-0.11372 -0.144835,-0.14729 -0.11026,-0.11974 -0.119098,-0.14253 -0.08604,-0.11374 -0.09361,-0.13951 -0.06485,-0.11098 -0.05601,-0.11974 -0.027,-0.0669 -0.03481,-0.10621 -0.0061,-0.027 -0.01211,-0.0669 -0.01338,-0.0939 -0.01514,-0.12124 -0.0044,-0.0531 -0.01362,-0.15632 -0.0099,-0.16206 -0.01133,-0.21243 -0.01059,-0.23947 -0.0088,-0.27305 -0.0091,-0.31236 -0.0076,-0.3532 -0.01059,-0.61573 -0.0091,-0.72319 -0.0106,-1.15404 -0.0106,-1.77404 -0.01641,-4.27149 -0.01968,-8.14897 -0.0061,-8.546 0.0015,-6.72963 0.0044,-7.16476 0.0091,-7.2692 0.01943,-9.71082 0.0651,-25.28355 0.257868,-0.39253 0.152402,-0.21993 0.166025,-0.21393 0.147862,-0.16834 0.169052,-0.17133 0.185708,-0.16508 0.168798,-0.13202 0.229612,-0.16082 0.227845,-0.14253 z"
       inkscape:export-filename="/home/doug/k40/52Cards/IndividualColorCards/2D.png"
       inkscape:export-xdpi="300"
       inkscape:export-ydpi="300" />
  </g>
  <g
     inkscape:groupmode="layer"
     id="layer2"
     inkscape:label="InnerRectangle"
     style="display:inline"
     transform="translate(94.217781,-340.71922)">
    <path
       id="path2-6"
       style="display:inline;fill:none;fill-rule:evenodd;stroke:#4c71a5;stroke-width:0.262609;stroke-opacity:1"
       d="m 63.13524,452.67467 0.0441,14.05596 c 0.0243,7.7307 0.0504,20.15551 0.0578,27.61093 l 0.0134,13.55547 16.409043,-0.0521 16.40903,-0.0519 0.0305,-24.32539 c 0.0169,-13.37898 -0.004,-25.78048 -0.0462,-27.55907 l -0.077,-3.23394 h -16.42035 z m 16.503153,0.25626 h 16.11155 l 0.005,0.73622 c 0.003,0.40503 0.0367,12.68075 0.0757,27.27927 l 0.0709,26.54279 -3.16634,0.004 c -1.74158,0.002 -8.99902,0.0153 -16.12745,0.0285 -7.12842,0.0133 -12.991523,-0.007 -13.029223,-0.0446 -0.0728,-0.0731 -0.16665,-54.20072 -0.0944,-54.4185 0.028,-0.0844 5.532343,-0.128 16.154193,-0.128 z"
       inkscape:export-filename="/home/doug/k40/52Cards/IndividualColorCards/2D.png"
       inkscape:export-xdpi="300"
       inkscape:export-ydpi="300" />
  </g>
  <g
     inkscape:groupmode="layer"
     id="layer5"
     inkscape:label="InnerSuit"
     style="display:inline"
     transform="translate(94.217781,-340.71922)">
    <path
       style="display:inline;fill:#e30d19;stroke-width:1"
       d="m 90.583382,465.11504 h -0.03852 l -0.594931,-0.92175 -0.594929,-0.92176 -0.744039,-1.27139 -0.744039,-1.27138 -0.40755,-1.01223 -0.407547,-1.01225 -0.0063,-0.73075 -0.0063,-0.73074 0.219095,-0.32125 0.219092,-0.32124 0.315002,-0.1983 0.315,-0.19828 0.459733,-0.0717 0.459734,-0.0717 0.492678,0.2246 0.492677,0.22462 0.210955,0.42499 0.210953,0.42501 h 0.09891 0.09891 l 0.07661,-0.2319 0.07661,-0.23189 0.404175,-0.37202 0.404176,-0.37201 h 0.729327 0.729329 l 0.445009,0.46652 0.44501,0.46652 0.09091,0.46553 0.09091,0.46554 -0.234034,0.83064 -0.234034,0.83063 -0.567416,1.12003 -0.567417,1.12003 -0.949608,1.59892 -0.949606,1.59891 h -0.03852 z"
       id="path3071"
       transform="translate(-1.0416666e-6,-1.1083333e-5)" />
    <path
       style="display:inline;fill:#e30d19;stroke-width:1"
       d="m 68.808108,465.11504 h -0.08866 l -0.839413,-1.36674 -0.839414,-1.36674 -0.623311,-1.14425 -0.623311,-1.14424 -0.276375,-0.87158 -0.276374,-0.87157 v -0.37212 -0.37211 l 0.190539,-0.43811 0.190542,-0.43812 0.438055,-0.25658 0.438057,-0.25659 h 0.529344 0.529345 l 0.407555,0.23877 0.407554,0.23876 0.17093,0.39645 0.170929,0.39645 h 0.116281 0.116281 v -0.1887 -0.1887 l 0.368218,-0.39592 0.368217,-0.39592 0.644086,-0.0698 0.644087,-0.0698 0.419604,0.21709 0.419602,0.2171 0.235859,0.38359 0.23586,0.3836 -0.0087,0.65758 -0.0087,0.65759 -0.253728,0.70684 -0.253729,0.70684 -0.370478,0.75526 -0.370478,0.75525 -1.059797,1.74815 -1.059797,1.74816 h -0.08866 z"
       id="path3069"
       transform="translate(-1.0416666e-6,-1.1083333e-5)" />
    <path
       style="display:inline;fill:#e30d19;stroke-width:1"
       d="m 79.794778,474.8432 -0.09889,0.0588 -0.126601,-0.15752 -0.126601,-0.15752 -0.865865,-1.39853 -0.865867,-1.39852 -0.470616,-0.90407 -0.470616,-0.90406 -0.272283,-0.77651 -0.272281,-0.77652 5.29e-4,-0.60791 5.29e-4,-0.60792 0.258326,-0.40703 0.258324,-0.40703 0.39629,-0.19687 0.396289,-0.19689 h 0.518068 0.518069 l 0.364724,0.27562 0.364724,0.27563 0.197006,0.45299 0.197008,0.45298 0.247172,-0.46287 0.247172,-0.46286 0.351648,-0.26575 0.351649,-0.26574 h 0.590322 0.590321 l 0.399325,0.27318 0.399326,0.27318 0.183532,0.422 0.183533,0.422 v 0.45844 0.45844 l -0.339028,0.97595 -0.339027,0.97595 -0.603501,1.08068 -0.603501,1.08068 -0.730122,1.17949 -0.730122,1.17947 -0.09889,0.0588 z"
       id="path3065"
       transform="translate(-1.0416666e-6,-1.1083333e-5)" />
    <path
       style="display:inline;fill:#e30d19;stroke-width:1"
       d="m 90.624527,484.56263 -0.09145,0.005 -0.05913,-0.0954 -0.05913,-0.0953 -0.889697,-1.39852 -0.889696,-1.39853 -0.566379,-1.08225 -0.566378,-1.08225 -0.21297,-0.68898 -0.212971,-0.68898 5.3e-4,-0.51727 5.29e-4,-0.51726 0.258326,-0.40702 0.258324,-0.40704 0.424792,-0.21104 0.424791,-0.21104 0.581823,0.063 0.581823,0.063 0.334851,0.30079 0.334851,0.30079 0.169438,0.38141 0.16944,0.38142 0.09697,-0.34826 0.09697,-0.34826 0.453794,-0.38279 0.453792,-0.38279 h 0.639231 0.639229 l 0.364724,0.27562 0.364723,0.27563 0.182468,0.41955 0.182469,0.41956 v 0.44857 0.44856 l -0.283235,0.79512 -0.283234,0.79512 -0.461241,0.88997 -0.461238,0.88997 -0.942812,1.55283 -0.942814,1.55285 -0.09144,0.005 z"
       id="path3063"
       transform="translate(-1.0416666e-6,-1.1083333e-5)" />
    <path
       style="display:inline;fill:#e30d19;stroke-width:1"
       d="m 68.939761,484.60998 -0.0953,0.10631 -0.718256,-1.12341 -0.718256,-1.12342 -0.481937,-0.77013 -0.481938,-0.77014 -0.412101,-0.88242 -0.412103,-0.88242 -0.176455,-0.72668 -0.176454,-0.7267 0.09878,-0.4208 0.09879,-0.42078 0.156956,-0.28176 0.156955,-0.28176 0.412931,-0.20514 0.41293,-0.20516 0.420346,-0.0114 0.420346,-0.0114 0.399993,0.15917 0.399993,0.15918 0.303967,0.51959 0.303966,0.5196 0.195775,-0.36814 0.195774,-0.36813 0.20178,-0.22179 0.201779,-0.22178 0.47225,-0.12526 0.47225,-0.12528 0.490772,0.12696 0.490773,0.12697 0.335235,0.38275 0.335236,0.38276 0.08817,0.45154 0.08817,0.45155 -0.232587,0.82549 -0.232586,0.8255 -0.51793,1.02895 -0.517931,1.02895 -0.942394,1.5362 -0.942394,1.53622 -0.0953,0.1063 z"
       id="path3061"
       transform="translate(-1.0416666e-6,-1.1083333e-5)" />
    <path
       style="display:inline;fill:#e30d19;stroke-width:1"
       d="m 78.185354,494.44215 -0.570669,0.0558 -0.451953,-0.22943 -0.451955,-0.22943 -0.251922,-0.44498 -0.251922,-0.44499 0.07495,-0.74663 0.07495,-0.74664 0.516315,-1.16044 0.516315,-1.16044 0.655402,-1.08068 0.655405,-1.08068 0.498284,-0.79462 0.498283,-0.79461 0.08378,0.003 0.08379,0.003 0.95541,1.56955 0.955411,1.56957 0.515771,1.00173 0.515773,1.00174 0.231067,0.67999 0.231068,0.67999 -0.05613,0.74555 -0.05613,0.74556 -0.256588,0.27658 -0.256586,0.27659 -0.425842,0.17316 -0.425842,0.17317 -0.368175,-5.1e-4 -0.368175,-5.1e-4 -0.438057,-0.25659 -0.438055,-0.25658 -0.210048,-0.47399 -0.210048,-0.47399 -0.166746,0.38142 -0.166747,0.38142 -0.334851,0.30078 -0.334852,0.30079 -0.570668,0.0558 z"
       id="path3059"
       transform="translate(-1.0416666e-6,-1.1083333e-5)" />
    <path
       style="display:inline;fill:#e30d19;stroke-width:1"
       d="m 89.194102,504.30087 -0.330841,0.0677 -0.435513,-0.096 -0.435511,-0.096 -0.254497,-0.22128 -0.254496,-0.22126 -0.22143,-0.55703 -0.22143,-0.55703 0.145511,-0.6961 0.145511,-0.6961 0.405246,-0.93521 0.405245,-0.93521 0.669959,-1.13347 0.669961,-1.13349 0.533007,-0.85819 0.533006,-0.85818 0.08407,7.6e-4 0.08407,7.7e-4 0.252498,0.41239 0.252497,0.4124 0.989208,1.6528 0.989208,1.6528 0.374611,0.86449 0.374611,0.86448 0.109668,0.59761 0.109669,0.59761 -0.08591,0.4879 -0.08591,0.48792 -0.406859,0.39087 -0.406858,0.39088 -0.738806,0.0589 -0.738804,0.0589 -0.461319,-0.46994 -0.461318,-0.46984 v -0.18166 -0.18165 H 90.679913 90.57767 l -0.235638,0.4132 -0.235636,0.4132 -0.290718,0.20224 -0.290717,0.20223 z"
       id="path3055"
       transform="translate(-1.0416666e-6,-1.1083333e-5)" />
    <path
       style="display:inline;fill:#e30d19;stroke-width:1"
       d="m 67.067445,504.40038 -0.436665,-5.1e-4 -0.407601,-0.23879 -0.407599,-0.23879 -0.220998,-0.44743 -0.220995,-0.44743 v -0.44416 -0.44417 l 0.280091,-0.87157 0.280093,-0.87158 0.591513,-1.13177 0.591513,-1.13176 0.299278,-0.45747 0.29928,-0.45746 0.569657,-0.92969 0.569658,-0.92969 0.117101,0.16685 0.1171,0.16687 0.904957,1.46209 0.904957,1.46209 0.498061,0.95354 0.498059,0.95354 0.24625,0.68738 0.24625,0.68738 v 0.63257 0.63257 l -0.277448,0.43129 -0.27745,0.43129 -0.377659,0.18763 -0.377661,0.18762 -0.436665,-5.1e-4 -0.436664,-5.1e-4 -0.438057,-0.25658 -0.438055,-0.25659 -0.200929,-0.462 -0.200929,-0.46201 -0.328367,0.52903 -0.328368,0.52903 -0.382522,0.19003 -0.382522,0.19004 -0.436664,-5.1e-4 z"
       id="path3053"
       transform="translate(-1.0416666e-6,-1.1083333e-5)" />
  </g>
  <g
     inkscape:groupmode="layer"
     id="layer6"
     inkscape:label="OuterSuit"
     style="display:inline"
     transform="translate(94.217781,-340.71922)">
    <path
       style="display:inline;fill:#e30d19;stroke-width:1"
       d="m 55.743437,469.18255 -0.09656,-9.3e-4 -1.116553,-1.80658 -1.116553,-1.80658 -0.551429,-0.95776 -0.551429,-0.95775 -0.424841,-0.92995 -0.424841,-0.92995 -0.272522,-1.03535 -0.272522,-1.03535 0.152189,-0.63342 0.152187,-0.63342 0.334208,-0.42096 0.334206,-0.42096 0.41086,-0.20411 0.410861,-0.20412 0.861426,0.0527 0.861428,0.0527 0.486337,0.52651 0.486338,0.52651 0.126357,0.41967 0.126356,0.41966 0.312994,-0.5997 0.312993,-0.5997 0.378036,-0.34796 0.378036,-0.34795 0.837196,-0.0513 0.837198,-0.0512 0.425245,0.21127 0.425245,0.21126 0.389464,0.59 0.389465,0.59 v 0.85852 0.85852 l -0.330613,1.00546 -0.330613,1.00548 -0.699179,1.32137 -0.699179,1.32137 -0.513686,0.8264 -0.513687,0.8264 -0.42547,0.64223 -0.425469,0.64224 -0.283457,0.53379 -0.283457,0.53381 -0.09656,-9e-4 z"
       id="path3067"
       transform="translate(-1.0416666e-6,-1.1083333e-5)" />
    <path
       style="display:inline;fill:#e30d19;stroke-width:1"
       d="m 101.36399,503.25383 -0.46822,0.003 -0.58993,-0.28606 -0.589921,-0.28606 -0.296123,-0.50856 -0.296125,-0.50855 -0.0022,-0.8448 -0.0022,-0.84479 0.279693,-0.87158 0.279694,-0.87157 0.563082,-1.15882 0.56308,-1.1588 1.18981,-1.95609 1.1898,-1.95608 0.2264,-0.4241 0.22639,-0.42408 0.69197,1.05978 0.69197,1.05978 0.87064,1.4621 0.87063,1.46209 0.41692,0.79811 0.41692,0.79811 0.39327,1.12772 0.39327,1.12772 v 0.68536 0.68535 l -0.29776,0.56625 -0.29775,0.56626 -0.44489,0.28399 -0.44488,0.28399 -0.44838,0.0808 -0.44839,0.0808 -0.45928,-0.0828 -0.45929,-0.0828 -0.42104,-0.34037 -0.42105,-0.34037 -0.26234,-0.56977 -0.26234,-0.56977 -0.38617,0.73371 -0.38617,0.73371 -0.55546,0.24226 -0.55545,0.24228 -0.46822,0.003 z"
       id="path3057"
       transform="translate(-1.0416666e-6,-1.1083333e-5)" />
  </g>
  <g
     inkscape:groupmode="layer"
     id="layer3"
     inkscape:label="CardName"
     style="display:inline"
     transform="translate(94.217781,-340.71922)">
    <path
       id="path2940"
       style="display:inline;fill:#e30d19;stroke-width:0.999999"
       d="m 102.48807,506.37171 -0.88149,0.41696 -0.88202,0.41697 -0.59717,0.63787 -0.596636,0.63786 -0.284854,0.7253 -0.284855,0.72477 0.05708,0.95344 0.05708,0.95344 0.301009,0.56182 0.30047,0.56182 0.659096,0.61665 0.65856,0.61665 -0.50402,0.7284 -0.504549,0.72892 -0.05169,0.86497 -0.05116,0.86497 0.226699,0.5701 0.2267,0.57061 0.3317,0.37869 0.3317,0.3792 0.5864,0.33005 0.5864,0.33006 0.55787,0.17486 0.55732,0.17486 0.69518,-0.0533 0.69517,-0.0533 0.70056,-0.30832 0.70056,-0.30781 0.47332,-0.39938 0.47332,-0.39938 0.29562,-0.65959 0.29509,-0.65959 -0.0108,-0.72323 -0.0102,-0.72323 -0.13623,-0.34402 -0.13624,-0.34454 -0.4087,-0.57009 -0.40817,-0.57062 0.66179,-0.60941 0.66179,-0.60993 0.30962,-0.62183 0.30963,-0.62235 -0.003,-1.14381 -0.002,-1.14433 -0.35054,-0.63579 -0.35001,-0.6358 -0.57348,-0.53389 -0.57402,-0.53388 -0.79372,-0.35592 -0.79425,-0.35592 h -1.26004 z m 0.39578,1.77961 h 0.86749 0.86695 l 0.65694,0.32488 0.65694,0.32488 0.38394,0.52457 0.38339,0.52406 0.0635,0.63631 0.0635,0.63631 -0.2967,0.58976 -0.29724,0.58975 -0.70056,0.44698 -0.70055,0.44697 -0.77164,0.0486 v -5.2e-4 l -0.77218,0.0486 -0.4437,-0.13036 -0.44425,-0.13037 -0.48247,-0.30885 -0.48194,-0.30884 -0.32632,-0.46301 -0.32685,-0.46301 -0.004,-0.72426 -0.004,-0.72426 0.39793,-0.61924 0.39848,-0.61924 0.65694,-0.32488 z m 0.26763,6.80183 h 0.59932 0.59987 l 0.46093,0.23694 0.46148,0.23693 0.24662,0.40455 0.24716,0.40404 -0.007,0.49663 -0.007,0.49612 -0.1427,0.25608 -0.14215,0.25556 -0.46686,0.34247 -0.4674,0.34195 -0.62302,0.0486 -0.62302,0.0486 -0.4394,-0.21521 -0.43939,-0.21521 -0.33709,-0.42472 -0.33709,-0.42421 0.008,-0.51526 0.007,-0.51526 0.24016,-0.39265 0.23962,-0.39214 0.46094,-0.23693 z"
       transform="translate(-1.0416666e-6,-1.1083333e-5)" />
    <path
       id="path3073"
       style="display:inline;fill:#e30d19;stroke-width:0.999999"
       d="m 54.985214,440.28095 -0.717251,0.22917 -0.717792,0.22918 -0.583707,0.51733 -0.584248,0.51681 -0.264932,0.49922 -0.264393,0.4987 -0.07323,0.68184 -0.07323,0.68184 0.232622,0.60476 0.232622,0.60527 0.382319,0.47077 0.38232,0.47025 -0.661251,0.59441 -0.661248,0.59441 -0.324704,0.65132 -0.325241,0.65132 -0.08616,0.58872 -0.08669,0.58923 0.154544,0.71288 0.154003,0.71288 0.512632,0.73254 0.513167,0.73253 0.652097,0.42163 0.651558,0.42214 0.778101,0.24676 0.778098,0.24728 0.983261,-0.0569 0.983257,-0.0569 0.961723,-0.4568 0.961721,-0.4568 0.481397,-0.53647 0.481939,-0.53699 0.285931,-0.50853 0.285932,-0.50853 v -1.20796 -1.20745 l -0.311241,-0.56182 -0.311779,-0.56182 -0.647788,-0.6063 -0.647248,-0.6058 v -0.0771 -0.0771 l 0.281085,-0.28091 0.281084,-0.28091 0.271392,-0.57216 0.270853,-0.57165 0.0022,-0.76565 0.0017,-0.76513 -0.384472,-0.67925 -0.384476,-0.67873 -0.519091,-0.4268 -0.519092,-0.42679 -0.676329,-0.21573 -0.676326,-0.21624 h -0.727482 z m 0.728023,1.68493 0.523398,0.13554 0.522863,0.13554 0.39955,0.3223 0.39901,0.32281 0.126004,0.43921 0.126543,0.43922 -0.107696,0.36161 -0.108232,0.36109 -0.144853,0.26074 -0.145388,0.26073 -0.431857,0.25453 -0.43186,0.25504 -0.463091,0.0729 -0.463091,0.0729 -0.505092,-0.17745 -0.505091,-0.17692 -0.269238,-0.23435 -0.269779,-0.23435 -0.184697,-0.34351 -0.185235,-0.34351 v -0.33057 -0.33057 l 0.186313,-0.34351 0.185775,-0.34299 0.310163,-0.2747 0.310701,-0.2747 0.56217,-0.1433 z m -0.224547,5.19346 0.608481,0.0786 0.60848,0.0792 0.593938,0.29229 0.594479,0.29229 0.374782,0.51215 0.374779,0.51216 0.07216,0.51526 0.07162,0.51474 -0.161544,0.47077 -0.161544,0.47077 -0.403857,0.44128 -0.403319,0.4418 -0.507248,0.24832 -0.507244,0.24883 -0.762483,0.0595 -0.762485,0.059 -0.53417,-0.18986 -0.534707,-0.18986 -0.47386,-0.37558 -0.47386,-0.37506 -0.215932,-0.43715 -0.215928,-0.43662 v -0.58872 -0.58872 l 0.178775,-0.41128 0.178775,-0.41127 0.483551,-0.40766 0.483554,-0.40765 0.747407,-0.209 z"
       transform="translate(-1.0416666e-6,-1.1083333e-5)" />
  </g>
</svg>
