<?xml version="1.0" encoding="UTF-8" standalone="no"?>
<svg
   width="63.500004mm"
   height="88.899895mm"
   viewBox="142.0878 95.116776 63.500012 88.899887"
   version="1.1"
   id="svg10"
   sodipodi:docname="8S.svg"
   inkscape:version="1.1.1 (1:1.1+202109281949+c3084ef5ed)"
   inkscape:export-filename="/home/doug/k40/52Cards/IndividualColorCards/8S.png"
   inkscape:export-xdpi="300"
   inkscape:export-ydpi="300"
   xmlns:inkscape="http://www.inkscape.org/namespaces/inkscape"
   xmlns:sodipodi="http://sodipodi.sourceforge.net/DTD/sodipodi-0.dtd"
   xmlns="http://www.w3.org/2000/svg"
   xmlns:svg="http://www.w3.org/2000/svg">
  <defs
     id="defs14">
    <marker
       style="overflow:visible"
       id="marker2995"
       refX="0"
       refY="0"
       orient="auto"
       inkscape:stockid="Arrow1Lstart"
       inkscape:isstock="true">
      <path
         transform="matrix(0.8,0,0,0.8,10,0)"
         style="fill:#000000;fill-opacity:1;fill-rule:evenodd;stroke:#000000;stroke-width:1pt;stroke-opacity:1"
         d="M 0,0 5,-5 -12.5,0 5,5 Z"
         id="path2993" />
    </marker>
    <marker
       style="overflow:visible"
       id="marker2985"
       refX="0"
       refY="0"
       orient="auto"
       inkscape:stockid="Arrow1Lstart"
       inkscape:isstock="true">
      <path
         transform="matrix(0.8,0,0,0.8,10,0)"
         style="fill:#000000;fill-opacity:1;fill-rule:evenodd;stroke:#000000;stroke-width:1pt;stroke-opacity:1"
         d="M 0,0 5,-5 -12.5,0 5,5 Z"
         id="path2983" />
    </marker>
    <marker
       style="overflow:visible"
       id="marker2791"
       refX="0"
       refY="0"
       orient="auto"
       inkscape:stockid="Arrow1Lstart"
       inkscape:isstock="true">
      <path
         transform="matrix(0.8,0,0,0.8,10,0)"
         style="fill:#000000;fill-opacity:1;fill-rule:evenodd;stroke:#000000;stroke-width:1pt;stroke-opacity:1"
         d="M 0,0 5,-5 -12.5,0 5,5 Z"
         id="path2789" />
    </marker>
    <marker
       style="overflow:visible"
       id="marker2781"
       refX="0"
       refY="0"
       orient="auto"
       inkscape:stockid="Arrow1Lstart"
       inkscape:isstock="true">
      <path
         transform="matrix(0.8,0,0,0.8,10,0)"
         style="fill:#000000;fill-opacity:1;fill-rule:evenodd;stroke:#000000;stroke-width:1pt;stroke-opacity:1"
         d="M 0,0 5,-5 -12.5,0 5,5 Z"
         id="path2779" />
    </marker>
    <marker
       style="overflow:visible"
       id="marker2417"
       refX="0"
       refY="0"
       orient="auto"
       inkscape:stockid="Arrow1Lstart"
       inkscape:isstock="true">
      <path
         transform="matrix(0.8,0,0,0.8,10,0)"
         style="fill:#000000;fill-opacity:1;fill-rule:evenodd;stroke:#000000;stroke-width:1pt;stroke-opacity:1"
         d="M 0,0 5,-5 -12.5,0 5,5 Z"
         id="path2415" />
    </marker>
    <marker
       style="overflow:visible"
       id="marker2383"
       refX="0"
       refY="0"
       orient="auto"
       inkscape:stockid="Arrow1Lstart"
       inkscape:isstock="true">
      <path
         transform="matrix(0.8,0,0,0.8,10,0)"
         style="fill:#000000;fill-opacity:1;fill-rule:evenodd;stroke:#000000;stroke-width:1pt;stroke-opacity:1"
         d="M 0,0 5,-5 -12.5,0 5,5 Z"
         id="path2381" />
    </marker>
    <marker
       style="overflow:visible"
       id="marker2355"
       refX="0"
       refY="0"
       orient="auto"
       inkscape:stockid="Arrow1Lstart"
       inkscape:isstock="true">
      <path
         transform="matrix(0.8,0,0,0.8,10,0)"
         style="fill:#000000;fill-opacity:1;fill-rule:evenodd;stroke:#000000;stroke-width:1pt;stroke-opacity:1"
         d="M 0,0 5,-5 -12.5,0 5,5 Z"
         id="path2353" />
    </marker>
    <marker
       style="overflow:visible"
       id="Arrow1Lstart"
       refX="0"
       refY="0"
       orient="auto"
       inkscape:stockid="Arrow1Lstart"
       inkscape:isstock="true">
      <path
         transform="matrix(0.8,0,0,0.8,10,0)"
         style="fill:#000000;fill-opacity:1;fill-rule:evenodd;stroke:#000000;stroke-width:1pt;stroke-opacity:1"
         d="M 0,0 5,-5 -12.5,0 5,5 Z"
         id="path2071" />
    </marker>
  </defs>
  <sodipodi:namedview
     id="namedview12"
     pagecolor="#ffffff"
     bordercolor="#666666"
     borderopacity="1.0"
     inkscape:pageshadow="2"
     inkscape:pageopacity="0.0"
     inkscape:pagecheckerboard="0"
     inkscape:document-units="mm"
     showgrid="false"
     showborder="false"
     fit-margin-top="0"
     fit-margin-left="0"
     fit-margin-right="0"
     fit-margin-bottom="0"
     inkscape:zoom="1.4874999"
     inkscape:cx="120.00001"
     inkscape:cy="167.7311"
     inkscape:window-width="1366"
     inkscape:window-height="712"
     inkscape:window-x="0"
     inkscape:window-y="0"
     inkscape:window-maximized="1"
     inkscape:current-layer="layer5" />
  <g
     inkscape:groupmode="layer"
     id="layer1"
     inkscape:label="CardOutline"
     style="display:inline"
     transform="translate(94.217781,-340.71922)">
    <path
       id="path4-3"
       style="display:inline;fill:none;fill-rule:evenodd;stroke:#000000;stroke-width:0.25;stroke-miterlimit:4;stroke-dasharray:none;stroke-opacity:1"
       d="m 50.564743,435.96104 -0.534158,0.31687 c -0.688621,0.40844 -1.158412,0.85449 -1.590112,1.51001 l -0.346181,0.5258 -0.06384,25.43159 c -0.03506,13.98732 -0.046,32.74824 -0.02422,41.69094 0.03916,16.06607 0.04297,16.26663 0.30127,16.87005 h 2.54e-4 c 0.321831,0.75178 1.375871,1.69211 2.308962,2.06009 0.662802,0.26139 0.718825,0.26193 29.335815,0.23047 27.968057,-0.0307 28.683467,-0.0377 29.150357,-0.27706 0.72044,-0.36932 1.35524,-0.98173 1.76901,-1.70664 l 0.37116,-0.65029 9.8e-4,-41.53137 9.8e-4,-41.53137 -0.30833,-0.61121 c -0.3634,-0.72062 -1.20695,-1.59056 -1.92217,-1.98245 l -0.50968,-0.27931 -28.969947,-0.0331 z m 0.134234,0.49272 57.679013,0.0666 0.38933,0.21242 0.11632,0.0681 0.12061,0.0774 0.13902,0.0985 0.11304,0.0864 0.12364,0.1017 0.13751,0.12124 0.11153,0.10621 0.13145,0.13177 0.10774,0.11773 0.12692,0.13477 0.0918,0.11748 0.10345,0.13201 0.0951,0.13352 0.0785,0.11974 0.0739,0.12124 0.0603,0.11222 0.25661,0.50651 -0.003,82.81198 -0.30631,0.53682 -0.13726,0.22444 -0.18268,0.24876 -0.16754,0.20014 -0.19757,0.20466 -0.19327,0.17285 -0.23542,0.18336 -0.22481,0.1503 -0.2233,0.12574 -0.0212,0.0108 -0.0149,0.006 -0.0394,0.012 -0.027,0.006 -0.0507,0.01 -0.0277,0.004 -0.0606,0.008 -0.0573,0.008 -0.0679,0.006 -0.083,0.0105 -0.0868,0.004 -0.0913,0.006 -0.10698,0.007 -0.25056,0.012 -0.3048,0.0108 -0.3545,0.0105 -0.41809,0.009 -0.47538,0.009 -0.54929,0.008 -0.96108,0.0105 -1.14073,0.0108 -3.46459,0.0165 -34.84847,0.0471 -6.84314,-0.003 -1.74276,-0.004 -1.260078,-0.006 -1.065289,-0.008 -0.60506,-0.006 -0.534158,-0.008 -0.467798,-0.009 -0.401438,-0.009 -0.339623,-0.009 -0.289659,-0.012 -0.126666,-0.006 -0.11632,-0.006 -0.106979,-0.006 -0.08302,-0.006 -0.08302,-0.008 -0.07998,-0.006 -0.0545,-0.007 -0.10093,-0.0135 -0.09967,-0.0183 -0.03911,-0.009 -0.04844,-0.0138 -0.0376,-0.0135 -0.04692,-0.0183 -0.167539,-0.0726 -0.143315,-0.0699 -0.177886,-0.0985 -0.140542,-0.0864 -0.159971,-0.10773 -0.155176,-0.11372 -0.152651,-0.12124 -0.161231,-0.13803 -0.123887,-0.11372 -0.144835,-0.14729 -0.11026,-0.11974 -0.119098,-0.14253 -0.08604,-0.11374 -0.09361,-0.13951 -0.06485,-0.11098 -0.05601,-0.11974 -0.027,-0.0669 -0.03481,-0.10621 -0.0061,-0.027 -0.01211,-0.0669 -0.01338,-0.0939 -0.01514,-0.12124 -0.0044,-0.0531 -0.01362,-0.15632 -0.0099,-0.16206 -0.01133,-0.21243 -0.01059,-0.23947 -0.0088,-0.27305 -0.0091,-0.31236 -0.0076,-0.3532 -0.01059,-0.61573 -0.0091,-0.72319 -0.0106,-1.15404 -0.0106,-1.77404 -0.01641,-4.27149 -0.01968,-8.14897 -0.0061,-8.546 0.0015,-6.72963 0.0044,-7.16476 0.0091,-7.2692 0.01943,-9.71082 0.0651,-25.28355 0.257868,-0.39253 0.152402,-0.21993 0.166025,-0.21393 0.147862,-0.16834 0.169052,-0.17133 0.185708,-0.16508 0.168798,-0.13202 0.229612,-0.16082 0.227845,-0.14253 z"
       inkscape:export-filename="/home/doug/k40/52Cards/IndividualColorCards/2D.png"
       inkscape:export-xdpi="300"
       inkscape:export-ydpi="300" />
  </g>
  <g
     inkscape:groupmode="layer"
     id="layer2"
     inkscape:label="InnerRectangle"
     style="display:inline"
     transform="translate(94.217781,-340.71922)">
    <path
       id="path2-6"
       style="display:inline;fill:none;fill-rule:evenodd;stroke:#4c71a5;stroke-width:0.262609;stroke-opacity:1"
       d="m 63.13524,452.67467 0.0441,14.05596 c 0.0243,7.7307 0.0504,20.15551 0.0578,27.61093 l 0.0134,13.55547 16.409043,-0.0521 16.40903,-0.0519 0.0305,-24.32539 c 0.0169,-13.37898 -0.004,-25.78048 -0.0462,-27.55907 l -0.077,-3.23394 h -16.42035 z m 16.503153,0.25626 h 16.11155 l 0.005,0.73622 c 0.003,0.40503 0.0367,12.68075 0.0757,27.27927 l 0.0709,26.54279 -3.16634,0.004 c -1.74158,0.002 -8.99902,0.0153 -16.12745,0.0285 -7.12842,0.0133 -12.991523,-0.007 -13.029223,-0.0446 -0.0728,-0.0731 -0.16665,-54.20072 -0.0944,-54.4185 0.028,-0.0844 5.532343,-0.128 16.154193,-0.128 z"
       inkscape:export-filename="/home/doug/k40/52Cards/IndividualColorCards/2D.png"
       inkscape:export-xdpi="300"
       inkscape:export-ydpi="300" />
  </g>
  <g
     inkscape:groupmode="layer"
     id="layer5"
     inkscape:label="InnerSuit"
     style="display:inline"
     transform="translate(94.217781,-340.71922)">
    <path
       style="display:inline;fill:#170e09;stroke-width:0.999997"
       d="m 89.662974,466.27139 c 0.423791,-0.71334 0.855655,-2.04048 0.861999,-2.64897 l 0.0031,-0.30248 -0.253679,0.31702 c -0.3605,0.45053 -0.934616,0.64933 -1.647166,0.57037 -0.484616,-0.0537 -0.691358,-0.1584 -1.030073,-0.52173 -0.36735,-0.39405 -0.4236,-0.54348 -0.422507,-1.12232 0.0017,-0.90256 0.345663,-1.57606 1.863255,-3.64843 0.689655,-0.94176 1.337597,-1.86925 1.439871,-2.06109 0.235944,-0.44257 0.328169,-0.43796 0.609694,0.0306 0.125373,0.20864 0.741358,1.08323 1.368856,1.94354 1.313887,1.80135 1.787732,2.65711 1.89424,3.42097 0.160807,1.15331 -0.59795,1.9918 -1.803227,1.99272 -0.544579,3.8e-4 -0.684934,-0.0577 -1.081671,-0.44768 -0.250742,-0.2465 -0.471327,-0.43199 -0.490191,-0.41222 -0.113922,0.11936 0.244312,1.51664 0.557461,2.17436 l 0.370806,0.77882 h -1.139249 c -0.626587,0 -1.122295,-0.0286 -1.101574,-0.0634 z"
       id="path2768"
       transform="translate(-1.0416666e-6,-1.1083333e-5)" />
    <path
       style="display:inline;fill:#170e09;stroke-width:0.999997"
       d="m 67.488196,466.20797 c 0.438775,-0.94895 0.73415,-1.80746 0.793026,-2.30497 0.0673,-0.5686 0.05815,-0.59491 -0.128111,-0.36878 -1.078727,1.30958 -3.171192,0.62916 -3.172011,-1.03147 -3.87e-4,-0.71936 0.506799,-1.77111 1.49883,-3.10835 0.532044,-0.71719 1.206913,-1.66072 1.49971,-2.09672 0.292796,-0.43599 0.578265,-0.79273 0.634378,-0.79273 0.05611,0 0.184737,0.15696 0.285833,0.34881 0.101098,0.19184 0.681951,1.01941 1.290787,1.83905 1.83275,2.46733 2.273483,3.55573 1.846561,4.56016 -0.242481,0.5705 -0.696109,0.87486 -1.424129,0.95552 -0.619932,0.0687 -1.270829,-0.18758 -1.535804,-0.60467 -0.596328,-0.93866 -0.290834,0.70453 0.47236,2.54073 0.06664,0.16031 -0.09397,0.19026 -1.0205,0.19026 -0.686131,0 -1.077525,-0.0477 -1.04093,-0.12684 z"
       id="path2766"
       transform="translate(-1.0416666e-6,-1.1083333e-5)" />
    <path
       style="display:inline;fill:#170e09;stroke-width:0.999997"
       d="m 78.566798,475.65731 c 0.414948,-0.70023 0.855183,-2.03804 0.861905,-2.61918 0.0028,-0.24724 -0.0378,-0.23244 -0.435536,0.15855 -0.386324,0.37977 -0.518711,0.43124 -1.109073,0.43124 -1.161505,0 -1.806923,-0.63125 -1.806923,-1.76724 0,-0.87079 0.354833,-1.48772 2.521675,-4.38434 0.469663,-0.62784 0.910657,-1.22715 0.979987,-1.33179 0.07478,-0.11287 0.149994,-0.13646 0.184918,-0.058 0.03237,0.0727 0.537045,0.77631 1.121491,1.56349 2.203533,2.96791 2.631083,3.87898 2.292968,4.8861 -0.241696,0.71991 -0.795831,1.09177 -1.626945,1.09177 -0.617227,0 -0.757724,-0.0518 -1.19614,-0.44118 l -0.496765,-0.44118 0.10359,0.64419 c 0.129974,0.80826 0.338059,1.46068 0.622088,1.95047 l 0.220656,0.38051 h -1.137737 c -0.625757,0 -1.120827,-0.0286 -1.100159,-0.0634 z"
       id="path2762"
       transform="translate(-1.0416666e-6,-1.1083333e-5)" />
    <path
       style="display:inline;fill:#170e09;stroke-width:0.999997"
       d="m 68.335588,485.06921 c 0,-0.0554 -0.415204,-0.66904 -0.922673,-1.3635 -1.586761,-2.1714 -1.75522,-2.41668 -2.050051,-2.98479 -0.412578,-0.79499 -0.477102,-1.96025 -0.137823,-2.489 0.592742,-0.92377 1.855875,-1.05671 2.67,-0.28102 0.382205,0.36416 0.440547,0.38638 0.440547,0.16784 0,-0.41597 -0.368083,-1.67391 -0.647141,-2.21162 l -0.261289,-0.50348 h 1.11315 c 0.842384,0 1.095876,0.0385 1.042127,0.15854 -0.466018,1.04027 -0.725589,1.79016 -0.801245,2.31477 l -0.09146,0.63419 0.285912,-0.35134 c 1.008902,-1.23975 2.832531,-0.79788 3.16453,0.76679 0.19119,0.90105 -0.24352,1.70984 -2.703618,5.0302 -0.819508,1.10607 -1.100969,1.39046 -1.10097,1.11242 z"
       id="path2756"
       transform="translate(-1.0416666e-6,-1.1083333e-5)" />
    <path
       style="display:inline;fill:#170e09;stroke-width:0.999997"
       d="m 89.742346,483.94854 c -2.069682,-2.89481 -2.327997,-3.30011 -2.522508,-3.95786 -0.168422,-0.56951 -0.175265,-0.7734 -0.04169,-1.24238 0.390487,-1.37101 2.106002,-1.73442 3.039479,-0.64387 l 0.343072,0.4008 -0.08962,-0.56781 c -0.115226,-0.73006 -0.572893,-2.12907 -0.727161,-2.2228 -0.307484,-0.18681 -0.03097,-0.26025 0.979903,-0.26025 0.60438,0 1.080329,0.0314 1.057663,0.0697 -0.360259,0.60984 -0.867707,2.21065 -0.864844,2.72827 0.0013,0.22249 0.04671,0.20226 0.324616,-0.14431 0.857109,-1.06891 2.669341,-0.71839 3.026472,0.58538 0.23899,0.87248 -0.130177,1.87003 -1.253354,3.38675 -0.338449,0.45704 -0.997994,1.36526 -1.465657,2.01827 l -0.850295,1.18728 z"
       id="path2754"
       transform="translate(-1.0416666e-6,-1.1083333e-5)" />
    <path
       style="display:inline;fill:#170e09;stroke-width:0.999997"
       d="m 79.218147,494.27091 c -0.190286,-0.29632 -0.822085,-1.16814 -1.403999,-1.93739 -1.371789,-1.81339 -1.783153,-2.60078 -1.787674,-3.42176 -0.0063,-1.13874 0.671545,-1.83914 1.779834,-1.83914 0.499656,0 0.673597,0.0719 1.109073,0.45869 0.430846,0.38264 0.516477,0.4186 0.516477,0.2169 0,-0.3637 -0.364937,-1.66791 -0.634045,-2.26595 l -0.237649,-0.52813 1.080979,0.007 c 0.594539,0.004 1.080979,0.0167 1.080979,0.0288 0,0.0121 -0.137591,0.32881 -0.305758,0.70373 -0.270654,0.60341 -0.597427,1.78557 -0.597427,2.1613 0,0.0744 0.232416,-0.071 0.516478,-0.32334 0.447236,-0.3972 0.602314,-0.45869 1.156747,-0.45869 0.529758,0 0.717634,0.0668 1.088476,0.38685 1.152955,0.99513 0.875327,2.20699 -1.102731,4.81346 -0.502941,0.66272 -1.112773,1.5046 -1.355182,1.87084 -0.24241,0.36624 -0.467261,0.6659 -0.499673,0.6659 -0.03241,0 -0.214619,-0.24244 -0.404905,-0.53876 z"
       id="path2750"
       transform="translate(-1.0416666e-6,-1.1083333e-5)" />
    <path
       style="display:inline;fill:#170e09;stroke-width:0.999997"
       d="m 90.367388,503.96235 c -0.119009,-0.19805 -0.749055,-1.06847 -1.400102,-1.93426 -1.787036,-2.37649 -2.175766,-3.34144 -1.747139,-4.33695 0.235025,-0.54586 0.60737,-0.85216 1.193964,-0.98222 0.675401,-0.14974 1.161975,-0.0252 1.605667,0.41095 l 0.379325,0.37289 v -0.36724 c 0,-0.48589 -0.348699,-1.64298 -0.648571,-2.15215 l -0.239743,-0.40709 1.143727,0.002 1.143724,0.002 -0.372985,0.78581 c -0.205144,0.4322 -0.413065,1.12826 -0.46205,1.54682 l -0.08907,0.76102 0.351393,-0.4085 c 0.746471,-0.8678 2.343087,-0.74694 2.849487,0.21571 0.473474,0.90006 0.1369,2.01958 -1.113908,3.7051 -0.48188,0.64937 -1.182888,1.62107 -1.557794,2.15936 -0.374907,0.53828 -0.712678,0.98062 -0.750601,0.98298 -0.03792,0.002 -0.166321,-0.15775 -0.28533,-0.3558 z"
       id="path2746"
       transform="translate(-1.0416666e-6,-1.1083333e-5)" />
    <path
       style="display:inline;fill:#170e09;stroke-width:0.999997"
       d="m 68.240249,504.02737 c -0.07522,-0.16229 -0.527872,-0.8044 -1.005899,-1.42692 -1.503193,-1.95756 -1.945475,-2.66154 -2.173067,-3.45892 -0.353298,-1.23777 0.0091,-2.10256 1.018549,-2.43003 0.625604,-0.20296 1.249925,-0.0685 1.730408,0.37274 l 0.396322,0.36394 v -0.4354 c 0,-0.47823 -0.423097,-1.81897 -0.709483,-2.24825 -0.18086,-0.27109 -0.177753,-0.27196 0.974812,-0.27196 0.723726,0 1.134417,0.0474 1.097884,0.12684 -0.417133,0.90649 -0.713969,1.76704 -0.787524,2.28306 l -0.0904,0.63419 0.434743,-0.40256 c 0.587334,-0.54385 1.209126,-0.64466 1.960687,-0.31784 1.399472,0.60855 1.338342,2.1419 -0.165247,4.14499 -0.418915,0.55808 -1.128694,1.54068 -1.577286,2.18355 -0.448593,0.64286 -0.849851,1.17082 -0.891682,1.17324 -0.04184,0.002 -0.137602,-0.12839 -0.21282,-0.29067 z"
       id="path2744"
       transform="translate(-1.0416666e-6,-1.1083333e-5)" />
  </g>
  <g
     inkscape:groupmode="layer"
     id="layer6"
     inkscape:label="OuterSuit"
     style="display:inline"
     transform="translate(94.217781,-340.71922)">
    <path
       style="display:inline;fill:#170e09;stroke-width:0.999997"
       d="m 54.271708,471.10233 c 0,-0.0288 0.143335,-0.2927 0.318522,-0.58656 0.340085,-0.57047 0.766772,-1.99935 0.907624,-3.03943 l 0.08589,-0.63419 -0.475425,0.54239 c -0.61007,0.69599 -1.055747,0.91624 -1.854008,0.91624 -0.78669,0 -1.254651,-0.16417 -1.740298,-0.61055 -0.513041,-0.47154 -0.726543,-1.02982 -0.722949,-1.89041 0.0052,-1.24112 0.543089,-2.22151 2.977284,-5.42634 0.423883,-0.55809 1.044404,-1.4284 1.378933,-1.93401 0.33453,-0.50563 0.644435,-0.91944 0.688675,-0.91957 0.04425,-1.3e-4 0.437147,0.52771 0.873124,1.17299 0.435977,0.64528 1.341957,1.91523 2.013288,2.82212 1.61804,2.18577 2.043749,3.03396 2.100733,4.18561 0.05138,1.0384 -0.1663,1.54381 -0.924862,2.14734 -0.389389,0.30981 -0.622444,0.3872 -1.292259,0.42913 -1.01873,0.0638 -1.643595,-0.19865 -2.104963,-0.884 -0.180509,-0.26813 -0.356203,-0.48752 -0.390433,-0.48752 -0.118411,0 0.123027,1.45287 0.378647,2.27854 0.141152,0.45593 0.396698,1.06744 0.567879,1.35889 0.171181,0.29147 0.311238,0.54832 0.311238,0.57077 0,0.0225 -0.696743,0.0408 -1.548317,0.0408 -0.851574,0 -1.548317,-0.0236 -1.548317,-0.0522 z"
       id="path2764"
       transform="translate(-1.0416666e-6,-1.1083333e-5)" />
    <path
       style="display:inline;fill:#170e09;stroke-width:0.999997"
       d="m 102.42645,501.9435 c -0.51689,-0.74951 -1.40606,-1.99002 -1.97592,-2.7567 -1.74635,-2.34949 -2.326503,-3.87214 -1.92781,-5.0597 0.546247,-1.62705 2.65029,-2.27004 3.86075,-1.17982 0.16911,0.15232 0.41565,0.44817 0.54788,0.65745 0.23898,0.37825 0.24039,0.37863 0.23864,0.0634 -0.005,-0.86952 -0.65594,-3.06667 -1.11121,-3.74972 -0.11621,-0.17434 -0.1889,-0.33758 -0.16155,-0.36274 0.0274,-0.0252 0.34004,-0.002 0.69487,0.0524 0.61926,0.0943 1.21201,0.0754 2.08359,-0.0662 l 0.40625,-0.066 -0.42816,0.79607 c -0.45551,0.84693 -0.76205,1.87749 -0.897,3.0157 l -0.0827,0.69761 0.26821,-0.39686 c 0.14752,-0.21828 0.50898,-0.56074 0.80324,-0.76102 0.44945,-0.30592 0.66258,-0.36382 1.33246,-0.36203 0.65057,0.002 0.8956,0.066 1.33052,0.34894 0.79364,0.5163 1.09161,1.18398 1.03347,2.31576 -0.0635,1.23604 -0.62632,2.3046 -2.48699,4.72166 -0.79199,1.02882 -1.6861,2.22732 -1.9869,2.66332 -0.30081,0.436 -0.55927,0.79239 -0.57437,0.79198 -0.0151,-3.8e-4 -0.45036,-0.61398 -0.96726,-1.36349 z"
       id="path2748"
       transform="translate(-1.0416666e-6,-1.1083333e-5)" />
  </g>
  <g
     inkscape:groupmode="layer"
     id="layer3"
     inkscape:label="CardName"
     style="display:inline"
     transform="translate(94.217781,-340.71922)">
    <path
       id="path2552"
       style="display:inline;fill:#170e09;stroke-width:0.999997"
       d="m 103.43055,506.54186 c -1.24737,0 -1.4161,0.0306 -2.12839,0.38088 -1.552827,0.76378 -2.410815,1.98619 -2.492741,3.55128 -0.06406,1.22379 0.283973,2.10646 1.210151,3.06925 0.38586,0.40112 0.70141,0.75194 0.70141,0.77932 0,0.0274 -0.17131,0.24192 -0.38116,0.47687 -0.405202,0.45368 -0.779637,1.4836 -0.779637,2.14388 0,1.19229 1.137327,2.72812 2.325797,3.14046 0.83146,0.28843 2.16271,0.27387 2.9957,-0.0326 2.1979,-0.80838 2.99415,-3.5776 1.52935,-5.31842 l -0.3654,-0.43455 0.66729,-0.64358 c 0.88872,-0.85737 1.25884,-1.63898 1.33615,-2.82307 0.0577,-0.88329 0.0337,-0.99271 -0.41424,-1.88377 -0.5081,-1.01063 -1.08104,-1.54932 -2.24599,-2.11343 -0.51379,-0.24883 -0.80464,-0.29262 -1.95829,-0.29262 z m -0.0693,1.6768 c 0.89822,-0.004 1.50766,0.21724 2.16724,0.78654 1.29097,1.11425 1.05288,2.99968 -0.4914,3.88934 -0.43427,0.25017 -0.82425,0.35675 -1.45481,0.39739 -0.74687,0.0481 -0.95269,0.01 -1.55035,-0.2885 -1.59974,-0.79829 -2.040733,-2.49148 -0.96917,-3.72211 0.64118,-0.73636 1.33832,-1.05866 2.29849,-1.06266 z m -0.0163,6.75679 c 0.32332,-0.006 0.65992,0.0622 0.9865,0.22347 1.21206,0.59862 1.37369,2.32526 0.2835,3.02745 -1.07959,0.69537 -2.61071,0.28857 -3.08128,-0.81854 -0.52327,-1.23112 0.5429,-2.4073 1.81128,-2.43238 z"
       transform="translate(-1.0416666e-6,-1.1083333e-5)" />
    <path
       id="path2770"
       style="display:inline;fill:#170e09;stroke-width:0.999997"
       d="m 55.741819,440.28181 c -0.437243,0.007 -0.858256,0.0628 -1.185997,0.1698 -0.785824,0.25658 -1.7457,1.05688 -2.110014,1.75887 -0.579331,1.11631 -0.410992,2.67771 0.391657,3.62922 l 0.365405,0.433 -0.735012,0.70861 c -2.418113,2.33023 -1.289033,6.25922 2.061713,7.17328 2.420193,0.66021 5.099795,-0.69399 5.803456,-2.93352 0.306946,-0.97689 0.320986,-1.39509 0.07823,-2.29148 -0.224431,-0.8287 -0.544551,-1.33931 -1.287323,-2.05305 l -0.582761,-0.55997 0.383256,-0.47532 c 0.751187,-0.93236 0.964107,-2.04026 0.613212,-3.19157 -0.192607,-0.63194 -1.134847,-1.67399 -1.832285,-2.02673 -0.461076,-0.23319 -1.234796,-0.35348 -1.963535,-0.34114 z m 0.201077,1.73926 c 0.752582,-0.003 1.443749,0.36384 1.736733,0.97078 0.439386,0.91023 0.0836,1.9316 -0.83004,2.38284 -0.246962,0.122 -0.681109,0.22192 -0.964967,0.22192 -1.461256,0 -2.415759,-1.37492 -1.787134,-2.57431 0.266136,-0.50776 0.595107,-0.74842 1.263698,-0.92433 0.194193,-0.0511 0.389878,-0.0761 0.58171,-0.0769 z m -0.0609,5.22552 c 0.362532,0.003 0.737834,0.0642 1.113546,0.19457 1.602648,0.55585 2.29546,2.39897 1.414901,3.76391 -0.222229,0.34447 -0.619529,0.72433 -0.967593,0.92485 -0.670881,0.3865 -1.771947,0.51574 -2.553124,0.29934 -0.683259,-0.18928 -1.587618,-1.018 -1.851182,-1.69642 -0.702188,-1.80745 0.885777,-3.50173 2.843452,-3.48625 z"
       transform="translate(-1.0416666e-6,-1.1083333e-5)" />
  </g>
</svg>
