<?xml version="1.0" encoding="UTF-8" standalone="no"?>
<svg
   width="63.500004mm"
   height="88.899895mm"
   viewBox="142.0878 95.116776 63.500012 88.899887"
   version="1.1"
   id="svg10"
   sodipodi:docname="9C.svg"
   inkscape:version="1.1.1 (1:1.1+202109281949+c3084ef5ed)"
   inkscape:export-filename="/home/doug/k40/52Cards/IndividualColorCards/9C.png"
   inkscape:export-xdpi="300"
   inkscape:export-ydpi="300"
   xmlns:inkscape="http://www.inkscape.org/namespaces/inkscape"
   xmlns:sodipodi="http://sodipodi.sourceforge.net/DTD/sodipodi-0.dtd"
   xmlns="http://www.w3.org/2000/svg"
   xmlns:svg="http://www.w3.org/2000/svg">
  <defs
     id="defs14">
    <marker
       style="overflow:visible"
       id="marker2995"
       refX="0"
       refY="0"
       orient="auto"
       inkscape:stockid="Arrow1Lstart"
       inkscape:isstock="true">
      <path
         transform="matrix(0.8,0,0,0.8,10,0)"
         style="fill:#000000;fill-opacity:1;fill-rule:evenodd;stroke:#000000;stroke-width:1pt;stroke-opacity:1"
         d="M 0,0 5,-5 -12.5,0 5,5 Z"
         id="path2993" />
    </marker>
    <marker
       style="overflow:visible"
       id="marker2985"
       refX="0"
       refY="0"
       orient="auto"
       inkscape:stockid="Arrow1Lstart"
       inkscape:isstock="true">
      <path
         transform="matrix(0.8,0,0,0.8,10,0)"
         style="fill:#000000;fill-opacity:1;fill-rule:evenodd;stroke:#000000;stroke-width:1pt;stroke-opacity:1"
         d="M 0,0 5,-5 -12.5,0 5,5 Z"
         id="path2983" />
    </marker>
    <marker
       style="overflow:visible"
       id="marker2791"
       refX="0"
       refY="0"
       orient="auto"
       inkscape:stockid="Arrow1Lstart"
       inkscape:isstock="true">
      <path
         transform="matrix(0.8,0,0,0.8,10,0)"
         style="fill:#000000;fill-opacity:1;fill-rule:evenodd;stroke:#000000;stroke-width:1pt;stroke-opacity:1"
         d="M 0,0 5,-5 -12.5,0 5,5 Z"
         id="path2789" />
    </marker>
    <marker
       style="overflow:visible"
       id="marker2781"
       refX="0"
       refY="0"
       orient="auto"
       inkscape:stockid="Arrow1Lstart"
       inkscape:isstock="true">
      <path
         transform="matrix(0.8,0,0,0.8,10,0)"
         style="fill:#000000;fill-opacity:1;fill-rule:evenodd;stroke:#000000;stroke-width:1pt;stroke-opacity:1"
         d="M 0,0 5,-5 -12.5,0 5,5 Z"
         id="path2779" />
    </marker>
    <marker
       style="overflow:visible"
       id="marker2417"
       refX="0"
       refY="0"
       orient="auto"
       inkscape:stockid="Arrow1Lstart"
       inkscape:isstock="true">
      <path
         transform="matrix(0.8,0,0,0.8,10,0)"
         style="fill:#000000;fill-opacity:1;fill-rule:evenodd;stroke:#000000;stroke-width:1pt;stroke-opacity:1"
         d="M 0,0 5,-5 -12.5,0 5,5 Z"
         id="path2415" />
    </marker>
    <marker
       style="overflow:visible"
       id="marker2383"
       refX="0"
       refY="0"
       orient="auto"
       inkscape:stockid="Arrow1Lstart"
       inkscape:isstock="true">
      <path
         transform="matrix(0.8,0,0,0.8,10,0)"
         style="fill:#000000;fill-opacity:1;fill-rule:evenodd;stroke:#000000;stroke-width:1pt;stroke-opacity:1"
         d="M 0,0 5,-5 -12.5,0 5,5 Z"
         id="path2381" />
    </marker>
    <marker
       style="overflow:visible"
       id="marker2355"
       refX="0"
       refY="0"
       orient="auto"
       inkscape:stockid="Arrow1Lstart"
       inkscape:isstock="true">
      <path
         transform="matrix(0.8,0,0,0.8,10,0)"
         style="fill:#000000;fill-opacity:1;fill-rule:evenodd;stroke:#000000;stroke-width:1pt;stroke-opacity:1"
         d="M 0,0 5,-5 -12.5,0 5,5 Z"
         id="path2353" />
    </marker>
    <marker
       style="overflow:visible"
       id="Arrow1Lstart"
       refX="0"
       refY="0"
       orient="auto"
       inkscape:stockid="Arrow1Lstart"
       inkscape:isstock="true">
      <path
         transform="matrix(0.8,0,0,0.8,10,0)"
         style="fill:#000000;fill-opacity:1;fill-rule:evenodd;stroke:#000000;stroke-width:1pt;stroke-opacity:1"
         d="M 0,0 5,-5 -12.5,0 5,5 Z"
         id="path2071" />
    </marker>
  </defs>
  <sodipodi:namedview
     id="namedview12"
     pagecolor="#ffffff"
     bordercolor="#666666"
     borderopacity="1.0"
     inkscape:pageshadow="2"
     inkscape:pageopacity="0.0"
     inkscape:pagecheckerboard="0"
     inkscape:document-units="mm"
     showgrid="false"
     showborder="false"
     fit-margin-top="0"
     fit-margin-left="0"
     fit-margin-right="0"
     fit-margin-bottom="0"
     inkscape:zoom="1.2541666"
     inkscape:cx="120.00001"
     inkscape:cy="167.84054"
     inkscape:window-width="1366"
     inkscape:window-height="712"
     inkscape:window-x="0"
     inkscape:window-y="0"
     inkscape:window-maximized="1"
     inkscape:current-layer="layer5" />
  <g
     inkscape:groupmode="layer"
     id="layer1"
     inkscape:label="CardOutline"
     style="display:inline"
     transform="translate(94.217781,-340.71922)">
    <path
       id="path4-3"
       style="display:inline;fill:none;fill-rule:evenodd;stroke:#000000;stroke-width:0.25;stroke-miterlimit:4;stroke-dasharray:none;stroke-opacity:1"
       d="m 50.564743,435.96104 -0.534158,0.31687 c -0.688621,0.40844 -1.158412,0.85449 -1.590112,1.51001 l -0.346181,0.5258 -0.06384,25.43159 c -0.03506,13.98732 -0.046,32.74824 -0.02422,41.69094 0.03916,16.06607 0.04297,16.26663 0.30127,16.87005 h 2.54e-4 c 0.321831,0.75178 1.375871,1.69211 2.308962,2.06009 0.662802,0.26139 0.718825,0.26193 29.335815,0.23047 27.968057,-0.0307 28.683467,-0.0377 29.150357,-0.27706 0.72044,-0.36932 1.35524,-0.98173 1.76901,-1.70664 l 0.37116,-0.65029 9.8e-4,-41.53137 9.8e-4,-41.53137 -0.30833,-0.61121 c -0.3634,-0.72062 -1.20695,-1.59056 -1.92217,-1.98245 l -0.50968,-0.27931 -28.969947,-0.0331 z m 0.134234,0.49272 57.679013,0.0666 0.38933,0.21242 0.11632,0.0681 0.12061,0.0774 0.13902,0.0985 0.11304,0.0864 0.12364,0.1017 0.13751,0.12124 0.11153,0.10621 0.13145,0.13177 0.10774,0.11773 0.12692,0.13477 0.0918,0.11748 0.10345,0.13201 0.0951,0.13352 0.0785,0.11974 0.0739,0.12124 0.0603,0.11222 0.25661,0.50651 -0.003,82.81198 -0.30631,0.53682 -0.13726,0.22444 -0.18268,0.24876 -0.16754,0.20014 -0.19757,0.20466 -0.19327,0.17285 -0.23542,0.18336 -0.22481,0.1503 -0.2233,0.12574 -0.0212,0.0108 -0.0149,0.006 -0.0394,0.012 -0.027,0.006 -0.0507,0.01 -0.0277,0.004 -0.0606,0.008 -0.0573,0.008 -0.0679,0.006 -0.083,0.0105 -0.0868,0.004 -0.0913,0.006 -0.10698,0.007 -0.25056,0.012 -0.3048,0.0108 -0.3545,0.0105 -0.41809,0.009 -0.47538,0.009 -0.54929,0.008 -0.96108,0.0105 -1.14073,0.0108 -3.46459,0.0165 -34.84847,0.0471 -6.84314,-0.003 -1.74276,-0.004 -1.260078,-0.006 -1.065289,-0.008 -0.60506,-0.006 -0.534158,-0.008 -0.467798,-0.009 -0.401438,-0.009 -0.339623,-0.009 -0.289659,-0.012 -0.126666,-0.006 -0.11632,-0.006 -0.106979,-0.006 -0.08302,-0.006 -0.08302,-0.008 -0.07998,-0.006 -0.0545,-0.007 -0.10093,-0.0135 -0.09967,-0.0183 -0.03911,-0.009 -0.04844,-0.0138 -0.0376,-0.0135 -0.04692,-0.0183 -0.167539,-0.0726 -0.143315,-0.0699 -0.177886,-0.0985 -0.140542,-0.0864 -0.159971,-0.10773 -0.155176,-0.11372 -0.152651,-0.12124 -0.161231,-0.13803 -0.123887,-0.11372 -0.144835,-0.14729 -0.11026,-0.11974 -0.119098,-0.14253 -0.08604,-0.11374 -0.09361,-0.13951 -0.06485,-0.11098 -0.05601,-0.11974 -0.027,-0.0669 -0.03481,-0.10621 -0.0061,-0.027 -0.01211,-0.0669 -0.01338,-0.0939 -0.01514,-0.12124 -0.0044,-0.0531 -0.01362,-0.15632 -0.0099,-0.16206 -0.01133,-0.21243 -0.01059,-0.23947 -0.0088,-0.27305 -0.0091,-0.31236 -0.0076,-0.3532 -0.01059,-0.61573 -0.0091,-0.72319 -0.0106,-1.15404 -0.0106,-1.77404 -0.01641,-4.27149 -0.01968,-8.14897 -0.0061,-8.546 0.0015,-6.72963 0.0044,-7.16476 0.0091,-7.2692 0.01943,-9.71082 0.0651,-25.28355 0.257868,-0.39253 0.152402,-0.21993 0.166025,-0.21393 0.147862,-0.16834 0.169052,-0.17133 0.185708,-0.16508 0.168798,-0.13202 0.229612,-0.16082 0.227845,-0.14253 z"
       inkscape:export-filename="/home/doug/k40/52Cards/IndividualColorCards/2D.png"
       inkscape:export-xdpi="300"
       inkscape:export-ydpi="300" />
  </g>
  <g
     inkscape:groupmode="layer"
     id="layer2"
     inkscape:label="InnerRectangle"
     style="display:inline"
     transform="translate(94.217781,-340.71922)">
    <path
       id="path2-6"
       style="display:inline;fill:none;fill-rule:evenodd;stroke:#4c71a5;stroke-width:0.262609;stroke-opacity:1"
       d="m 63.13524,452.67467 0.0441,14.05596 c 0.0243,7.7307 0.0504,20.15551 0.0578,27.61093 l 0.0134,13.55547 16.409043,-0.0521 16.40903,-0.0519 0.0305,-24.32539 c 0.0169,-13.37898 -0.004,-25.78048 -0.0462,-27.55907 l -0.077,-3.23394 h -16.42035 z m 16.503153,0.25626 h 16.11155 l 0.005,0.73622 c 0.003,0.40503 0.0367,12.68075 0.0757,27.27927 l 0.0709,26.54279 -3.16634,0.004 c -1.74158,0.002 -8.99902,0.0153 -16.12745,0.0285 -7.12842,0.0133 -12.991523,-0.007 -13.029223,-0.0446 -0.0728,-0.0731 -0.16665,-54.20072 -0.0944,-54.4185 0.028,-0.0844 5.532343,-0.128 16.154193,-0.128 z"
       inkscape:export-filename="/home/doug/k40/52Cards/IndividualColorCards/2D.png"
       inkscape:export-xdpi="300"
       inkscape:export-ydpi="300" />
  </g>
  <g
     inkscape:groupmode="layer"
     id="layer5"
     inkscape:label="InnerSuit"
     style="display:inline"
     transform="translate(94.217781,-340.71922)">
    <path
       style="fill:#17100a;stroke-width:1"
       d="m 88.270984,465.06292 c 0,-0.0202 0.106008,-0.24943 0.235573,-0.50918 0.492554,-0.98749 0.983705,-3.09876 0.676396,-2.90758 -0.07358,0.0458 -0.170797,0.25288 -0.216036,0.46022 -0.193527,0.88699 -1.335153,1.35014 -2.317642,0.94025 -1.004899,-0.41925 -1.390154,-1.63108 -0.829319,-2.60867 0.377391,-0.65782 0.958842,-0.90615 1.92842,-0.82358 l 0.805166,0.0686 -0.32143,-0.29987 c -0.767143,-0.71569 -0.751391,-1.98286 0.03448,-2.77397 0.419518,-0.42231 0.555563,-0.48365 1.072688,-0.48365 0.945553,0 1.627789,0.47904 1.846453,1.2965 0.162532,0.60761 -0.01565,1.34439 -0.451127,1.86536 l -0.311726,0.37294 0.819548,-0.0663 c 0.718328,-0.058 0.874158,-0.0288 1.261708,0.23752 0.723078,0.4967 1.001554,1.48327 0.652804,2.31273 -0.628872,1.49568 -2.839602,1.36769 -3.336772,-0.19318 l -0.132366,-0.41556 -0.01292,0.42716 c -0.01737,0.57492 0.31867,1.84135 0.678017,2.5552 l 0.292931,0.58192 h -1.187429 c -0.653087,0 -1.18743,-0.0166 -1.18743,-0.0369 z"
       id="path2768" />
    <path
       style="fill:#17100a;stroke-width:1"
       d="m 68.598404,465.09981 c 0.610064,-1.34351 1.049138,-2.90756 0.922444,-3.28589 -0.02783,-0.0831 -0.165958,0.1108 -0.306951,0.4309 -0.293844,0.66712 -0.8496,1.00949 -1.637373,1.00872 -1.838727,-0.002 -2.3433,-2.60395 -0.67387,-3.47524 0.434407,-0.22672 1.128262,-0.22994 1.703059,-0.008 0.181154,0.07 0.141726,-0.0304 -0.160981,-0.4095 -0.453378,-0.56792 -0.601142,-1.11117 -0.479613,-1.76329 0.254694,-1.36667 2.003969,-1.92749 2.972146,-0.95287 0.721173,0.72598 0.750372,2.02219 0.06025,2.67484 -0.428531,0.40526 -0.379351,0.4897 0.199112,0.3419 1.398477,-0.35733 2.557346,0.66689 2.367415,2.09235 -0.121793,0.91407 -1.00239,1.57307 -1.95726,1.46473 -0.731756,-0.083 -1.178102,-0.43036 -1.443566,-1.12331 l -0.214418,-0.55971 -0.0069,0.55038 c -0.0073,0.57971 0.490459,2.24271 0.825032,2.75673 l 0.197178,0.30293 -1.211767,0.0408 c -0.77625,0.0261 -1.190992,-0.005 -1.153964,-0.0865 z"
       id="path2766" />
    <path
       style="fill:#17100a;stroke-width:1"
       d="m 88.270984,478.24251 c 0,-0.0328 0.16522,-0.42647 0.367159,-0.8748 0.382174,-0.84847 0.718848,-2.25555 0.61023,-2.55036 -0.06717,-0.18231 -0.06974,-0.17803 -0.338211,0.56154 -0.286127,0.78821 -1.660909,1.12382 -2.498246,0.60987 -0.52472,-0.32207 -0.796482,-0.86628 -0.796482,-1.59496 0,-0.50012 0.06885,-0.65838 0.478916,-1.10092 0.392246,-0.42331 0.585168,-0.5289 1.066031,-0.58345 0.322914,-0.0367 0.761805,-0.005 0.975313,0.0696 0.466066,0.16356 0.490213,0.06 0.07783,-0.33354 -0.691351,-0.65988 -0.715867,-1.74735 -0.05644,-2.50339 0.75232,-0.86254 1.875875,-0.86511 2.625203,-0.006 0.666288,0.76392 0.645233,1.83005 -0.04911,2.48669 -0.384377,0.36351 -0.407091,0.56564 -0.04142,0.36865 0.154977,-0.0835 0.569826,-0.12108 0.968765,-0.0878 0.621039,0.0518 0.751072,0.11582 1.183185,0.58215 0.406742,0.43895 0.485433,0.61244 0.485269,1.06984 -7.59e-4,1.98578 -2.502293,2.61874 -3.377256,0.85453 -0.262854,-0.53 -0.279618,-0.54176 -0.284523,-0.19967 -0.0078,0.53866 0.349777,1.8242 0.701732,2.52338 l 0.308953,0.61375 h -1.003425 c -0.551884,0 -1.093437,0.0348 -1.20345,0.0773 -0.110014,0.0425 -0.200024,0.0504 -0.200024,0.0176 z"
       id="path2760" />
    <path
       style="fill:#17100a;stroke-width:1"
       d="m 68.875682,477.5748 c 0.352124,-0.77625 0.681754,-2.01695 0.675052,-2.54083 l -0.005,-0.38697 -0.191541,0.44462 c -0.274352,0.63686 -0.659424,1.00287 -1.21294,1.15291 -1.117366,0.30288 -2.252813,-0.50772 -2.252813,-1.60829 0,-1.39031 1.152312,-2.19642 2.570599,-1.79828 l 0.357641,0.10039 -0.403871,-0.5059 c -1.050234,-1.31557 -0.174494,-3.18474 1.42201,-3.03513 1.591952,0.14919 2.275814,1.98912 1.157669,3.11471 -0.374383,0.37686 -0.331146,0.47096 0.134517,0.29274 1.135631,-0.43464 2.475173,0.47264 2.475173,1.67643 0,0.89839 -0.471602,1.51215 -1.340853,1.74504 -0.902973,0.24191 -1.672306,-0.15363 -2.081251,-1.07006 l -0.227218,-0.50918 -0.009,0.38697 c -0.01493,0.64646 0.503952,2.31978 0.965511,3.11367 0.02035,0.035 -0.493891,0.0636 -1.142762,0.0636 H 68.5869 l 0.288719,-0.63648 z"
       id="path2758" />
    <path
       style="fill:#17100a;stroke-width:1"
       d="m 78.605072,484.41696 c 0.376727,-0.85495 0.807496,-2.34317 0.801405,-2.76869 l -0.0073,-0.50918 -0.132973,0.38189 c -0.371919,1.06812 -1.520027,1.50939 -2.593269,0.99672 -1.502914,-0.71792 -1.067789,-3.03051 0.622147,-3.30657 0.237481,-0.0388 0.641832,-0.0121 0.898558,0.0592 0.547136,0.15208 0.58762,0.0543 0.149217,-0.36026 -0.740049,-0.69987 -0.677504,-1.94296 0.133838,-2.66006 0.37238,-0.32914 0.550369,-0.3937 1.085399,-0.3937 0.380704,0 0.79364,0.0902 1.019273,0.22277 0.449086,0.26375 0.861045,1.00982 0.861045,1.55937 0,0.45903 -0.435824,1.3812 -0.701214,1.48372 -0.101183,0.0391 -0.183969,0.1208 -0.183969,0.18159 0,0.0608 0.145966,0.0546 0.324369,-0.0136 1.271692,-0.48671 2.584727,0.36355 2.583617,1.67303 -0.0016,1.89166 -2.559825,2.47397 -3.329663,0.75791 -0.333022,-0.74234 -0.411074,-0.43373 -0.162795,0.6437 0.152089,0.66 0.443493,1.44329 0.81082,2.17947 0.0262,0.0525 -0.475334,0.0955 -1.114523,0.0955 -1.059909,0 -1.153522,-0.0196 -1.063997,-0.22276 z"
       id="path2756" />
    <path
       style="fill:#17100a;stroke-width:1"
       d="m 88.513965,490.96965 c -0.262561,-0.17812 -0.521212,-0.51905 -0.672412,-0.8863 -0.212077,-0.51512 -0.225008,-0.66641 -0.09446,-1.10506 0.08319,-0.27952 0.291517,-0.67601 0.462943,-0.8811 l 0.311683,-0.37288 -0.797326,0.0645 c -0.95382,0.0771 -1.44883,-0.13076 -1.843845,-0.77416 -0.738658,-1.20312 0.07348,-2.75532 1.442021,-2.75607 0.909404,-5.1e-4 1.456415,0.40935 1.782999,1.33593 0.08582,0.24348 0.09219,0.24408 0.146124,0.0137 0.0818,-0.34938 -0.328991,-1.95163 -0.679636,-2.65091 -0.165593,-0.33023 -0.301076,-0.61665 -0.301076,-0.63647 0,-0.0199 0.540594,-0.0361 1.20132,-0.0361 0.660726,0 1.20132,0.01 1.20132,0.0213 0,0.0117 -0.140899,0.30376 -0.313106,0.6489 -0.328038,0.65745 -0.697158,2.03249 -0.691451,2.57579 0.0028,0.2659 0.04927,0.22454 0.282655,-0.25156 0.629643,-1.28446 2.311672,-1.43187 3.088207,-0.27063 0.560361,0.83797 0.264121,2.10454 -0.605711,2.58972 -0.337931,0.18849 -0.606163,0.22874 -1.223501,0.18359 l -0.79068,-0.0578 0.367592,0.42145 c 1.090126,1.24985 0.279902,3.11358 -1.353573,3.11358 -0.303809,0 -0.657355,-0.11123 -0.920091,-0.28946 z"
       id="path2752" />
    <path
       style="fill:#17100a;stroke-width:1"
       d="m 69.324185,491.25981 c -0.548289,-0.13024 -1.130096,-0.69979 -1.300821,-1.27341 -0.174307,-0.58565 0.0209,-1.35983 0.46432,-1.84147 0.386039,-0.41931 0.345425,-0.50646 -0.147396,-0.31624 -1.118474,0.43167 -2.451792,-0.50985 -2.451792,-1.73133 0,-1.44131 1.352237,-2.23653 2.654988,-1.56133 0.455385,0.23602 0.611251,0.40859 0.783463,0.86747 0.195818,0.52176 0.215596,0.53951 0.221861,0.19907 0.01011,-0.54894 -0.362563,-1.95934 -0.692274,-2.62 l -0.28703,-0.57513 1.179758,-0.007 1.179759,-0.007 -0.24005,0.47367 c -0.312787,0.61719 -0.755931,2.23443 -0.746638,2.72482 0.0068,0.35629 0.02873,0.33698 0.300086,-0.26356 0.241055,-0.5335 0.38548,-0.68536 0.81723,-0.85925 0.679544,-0.27372 1.054678,-0.26652 1.630828,0.0313 0.596404,0.30824 0.911758,0.85206 0.911758,1.57231 0,1.30366 -1.196531,2.09793 -2.577529,1.711 l -0.36457,-0.10215 0.329588,0.3943 c 0.48584,0.58123 0.664054,1.28432 0.481234,1.89857 -0.149943,0.50378 -0.887794,1.28476 -1.213831,1.28476 -0.09622,0 -0.250724,0.0226 -0.34335,0.0504 -0.09263,0.0277 -0.357942,0.005 -0.589592,-0.0497 z"
       id="path2750" />
    <path
       style="fill:#17100a;stroke-width:1"
       d="m 88.562377,504.12158 c -0.583228,-0.35798 -0.825011,-0.8015 -0.835981,-1.53352 -0.0078,-0.51929 0.06464,-0.74258 0.392876,-1.21135 l 0.402416,-0.57471 -0.346648,0.0976 c -0.908864,0.25593 -1.88887,-0.0696 -2.311815,-0.76782 -0.639489,-1.05577 0.04788,-2.56277 1.242493,-2.72406 0.982544,-0.13267 1.67505,0.31184 2.022435,1.29817 l 0.134503,0.38188 0.01,-0.42716 c 0.01279,-0.54697 -0.300184,-1.76309 -0.67075,-2.60639 l -0.289159,-0.65803 h 1.181672 c 0.741678,0 1.160334,0.0474 1.124366,0.1273 -0.40267,0.89449 -0.730853,1.82697 -0.832048,2.36411 -0.206518,1.0962 -0.148048,1.26784 0.191456,0.56203 0.364187,-0.75713 0.843399,-1.08053 1.600142,-1.07988 1.045038,8.9e-4 1.751313,0.7301 1.750383,1.80717 -9.96e-4,1.18218 -0.791217,1.8297 -2.103437,1.72367 l -0.792271,-0.0641 0.391434,0.49033 c 0.755028,0.94579 0.558645,2.28728 -0.411509,2.81104 -0.560127,0.30241 -1.34246,0.29548 -1.850541,-0.0163 z"
       id="path2746" />
    <path
       style="fill:#17100a;stroke-width:1"
       d="m 68.96341,504.25648 c -0.543961,-0.25476 -0.826996,-0.65124 -0.981858,-1.37535 -0.09618,-0.44973 0.235914,-1.36985 0.60517,-1.67671 0.31543,-0.26213 0.253128,-0.40824 -0.114136,-0.26768 -0.823324,0.31511 -1.80141,-0.01 -2.308315,-0.76692 -0.613444,-0.91619 -0.07845,-2.36638 0.992096,-2.68926 0.917255,-0.27664 1.915461,0.26768 2.247102,1.22536 l 0.132249,0.38188 0.01,-0.45061 c 0.01296,-0.58502 -0.297252,-1.77332 -0.664714,-2.54624 l -0.290646,-0.61135 1.170507,-0.002 1.170507,-0.002 -0.258024,0.5972 c -0.445334,1.03075 -0.889069,2.95219 -0.681774,2.95219 0.0396,0 0.163501,-0.23021 0.275335,-0.51157 0.241238,-0.60693 0.671518,-0.97901 1.260843,-1.09029 0.591171,-0.11165 0.982006,0.0106 1.501377,0.46966 1.458593,1.28918 0.155982,3.58512 -1.744341,3.07452 -0.563781,-0.15148 -0.792265,-0.0927 -0.430978,0.11078 0.308463,0.17377 0.725173,1.04159 0.725173,1.5102 0,1.38444 -1.364334,2.25504 -2.61555,1.66902 z"
       id="path2744" />
  </g>
  <g
     inkscape:groupmode="layer"
     id="layer6"
     inkscape:label="OuterSuit"
     style="display:inline"
     transform="translate(94.217781,-340.71922)">
    <path
       style="display:inline;fill:#17100a;stroke-width:1"
       d="m 54.381116,469.22519 c 0,-0.0555 0.114163,-0.29579 0.253695,-0.53385 0.479128,-0.81746 0.900446,-2.28461 0.95826,-3.33694 l 0.05595,-1.01836 -0.195026,0.6041 c -0.260698,0.80752 -0.886023,1.41869 -1.649582,1.61224 -1.155841,0.29298 -2.080639,-0.0848 -2.665084,-1.08873 -1.152105,-1.979 0.743549,-4.28545 2.912832,-3.54406 0.333216,0.11388 0.636714,0.17599 0.67444,0.13801 0.03773,-0.038 -0.101481,-0.22898 -0.309349,-0.42445 -1.29626,-1.21894 -1.128082,-3.35586 0.322266,-4.09479 1.063426,-0.5418 1.96846,-0.43821 2.803082,0.32083 1.067951,0.97125 1.058942,2.74752 -0.01896,3.73858 -0.421363,0.38741 -0.435156,0.62616 -0.0236,0.40839 0.43629,-0.23086 1.272974,-0.29872 1.828009,-0.14827 1.107511,0.3002 2.024645,1.67079 1.827149,2.73053 -0.122568,0.65769 -0.746324,1.52357 -1.28786,1.78777 -0.696083,0.3396 -1.776888,0.31318 -2.373524,-0.058 -0.50354,-0.31327 -0.6659,-0.54562 -0.984781,-1.4093 l -0.211495,-0.57283 -0.0098,0.70268 c -0.01194,0.85595 0.37164,2.30259 0.878581,3.31351 0.206891,0.41258 0.376165,0.7853 0.376165,0.82827 0,0.043 -0.412558,0.0425 -0.916797,-10e-4 -0.504237,-0.0436 -1.215545,-0.0284 -1.580684,0.0338 -0.365137,0.0622 -0.663887,0.0676 -0.663887,0.012 z"
       id="path2764"
       transform="translate(-1.0416666e-6,-1.1083333e-5)" />
    <path
       style="display:inline;fill:#17100a;stroke-width:1"
       d="m 102.43391,503.21648 c -0.81549,-0.34426 -1.51921,-1.41732 -1.51468,-2.30964 0.003,-0.67932 0.40046,-1.60162 0.84906,-1.97252 0.41092,-0.33975 0.32848,-0.47795 -0.17041,-0.28572 -0.9016,0.34743 -2.274892,0.0593 -2.847519,-0.59744 -0.695996,-0.79823 -0.821614,-2.02463 -0.299284,-2.92186 0.581172,-0.99829 1.510928,-1.41844 2.612553,-1.18061 0.72627,0.15678 1.40065,0.83799 1.64644,1.66309 l 0.16332,0.54822 0.0402,-0.60596 c 0.0479,-0.7231 -0.21489,-1.81882 -0.7701,-3.21077 l -0.40705,-1.02051 h 1.55008 c 0.85254,0 1.53414,0.0287 1.51466,0.0636 -0.60732,1.09152 -1.19014,2.96581 -1.22992,3.95531 -0.0337,0.83942 3e-5,0.87836 0.19865,0.22901 0.34274,-1.12052 1.59488,-1.8906 2.75645,-1.69525 0.706,0.11873 1.63707,1.03932 1.84776,1.82697 0.29216,1.09222 -0.29603,2.3601 -1.30989,2.82358 -0.58824,0.26891 -1.48725,0.31261 -2.08876,0.10152 -0.53534,-0.18786 -0.63946,-0.0542 -0.21788,0.27955 0.50588,0.40058 0.88132,1.22688 0.89185,1.96285 0.0186,1.29654 -0.95359,2.35908 -2.23103,2.43845 -0.36757,0.0229 -0.81058,-0.0185 -0.98445,-0.0919 z"
       id="path2748"
       transform="translate(-1.0416666e-6,-1.1083333e-5)" />
  </g>
  <g
     inkscape:groupmode="layer"
     id="layer3"
     inkscape:label="CardName"
     style="display:inline"
     transform="translate(94.217781,-340.71922)">
    <path
       id="path2552"
       style="display:inline;fill:#17100a;stroke-width:1"
       d="m 103.45262,506.42554 c -1.25073,-0.0174 -2.05334,0.2984 -2.97716,1.14833 -1.311648,1.20675 -1.963567,3.15682 -1.959386,5.86133 0.0036,2.35076 0.538721,4.14474 1.583776,5.30917 0.62719,0.69885 1.06095,0.99895 1.86214,1.28923 2.17564,0.78825 4.74912,-0.29457 5.76085,-2.4241 0.27946,-0.58822 0.33223,-0.87326 0.33034,-1.78232 -0.002,-0.91499 -0.0554,-1.19273 -0.34681,-1.79839 -0.40549,-0.84292 -1.36956,-1.79758 -2.20997,-2.18841 -0.49631,-0.23081 -0.81967,-0.27646 -1.9244,-0.27246 -1.51895,0.006 -1.95297,0.14717 -2.78729,0.90541 l -0.53873,0.48948 0.0664,-0.8909 c 0.18151,-2.43456 1.37307,-3.8866 3.18453,-3.87958 0.94489,0.003 1.63905,0.29962 2.19453,0.93648 0.22544,0.25847 0.41151,0.51085 0.4137,0.56096 0.002,0.0501 0.0814,0.19357 0.17597,0.31907 0.16336,0.21681 0.20697,0.21049 0.8809,-0.12224 0.39009,-0.19259 0.70956,-0.418 0.70956,-0.50139 0,-0.23726 -0.80257,-1.37886 -1.27761,-1.81704 -0.79243,-0.73093 -1.67708,-1.07873 -2.88506,-1.13486 -0.0875,-0.004 -0.17286,-0.007 -0.25625,-0.008 z m 0.0684,6.74861 c 0.12221,-8e-4 0.24573,0.007 0.36944,0.0238 2.70137,0.37272 3.34408,3.77093 0.94625,5.00305 -1.81707,0.93371 -4.0469,-0.37429 -4.0469,-2.37384 0,-1.43936 1.28912,-2.64465 2.73121,-2.65304 z"
       transform="translate(-1.0416666e-6,-1.1083333e-5)" />
    <path
       id="path2772"
       style="display:inline;fill:#17100a;stroke-width:1"
       d="m 55.708969,440.281 c -1.449076,0.004 -1.966998,0.18272 -3.055886,1.05407 -0.474693,0.37986 -0.768555,0.75814 -1.074887,1.38453 -0.378344,0.77363 -0.421478,0.97359 -0.420383,1.94704 0.0013,1.26368 0.247889,1.93664 1.027034,2.8048 0.584279,0.65103 1.158341,1.02885 1.997466,1.31408 1.355363,0.46073 3.370245,0.11392 4.295427,-0.73914 0.268068,-0.24718 0.51549,-0.4496 0.549533,-0.4496 0.103397,0 -0.09513,1.41904 -0.302037,2.15993 -0.222152,0.79548 -0.918478,1.92072 -1.37538,2.22209 -0.853965,0.56291 -2.310776,0.55916 -3.180921,-0.009 -0.383219,-0.25013 -1.074489,-1.08829 -1.381555,-1.67459 -0.01091,-0.0208 -0.342545,0.12182 -0.73683,0.31648 -0.644153,0.31803 -0.70885,0.38572 -0.638036,0.66973 0.100656,0.40371 0.843762,1.42532 1.346567,1.85122 0.559135,0.47361 1.083582,0.7292 1.875002,0.91318 1.497777,0.34819 3.062317,-0.0338 4.119452,-1.00642 1.350247,-1.24225 1.970378,-3.06203 1.984088,-5.82455 0.01357,-2.73473 -0.554114,-4.46654 -1.875519,-5.72458 -1.038454,-0.98866 -1.624974,-1.21347 -3.153135,-1.20946 z m -0.04374,1.73727 c 1.399983,0.004 2.762596,0.97516 2.762596,2.57844 0,1.04994 -0.507341,1.90612 -1.404193,2.36919 -1.316817,0.6799 -2.915603,0.29105 -3.717078,-0.90386 -0.326187,-0.4863 -0.379736,-0.68345 -0.379736,-1.40265 0,-0.70031 0.0569,-0.92333 0.348862,-1.36744 0.579224,-0.88109 1.492127,-1.2761 2.389549,-1.27368 z"
       transform="translate(-1.0416666e-6,-1.1083333e-5)" />
  </g>
</svg>
