<?xml version="1.0" encoding="UTF-8" standalone="no"?>
<svg
   width="63.500004mm"
   height="88.899895mm"
   viewBox="142.0878 95.116776 63.500012 88.899887"
   version="1.1"
   id="svg10"
   sodipodi:docname="9D.svg"
   inkscape:version="1.1.1 (1:1.1+202109281949+c3084ef5ed)"
   inkscape:export-filename="/home/doug/k40/52Cards/IndividualColorCards/9D.png"
   inkscape:export-xdpi="300"
   inkscape:export-ydpi="300"
   xmlns:inkscape="http://www.inkscape.org/namespaces/inkscape"
   xmlns:sodipodi="http://sodipodi.sourceforge.net/DTD/sodipodi-0.dtd"
   xmlns="http://www.w3.org/2000/svg"
   xmlns:svg="http://www.w3.org/2000/svg">
  <defs
     id="defs14">
    <marker
       style="overflow:visible"
       id="marker2995"
       refX="0"
       refY="0"
       orient="auto"
       inkscape:stockid="Arrow1Lstart"
       inkscape:isstock="true">
      <path
         transform="matrix(0.8,0,0,0.8,10,0)"
         style="fill:#000000;fill-opacity:1;fill-rule:evenodd;stroke:#000000;stroke-width:1pt;stroke-opacity:1"
         d="M 0,0 5,-5 -12.5,0 5,5 Z"
         id="path2993" />
    </marker>
    <marker
       style="overflow:visible"
       id="marker2985"
       refX="0"
       refY="0"
       orient="auto"
       inkscape:stockid="Arrow1Lstart"
       inkscape:isstock="true">
      <path
         transform="matrix(0.8,0,0,0.8,10,0)"
         style="fill:#000000;fill-opacity:1;fill-rule:evenodd;stroke:#000000;stroke-width:1pt;stroke-opacity:1"
         d="M 0,0 5,-5 -12.5,0 5,5 Z"
         id="path2983" />
    </marker>
    <marker
       style="overflow:visible"
       id="marker2791"
       refX="0"
       refY="0"
       orient="auto"
       inkscape:stockid="Arrow1Lstart"
       inkscape:isstock="true">
      <path
         transform="matrix(0.8,0,0,0.8,10,0)"
         style="fill:#000000;fill-opacity:1;fill-rule:evenodd;stroke:#000000;stroke-width:1pt;stroke-opacity:1"
         d="M 0,0 5,-5 -12.5,0 5,5 Z"
         id="path2789" />
    </marker>
    <marker
       style="overflow:visible"
       id="marker2781"
       refX="0"
       refY="0"
       orient="auto"
       inkscape:stockid="Arrow1Lstart"
       inkscape:isstock="true">
      <path
         transform="matrix(0.8,0,0,0.8,10,0)"
         style="fill:#000000;fill-opacity:1;fill-rule:evenodd;stroke:#000000;stroke-width:1pt;stroke-opacity:1"
         d="M 0,0 5,-5 -12.5,0 5,5 Z"
         id="path2779" />
    </marker>
    <marker
       style="overflow:visible"
       id="marker2417"
       refX="0"
       refY="0"
       orient="auto"
       inkscape:stockid="Arrow1Lstart"
       inkscape:isstock="true">
      <path
         transform="matrix(0.8,0,0,0.8,10,0)"
         style="fill:#000000;fill-opacity:1;fill-rule:evenodd;stroke:#000000;stroke-width:1pt;stroke-opacity:1"
         d="M 0,0 5,-5 -12.5,0 5,5 Z"
         id="path2415" />
    </marker>
    <marker
       style="overflow:visible"
       id="marker2383"
       refX="0"
       refY="0"
       orient="auto"
       inkscape:stockid="Arrow1Lstart"
       inkscape:isstock="true">
      <path
         transform="matrix(0.8,0,0,0.8,10,0)"
         style="fill:#000000;fill-opacity:1;fill-rule:evenodd;stroke:#000000;stroke-width:1pt;stroke-opacity:1"
         d="M 0,0 5,-5 -12.5,0 5,5 Z"
         id="path2381" />
    </marker>
    <marker
       style="overflow:visible"
       id="marker2355"
       refX="0"
       refY="0"
       orient="auto"
       inkscape:stockid="Arrow1Lstart"
       inkscape:isstock="true">
      <path
         transform="matrix(0.8,0,0,0.8,10,0)"
         style="fill:#000000;fill-opacity:1;fill-rule:evenodd;stroke:#000000;stroke-width:1pt;stroke-opacity:1"
         d="M 0,0 5,-5 -12.5,0 5,5 Z"
         id="path2353" />
    </marker>
    <marker
       style="overflow:visible"
       id="Arrow1Lstart"
       refX="0"
       refY="0"
       orient="auto"
       inkscape:stockid="Arrow1Lstart"
       inkscape:isstock="true">
      <path
         transform="matrix(0.8,0,0,0.8,10,0)"
         style="fill:#000000;fill-opacity:1;fill-rule:evenodd;stroke:#000000;stroke-width:1pt;stroke-opacity:1"
         d="M 0,0 5,-5 -12.5,0 5,5 Z"
         id="path2071" />
    </marker>
  </defs>
  <sodipodi:namedview
     id="namedview12"
     pagecolor="#ffffff"
     bordercolor="#666666"
     borderopacity="1.0"
     inkscape:pageshadow="2"
     inkscape:pageopacity="0.0"
     inkscape:pagecheckerboard="0"
     inkscape:document-units="mm"
     showgrid="false"
     showborder="false"
     fit-margin-top="0"
     fit-margin-left="0"
     fit-margin-right="0"
     fit-margin-bottom="0"
     inkscape:zoom="1.2541666"
     inkscape:cx="120.00001"
     inkscape:cy="167.84054"
     inkscape:window-width="1366"
     inkscape:window-height="712"
     inkscape:window-x="0"
     inkscape:window-y="0"
     inkscape:window-maximized="1"
     inkscape:current-layer="layer5" />
  <g
     inkscape:groupmode="layer"
     id="layer1"
     inkscape:label="CardOutline"
     style="display:inline"
     transform="translate(94.217781,-340.71922)">
    <path
       id="path4-3"
       style="display:inline;fill:none;fill-rule:evenodd;stroke:#000000;stroke-width:0.25;stroke-miterlimit:4;stroke-dasharray:none;stroke-opacity:1"
       d="m 50.564743,435.96104 -0.534158,0.31687 c -0.688621,0.40844 -1.158412,0.85449 -1.590112,1.51001 l -0.346181,0.5258 -0.06384,25.43159 c -0.03506,13.98732 -0.046,32.74824 -0.02422,41.69094 0.03916,16.06607 0.04297,16.26663 0.30127,16.87005 h 2.54e-4 c 0.321831,0.75178 1.375871,1.69211 2.308962,2.06009 0.662802,0.26139 0.718825,0.26193 29.335815,0.23047 27.968057,-0.0307 28.683467,-0.0377 29.150357,-0.27706 0.72044,-0.36932 1.35524,-0.98173 1.76901,-1.70664 l 0.37116,-0.65029 9.8e-4,-41.53137 9.8e-4,-41.53137 -0.30833,-0.61121 c -0.3634,-0.72062 -1.20695,-1.59056 -1.92217,-1.98245 l -0.50968,-0.27931 -28.969947,-0.0331 z m 0.134234,0.49272 57.679013,0.0666 0.38933,0.21242 0.11632,0.0681 0.12061,0.0774 0.13902,0.0985 0.11304,0.0864 0.12364,0.1017 0.13751,0.12124 0.11153,0.10621 0.13145,0.13177 0.10774,0.11773 0.12692,0.13477 0.0918,0.11748 0.10345,0.13201 0.0951,0.13352 0.0785,0.11974 0.0739,0.12124 0.0603,0.11222 0.25661,0.50651 -0.003,82.81198 -0.30631,0.53682 -0.13726,0.22444 -0.18268,0.24876 -0.16754,0.20014 -0.19757,0.20466 -0.19327,0.17285 -0.23542,0.18336 -0.22481,0.1503 -0.2233,0.12574 -0.0212,0.0108 -0.0149,0.006 -0.0394,0.012 -0.027,0.006 -0.0507,0.01 -0.0277,0.004 -0.0606,0.008 -0.0573,0.008 -0.0679,0.006 -0.083,0.0105 -0.0868,0.004 -0.0913,0.006 -0.10698,0.007 -0.25056,0.012 -0.3048,0.0108 -0.3545,0.0105 -0.41809,0.009 -0.47538,0.009 -0.54929,0.008 -0.96108,0.0105 -1.14073,0.0108 -3.46459,0.0165 -34.84847,0.0471 -6.84314,-0.003 -1.74276,-0.004 -1.260078,-0.006 -1.065289,-0.008 -0.60506,-0.006 -0.534158,-0.008 -0.467798,-0.009 -0.401438,-0.009 -0.339623,-0.009 -0.289659,-0.012 -0.126666,-0.006 -0.11632,-0.006 -0.106979,-0.006 -0.08302,-0.006 -0.08302,-0.008 -0.07998,-0.006 -0.0545,-0.007 -0.10093,-0.0135 -0.09967,-0.0183 -0.03911,-0.009 -0.04844,-0.0138 -0.0376,-0.0135 -0.04692,-0.0183 -0.167539,-0.0726 -0.143315,-0.0699 -0.177886,-0.0985 -0.140542,-0.0864 -0.159971,-0.10773 -0.155176,-0.11372 -0.152651,-0.12124 -0.161231,-0.13803 -0.123887,-0.11372 -0.144835,-0.14729 -0.11026,-0.11974 -0.119098,-0.14253 -0.08604,-0.11374 -0.09361,-0.13951 -0.06485,-0.11098 -0.05601,-0.11974 -0.027,-0.0669 -0.03481,-0.10621 -0.0061,-0.027 -0.01211,-0.0669 -0.01338,-0.0939 -0.01514,-0.12124 -0.0044,-0.0531 -0.01362,-0.15632 -0.0099,-0.16206 -0.01133,-0.21243 -0.01059,-0.23947 -0.0088,-0.27305 -0.0091,-0.31236 -0.0076,-0.3532 -0.01059,-0.61573 -0.0091,-0.72319 -0.0106,-1.15404 -0.0106,-1.77404 -0.01641,-4.27149 -0.01968,-8.14897 -0.0061,-8.546 0.0015,-6.72963 0.0044,-7.16476 0.0091,-7.2692 0.01943,-9.71082 0.0651,-25.28355 0.257868,-0.39253 0.152402,-0.21993 0.166025,-0.21393 0.147862,-0.16834 0.169052,-0.17133 0.185708,-0.16508 0.168798,-0.13202 0.229612,-0.16082 0.227845,-0.14253 z"
       inkscape:export-filename="/home/doug/k40/52Cards/IndividualColorCards/2D.png"
       inkscape:export-xdpi="300"
       inkscape:export-ydpi="300" />
  </g>
  <g
     inkscape:groupmode="layer"
     id="layer2"
     inkscape:label="InnerRectangle"
     style="display:inline"
     transform="translate(94.217781,-340.71922)">
    <path
       id="path2-6"
       style="display:inline;fill:none;fill-rule:evenodd;stroke:#4c71a5;stroke-width:0.262609;stroke-opacity:1"
       d="m 63.13524,452.67467 0.0441,14.05596 c 0.0243,7.7307 0.0504,20.15551 0.0578,27.61093 l 0.0134,13.55547 16.409043,-0.0521 16.40903,-0.0519 0.0305,-24.32539 c 0.0169,-13.37898 -0.004,-25.78048 -0.0462,-27.55907 l -0.077,-3.23394 h -16.42035 z m 16.503153,0.25626 h 16.11155 l 0.005,0.73622 c 0.003,0.40503 0.0367,12.68075 0.0757,27.27927 l 0.0709,26.54279 -3.16634,0.004 c -1.74158,0.002 -8.99902,0.0153 -16.12745,0.0285 -7.12842,0.0133 -12.991523,-0.007 -13.029223,-0.0446 -0.0728,-0.0731 -0.16665,-54.20072 -0.0944,-54.4185 0.028,-0.0844 5.532343,-0.128 16.154193,-0.128 z"
       inkscape:export-filename="/home/doug/k40/52Cards/IndividualColorCards/2D.png"
       inkscape:export-xdpi="300"
       inkscape:export-ydpi="300" />
  </g>
  <g
     inkscape:groupmode="layer"
     id="layer5"
     inkscape:label="InnerSuit"
     style="display:inline"
     transform="translate(94.217781,-340.71922)">
    <path
       style="fill:#e50e1a;stroke-width:1"
       d="m 96.094294,459.62503 c 0,-0.0349 0.02896,-0.0635 0.06435,-0.0635 0.0354,0 0.06435,0.0286 0.06435,0.0635 0,0.0349 -0.02896,0.0635 -0.06435,0.0635 -0.03539,0 -0.06435,-0.0286 -0.06435,-0.0635 z"
       id="path2764" />
    <path
       style="fill:#e50e1a;stroke-width:1"
       d="m 89.402151,464.99863 c -0.644583,-1.1574 -1.802112,-2.73071 -2.49577,-3.39222 l -0.454192,-0.43314 0.72609,-0.77412 c 0.734643,-0.78324 1.892055,-2.43407 2.48104,-3.53873 0.176835,-0.33166 0.354325,-0.60302 0.394424,-0.60302 0.0401,0 0.176096,0.21444 0.302216,0.47655 0.404412,0.84045 1.820068,2.86693 2.561373,3.66655 l 0.718919,0.77546 -0.46101,0.43181 c -0.690311,0.64655 -1.903459,2.29763 -2.519522,3.42901 -0.300161,0.55124 -0.574702,1.00213 -0.610093,1.00199 -0.03539,-1.3e-4 -0.324955,-0.4682 -0.643475,-1.04014 z"
       id="path2762" />
    <path
       style="fill:#e50e1a;stroke-width:1"
       d="m 68.746592,465.19361 c -0.600714,-1.13649 -1.506852,-2.37485 -2.41889,-3.30572 l -0.646635,-0.66 0.752373,-0.80142 c 0.70543,-0.75144 2.007436,-2.62091 2.570091,-3.69026 0.280388,-0.53289 0.285483,-0.53059 0.769343,0.34721 0.55869,1.01354 1.68597,2.60709 2.404176,3.3986 l 0.662314,0.7299 -0.636255,0.66799 c -0.809355,0.84971 -1.665605,2.05001 -2.357573,3.30489 -0.298695,0.54168 -0.552324,0.9844 -0.563623,0.98379 -0.0113,-6.3e-4 -0.252192,-0.43933 -0.535321,-0.97498 z"
       id="path2760" />
    <path
       style="fill:#e50e1a;stroke-width:1"
       d="m 89.352118,477.65132 c -0.685226,-1.18953 -1.884368,-2.81569 -2.5062,-3.39866 l -0.392399,-0.36789 0.78526,-0.83938 c 0.807708,-0.86339 1.958876,-2.51379 2.450867,-3.51374 0.153216,-0.31141 0.313406,-0.5662 0.35598,-0.5662 0.04257,0 0.209821,0.26913 0.37166,0.59807 0.456583,0.92798 1.510661,2.4247 2.408668,3.42014 l 0.816192,0.90474 -0.273489,0.23899 c -0.565114,0.49381 -1.74101,2.06317 -2.486592,3.31861 -0.42465,0.71505 -0.801048,1.29951 -0.836439,1.29881 -0.03539,-7.7e-4 -0.34747,-0.49277 -0.693508,-1.09349 z"
       id="path2756" />
    <path
       style="fill:#e50e1a;stroke-width:1"
       d="m 69.197025,478.77875 c 0,-0.17506 -1.427634,-2.48709 -1.900633,-3.07804 -0.251749,-0.31453 -0.717503,-0.83977 -1.03501,-1.16722 l -0.577286,-0.59535 0.809879,-0.86607 c 0.845236,-0.90388 1.703663,-2.1198 2.397534,-3.396 l 0.408215,-0.75082 0.286523,0.5602 c 0.49708,0.97184 1.594808,2.5597 2.426646,3.51013 l 0.802286,0.91665 -0.897437,1.04064 c -0.844011,0.97869 -2.463327,3.46395 -2.463327,3.78062 0,0.0793 -0.05791,0.14424 -0.128695,0.14424 -0.07078,0 -0.128695,-0.0445 -0.128695,-0.099 z"
       id="path2754" />
    <path
       style="fill:#e50e1a;stroke-width:1"
       d="m 79.364594,484.62812 c -0.577256,-1.08675 -1.766217,-2.75625 -2.499842,-3.51018 l -0.719451,-0.73939 0.813989,-0.90926 c 0.877475,-0.98018 1.784775,-2.28839 2.327238,-3.35557 0.186524,-0.36694 0.36428,-0.66717 0.395014,-0.66717 0.03074,0 0.272084,0.38601 0.536333,0.8578 0.766193,1.36795 1.643501,2.58727 2.351024,3.26755 0.360739,0.34684 0.654628,0.68995 0.653089,0.76248 -0.0015,0.0725 -0.293553,0.41778 -0.648918,0.76725 -0.721074,0.70912 -1.6384,1.97892 -2.363989,3.27233 -0.264667,0.47179 -0.490806,0.85779 -0.502531,0.85779 -0.01172,0 -0.165605,-0.27163 -0.341956,-0.60363 z"
       id="path2752" />
    <path
       style="fill:#e50e1a;stroke-width:1"
       d="m 89.337803,490.34677 c -0.655192,-1.12099 -1.781434,-2.59388 -2.4931,-3.26048 l -0.394346,-0.36938 0.750621,-0.79234 c 0.788115,-0.83193 1.963275,-2.50044 2.476984,-3.51687 0.331573,-0.65605 0.424736,-0.7206 0.555213,-0.38473 0.353914,0.91106 2.336951,3.69099 3.139929,4.40174 l 0.270974,0.23984 -0.712771,0.76022 c -0.875536,0.93382 -1.883028,2.32953 -2.384416,3.30321 -0.206952,0.4019 -0.418876,0.72824 -0.470945,0.72522 -0.05207,-0.003 -0.384231,-0.50091 -0.738143,-1.10643 z"
       id="path2750" />
    <path
       style="fill:#e50e1a;stroke-width:1"
       d="m 69.014741,491.10922 c -0.409691,-0.84903 -1.554718,-2.49196 -2.417757,-3.46911 l -0.842384,-0.95376 0.772699,-0.81176 c 0.767203,-0.806 1.869357,-2.37129 2.398816,-3.40684 0.151877,-0.29705 0.318398,-0.53971 0.370046,-0.53924 0.05165,5.1e-4 0.318518,0.40807 0.593042,0.90579 0.617762,1.12001 2.269467,3.30267 2.719699,3.59397 l 0.334117,0.21618 -0.722195,0.77026 c -0.91923,0.98043 -1.908095,2.35965 -2.421086,3.37681 -0.220312,0.43684 -0.435324,0.79426 -0.477804,0.79426 -0.04248,0 -0.180716,-0.21445 -0.307193,-0.47656 z"
       id="path2748" />
    <path
       style="fill:#e50e1a;stroke-width:1"
       d="m 89.75395,503.73055 c -0.483189,-1.00055 -1.675272,-2.73629 -2.449651,-3.56684 l -0.829405,-0.88956 0.774577,-0.81872 c 0.81645,-0.86298 1.701775,-2.12465 2.345722,-3.34288 0.212347,-0.40171 0.423451,-0.73053 0.469119,-0.7307 0.04567,-1.2e-4 0.240215,0.29993 0.432326,0.66687 0.580263,1.10834 1.69753,2.69986 2.438528,3.47363 l 0.699159,0.73007 -0.808267,0.90043 c -0.835956,0.93126 -1.767364,2.28212 -2.331546,3.38151 -0.17849,0.34782 -0.370739,0.63239 -0.427218,0.63239 -0.05648,0 -0.197485,-0.1963 -0.313344,-0.4362 z"
       id="path2744" />
    <path
       style="fill:#e50e1a;stroke-width:1"
       d="m 68.901857,503.59159 c -0.508268,-1.02334 -1.555674,-2.54269 -2.406241,-3.49045 l -0.742184,-0.82699 0.824759,-0.87635 c 0.765364,-0.81323 1.962366,-2.55818 2.455853,-3.58006 0.115859,-0.2399 0.243361,-0.4356 0.283338,-0.43489 0.03998,7.6e-4 0.229042,0.31274 0.420145,0.69337 0.556538,1.10851 1.521283,2.47988 2.371633,3.37123 l 0.788665,0.8267 -0.705093,0.76248 c -0.784703,0.84858 -1.919648,2.50094 -2.446817,3.56234 -0.189816,0.38217 -0.378903,0.69486 -0.420195,0.69486 -0.04129,0 -0.232029,-0.31601 -0.423863,-0.70224 z"
       id="path2742" />
    <path
       style="fill:#e50e1a;stroke-width:1"
       d="m 96.094294,507.28022 c 0,-0.0349 0.02896,-0.0635 0.06435,-0.0635 0.0354,0 0.06435,0.0286 0.06435,0.0635 0,0.0349 -0.02896,0.0635 -0.06435,0.0635 -0.03539,0 -0.06435,-0.0286 -0.06435,-0.0635 z"
       id="path2740" />
  </g>
  <g
     inkscape:groupmode="layer"
     id="layer6"
     inkscape:label="OuterSuit"
     style="display:inline"
     transform="translate(94.217781,-340.71922)">
    <path
       style="display:inline;fill:#e50e1a;stroke-width:1"
       d="m 55.4925,470.54353 c -1.589366,-2.78689 -2.594423,-4.20909 -3.947482,-5.58584 l -0.754,-0.7672 0.528804,-0.50361 c 1.289617,-1.22815 2.763754,-3.23495 3.905017,-5.31603 0.455287,-0.83021 0.649446,-1.08127 0.737108,-0.9531 0.06545,0.0957 0.315902,0.55197 0.556547,1.01394 0.750581,1.44092 2.182064,3.43576 3.328195,4.63801 l 1.1002,1.15408 -0.58594,0.55994 c -1.197,1.14387 -2.882074,3.46994 -3.811896,5.26191 -0.181335,0.34947 -0.413046,0.74508 -0.514913,0.87914 -0.175112,0.23044 -0.20466,0.20964 -0.54164,-0.38124 z"
       id="path2758"
       transform="translate(-1.0416666e-6,-1.1083333e-5)" />
    <path
       style="display:inline;fill:#e50e1a;stroke-width:1"
       d="m 103.01544,502.35585 c -0.22999,-0.43684 -0.45856,-0.88885 -0.50793,-1.00449 -0.39981,-0.93646 -2.26274,-3.38291 -3.367021,-4.42168 -0.330544,-0.31093 -0.600989,-0.62001 -0.600989,-0.68684 0,-0.0668 0.218106,-0.32711 0.484679,-0.57839 1.226981,-1.1566 2.694641,-3.15548 3.700641,-5.04008 0.33335,-0.62449 0.64863,-1.18116 0.70062,-1.23708 0.052,-0.0559 0.30506,0.29395 0.56236,0.77747 0.98418,1.8494 2.82467,4.37271 3.99762,5.48075 0.25498,0.24087 0.4636,0.50036 0.4636,0.57664 0,0.0763 -0.29527,0.42248 -0.65615,0.76932 -1.18919,1.14293 -2.46236,2.90974 -3.63668,5.04668 -0.33608,0.61158 -0.63615,1.11195 -0.66682,1.11195 -0.0307,0 -0.24393,-0.35741 -0.47393,-0.79425 z"
       id="path2746"
       transform="translate(-1.0416666e-6,-1.1083333e-5)" />
  </g>
  <g
     inkscape:groupmode="layer"
     id="layer3"
     inkscape:label="CardName"
     style="display:inline"
     transform="translate(94.217781,-340.71922)">
    <path
       id="path2552"
       style="display:inline;fill:#e50e1a;stroke-width:1"
       d="m 103.23389,506.3683 c -0.72821,8e-4 -1.45682,0.10106 -1.89513,0.30095 -1.487575,0.67841 -2.562654,2.21296 -2.983827,4.25929 -0.254299,1.23535 -0.258347,3.68982 -0.0084,4.85497 0.469091,2.1865 1.768017,3.81951 3.451977,4.33944 v 5.3e-4 c 0.80498,0.24852 2.00407,0.21804 2.96655,-0.0755 1.07044,-0.32648 2.22367,-1.32528 2.71518,-2.35122 1.52932,-3.19215 -1.30114,-6.72476 -4.92975,-6.15236 -0.89958,0.1419 -1.5669,0.43233 -2.19728,0.95611 -0.22479,0.18678 -0.432683,0.3158 -0.461878,0.28698 -0.105154,-0.10384 0.197828,-1.77973 0.449828,-2.48773 0.51585,-1.44928 1.4984,-2.1954 2.8838,-2.1904 1.27846,0.005 2.03307,0.495 2.85605,1.85636 0.13499,0.22331 0.17668,0.21702 0.86876,-0.12875 0.39979,-0.19974 0.72683,-0.43063 0.72683,-0.51348 0,-0.58196 -1.55723,-2.20422 -2.55127,-2.65785 -0.43589,-0.19902 -1.16325,-0.29811 -1.89147,-0.29733 z m 0.0189,6.83544 c 0.89293,-0.0137 1.78833,0.3728 2.33396,1.18621 0.48128,0.71757 0.59939,1.18113 0.48805,1.91427 -0.1197,0.78819 -0.72234,1.54354 -1.52647,1.91324 -2.39732,1.10217 -4.922413,-1.19311 -3.80964,-3.46296 0.49288,-1.00538 1.50211,-1.53523 2.5141,-1.55076 z"
       transform="translate(-1.0416666e-6,-1.1083333e-5)" />
    <path
       id="path2766"
       style="display:inline;fill:#e50e1a;stroke-width:1"
       d="m 56.112204,440.28137 c -1.168701,0.0159 -2.355133,0.47339 -3.323156,1.41063 -0.693181,0.67113 -0.847599,0.9076 -1.080314,1.65159 -0.325186,1.03962 -0.341576,1.70541 -0.06493,2.62528 0.377495,1.25521 1.274971,2.23544 2.582175,2.8197 0.477848,0.21361 0.874499,0.27936 1.715516,0.28337 1.393977,0.007 2.173188,-0.21958 2.884327,-0.83769 0.310976,-0.27031 0.600307,-0.49124 0.642535,-0.49124 0.241686,0 -0.184723,2.17245 -0.576554,2.9376 -0.621512,1.21367 -1.473521,1.75673 -2.762314,1.76173 -1.234065,0.004 -2.059459,-0.53263 -2.83301,-1.8424 -0.128529,-0.21763 -0.17424,-0.2121 -0.868753,0.10187 -0.40317,0.18226 -0.733125,0.4091 -0.733125,0.50416 0,0.29102 0.699047,1.27647 1.25731,1.77208 0.683342,0.60663 1.214362,0.87837 2.088885,1.06986 0.913432,0.20003 1.205725,0.2053 2.131828,0.0393 0.979788,-0.17563 1.666902,-0.5744 2.451783,-1.42304 1.264202,-1.36689 1.908197,-3.98912 1.614448,-6.57327 -0.171296,-1.50691 -0.360185,-2.20783 -0.853568,-3.16926 -0.894811,-1.74367 -2.564978,-2.66356 -4.273078,-2.64027 z m -0.0508,1.7969 c 1.234347,6.9e-4 2.455746,0.79563 2.814682,2.12318 0.308691,1.14171 -0.385069,2.48765 -1.520712,2.94949 -1.537772,0.62538 -3.108672,0.12504 -3.779267,-1.20379 -0.587759,-1.16468 -0.358258,-2.27455 0.657194,-3.17857 0.531634,-0.47328 1.181542,-0.69067 1.828103,-0.69031 z"
       transform="translate(-1.0416666e-6,-1.1083333e-5)" />
  </g>
</svg>
