<?xml version="1.0" encoding="UTF-8" standalone="no"?>
<svg
   width="63.500004mm"
   height="88.899895mm"
   viewBox="142.0878 95.116776 63.500012 88.899887"
   version="1.1"
   id="svg10"
   sodipodi:docname="9H.svg"
   inkscape:version="1.1.1 (1:1.1+202109281949+c3084ef5ed)"
   inkscape:export-filename="/home/doug/k40/52Cards/IndividualColorCards/9H.png"
   inkscape:export-xdpi="300"
   inkscape:export-ydpi="300"
   xmlns:inkscape="http://www.inkscape.org/namespaces/inkscape"
   xmlns:sodipodi="http://sodipodi.sourceforge.net/DTD/sodipodi-0.dtd"
   xmlns="http://www.w3.org/2000/svg"
   xmlns:svg="http://www.w3.org/2000/svg">
  <defs
     id="defs14">
    <marker
       style="overflow:visible"
       id="marker2995"
       refX="0"
       refY="0"
       orient="auto"
       inkscape:stockid="Arrow1Lstart"
       inkscape:isstock="true">
      <path
         transform="matrix(0.8,0,0,0.8,10,0)"
         style="fill:#000000;fill-opacity:1;fill-rule:evenodd;stroke:#000000;stroke-width:1pt;stroke-opacity:1"
         d="M 0,0 5,-5 -12.5,0 5,5 Z"
         id="path2993" />
    </marker>
    <marker
       style="overflow:visible"
       id="marker2985"
       refX="0"
       refY="0"
       orient="auto"
       inkscape:stockid="Arrow1Lstart"
       inkscape:isstock="true">
      <path
         transform="matrix(0.8,0,0,0.8,10,0)"
         style="fill:#000000;fill-opacity:1;fill-rule:evenodd;stroke:#000000;stroke-width:1pt;stroke-opacity:1"
         d="M 0,0 5,-5 -12.5,0 5,5 Z"
         id="path2983" />
    </marker>
    <marker
       style="overflow:visible"
       id="marker2791"
       refX="0"
       refY="0"
       orient="auto"
       inkscape:stockid="Arrow1Lstart"
       inkscape:isstock="true">
      <path
         transform="matrix(0.8,0,0,0.8,10,0)"
         style="fill:#000000;fill-opacity:1;fill-rule:evenodd;stroke:#000000;stroke-width:1pt;stroke-opacity:1"
         d="M 0,0 5,-5 -12.5,0 5,5 Z"
         id="path2789" />
    </marker>
    <marker
       style="overflow:visible"
       id="marker2781"
       refX="0"
       refY="0"
       orient="auto"
       inkscape:stockid="Arrow1Lstart"
       inkscape:isstock="true">
      <path
         transform="matrix(0.8,0,0,0.8,10,0)"
         style="fill:#000000;fill-opacity:1;fill-rule:evenodd;stroke:#000000;stroke-width:1pt;stroke-opacity:1"
         d="M 0,0 5,-5 -12.5,0 5,5 Z"
         id="path2779" />
    </marker>
    <marker
       style="overflow:visible"
       id="marker2417"
       refX="0"
       refY="0"
       orient="auto"
       inkscape:stockid="Arrow1Lstart"
       inkscape:isstock="true">
      <path
         transform="matrix(0.8,0,0,0.8,10,0)"
         style="fill:#000000;fill-opacity:1;fill-rule:evenodd;stroke:#000000;stroke-width:1pt;stroke-opacity:1"
         d="M 0,0 5,-5 -12.5,0 5,5 Z"
         id="path2415" />
    </marker>
    <marker
       style="overflow:visible"
       id="marker2383"
       refX="0"
       refY="0"
       orient="auto"
       inkscape:stockid="Arrow1Lstart"
       inkscape:isstock="true">
      <path
         transform="matrix(0.8,0,0,0.8,10,0)"
         style="fill:#000000;fill-opacity:1;fill-rule:evenodd;stroke:#000000;stroke-width:1pt;stroke-opacity:1"
         d="M 0,0 5,-5 -12.5,0 5,5 Z"
         id="path2381" />
    </marker>
    <marker
       style="overflow:visible"
       id="marker2355"
       refX="0"
       refY="0"
       orient="auto"
       inkscape:stockid="Arrow1Lstart"
       inkscape:isstock="true">
      <path
         transform="matrix(0.8,0,0,0.8,10,0)"
         style="fill:#000000;fill-opacity:1;fill-rule:evenodd;stroke:#000000;stroke-width:1pt;stroke-opacity:1"
         d="M 0,0 5,-5 -12.5,0 5,5 Z"
         id="path2353" />
    </marker>
    <marker
       style="overflow:visible"
       id="Arrow1Lstart"
       refX="0"
       refY="0"
       orient="auto"
       inkscape:stockid="Arrow1Lstart"
       inkscape:isstock="true">
      <path
         transform="matrix(0.8,0,0,0.8,10,0)"
         style="fill:#000000;fill-opacity:1;fill-rule:evenodd;stroke:#000000;stroke-width:1pt;stroke-opacity:1"
         d="M 0,0 5,-5 -12.5,0 5,5 Z"
         id="path2071" />
    </marker>
  </defs>
  <sodipodi:namedview
     id="namedview12"
     pagecolor="#ffffff"
     bordercolor="#666666"
     borderopacity="1.0"
     inkscape:pageshadow="2"
     inkscape:pageopacity="0.0"
     inkscape:pagecheckerboard="0"
     inkscape:document-units="mm"
     showgrid="false"
     showborder="false"
     fit-margin-top="0"
     fit-margin-left="0"
     fit-margin-right="0"
     fit-margin-bottom="0"
     inkscape:zoom="1.2541666"
     inkscape:cx="120.00001"
     inkscape:cy="167.84054"
     inkscape:window-width="1366"
     inkscape:window-height="712"
     inkscape:window-x="0"
     inkscape:window-y="0"
     inkscape:window-maximized="1"
     inkscape:current-layer="layer5" />
  <g
     inkscape:groupmode="layer"
     id="layer1"
     inkscape:label="CardOutline"
     style="display:inline"
     transform="translate(94.217781,-340.71922)">
    <path
       id="path4-3"
       style="display:inline;fill:none;fill-rule:evenodd;stroke:#000000;stroke-width:0.25;stroke-miterlimit:4;stroke-dasharray:none;stroke-opacity:1"
       d="m 50.564743,435.96104 -0.534158,0.31687 c -0.688621,0.40844 -1.158412,0.85449 -1.590112,1.51001 l -0.346181,0.5258 -0.06384,25.43159 c -0.03506,13.98732 -0.046,32.74824 -0.02422,41.69094 0.03916,16.06607 0.04297,16.26663 0.30127,16.87005 h 2.54e-4 c 0.321831,0.75178 1.375871,1.69211 2.308962,2.06009 0.662802,0.26139 0.718825,0.26193 29.335815,0.23047 27.968057,-0.0307 28.683467,-0.0377 29.150357,-0.27706 0.72044,-0.36932 1.35524,-0.98173 1.76901,-1.70664 l 0.37116,-0.65029 9.8e-4,-41.53137 9.8e-4,-41.53137 -0.30833,-0.61121 c -0.3634,-0.72062 -1.20695,-1.59056 -1.92217,-1.98245 l -0.50968,-0.27931 -28.969947,-0.0331 z m 0.134234,0.49272 57.679013,0.0666 0.38933,0.21242 0.11632,0.0681 0.12061,0.0774 0.13902,0.0985 0.11304,0.0864 0.12364,0.1017 0.13751,0.12124 0.11153,0.10621 0.13145,0.13177 0.10774,0.11773 0.12692,0.13477 0.0918,0.11748 0.10345,0.13201 0.0951,0.13352 0.0785,0.11974 0.0739,0.12124 0.0603,0.11222 0.25661,0.50651 -0.003,82.81198 -0.30631,0.53682 -0.13726,0.22444 -0.18268,0.24876 -0.16754,0.20014 -0.19757,0.20466 -0.19327,0.17285 -0.23542,0.18336 -0.22481,0.1503 -0.2233,0.12574 -0.0212,0.0108 -0.0149,0.006 -0.0394,0.012 -0.027,0.006 -0.0507,0.01 -0.0277,0.004 -0.0606,0.008 -0.0573,0.008 -0.0679,0.006 -0.083,0.0105 -0.0868,0.004 -0.0913,0.006 -0.10698,0.007 -0.25056,0.012 -0.3048,0.0108 -0.3545,0.0105 -0.41809,0.009 -0.47538,0.009 -0.54929,0.008 -0.96108,0.0105 -1.14073,0.0108 -3.46459,0.0165 -34.84847,0.0471 -6.84314,-0.003 -1.74276,-0.004 -1.260078,-0.006 -1.065289,-0.008 -0.60506,-0.006 -0.534158,-0.008 -0.467798,-0.009 -0.401438,-0.009 -0.339623,-0.009 -0.289659,-0.012 -0.126666,-0.006 -0.11632,-0.006 -0.106979,-0.006 -0.08302,-0.006 -0.08302,-0.008 -0.07998,-0.006 -0.0545,-0.007 -0.10093,-0.0135 -0.09967,-0.0183 -0.03911,-0.009 -0.04844,-0.0138 -0.0376,-0.0135 -0.04692,-0.0183 -0.167539,-0.0726 -0.143315,-0.0699 -0.177886,-0.0985 -0.140542,-0.0864 -0.159971,-0.10773 -0.155176,-0.11372 -0.152651,-0.12124 -0.161231,-0.13803 -0.123887,-0.11372 -0.144835,-0.14729 -0.11026,-0.11974 -0.119098,-0.14253 -0.08604,-0.11374 -0.09361,-0.13951 -0.06485,-0.11098 -0.05601,-0.11974 -0.027,-0.0669 -0.03481,-0.10621 -0.0061,-0.027 -0.01211,-0.0669 -0.01338,-0.0939 -0.01514,-0.12124 -0.0044,-0.0531 -0.01362,-0.15632 -0.0099,-0.16206 -0.01133,-0.21243 -0.01059,-0.23947 -0.0088,-0.27305 -0.0091,-0.31236 -0.0076,-0.3532 -0.01059,-0.61573 -0.0091,-0.72319 -0.0106,-1.15404 -0.0106,-1.77404 -0.01641,-4.27149 -0.01968,-8.14897 -0.0061,-8.546 0.0015,-6.72963 0.0044,-7.16476 0.0091,-7.2692 0.01943,-9.71082 0.0651,-25.28355 0.257868,-0.39253 0.152402,-0.21993 0.166025,-0.21393 0.147862,-0.16834 0.169052,-0.17133 0.185708,-0.16508 0.168798,-0.13202 0.229612,-0.16082 0.227845,-0.14253 z"
       inkscape:export-filename="/home/doug/k40/52Cards/IndividualColorCards/2D.png"
       inkscape:export-xdpi="300"
       inkscape:export-ydpi="300" />
  </g>
  <g
     inkscape:groupmode="layer"
     id="layer2"
     inkscape:label="InnerRectangle"
     style="display:inline"
     transform="translate(94.217781,-340.71922)">
    <path
       id="path2-6"
       style="display:inline;fill:none;fill-rule:evenodd;stroke:#4c71a5;stroke-width:0.262609;stroke-opacity:1"
       d="m 63.13524,452.67467 0.0441,14.05596 c 0.0243,7.7307 0.0504,20.15551 0.0578,27.61093 l 0.0134,13.55547 16.409043,-0.0521 16.40903,-0.0519 0.0305,-24.32539 c 0.0169,-13.37898 -0.004,-25.78048 -0.0462,-27.55907 l -0.077,-3.23394 h -16.42035 z m 16.503153,0.25626 h 16.11155 l 0.005,0.73622 c 0.003,0.40503 0.0367,12.68075 0.0757,27.27927 l 0.0709,26.54279 -3.16634,0.004 c -1.74158,0.002 -8.99902,0.0153 -16.12745,0.0285 -7.12842,0.0133 -12.991523,-0.007 -13.029223,-0.0446 -0.0728,-0.0731 -0.16665,-54.20072 -0.0944,-54.4185 0.028,-0.0844 5.532343,-0.128 16.154193,-0.128 z"
       inkscape:export-filename="/home/doug/k40/52Cards/IndividualColorCards/2D.png"
       inkscape:export-xdpi="300"
       inkscape:export-ydpi="300" />
  </g>
  <g
     inkscape:groupmode="layer"
     id="layer5"
     inkscape:label="InnerSuit"
     style="display:inline"
     transform="translate(94.217781,-340.71922)">
    <path
       style="display:inline;fill:#e20c18;stroke-width:1"
       d="m 89.604672,463.90012 c -2.023783,-3.31553 -2.860992,-5.40532 -2.575206,-6.42806 0.07308,-0.26153 0.315628,-0.64423 0.538997,-0.85046 0.346441,-0.31984 0.509829,-0.37495 1.111709,-0.37495 0.78603,0 1.274886,0.31066 1.585298,1.00744 l 0.165923,0.37246 0.279835,-0.52859 c 0.785331,-1.48342 2.862023,-1.1166 3.236483,0.57167 0.137148,0.61833 -0.23616,1.83895 -1.04076,3.40302 -0.750031,1.45799 -2.331657,4.12479 -2.445638,4.12362 -0.03625,-3.8e-4 -0.421731,-0.58364 -0.856641,-1.29615 z"
       id="path3260"
       transform="translate(-1.0416666e-6,-1.1083333e-5)" />
    <path
       style="display:inline;fill:#e20c18;stroke-width:1"
       d="m 67.807669,463.64943 c -1.9234,-3.15872 -2.632191,-4.89556 -2.457074,-6.02088 0.244393,-1.57047 2.426814,-1.96827 3.184596,-0.58048 l 0.298915,0.54743 0.278091,-0.52527 c 0.460579,-0.87 1.544589,-1.14184 2.382758,-0.59753 0.578121,0.37544 0.775202,0.76967 0.775837,1.55195 6.59e-4,0.82174 -0.24737,1.58966 -0.977592,3.02658 -0.572933,1.12741 -2.1804,3.81716 -2.418165,4.04628 -0.06811,0.0656 -0.514032,-0.53935 -1.067366,-1.44808 z"
       id="path3258"
       transform="translate(-1.0416666e-6,-1.1083333e-5)" />
    <path
       style="display:inline;fill:#e20c18;stroke-width:1"
       d="m 89.345575,476.53489 c -1.966282,-3.15265 -2.639764,-4.86584 -2.318744,-5.89837 0.476614,-1.53296 2.354872,-1.80636 3.105005,-0.45197 0.3053,0.55123 0.403796,0.58755 0.508034,0.18732 0.221517,-0.8505 1.45665,-1.32526 2.320988,-0.89213 1.239124,0.62094 1.275453,2.12624 0.106669,4.4199 -0.525426,1.03111 -2.513103,4.2545 -2.623506,4.2545 -0.04869,0 -0.542995,-0.72866 -1.098446,-1.61925 z"
       id="path3252"
       transform="translate(-1.0416666e-6,-1.1083333e-5)" />
    <path
       style="display:inline;fill:#e20c18;stroke-width:1"
       d="m 68.538176,477.87244 c -3.160783,-4.84109 -3.847943,-6.91347 -2.669054,-8.0495 0.843829,-0.81315 2.082157,-0.6368 2.667752,0.37993 l 0.284656,0.49423 0.198198,-0.36723 c 0.931438,-1.72581 3.254434,-1.14416 3.254434,0.81487 0,0.66615 -0.346918,1.8255 -0.824357,2.7549 -0.397275,0.77335 -2.473672,4.11445 -2.605981,4.19325 -0.06404,0.0381 -0.201584,-0.0611 -0.305648,-0.22045 z"
       id="path3250"
       transform="translate(-1.0416666e-6,-1.1083333e-5)" />
    <path
       style="display:inline;fill:#e20c18;stroke-width:1"
       d="m 78.553268,482.9947 c -1.299711,-2.09917 -2.005797,-3.47799 -2.257013,-4.40741 -0.255333,-0.94465 -0.249152,-1.14237 0.05596,-1.78998 0.299329,-0.63532 0.817399,-0.92917 1.638192,-0.92917 0.675223,0 1.315699,0.41926 1.454483,0.95213 0.08826,0.33887 0.341352,0.44002 0.341352,0.13641 0,-0.0998 0.199746,-0.38555 0.443882,-0.635 0.404927,-0.41374 0.507797,-0.45354 1.17218,-0.45354 0.616969,0 0.789115,0.0548 1.126139,0.35813 0.92015,0.8283 0.806954,1.9824 -0.431991,4.40438 -0.707324,1.38272 -2.304571,3.98387 -2.453043,3.99482 -0.04232,0.003 -0.532881,-0.73072 -1.090145,-1.63077 z"
       id="path3248"
       transform="translate(-1.0416666e-6,-1.1083333e-5)" />
    <path
       style="display:inline;fill:#e20c18;stroke-width:1"
       d="m 87.793272,491.03587 c -0.453873,-0.2373 -0.890315,-1.04444 -0.890315,-1.64653 0,-1.06065 0.872028,-2.90472 2.807456,-5.93689 0.527204,-0.82594 0.745724,-1.073 0.842511,-0.9525 0.298366,0.37145 1.897456,3.03044 2.389143,3.9727 0.993189,1.9033 1.207832,3.14033 0.687564,3.96258 -0.712961,1.12678 -2.471449,1.01828 -2.993041,-0.18468 l -0.204235,-0.47104 -0.246154,0.46236 c -0.357657,0.67181 -0.843463,0.99424 -1.488891,0.98819 -0.298287,-0.003 -0.705103,-0.0902 -0.904038,-0.19419 z"
       id="path3246"
       transform="translate(-1.0416666e-6,-1.1083333e-5)" />
    <path
       style="display:inline;fill:#e20c18;stroke-width:1"
       d="m 66.119333,490.99387 c -0.898509,-0.54401 -1.06432,-1.76154 -0.451409,-3.31468 0.316165,-0.80119 1.573352,-3.01471 2.494828,-4.39265 l 0.62828,-0.93951 0.843539,1.30083 c 1.717274,2.64822 2.639591,4.64588 2.639591,5.71712 0,1.08691 -0.753605,1.86883 -1.802014,1.86974 -0.642849,4.9e-4 -1.228785,-0.4014 -1.497951,-1.02761 l -0.171172,-0.39822 -0.227612,0.42753 c -0.349356,0.65622 -0.710848,0.90312 -1.406816,0.96086 -0.469078,0.0389 -0.733783,-0.0124 -1.049264,-0.20341 z"
       id="path3244"
       transform="translate(-1.0416666e-6,-1.1083333e-5)" />
    <path
       style="display:inline;fill:#e20c18;stroke-width:1"
       d="m 87.838199,504.15556 c -1.001143,-0.49579 -1.153805,-1.741 -0.431846,-3.52238 0.450896,-1.11254 2.753396,-5.0893 2.990659,-5.1653 0.168821,-0.0541 2.287943,3.52016 2.918837,4.92307 0.57731,1.28375 0.718651,2.39463 0.384019,3.01821 -0.430222,0.80171 -1.58518,1.1464 -2.430242,0.72528 -0.204072,-0.10169 -0.4733,-0.41378 -0.61124,-0.70857 l -0.246525,-0.52681 -0.235907,0.4431 c -0.346335,0.65054 -0.83887,0.97437 -1.478644,0.97216 -0.298287,-0.001 -0.684886,-0.0725 -0.859111,-0.15876 z"
       id="path3238"
       transform="translate(-1.0416666e-6,-1.1083333e-5)" />
    <path
       style="display:inline;fill:#e20c18;stroke-width:1"
       d="m 65.975402,504.00125 c -1.209658,-0.98084 -0.867158,-2.5793 1.362399,-6.35833 0.556872,-0.94387 1.115918,-1.83922 1.242325,-1.98965 l 0.229831,-0.27351 0.197381,0.30897 c 2.10955,3.30207 3.266824,5.70603 3.266824,6.78603 0,1.0593 -0.745892,1.84001 -1.758845,1.84096 -0.685709,6.3e-4 -1.185392,-0.31141 -1.501969,-0.93794 l -0.263806,-0.5221 -0.198584,0.45493 c -0.296127,0.67838 -0.802442,1.00557 -1.556095,1.00557 -0.479491,0 -0.72436,-0.0756 -1.019461,-0.31493 z"
       id="path3236"
       transform="translate(-1.0416666e-6,-1.1083333e-5)" />
  </g>
  <g
     inkscape:groupmode="layer"
     id="layer6"
     inkscape:label="OuterSuit"
     style="display:inline"
     transform="translate(94.217781,-340.71922)">
    <path
       style="display:inline;fill:#e20c18;stroke-width:1"
       d="m 55.319013,468.53389 c -0.19833,-0.33179 -0.803534,-1.31762 -1.344898,-2.19074 -1.15865,-1.8687 -2.272879,-4.07361 -2.599227,-5.14351 -0.331269,-1.08603 -0.324178,-2.29653 0.01673,-2.85574 0.857315,-1.40632 2.831125,-1.58902 3.793507,-0.35114 0.176545,0.22708 0.361526,0.54147 0.411066,0.69863 0.04954,0.15716 0.141386,0.28575 0.204102,0.28575 0.06272,0 0.154561,-0.12859 0.204101,-0.28575 0.143373,-0.45484 0.696883,-1.09399 1.1376,-1.3136 0.987196,-0.49195 2.401978,-0.0624 2.968301,0.90121 0.62707,1.06697 0.281985,3.00129 -0.950769,5.32939 -0.726291,1.37163 -3.269384,5.52057 -3.386625,5.52512 -0.0513,0.002 -0.255558,-0.26783 -0.453888,-0.59962 z"
       id="path3256"
       transform="translate(-1.0416666e-6,-1.1083333e-5)" />
    <path
       style="display:inline;fill:#e20c18;stroke-width:1"
       d="m 100.14141,503.12155 c -0.546718,-0.22949 -1.075942,-0.86566 -1.255913,-1.50972 -0.366151,-1.31034 0.553456,-3.82168 2.621383,-7.15865 0.42587,-0.68722 1.02345,-1.66384 1.32794,-2.17024 0.3045,-0.50641 0.57727,-0.92075 0.60616,-0.92075 0.0289,0 0.61724,0.91141 1.30743,2.02535 3.47028,5.60085 4.11979,8.03087 2.51051,9.39247 -0.5058,0.42795 -1.13629,0.58488 -1.93511,0.48163 -0.73128,-0.0945 -1.15523,-0.41997 -1.57393,-1.20823 l -0.35179,-0.66231 -0.32899,0.6925 c -0.25626,0.5394 -0.44685,0.75044 -0.86203,0.95455 -0.60758,0.29869 -1.4698,0.3335 -2.06566,0.0834 z"
       id="path3240"
       transform="translate(-1.0416666e-6,-1.1083333e-5)" />
  </g>
  <g
     inkscape:groupmode="layer"
     id="layer3"
     inkscape:label="CardName"
     style="display:inline"
     transform="translate(94.217781,-340.71922)">
    <path
       style="fill:#e20c18;stroke-width:1"
       d="m 62.785213,457.32614 c 0,-0.0931 0.03954,-0.13123 0.08786,-0.0847 0.04833,0.0466 0.04833,0.12278 0,0.16934 -0.04833,0.0466 -0.08786,0.008 -0.08786,-0.0847 z"
       id="path3266" />
    <path
       style="fill:#e20c18;stroke-width:1"
       d="m 62.785213,458.65965 c 0,-0.0349 0.02966,-0.0635 0.0659,-0.0635 0.03625,0 0.0659,0.0286 0.0659,0.0635 0,0.0349 -0.02966,0.0635 -0.0659,0.0635 -0.03624,0 -0.0659,-0.0286 -0.0659,-0.0635 z"
       id="path3264" />
    <path
       style="fill:#e20c18;stroke-width:1"
       d="m 62.785213,459.61215 c 0,-0.0931 0.03954,-0.13124 0.08786,-0.0847 0.04833,0.0466 0.04833,0.12276 0,0.16933 -0.04833,0.0466 -0.08786,0.008 -0.08786,-0.0847 z"
       id="path3262" />
    <path
       style="fill:#e20c18;stroke-width:1"
       d="m 62.785213,474.02664 c 0,-0.0349 0.02966,-0.0635 0.0659,-0.0635 0.03625,0 0.0659,0.0286 0.0659,0.0635 0,0.0349 -0.02966,0.0635 -0.0659,0.0635 -0.03624,0 -0.0659,-0.0286 -0.0659,-0.0635 z"
       id="path3254" />
    <path
       style="fill:#e20c18;stroke-width:1"
       d="m 62.653422,499.17268 c 0,-0.0349 0.02966,-0.0635 0.06589,-0.0635 0.03625,0 0.0659,0.0286 0.0659,0.0635 0,0.0349 -0.02966,0.0635 -0.0659,0.0635 -0.03625,0 -0.06589,-0.0286 -0.06589,-0.0635 z"
       id="path3242" />
    <path
       id="path3048"
       style="display:inline;fill:#e20c18;stroke-width:1"
       d="m 103.64017,506.4156 c -1.10531,-0.004 -1.33887,0.0371 -1.99327,0.34675 -1.38568,0.65575 -2.377345,1.98178 -2.906527,3.88452 -0.352217,1.26644 -0.388501,3.9869 -0.06972,5.24154 0.582187,2.29129 1.836757,3.74222 3.662647,4.23592 2.30027,0.62195 4.97386,-0.60943 5.78195,-2.66341 0.6697,-1.70226 0.32613,-3.30688 -0.98136,-4.58318 -1.02232,-0.99795 -1.92524,-1.3573 -3.39183,-1.3503 -1.24613,0.006 -2.13133,0.27363 -2.83896,0.85731 -0.29354,0.24214 -0.57402,0.44028 -0.62366,0.44028 -0.0496,0 -0.0499,-0.29991 -5.5e-4,-0.66662 0.32671,-2.42497 1.37913,-3.83192 2.98481,-3.99046 1.34954,-0.13325 2.38058,0.38667 3.09421,1.56011 l 0.33463,0.55036 0.78026,-0.37931 c 0.42912,-0.20874 0.78025,-0.42724 0.78025,-0.48524 0,-0.26312 -1.06629,-1.6568 -1.55032,-2.02623 -0.98393,-0.75096 -1.66657,-0.96704 -3.06258,-0.97204 z m 0.081,6.78253 c 1.28083,0.004 2.46933,0.80192 2.8309,2.08722 0.3224,1.14602 -0.56778,2.64293 -1.81523,3.05252 -0.74745,0.24549 -1.38463,0.24555 -2.08069,0 -2.21843,-0.7826 -2.42271,-3.79421 -0.32658,-4.81779 0.45262,-0.22102 0.92831,-0.32331 1.3916,-0.32195 z"
       transform="translate(-1.0416666e-6,-1.1083333e-5)" />
    <path
       id="path3268"
       style="display:inline;fill:#e20c18;stroke-width:1"
       d="m 55.604793,440.28579 c -0.658554,-3.7e-4 -1.318588,0.0956 -1.857599,0.28732 -1.08587,0.38624 -2.278781,1.53767 -2.686122,2.59261 -0.422958,1.0954 -0.342648,2.52252 0.195734,3.47575 0.409494,0.72502 1.286486,1.55045 2.039394,1.91978 1.571705,0.77098 3.791216,0.57705 5.084805,-0.44441 0.308437,-0.24356 0.594157,-0.44287 0.63493,-0.44287 0.11122,0 -0.04912,1.11257 -0.274029,1.90118 -0.53645,1.88099 -1.565193,2.79776 -3.139258,2.79776 -1.241896,0 -2.108402,-0.50171 -2.790154,-1.61592 l -0.32819,-0.53641 -0.790982,0.38499 c -0.892477,0.43414 -0.889858,0.40562 -0.153371,1.47485 0.547846,0.79537 1.379955,1.43872 2.349352,1.81591 v -5.3e-4 c 0.991589,0.38582 2.778194,0.30855 3.780085,-0.16382 2.054212,-0.96849 3.138723,-3.2729 3.138723,-6.66729 0,-3.31238 -1.249994,-5.73082 -3.354297,-6.48952 -0.533619,-0.19224 -1.190468,-0.28902 -1.849021,-0.28939 z m -0.0681,1.80506 c 0.710117,-0.002 0.97226,0.0618 1.533698,0.37207 1.19201,0.65882 1.703274,2.17069 1.111664,3.28817 -0.398689,0.7531 -1.191815,1.36617 -1.97772,1.52859 v -5.3e-4 c -0.7947,0.1643 -0.70095,0.16642 -1.466669,-0.0326 -0.811017,-0.21074 -1.371117,-0.61877 -1.785204,-1.29966 -0.298748,-0.49127 -0.338033,-0.67712 -0.29119,-1.38596 0.101364,-1.53403 1.185575,-2.46514 2.875421,-2.47014 z"
       transform="translate(-1.0416666e-6,-1.1083333e-5)" />
  </g>
</svg>
