<?xml version="1.0" encoding="UTF-8" standalone="no"?>
<svg
   width="63.500004mm"
   height="88.899895mm"
   viewBox="142.0878 95.116776 63.500012 88.899887"
   version="1.1"
   id="svg10"
   sodipodi:docname="9S.svg"
   inkscape:version="1.1.1 (1:1.1+202109281949+c3084ef5ed)"
   inkscape:export-filename="/home/doug/k40/52Cards/IndividualColorCards/9S.png"
   inkscape:export-xdpi="300"
   inkscape:export-ydpi="300"
   xmlns:inkscape="http://www.inkscape.org/namespaces/inkscape"
   xmlns:sodipodi="http://sodipodi.sourceforge.net/DTD/sodipodi-0.dtd"
   xmlns="http://www.w3.org/2000/svg"
   xmlns:svg="http://www.w3.org/2000/svg">
  <defs
     id="defs14">
    <marker
       style="overflow:visible"
       id="marker2995"
       refX="0"
       refY="0"
       orient="auto"
       inkscape:stockid="Arrow1Lstart"
       inkscape:isstock="true">
      <path
         transform="matrix(0.8,0,0,0.8,10,0)"
         style="fill:#000000;fill-opacity:1;fill-rule:evenodd;stroke:#000000;stroke-width:1pt;stroke-opacity:1"
         d="M 0,0 5,-5 -12.5,0 5,5 Z"
         id="path2993" />
    </marker>
    <marker
       style="overflow:visible"
       id="marker2985"
       refX="0"
       refY="0"
       orient="auto"
       inkscape:stockid="Arrow1Lstart"
       inkscape:isstock="true">
      <path
         transform="matrix(0.8,0,0,0.8,10,0)"
         style="fill:#000000;fill-opacity:1;fill-rule:evenodd;stroke:#000000;stroke-width:1pt;stroke-opacity:1"
         d="M 0,0 5,-5 -12.5,0 5,5 Z"
         id="path2983" />
    </marker>
    <marker
       style="overflow:visible"
       id="marker2791"
       refX="0"
       refY="0"
       orient="auto"
       inkscape:stockid="Arrow1Lstart"
       inkscape:isstock="true">
      <path
         transform="matrix(0.8,0,0,0.8,10,0)"
         style="fill:#000000;fill-opacity:1;fill-rule:evenodd;stroke:#000000;stroke-width:1pt;stroke-opacity:1"
         d="M 0,0 5,-5 -12.5,0 5,5 Z"
         id="path2789" />
    </marker>
    <marker
       style="overflow:visible"
       id="marker2781"
       refX="0"
       refY="0"
       orient="auto"
       inkscape:stockid="Arrow1Lstart"
       inkscape:isstock="true">
      <path
         transform="matrix(0.8,0,0,0.8,10,0)"
         style="fill:#000000;fill-opacity:1;fill-rule:evenodd;stroke:#000000;stroke-width:1pt;stroke-opacity:1"
         d="M 0,0 5,-5 -12.5,0 5,5 Z"
         id="path2779" />
    </marker>
    <marker
       style="overflow:visible"
       id="marker2417"
       refX="0"
       refY="0"
       orient="auto"
       inkscape:stockid="Arrow1Lstart"
       inkscape:isstock="true">
      <path
         transform="matrix(0.8,0,0,0.8,10,0)"
         style="fill:#000000;fill-opacity:1;fill-rule:evenodd;stroke:#000000;stroke-width:1pt;stroke-opacity:1"
         d="M 0,0 5,-5 -12.5,0 5,5 Z"
         id="path2415" />
    </marker>
    <marker
       style="overflow:visible"
       id="marker2383"
       refX="0"
       refY="0"
       orient="auto"
       inkscape:stockid="Arrow1Lstart"
       inkscape:isstock="true">
      <path
         transform="matrix(0.8,0,0,0.8,10,0)"
         style="fill:#000000;fill-opacity:1;fill-rule:evenodd;stroke:#000000;stroke-width:1pt;stroke-opacity:1"
         d="M 0,0 5,-5 -12.5,0 5,5 Z"
         id="path2381" />
    </marker>
    <marker
       style="overflow:visible"
       id="marker2355"
       refX="0"
       refY="0"
       orient="auto"
       inkscape:stockid="Arrow1Lstart"
       inkscape:isstock="true">
      <path
         transform="matrix(0.8,0,0,0.8,10,0)"
         style="fill:#000000;fill-opacity:1;fill-rule:evenodd;stroke:#000000;stroke-width:1pt;stroke-opacity:1"
         d="M 0,0 5,-5 -12.5,0 5,5 Z"
         id="path2353" />
    </marker>
    <marker
       style="overflow:visible"
       id="Arrow1Lstart"
       refX="0"
       refY="0"
       orient="auto"
       inkscape:stockid="Arrow1Lstart"
       inkscape:isstock="true">
      <path
         transform="matrix(0.8,0,0,0.8,10,0)"
         style="fill:#000000;fill-opacity:1;fill-rule:evenodd;stroke:#000000;stroke-width:1pt;stroke-opacity:1"
         d="M 0,0 5,-5 -12.5,0 5,5 Z"
         id="path2071" />
    </marker>
  </defs>
  <sodipodi:namedview
     id="namedview12"
     pagecolor="#ffffff"
     bordercolor="#666666"
     borderopacity="1.0"
     inkscape:pageshadow="2"
     inkscape:pageopacity="0.0"
     inkscape:pagecheckerboard="0"
     inkscape:document-units="mm"
     showgrid="false"
     showborder="false"
     fit-margin-top="0"
     fit-margin-left="0"
     fit-margin-right="0"
     fit-margin-bottom="0"
     inkscape:zoom="1.2541666"
     inkscape:cx="120.00001"
     inkscape:cy="167.84054"
     inkscape:window-width="1366"
     inkscape:window-height="712"
     inkscape:window-x="0"
     inkscape:window-y="0"
     inkscape:window-maximized="1"
     inkscape:current-layer="layer6" />
  <g
     inkscape:groupmode="layer"
     id="layer1"
     inkscape:label="CardOutline"
     style="display:inline"
     transform="translate(94.217781,-340.71922)">
    <path
       id="path4-3"
       style="display:inline;fill:none;fill-rule:evenodd;stroke:#000000;stroke-width:0.25;stroke-miterlimit:4;stroke-dasharray:none;stroke-opacity:1"
       d="m 50.564743,435.96104 -0.534158,0.31687 c -0.688621,0.40844 -1.158412,0.85449 -1.590112,1.51001 l -0.346181,0.5258 -0.06384,25.43159 c -0.03506,13.98732 -0.046,32.74824 -0.02422,41.69094 0.03916,16.06607 0.04297,16.26663 0.30127,16.87005 h 2.54e-4 c 0.321831,0.75178 1.375871,1.69211 2.308962,2.06009 0.662802,0.26139 0.718825,0.26193 29.335815,0.23047 27.968057,-0.0307 28.683467,-0.0377 29.150357,-0.27706 0.72044,-0.36932 1.35524,-0.98173 1.76901,-1.70664 l 0.37116,-0.65029 9.8e-4,-41.53137 9.8e-4,-41.53137 -0.30833,-0.61121 c -0.3634,-0.72062 -1.20695,-1.59056 -1.92217,-1.98245 l -0.50968,-0.27931 -28.969947,-0.0331 z m 0.134234,0.49272 57.679013,0.0666 0.38933,0.21242 0.11632,0.0681 0.12061,0.0774 0.13902,0.0985 0.11304,0.0864 0.12364,0.1017 0.13751,0.12124 0.11153,0.10621 0.13145,0.13177 0.10774,0.11773 0.12692,0.13477 0.0918,0.11748 0.10345,0.13201 0.0951,0.13352 0.0785,0.11974 0.0739,0.12124 0.0603,0.11222 0.25661,0.50651 -0.003,82.81198 -0.30631,0.53682 -0.13726,0.22444 -0.18268,0.24876 -0.16754,0.20014 -0.19757,0.20466 -0.19327,0.17285 -0.23542,0.18336 -0.22481,0.1503 -0.2233,0.12574 -0.0212,0.0108 -0.0149,0.006 -0.0394,0.012 -0.027,0.006 -0.0507,0.01 -0.0277,0.004 -0.0606,0.008 -0.0573,0.008 -0.0679,0.006 -0.083,0.0105 -0.0868,0.004 -0.0913,0.006 -0.10698,0.007 -0.25056,0.012 -0.3048,0.0108 -0.3545,0.0105 -0.41809,0.009 -0.47538,0.009 -0.54929,0.008 -0.96108,0.0105 -1.14073,0.0108 -3.46459,0.0165 -34.84847,0.0471 -6.84314,-0.003 -1.74276,-0.004 -1.260078,-0.006 -1.065289,-0.008 -0.60506,-0.006 -0.534158,-0.008 -0.467798,-0.009 -0.401438,-0.009 -0.339623,-0.009 -0.289659,-0.012 -0.126666,-0.006 -0.11632,-0.006 -0.106979,-0.006 -0.08302,-0.006 -0.08302,-0.008 -0.07998,-0.006 -0.0545,-0.007 -0.10093,-0.0135 -0.09967,-0.0183 -0.03911,-0.009 -0.04844,-0.0138 -0.0376,-0.0135 -0.04692,-0.0183 -0.167539,-0.0726 -0.143315,-0.0699 -0.177886,-0.0985 -0.140542,-0.0864 -0.159971,-0.10773 -0.155176,-0.11372 -0.152651,-0.12124 -0.161231,-0.13803 -0.123887,-0.11372 -0.144835,-0.14729 -0.11026,-0.11974 -0.119098,-0.14253 -0.08604,-0.11374 -0.09361,-0.13951 -0.06485,-0.11098 -0.05601,-0.11974 -0.027,-0.0669 -0.03481,-0.10621 -0.0061,-0.027 -0.01211,-0.0669 -0.01338,-0.0939 -0.01514,-0.12124 -0.0044,-0.0531 -0.01362,-0.15632 -0.0099,-0.16206 -0.01133,-0.21243 -0.01059,-0.23947 -0.0088,-0.27305 -0.0091,-0.31236 -0.0076,-0.3532 -0.01059,-0.61573 -0.0091,-0.72319 -0.0106,-1.15404 -0.0106,-1.77404 -0.01641,-4.27149 -0.01968,-8.14897 -0.0061,-8.546 0.0015,-6.72963 0.0044,-7.16476 0.0091,-7.2692 0.01943,-9.71082 0.0651,-25.28355 0.257868,-0.39253 0.152402,-0.21993 0.166025,-0.21393 0.147862,-0.16834 0.169052,-0.17133 0.185708,-0.16508 0.168798,-0.13202 0.229612,-0.16082 0.227845,-0.14253 z"
       inkscape:export-filename="/home/doug/k40/52Cards/IndividualColorCards/2D.png"
       inkscape:export-xdpi="300"
       inkscape:export-ydpi="300" />
  </g>
  <g
     inkscape:groupmode="layer"
     id="layer2"
     inkscape:label="InnerRectangle"
     style="display:inline"
     transform="translate(94.217781,-340.71922)">
    <path
       id="path2-6"
       style="display:inline;fill:none;fill-rule:evenodd;stroke:#4c71a5;stroke-width:0.262609;stroke-opacity:1"
       d="m 63.13524,452.67467 0.0441,14.05596 c 0.0243,7.7307 0.0504,20.15551 0.0578,27.61093 l 0.0134,13.55547 16.409043,-0.0521 16.40903,-0.0519 0.0305,-24.32539 c 0.0169,-13.37898 -0.004,-25.78048 -0.0462,-27.55907 l -0.077,-3.23394 h -16.42035 z m 16.503153,0.25626 h 16.11155 l 0.005,0.73622 c 0.003,0.40503 0.0367,12.68075 0.0757,27.27927 l 0.0709,26.54279 -3.16634,0.004 c -1.74158,0.002 -8.99902,0.0153 -16.12745,0.0285 -7.12842,0.0133 -12.991523,-0.007 -13.029223,-0.0446 -0.0728,-0.0731 -0.16665,-54.20072 -0.0944,-54.4185 0.028,-0.0844 5.532343,-0.128 16.154193,-0.128 z"
       inkscape:export-filename="/home/doug/k40/52Cards/IndividualColorCards/2D.png"
       inkscape:export-xdpi="300"
       inkscape:export-ydpi="300" />
  </g>
  <g
     inkscape:groupmode="layer"
     id="layer5"
     inkscape:label="InnerSuit"
     style="display:inline"
     transform="translate(94.217781,-340.71922)">
    <path
       style="fill:#19100a;stroke-width:1"
       d="m 89.653462,465.71725 c 0.263198,-0.51591 0.627258,-1.7833 0.627258,-2.18366 0,-0.20771 -0.06019,-0.18763 -0.441785,0.14742 -0.602252,0.52878 -1.161414,0.61663 -1.885696,0.29624 -0.691685,-0.30596 -0.97456,-0.78083 -0.974419,-1.63576 1.27e-4,-0.80473 0.490085,-1.81578 1.587828,-3.27656 0.472413,-0.62865 1.09911,-1.49988 1.392658,-1.93607 l 0.533725,-0.79308 0.814594,1.14971 c 0.448027,0.63233 1.19508,1.69107 1.660119,2.35274 1.217598,1.73245 1.4144,2.83744 0.664151,3.72906 -0.643178,0.76438 -1.818336,0.75505 -2.576527,-0.0204 -0.216507,-0.22145 -0.392656,-0.34892 -0.391444,-0.28327 0.0077,0.41848 0.402828,1.89108 0.623346,2.32333 0.144898,0.28403 0.26345,0.53869 0.26345,0.56592 0,0.0272 -0.482563,0.0495 -1.072363,0.0495 h -1.072363 z"
       id="path2776" />
    <path
       style="fill:#19100a;stroke-width:1"
       d="m 67.547608,466.27944 c 6.1e-5,-0.0135 0.111509,-0.2135 0.247662,-0.4445 0.271178,-0.4601 0.641449,-1.75428 0.641449,-2.24201 v -0.30814 l -0.34925,0.34975 c -1.149066,1.1507 -2.95275,0.43175 -2.95275,-1.17698 0,-0.82844 0.399912,-1.68195 1.482092,-3.16314 0.602554,-0.82472 1.295199,-1.79953 1.53921,-2.16624 0.244013,-0.36671 0.478431,-0.66665 0.520929,-0.66652 0.0425,1.2e-4 0.233928,0.2482 0.425399,0.55129 0.191471,0.30309 0.81125,1.17452 1.377286,1.93652 0.566037,0.762 1.171555,1.66477 1.345597,2.00615 0.432014,0.84738 0.511165,1.78834 0.198011,2.354 -0.586453,1.05932 -2.208872,1.19489 -2.877392,0.24045 -0.107409,-0.15335 -0.222677,-0.25143 -0.256152,-0.21795 -0.120548,0.12054 0.296187,1.74844 0.602475,2.35345 l 0.313043,0.61836 h -1.128861 c -0.620873,0 -1.128811,-0.011 -1.128748,-0.0245 z"
       id="path2774" />
    <path
       style="fill:#19100a;stroke-width:1"
       d="m 89.395779,478.68643 c 0.0022,-0.0349 0.08979,-0.17699 0.194626,-0.3157 0.233552,-0.30901 0.690315,-1.75407 0.690315,-2.18395 v -0.31389 l -0.385942,0.38594 c -0.705382,0.70538 -1.940916,0.646 -2.589198,-0.12444 -0.251747,-0.29918 -0.32686,-0.52847 -0.32686,-0.99774 0,-1.09286 0.266546,-1.61877 2.030712,-4.00672 0.464433,-0.62865 0.973704,-1.35731 1.131713,-1.61925 0.15801,-0.26194 0.303114,-0.47625 0.322452,-0.47625 0.01934,0 0.252913,0.32861 0.519054,0.73025 0.26614,0.40164 0.901065,1.27915 1.410945,1.95003 1.566033,2.06053 1.982504,3.24508 1.468822,4.17772 -0.52007,0.94423 -1.956282,1.13695 -2.727275,0.36596 -0.207548,-0.20755 -0.396473,-0.35825 -0.419833,-0.33489 -0.108986,0.10899 0.351911,1.82962 0.617263,2.30439 l 0.298065,0.53329 -1.119439,-0.006 c -0.615691,-0.003 -1.11763,-0.0342 -1.11542,-0.0691 z"
       id="path2770" />
    <path
       style="fill:#19100a;stroke-width:1"
       d="m 67.674719,478.76523 c 0,-0.0265 0.145046,-0.36497 0.322323,-0.75219 0.177278,-0.38723 0.358343,-1.0085 0.402367,-1.3806 l 0.08004,-0.67655 -0.486011,0.42656 c -0.45545,0.39973 -0.53255,0.42319 -1.226127,0.37302 -0.881391,-0.0638 -1.310267,-0.39169 -1.517178,-1.1601 -0.273563,-1.01593 0.114658,-1.91748 1.795618,-4.16989 0.633457,-0.8488 1.235609,-1.70546 1.338114,-1.90368 0.102506,-0.19823 0.23175,-0.36041 0.28721,-0.36041 0.05546,0 0.428706,0.47149 0.829438,1.04775 0.400731,0.57626 1.044895,1.47637 1.431477,2.00025 0.966391,1.3096 1.311963,2.07024 1.313486,2.89111 0.001,0.5796 -0.05429,0.72921 -0.415872,1.12377 -0.704409,0.76864 -2.008115,0.73752 -2.65281,-0.0633 l -0.267315,-0.33206 0.07716,0.68388 c 0.04244,0.37613 0.247391,1.04764 0.455446,1.49225 l 0.378282,0.80837 H 68.74754 c -0.590055,0 -1.072828,-0.0217 -1.072828,-0.0482 z"
       id="path2768" />
    <path
       style="fill:#19100a;stroke-width:1"
       d="m 79.260844,484.68714 c -0.149405,-0.26194 -0.816672,-1.2192 -1.482816,-2.12725 -1.63538,-2.22926 -1.989199,-3.20708 -1.519001,-4.19795 0.212905,-0.44866 1.030779,-0.94555 1.556368,-0.94555 0.43838,0 1.108285,0.32441 1.333306,0.64567 0.112297,0.16033 0.229011,0.26638 0.259366,0.23567 0.127152,-0.12865 -0.22039,-1.5054 -0.545863,-2.16238 l -0.35151,-0.70954 1.10858,-0.005 1.108582,-0.005 -0.361075,0.77823 c -0.393872,0.84893 -0.65827,2.34773 -0.347354,1.96906 0.286048,-0.34838 1.034969,-0.74535 1.407122,-0.74585 0.520075,-6.3e-4 1.15359,0.30152 1.466847,0.69977 0.660023,0.83908 0.235468,2.24273 -1.305515,4.31626 -0.467194,0.62865 -1.080538,1.50018 -1.362988,1.93675 -0.28245,0.43656 -0.553788,0.79375 -0.602974,0.79375 -0.04919,0 -0.211668,-0.21432 -0.361075,-0.47625 z"
       id="path2766" />
    <path
       style="fill:#19100a;stroke-width:1"
       d="m 90.23039,491.16414 c -0.101119,-0.19209 -0.709985,-1.06363 -1.353034,-1.93675 -1.367106,-1.85624 -1.898394,-2.87977 -1.898536,-3.65756 -2.54e-4,-1.0964 0.706449,-1.8021 1.805417,-1.80297 0.516646,-3.8e-4 0.660721,0.0612 1.04775,0.44826 0.425443,0.42545 0.448733,0.43342 0.448733,0.15368 0,-0.47648 -0.373486,-1.77428 -0.641449,-2.22892 -0.136153,-0.23101 -0.247515,-0.43103 -0.247469,-0.4445 4.5e-5,-0.0135 0.504104,-0.0246 1.120131,-0.0247 l 1.120049,-2.6e-4 -0.220428,0.38125 c -0.291491,0.50417 -0.622834,1.65838 -0.622834,2.16961 v 0.40875 l 0.4318,-0.4318 c 0.390061,-0.39006 0.501774,-0.4318 1.1557,-0.4318 0.650555,0 0.766635,0.0427 1.145683,0.42178 1.003769,1.00377 0.684571,2.28487 -1.19241,4.78574 -0.393401,0.52416 -0.943873,1.30947 -1.223273,1.74514 -0.2794,0.43566 -0.549395,0.79261 -0.599989,0.79323 -0.05059,6.3e-4 -0.174723,-0.15606 -0.275841,-0.34814 z"
       id="path2764" />
    <path
       style="fill:#19100a;stroke-width:1"
       d="m 67.658569,490.10059 c -0.584843,-0.83012 -1.223615,-1.72338 -1.419493,-1.98501 -0.882202,-1.17834 -1.235356,-2.55492 -0.87462,-3.40925 0.186131,-0.44081 0.962508,-0.93994 1.462037,-0.93994 0.504756,0 1.011057,0.22998 1.336849,0.60726 l 0.298123,0.34524 -0.06749,-0.73791 c -0.03874,-0.42359 -0.224239,-1.07276 -0.435481,-1.524 l -0.367996,-0.78609 h 1.121368 c 0.616752,0 1.121476,0.0301 1.12161,0.067 1.27e-4,0.0368 -0.07882,0.17987 -0.175451,0.31783 -0.239655,0.34215 -0.713308,1.90738 -0.713308,2.35719 v 0.36576 l 0.412826,-0.45047 c 0.736618,-0.80379 2.074629,-0.68976 2.631919,0.2243 0.590658,0.9688 0.212398,2.27311 -1.196511,4.12577 -0.362479,0.47664 -0.976748,1.33126 -1.365043,1.89914 l -0.705992,1.03251 z"
       id="path2762" />
    <path
       style="fill:#19100a;stroke-width:1"
       d="m 90.318021,503.99674 c -0.125291,-0.20243 -0.749173,-1.07946 -1.386406,-1.94895 -2.041233,-2.78521 -2.378286,-3.88942 -1.504277,-4.92812 0.683664,-0.81248 1.840186,-0.83243 2.56219,-0.0442 l 0.422769,0.46156 -0.07724,-0.44007 c -0.144689,-0.82435 -0.454514,-1.8362 -0.682404,-2.22865 l -0.227388,-0.39158 h 1.113157 1.113158 l -0.23561,0.45508 c -0.269176,0.51992 -0.627248,1.81971 -0.627248,2.2769 v 0.30794 l 0.265214,-0.33716 c 0.535269,-0.68049 1.275541,-0.86869 2.085584,-0.53024 0.603695,0.25224 0.950137,0.86437 0.950727,1.67985 5.08e-4,0.75111 -0.53222,1.88199 -1.453618,3.08556 -0.296102,0.38678 -0.887667,1.20879 -1.314586,1.82668 l -0.776218,1.12345 z"
       id="path2758" />
    <path
       style="fill:#19100a;stroke-width:1"
       d="m 68.471418,504.05464 c -0.07319,-0.15717 -0.6412,-0.97155 -1.262246,-1.80975 -1.46691,-1.97983 -1.646115,-2.28237 -1.877018,-3.16887 -0.389283,-1.49456 0.26239,-2.48263 1.637393,-2.48263 0.480865,0 0.659219,0.0739 1.066405,0.44175 l 0.488964,0.44175 -0.101964,-0.64502 c -0.130581,-0.82606 -0.338343,-1.47281 -0.627371,-1.95298 l -0.229332,-0.381 h 1.133735 c 0.623555,0 1.116969,0.0286 1.096476,0.0635 -0.41806,0.71249 -0.842498,2.04397 -0.848636,2.6622 -0.0031,0.31042 -5.08e-4,0.30978 0.346145,-0.0882 0.672811,-0.77234 1.821298,-0.76434 2.537979,0.0177 0.364562,0.39781 0.414771,0.53824 0.414771,1.16008 0,0.94638 -0.450208,1.83422 -1.959894,3.86507 -0.65036,0.87487 -1.248977,1.71926 -1.330258,1.87643 -0.08128,0.15716 -0.19375,0.28575 -0.249931,0.28575 -0.05618,0 -0.162028,-0.12859 -0.235218,-0.28575 z"
       id="path2756" />
  </g>
  <g
     inkscape:groupmode="layer"
     id="layer6"
     inkscape:label="OuterSuit"
     style="display:inline"
     transform="translate(94.217781,-340.71922)">
    <path
       style="display:inline;fill:#19100a;stroke-width:1"
       d="m 54.779822,470.81243 c 0.402587,-0.64789 0.657735,-1.35511 0.883873,-2.44991 0.295006,-1.42822 0.275304,-1.47572 -0.339726,-0.81913 -0.636064,0.67905 -1.315462,0.93043 -2.168806,0.80247 -1.19113,-0.17862 -1.889547,-0.94518 -1.966819,-2.15871 -0.08862,-1.3917 0.459423,-2.58679 2.33715,-5.09653 0.467747,-0.62518 1.221301,-1.67962 1.674564,-2.34319 0.453263,-0.66358 0.85945,-1.2195 0.902638,-1.23539 0.04319,-0.0159 0.301576,0.32076 0.574196,0.74811 0.272621,0.42736 1.07532,1.55478 1.783778,2.5054 2.142248,2.87447 2.611489,3.79756 2.60796,5.13033 -0.0029,1.09969 -0.350237,1.69404 -1.258934,2.1543 -0.379237,0.19209 -0.893587,0.34799 -1.143,0.34646 -0.65077,-0.004 -1.422879,-0.39572 -1.902222,-0.96506 l -0.414777,-0.49265 0.08878,0.6985 c 0.113613,0.89384 0.609385,2.45755 0.986495,3.1115 l 0.292949,0.508 h -1.607153 -1.607152 z"
       id="path2772"
       transform="translate(-1.0416666e-6,-1.1083333e-5)" />
    <path
       style="display:inline;fill:#19100a;stroke-width:1"
       d="m 102.38807,502.21316 c -0.33588,-0.54134 -1.01508,-1.52718 -1.50934,-2.19075 -2.059636,-2.7652 -2.716629,-4.00858 -2.717785,-5.1435 -0.0017,-1.61512 1.258686,-2.7739 2.793135,-2.56809 0.65219,0.0875 1.0429,0.34609 1.53633,1.01692 l 0.39366,0.53517 -0.0862,-0.635 c -0.13744,-1.01203 -0.56108,-2.47871 -0.94512,-3.2721 l -0.35438,-0.73211 0.45544,0.0739 c 0.25049,0.0407 0.59832,0.099 0.77295,0.12964 0.17462,0.0307 0.65688,-5.1e-4 1.07168,-0.0693 0.41479,-0.0688 0.77245,-0.10675 0.79478,-0.0844 0.0223,0.0223 -0.15836,0.47126 -0.40155,0.99761 -0.37549,0.81269 -0.82991,2.65482 -0.82991,3.36427 0,0.10105 0.18573,-0.0578 0.41274,-0.35294 0.51363,-0.66783 1.13467,-1.00707 1.8436,-1.00707 1.4908,0 2.44266,0.99101 2.44266,2.54314 0,1.25619 -0.54222,2.30677 -2.68578,5.20386 -0.59434,0.80327 -1.32416,1.84626 -1.62181,2.31775 -0.29765,0.47148 -0.58915,0.85725 -0.64778,0.85725 -0.0586,0 -0.3814,-0.44292 -0.71728,-0.98425 z"
       id="path2760"
       transform="translate(-1.0416666e-6,-1.1083333e-5)" />
  </g>
  <g
     inkscape:groupmode="layer"
     id="layer3"
     inkscape:label="CardName"
     style="display:inline"
     transform="translate(94.217781,-340.71922)">
    <path
       id="path2566"
       style="display:inline;fill:#19100a;stroke-width:1"
       d="m 103.36183,506.43597 c -1.34086,0 -1.51391,0.0279 -2.10944,0.3421 -0.76892,0.40567 -1.685557,1.38398 -2.076357,2.21537 -0.15422,0.32809 -0.397452,1.02992 -0.540536,1.55959 -0.355121,1.31464 -0.378785,3.99909 -0.04651,5.28082 0.58171,2.24384 1.780003,3.7049 3.502633,4.27002 0.17462,0.0571 0.8036,0.0861 1.39733,0.0641 0.82674,-0.0307 1.24813,-0.11654 1.80041,-0.36639 3.44009,-1.55631 3.59836,-6.22694 0.2682,-7.91321 -0.67442,-0.34147 -0.84568,-0.37259 -2.06861,-0.37259 -1.50499,0 -2.23959,0.2397 -3.03341,0.99064 l -0.42943,0.40669 0.0755,-0.76429 c 0.0413,-0.4202 0.19245,-1.13457 0.3359,-1.5875 0.53933,-1.70289 1.44591,-2.4658 2.92282,-2.4598 1.25799,0.005 2.04886,0.4992 2.69492,1.68465 l 0.21652,0.39791 0.72968,-0.32246 c 0.40115,-0.17741 0.75789,-0.35176 0.79323,-0.38706 0.1189,-0.1189 -0.42748,-0.98495 -1.05575,-1.67328 -0.34284,-0.3756 -0.91455,-0.83656 -1.27021,-1.02423 -0.59321,-0.313 -0.76705,-0.34106 -2.10684,-0.34106 z m 0.26148,6.68383 c 0.42261,-0.008 0.64161,0.0669 1.13326,0.32608 0.93108,0.49075 1.41706,1.25033 1.41697,2.21433 -4e-5,0.37491 -0.0556,0.82758 -0.12351,1.00614 -0.21484,0.56473 -0.81431,1.1619 -1.47639,1.4702 -1.83335,0.85372 -3.87883,-0.39344 -3.87883,-2.36523 0,-1.50618 0.99002,-2.50978 2.59777,-2.63343 0.12505,-0.01 0.2332,-0.0161 0.33073,-0.0181 z"
       transform="translate(-1.0416666e-6,-1.1083333e-5)" />
    <path
       id="path2778"
       style="display:inline;fill:#19100a;stroke-width:1"
       d="m 55.924411,440.39659 c -1.326692,-5.4e-4 -1.44399,0.0213 -2.248958,0.41755 -2.24432,1.10488 -3.068593,3.6851 -1.909961,5.97741 0.384733,0.76118 1.055208,1.39778 2.002978,1.90221 0.576794,0.30697 0.762971,0.33796 2.031918,0.33796 1.535832,0 1.986629,-0.14935 2.917134,-0.96635 l 0.448035,-0.39325 -0.0016,0.48937 c -0.0045,1.17304 -0.655383,2.97265 -1.288809,3.56309 -0.564798,0.52646 -1.476071,0.83839 -2.224153,0.76119 -1.113073,-0.11488 -1.945363,-0.72162 -2.65307,-1.93424 -0.126968,-0.21755 -0.179184,-0.2066 -0.857311,0.18138 -0.397132,0.22722 -0.721921,0.4562 -0.721921,0.5085 0,0.18881 1.088149,1.64124 1.460376,1.94923 0.49612,0.4105 1.334092,0.83207 1.934765,0.97359 0.739222,0.17416 1.43424,0.15638 2.261362,-0.0579 1.759268,-0.45574 2.866962,-1.69745 3.509862,-3.93516 0.394433,-1.37287 0.421611,-4.49685 0.05013,-5.77484 -0.528841,-1.81934 -1.441021,-3.07561 -2.675805,-3.68557 -0.558792,-0.27604 -0.803331,-0.3137 -2.035019,-0.31419 z m -0.07803,1.63504 c 0.654428,0.003 1.331272,0.24754 1.924947,0.82269 1.302189,1.26157 1.079384,3.10825 -0.501261,4.15427 -0.740656,0.49014 -1.775939,0.54617 -2.622063,0.14159 -0.354198,-0.16936 -0.821592,-0.52404 -1.039212,-0.78806 -1.636821,-1.98574 0.189862,-4.34007 2.237589,-4.33049 z"
       transform="translate(-1.0416666e-6,-1.1083333e-5)" />
  </g>
</svg>
