<?xml version="1.0" encoding="UTF-8" standalone="no"?>
<svg
   width="63.500004mm"
   height="88.899895mm"
   viewBox="142.0878 95.116776 63.500012 88.899887"
   version="1.1"
   id="svg10"
   sodipodi:docname="AC.svg"
   inkscape:version="1.1.1 (1:1.1+202109281949+c3084ef5ed)"
   inkscape:export-filename="/home/doug/k40/52Cards/IndividualColorCards/AC.png"
   inkscape:export-xdpi="300"
   inkscape:export-ydpi="300"
   xmlns:inkscape="http://www.inkscape.org/namespaces/inkscape"
   xmlns:sodipodi="http://sodipodi.sourceforge.net/DTD/sodipodi-0.dtd"
   xmlns="http://www.w3.org/2000/svg"
   xmlns:svg="http://www.w3.org/2000/svg">
  <defs
     id="defs14">
    <marker
       style="overflow:visible"
       id="marker2995"
       refX="0"
       refY="0"
       orient="auto"
       inkscape:stockid="Arrow1Lstart"
       inkscape:isstock="true">
      <path
         transform="matrix(0.8,0,0,0.8,10,0)"
         style="fill:#000000;fill-opacity:1;fill-rule:evenodd;stroke:#000000;stroke-width:1pt;stroke-opacity:1"
         d="M 0,0 5,-5 -12.5,0 5,5 Z"
         id="path2993" />
    </marker>
    <marker
       style="overflow:visible"
       id="marker2985"
       refX="0"
       refY="0"
       orient="auto"
       inkscape:stockid="Arrow1Lstart"
       inkscape:isstock="true">
      <path
         transform="matrix(0.8,0,0,0.8,10,0)"
         style="fill:#000000;fill-opacity:1;fill-rule:evenodd;stroke:#000000;stroke-width:1pt;stroke-opacity:1"
         d="M 0,0 5,-5 -12.5,0 5,5 Z"
         id="path2983" />
    </marker>
    <marker
       style="overflow:visible"
       id="marker2791"
       refX="0"
       refY="0"
       orient="auto"
       inkscape:stockid="Arrow1Lstart"
       inkscape:isstock="true">
      <path
         transform="matrix(0.8,0,0,0.8,10,0)"
         style="fill:#000000;fill-opacity:1;fill-rule:evenodd;stroke:#000000;stroke-width:1pt;stroke-opacity:1"
         d="M 0,0 5,-5 -12.5,0 5,5 Z"
         id="path2789" />
    </marker>
    <marker
       style="overflow:visible"
       id="marker2781"
       refX="0"
       refY="0"
       orient="auto"
       inkscape:stockid="Arrow1Lstart"
       inkscape:isstock="true">
      <path
         transform="matrix(0.8,0,0,0.8,10,0)"
         style="fill:#000000;fill-opacity:1;fill-rule:evenodd;stroke:#000000;stroke-width:1pt;stroke-opacity:1"
         d="M 0,0 5,-5 -12.5,0 5,5 Z"
         id="path2779" />
    </marker>
    <marker
       style="overflow:visible"
       id="marker2417"
       refX="0"
       refY="0"
       orient="auto"
       inkscape:stockid="Arrow1Lstart"
       inkscape:isstock="true">
      <path
         transform="matrix(0.8,0,0,0.8,10,0)"
         style="fill:#000000;fill-opacity:1;fill-rule:evenodd;stroke:#000000;stroke-width:1pt;stroke-opacity:1"
         d="M 0,0 5,-5 -12.5,0 5,5 Z"
         id="path2415" />
    </marker>
    <marker
       style="overflow:visible"
       id="marker2383"
       refX="0"
       refY="0"
       orient="auto"
       inkscape:stockid="Arrow1Lstart"
       inkscape:isstock="true">
      <path
         transform="matrix(0.8,0,0,0.8,10,0)"
         style="fill:#000000;fill-opacity:1;fill-rule:evenodd;stroke:#000000;stroke-width:1pt;stroke-opacity:1"
         d="M 0,0 5,-5 -12.5,0 5,5 Z"
         id="path2381" />
    </marker>
    <marker
       style="overflow:visible"
       id="marker2355"
       refX="0"
       refY="0"
       orient="auto"
       inkscape:stockid="Arrow1Lstart"
       inkscape:isstock="true">
      <path
         transform="matrix(0.8,0,0,0.8,10,0)"
         style="fill:#000000;fill-opacity:1;fill-rule:evenodd;stroke:#000000;stroke-width:1pt;stroke-opacity:1"
         d="M 0,0 5,-5 -12.5,0 5,5 Z"
         id="path2353" />
    </marker>
    <marker
       style="overflow:visible"
       id="Arrow1Lstart"
       refX="0"
       refY="0"
       orient="auto"
       inkscape:stockid="Arrow1Lstart"
       inkscape:isstock="true">
      <path
         transform="matrix(0.8,0,0,0.8,10,0)"
         style="fill:#000000;fill-opacity:1;fill-rule:evenodd;stroke:#000000;stroke-width:1pt;stroke-opacity:1"
         d="M 0,0 5,-5 -12.5,0 5,5 Z"
         id="path2071" />
    </marker>
  </defs>
  <sodipodi:namedview
     id="namedview12"
     pagecolor="#ffffff"
     bordercolor="#666666"
     borderopacity="1.0"
     inkscape:pageshadow="2"
     inkscape:pageopacity="0.0"
     inkscape:pagecheckerboard="0"
     inkscape:document-units="mm"
     showgrid="false"
     showborder="false"
     fit-margin-top="0"
     fit-margin-left="0"
     fit-margin-right="0"
     fit-margin-bottom="0"
     inkscape:zoom="1.4874999"
     inkscape:cx="120.00001"
     inkscape:cy="167.7311"
     inkscape:window-width="1366"
     inkscape:window-height="712"
     inkscape:window-x="0"
     inkscape:window-y="0"
     inkscape:window-maximized="1"
     inkscape:current-layer="svg10" />
  <g
     inkscape:groupmode="layer"
     id="layer1"
     inkscape:label="CardOutline"
     style="display:inline"
     transform="translate(94.217781,-340.71922)">
    <path
       id="path4-3"
       style="display:inline;fill:none;fill-rule:evenodd;stroke:#000000;stroke-width:0.25;stroke-miterlimit:4;stroke-dasharray:none;stroke-opacity:1"
       d="m 108.67529,524.61088 0.53416,-0.31687 c 0.68862,-0.40844 1.15841,-0.85449 1.59011,-1.51001 l 0.34618,-0.5258 0.0638,-25.43159 c 0.0351,-13.98732 0.046,-32.74824 0.0242,-41.69094 -0.0392,-16.06607 -0.043,-16.26663 -0.30127,-16.87005 h -2.5e-4 c -0.32183,-0.75178 -1.37587,-1.69211 -2.30896,-2.06009 -0.66281,-0.26139 -0.71883,-0.26193 -29.335819,-0.23047 -27.968057,0.0307 -28.683467,0.0377 -29.150357,0.27706 -0.72044,0.36932 -1.35524,0.98173 -1.76901,1.70664 l -0.37116,0.65029 -9.8e-4,41.53137 -9.8e-4,41.53137 0.30833,0.61121 c 0.3634,0.72062 1.20695,1.59056 1.92217,1.98245 l 0.50968,0.27931 28.969947,0.0331 z m -0.13423,-0.49272 -57.679016,-0.0666 -0.38933,-0.21242 -0.11632,-0.0681 -0.12061,-0.0774 -0.13902,-0.0985 -0.11304,-0.0864 -0.12364,-0.1017 -0.13751,-0.12124 -0.11153,-0.10621 -0.13145,-0.13177 -0.10774,-0.11773 -0.12692,-0.13477 -0.0918,-0.11748 -0.10345,-0.13201 -0.0951,-0.13352 -0.0785,-0.11974 -0.0739,-0.12124 -0.0603,-0.11222 -0.25661,-0.50651 0.003,-82.81198 0.30631,-0.53682 0.13726,-0.22444 0.18268,-0.24876 0.16754,-0.20014 0.19757,-0.20466 0.19327,-0.17285 0.23542,-0.18336 0.22481,-0.1503 0.2233,-0.12574 0.0212,-0.0108 0.0149,-0.006 0.0394,-0.012 0.027,-0.006 0.0507,-0.01 0.0277,-0.004 0.0606,-0.008 0.0573,-0.008 0.0679,-0.006 0.083,-0.0105 0.0868,-0.004 0.0913,-0.006 0.10698,-0.007 0.25056,-0.012 0.3048,-0.0108 0.3545,-0.0105 0.41809,-0.009 0.47538,-0.009 0.54929,-0.008 0.96108,-0.0105 1.14073,-0.0108 3.46459,-0.0165 34.84847,-0.0471 6.843136,0.003 1.74276,0.004 1.26008,0.006 1.06529,0.008 0.60506,0.006 0.53416,0.008 0.4678,0.009 0.40143,0.009 0.33963,0.009 0.28966,0.012 0.12666,0.006 0.11632,0.006 0.10698,0.006 0.083,0.006 0.083,0.008 0.08,0.006 0.0545,0.007 0.10093,0.0135 0.0997,0.0183 0.0391,0.009 0.0484,0.0138 0.0376,0.0135 0.0469,0.0183 0.16754,0.0726 0.14332,0.0699 0.17788,0.0985 0.14054,0.0864 0.15997,0.10773 0.15518,0.11372 0.15265,0.12124 0.16123,0.13803 0.12389,0.11372 0.14483,0.14729 0.11026,0.11974 0.1191,0.14253 0.086,0.11374 0.0936,0.13951 0.0648,0.11098 0.056,0.11974 0.027,0.0669 0.0348,0.10621 0.006,0.027 0.0121,0.0669 0.0134,0.0939 0.0151,0.12124 0.004,0.0531 0.0136,0.15632 0.01,0.16206 0.0113,0.21243 0.0106,0.23947 0.009,0.27305 0.009,0.31236 0.008,0.3532 0.0106,0.61573 0.009,0.72319 0.0106,1.15404 0.0106,1.77404 0.0164,4.27149 0.0197,8.14897 0.006,8.546 -0.002,6.72963 -0.004,7.16476 -0.009,7.2692 -0.0194,9.71082 -0.0651,25.28355 -0.25787,0.39253 -0.1524,0.21993 -0.16602,0.21393 -0.14786,0.16834 -0.16906,0.17133 -0.1857,0.16508 -0.1688,0.13202 -0.22961,0.16082 -0.22785,0.14253 z"
       inkscape:export-filename="/home/doug/k40/52Cards/IndividualColorCards/2D.png"
       inkscape:export-xdpi="300"
       inkscape:export-ydpi="300"
       transform="translate(-1.0416666e-6,-1.1083333e-5)" />
  </g>
  <g
     inkscape:groupmode="layer"
     id="layer2"
     inkscape:label="InnerRectangle"
     style="display:inline"
     transform="translate(94.217781,-340.71922)">
    <path
       id="path2-6"
       style="display:inline;fill:none;fill-rule:evenodd;stroke:#4c71a5;stroke-width:0.262609;stroke-opacity:1"
       d="m 96.104794,507.89725 -0.0441,-14.05596 c -0.0243,-7.7307 -0.0504,-20.15551 -0.0578,-27.61093 l -0.0134,-13.55547 -16.409043,0.0521 -16.40903,0.0519 -0.0305,24.32539 c -0.0169,13.37898 0.004,25.78048 0.0462,27.55907 l 0.077,3.23394 h 16.42035 z m -16.503153,-0.25626 h -16.11155 l -0.005,-0.73622 c -0.003,-0.40503 -0.0367,-12.68075 -0.0757,-27.27927 l -0.0709,-26.54279 3.16634,-0.004 c 1.74158,-0.002 8.99902,-0.0153 16.12745,-0.0285 7.12842,-0.0133 12.991523,0.007 13.029223,0.0446 0.0728,0.0731 0.16665,54.20072 0.0944,54.4185 -0.028,0.0844 -5.532343,0.128 -16.154193,0.128 z"
       inkscape:export-filename="/home/doug/k40/52Cards/IndividualColorCards/2D.png"
       inkscape:export-xdpi="300"
       inkscape:export-ydpi="300"
       transform="translate(-1.0416666e-6,-1.1083333e-5)" />
  </g>
  <g
     inkscape:groupmode="layer"
     id="layer5"
     inkscape:label="InnerSuit"
     style="display:inline"
     transform="translate(94.217781,-340.71922)">
    <path
       style="display:inline;fill:#140c06;stroke-width:0.999998"
       d="m 80.455453,476.09098 c 0.355147,0.19535 0.860326,1.10887 0.860326,1.55574 0,0.41799 -0.236114,0.95271 -0.583568,1.32159 -0.344659,0.3659 -0.222534,0.59638 0.195863,0.36963 0.630248,-0.34155 1.776266,0.0265 2.15983,0.69373 0.121438,0.21124 0.223483,0.65805 0.228565,1.00078 0.0083,0.55839 -0.04018,0.66916 -0.493584,1.12829 -0.493438,0.49966 -0.516711,0.50808 -1.25445,0.45405 -0.851426,-0.0624 -1.319405,-0.39022 -1.485944,-1.04104 -0.05348,-0.20897 -0.171533,-0.40503 -0.262345,-0.43569 -0.352301,-0.11892 0.208651,2.34101 0.712174,3.12308 l 0.184269,0.28621 H 79.62393 c -0.600963,0 -1.070836,-0.043 -1.044163,-0.0955 0.653408,-1.28538 1.10002,-3.33905 0.726141,-3.33905 -0.06909,0 -0.125617,0.0629 -0.125617,0.13977 0,0.36939 -0.435662,1.00432 -0.813797,1.18602 -0.499567,0.24005 -1.266764,0.25721 -1.694771,0.0379 -0.445645,-0.22836 -0.88309,-0.94782 -0.88309,-1.45243 0,-1.20403 1.241541,-2.10574 2.343674,-1.70218 0.60075,0.21998 0.743888,0.0538 0.308435,-0.35814 -0.479823,-0.45387 -0.707153,-1.27321 -0.515995,-1.85973 0.07718,-0.23682 0.336693,-0.60516 0.576691,-0.81853 0.357452,-0.31782 0.543472,-0.38705 1.028671,-0.38288 0.32577,0.003 0.742175,0.0875 0.925344,0.18828 z"
       id="path2787"
       transform="translate(-1.0416666e-6,-1.1083333e-5)" />
  </g>
  <g
     inkscape:groupmode="layer"
     id="layer6"
     inkscape:label="OuterSuit"
     style="display:inline"
     transform="translate(94.217781,-340.71922)">
    <path
       style="display:inline;fill:#140c06;stroke-width:0.999998"
       d="m 104.21169,492.04328 c -0.4777,1.0938 -0.64581,1.65761 -0.80397,2.69638 -0.14438,0.94827 -0.0956,1.4683 0.12487,1.33034 0.0605,-0.0379 0.14525,-0.292 0.18832,-0.56475 0.0564,-0.35694 0.2148,-0.62078 0.56536,-0.94149 1.17571,-1.07558 2.51607,-0.9297 3.50357,0.38132 0.28996,0.38496 0.34477,0.58186 0.34269,1.23134 -0.006,1.79461 -1.50602,2.87292 -3.21134,2.3081 -0.35487,-0.11754 -0.67551,-0.18302 -0.71254,-0.14553 -0.037,0.0375 0.15958,0.31743 0.4369,0.62209 0.60931,0.66936 0.83742,1.30977 0.7594,2.13199 -0.11461,1.2078 -1.04499,2.02451 -2.30718,2.02529 -0.65589,3.9e-4 -0.84273,-0.0556 -1.29719,-0.38898 -1.19441,-0.87614 -1.3361,-2.52904 -0.31492,-3.67362 0.47146,-0.52843 0.56723,-0.85088 0.21147,-0.71199 -0.1209,0.0472 -0.46007,0.15107 -0.7537,0.23079 -1.042742,0.28315 -2.336433,-0.34258 -2.721125,-1.31616 -0.517746,-1.3103 -0.01625,-2.59279 1.245125,-3.18415 0.58137,-0.27257 0.82577,-0.29013 1.47943,-0.1063 0.69947,0.19669 1.31707,0.80539 1.51516,1.49332 0.21534,0.74781 0.46064,0.85235 0.4577,0.19505 -0.004,-1.02431 -0.35342,-2.23721 -1.20116,-4.17646 -0.0352,-0.0806 0.46613,-0.12721 1.36957,-0.12721 h 1.42519 z"
       id="path2790"
       transform="translate(-1.0416666e-6,-1.1083333e-5)" />
    <path
       style="display:inline;fill:#140c06;stroke-width:0.999998"
       d="m 56.679424,457.32671 c 0.81893,0.19515 1.43303,0.89097 1.6595,1.88033 0.15252,0.66628 -0.17109,1.7468 -0.6623,2.21146 -0.49205,0.46543 -0.41825,0.82663 0.11171,0.5467 0.90466,-0.47783 2.319347,-0.0366 2.982906,0.93049 0.725482,1.05726 0.380152,2.60848 -0.726956,3.26548 -0.711227,0.42206 -1.70743,0.44439 -2.34227,0.0525 -0.56122,-0.34644 -0.71555,-0.5552 -0.92309,-1.24862 -0.0931,-0.31108 -0.24293,-0.59045 -0.33295,-0.62084 -0.12967,-0.0438 -0.14525,0.13404 -0.075,0.85606 0.10005,1.0282 0.34139,1.94049 0.76037,2.87441 0.49502,1.10336 0.58077,1.01761 -1.01777,1.01761 -0.78573,0 -1.4286,-0.0302 -1.4286,-0.0671 0,-0.037 0.0766,-0.18002 0.17021,-0.31801 0.26473,-0.39024 0.70297,-1.66754 0.90375,-2.63404 0.33015,-1.58929 0.16295,-2.37013 -0.24678,-1.15248 -0.22458,0.66743 -0.75977,1.30958 -1.09145,1.30958 -0.11949,0 -0.23761,0.0618 -0.26249,0.13739 -0.0705,0.21427 -1.38243,0.17627 -1.81972,-0.0527 -1.25949,-0.65952 -1.67844,-2.41942 -0.83244,-3.49682 0.71953,-0.91633 1.90519,-1.26335 2.89116,-0.8462 0.64105,0.27124 0.79495,0.0518 0.2832,-0.40382 -1.2179,-1.08427 -1.13833,-3.15108 0.15004,-3.89754 0.63867,-0.37002 1.25673,-0.48496 1.84897,-0.34383 z"
       id="path2785"
       transform="translate(-1.0416666e-6,-1.1083333e-5)" />
  </g>
  <g
     inkscape:groupmode="layer"
     id="layer3"
     inkscape:label="CardName"
     style="display:inline"
     transform="translate(94.217781,-340.71922)">
    <path
       id="path2588"
       style="display:inline;fill:#140c06;stroke-width:0.999999"
       d="m 50.791014,454.13826 2.19825,-0.0202 2.19825,-0.0207 v -0.80226 -0.80278 h -0.628 c -0.72428,0 -0.71951,0.0164 -0.39619,-1.27171 l 0.20743,-0.8271 h 1.93429 1.93429 l 0.22818,0.8271 c 0.34726,1.2579 0.34314,1.27171 -0.39672,1.27171 h -0.63421 l 0.0373,0.79501 c 0.0344,0.73164 0.0599,0.79423 0.31996,0.78622 0.15545,-0.005 1.13079,-0.0195 2.16713,-0.0321 l 1.883993,-0.0227 v -0.75619 -0.75671 l -0.649261,-0.0383 c -0.638438,-0.0378 -0.652269,-0.0476 -0.80172,-0.54761 -0.181817,-0.60835 -0.464735,-1.70792 -0.751936,-2.92539 -0.115525,-0.48973 -0.287834,-1.17656 -0.383229,-1.52637 -0.09539,-0.3498 -0.516057,-2.03846 -0.934477,-3.7525 -0.41841,-1.71405 -0.78462,-3.18836 -0.81416,-3.2758 -0.0378,-0.11203 -0.40159,-0.1589 -1.23007,-0.1589 h -1.17613 l -0.95626,3.91139 c -0.52594,2.1513 -1.19595,4.89913 -1.48935,6.10597 l -0.53362,2.19404 h -0.66689 -0.66689 v 0.82297 z m 5.51714,-5.46208 h -1.51735 l 0.085,-0.41304 c 0.047,-0.22738 0.36261,-1.55057 0.70111,-2.94041 0.3385,-1.38981 0.61555,-2.54917 0.61555,-2.57602 0,-0.15541 0.24446,-0.0123 0.29715,0.17391 0.1969,0.69595 1.33585,5.55589 1.33585,5.70018 0,0.0306 -0.68279,0.0554 -1.51735,0.0554 z"
       transform="translate(-1.0416666e-6,-1.1083333e-5)" />
    <path
       id="path2794"
       style="display:inline;fill:#140c06;stroke-width:0.999999"
       d="m 102.93187,520.29097 c 1.04816,0 1.13419,-0.0197 1.24614,-0.28623 0.0661,-0.15741 0.40045,-1.45962 0.74313,-2.89382 0.34267,-1.43421 0.97269,-4.05271 1.39963,-5.81922 l 0.77631,-3.21214 h 0.67571 0.67623 v -0.82659 -0.8271 h -2.19825 -2.19825 v 0.8271 0.82659 h 0.628 c 0.7361,0 0.74402,0.026 0.39619,1.27223 l -0.23077,0.82658 h -1.93118 -1.93118 l -0.21625,-0.69926 c -0.11914,-0.38479 -0.22033,-0.85727 -0.22454,-1.04967 -0.007,-0.33598 0.0169,-0.34988 0.62022,-0.34988 h 0.62851 v -0.82659 -0.8271 h -2.198248 -2.198767 v 0.82037 0.82038 l 0.651852,0.0383 0.651334,0.0383 1.456679,5.91497 c 0.80104,3.2532 1.50045,5.98644 1.55418,6.07389 0.0664,0.10802 0.4585,0.15889 1.22332,0.15889 z m -0.001,-2.28203 c -0.0239,0.002 -0.0517,-0.008 -0.0741,-0.031 -0.0688,-0.0696 -1.27836,-4.95763 -1.40275,-5.66861 l -0.0721,-0.41355 h 1.52358 c 1.02611,0 1.5241,0.046 1.5241,0.14027 0,0.17841 -1.40063,5.88371 -1.46187,5.95483 -0.009,0.0109 -0.0225,0.0168 -0.0368,0.0181 z"
       transform="translate(-1.0416666e-6,-1.1083333e-5)" />
  </g>
</svg>
