<?xml version="1.0" encoding="UTF-8" standalone="no"?>
<svg
   width="63.500004mm"
   height="88.899895mm"
   viewBox="142.0878 95.116776 63.500012 88.899887"
   version="1.1"
   id="svg10"
   sodipodi:docname="AD.svg"
   inkscape:version="1.1.1 (1:1.1+202109281949+c3084ef5ed)"
   inkscape:export-filename="/home/doug/k40/52Cards/IndividualColorCards/AD.png"
   inkscape:export-xdpi="300"
   inkscape:export-ydpi="300"
   xmlns:inkscape="http://www.inkscape.org/namespaces/inkscape"
   xmlns:sodipodi="http://sodipodi.sourceforge.net/DTD/sodipodi-0.dtd"
   xmlns="http://www.w3.org/2000/svg"
   xmlns:svg="http://www.w3.org/2000/svg">
  <defs
     id="defs14">
    <marker
       style="overflow:visible"
       id="marker2995"
       refX="0"
       refY="0"
       orient="auto"
       inkscape:stockid="Arrow1Lstart"
       inkscape:isstock="true">
      <path
         transform="matrix(0.8,0,0,0.8,10,0)"
         style="fill:#000000;fill-opacity:1;fill-rule:evenodd;stroke:#000000;stroke-width:1pt;stroke-opacity:1"
         d="M 0,0 5,-5 -12.5,0 5,5 Z"
         id="path2993" />
    </marker>
    <marker
       style="overflow:visible"
       id="marker2985"
       refX="0"
       refY="0"
       orient="auto"
       inkscape:stockid="Arrow1Lstart"
       inkscape:isstock="true">
      <path
         transform="matrix(0.8,0,0,0.8,10,0)"
         style="fill:#000000;fill-opacity:1;fill-rule:evenodd;stroke:#000000;stroke-width:1pt;stroke-opacity:1"
         d="M 0,0 5,-5 -12.5,0 5,5 Z"
         id="path2983" />
    </marker>
    <marker
       style="overflow:visible"
       id="marker2791"
       refX="0"
       refY="0"
       orient="auto"
       inkscape:stockid="Arrow1Lstart"
       inkscape:isstock="true">
      <path
         transform="matrix(0.8,0,0,0.8,10,0)"
         style="fill:#000000;fill-opacity:1;fill-rule:evenodd;stroke:#000000;stroke-width:1pt;stroke-opacity:1"
         d="M 0,0 5,-5 -12.5,0 5,5 Z"
         id="path2789" />
    </marker>
    <marker
       style="overflow:visible"
       id="marker2781"
       refX="0"
       refY="0"
       orient="auto"
       inkscape:stockid="Arrow1Lstart"
       inkscape:isstock="true">
      <path
         transform="matrix(0.8,0,0,0.8,10,0)"
         style="fill:#000000;fill-opacity:1;fill-rule:evenodd;stroke:#000000;stroke-width:1pt;stroke-opacity:1"
         d="M 0,0 5,-5 -12.5,0 5,5 Z"
         id="path2779" />
    </marker>
    <marker
       style="overflow:visible"
       id="marker2417"
       refX="0"
       refY="0"
       orient="auto"
       inkscape:stockid="Arrow1Lstart"
       inkscape:isstock="true">
      <path
         transform="matrix(0.8,0,0,0.8,10,0)"
         style="fill:#000000;fill-opacity:1;fill-rule:evenodd;stroke:#000000;stroke-width:1pt;stroke-opacity:1"
         d="M 0,0 5,-5 -12.5,0 5,5 Z"
         id="path2415" />
    </marker>
    <marker
       style="overflow:visible"
       id="marker2383"
       refX="0"
       refY="0"
       orient="auto"
       inkscape:stockid="Arrow1Lstart"
       inkscape:isstock="true">
      <path
         transform="matrix(0.8,0,0,0.8,10,0)"
         style="fill:#000000;fill-opacity:1;fill-rule:evenodd;stroke:#000000;stroke-width:1pt;stroke-opacity:1"
         d="M 0,0 5,-5 -12.5,0 5,5 Z"
         id="path2381" />
    </marker>
    <marker
       style="overflow:visible"
       id="marker2355"
       refX="0"
       refY="0"
       orient="auto"
       inkscape:stockid="Arrow1Lstart"
       inkscape:isstock="true">
      <path
         transform="matrix(0.8,0,0,0.8,10,0)"
         style="fill:#000000;fill-opacity:1;fill-rule:evenodd;stroke:#000000;stroke-width:1pt;stroke-opacity:1"
         d="M 0,0 5,-5 -12.5,0 5,5 Z"
         id="path2353" />
    </marker>
    <marker
       style="overflow:visible"
       id="Arrow1Lstart"
       refX="0"
       refY="0"
       orient="auto"
       inkscape:stockid="Arrow1Lstart"
       inkscape:isstock="true">
      <path
         transform="matrix(0.8,0,0,0.8,10,0)"
         style="fill:#000000;fill-opacity:1;fill-rule:evenodd;stroke:#000000;stroke-width:1pt;stroke-opacity:1"
         d="M 0,0 5,-5 -12.5,0 5,5 Z"
         id="path2071" />
    </marker>
  </defs>
  <sodipodi:namedview
     id="namedview12"
     pagecolor="#ffffff"
     bordercolor="#666666"
     borderopacity="1.0"
     inkscape:pageshadow="2"
     inkscape:pageopacity="0.0"
     inkscape:pagecheckerboard="0"
     inkscape:document-units="mm"
     showgrid="false"
     showborder="false"
     fit-margin-top="0"
     fit-margin-left="0"
     fit-margin-right="0"
     fit-margin-bottom="0"
     inkscape:zoom="1.2541666"
     inkscape:cx="120.00001"
     inkscape:cy="167.84054"
     inkscape:window-width="1366"
     inkscape:window-height="712"
     inkscape:window-x="0"
     inkscape:window-y="0"
     inkscape:window-maximized="1"
     inkscape:current-layer="layer6" />
  <g
     inkscape:groupmode="layer"
     id="layer1"
     inkscape:label="CardOutline"
     style="display:inline"
     transform="translate(94.217781,-340.71922)">
    <path
       id="path4-3"
       style="display:inline;fill:none;fill-rule:evenodd;stroke:#000000;stroke-width:0.25;stroke-miterlimit:4;stroke-dasharray:none;stroke-opacity:1"
       d="m 50.564743,435.96104 -0.534158,0.31687 c -0.688621,0.40844 -1.158412,0.85449 -1.590112,1.51001 l -0.346181,0.5258 -0.06384,25.43159 c -0.03506,13.98732 -0.046,32.74824 -0.02422,41.69094 0.03916,16.06607 0.04297,16.26663 0.30127,16.87005 h 2.54e-4 c 0.321831,0.75178 1.375871,1.69211 2.308962,2.06009 0.662802,0.26139 0.718825,0.26193 29.335815,0.23047 27.968057,-0.0307 28.683467,-0.0377 29.150357,-0.27706 0.72044,-0.36932 1.35524,-0.98173 1.76901,-1.70664 l 0.37116,-0.65029 9.8e-4,-41.53137 9.8e-4,-41.53137 -0.30833,-0.61121 c -0.3634,-0.72062 -1.20695,-1.59056 -1.92217,-1.98245 l -0.50968,-0.27931 -28.969947,-0.0331 z m 0.134234,0.49272 57.679013,0.0666 0.38933,0.21242 0.11632,0.0681 0.12061,0.0774 0.13902,0.0985 0.11304,0.0864 0.12364,0.1017 0.13751,0.12124 0.11153,0.10621 0.13145,0.13177 0.10774,0.11773 0.12692,0.13477 0.0918,0.11748 0.10345,0.13201 0.0951,0.13352 0.0785,0.11974 0.0739,0.12124 0.0603,0.11222 0.25661,0.50651 -0.003,82.81198 -0.30631,0.53682 -0.13726,0.22444 -0.18268,0.24876 -0.16754,0.20014 -0.19757,0.20466 -0.19327,0.17285 -0.23542,0.18336 -0.22481,0.1503 -0.2233,0.12574 -0.0212,0.0108 -0.0149,0.006 -0.0394,0.012 -0.027,0.006 -0.0507,0.01 -0.0277,0.004 -0.0606,0.008 -0.0573,0.008 -0.0679,0.006 -0.083,0.0105 -0.0868,0.004 -0.0913,0.006 -0.10698,0.007 -0.25056,0.012 -0.3048,0.0108 -0.3545,0.0105 -0.41809,0.009 -0.47538,0.009 -0.54929,0.008 -0.96108,0.0105 -1.14073,0.0108 -3.46459,0.0165 -34.84847,0.0471 -6.84314,-0.003 -1.74276,-0.004 -1.260078,-0.006 -1.065289,-0.008 -0.60506,-0.006 -0.534158,-0.008 -0.467798,-0.009 -0.401438,-0.009 -0.339623,-0.009 -0.289659,-0.012 -0.126666,-0.006 -0.11632,-0.006 -0.106979,-0.006 -0.08302,-0.006 -0.08302,-0.008 -0.07998,-0.006 -0.0545,-0.007 -0.10093,-0.0135 -0.09967,-0.0183 -0.03911,-0.009 -0.04844,-0.0138 -0.0376,-0.0135 -0.04692,-0.0183 -0.167539,-0.0726 -0.143315,-0.0699 -0.177886,-0.0985 -0.140542,-0.0864 -0.159971,-0.10773 -0.155176,-0.11372 -0.152651,-0.12124 -0.161231,-0.13803 -0.123887,-0.11372 -0.144835,-0.14729 -0.11026,-0.11974 -0.119098,-0.14253 -0.08604,-0.11374 -0.09361,-0.13951 -0.06485,-0.11098 -0.05601,-0.11974 -0.027,-0.0669 -0.03481,-0.10621 -0.0061,-0.027 -0.01211,-0.0669 -0.01338,-0.0939 -0.01514,-0.12124 -0.0044,-0.0531 -0.01362,-0.15632 -0.0099,-0.16206 -0.01133,-0.21243 -0.01059,-0.23947 -0.0088,-0.27305 -0.0091,-0.31236 -0.0076,-0.3532 -0.01059,-0.61573 -0.0091,-0.72319 -0.0106,-1.15404 -0.0106,-1.77404 -0.01641,-4.27149 -0.01968,-8.14897 -0.0061,-8.546 0.0015,-6.72963 0.0044,-7.16476 0.0091,-7.2692 0.01943,-9.71082 0.0651,-25.28355 0.257868,-0.39253 0.152402,-0.21993 0.166025,-0.21393 0.147862,-0.16834 0.169052,-0.17133 0.185708,-0.16508 0.168798,-0.13202 0.229612,-0.16082 0.227845,-0.14253 z"
       inkscape:export-filename="/home/doug/k40/52Cards/IndividualColorCards/2D.png"
       inkscape:export-xdpi="300"
       inkscape:export-ydpi="300" />
  </g>
  <g
     inkscape:groupmode="layer"
     id="layer2"
     inkscape:label="InnerRectangle"
     style="display:inline"
     transform="translate(94.217781,-340.71922)">
    <path
       id="path2-6"
       style="display:inline;fill:none;fill-rule:evenodd;stroke:#4c71a5;stroke-width:0.262609;stroke-opacity:1"
       d="m 63.13524,452.67467 0.0441,14.05596 c 0.0243,7.7307 0.0504,20.15551 0.0578,27.61093 l 0.0134,13.55547 16.409043,-0.0521 16.40903,-0.0519 0.0305,-24.32539 c 0.0169,-13.37898 -0.004,-25.78048 -0.0462,-27.55907 l -0.077,-3.23394 h -16.42035 z m 16.503153,0.25626 h 16.11155 l 0.005,0.73622 c 0.003,0.40503 0.0367,12.68075 0.0757,27.27927 l 0.0709,26.54279 -3.16634,0.004 c -1.74158,0.002 -8.99902,0.0153 -16.12745,0.0285 -7.12842,0.0133 -12.991523,-0.007 -13.029223,-0.0446 -0.0728,-0.0731 -0.16665,-54.20072 -0.0944,-54.4185 0.028,-0.0844 5.532343,-0.128 16.154193,-0.128 z"
       inkscape:export-filename="/home/doug/k40/52Cards/IndividualColorCards/2D.png"
       inkscape:export-xdpi="300"
       inkscape:export-ydpi="300" />
  </g>
  <g
     inkscape:groupmode="layer"
     id="layer5"
     inkscape:label="InnerSuit"
     style="display:inline"
     transform="translate(94.217781,-340.71922)">
    <path
       style="fill:#e40d1a;stroke-width:1"
       d="m 92.646669,453.05506 c 0,-0.0349 0.0282,-0.0635 0.06266,-0.0635 0.03446,0 0.06266,0.0286 0.06266,0.0635 0,0.0349 -0.0282,0.0635 -0.06266,0.0635 -0.03446,0 -0.06266,-0.0286 -0.06266,-0.0635 z"
       id="path2766" />
    <path
       style="fill:#e40d1a;stroke-width:1"
       d="m 79.284606,484.57778 c -0.513264,-1.02845 -1.610187,-2.64407 -2.381593,-3.50777 l -0.69763,-0.7811 0.723994,-0.79197 c 0.77115,-0.84355 1.630481,-2.10649 2.245076,-3.29953 0.206782,-0.4014 0.41333,-0.72996 0.458992,-0.73013 0.04566,-1.2e-4 0.349484,0.47112 0.675155,1.04729 0.763444,1.35066 1.327275,2.14165 2.175266,3.05167 l 0.684247,0.73429 -0.633816,0.66249 c -0.762752,0.79725 -1.868686,2.39983 -2.406894,3.48778 -0.215932,0.43649 -0.41904,0.79362 -0.451351,0.79362 -0.03231,0 -0.208461,-0.29999 -0.391446,-0.66664 z"
       id="path2758" />
  </g>
  <g
     inkscape:groupmode="layer"
     id="layer6"
     inkscape:label="OuterSuit"
     style="display:inline"
     transform="translate(94.217781,-340.71922)">
    <path
       style="display:inline;fill:#e40d1a;stroke-width:1"
       d="m 55.933616,470.35605 c -1.169653,-2.17262 -2.321818,-3.81419 -3.598426,-5.12692 l -0.812158,-0.83514 0.860996,-0.90773 c 1.332069,-1.40436 2.415103,-2.95386 3.49617,-5.00197 0.267014,-0.50587 0.515908,-0.92013 0.553099,-0.9206 0.03719,-5.1e-4 0.285629,0.41342 0.552083,0.91975 1.074656,2.04212 2.234369,3.67838 3.690208,5.20657 l 0.695946,0.73054 -0.881581,0.9202 c -1.404518,1.46605 -2.257103,2.66708 -3.428685,4.82999 -0.291643,0.53841 -0.568542,0.97893 -0.615329,0.97893 -0.04678,0 -0.277333,-0.35713 -0.512323,-0.79362 z"
       id="path2760"
       transform="translate(-1.0416666e-6,-1.1083333e-5)" />
    <path
       style="display:inline;fill:#e40d1a;stroke-width:1"
       d="m 102.0054,501.7723 c -0.81409,-1.53896 -2.00312,-3.20837 -3.203694,-4.49803 l -0.800386,-0.85979 0.6797,-0.72805 c 1.266069,-1.35614 2.57763,-3.26682 3.43769,-5.00806 0.69507,-1.4072 0.63197,-1.40383 1.3632,-0.0728 1.22085,2.22233 2.30809,3.76693 3.6229,5.14687 l 0.63563,0.66711 -0.82544,0.85664 c -1.26634,1.31421 -2.44936,2.98933 -3.54189,5.01523 -0.25422,0.47142 -0.50215,0.85712 -0.55095,0.85712 -0.0488,0 -0.41634,-0.61932 -0.81676,-1.37627 z"
       id="path2756"
       transform="translate(-1.0416666e-6,-1.1083333e-5)" />
  </g>
  <g
     inkscape:groupmode="layer"
     id="layer3"
     inkscape:label="CardName"
     style="display:inline"
     transform="translate(94.217781,-340.71922)">
    <path
       id="path2762"
       style="display:inline;fill:#e40d1a;stroke-width:1"
       d="m 56.414203,440.28121 c -0.630839,-0.005 -1.261401,0.0511 -1.305447,0.17102 -0.07851,0.21377 -1.570351,6.35944 -2.196313,9.04762 -0.803634,3.45116 -0.654319,3.11094 -1.363073,3.11094 -0.43915,0 -0.629434,0.0555 -0.684339,0.20047 -0.103976,0.27454 -0.0964,1.38725 0.01021,1.49528 0.04749,0.0479 1.076644,0.0717 2.287084,0.0527 l 2.200903,-0.0346 v -0.82514 -0.82514 l -0.653745,-0.0382 -0.653233,-0.0382 0.07955,-0.40611 c 0.04384,-0.22342 0.143981,-0.66381 0.222845,-0.97808 l 0.143803,-0.57093 h 1.926044 1.926556 l 0.219273,0.88146 c 0.120801,0.48499 0.191882,0.92798 0.157573,0.98427 -0.03432,0.0563 -0.31296,0.10231 -0.619067,0.10231 H 57.55648 v 0.89179 0.89179 l 2.224359,-0.0346 2.22436,-0.0351 0.03723,-0.85666 0.03672,-0.85717 h -0.692498 c -0.615553,0 -0.699772,-0.0318 -0.757262,-0.28573 -0.230166,-1.01662 -2.852728,-11.70998 -2.907171,-11.85371 -0.04566,-0.12058 -0.677159,-0.18558 -1.307995,-0.19014 z m 0,2.55189 c 0.101381,0 1.392646,5.2755 1.392646,5.6897 0,0.26937 -0.04366,0.27849 -1.357461,0.27849 -0.746716,0 -1.389746,-0.0327 -1.428852,-0.0723 -0.03911,-0.0396 -0.02525,-0.2536 0.03111,-0.47587 0.05635,-0.22227 0.366402,-1.5327 0.688928,-2.91202 0.322524,-1.37932 0.625673,-2.50797 0.673632,-2.50797 z"
       transform="translate(-1.0416666e-6,-1.1083333e-5)" />
    <path
       id="path2568"
       style="display:inline;fill:#e40d1a;stroke-width:1"
       d="m 97.283372,506.32297 v 0.88921 0.88869 h 0.678731 0.67873 l 1.480867,6.09478 1.48087,6.0953 h 1.26516 1.26516 l 0.53799,-2.25377 c 1.3688,-5.73367 2.27783,-9.51053 2.33654,-9.70794 0.0476,-0.15997 0.23306,-0.22539 0.71596,-0.25369 l 0.65119,-0.0382 0.0372,-0.85717 0.0372,-0.85718 h -2.26158 -2.26158 v 0.88921 0.88869 h 0.64099 c 0.60351,0 0.6372,0.0168 0.56705,0.28573 -0.041,0.15713 -0.14143,0.58559 -0.22284,0.95224 l -0.14788,0.66652 h -1.90718 -1.90769 l -0.20295,-0.81945 c -0.11178,-0.45085 -0.20347,-0.87926 -0.20347,-0.95225 0,-0.0745 0.27473,-0.13279 0.62672,-0.13279 h 0.62671 v -0.88869 -0.88921 h -2.255973 z m 5.577218,5.4603 c 0.79267,0 1.44109,0.0244 1.44109,0.0542 0,0.0298 -0.30761,1.35114 -0.68383,2.93631 -0.37621,1.58518 -0.71337,2.91147 -0.7491,2.94767 -0.0357,0.0362 -0.0937,-0.0138 -0.12851,-0.11109 -0.13927,-0.389 -1.32074,-5.55418 -1.32074,-5.77392 0,-0.0293 0.64842,-0.0532 1.44109,-0.0532 z"
       transform="translate(-1.0416666e-6,-1.1083333e-5)" />
  </g>
</svg>
