<?xml version="1.0" encoding="UTF-8" standalone="no"?>
<svg
   width="63.500004mm"
   height="88.899895mm"
   viewBox="142.0878 95.116776 63.500012 88.899887"
   version="1.1"
   id="svg10"
   sodipodi:docname="AH.svg"
   inkscape:version="1.1.1 (1:1.1+202109281949+c3084ef5ed)"
   inkscape:export-filename="/home/doug/k40/52Cards/IndividualColorCards/AH.png"
   inkscape:export-xdpi="300"
   inkscape:export-ydpi="300"
   xmlns:inkscape="http://www.inkscape.org/namespaces/inkscape"
   xmlns:sodipodi="http://sodipodi.sourceforge.net/DTD/sodipodi-0.dtd"
   xmlns="http://www.w3.org/2000/svg"
   xmlns:svg="http://www.w3.org/2000/svg">
  <defs
     id="defs14">
    <marker
       style="overflow:visible"
       id="marker2995"
       refX="0"
       refY="0"
       orient="auto"
       inkscape:stockid="Arrow1Lstart"
       inkscape:isstock="true">
      <path
         transform="matrix(0.8,0,0,0.8,10,0)"
         style="fill:#000000;fill-opacity:1;fill-rule:evenodd;stroke:#000000;stroke-width:1pt;stroke-opacity:1"
         d="M 0,0 5,-5 -12.5,0 5,5 Z"
         id="path2993" />
    </marker>
    <marker
       style="overflow:visible"
       id="marker2985"
       refX="0"
       refY="0"
       orient="auto"
       inkscape:stockid="Arrow1Lstart"
       inkscape:isstock="true">
      <path
         transform="matrix(0.8,0,0,0.8,10,0)"
         style="fill:#000000;fill-opacity:1;fill-rule:evenodd;stroke:#000000;stroke-width:1pt;stroke-opacity:1"
         d="M 0,0 5,-5 -12.5,0 5,5 Z"
         id="path2983" />
    </marker>
    <marker
       style="overflow:visible"
       id="marker2791"
       refX="0"
       refY="0"
       orient="auto"
       inkscape:stockid="Arrow1Lstart"
       inkscape:isstock="true">
      <path
         transform="matrix(0.8,0,0,0.8,10,0)"
         style="fill:#000000;fill-opacity:1;fill-rule:evenodd;stroke:#000000;stroke-width:1pt;stroke-opacity:1"
         d="M 0,0 5,-5 -12.5,0 5,5 Z"
         id="path2789" />
    </marker>
    <marker
       style="overflow:visible"
       id="marker2781"
       refX="0"
       refY="0"
       orient="auto"
       inkscape:stockid="Arrow1Lstart"
       inkscape:isstock="true">
      <path
         transform="matrix(0.8,0,0,0.8,10,0)"
         style="fill:#000000;fill-opacity:1;fill-rule:evenodd;stroke:#000000;stroke-width:1pt;stroke-opacity:1"
         d="M 0,0 5,-5 -12.5,0 5,5 Z"
         id="path2779" />
    </marker>
    <marker
       style="overflow:visible"
       id="marker2417"
       refX="0"
       refY="0"
       orient="auto"
       inkscape:stockid="Arrow1Lstart"
       inkscape:isstock="true">
      <path
         transform="matrix(0.8,0,0,0.8,10,0)"
         style="fill:#000000;fill-opacity:1;fill-rule:evenodd;stroke:#000000;stroke-width:1pt;stroke-opacity:1"
         d="M 0,0 5,-5 -12.5,0 5,5 Z"
         id="path2415" />
    </marker>
    <marker
       style="overflow:visible"
       id="marker2383"
       refX="0"
       refY="0"
       orient="auto"
       inkscape:stockid="Arrow1Lstart"
       inkscape:isstock="true">
      <path
         transform="matrix(0.8,0,0,0.8,10,0)"
         style="fill:#000000;fill-opacity:1;fill-rule:evenodd;stroke:#000000;stroke-width:1pt;stroke-opacity:1"
         d="M 0,0 5,-5 -12.5,0 5,5 Z"
         id="path2381" />
    </marker>
    <marker
       style="overflow:visible"
       id="marker2355"
       refX="0"
       refY="0"
       orient="auto"
       inkscape:stockid="Arrow1Lstart"
       inkscape:isstock="true">
      <path
         transform="matrix(0.8,0,0,0.8,10,0)"
         style="fill:#000000;fill-opacity:1;fill-rule:evenodd;stroke:#000000;stroke-width:1pt;stroke-opacity:1"
         d="M 0,0 5,-5 -12.5,0 5,5 Z"
         id="path2353" />
    </marker>
    <marker
       style="overflow:visible"
       id="Arrow1Lstart"
       refX="0"
       refY="0"
       orient="auto"
       inkscape:stockid="Arrow1Lstart"
       inkscape:isstock="true">
      <path
         transform="matrix(0.8,0,0,0.8,10,0)"
         style="fill:#000000;fill-opacity:1;fill-rule:evenodd;stroke:#000000;stroke-width:1pt;stroke-opacity:1"
         d="M 0,0 5,-5 -12.5,0 5,5 Z"
         id="path2071" />
    </marker>
  </defs>
  <sodipodi:namedview
     id="namedview12"
     pagecolor="#ffffff"
     bordercolor="#666666"
     borderopacity="1.0"
     inkscape:pageshadow="2"
     inkscape:pageopacity="0.0"
     inkscape:pagecheckerboard="0"
     inkscape:document-units="mm"
     showgrid="false"
     showborder="false"
     fit-margin-top="0"
     fit-margin-left="0"
     fit-margin-right="0"
     fit-margin-bottom="0"
     inkscape:zoom="1.2541666"
     inkscape:cx="120.00001"
     inkscape:cy="167.84054"
     inkscape:window-width="1366"
     inkscape:window-height="712"
     inkscape:window-x="0"
     inkscape:window-y="0"
     inkscape:window-maximized="1"
     inkscape:current-layer="layer5" />
  <g
     inkscape:groupmode="layer"
     id="layer1"
     inkscape:label="CardOutline"
     style="display:inline"
     transform="translate(94.217781,-340.71922)">
    <path
       id="path4-3"
       style="display:inline;fill:none;fill-rule:evenodd;stroke:#000000;stroke-width:0.25;stroke-miterlimit:4;stroke-dasharray:none;stroke-opacity:1"
       d="m 50.564743,435.96104 -0.534158,0.31687 c -0.688621,0.40844 -1.158412,0.85449 -1.590112,1.51001 l -0.346181,0.5258 -0.06384,25.43159 c -0.03506,13.98732 -0.046,32.74824 -0.02422,41.69094 0.03916,16.06607 0.04297,16.26663 0.30127,16.87005 h 2.54e-4 c 0.321831,0.75178 1.375871,1.69211 2.308962,2.06009 0.662802,0.26139 0.718825,0.26193 29.335815,0.23047 27.968057,-0.0307 28.683467,-0.0377 29.150357,-0.27706 0.72044,-0.36932 1.35524,-0.98173 1.76901,-1.70664 l 0.37116,-0.65029 9.8e-4,-41.53137 9.8e-4,-41.53137 -0.30833,-0.61121 c -0.3634,-0.72062 -1.20695,-1.59056 -1.92217,-1.98245 l -0.50968,-0.27931 -28.969947,-0.0331 z m 0.134234,0.49272 57.679013,0.0666 0.38933,0.21242 0.11632,0.0681 0.12061,0.0774 0.13902,0.0985 0.11304,0.0864 0.12364,0.1017 0.13751,0.12124 0.11153,0.10621 0.13145,0.13177 0.10774,0.11773 0.12692,0.13477 0.0918,0.11748 0.10345,0.13201 0.0951,0.13352 0.0785,0.11974 0.0739,0.12124 0.0603,0.11222 0.25661,0.50651 -0.003,82.81198 -0.30631,0.53682 -0.13726,0.22444 -0.18268,0.24876 -0.16754,0.20014 -0.19757,0.20466 -0.19327,0.17285 -0.23542,0.18336 -0.22481,0.1503 -0.2233,0.12574 -0.0212,0.0108 -0.0149,0.006 -0.0394,0.012 -0.027,0.006 -0.0507,0.01 -0.0277,0.004 -0.0606,0.008 -0.0573,0.008 -0.0679,0.006 -0.083,0.0105 -0.0868,0.004 -0.0913,0.006 -0.10698,0.007 -0.25056,0.012 -0.3048,0.0108 -0.3545,0.0105 -0.41809,0.009 -0.47538,0.009 -0.54929,0.008 -0.96108,0.0105 -1.14073,0.0108 -3.46459,0.0165 -34.84847,0.0471 -6.84314,-0.003 -1.74276,-0.004 -1.260078,-0.006 -1.065289,-0.008 -0.60506,-0.006 -0.534158,-0.008 -0.467798,-0.009 -0.401438,-0.009 -0.339623,-0.009 -0.289659,-0.012 -0.126666,-0.006 -0.11632,-0.006 -0.106979,-0.006 -0.08302,-0.006 -0.08302,-0.008 -0.07998,-0.006 -0.0545,-0.007 -0.10093,-0.0135 -0.09967,-0.0183 -0.03911,-0.009 -0.04844,-0.0138 -0.0376,-0.0135 -0.04692,-0.0183 -0.167539,-0.0726 -0.143315,-0.0699 -0.177886,-0.0985 -0.140542,-0.0864 -0.159971,-0.10773 -0.155176,-0.11372 -0.152651,-0.12124 -0.161231,-0.13803 -0.123887,-0.11372 -0.144835,-0.14729 -0.11026,-0.11974 -0.119098,-0.14253 -0.08604,-0.11374 -0.09361,-0.13951 -0.06485,-0.11098 -0.05601,-0.11974 -0.027,-0.0669 -0.03481,-0.10621 -0.0061,-0.027 -0.01211,-0.0669 -0.01338,-0.0939 -0.01514,-0.12124 -0.0044,-0.0531 -0.01362,-0.15632 -0.0099,-0.16206 -0.01133,-0.21243 -0.01059,-0.23947 -0.0088,-0.27305 -0.0091,-0.31236 -0.0076,-0.3532 -0.01059,-0.61573 -0.0091,-0.72319 -0.0106,-1.15404 -0.0106,-1.77404 -0.01641,-4.27149 -0.01968,-8.14897 -0.0061,-8.546 0.0015,-6.72963 0.0044,-7.16476 0.0091,-7.2692 0.01943,-9.71082 0.0651,-25.28355 0.257868,-0.39253 0.152402,-0.21993 0.166025,-0.21393 0.147862,-0.16834 0.169052,-0.17133 0.185708,-0.16508 0.168798,-0.13202 0.229612,-0.16082 0.227845,-0.14253 z"
       inkscape:export-filename="/home/doug/k40/52Cards/IndividualColorCards/2D.png"
       inkscape:export-xdpi="300"
       inkscape:export-ydpi="300" />
  </g>
  <g
     inkscape:groupmode="layer"
     id="layer2"
     inkscape:label="InnerRectangle"
     style="display:inline"
     transform="translate(94.217781,-340.71922)">
    <path
       id="path2-6"
       style="display:inline;fill:none;fill-rule:evenodd;stroke:#4c71a5;stroke-width:0.262609;stroke-opacity:1"
       d="m 63.13524,452.67467 0.0441,14.05596 c 0.0243,7.7307 0.0504,20.15551 0.0578,27.61093 l 0.0134,13.55547 16.409043,-0.0521 16.40903,-0.0519 0.0305,-24.32539 c 0.0169,-13.37898 -0.004,-25.78048 -0.0462,-27.55907 l -0.077,-3.23394 h -16.42035 z m 16.503153,0.25626 h 16.11155 l 0.005,0.73622 c 0.003,0.40503 0.0367,12.68075 0.0757,27.27927 l 0.0709,26.54279 -3.16634,0.004 c -1.74158,0.002 -8.99902,0.0153 -16.12745,0.0285 -7.12842,0.0133 -12.991523,-0.007 -13.029223,-0.0446 -0.0728,-0.0731 -0.16665,-54.20072 -0.0944,-54.4185 0.028,-0.0844 5.532343,-0.128 16.154193,-0.128 z"
       inkscape:export-filename="/home/doug/k40/52Cards/IndividualColorCards/2D.png"
       inkscape:export-xdpi="300"
       inkscape:export-ydpi="300" />
  </g>
  <g
     inkscape:groupmode="layer"
     id="layer5"
     inkscape:label="InnerSuit"
     style="display:inline"
     transform="translate(94.217781,-340.71922)">
    <path
       style="fill:#e3101c;stroke-width:1"
       d="m 95.908147,473.74542 c 0,-0.0349 0.02876,-0.0635 0.06391,-0.0635 0.03515,0 0.0639,0.0286 0.0639,0.0635 0,0.0349 -0.02876,0.0635 -0.0639,0.0635 -0.03514,0 -0.06391,-0.0286 -0.06391,-0.0635 z"
       id="path2812" />
    <path
       style="fill:#e3101c;stroke-width:1"
       d="m 78.790197,483.32764 c -1.809787,-2.88924 -2.697799,-5.02819 -2.507026,-6.03865 0.103957,-0.55062 0.751749,-1.26313 1.264716,-1.39106 0.812428,-0.20262 1.582185,0.20005 1.936596,1.01304 l 0.161973,0.37155 0.202013,-0.38817 c 0.111107,-0.2135 0.388388,-0.54401 0.61618,-0.73447 0.361985,-0.30265 0.494967,-0.33857 1.055449,-0.28506 0.542607,0.0518 0.703704,0.13299 1.04695,0.52755 0.970003,1.11501 0.487668,2.81809 -1.918139,6.7728 -0.478042,0.78581 -0.91194,1.42875 -0.964218,1.42875 -0.05228,0 -0.454801,-0.57432 -0.894494,-1.27628 z"
       id="path2810" />
    <path
       style="fill:#e3101c;stroke-width:1"
       d="m 96.035958,495.84342 c 0,-0.0349 0.02876,-0.0635 0.06391,-0.0635 0.03514,0 0.06391,0.0286 0.06391,0.0635 0,0.0349 -0.02876,0.0635 -0.06391,0.0635 -0.03515,0 -0.06391,-0.0286 -0.06391,-0.0635 z"
       id="path2808" />
    <path
       style="fill:#e3101c;stroke-width:1"
       d="m 96.035958,496.22442 c 0,-0.0349 0.02876,-0.0635 0.06391,-0.0635 0.03514,0 0.06391,0.0286 0.06391,0.0635 0,0.0349 -0.02876,0.0635 -0.06391,0.0635 -0.03515,0 -0.06391,-0.0286 -0.06391,-0.0635 z"
       id="path2806" />
    <path
       style="fill:#e3101c;stroke-width:1"
       d="m 96.035958,497.04992 c 0,-0.0931 0.03834,-0.13123 0.08521,-0.0847 0.04687,0.0466 0.04687,0.12277 0,0.16934 -0.04687,0.0466 -0.08521,0.008 -0.08521,-0.0847 z"
       id="path2804" />
    <path
       style="fill:#e3101c;stroke-width:1"
       d="m 95.972053,498.06592 c -0.04345,-0.0698 -0.01808,-0.127 0.05636,-0.127 0.07444,0 0.135353,0.0571 0.135353,0.127 0,0.0699 -0.02536,0.127 -0.05636,0.127 -0.031,0 -0.09191,-0.0571 -0.135353,-0.127 z"
       id="path2802" />
    <path
       style="fill:#e3101c;stroke-width:1"
       d="m 95.908147,498.76442 c 0,-0.0349 0.02876,-0.0635 0.06391,-0.0635 0.03515,0 0.0639,0.0286 0.0639,0.0635 0,0.0349 -0.02876,0.0635 -0.0639,0.0635 -0.03514,0 -0.06391,-0.0286 -0.06391,-0.0635 z"
       id="path2800" />
    <path
       style="fill:#e3101c;stroke-width:1"
       d="m 96.035958,502.70142 c 0,-0.0349 0.02876,-0.0635 0.06391,-0.0635 0.03514,0 0.06391,0.0286 0.06391,0.0635 0,0.0349 -0.02876,0.0635 -0.06391,0.0635 -0.03515,0 -0.06391,-0.0286 -0.06391,-0.0635 z"
       id="path2798" />
    <path
       style="fill:#e3101c;stroke-width:1"
       d="m 96.035958,504.22542 c 0,-0.0349 0.02876,-0.0635 0.06391,-0.0635 0.03514,0 0.06391,0.0286 0.06391,0.0635 0,0.0349 -0.02876,0.0635 -0.06391,0.0635 -0.03515,0 -0.06391,-0.0286 -0.06391,-0.0635 z"
       id="path2794" />
    <path
       style="fill:#e3101c;stroke-width:1"
       d="m 96.035958,504.98742 c 0,-0.0349 0.02876,-0.0635 0.06391,-0.0635 0.03514,0 0.06391,0.0286 0.06391,0.0635 0,0.0349 -0.02876,0.0635 -0.06391,0.0635 -0.03515,0 -0.06391,-0.0286 -0.06391,-0.0635 z"
       id="path2792" />
    <path
       style="fill:#e3101c;stroke-width:1"
       d="m 95.908147,506.00342 c 0,-0.0349 0.02876,-0.0635 0.06391,-0.0635 0.03515,0 0.0639,0.0286 0.0639,0.0635 0,0.0349 -0.02876,0.0635 -0.0639,0.0635 -0.03514,0 -0.06391,-0.0286 -0.06391,-0.0635 z"
       id="path2790" />
    <path
       style="fill:#e3101c;stroke-width:1"
       d="m 96.035958,506.76542 c 0,-0.0349 0.02876,-0.0635 0.06391,-0.0635 0.03514,0 0.06391,0.0286 0.06391,0.0635 0,0.0349 -0.02876,0.0635 -0.06391,0.0635 -0.03515,0 -0.06391,-0.0286 -0.06391,-0.0635 z"
       id="path2788" />
  </g>
  <g
     inkscape:groupmode="layer"
     id="layer6"
     inkscape:label="OuterSuit"
     style="display:inline"
     transform="translate(94.217781,-340.71922)">
    <path
       style="display:inline;fill:#e3101c;stroke-width:1"
       d="m 55.099777,466.98267 c -2.173787,-3.6501 -2.95277,-5.37954 -3.11684,-6.91978 -0.186344,-1.74933 0.990066,-2.9495 2.671447,-2.72541 0.711057,0.0948 1.120504,0.42023 1.530576,1.21665 l 0.345361,0.67073 0.203934,-0.48499 c 0.56074,-1.33353 1.966647,-1.84242 3.185688,-1.15311 1.58063,0.89377 1.417595,3.22525 -0.469479,6.7138 -1.046639,1.93487 -2.821789,4.9271 -2.926093,4.93228 -0.04515,0.002 -0.686217,-1.01033 -1.424594,-2.25017 z"
       id="path2814"
       transform="translate(-1.0416666e-6,-1.1083333e-5)" />
    <path
       style="display:inline;fill:#e3101c;stroke-width:1"
       d="m 99.826198,503.21467 c -0.995057,-0.35254 -1.489654,-1.12576 -1.489654,-2.32882 0,-1.44303 0.90041,-3.6296 2.837936,-6.89168 0.59904,-1.00857 1.18849,-2.02659 1.30989,-2.26229 0.18296,-0.35523 0.24791,-0.39868 0.37966,-0.254 0.32092,0.35244 2.77861,4.56525 3.2625,5.59235 1.53584,3.26003 1.53946,5.07729 0.0118,5.93044 -1.18029,0.65915 -2.53035,0.23103 -3.0893,-0.97965 l -0.28796,-0.62371 -0.27699,0.58855 c -0.33101,0.70333 -0.64181,0.99847 -1.29529,1.23006 -0.60812,0.21551 -0.75116,0.21537 -1.362592,-10e-4 z"
       id="path2796"
       transform="translate(-1.0416666e-6,-1.1083333e-5)" />
  </g>
  <g
     inkscape:groupmode="layer"
     id="layer3"
     inkscape:label="CardName"
     style="display:inline"
     transform="translate(94.217781,-340.71922)">
    <path
       id="path2600"
       style="display:inline;fill:#e3101c;stroke-width:1"
       d="m 108.43362,506.31508 -2.26851,0.0346 -2.26903,0.0346 v 0.88884 0.88935 l 0.67764,0.0382 c 0.56688,0.0323 0.66699,0.074 0.61419,0.25425 -0.0347,0.11846 -0.15518,0.53924 -0.26783,0.93482 l -0.2049,0.71934 -0.74213,0.0424 c -0.4082,0.0234 -1.26652,0.0245 -1.90759,0.002 l -1.16545,-0.0408 -0.13262,-0.46716 c -0.0729,-0.25703 -0.16778,-0.67809 -0.21063,-0.93586 l -0.0775,-0.4687 0.62199,-0.0393 0.62199,-0.0393 v -0.88935 -0.88884 l -2.268506,-0.0269 -2.268509,-0.0264 v 0.94051 0.94103 l 0.663599,0.0382 0.663598,0.0388 1.422369,5.65133 c 0.782369,3.10832 1.462799,5.80858 1.511819,6.00067 l 0.0889,0.34933 h 1.26583 1.26583 l 0.13106,-0.41289 c 0.0721,-0.22702 0.74517,-2.89864 1.49569,-5.93711 0.75053,-3.03848 1.41055,-5.57441 1.46658,-5.63531 0.056,-0.0609 0.35053,-0.1386 0.65476,-0.1726 0.30422,-0.034 0.56243,-0.0696 0.57362,-0.0796 0.0311,-0.0274 0.0701,-0.98935 0.0562,-1.38648 z m -5.62395,5.59397 c 1.03831,0 1.40662,0.0414 1.40833,0.15865 10e-4,0.0873 -0.29721,1.40151 -0.66308,2.92075 -0.36587,1.51923 -0.70532,2.76262 -0.75461,2.76262 -0.0493,0 -0.21422,-0.52901 -0.36664,-1.17512 -0.15242,-0.64612 -0.44627,-1.87314 -0.6532,-2.72696 -0.20693,-0.85384 -0.37652,-1.63954 -0.37652,-1.74615 0,-0.16203 0.23048,-0.19379 1.40572,-0.19379 z"
       transform="translate(-1.0416666e-6,-1.1083333e-5)" />
    <path
       id="path2816"
       style="display:inline;fill:#e3101c;stroke-width:1"
       d="m 55.199586,440.28087 -1.533142,6.06423 -1.533143,6.06422 -0.671399,0.0383 -0.670879,0.0387 v 0.88212 0.88263 h 2.300751 2.300235 v -0.88935 -0.88883 h -0.638636 c -0.351478,0 -0.639816,-0.0427 -0.640716,-0.0951 -7.99e-4,-0.0524 0.09559,-0.50955 0.214785,-1.01596 l 0.216865,-0.92087 h 1.94243 1.941911 l 0.206986,0.81959 c 0.307048,1.21415 0.308076,1.21233 -0.431653,1.21233 h -0.639156 v 0.88883 0.88935 h 2.300755 2.300751 v -0.88263 -0.88212 l -0.663599,-0.0387 -0.663078,-0.0383 -1.526902,-6.06422 -1.5269,-6.06423 h -1.293393 z m 1.301713,2.58433 c 0.03737,-2.3e-4 0.07253,0.12252 0.147179,0.39998 0.352749,1.31121 1.300154,5.14827 1.300154,5.26583 0,0.0838 -0.537549,0.13177 -1.470216,0.13177 -0.8084,0 -1.469694,-0.0233 -1.469694,-0.0522 0,-0.14576 1.277297,-5.26258 1.381806,-5.53558 0.05163,-0.13488 0.08171,-0.20962 0.110771,-0.20981 z"
       transform="translate(-1.0416666e-6,-1.1083333e-5)" />
  </g>
</svg>
