<?xml version="1.0" encoding="UTF-8" standalone="no"?>
<svg
   width="2.5000203in"
   height="3.499995in"
   viewBox="150.45703 106.44563 63.50052 88.899867"
   version="1.1"
   id="svg28"
   sodipodi:docname="AS.svg"
   inkscape:version="1.1.1 (1:1.1+202109281949+c3084ef5ed)"
   xmlns:inkscape="http://www.inkscape.org/namespaces/inkscape"
   xmlns:sodipodi="http://sodipodi.sourceforge.net/DTD/sodipodi-0.dtd"
   xmlns="http://www.w3.org/2000/svg"
   xmlns:svg="http://www.w3.org/2000/svg">
  <defs
     id="defs32" />
  <sodipodi:namedview
     id="namedview30"
     pagecolor="#ffffff"
     bordercolor="#666666"
     borderopacity="1.0"
     inkscape:pageshadow="2"
     inkscape:pageopacity="0.0"
     inkscape:pagecheckerboard="0"
     inkscape:document-units="in"
     showgrid="false"
     units="in"
     fit-margin-top="0"
     fit-margin-left="0"
     fit-margin-right="0"
     fit-margin-bottom="0"
     inkscape:zoom="1.4583215"
     inkscape:cx="120.00097"
     inkscape:cy="167.6585"
     inkscape:window-width="1366"
     inkscape:window-height="712"
     inkscape:window-x="0"
     inkscape:window-y="0"
     inkscape:window-maximized="1"
     inkscape:current-layer="layer4"
     showborder="false" />
  <g
     inkscape:groupmode="layer"
     id="layer1"
     inkscape:label="CardName"
     transform="translate(-24.13084,-22.256209)"
     style="display:inline">
    <path
       id="path2440"
       style="fill:#000000;fill-opacity:1;fill-rule:evenodd;stroke:none;stroke-width:1.88976;stroke-miterlimit:4;stroke-dasharray:none;stroke-opacity:1"
       d="m 231.57031,265.58984 -16.73437,0.47071 -0.31836,6.42968 c 0.85497,-0.0265 1.71136,-0.0305 2.5664,-0.008 0.60171,0.0204 1.19569,0.13853 1.75782,0.35547 0.12132,0.0563 0.23029,0.13932 0.31836,0.24023 0.0559,0.16343 0.0923,0.33238 0.0937,0.50586 -0.0117,0.93464 -0.10916,1.86618 -0.28907,2.78321 -0.26188,1.35553 -0.5475,2.70745 -0.85742,4.05273 l -8.65625,0.0723 c -1.22819,0.0291 -2.45616,-9.6e-4 -3.68164,-0.0879 -0.40906,-0.0246 -0.81473,-0.0899 -1.21094,-0.19532 -0.29646,-0.059 -0.57968,-0.17064 -0.83593,-0.33203 l -0.35352,-0.27734 -0.28711,-0.35352 c -0.18051,-0.28679 -0.31062,-0.6037 -0.38281,-0.93554 -0.17348,-0.85365 -0.28901,-1.71845 -0.3457,-2.58789 -0.0763,-0.60579 -0.11456,-1.21552 -0.11524,-1.82618 -0.007,-0.18916 0.0248,-0.37767 0.10156,-0.55078 l 0.0937,-0.16797 0.11524,-0.10742 0.26562,-0.13867 c 0.24125,-0.0775 0.4901,-0.12967 0.74219,-0.15234 1.05517,-0.1183 2.11349,-0.21845 3.17188,-0.30274 l -0.41211,-6.34375 c -3.29802,0.0915 -6.58195,0.20322 -9.87891,0.33399 -1.94328,0.069 -3.88378,0.21154 -5.81641,0.42773 -0.38619,0.0272 -0.76827,0.0976 -1.13867,0.21094 l -0.0859,0.0488 c -0.10658,0.16255 -0.179,0.34586 -0.21679,0.53711 -0.0896,0.66773 -0.12424,1.34234 -0.10157,2.01562 0.0612,1.1006 0.14405,2.1993 0.2461,3.29688 1.11583,0.0605 2.22992,0.13541 3.34375,0.22461 0.32738,0.0163 0.65076,0.0738 0.96484,0.16796 0.28959,0.0622 0.55637,0.20928 0.75781,0.42774 l 0.21485,0.31836 c 0.1319,0.26657 0.23123,0.54964 0.28906,0.8418 2.54771,10.2732 5.21035,20.5318 7.97852,30.74609 1.05139,4.03204 2.15972,8.04764 3.32812,12.04687 l 0.22461,0.6875 0.17188,0.3125 c 0.23969,0.36223 0.60794,0.62061 1.03125,0.71094 0.18217,0.004 0.36312,-0.0296 0.5332,-0.0957 l 0.7793,-0.15235 c 0.71848,-0.0816 1.43965,-0.13578 2.16211,-0.16601 1.63094,-0.0499 3.26091,-0.072 4.89257,-0.0645 1.03378,-4.03544 2.0187,-8.08127 2.95508,-12.14063 1.80529,-7.7774 3.53106,-15.253 5.31836,-23.03516 0.72817,-3.15628 1.49847,-6.30257 2.3125,-9.4375 0.0809,-0.34628 0.20681,-0.67924 0.375,-0.99218 0.16396,-0.3055 0.41173,-0.55831 0.71485,-0.72461 0.39121,-0.17386 0.81085,-0.27187 1.23828,-0.28321 0.905,-0.0432 1.81095,-0.0581 2.71679,-0.043 z m -19.31054,21.61133 c 0.29669,0 0.59397,0.002 0.89062,0.01 0.53461,-0.002 1.06712,0.0492 1.5918,0.15234 0.4134,0.0646 0.78526,0.29745 1.00976,0.65234 l 0.12891,0.29102 0.0508,0.31836 c 0.0151,0.33109 0.009,0.66186 -0.0215,0.99219 -0.10636,0.82246 -0.26025,1.63877 -0.46094,2.44336 -0.98642,4.18673 -1.97089,8.37822 -2.94922,12.56836 -0.27239,1.25098 -0.62957,2.48088 -1.07227,3.68164 l -0.24609,0.44922 -0.10742,0.13085 -0.13672,0.0938 h -0.12305 l -0.12304,-0.0938 -0.0937,-0.13085 c -0.12435,-0.26555 -0.22198,-0.54196 -0.29493,-0.82618 -1.67943,-6.36143 -3.22206,-12.75706 -4.62695,-19.18554 -0.0639,-0.2383 -0.0935,-0.48524 -0.0859,-0.73243 l 0.043,-0.11523 0.0801,-0.10937 0.0937,-0.0859 c 0.35244,-0.1818 0.73605,-0.29216 1.13086,-0.32617 l 1.53516,-0.11719 c 0.96544,-0.028 1.93058,-0.047 2.89648,-0.0508 h 0.002 c 0.29666,-0.008 0.59198,-0.01 0.88868,-0.01 z"
       transform="matrix(0.26458333,0,0,0.26458333,174.58787,128.70184)" />
    <path
       id="path2422"
       style="fill:#000000;fill-opacity:1;fill-rule:evenodd;stroke:none;stroke-width:1.88976;stroke-miterlimit:4;stroke-dasharray:none;stroke-opacity:1"
       d="m 34.292969,16.511719 -10.054688,0.08008 c -2.057726,8.334954 -4.059092,16.626819 -6.03125,24.984375 -1.638085,7.121386 -3.350021,14.237718 -5.130859,21.324219 l -4.685547,0.04297 c 0.020409,2.22807 0.039443,4.505399 0.050781,6.734375 l 17.044922,-0.136718 -0.05078,-6.734375 c -0.967748,0.0038 -1.930765,0.0121 -2.898438,0.02344 -0.439332,0.0049 -0.877186,-0.029 -1.310547,-0.101562 -0.14211,-0.01965 -0.27333,-0.08816 -0.375,-0.189454 -0.167811,-0.181946 -0.239345,-0.42967 -0.201171,-0.673828 l 0.115234,-0.695312 c 0.6432,-2.081499 1.173932,-4.197141 1.591797,-6.335938 l 14.802734,0.22461 c 0.4512,1.670135 0.891829,3.335359 1.326172,5.009765 0.11452,0.478829 0.191162,0.966147 0.230469,1.457032 0.01134,0.188485 -0.01041,0.375979 -0.06445,0.55664 -0.07487,0.208328 -0.235737,0.372748 -0.439453,0.457031 -0.32538,0.09978 -0.662174,0.158711 -1.001953,0.173829 -1.084271,0 -2.17358,0.0083 -3.257813,0.02344 l 0.05664,6.769531 17.339843,-0.478515 -0.04297,-6.125 c -1.115717,-0.06047 -2.229886,-0.135413 -3.34375,-0.22461 -0.436611,-0.02608 -0.866786,-0.11854 -1.275391,-0.27539 -0.282784,-0.123062 -0.515652,-0.339329 -0.65625,-0.615235 C 45.8967,61.514086 45.799637,61.223177 45.742189,60.923838 L 42.976562,50.109375 Z m -4.859375,9.527343 0.04297,0.05859 c 0.23195,0.586054 0.433879,1.182373 0.605469,1.789063 1.679811,5.838047 3.21962,11.716704 4.619141,17.628906 0.130016,0.558917 0.240945,1.120873 0.332031,1.6875 l 0.01563,0.181641 -0.05859,0.109375 c -0.0514,0.06236 -0.117013,0.110262 -0.193359,0.136718 -0.491414,0.135685 -0.993506,0.233945 -1.5,0.291016 -2.529789,0.199937 -5.071005,0.218026 -7.603516,0.05664 -0.446475,-0.01701 -0.887352,-0.107327 -1.304687,-0.267578 -0.161764,-0.04687 -0.279804,-0.186902 -0.294922,-0.355469 l 0.08008,-0.673828 c 0.864302,-4.171616 1.83981,-8.318722 2.925781,-12.4375 0.573392,-2.309329 1.190335,-4.609165 1.851563,-6.894532 0.114179,-0.427842 0.257782,-0.846813 0.43164,-1.253906 z"
       transform="matrix(0.26458333,0,0,0.26458333,174.58787,128.70184)" />
  </g>
  <g
     inkscape:groupmode="layer"
     id="layer2"
     inkscape:label="OuterSuit"
     style="display:inline">
    <path
       style="fill:#000000;fill-opacity:1;fill-rule:evenodd;stroke:none;stroke-width:0.5;stroke-miterlimit:4;stroke-dasharray:none;stroke-opacity:1"
       d="m 207.08928,160.75693 c -0.10959,0.24398 -0.20447,0.49437 -0.28411,0.74983 -0.18858,0.58147 -0.33637,1.1755 -0.44237,1.77775 -0.0278,0.15641 -0.0432,0.31481 -0.0458,0.47369 -0.005,0.0507 0.007,0.10154 0.0324,0.14574 l 0.0267,0.004 c 0.0404,-0.0127 0.0786,-0.032 0.1125,-0.0575 0.17844,-0.12627 0.34322,-0.27096 0.49196,-0.43149 0.23537,-0.24486 0.5166,-0.44045 0.82754,-0.57532 0.71014,-0.29923 1.52454,-0.2001 2.14324,0.26081 0.33712,0.24731 0.60299,0.58018 0.77035,0.96462 0.27219,0.62986 0.32135,1.33448 0.13919,1.99637 -0.0959,0.3481 -0.22689,0.68546 -0.39089,1.00682 -0.0729,0.14788 -0.1498,0.29367 -0.23072,0.43724 -0.34102,0.59609 -0.70745,1.17704 -1.09832,1.74131 -0.56116,0.80534 -1.11586,1.61058 -1.66844,2.42211 -0.37245,0.55372 -0.73174,1.11653 -1.07734,1.68762 l -0.21547,0.3241 -0.0152,-0.004 -0.0972,-0.12466 c -1.07563,-1.45971 -2.13536,-2.93151 -3.17863,-4.41464 -0.40774,-0.5818 -0.79881,-1.17527 -1.17268,-1.77967 -0.14495,-0.24928 -0.273,-0.50812 -0.38326,-0.77476 -0.17976,-0.49075 -0.26514,-1.01138 -0.2517,-1.5342 l 0.021,-0.25698 0.0496,-0.25314 0.0782,-0.24547 0.10488,-0.23588 c 0.1419,-0.26473 0.33211,-0.50021 0.56059,-0.69422 l 0.16971,-0.13616 0.20784,-0.13808 c 0.12293,-0.0711 0.25105,-0.13259 0.38327,-0.18411 0.46147,-0.1763 0.96483,-0.20965 1.44535,-0.0959 0.1483,0.0376 0.2926,0.0897 0.43093,0.15533 l 0.20022,0.11123 c 0.13,0.0819 0.25078,0.17778 0.36038,0.28574 0.12305,0.14508 0.2483,0.28831 0.37564,0.42958 0.0607,0.0615 0.12787,0.11602 0.20021,0.16301 l 0.0381,0.0134 0.0248,-0.006 c 0.0159,-0.0281 0.0239,-0.0598 0.0248,-0.0921 -0.003,-0.1787 -0.0229,-0.35668 -0.061,-0.53122 -0.14416,-0.72353 -0.34436,-1.43462 -0.59874,-2.12678 -0.1133,-0.29522 -0.23991,-0.58509 -0.37945,-0.86874 l -0.20212,-0.44683 -0.008,-0.023 c 0.0223,-0.002 0.0445,-0.005 0.0667,-0.008 0.37977,-0.0198 0.76002,-0.0307 1.14026,-0.0326 l 1.81336,-0.0307 z"
       id="path2432" />
    <path
       style="fill:#000000;fill-opacity:1;fill-rule:evenodd;stroke:none;stroke-width:0.5;stroke-miterlimit:4;stroke-dasharray:none;stroke-opacity:1"
       d="m 158.50796,128.09584 c 0.0635,0.0152 0.11913,0.0541 0.15445,0.10931 0.0518,0.0745 0.0919,0.15659 0.11823,0.24356 0.0507,0.0921 0.10475,0.1823 0.16207,0.2704 0.55492,0.82584 1.13679,1.63299 1.74472,2.42019 0.48726,0.64658 0.95831,1.30512 1.41293,1.97528 0.32005,0.47667 0.61228,0.97163 0.87522,1.48241 0.17014,0.34105 0.30434,0.69905 0.40043,1.06818 0.0783,0.32749 0.10787,0.66485 0.0877,1.00107 l -0.0324,0.27999 -0.0572,0.26465 -0.0801,0.2493 -0.10488,0.23205 -0.12394,0.21287 -0.14682,0.19561 -0.1678,0.17451 -0.18496,0.15534 -0.20402,0.13232 -0.2231,0.11123 -0.23835,0.0882 -0.25361,0.0633 -0.26694,0.0403 -0.28221,0.0134 c -0.15031,-0.003 -0.30043,-0.0117 -0.45,-0.0268 -0.18095,-0.0211 -0.35923,-0.0609 -0.532,-0.11891 -0.151,-0.0643 -0.28977,-0.1544 -0.40996,-0.26656 -0.14502,-0.13343 -0.28312,-0.27423 -0.41378,-0.4219 -0.11151,-0.11544 -0.22529,-0.22859 -0.34131,-0.33944 l -0.1106,-0.0786 -0.021,0.01 c -0.014,0.0191 -0.0224,0.0416 -0.0248,0.0652 -0.006,0.0988 1.4e-4,0.19789 0.0171,0.29533 0.0488,0.30325 0.11434,0.60352 0.1964,0.89942 0.16311,0.60649 0.35658,1.20431 0.57966,1.79118 0.0857,0.21867 0.18173,0.43308 0.28793,0.64244 0.11427,0.19391 0.22897,0.38636 0.34513,0.57916 -0.89309,0.0157 -1.78589,0.0189 -2.67905,0.01 -0.1634,-0.004 -0.32683,-0.0104 -0.49004,-0.0192 l -0.0362,-0.0115 0.006,-0.023 c 0.10594,-0.24562 0.21912,-0.48799 0.3394,-0.72683 l 0.14492,-0.34136 c 0.19822,-0.53527 0.36377,-1.08219 0.49577,-1.63775 0.12033,-0.53183 0.21766,-1.06867 0.29174,-1.60898 -0.25754,0.25585 -0.52073,0.50584 -0.78941,0.74983 -0.2009,0.1857 -0.42684,0.34197 -0.6712,0.4641 l -0.21737,0.0844 -0.22881,0.0556 c -0.47722,0.0816 -0.96676,0.0508 -1.4301,-0.0901 l -0.22691,-0.0882 -0.21356,-0.11123 -0.19831,-0.13424 -0.18114,-0.15534 c -0.11388,-0.11198 -0.21613,-0.23534 -0.30509,-0.3682 l -0.12204,-0.20904 -0.0972,-0.22437 -0.0801,-0.24931 -0.0572,-0.25698 c -0.0293,-0.17228 -0.0434,-0.34684 -0.042,-0.52162 l 0.021,-0.35671 0.0515,-0.35477 0.082,-0.34712 0.11059,-0.34136 c 0.12965,-0.34819 0.29515,-0.68177 0.49386,-0.99531 0.49158,-0.79677 1.01182,-1.57523 1.55976,-2.33389 0.56893,-0.77398 1.13152,-1.55487 1.68561,-2.33964 0.21666,-0.30161 0.4221,-0.61123 0.61589,-0.92819 0.0353,-0.0683 0.0715,-0.13607 0.10869,-0.20328 0.0542,-0.0906 0.13665,-0.16078 0.23454,-0.19945 0.0367,-0.0105 0.0757,-0.0102 0.1125,0 z"
       id="path2424" />
  </g>
  <g
     inkscape:groupmode="layer"
     id="layer4"
     inkscape:label="CardOutline"
     style="display:inline">
    <path
       id="path2442"
       style="fill:#000000;fill-opacity:1;fill-rule:evenodd;stroke:none;stroke-width:0.5;stroke-miterlimit:4;stroke-dasharray:none;stroke-opacity:1"
       d="m 155.81175,106.7015 c -0.82898,4.6e-4 -1.65743,0.008 -2.48646,0.0211 -0.0433,0.001 -0.0865,0.004 -0.12966,0.008 -0.15289,0.0598 -0.30028,0.13294 -0.44047,0.21862 -0.21147,0.12654 -0.41008,0.27366 -0.59301,0.43917 l -0.2517,0.24163 c -0.11995,0.12991 -0.23506,0.26426 -0.34513,0.40273 -0.0984,0.13173 -0.18754,0.27015 -0.26695,0.41423 l -0.43284,0.79011 -0.0305,30.48061 -0.008,6.36116 -0.01,6.3669 -0.0191,12.07987 -0.0324,13.4894 -0.061,14.22007 0.48242,0.81504 c 0.14855,0.24974 0.32027,0.48477 0.51293,0.70189 0.29656,0.32346 0.65018,0.58884 1.04302,0.78244 0.46324,0.22327 0.96809,0.34608 1.48158,0.36054 0.38941,0.008 0.77365,0.0155 1.16314,0.0211 2.50454,0.0267 5.04039,0.0461 7.54519,0.0575 l 10.35008,0.0479 6.77103,0.0249 10.14605,0.0307 8.10198,0.0153 c 2.85073,0.008 5.726,0.003 8.57676,-0.0134 l 2.39875,-0.0307 c 0.58857,-0.01 1.17676,-0.0365 1.76378,-0.0805 0.1034,-0.0138 0.20592,-0.0336 0.307,-0.0594 0.0944,-0.0371 0.18552,-0.0822 0.27267,-0.13425 0.17501,-0.10661 0.34263,-0.22508 0.50149,-0.35478 0.3055,-0.24762 0.58707,-0.52369 0.84089,-0.82463 0.13405,-0.15351 0.25459,-0.31845 0.36039,-0.49286 0.0454,-0.0806 0.0834,-0.16525 0.1125,-0.25314 l 0.004,-0.0479 c 0.0136,-0.53321 0.0231,-1.06607 0.0286,-1.5994 0.0403,-4.31796 0.0689,-8.63343 0.0858,-12.95244 l 0.0496,-11.97055 0.0496,-15.14442 0.0534,-24.80025 0.002,-7.62687 c 0.004,-2.44488 -0.0129,-4.88494 -0.0515,-7.32961 -0.006,-0.59199 -0.0314,-1.18359 -0.0763,-1.77391 -0.012,-0.11008 -0.0324,-0.21908 -0.061,-0.32602 -0.12218,-0.28798 -0.27158,-0.5635 -0.44619,-0.82271 -0.11812,-0.166 -0.24745,-0.32362 -0.38708,-0.47177 -0.13475,-0.13891 -0.27942,-0.26775 -0.43284,-0.38546 -0.16053,-0.12156 -0.33009,-0.23057 -0.50721,-0.32602 l -0.74365,-0.41231 -28.76019,-0.11315 -5.79475,-0.0211 -5.41911,-0.0134 -5.49538,-0.0115 c -3.20632,-0.007 -6.51584,-0.006 -9.72275,0.002 z m 9.72084,-0.25122 5.49539,0.0115 5.41911,0.0134 5.79665,0.0211 28.82503,0.11315 0.80657,0.44683 0.27076,0.16109 c 0.17552,0.11485 0.3425,0.24239 0.49958,0.38163 l 0.22691,0.21862 c 0.1451,0.15114 0.27832,0.31338 0.39852,0.4852 l 0.17162,0.26464 c 0.11774,0.20326 0.22223,0.41401 0.31271,0.63094 0.0483,0.16864 0.0765,0.34245 0.0839,0.51779 0.0385,0.55155 0.0607,1.10405 0.0667,1.65693 0.0347,2.44156 0.0519,4.8918 0.0515,7.33345 l -0.002,7.62878 -0.0534,24.80026 -0.0496,15.14441 -0.0496,11.97056 -0.0401,7.32194 c -0.007,2.14694 -0.026,4.29306 -0.0572,6.43978 l -0.0171,0.80929 -0.006,0.0767 c -0.0489,0.14981 -0.11769,0.29223 -0.20403,0.42382 -0.20407,0.30281 -0.43785,0.58421 -0.69789,0.83997 -0.31322,0.31772 -0.6627,0.59708 -1.04111,0.8323 -0.0995,0.0598 -0.20425,0.11033 -0.31271,0.1515 -0.15333,0.0417 -0.31051,0.0674 -0.46907,0.0767 -0.55786,0.0417 -1.11673,0.0666 -1.67608,0.0748 -1.5991,0.0268 -3.19809,0.0409 -4.79749,0.0422 -2.06585,0.007 -4.11585,0.008 -6.18183,0.002 l -8.10007,-0.0154 -10.14987,-0.0307 -6.77103,-0.0249 -10.35008,-0.0479 c -2.51268,-0.0115 -5.03417,-0.0307 -7.54709,-0.0575 -0.39182,-0.006 -0.78086,-0.0128 -1.17268,-0.0211 -0.67775,-0.0204 -1.33835,-0.21876 -1.91633,-0.57532 -0.40438,-0.25506 -0.75749,-0.58424 -1.04111,-0.97038 -0.1005,-0.1336 -0.19281,-0.27322 -0.27648,-0.41807 l -0.52056,-0.88024 0.061,-14.28719 0.0324,-13.48941 0.0191,-12.07986 0.01,-6.36691 0.008,-6.36115 0.0305,-30.54198 0.46716,-0.8534 c 0.11432,-0.20545 0.24706,-0.39995 0.39661,-0.58107 l 0.24407,-0.27424 0.26314,-0.25698 c 0.30015,-0.26999 0.63808,-0.49418 1.00297,-0.66545 l 0.14683,-0.0575 c 0.0589,-0.006 0.11808,-0.0103 0.17733,-0.0115 0.83086,-0.0134 1.66313,-0.0205 2.49409,-0.0211 3.20967,-0.008 6.51375,-0.009 9.72275,-0.002 z" />
  </g>
  <g
     inkscape:groupmode="layer"
     id="layer5"
     inkscape:label="InnerRectangle"
     style="display:inline">
    <path
       id="path2434"
       style="fill:none;fill-opacity:1;fill-rule:evenodd;stroke:#4c71a5;stroke-width:0.1;stroke-miterlimit:4;stroke-dasharray:none;stroke-opacity:1"
       d="m 165.93683,123.52586 v 54.74198 h 32.48416 v -54.74198 z m 32.73205,54.99129 h -32.97993 v -55.2406 h 32.97993 z" />
  </g>
  <g
     inkscape:groupmode="layer"
     id="layer3"
     inkscape:label="InnerSuit"
     style="display:inline">
    <g
       id="g2834"
       style="display:inline">
      <path
         style="fill:none;fill-opacity:1;fill-rule:evenodd;stroke:#000000;stroke-width:0.5;stroke-miterlimit:4;stroke-dasharray:none;stroke-opacity:1"
         d="m 182.12552,136.15612 0.0152,0.01 c 0.0192,0.0136 0.0376,0.0284 0.0534,0.046 0.21107,0.22459 0.40486,0.465 0.57967,0.71916 0.24214,0.29653 0.49465,0.58436 0.75699,0.86298 1.01197,1.08859 2.03908,2.16249 3.08139,3.22181 1.20518,1.21348 2.40261,2.43634 3.59049,3.66672 0.53883,0.56411 1.06592,1.13962 1.58073,1.72597 0.42841,0.48948 0.82218,1.00852 1.1784,1.55337 l 0.29937,0.51396 0.27648,0.52738 0.2517,0.53888 0.225,0.5504 c 0.22477,0.57824 0.38282,1.18052 0.47098,1.795 0.0649,0.45657 0.0816,0.91878 0.0496,1.37886 l -0.0362,0.39314 c -0.0504,0.40653 -0.13204,0.80855 -0.24407,1.20243 -0.13711,0.49111 -0.31047,0.97123 -0.51865,1.43638 -0.1254,0.26226 -0.27621,0.51143 -0.45001,0.74409 -0.4876,0.60503 -1.05541,1.13991 -1.68751,1.58981 -0.50777,0.34916 -1.07736,0.59722 -1.67798,0.73066 -0.62135,0.13374 -1.25637,0.19233 -1.89154,0.17451 -0.80262,-0.0296 -1.5917,-0.21719 -2.32248,-0.55231 -0.29448,-0.14267 -0.58637,-0.29105 -0.87522,-0.44491 -0.19034,-0.10125 -0.3872,-0.18963 -0.58919,-0.26465 -0.0303,-0.0129 -0.0625,-0.0205 -0.0953,-0.023 l -0.0115,0.004 -0.0114,0.0173 -0.006,0.0288 c -0.006,0.0656 -1.1e-4,0.13161 0.0152,0.19561 0.0306,0.17041 0.0714,0.33882 0.12203,0.50436 0.20105,0.66679 0.44695,1.31905 0.73602,1.95227 0.089,0.18542 0.18314,0.36828 0.28221,0.54847 0.39239,0.67756 0.83139,1.32669 1.31378,1.94267 l 0.89429,1.12189 -0.49767,1.03749 c -0.51716,-0.18434 -0.98689,-0.35142 -1.50447,-0.53505 -0.32732,-0.10568 -0.6628,-0.18394 -1.00297,-0.23396 -0.42182,-0.054 -0.8466,-0.0815 -1.27183,-0.0825 -0.626,-0.0209 -1.2526,-0.0157 -1.8782,0.0154 -0.31281,0.0165 -0.62464,0.0485 -0.93432,0.0959 -0.30931,0.0486 -0.61605,0.11267 -0.91908,0.19177 -0.47895,0.13258 -0.95113,0.28876 -1.41484,0.46793 l -0.0477,0.008 c -0.0683,-0.013 -0.13106,-0.0457 -0.18305,-0.0921 -0.10362,-0.0927 -0.19179,-0.20147 -0.26123,-0.32218 l -0.28221,-0.48711 0.98772,-1.24461 c 0.53637,-0.68718 1.01532,-1.41776 1.432,-2.18431 l 0.1125,-0.22054 c 0.23271,-0.48978 0.4377,-0.99237 0.61399,-1.50543 0.0811,-0.24511 0.15482,-0.49263 0.22119,-0.74217 0.031,-0.13743 0.05,-0.27732 0.0572,-0.41806 -0.002,-0.0299 -0.0119,-0.059 -0.0305,-0.0825 l -0.0134,-0.006 c -0.0678,0.007 -0.13366,0.0266 -0.19449,0.0575 -0.2833,0.12357 -0.55788,0.26645 -0.82183,0.42766 -0.69299,0.41847 -1.451,0.71671 -2.24239,0.88216 -0.51076,0.0986 -1.03333,0.11926 -1.55023,0.0614 -0.90565,-0.1099 -1.77956,-0.40423 -2.56845,-0.86489 -0.54324,-0.32361 -1.03338,-0.72987 -1.45298,-1.20435 -0.4213,-0.45815 -0.77395,-0.97565 -1.04683,-1.53611 -0.16191,-0.33735 -0.29586,-0.68756 -0.40042,-1.04709 -0.20063,-0.70042 -0.33537,-1.41825 -0.40234,-2.14404 l -0.01,-0.38738 0.0191,-0.38547 0.0496,-0.38547 0.11059,-0.56381 0.1392,-0.55806 0.16589,-0.5504 0.1945,-0.5408 0.18496,-0.42574 c 0.29213,-0.61876 0.64405,-1.20714 1.05064,-1.75665 0.4603,-0.62459 0.95292,-1.22438 1.47586,-1.79693 0.82179,-0.90779 1.66812,-1.79287 2.53794,-2.65415 1.39344,-1.3793 2.75463,-2.79114 4.08245,-4.23438 0.46139,-0.50735 0.90223,-1.03325 1.32141,-1.57638 l 0.48051,-0.57533 c 0.0919,-0.11281 0.19336,-0.21736 0.30318,-0.31259 l 0.0172,-0.008 z"
         id="path2430" />
      <path
         style="fill:#000000;fill-opacity:1;fill-rule:evenodd;stroke:none;stroke-width:0.5;stroke-miterlimit:4;stroke-dasharray:none;stroke-opacity:1"
         d="m 181.7823,137.44484 -0.46526,0.59066 c -0.3762,0.45466 -0.76669,0.8973 -1.17077,1.32708 -1.23898,1.33897 -2.50751,2.65059 -3.80405,3.93329 -1.00044,0.98924 -1.96843,2.01138 -2.90214,3.06456 -0.45949,0.52799 -0.89041,1.08046 -1.29091,1.65501 -0.28041,0.41206 -0.52844,0.84549 -0.74174,1.2964 l -0.1697,0.3893 -0.1945,0.5408 -0.15636,0.51779 -0.12393,0.49862 -0.1106,0.56381 -0.0381,0.29533 -0.0191,0.37013 0.01,0.33944 c 0.0352,0.39968 0.0951,0.79678 0.17923,1.189 0.0558,0.27349 0.12192,0.54472 0.19831,0.81312 0.15556,0.54302 0.38874,1.06048 0.69217,1.53612 0.11744,0.18375 0.2454,0.36049 0.38326,0.52929 0.1471,0.1773 0.30103,0.34877 0.46145,0.51396 0.16778,0.1659 0.34473,0.32216 0.53009,0.46793 0.35153,0.27318 0.73513,0.50182 1.14217,0.68079 0.17382,0.0731 0.34926,0.14217 0.52627,0.20712 0.45161,0.14948 0.91856,0.24727 1.39196,0.2915 0.60545,0.0379 1.2125,-0.0409 1.78858,-0.23205 0.42697,-0.13673 0.84004,-0.314 1.23369,-0.52929 l 0.40615,-0.23781 c 0.26381,-0.15314 0.53847,-0.28648 0.82183,-0.39889 l 0.0152,-0.004 c 0.0859,-0.0252 0.174,-0.042 0.26314,-0.0499 0.29546,-0.009 0.56037,0.18219 0.64831,0.46601 0.0383,0.10603 0.051,0.21971 0.0381,0.33177 -0.006,0.1029 -0.0182,0.20537 -0.0362,0.30684 -0.0173,0.11043 -0.0427,0.21944 -0.0763,0.32602 -0.11871,0.43595 -0.26324,0.86439 -0.43285,1.28297 l -0.18686,0.45451 c -0.002,0.008 -0.006,0.0153 -0.01,0.023 l -0.20403,0.44684 c -0.15644,0.32025 -0.32957,0.632 -0.51865,0.93394 -0.33614,0.54874 -0.7015,1.0788 -1.0945,1.58789 l -0.73221,0.92244 0.0877,0.14958 c 0.3933,-0.1438 0.7921,-0.27176 1.19556,-0.38355 l 0.47289,-0.11123 c 0.33709,-0.0702 0.67761,-0.12267 1.02013,-0.15725 0.6455,-0.0554 1.29339,-0.0772 1.94112,-0.0652 0.26728,0.008 0.5354,0.0135 0.80276,0.0173 0.33398,0.0136 0.66729,0.0405 0.99916,0.0805 0.24836,0.0371 0.49465,0.0871 0.73792,0.14959 0.13057,0.0417 0.26218,0.0801 0.39471,0.11506 l 0.982,0.34903 0.0858,-0.18026 -0.65022,-0.81505 c -0.49859,-0.63702 -0.95286,-1.30791 -1.35955,-2.00788 -0.21813,-0.38898 -0.40923,-0.79268 -0.57203,-1.20817 -0.23644,-0.5655 -0.43394,-1.14666 -0.59111,-1.73939 -0.0324,-0.12623 -0.0573,-0.25431 -0.0744,-0.38355 -0.0114,-0.0794 -0.0131,-0.15985 -0.006,-0.23972 0.0166,-0.36116 0.31964,-0.64172 0.67882,-0.6271 0.0919,0.006 0.18241,0.0256 0.26885,0.0575 l 0.35085,0.14383 0.0134,0.008 0.28983,0.14191 0.0133,0.006 c 0.2822,0.14958 0.56692,0.29402 0.85425,0.43341 0.74695,0.34256 1.56079,0.51226 2.38159,0.4967 0.47755,-0.006 0.95335,-0.0596 1.42056,-0.15918 0.60945,-0.13371 1.18188,-0.40154 1.67607,-0.78435 0.50031,-0.3845 0.95401,-0.82671 1.35192,-1.31749 0.19907,-0.26874 0.36192,-0.5628 0.48432,-0.87449 0.19509,-0.47151 0.35134,-0.95834 0.46717,-1.45557 0.0861,-0.36675 0.14162,-0.74008 0.16589,-1.11613 0.0158,-0.23876 0.0177,-0.47825 0.006,-0.71723 -0.0491,-0.74114 -0.21181,-1.47017 -0.48242,-2.1613 l -0.225,-0.55039 -0.22691,-0.48519 -0.27648,-0.52738 -0.27458,-0.47177 c -0.34057,-0.52012 -0.71713,-1.01549 -1.12692,-1.48241 -0.67876,-0.76951 -1.3768,-1.52143 -2.09366,-2.25527 -1.00732,-1.0354 -2.0271,-2.07452 -3.04324,-3.10099 -1.04743,-1.06226 -2.07855,-2.14084 -3.09282,-3.23523 l -0.008,-0.006 c -0.28037,-0.29345 -0.54757,-0.59932 -0.80085,-0.91669 l -0.17162,-0.23588 z"
         id="path2428" />
      <path
         style="fill:none;fill-opacity:1;fill-rule:evenodd;stroke:#000000;stroke-width:0.5;stroke-miterlimit:4;stroke-dasharray:none;stroke-opacity:1"
         d="m 184.45754,140.62254 c 1.4074,1.43241 2.83315,2.84654 4.27694,4.24205 l 0.55487,0.5619 c 0.36405,0.38212 0.71691,0.77474 1.05827,1.17749 l 0.49958,0.61176 c 0.4793,0.60683 0.91332,1.24846 1.29853,1.91966 0.23838,0.42615 0.4529,0.86538 0.64259,1.31557 0.0748,0.18763 0.13786,0.37978 0.18877,0.57533 0.0575,0.26134 0.0945,0.52678 0.1106,0.79394 0.0367,0.52911 0.0507,1.05951 0.0419,1.58981 l -0.0172,0.30109 c -0.0209,0.19915 -0.056,0.39654 -0.10487,0.59066 -0.19261,0.71775 -0.53306,1.38677 -0.99916,1.96377 -0.47371,0.61067 -1.06521,1.11883 -1.739,1.49393 -0.15777,0.0849 -0.32156,0.15798 -0.49004,0.21861 -0.23192,0.0694 -0.47143,0.10992 -0.71315,0.12083 -0.54388,0.0333 -1.08947,0.0256 -1.63221,-0.023 -0.35647,-0.0342 -0.70814,-0.10748 -1.04874,-0.21863 l -0.30509,-0.11889 c -0.19979,-0.0878 -0.3935,-0.18889 -0.57966,-0.30301 -0.35309,-0.2292 -0.68554,-0.48904 -0.99344,-0.77669 -0.22504,-0.2234 -0.45651,-0.44021 -0.69407,-0.65011 -0.19622,-0.17921 -0.40253,-0.34695 -0.61781,-0.50245 l -0.13729,-0.0767 -0.0267,-0.004 -0.0553,0.008 -0.0515,0.023 c -0.0551,0.0462 -0.0981,0.10532 -0.12394,0.1726 -0.0526,0.14765 -0.0847,0.30187 -0.0953,0.45834 -0.0249,0.30814 -0.0281,0.61767 -0.01,0.92627 l 0.0458,0.66546 0.0763,0.66161 0.10487,0.65779 0.13157,0.65203 c 0.24674,1.0714 0.68969,2.08718 1.30616,2.99552 0.12918,0.19418 0.2445,0.39734 0.34512,0.60792 l 0.01,0.0326 -0.008,0.0115 c -0.0974,0.0233 -0.19746,0.0332 -0.29746,0.0288 -0.34182,-0.004 -0.68337,-0.0204 -1.02395,-0.0499 -0.67978,-0.0541 -1.36282,-0.0515 -2.04218,0.008 -0.24231,0.0377 -0.48589,0.0665 -0.7303,0.0863 -0.12248,0.0147 -0.24646,0.0115 -0.36801,-0.01 l -0.0229,-0.01 -0.0134,-0.01 -0.006,-0.0134 c 0.0237,-0.0891 0.0555,-0.17582 0.0953,-0.2589 0.14316,-0.32694 0.29509,-0.64984 0.45572,-0.96846 0.44208,-0.91334 0.7786,-1.87467 1.00297,-2.86511 l 0.12013,-0.55422 0.0915,-0.55807 0.0629,-0.56382 c 0.0224,-0.26158 0.037,-0.52381 0.0438,-0.78627 0.004,-0.25457 -0.003,-0.5092 -0.0191,-0.76326 -0.0128,-0.0985 -0.0353,-0.19543 -0.0667,-0.28958 -0.0395,-0.10107 -0.11804,-0.18173 -0.21737,-0.22438 -0.036,-0.0134 -0.0743,-0.0198 -0.1125,-0.0172 -0.11128,0.0191 -0.21646,0.0645 -0.307,0.13233 -0.27232,0.20107 -0.53153,0.41951 -0.77606,0.65395 -0.45597,0.43072 -0.94922,0.81966 -1.47396,1.16215 -0.29966,0.19293 -0.61624,0.35788 -0.94577,0.49286 -0.35438,0.14618 -0.72614,0.24548 -1.10594,0.29533 l -0.32034,0.0326 c -0.45022,0.0238 -0.90166,-0.008 -1.34429,-0.094 -0.75889,-0.12826 -1.47578,-0.43873 -2.08985,-0.90518 -0.60745,-0.47335 -1.08518,-1.09434 -1.38814,-1.80459 -0.25635,-0.58949 -0.41857,-1.21601 -0.48051,-1.85638 -0.0667,-0.63215 -0.0597,-1.26997 0.021,-1.90048 0.0717,-0.50274 0.20427,-0.99478 0.39471,-1.46516 0.38808,-0.95792 0.90452,-1.85798 1.53497,-2.67525 0.48166,-0.62328 0.99129,-1.22415 1.52734,-1.80076 0.69442,-0.74923 1.40103,-1.48609 2.12036,-2.21116 1.32724,-1.33118 2.63176,-2.68345 3.91465,-4.05794 l 0.17352,-0.1937 0.95149,-1.09503 z"
         id="path2426" />
    </g>
  </g>
</svg>
